<?xml version="1.0" encoding="UTF-8"?>
<!DOCTYPE svg PUBLIC "-//W3C//DTD SVG 1.1//EN" "http://www.w3.org/Graphics/SVG/1.1/DTD/svg11.dtd">
<!-- Creator: CorelDRAW -->
<svg xmlns="http://www.w3.org/2000/svg" xml:space="preserve" width="420mm" height="297mm" style="shape-rendering:geometricPrecision; text-rendering:geometricPrecision; image-rendering:optimizeQuality; fill-rule:evenodd; clip-rule:evenodd"
viewBox="0 0 420 297"
 xmlns:xlink="http://www.w3.org/1999/xlink">
 <defs>
  <style type="text/css">
   <![CDATA[
    .str10 {stroke:#1F1A17;stroke-width:0.75}
    .str5 {stroke:#1F1A17;stroke-width:0.75;stroke-linecap:round;stroke-linejoin:round}
    .str8 {stroke:#383431;stroke-width:0.75}
    .str0 {stroke:#383431;stroke-width:0.75;stroke-linecap:round;stroke-linejoin:round}
    .str4 {stroke:#5F4E5D;stroke-width:0.75;stroke-linecap:round;stroke-linejoin:round}
    .str2 {stroke:#8F5444;stroke-width:0.75;stroke-linecap:round;stroke-linejoin:round}
    .str9 {stroke:#969594;stroke-width:0.75;stroke-linecap:round;stroke-linejoin:round}
    .str11 {stroke:#1E3D55;stroke-width:0.75}
    .str1 {stroke:#1E3D55;stroke-width:0.75;stroke-linecap:round;stroke-linejoin:round}
    .str7 {stroke:#75445A;stroke-width:0.75;stroke-linecap:round;stroke-linejoin:round}
    .str3 {stroke:#8A2C2F;stroke-width:0.75;stroke-linecap:round;stroke-linejoin:round}
    .str6 {stroke:#605D5C;stroke-linecap:round;stroke-linejoin:round}
    .str12 {stroke:#8F5444;stroke-linecap:round;stroke-linejoin:round}
    .str13 {stroke:#1F1A17;stroke-width:1.5;stroke-linecap:round;stroke-linejoin:round}
    .fil4 {fill:none}
    .fil14 {fill:#1F1A17}
    .fil0 {fill:#383431}
    .fil16 {fill:#4D4948}
    .fil13 {fill:#5F4E5D}
    .fil2 {fill:#605D5C}
    .fil1 {fill:#838281}
    .fil17 {fill:#90546F}
    .fil19 {fill:#958089}
    .fil3 {fill:#969594}
    .fil11 {fill:#9A7A99}
    .fil9 {fill:#AAA9A9}
    .fil22 {fill:#B76767}
    .fil15 {fill:#C0A0AE}
    .fil12 {fill:#C2C1C1}
    .fil10 {fill:#DB214C}
    .fil20 {fill:white}
    .fil8 {fill:#C3957D}
    .fil6 {fill:#0779A1}
    .fil24 {fill:#0F6386}
    .fil23 {fill:#195574}
    .fil7 {fill:#1E3D55}
    .fil5 {fill:#453C35}
    .fil18 {fill:#75445A}
    .fil21 {fill:#1F1A17;fill-rule:nonzero}
   ]]>
  </style>
    <clipPath id="id0">
     <path d="M245.17 212.986c0.2657,-3.4711 -2.3037,-5.0804 -5.6044,-5.3331 -3.3006,-0.2527 -6.0849,0.9468 -6.3506,4.418 -0.1139,1.4873 0.0848,3.8188 6.1394,3.9695 6.0545,0.1506 5.7021,-1.5722 5.8156,-3.0544z"/>
    </clipPath>
    <clipPath id="id1">
     <path d="M251.043 212.986c-0.2657,-3.4711 2.3037,-5.0804 5.6044,-5.3331 3.3006,-0.2527 6.0849,0.9468 6.3506,4.418 0.1139,1.4873 -0.0848,3.8188 -6.1394,3.9695 -6.0545,0.1506 -5.7021,-1.5722 -5.8156,-3.0544z"/>
    </clipPath>
    <clipPath id="id2">
     <path d="M248.102 187.844c-0.0596,1.2457 -3.7696,18.4368 -3.7696,18.4368 0,0 -2.4096,1.8423 -11.4121,-0.57 -3.1711,-9.5366 -0.9073,-32.747 -0.7276,-33.3156l15.1762 -0.0347 0.6977 -0.0016 0.6977 -0.0016 15.1762 -0.0347c0.1823,0.5677 2.5523,23.7675 -0.5751,33.3185 -8.9914,2.4535 -11.4093,0.6223 -11.4093,0.6223 0,0 -3.7887,-17.174 -3.8541,-18.4194z"/>
    </clipPath>
    <clipPath id="id3">
     <path d="M234.174 153.244c-2.9912,0.4362 -7.0418,1.9941 -10.3446,12.5257 -3.3028,10.5316 -2.6796,19.6299 -2.6796,19.6299l8.2881 0c0,0 1.5116,-15.0568 3.2565,-18.6088 1.7449,-3.5521 1.4796,-13.5468 1.4796,-13.5468z"/>
    </clipPath>
    <clipPath id="id4">
     <path d="M135.785 152.073c-2.8558,1.1735 -3.1265,6.6173 2.6383,16.0296 5.7648,9.4122 15.4997,12.1554 15.4997,12.1554l3.6245 -7.3981c0,0 -7.9438,-4.0807 -10.6936,-8.2371 -2.7499,-4.1563 -8.2131,-13.7232 -11.0689,-12.5498z"/>
    </clipPath>
    <clipPath id="id5">
     <path d="M106.155 151.244c-2.9912,0.4362 -7.0418,1.9941 -10.3446,12.5257 -3.3028,10.5316 -2.6796,19.6299 -2.6796,19.6299l8.2881 0c0,0 1.5116,-15.0568 3.2565,-18.6088 1.7449,-3.5521 1.4796,-13.5468 1.4796,-13.5468z"/>
    </clipPath>
     <clipPath id="id6">
      <path d="M120.667 158.893c-0.4575,-9.4422 -8.6395,-14.2637 -13.0684,-13.3435 -4.4289,0.9202 -9.7178,7.5146 -13.2918,19.3936 -3.574,11.879 26.8177,3.3921 26.3602,-6.0501z"/>
     </clipPath>
     <clipPath id="id7">
      <path d="M120.787 158.893c0.4575,-9.4422 8.6395,-14.2637 13.0684,-13.3435 4.4289,0.9202 9.7178,7.5146 13.2918,19.3936 3.574,11.879 -26.8177,3.3921 -26.3602,-6.0501z"/>
     </clipPath>
    <clipPath id="id8">
     <path d="M106.755 122.384c1.6523,0.4427 2.7683,1.6395 2.4915,2.6723 -0.2767,1.0329 -1.8416,1.5113 -3.4939,1.0686 -1.6523,-0.4427 -2.7683,-1.6395 -2.4915,-2.6723 0.2768,-1.0329 1.8416,-1.5113 3.4939,-1.0686z"/>
    </clipPath>
    <clipPath id="id9">
     <path d="M134.815 122.384c-1.6523,0.4427 -2.7682,1.6395 -2.4915,2.6723 0.2768,1.0329 1.8416,1.5113 3.4939,1.0686 1.6523,-0.4427 2.7683,-1.6395 2.4915,-2.6723 -0.2767,-1.0329 -1.8415,-1.5113 -3.4939,-1.0686z"/>
    </clipPath>
    <clipPath id="id10">
     <path d="M120.727 105.678l25.4977 0c0,0 1.7945,-8.7889 -1.3311,-21.8647 -3.1257,-13.0758 -24.1666,-9.1682 -24.1666,-9.1682 0,0 -21.0409,-3.9076 -24.1666,9.1682 -3.1256,13.0758 -1.3311,21.8647 -1.3311,21.8647l25.4977 0z"/>
    </clipPath>
   <clipPath id="id11">
    <path d="M248.107 185.016c-12.5399,-1.5112 -31.0455,-20.1305 -25.3819,-30.703 2.1158,-3.9495 20.1139,-5.0137 25.3819,-4.9924 5.268,-0.0213 23.2661,1.0429 25.3819,4.9924 5.6636,10.5725 -12.8419,29.1918 -25.3819,30.703z"/>
   </clipPath>
     <clipPath id="id12">
      <path d="M262.37 125.562c-1.7106,0 -3.0982,0.8671 -3.0982,1.9365 0,1.0693 1.3876,1.9364 3.0982,1.9364 1.7106,0 3.0983,-0.8671 3.0983,-1.9364 0,-1.0694 -1.3877,-1.9365 -3.0983,-1.9365z"/>
     </clipPath>
     <clipPath id="id13">
      <path d="M233.976 125.562c1.7106,0 3.0982,0.8671 3.0982,1.9365 0,1.0693 -1.3876,1.9364 -3.0982,1.9364 -1.7106,0 -3.0983,-0.8671 -3.0983,-1.9364 0,-1.0694 1.3877,-1.9365 3.0983,-1.9365z"/>
     </clipPath>
     <clipPath id="id14">
      <path d="M248.107 105.737l25.4977 0c0.3699,0 5.9179,-36.8672 -25.4977,-31.0329 -31.4156,-5.8343 -25.8676,31.0329 -25.4977,31.0329l25.4977 0z"/>
     </clipPath>
    <clipPath id="id15">
     <path d="M262.356 153.497c2.165,-1.2499 7.042,1.9943 10.3447,12.5257 1.5585,4.9702 1.0822,12.1984 -3.5607,13.3557 -6.6189,1.6498 -15.3107,-3.979 -15.3107,-3.979l3.9956 -7.2157c5.5792,3.3134 7.4065,2.0341 6.0108,-1.1399 -1.5926,-3.6222 -3.6446,-12.2969 -1.4797,-13.5468z"/>
    </clipPath>
 </defs>
 <g id="Capa_x0020_1">
  <metadata id="CorelCorpID_0Corel-Layer"/>
  <g id="_404326000">
   <path id="_404318656" class="fil0 str0" d="M239.621 206.821c3.4273,0.2623 5.9439,3.9121 5.7278,6.7356 -0.2162,2.8235 -3.0833,3.7531 -6.5106,3.4907 -3.4274,-0.2624 -6.1195,-1.6175 -5.9033,-4.441 0.2161,-2.8235 3.2587,-6.0477 6.6861,-5.7853z"/>
   <path id="_404319304" class="fil1 str0" d="M233.864 182.327c0,0 -1.3368,10.7265 -1.4818,14.546 -0.1451,3.8195 1.874,10.162 1.7002,12.4323 -0.1738,2.2704 -0.9839,5.155 1.5681,5.4977 2.5521,0.3427 5.7577,0.8091 7.4926,0.2789 1.7349,-0.5302 2.0271,-2.4231 1.0407,-3.972 -0.9864,-1.5488 -0.7597,-13.1706 -0.3775,-15.2777 0.3823,-2.107 2.1361,-12.5069 2.1361,-12.5069l-12.0784 -0.9983z"/>
   <path id="_404319448" class="fil2" d="M245.17 212.986c0.2657,-3.4711 -2.3037,-5.0804 -5.6044,-5.3331 -3.3006,-0.2527 -6.0849,0.9468 -6.3506,4.418 -0.1139,1.4873 0.0848,3.8188 6.1394,3.9695 6.0545,0.1506 5.7021,-1.5722 5.8156,-3.0544z"/>
   <g style="clip-path:url(#id0)">
    <g>
     <path id="_5916096481" class="fil3" d="M239.389 209.583c-6.1019,-0.5771 -8.2716,8.8901 -0.1863,9.1387 7.9174,0.2435 5.5501,-8.6315 0.1863,-9.1387z"/>
     <path id="_591608208" class="fil3" d="M239.207 208.323c-1.9024,-0.0398 -2.5788,0.6132 -0.058,0.6303 2.4684,0.0168 1.7303,-0.5953 0.058,-0.6303z"/>
    </g>
   </g>
   <path class="fil4 str0" d="M245.17 212.986c0.2657,-3.4711 -2.3037,-5.0804 -5.6044,-5.3331 -3.3006,-0.2527 -6.0849,0.9468 -6.3506,4.418 -0.1139,1.4873 0.0848,3.8188 6.1394,3.9695 6.0545,0.1506 5.7021,-1.5722 5.8156,-3.0544z"/>
   <path id="_404320096" class="fil0 str0" d="M256.593 206.821c-3.4273,0.2623 -5.9439,3.9121 -5.7278,6.7356 0.2162,2.8235 3.0833,3.7531 6.5106,3.4907 3.4274,-0.2624 6.1195,-1.6175 5.9033,-4.441 -0.2161,-2.8235 -3.2587,-6.0477 -6.6861,-5.7853z"/>
   <path id="_404319688" class="fil1 str0" d="M262.349 182.327c0,0 1.3368,10.7265 1.4818,14.546 0.1451,3.8195 -1.874,10.162 -1.7002,12.4323 0.1738,2.2704 0.9839,5.155 -1.5681,5.4977 -2.5521,0.3427 -5.7577,0.8091 -7.4926,0.2789 -1.7349,-0.5302 -2.0271,-2.4231 -1.0407,-3.972 0.9864,-1.5488 0.7597,-13.1706 0.3775,-15.2777 -0.3823,-2.107 -2.1361,-12.5069 -2.1361,-12.5069l12.0784 -0.9983z"/>
   <path id="_404320480" class="fil2" d="M251.043 212.986c-0.2657,-3.4711 2.3037,-5.0804 5.6044,-5.3331 3.3006,-0.2527 6.0849,0.9468 6.3506,4.418 0.1139,1.4873 -0.0848,3.8188 -6.1394,3.9695 -6.0545,0.1506 -5.7021,-1.5722 -5.8156,-3.0544z"/>
   <g style="clip-path:url(#id1)">
    <g>
     <path id="_5915978881" class="fil3" d="M256.824 209.583c6.1019,-0.5771 8.2716,8.8901 0.1863,9.1387 -7.9174,0.2435 -5.5501,-8.6315 -0.1863,-9.1387z"/>
     <path id="_591597984" class="fil3" d="M257.006 208.323c1.9024,-0.0398 2.5788,0.6132 0.058,0.6303 -2.4684,0.0168 -1.7303,-0.5953 -0.058,-0.6303z"/>
    </g>
   </g>
   <path class="fil4 str0" d="M251.043 212.986c-0.2657,-3.4711 2.3037,-5.0804 5.6044,-5.3331 3.3006,-0.2527 6.0849,0.9468 6.3506,4.418 0.1139,1.4873 -0.0848,3.8188 -6.1394,3.9695 -6.0545,0.1506 -5.7021,-1.5722 -5.8156,-3.0544z"/>
   <path id="_404320168" class="fil2" d="M248.102 187.844c-0.0596,1.2457 -3.7696,18.4368 -3.7696,18.4368 0,0 -2.4096,1.8423 -11.4121,-0.57 -3.1711,-9.5366 -0.9073,-32.747 -0.7276,-33.3156l15.1762 -0.0347 0.6977 -0.0016 0.6977 -0.0016 15.1762 -0.0347c0.1823,0.5677 2.5523,23.7675 -0.5751,33.3185 -8.9914,2.4535 -11.4093,0.6223 -11.4093,0.6223 0,0 -3.7887,-17.174 -3.8541,-18.4194z"/>
   <g style="clip-path:url(#id2)">
    <g>
     <path id="_5876672161" class="fil0" d="M244.423 176.175c0,0 -0.6112,4.4901 0.3632,7.8025 0.9743,3.3125 3.3203,5.6709 3.3203,5.6709l-0.024 -13.6889 -3.6595 0.2155z"/>
    </g>
   </g>
   <path class="fil4 str0" d="M248.102 187.844c-0.0596,1.2457 -3.7696,18.4368 -3.7696,18.4368 0,0 -2.4096,1.8423 -11.4121,-0.57 -3.1711,-9.5366 -0.9073,-32.747 -0.7276,-33.3156l15.1762 -0.0347 0.6977 -0.0016 0.6977 -0.0016 15.1762 -0.0347c0.1823,0.5677 2.5523,23.7675 -0.5751,33.3185 -8.9914,2.4535 -11.4093,0.6223 -11.4093,0.6223 0,0 -3.7887,-17.174 -3.8541,-18.4194z"/>
   <path id="_404320624" class="fil0" d="M238.54 178.031c0,0 -1.634,13.1741 -1.529,17.5006 0.105,4.3265 0.2578,8.748 0.2578,8.748 0,0 1.3413,-16.4067 1.2712,-26.2486zm19.0799 -0.0437c0,0 1.6942,13.1665 1.609,17.4935 -0.0851,4.3269 -0.2177,8.749 -0.2177,8.749 0,0 -1.4163,-16.4003 -1.3913,-26.2425z"/>
   <path id="_404323336" class="fil5" d="M228.438 172.006c0,0 -0.1422,-0.2279 -0.2094,-0.6483 -0.0797,0.0458 -0.1599,0.0926 -0.2406,0.1406 0.1149,0.1813 0.2626,0.3519 0.45,0.5077z"/>
  </g>
  <g id="_404317792">
   <path id="_404322040" class="fil6 str1" d="M235.411 152.575c-5.4172,3.1568 -2.759,12.5736 -2.8362,15.3442 -0.0772,2.7705 -2.759,8.9045 3.0291,10.1774 4.1018,0.902 8.302,1.3532 12.5022,1.3532 4.2002,0 8.4006,-0.4512 12.5022,-1.3532 5.7881,-1.2728 3.1063,-7.4069 3.0291,-10.1774 -0.0772,-2.7706 2.581,-12.1874 -2.8361,-15.3442 -6.3296,-3.6885 -19.0608,-3.6885 -25.3903,0z"/>
   <path id="_404319904" class="fil7" d="M248.285 156.246c0,0 -0.6633,0.6194 -0.6309,1.9957 0.0324,1.3763 -0.0257,3.4712 -0.0257,3.4712 0,0 -1.8636,-4.3059 0.6566,-5.4669zm-0.357 6.6985c0,0 0.6633,-0.6195 0.6309,-1.9957 -0.0324,-1.3764 0.0257,-3.4712 0.0257,-3.4712 0,0 1.8636,4.3058 -0.6566,5.4669zm-12.8363 7.363c0,0 -0.4804,-0.77 -0.0929,-2.091 0.3876,-1.321 0.8736,-3.3595 0.8736,-3.3595 0,0 -2.9145,3.6768 -0.7807,5.4505zm8.8573 0c0,0 -0.4804,-0.77 -0.0929,-2.091 0.3875,-1.321 0.8736,-3.3595 0.8736,-3.3595 0,0 -2.9145,3.6768 -0.7807,5.4505zm-5.2977 -9.2554c0,0 -0.4804,-0.7699 -0.0929,-2.0909 0.3875,-1.3211 0.8736,-3.3596 0.8736,-3.3596 0,0 -2.9146,3.6768 -0.7807,5.4505zm3.1129 4.4495c0,0 -0.4804,-0.77 -0.0929,-2.091 0.3875,-1.321 0.8736,-3.3595 0.8736,-3.3595 0,0 -2.9145,3.6767 -0.7807,5.4505zm-2.9685 9.0628c0,0 -0.4804,-0.77 -0.0929,-2.091 0.3875,-1.321 0.8736,-3.3595 0.8736,-3.3595 0,0 -2.9145,3.6767 -0.7807,5.4505zm22.3255 -4.2569c0,0 0.4805,-0.77 0.0929,-2.091 -0.3875,-1.321 -0.8736,-3.3595 -0.8736,-3.3595 0,0 2.9146,3.6768 0.7807,5.4505zm-8.8572 0c0,0 0.4804,-0.77 0.0929,-2.091 -0.3876,-1.321 -0.8736,-3.3595 -0.8736,-3.3595 0,0 2.9145,3.6768 0.7807,5.4505zm5.2977 -9.2554c0,0 0.4804,-0.7699 0.0929,-2.0909 -0.3875,-1.3211 -0.8736,-3.3596 -0.8736,-3.3596 0,0 2.9145,3.6768 0.7807,5.4505zm-3.113 4.4495c0,0 0.4805,-0.77 0.0929,-2.091 -0.3875,-1.321 -0.8736,-3.3595 -0.8736,-3.3595 0,0 2.9146,3.6767 0.7807,5.4505zm2.9685 9.0628c0,0 0.4805,-0.77 0.0929,-2.091 -0.3875,-1.321 -0.8736,-3.3595 -0.8736,-3.3595 0,0 2.9146,3.6767 0.7807,5.4505zm-11.138 -3.4181c0,0 -0.8011,0.4266 -1.1259,1.7644 -0.3249,1.3378 -0.9232,3.3462 -0.9232,3.3462 0,0 -0.6858,-4.6414 2.0491,-5.1106zm3.6546 0c0,0 0.801,0.4266 1.126,1.7644 0.3248,1.3378 0.9231,3.3463 0.9231,3.3463 0,0 0.6857,-4.6415 -2.0491,-5.1107zm-5.7332 6.3778c0,0 0.8011,-0.4266 1.126,-1.7644 0.3249,-1.3378 0.9232,-3.3462 0.9232,-3.3462 0,0 0.6857,4.6414 -2.0492,5.1106zm7.8118 0c0,0 -0.8011,-0.4266 -1.126,-1.7644 -0.3249,-1.3378 -0.9232,-3.3462 -0.9232,-3.3462 0,0 -0.6857,4.6414 2.0492,5.1106zm4.016 -9.5223c0,0 -0.4804,0.77 -0.0929,2.091 0.3875,1.321 0.8736,3.3595 0.8736,3.3595 0,0 -2.9146,-3.6768 -0.7807,-5.4505zm-2.9685 -9.0628c0,0 -0.4804,0.77 -0.0929,2.091 0.3875,1.321 0.8736,3.3595 0.8736,3.3595 0,0 -2.9146,-3.6768 -0.7807,-5.4505zm3.1129 -4.4495c0,0 -0.4804,0.77 -0.0929,2.0911 0.3876,1.321 0.8736,3.3595 0.8736,3.3595 0,0 -2.9145,-3.6768 -0.7807,-5.4506zm-5.2977 9.2554c0,0 -0.4804,0.77 -0.0929,2.091 0.3876,1.321 0.8736,3.3595 0.8736,3.3595 0,0 -2.9145,-3.6768 -0.7807,-5.4505zm8.8573 0c0,0 -0.4804,0.77 -0.0929,2.091 0.3875,1.321 0.8736,3.3595 0.8736,3.3595 0,0 -2.9146,-3.6768 -0.7807,-5.4505zm-19.5478 4.2569c0,0 0.4804,0.77 0.0929,2.091 -0.3876,1.321 -0.8736,3.3595 -0.8736,3.3595 0,0 2.9145,-3.6768 0.7807,-5.4505zm2.9685 -9.0628c0,0 0.4804,0.77 0.0929,2.091 -0.3876,1.321 -0.8736,3.3595 -0.8736,3.3595 0,0 2.9145,-3.6768 0.7807,-5.4505zm-3.113 -4.4495c0,0 0.4804,0.77 0.0929,2.0911 -0.3875,1.321 -0.8736,3.3595 -0.8736,3.3595 0,0 2.9146,-3.6768 0.7807,-5.4506zm5.2977 9.2554c0,0 0.4804,0.77 0.0929,2.091 -0.3875,1.321 -0.8736,3.3595 -0.8736,3.3595 0,0 2.9146,-3.6768 0.7807,-5.4505zm-8.8572 0c0,0 0.4804,0.77 0.0929,2.091 -0.3876,1.321 -0.8736,3.3595 -0.8736,3.3595 0,0 2.9145,-3.6768 0.7807,-5.4505z"/>
  </g>
  <g id="_404324416">
   <path id="_404322688" class="fil5" d="M225.435 176.374c0,0 0.2048,-0.8842 1.4128,-1.5442 1.2082,-0.6601 2.9933,-1.7578 2.9933,-1.7578 0,0 -4.6608,0.5389 -4.4061,3.302zm5.6225 -3.6584c0,0 -0.2047,0.8842 -1.4128,1.5442 -1.2082,0.6601 -2.9933,1.7578 -2.9933,1.7578 0,0 4.6607,-0.5389 4.4061,-3.302z"/>
   <path id="_404321320" class="fil8 str2" d="M229.388 185.4c0.2649,1.9747 2.1689,4.5389 1.8828,5.028 -0.2862,0.4891 -0.6328,0.5989 -2.7992,-0.6572 -1.0723,1.5706 1.2401,4.7598 -0.2756,5.2858 -0.9786,0.3395 -1.7885,-2.3954 -1.9859,-3.2469 -1.548,0.7783 0.5369,4.1577 -1.1818,4.2774 -1.0669,0.0736 -1.1651,-3.2071 -1.0827,-4.1321 -1.6212,-0.1427 -0.3084,3.1184 -1.8406,2.9448 -1.0205,-0.1158 -0.5695,-2.9939 -0.4138,-3.8275 -0.9365,-0.7018 -0.8148,1.7632 -1.7091,1.47 -0.7301,-0.2393 -0.7032,-0.855 0.0685,-2.8803 0.4297,-1.127 0.5734,-2.8396 1.0906,-4.4095l0.0085 0.1475 8.2383 0z"/>
   <path id="_404321992" class="fil6" d="M234.174 153.244c-2.9912,0.4362 -7.0418,1.9941 -10.3446,12.5257 -3.3028,10.5316 -2.6796,19.6299 -2.6796,19.6299l8.2881 0c0,0 1.5116,-15.0568 3.2565,-18.6088 1.7449,-3.5521 1.4796,-13.5468 1.4796,-13.5468z"/>
   <g style="clip-path:url(#id3)">
    <g>
     <rect id="_484637080" class="fil9" x="219.49" y="182.158" width="11.6092" height="3.24143"/>
    </g>
   </g>
   <path class="fil4 str1" d="M234.174 153.244c-2.9912,0.4362 -7.0418,1.9941 -10.3446,12.5257 -3.3028,10.5316 -2.6796,19.6299 -2.6796,19.6299l8.2881 0c0,0 1.5116,-15.0568 3.2565,-18.6088 1.7449,-3.5521 1.4796,-13.5468 1.4796,-13.5468z"/>
   <g>
    <g>
     <path id="_404321848" class="fil7" d="M229.127 158.5c0,0 0.4921,0.7887 0.0952,2.1418 -0.397,1.3531 -0.8948,3.4411 -0.8948,3.4411 0,0 2.9853,-3.7661 0.7996,-5.5829z"/>
     <path id="_404322352" class="fil7" d="M227.705 165.222c0,0 -0.4921,-0.7887 -0.0952,-2.1418 0.397,-1.3531 0.8948,-3.4411 0.8948,-3.4411 0,0 -2.9853,3.7661 -0.7996,5.5829z"/>
    </g>
    <g>
     <path id="_404323144" class="fil7" d="M230.02 164.36c0,0 0.4921,0.7887 0.0952,2.1418 -0.397,1.3531 -0.8948,3.4411 -0.8948,3.4411 0,0 2.9853,-3.7661 0.7996,-5.5829z"/>
     <path id="_404322832" class="fil7" d="M228.598 171.082c0,0 -0.4921,-0.7887 -0.0952,-2.1418 0.397,-1.3531 0.8948,-3.4411 0.8948,-3.4411 0,0 -2.9853,3.7661 -0.7996,5.5829z"/>
    </g>
    <g>
     <path id="_404323576" class="fil7" d="M226.104 167.817c0,0 0.4921,0.7887 0.0952,2.1418 -0.397,1.3531 -0.8948,3.4411 -0.8948,3.4411 0,0 2.9853,-3.7661 0.7996,-5.5829z"/>
     <path id="_404323864" class="fil7" d="M224.682 174.539c0,0 -0.4921,-0.7887 -0.0952,-2.1418 0.397,-1.3531 0.8948,-3.4411 0.8948,-3.4411 0,0 -2.9853,3.7661 -0.7996,5.5829z"/>
    </g>
    <g>
     <path id="_404324488" class="fil7" d="M228.56 172.476c0,0 0.4921,0.7887 0.0952,2.1418 -0.3969,1.3531 -0.8948,3.4411 -0.8948,3.4411 0,0 2.9853,-3.7661 0.7996,-5.5829z"/>
     <path id="_404320696" class="fil7" d="M227.138 179.199c0,0 -0.4921,-0.7887 -0.0952,-2.1418 0.397,-1.3531 0.8949,-3.4411 0.8949,-3.4411 0,0 -2.9854,3.7661 -0.7997,5.5829z"/>
    </g>
   </g>
  </g>
  <path class="fil10 str3" d="M252.889 140.817c0,2.6406 -2.1416,4.7822 -4.7822,4.7822 -2.6406,0 -4.7822,-2.1416 -4.7822,-4.7822l9.5644 0z"/>
  <g id="_404327080">
   <path id="_404323720" class="fil8 str2" d="M157.548 172.86c1.8898,0.6309 5.0303,0.0492 5.3436,0.5214 0.3133,0.4722 0.2594,0.8317 -1.8217,2.2246 0.9386,1.6539 4.8199,0.9804 4.6255,2.573 -0.1256,1.0281 -2.938,0.5522 -3.7895,0.3548 0.0179,1.7326 3.9699,1.3471 3.3212,2.9432 -0.4032,0.9905 -3.3926,-0.3647 -4.187,-0.8457 -0.8415,1.3931 2.6647,1.6489 1.8347,2.9485 -0.553,0.8655 -2.9391,-0.8058 -3.6193,-1.3123 -1.0422,0.5322 1.225,1.5074 0.5682,2.1815 -0.5361,0.5503 -1.0772,0.2554 -2.5564,-1.3287 -0.823,-0.8817 -2.2978,-1.7642 -3.48,-2.9194l0.1362 0.0573 3.6245 -7.3982z"/>
   <path id="_404325640" class="fil11" d="M135.785 152.073c-2.8558,1.1735 -3.1265,6.6173 2.6383,16.0296 5.7648,9.4122 15.4997,12.1554 15.4997,12.1554l3.6245 -7.3981c0,0 -7.9438,-4.0807 -10.6936,-8.2371 -2.7499,-4.1563 -8.2131,-13.7232 -11.0689,-12.5498z"/>
   <g style="clip-path:url(#id4)">
    <g>
     <rect id="_484612168" class="fil12" transform="matrix(0.451583 -0.921742 0.921742 0.451583 150.492 179.893)" width="11.3104" height="3.158"/>
    </g>
   </g>
   <path class="fil4 str4" d="M135.785 152.073c-2.8558,1.1735 -3.1265,6.6173 2.6383,16.0296 5.7648,9.4122 15.4997,12.1554 15.4997,12.1554l3.6245 -7.3981c0,0 -7.9438,-4.0807 -10.6936,-8.2371 -2.7499,-4.1563 -8.2131,-13.7232 -11.0689,-12.5498z"/>
   <g>
    <g>
     <path id="_404325064" class="fil13" d="M136.428 158.732c0,0 0.9178,0.1477 1.6765,1.3363 0.7586,1.1886 2.0047,2.9364 2.0047,2.9364 0,0 -0.8754,-4.7253 -3.6812,-4.2727z"/>
     <path id="_404321488" class="fil13" d="M140.558 164.223c0,0 -0.9178,-0.1476 -1.6765,-1.3363 -0.7586,-1.1886 -2.0047,-2.9364 -2.0047,-2.9364 0,0 0.8753,4.7254 3.6812,4.2727z"/>
    </g>
    <g>
     <path id="_404325352" class="fil13" d="M141.431 161.911c0,0 0.9178,0.1476 1.6765,1.3362 0.7587,1.1887 2.0048,2.9365 2.0048,2.9365 0,0 -0.8754,-4.7254 -3.6813,-4.2727z"/>
     <path id="_404326168" class="fil13" d="M145.561 167.402c0,0 -0.9178,-0.1477 -1.6764,-1.3363 -0.7587,-1.1886 -2.0048,-2.9364 -2.0048,-2.9364 0,0 0.8754,4.7253 3.6812,4.2727z"/>
    </g>
    <g>
     <path id="_404326072" class="fil13" d="M141.462 167.135c0,0 0.9178,0.1477 1.6765,1.3363 0.7586,1.1886 2.0047,2.9364 2.0047,2.9364 0,0 -0.8753,-4.7254 -3.6812,-4.2727z"/>
     <path id="_404326720" class="fil13" d="M145.592 172.625c0,0 -0.9178,-0.1477 -1.6765,-1.3363 -0.7586,-1.1886 -2.0047,-2.9364 -2.0047,-2.9364 0,0 0.8753,4.7253 3.6812,4.2727z"/>
    </g>
    <g>
     <path id="_404326240" class="fil13" d="M146.587 168.347c0,0 0.9178,0.1477 1.6764,1.3363 0.7587,1.1886 2.0048,2.9364 2.0048,2.9364 0,0 -0.8754,-4.7253 -3.6812,-4.2727z"/>
     <path id="_404327176" class="fil13" d="M150.717 173.838c0,0 -0.9178,-0.1476 -1.6765,-1.3362 -0.7587,-1.1887 -2.0048,-2.9365 -2.0048,-2.9365 0,0 0.8754,4.7254 3.6813,4.2727z"/>
    </g>
   </g>
   <path id="_404327152" class="fil4 str2" d="M156.491 177.87c0,0 1.9403,0.7546 2.586,-1.655"/>
  </g>
  <g id="_404656624">
   <path id="_404327512" class="fil14 str5" d="M139.54 136.864c0,0 6.9866,3.8292 7.1882,8.0614 0.1967,4.1333 0.5828,13.2695 6.584,14.0238 1.8239,0.229 -4.8986,2.2102 -7.323,-0.6551 -3.6947,-4.3664 -2.3589,-7.378 -8.5318,-8.8677 -6.1727,-1.4896 -6.9193,-2.8215 -6.9193,-2.8215l9.0019 -9.7409z"/>
   <path id="_404327392" class="fil14 str5" d="M101.915 136.864c0,0 -6.9866,3.8292 -7.1881,8.0614 -0.1968,4.1333 -0.5829,13.2695 -6.5841,14.0238 -1.8238,0.229 4.8987,2.2102 7.323,-0.6551 3.6947,-4.3664 2.359,-7.378 8.5318,-8.8677 6.1728,-1.4896 6.9194,-2.8215 6.9194,-2.8215l-9.002 -9.7409z"/>
   <path id="_404327968" class="fil15 str5" d="M94.2524 150.316c-0.1713,1.0846 -0.409,2.1844 -0.7453,3.2207 1.2188,-0.0599 2.794,0.1151 4.3648,1.0002 0.6543,-1.2944 1.1665,-2.3952 2.1783,-3.2926 -1.2009,-0.9536 -3.0799,-1.496 -5.7978,-0.9283z"/>
   <path id="_404328232" class="fil16" d="M101.63 140.737c0,0 -4.2818,3.3841 -4.2565,7.7139 0,0 1.849,-3.8798 4.2565,-7.7139z"/>
   <path id="_404326528" class="fil15 str5" d="M147.202 150.316c0.1712,1.0846 0.409,2.1844 0.7452,3.2207 -1.2187,-0.0599 -2.7939,0.1151 -4.3647,1.0002 -0.6543,-1.2944 -1.1666,-2.3952 -2.1783,-3.2926 1.2008,-0.9536 3.0798,-1.496 5.7978,-0.9283z"/>
   <g>
    <path id="_404320984" class="fil16" d="M139.824 140.737c0,0 4.2818,3.3841 4.2564,7.7139 0,0 -1.849,-3.8798 -4.2564,-7.7139z"/>
    <path id="_404664472" class="fil16" d="M135.743 139.609c0,0 4.2818,3.3841 4.2565,7.7139 0,0 -1.849,-3.8798 -4.2565,-7.7139z"/>
   </g>
   <path id="_404657272" class="fil16" d="M105.712 139.609c0,0 -4.2818,3.3841 -4.2564,7.7139 0,0 1.8489,-3.8798 4.2564,-7.7139z"/>
  </g>
  <g id="_404661016">
   <g>
    <g>
     <path id="_404657896" class="fil9 str6" d="M106.498 180.923c0,0 -1.4395,11.1349 -1.6083,15.1014 -0.1688,3.9666 1.8982,10.5639 1.7069,12.9212 -0.1913,2.3573 -1.0465,5.3496 1.6026,5.7177 2.6491,0.368 5.9765,0.8677 7.781,0.3253 1.8045,-0.5425 2.117,-2.5072 1.0998,-4.1206 -1.0172,-1.6134 -0.7265,-13.6836 -0.3194,-15.8703 0.4071,-2.1867 2.2781,-12.9804 2.2781,-12.9804l-12.5407 -1.0943z"/>
     <path id="_404657248" class="fil0 str0" d="M112.036 207.177c3.4273,0.2623 5.9439,3.9121 5.7278,6.7356 -0.2162,2.8235 -3.0833,3.7531 -6.5106,3.4907 -3.4274,-0.2624 -6.1195,-1.6175 -5.9033,-4.441 0.2161,-2.8235 3.2587,-6.0477 6.6861,-5.7853z"/>
     <path id="_404657032" class="fil2 str0" d="M117.586 212.527c0.2657,-3.4711 -2.3037,-5.0804 -5.6044,-5.3331 -3.3006,-0.2527 -6.0849,0.9468 -6.3506,4.418 -0.1139,1.4873 0.0848,3.8188 6.1394,3.9695 6.0545,0.1506 5.7021,-1.5722 5.8156,-3.0544z"/>
     <path id="_404657104" class="fil0 str0" d="M115.045 207.958c-0.8772,-0.4293 -1.9271,-0.6772 -3.0636,-0.7642 -1.4337,-0.1098 -2.7699,0.0547 -3.8446,0.5601 0.4636,1.6148 1.7263,2.412 3.2418,2.5701 1.6727,0.1745 3.1279,-0.4842 3.6664,-2.366z"/>
    </g>
    <g>
     <path id="_404657968" class="fil9 str6" d="M134.956 180.923c0,0 1.4395,11.1349 1.6083,15.1014 0.1688,3.9666 -1.8982,10.5639 -1.7069,12.9212 0.1913,2.3573 1.0465,5.3496 -1.6026,5.7177 -2.6491,0.368 -5.9765,0.8677 -7.781,0.3253 -1.8045,-0.5425 -2.117,-2.5072 -1.0998,-4.1206 1.0172,-1.6134 0.7265,-13.6836 0.3194,-15.8703 -0.4071,-2.1867 -2.2781,-12.9804 -2.2781,-12.9804l12.5407 -1.0943z"/>
     <path id="_404658472" class="fil0 str0" d="M129.419 207.177c-3.4273,0.2623 -5.9439,3.9121 -5.7278,6.7356 0.2162,2.8235 3.0833,3.7531 6.5106,3.4907 3.4274,-0.2624 6.1195,-1.6175 5.9033,-4.441 -0.2161,-2.8235 -3.2587,-6.0477 -6.6861,-5.7853z"/>
     <path id="_404658304" class="fil2 str0" d="M123.869 212.527c-0.2657,-3.4711 2.3037,-5.0804 5.6044,-5.3331 3.3006,-0.2527 6.0849,0.9468 6.3506,4.418 0.1139,1.4873 -0.0848,3.8188 -6.1394,3.9695 -6.0545,0.1506 -5.7021,-1.5722 -5.8156,-3.0544z"/>
     <path id="_404661424" class="fil0 str0" d="M126.41 207.958c0.8772,-0.4293 1.9271,-0.6772 3.0636,-0.7642 1.4337,-0.1098 2.7699,0.0547 3.8446,0.5601 -0.4636,1.6148 -1.7263,2.412 -3.2418,2.5701 -1.6727,0.1745 -3.1279,-0.4842 -3.6664,-2.366z"/>
    </g>
   </g>
   <path id="_404658640" class="fil17 str7" d="M104.921 173.491c-6.4115,8.0868 -6.7223,24.0029 -5.442,26.0161 1.025,1.6121 10.9915,4.875 21.2486,4.875 10.2572,0 20.2237,-3.2629 21.2487,-4.875 1.2802,-2.0132 0.9694,-17.9293 -5.4421,-26.0161l-15.8066 0 -15.8066 0z"/>
   <g>
    <path id="_404659120" class="fil18" d="M111.568 179.073c0,0 -2.9895,4.9015 -3.8975,10.0942 -0.9078,5.1925 -0.0741,9.3545 -0.0741,9.3545 0,0 1.7285,-6.7072 3.9716,-19.4487z"/>
    <path id="_404659504" class="fil18" d="M117.902 180.674c0,0 -2.2824,5.7098 -2.4872,11.073 -0.2045,5.3629 1.1614,9.1879 1.1614,9.1879 0,0 0.8088,-7.0962 1.3258,-20.2609z"/>
    <path id="_404659408" class="fil18" d="M123.553 180.674c0,0 2.2823,5.71 2.487,11.073 0.2048,5.3629 -1.1613,9.1879 -1.1613,9.1879 0,0 -0.8089,-7.0965 -1.3257,-20.2609z"/>
    <path id="_404660848" class="fil18" d="M129.887 179.073c0,0 2.9894,4.9015 3.8974,10.0941 0.908,5.1924 0.074,9.3546 0.074,9.3546 0,0 -1.7285,-6.7073 -3.9714,-19.4487z"/>
    <path id="_404660776" class="fil18" d="M135.017 177.579c0,0 3.2771,4.4586 4.4995,9.5004 1.2225,5.042 0.6477,9.3036 0.6477,9.3036 0,0 -2.1323,-6.4342 -5.1472,-18.804z"/>
    <path id="_404661520" class="fil18" d="M106.438 177.579c0,0 -3.277,4.4586 -4.4996,9.5004 -1.2224,5.042 -0.6475,9.3036 -0.6475,9.3036 0,0 2.1323,-6.4342 5.1471,-18.804z"/>
   </g>
  </g>
  <g id="_404662000">
   <path id="_404661688" class="fil11 str4" d="M107.724 150.119c-5.5487,3.2334 -2.826,12.8788 -2.905,15.7167 -0.0791,2.8378 -2.826,9.1206 3.1026,10.4245 8.4026,1.8479 17.2088,1.8479 25.6114,0 5.9286,-1.3039 3.1817,-7.5867 3.1027,-10.4245 -0.0791,-2.8379 2.6436,-12.4833 -2.905,-15.7167 -6.4833,-3.7781 -19.5235,-3.7781 -26.0067,0z"/>
   <path id="_404662768" class="fil13" d="M120.91 153.879c0,0 -0.6794,0.6345 -0.6462,2.0442 0.0332,1.4097 -0.0263,3.5554 -0.0263,3.5554 0,0 -1.9089,-4.4104 0.6725,-5.5996zm-0.3656 6.8611c0,0 0.6794,-0.6345 0.6462,-2.0442 -0.0332,-1.4097 0.0263,-3.5554 0.0263,-3.5554 0,0 1.9089,4.4104 -0.6725,5.5996zm-13.1479 7.5418c0,0 -0.4921,-0.7887 -0.0952,-2.1418 0.397,-1.353 0.8949,-3.441 0.8949,-3.441 0,0 -2.9854,3.766 -0.7997,5.5828zm9.0723 0c0,0 -0.4921,-0.7887 -0.0952,-2.1418 0.3969,-1.3531 0.8948,-3.4411 0.8948,-3.4411 0,0 -2.9853,3.7661 -0.7996,5.5829zm-5.4263 -9.4801c0,0 -0.4921,-0.7886 -0.0952,-2.1417 0.3969,-1.3531 0.8948,-3.4411 0.8948,-3.4411 0,0 -2.9853,3.766 -0.7996,5.5828zm3.1885 4.5575c0,0 -0.4921,-0.7887 -0.0952,-2.1418 0.3969,-1.3531 0.8948,-3.4411 0.8948,-3.4411 0,0 -2.9853,3.7661 -0.7996,5.5829zm-3.0406 9.2828c0,0 -0.4921,-0.7887 -0.0951,-2.1418 0.3969,-1.3531 0.8948,-3.4411 0.8948,-3.4411 0,0 -2.9853,3.7661 -0.7997,5.5829zm22.8675 -4.3602c0,0 0.4921,-0.7887 0.0952,-2.1418 -0.397,-1.353 -0.8949,-3.441 -0.8949,-3.441 0,0 2.9854,3.766 0.7997,5.5828zm-9.0723 0c0,0 0.4921,-0.7887 0.0951,-2.1418 -0.3969,-1.3531 -0.8948,-3.4411 -0.8948,-3.4411 0,0 2.9853,3.7661 0.7997,5.5829zm5.4263 -9.4801c0,0 0.4921,-0.7886 0.0952,-2.1417 -0.3969,-1.3531 -0.8948,-3.4411 -0.8948,-3.4411 0,0 2.9853,3.766 0.7996,5.5828zm-3.1885 4.5575c0,0 0.4921,-0.7887 0.0952,-2.1418 -0.397,-1.3531 -0.8949,-3.4411 -0.8949,-3.4411 0,0 2.9854,3.7661 0.7997,5.5829zm3.0406 9.2828c0,0 0.4921,-0.7887 0.0951,-2.1418 -0.3969,-1.3531 -0.8948,-3.4411 -0.8948,-3.4411 0,0 2.9853,3.7661 0.7997,5.5829zm-11.4085 -3.5011c0,0 -0.8205,0.437 -1.1532,1.8073 -0.3328,1.3702 -0.9456,3.4274 -0.9456,3.4274 0,0 -0.7024,-4.7541 2.0988,-5.2347zm3.7434 0c0,0 0.8205,0.437 1.1533,1.8073 0.3327,1.3702 0.9455,3.4274 0.9455,3.4274 0,0 0.7024,-4.7541 -2.0988,-5.2347zm-5.8724 6.5327c0,0 0.8206,-0.437 1.1533,-1.8073 0.3328,-1.3703 0.9456,-3.4275 0.9456,-3.4275 0,0 0.7024,4.7542 -2.0989,5.2348zm8.0014 0c0,0 -0.8205,-0.437 -1.1533,-1.8073 -0.3328,-1.3703 -0.9456,-3.4275 -0.9456,-3.4275 0,0 -0.7023,4.7542 2.0989,5.2348zm4.1135 -9.7536c0,0 -0.4921,0.7888 -0.0951,2.1418 0.3969,1.3531 0.8948,3.4411 0.8948,3.4411 0,0 -2.9854,-3.7661 -0.7997,-5.5829zm-3.0406 -9.2828c0,0 -0.492,0.7887 -0.0951,2.1418 0.3969,1.3531 0.8948,3.4411 0.8948,3.4411 0,0 -2.9853,-3.7661 -0.7997,-5.5829zm3.1886 -4.5574c0,0 -0.4921,0.7887 -0.0952,2.1418 0.397,1.3531 0.8948,3.4411 0.8948,3.4411 0,0 -2.9853,-3.7661 -0.7996,-5.5829zm-5.4264 9.4801c0,0 -0.492,0.7886 -0.0951,2.1417 0.3969,1.3531 0.8948,3.4411 0.8948,3.4411 0,0 -2.9853,-3.7661 -0.7997,-5.5828zm9.0723 0c0,0 -0.492,0.7887 -0.0951,2.1417 0.3969,1.3531 0.8948,3.4411 0.8948,3.4411 0,0 -2.9853,-3.7661 -0.7997,-5.5828zm-20.0223 4.3601c0,0 0.4921,0.7888 0.0951,2.1418 -0.3969,1.3531 -0.8948,3.4411 -0.8948,3.4411 0,0 2.9853,-3.7661 0.7997,-5.5829zm3.0405 -9.2828c0,0 0.4921,0.7887 0.0952,2.1418 -0.397,1.3531 -0.8948,3.4411 -0.8948,3.4411 0,0 2.9853,-3.7661 0.7996,-5.5829zm-3.1885 -4.5574c0,0 0.4921,0.7887 0.0952,2.1418 -0.397,1.3531 -0.8949,3.4411 -0.8949,3.4411 0,0 2.9854,-3.7661 0.7997,-5.5829zm5.4263 9.4801c0,0 0.4921,0.7886 0.0952,2.1417 -0.397,1.3531 -0.8948,3.4411 -0.8948,3.4411 0,0 2.9853,-3.7661 0.7996,-5.5828zm-9.0723 0c0,0 0.4921,0.7887 0.0952,2.1417 -0.397,1.3531 -0.8948,3.4411 -0.8948,3.4411 0,0 2.9853,-3.7661 0.7996,-5.5828z"/>
  </g>
  <path class="fil8 str2" d="M114.215 143.575l13.0238 0 0 5.6497c0,3.9389 -13.0238,3.9388 -13.0238,0l0 -5.6497z"/>
  <g id="_405279528">
   <path id="_404663080" class="fil11" d="M106.155 151.244c-2.9912,0.4362 -7.0418,1.9941 -10.3446,12.5257 -3.3028,10.5316 -2.6796,19.6299 -2.6796,19.6299l8.2881 0c0,0 1.5116,-15.0568 3.2565,-18.6088 1.7449,-3.5521 1.4796,-13.5468 1.4796,-13.5468z"/>
   <g style="clip-path:url(#id5)">
    <g>
     <rect id="_484627000" class="fil12" x="91.4705" y="180.158" width="11.6092" height="3.24143"/>
    </g>
   </g>
   <path class="fil4 str4" d="M106.155 151.244c-2.9912,0.4362 -7.0418,1.9941 -10.3446,12.5257 -3.3028,10.5316 -2.6796,19.6299 -2.6796,19.6299l8.2881 0c0,0 1.5116,-15.0568 3.2565,-18.6088 1.7449,-3.5521 1.4796,-13.5468 1.4796,-13.5468z"/>
   <g>
    <path id="_404662072" class="fil8 str2" d="M101.369 183.4c0.2649,1.9747 2.1689,4.5389 1.8828,5.028 -0.2862,0.4891 -0.6328,0.5989 -2.7992,-0.6572 -1.0723,1.5706 1.2401,4.7598 -0.2756,5.2858 -0.9786,0.3395 -1.7885,-2.3954 -1.9859,-3.2469 -1.548,0.7783 0.5369,4.1577 -1.1818,4.2774 -1.0669,0.0736 -1.1651,-3.2071 -1.0827,-4.1321 -1.6212,-0.1427 -0.3084,3.1184 -1.8406,2.9448 -1.0205,-0.1158 -0.5695,-2.9939 -0.4138,-3.8275 -0.9365,-0.7018 -0.8148,1.7632 -1.7091,1.47 -0.7301,-0.2393 -0.7032,-0.855 0.0685,-2.8803 0.4297,-1.127 0.5734,-2.8396 1.0906,-4.4095l0.0085 0.1475 8.2383 0z"/>
    <g>
     <g>
      <path id="_404662696" class="fil13" d="M101.108 156.501c0,0 0.4921,0.7887 0.0952,2.1418 -0.397,1.3531 -0.8948,3.4411 -0.8948,3.4411 0,0 2.9853,-3.7661 0.7996,-5.5829z"/>
      <path id="_404662936" class="fil13" d="M99.6854 163.223c0,0 -0.4921,-0.7887 -0.0952,-2.1418 0.397,-1.3531 0.8948,-3.4411 0.8948,-3.4411 0,0 -2.9853,3.7661 -0.7996,5.5829z"/>
     </g>
     <g>
      <path id="_404663416" class="fil13" d="M102.001 162.36c0,0 0.4921,0.7887 0.0952,2.1418 -0.397,1.3531 -0.8948,3.4411 -0.8948,3.4411 0,0 2.9853,-3.7661 0.7996,-5.5829z"/>
      <path id="_404663344" class="fil13" d="M100.579 169.082c0,0 -0.4921,-0.7887 -0.0952,-2.1418 0.397,-1.3531 0.8948,-3.4411 0.8948,-3.4411 0,0 -2.9853,3.7661 -0.7996,5.5829z"/>
     </g>
     <g>
      <path id="_404658232" class="fil13" d="M98.085 165.818c0,0 0.4921,0.7887 0.0952,2.1418 -0.397,1.3531 -0.8948,3.4411 -0.8948,3.4411 0,0 2.9853,-3.7661 0.7996,-5.5829z"/>
      <path id="_404663872" class="fil13" d="M96.6625 172.54c0,0 -0.4921,-0.7887 -0.0952,-2.1418 0.397,-1.3531 0.8948,-3.4411 0.8948,-3.4411 0,0 -2.9853,3.7661 -0.7996,5.5829z"/>
     </g>
     <g>
      <path id="_404663944" class="fil13" d="M100.541 170.477c0,0 0.4921,0.7887 0.0952,2.1418 -0.3969,1.3531 -0.8948,3.4411 -0.8948,3.4411 0,0 2.9853,-3.7661 0.7996,-5.5829z"/>
      <path id="_404657920" class="fil13" d="M99.1186 177.199c0,0 -0.4921,-0.7887 -0.0952,-2.1418 0.397,-1.3531 0.8949,-3.4411 0.8949,-3.4411 0,0 -2.9854,3.7661 -0.7997,5.5829z"/>
     </g>
    </g>
   </g>
  </g>
  <g id="_405280248">
   <g>
    <path id="_405279672" class="fil2" d="M120.667 158.893c-0.4575,-9.4422 -8.6395,-14.2637 -13.0684,-13.3435 -4.4289,0.9202 -9.7178,7.5146 -13.2918,19.3936 -3.574,11.879 26.8177,3.3921 26.3602,-6.0501z"/>
    <g style="clip-path:url(#id6)">
     <g>
      <path id="_5960902401" class="fil0" d="M118.067 164.334c-0.6244,-12.8857 -11.7902,-19.4655 -17.8343,-18.2097 -1.8193,0.378 -3.7449,1.4587 -5.681,3.2254 7.5908,0.1509 18.8347,7.8712 20.1017,21.8287 2.2032,-2.1255 3.529,-4.4624 3.4136,-6.8444z"/>
      <path id="_596090168" class="fil12" d="M97.9413 151.301c0,0 7.6025,2.9328 10.9053,8.1968 3.3028,5.264 4.3054,12.1824 4.3054,12.1824l-0.8577 0c0,0 -1.626,-9.271 -5.7758,-13.7616 -4.1498,-4.4906 -8.4547,-5.664 -8.4547,-5.664l-0.1225 -0.9536z"/>
      <path id="_596090096" class="fil19" d="M96.1263 152.956c0,0 7.6025,2.9328 10.9053,8.1968 3.3028,5.264 4.3054,12.1824 4.3054,12.1824l-0.8577 0c0,0 -1.626,-9.271 -5.7758,-13.7616 -4.1498,-4.4906 -8.4547,-5.664 -8.4547,-5.664l-0.1225 -0.9536z"/>
      <path id="_596090024" class="fil0" d="M76.9004 145.074c0,0 19.784,7.6321 28.3791,21.3308 8.595,13.6986 11.204,31.7026 11.204,31.7026l-2.232 0c0,0 -4.2314,-24.1262 -15.0305,-35.8122 -10.7992,-11.686 -22.0018,-14.7396 -22.0018,-14.7396l-0.3188 -2.4816z"/>
      <path id="_596089952" class="fil12" d="M88.9201 158.294c0,0 7.6025,2.9328 10.9053,8.1968 3.3028,5.264 4.3054,12.1824 4.3054,12.1824l-0.8577 0c0,0 -1.626,-9.271 -5.7758,-13.7616 -4.1498,-4.4906 -8.4547,-5.664 -8.4547,-5.664l-0.1225 -0.9536z"/>
      <path id="_596089880" class="fil19" d="M105.602 143.405c0,0 7.6025,2.9328 10.9053,8.1968 3.3028,5.264 4.3054,12.1824 4.3054,12.1824l-0.8577 0c0,0 -1.626,-9.271 -5.7758,-13.7616 -4.1498,-4.4906 -8.4547,-5.664 -8.4547,-5.664l-0.1225 -0.9536z"/>
     </g>
    </g>
    <path class="fil4 str8" d="M120.667 158.893c-0.4575,-9.4422 -8.6395,-14.2637 -13.0684,-13.3435 -4.4289,0.9202 -9.7178,7.5146 -13.2918,19.3936 -3.574,11.879 26.8177,3.3921 26.3602,-6.0501z"/>
    <path id="_405279336" class="fil2" d="M120.787 158.893c0.4575,-9.4422 8.6395,-14.2637 13.0684,-13.3435 4.4289,0.9202 9.7178,7.5146 13.2918,19.3936 3.574,11.879 -26.8177,3.3921 -26.3602,-6.0501z"/>
    <g style="clip-path:url(#id7)">
     <g>
      <path id="_5960781441" class="fil0" d="M123.388 164.334c0.6244,-12.8857 11.7902,-19.4655 17.8343,-18.2097 1.8193,0.378 3.7449,1.4587 5.681,3.2254 -7.5908,0.1509 -18.8347,7.8712 -20.1017,21.8287 -2.2032,-2.1255 -3.529,-4.4624 -3.4136,-6.8444z"/>
      <path id="_596078072" class="fil12" d="M143.513 151.301c0,0 -7.6025,2.9328 -10.9053,8.1968 -3.3028,5.264 -4.3054,12.1824 -4.3054,12.1824l0.8577 0c0,0 1.626,-9.271 5.7758,-13.7616 4.1498,-4.4906 8.4547,-5.664 8.4547,-5.664l0.1225 -0.9536z"/>
      <path id="_596078000" class="fil19" d="M145.328 152.956c0,0 -7.6025,2.9328 -10.9053,8.1968 -3.3028,5.264 -4.3054,12.1824 -4.3054,12.1824l0.8577 0c0,0 1.626,-9.271 5.7758,-13.7616 4.1498,-4.4906 8.4547,-5.664 8.4547,-5.664l0.1225 -0.9536z"/>
      <path id="_596077928" class="fil0" d="M164.554 145.074c0,0 -19.784,7.6321 -28.3791,21.3308 -8.595,13.6986 -11.204,31.7026 -11.204,31.7026l2.232 0c0,0 4.2314,-24.1262 15.0305,-35.8122 10.7992,-11.686 22.0018,-14.7396 22.0018,-14.7396l0.3188 -2.4816z"/>
      <path id="_596077856" class="fil12" d="M152.534 158.294c0,0 -7.6025,2.9328 -10.9053,8.1968 -3.3028,5.264 -4.3054,12.1824 -4.3054,12.1824l0.8577 0c0,0 1.626,-9.271 5.7758,-13.7616 4.1498,-4.4906 8.4547,-5.664 8.4547,-5.664l0.1225 -0.9536z"/>
      <path id="_596077784" class="fil19" d="M135.853 143.405c0,0 -7.6025,2.9328 -10.9053,8.1968 -3.3028,5.264 -4.3054,12.1824 -4.3054,12.1824l0.8577 0c0,0 1.626,-9.271 5.7758,-13.7616 4.1498,-4.4906 8.4547,-5.664 8.4547,-5.664l0.1225 -0.9536z"/>
     </g>
    </g>
    <path class="fil4 str8" d="M120.787 158.893c0.4575,-9.4422 8.6395,-14.2637 13.0684,-13.3435 4.4289,0.9202 9.7178,7.5146 13.2918,19.3936 3.574,11.879 -26.8177,3.3921 -26.3602,-6.0501z"/>
   </g>
   <path id="_405279408" class="fil15" d="M117.911 153.577c-0.3743,0.3743 -0.4216,0.9813 -0.1818,1.5748 -0.5892,0.2501 -0.9849,0.7127 -0.9849,1.242 0,0.5293 0.3957,0.9919 0.9849,1.242 -0.2398,0.5934 -0.1925,1.2004 0.1818,1.5747 0.3743,0.3743 0.9813,0.4216 1.5747,0.1818 0.25,0.5893 0.7127,0.9849 1.2421,0.9849 0.5294,0 0.9921,-0.3957 1.2421,-0.9849 0.5935,0.2398 1.2003,0.1925 1.5746,-0.1818 0.3743,-0.3743 0.4215,-0.9812 0.1818,-1.5746 0.5892,-0.2501 0.985,-0.7127 0.985,-1.2421 0,-0.5294 -0.3958,-0.992 -0.985,-1.2421 0.2398,-0.5935 0.1925,-1.2004 -0.1818,-1.5747 -0.3743,-0.3743 -0.9812,-0.4216 -1.5746,-0.1818 -0.25,-0.5892 -0.7128,-0.9849 -1.2421,-0.9849 -0.5294,0 -0.9921,0.3956 -1.2421,0.9849 -0.5934,-0.2398 -1.2004,-0.1925 -1.5747,0.1818z"/>
   <circle id="_405280008" class="fil20" cx="120.727" cy="156.394" r="1.9917"/>
  </g>
  <path class="fil20 str9" d="M310.343 101.031c12.0503,0 21.8227,6.3272 21.8227,14.1292 0,7.8021 -9.7724,14.1293 -21.8227,14.1293 -5.935,0 -11.3167,-1.5354 -15.2508,-4.0254l-8.0449 4.01 4.0251 -7.4806c-1.628,-1.9781 -2.552,-4.2358 -2.552,-6.6333 0,-7.802 9.7724,-14.1292 21.8226,-14.1292z"/>
  <path class="fil20 str9" d="M180.857 101.124c12.0503,0 21.8227,6.3272 21.8227,14.1292 0,7.8021 -9.7724,14.1293 -21.8227,14.1293 -5.935,0 -11.3167,-1.5354 -15.2508,-4.0254l-8.0449 4.01 4.0251 -7.4806c-1.628,-1.9781 -2.552,-4.2358 -2.552,-6.6333 0,-7.802 9.7724,-14.1292 21.8226,-14.1292z"/>
  <path class="fil21" d="M165.811 113.228c0,-0.2032 0.0995,-0.4276 0.2985,-0.6731 0.2455,-0.2413 0.491,-0.4847 0.7366,-0.7303 0.0423,-0.1439 0.0783,-0.2582 0.1079,-0.3429 0.0593,-0.1651 0.1609,-0.2476 0.3048,-0.2476 0.0762,0 0.127,0.0212 0.1524,0.0635 0.0127,0.0339 0.0201,0.0995 0.0222,0.1968 0.0021,0.0974 0.0032,0.1948 0.0032,0.2921 0,0.1397 -0.1916,0.4033 -0.5747,0.7906 -0.3831,0.3874 -0.5619,0.6234 -0.5365,0.708 0.0592,0.2075 0.2328,0.3112 0.5207,0.3112 0.1312,0 0.3079,-0.0826 0.5302,-0.2477 0.2222,-0.1651 0.4477,-0.3365 0.6763,-0.5143 0.0381,0 0.0762,0.018 0.1143,0.054 0.0381,0.036 0.0571,0.0899 0.0571,0.1619 0,0.2074 -0.1651,0.436 -0.4953,0.6858 -0.3302,0.2498 -0.6413,0.3746 -0.9334,0.3746 -0.271,0 -0.4996,-0.0783 -0.6858,-0.2349 -0.199,-0.1693 -0.2985,-0.3852 -0.2985,-0.6477zm0.9589 -3.2766c0,-0.1016 0.0254,-0.1852 0.0762,-0.2508 0.0508,-0.0656 0.1291,-0.0985 0.2349,-0.0985 0.0974,0 0.1757,0.0297 0.235,0.0889 0.0592,0.0593 0.0889,0.1376 0.0889,0.235 0,0.0974 -0.0276,0.182 -0.0826,0.254 -0.055,0.072 -0.127,0.1122 -0.2159,0.1206 -0.1016,0 -0.1831,-0.0328 -0.2445,-0.0984 -0.0614,-0.0656 -0.092,-0.1492 -0.092,-0.2508zm4.2926 3.5623c0,0.0889 -0.0593,0.162 -0.1778,0.2191 -0.1186,0.0572 -0.2794,0.0857 -0.4826,0.0857 -0.5292,0 -0.9843,-0.1566 -1.3653,-0.4699 -0.4318,-0.3556 -0.6477,-0.8382 -0.6477,-1.4478 0,-0.5037 0.2286,-1.016 0.6858,-1.5367 0.436,-0.4953 0.834,-0.7429 1.1938,-0.7429 0.0889,0 0.1545,0.0212 0.1969,0.0635 0.0423,0.0423 0.0635,0.0889 0.0635,0.1397 -0.4107,0.3133 -0.7705,0.6392 -1.0795,0.9779 -0.3387,0.3725 -0.508,0.7853 -0.508,1.2382 0,0.381 0.182,0.6668 0.5461,0.8573 0.1693,0.0889 0.5101,0.1926 1.0223,0.3111 0.3683,0.0847 0.5525,0.1863 0.5525,0.3048zm2.8194 -1.5875c0,0.5588 -0.1355,1.0393 -0.4064,1.4415 -0.2837,0.4191 -0.635,0.6286 -1.0541,0.6286 -0.398,0 -0.7197,-0.1418 -0.9652,-0.4254 -0.3048,-0.3514 -0.4572,-0.889 -0.4572,-1.6129 0,-0.5038 0.091,-1.0255 0.273,-1.5653 0.182,-0.5397 0.3683,-0.8096 0.5588,-0.8096 0.1651,0 0.2477,0.1037 0.2477,0.3111 0,0.1143 -0.0889,0.4361 -0.2667,0.9652 -0.1778,0.5292 -0.2667,0.8996 -0.2667,1.1113 0,0.5334 0.0889,0.9144 0.2667,1.143 0.1439,0.1863 0.3513,0.2794 0.6223,0.2794 0.2836,0 0.5016,-0.1588 0.654,-0.4763 0.1355,-0.2794 0.2032,-0.6392 0.2032,-1.0795 0,-0.127 -0.0307,-0.4243 -0.0921,-0.8921 -0.0614,-0.4678 -0.092,-0.744 -0.092,-0.8287 0,-0.326 0.091,-0.5017 0.273,-0.5271 0.1524,-0.0169 0.2773,0.2286 0.3747,0.7366 0.0846,0.4488 0.127,0.9822 0.127,1.6002zm2.8321 1.7145c0,0.1651 -0.0159,0.2921 -0.0477,0.381 -0.0317,0.0889 -0.0899,0.1334 -0.1746,0.1334 -0.1185,0 -0.2265,-0.1799 -0.3238,-0.5398 -0.0551,-0.2328 -0.108,-0.4677 -0.1588,-0.7048l-1.0795 0c-0.0593,0.2286 -0.1185,0.4572 -0.1778,0.6858 -0.0804,0.2752 -0.1968,0.4127 -0.3492,0.4127 -0.0889,0 -0.1419,-0.0127 -0.1588,-0.0381 -0.0339,-0.0508 -0.0508,-0.1375 -0.0508,-0.2603 0,-0.1016 0.0074,-0.217 0.0222,-0.3461 0.0148,-0.1291 0.0519,-0.3058 0.1112,-0.5302 0.0592,-0.2244 0.1185,-0.4456 0.1778,-0.6636 0.0592,-0.218 0.1735,-0.6276 0.3429,-1.2287 0.127,-0.4487 0.201,-0.6858 0.2222,-0.7112 0.1185,-0.4149 0.2942,-0.6223 0.5271,-0.6223 0.1143,0 0.2307,0.091 0.3492,0.273 0.1185,0.1821 0.2032,0.4128 0.254,0.6922 0.0169,0.0296 0.0582,0.2191 0.1238,0.5683 0.0656,0.3493 0.126,0.6763 0.181,0.9811 0.0296,0.1736 0.0593,0.3429 0.0889,0.508 0.0296,0.1651 0.0572,0.3556 0.0826,0.5715 0.0254,0.2159 0.0381,0.3619 0.0381,0.4381zm-0.7811 -1.2763l-0.3302 -2.0511 -0.5651 2.0511 0.8953 0zm0.5906 -3.3782c0,0.0931 -0.0995,0.2011 -0.2985,0.3238 -0.0635,0.0381 -0.163,0.0889 -0.2984,0.1524l-0.5144 0c0.1651,-0.1778 0.29,-0.3111 0.3747,-0.4 0.2624,-0.2667 0.4275,-0.4001 0.4953,-0.4001 0.11,0 0.1778,0.0233 0.2032,0.0699 0.0254,0.0466 0.0381,0.1312 0.0381,0.254zm2.2987 4.718c0.0127,0.1101 -0.1313,0.2234 -0.4318,0.3398 -0.3006,0.1164 -0.5864,0.1746 -0.8562,0.1746 -0.1884,0 -0.3154,-0.1291 -0.3832,-0.3874 -0.0497,-0.1989 -0.0751,-0.5588 -0.0751,-1.0795 0,-0.1693 0,-0.3429 0,-0.5207 0,-0.1778 0,-0.3619 0,-0.5524 0,-1.1726 0.1228,-1.759 0.3683,-1.759 0.0931,0 0.1598,0.0826 0.2,0.2477 0.0402,0.1651 0.0604,0.3958 0.0604,0.6921 0,0.1228 -0.0053,0.3715 -0.0159,0.7462 -0.0106,0.3746 -0.0159,0.6233 -0.0159,0.7461 0,0.2752 0.0053,0.4974 0.0159,0.6667 0.0106,0.1694 0.0307,0.3345 0.0603,0.4953 0.0847,0 0.1958,-0.0095 0.3334,-0.0285 0.1376,-0.0191 0.2656,-0.0371 0.3842,-0.054 0.1016,0 0.182,0.019 0.2413,0.0571 0.0592,0.0381 0.0973,0.1101 0.1143,0.2159zm4.7053 -0.2286c0,0.1609 -0.1482,0.29 -0.4445,0.3874 -0.254,0.0847 -0.5355,0.127 -0.8445,0.127 -0.1567,0 -0.2689,-0.0783 -0.3366,-0.235 -0.0508,-0.1185 -0.0762,-0.2783 -0.0762,-0.4773 -0.0042,-0.182 -0.0085,-0.3344 -0.0127,-0.4582 -0.0296,-0.8774 -0.0444,-1.5177 -0.0444,-1.9198 0,-0.4964 0.0127,-0.8964 0.0381,-1.2023l1.1239 -0.1397c0.0423,0 0.072,0 0.0889,0 0.1101,0 0.1969,0.0201 0.2604,0.0603 0.0635,0.0402 0.0952,0.1027 0.0952,0.1873 0,0.072 -0.0423,0.1376 -0.127,0.1969 -0.0847,0.0593 -0.1799,0.0995 -0.2857,0.1206l-0.5842 0.108 0 1.2509 0.5207 -0.0254c0.1651,0 0.2815,0.0297 0.3492,0.0889 0.0677,0.0593 0.1016,0.1397 0.1016,0.2413 0,0.0847 -0.0349,0.1535 -0.1048,0.2064 -0.0698,0.0529 -0.1534,0.0794 -0.2508,0.0794l-0.5778 0.0381 0.0381 1.1747c0.0846,0 0.1957,-0.0095 0.3333,-0.0285 0.1376,-0.0191 0.2657,-0.0371 0.3842,-0.054 0.1058,0 0.1916,0.0201 0.2572,0.0603 0.0656,0.0402 0.0984,0.1111 0.0984,0.2127zm2.7559 -0.6667c0,0.3514 -0.1418,0.6361 -0.4254,0.8541 -0.2837,0.218 -0.6329,0.327 -1.0478,0.327 -0.2286,0 -0.4635,-0.0614 -0.7048,-0.1842 -0.2413,-0.1227 -0.362,-0.2561 -0.362,-0.4 0,-0.0593 0.0286,-0.1154 0.0857,-0.1683 0.0572,-0.0529 0.1217,-0.0794 0.1937,-0.0794 0.0254,0 0.1503,0.0519 0.3747,0.1556 0.2243,0.1037 0.3725,0.1556 0.4445,0.1556 0.2286,0 0.4222,-0.055 0.581,-0.1651 0.1587,-0.1101 0.2381,-0.2625 0.2381,-0.4572 0,-0.2032 -0.1799,-0.3916 -0.5397,-0.5652 -0.3387,-0.1566 -0.6774,-0.3132 -1.016,-0.4699 -0.3641,-0.2116 -0.5461,-0.4572 -0.5461,-0.7366 0,-0.2963 0.1608,-0.5831 0.4826,-0.8604 0.3217,-0.2773 0.6752,-0.4159 1.0604,-0.4159 0.2709,0 0.4445,0.0042 0.5207,0.0127 0.2413,0.0254 0.362,0.1291 0.362,0.3111 0,0.1313 -0.2943,0.2202 -0.8827,0.2667 -0.5884,0.0466 -0.8826,0.2646 -0.8826,0.6541 0,0.2074 0.1778,0.3725 0.5334,0.4953 0.6011,0.2032 0.9313,0.3217 0.9906,0.3556 0.3598,0.2032 0.5397,0.508 0.5397,0.9144zm-17.8943 4.3879c0,0.2498 -0.1746,0.3948 -0.5239,0.435 -0.3492,0.0402 -0.5683,0.0688 -0.6572,0.0857l0.0381 2.9972c0,0.2244 -0.0148,0.3926 -0.0444,0.5048 -0.0297,0.1122 -0.0932,0.1683 -0.1905,0.1683 -0.1143,0 -0.2043,-0.0826 -0.2699,-0.2477 -0.0656,-0.1651 -0.0984,-0.381 -0.0984,-0.6477 -0.0043,-0.1735 -0.0085,-0.437 -0.0127,-0.7905 -0.0043,-0.3535 -0.0096,-0.7345 -0.0159,-1.143 -0.0064,-0.4085 -0.0095,-0.6657 -0.0095,-0.7716 -0.072,-0.0169 -0.1609,-0.0254 -0.2667,-0.0254 -0.1101,0 -0.2181,0.0075 -0.3239,0.0223 -0.1058,0.0148 -0.199,0.0264 -0.2794,0.0349 -0.0974,0 -0.1715,-0.0148 -0.2223,-0.0445 -0.0719,-0.0423 -0.1079,-0.1164 -0.1079,-0.2222 0,-0.1609 0.1206,-0.2688 0.362,-0.3239 0.1651,-0.0381 0.4402,-0.0571 0.8255,-0.0571l0.3556 0c0.0592,-0.0085 0.273,-0.0423 0.6413,-0.1016 0.2625,-0.0423 0.4212,-0.0635 0.4763,-0.0635 0.0846,0 0.1598,0.0148 0.2254,0.0444 0.0656,0.0297 0.0984,0.0784 0.0984,0.1461zm2.737 2.1272c0,0.5588 -0.1355,1.0393 -0.4064,1.4415 -0.2837,0.4191 -0.635,0.6286 -1.0541,0.6286 -0.398,0 -0.7197,-0.1418 -0.9652,-0.4254 -0.3048,-0.3514 -0.4572,-0.889 -0.4572,-1.6129 0,-0.5038 0.091,-1.0255 0.273,-1.5653 0.182,-0.5397 0.3683,-0.8096 0.5588,-0.8096 0.1651,0 0.2477,0.1037 0.2477,0.3111 0,0.1143 -0.0889,0.4361 -0.2667,0.9652 -0.1778,0.5292 -0.2667,0.8996 -0.2667,1.1113 0,0.5334 0.0889,0.9144 0.2667,1.143 0.1439,0.1863 0.3513,0.2794 0.6223,0.2794 0.2836,0 0.5016,-0.1588 0.654,-0.4763 0.1355,-0.2794 0.2032,-0.6392 0.2032,-1.0795 0,-0.127 -0.0307,-0.4243 -0.0921,-0.8921 -0.0614,-0.4678 -0.092,-0.744 -0.092,-0.8287 0,-0.326 0.091,-0.5017 0.273,-0.5271 0.1524,-0.0169 0.2773,0.2286 0.3747,0.7366 0.0846,0.4488 0.127,0.9822 0.127,1.6002zm5.9245 -1.016l0 1.7018 0 0.2731c0,0.5715 -0.0265,0.9588 -0.0794,1.162 -0.0529,0.2033 -0.1301,0.3049 -0.2317,0.3049 -0.2075,0 -0.4107,-0.18 -0.6096,-0.5398 -0.1016,-0.1863 -0.2742,-0.5937 -0.5176,-1.2224 -0.2434,-0.6286 -0.4498,-1.089 -0.6191,-1.3811 0,0.1355 0.0042,0.4138 0.0127,0.835 0.0085,0.4212 0.0127,0.6678 0.0127,0.7398 0,0.4106 -0.0169,0.726 -0.0508,0.9461 -0.0339,0.2202 -0.0995,0.3302 -0.1968,0.3302 -0.1397,0 -0.2403,-0.1174 -0.3017,-0.3524 -0.0614,-0.2349 -0.092,-0.5577 -0.092,-0.9684l0 -1.7907c0,-0.3937 0.0201,-0.6953 0.0603,-0.9048 0.0402,-0.2096 0.1196,-0.3144 0.2381,-0.3144 0.1439,0 0.3408,0.2392 0.5906,0.7176 0.1651,0.3175 0.3862,0.8075 0.6635,1.47 0.2773,0.6625 0.4562,1.0763 0.5366,1.2414l-0.0444 -2.1145c0,-0.4995 0.0232,-0.8869 0.0698,-1.1621 0.0466,-0.2751 0.1291,-0.4127 0.2477,-0.4127 0.1164,0 0.1968,0.1249 0.2423,0.3746 0.0455,0.2498 0.0688,0.6054 0.0688,1.0668zm3.1052 1.3081c0,0.5715 -0.1079,1.0436 -0.3238,1.4161 -0.2329,0.4022 -0.5483,0.6033 -0.9462,0.6033 -0.453,0 -0.8107,-0.2181 -1.0731,-0.6541 -0.2625,-0.436 -0.3937,-0.9843 -0.3937,-1.6447 0,-0.5969 0.1068,-1.0964 0.3206,-1.4986 0.2138,-0.4021 0.5027,-0.6032 0.8668,-0.6032 0.4699,0 0.8488,0.2349 1.1367,0.7048 0.2751,0.4488 0.4127,1.0076 0.4127,1.6764zm-0.5334 -0.0063c0,-0.5207 -0.0804,-0.9504 -0.2413,-1.2891 -0.1736,-0.364 -0.4106,-0.5461 -0.7112,-0.5461 -0.199,0 -0.363,0.1524 -0.4921,0.4572 -0.1291,0.3048 -0.1937,0.6837 -0.1937,1.1367 0,0.5122 0.0783,0.9271 0.235,1.2446 0.1778,0.3598 0.4233,0.5397 0.7366,0.5397 0.1905,0 0.3492,-0.1471 0.4762,-0.4413 0.127,-0.2942 0.1905,-0.6614 0.1905,-1.1017zm5.061 1.543c0,0.0762 -0.0169,0.127 -0.0508,0.1524 -0.0339,0.0254 -0.0804,0.0381 -0.1397,0.0381 -0.1312,0 -0.2667,-0.1375 -0.4064,-0.4127 -0.1016,-0.199 -0.2286,-0.5355 -0.381,-1.0097 -0.1312,-0.4064 -0.2603,-0.8128 -0.3873,-1.2192 -0.1736,0.6689 -0.3472,1.3378 -0.5207,2.0066 -0.1905,0.5546 -0.362,0.8319 -0.5144,0.8319 -0.1185,0 -0.2434,-0.1376 -0.3746,-0.4128 -0.1016,-0.2116 -0.2223,-0.5397 -0.362,-0.9842 -0.1143,-0.3725 -0.2265,-0.7472 -0.3365,-1.124 -0.0551,0.3091 -0.1112,0.7335 -0.1683,1.2732 -0.0572,0.5398 -0.1111,0.8943 -0.1619,1.0636 -0.0762,0.2498 -0.1927,0.3747 -0.3493,0.3747 -0.0381,0 -0.0688,-0.0265 -0.0921,-0.0794 -0.0233,-0.0529 -0.0349,-0.1492 -0.0349,-0.2889 0,-0.3217 0.0677,-0.8213 0.2032,-1.4986 0.0296,-0.2244 0.0582,-0.6297 0.0857,-1.216 0.0275,-0.5863 0.0625,-0.9769 0.1048,-1.1716 0.0677,-0.2963 0.1863,-0.4339 0.3556,-0.4128 0.1228,0.017 0.2392,0.2667 0.3493,0.7493 0.11,0.4826 0.218,0.9737 0.3238,1.4732 0.1439,0.635 0.2963,1.0986 0.4572,1.3907 0.2413,-0.6689 0.4212,-1.3504 0.5398,-2.0447 0.0592,-0.3895 0.1206,-0.7789 0.1841,-1.1684 0.055,-0.2455 0.1693,-0.3683 0.3429,-0.3683 0.0974,0 0.2074,0.1799 0.3302,0.5397 0.0974,0.2921 0.1863,0.6245 0.2667,0.997 0.0339,0.182 0.0677,0.3641 0.1016,0.5461 0.1439,0.4149 0.2498,0.7281 0.3175,0.9398 0.2117,0.635 0.3175,0.98 0.3175,1.035zm2.1908 -2.9591c0,0.199 -0.072,0.381 -0.2159,0.5461 -0.1058,0.1228 -0.309,0.29 -0.6096,0.5017l0.3937 0.1016c0.1016,0.0508 0.1524,0.2011 0.1524,0.4508 0,0.4742 -0.2222,0.9356 -0.6667,1.3843 -0.3937,0.398 -0.7303,0.597 -1.0097,0.597 -0.0889,0 -0.1482,-0.2297 -0.1778,-0.689 -0.0296,-0.4593 -0.0444,-1.1526 -0.0444,-2.0797 0,-0.4064 0.0021,-0.7164 0.0063,-0.9302 0.0042,-0.2138 0.0085,-0.4202 0.0127,-0.6192 0.1143,-0.0084 0.2223,-0.0158 0.3239,-0.0222 0.1016,-0.0063 0.1714,-0.0095 0.2095,-0.0095 0.5757,0 0.9906,0.0656 1.2446,0.1968 0.254,0.1313 0.381,0.3218 0.381,0.5715zm-0.5651 0.1016c0,-0.1058 -0.0508,-0.182 -0.1524,-0.2286 -0.1524,-0.0719 -0.4318,-0.1079 -0.8382,-0.1079 -0.0085,0.0804 -0.0149,0.2381 -0.0191,0.4731 -0.0042,0.2349 -0.0063,0.4879 -0.0063,0.7588 0.1989,-0.1143 0.3979,-0.2307 0.5969,-0.3493 0.2794,-0.1778 0.4191,-0.3598 0.4191,-0.5461zm-0.2921 1.6637c0,-0.0381 0,-0.0677 0,-0.0889 0,-0.055 -0.0043,-0.0931 -0.0127,-0.1143 -0.0297,-0.0719 -0.1059,-0.1079 -0.2286,-0.1079 -0.0805,0 -0.1694,0.0201 -0.2667,0.0603 -0.0974,0.0402 -0.1757,0.09 -0.235,0.1492l0 1.1303c0.2117,-0.0846 0.3884,-0.2233 0.5302,-0.4159 0.1418,-0.1926 0.2128,-0.3969 0.2128,-0.6128zm4.0894 1.2954c-0.0085,0.0551 -0.0212,0.0953 -0.0381,0.1207 -0.0508,0.0804 -0.1376,0.1206 -0.2603,0.1206 -0.3599,0 -0.7557,-0.1778 -1.1875,-0.5334 -0.4318,-0.3556 -0.6286,-0.6455 -0.5905,-0.8699 0,-0.0466 0.2349,-0.1863 0.7048,-0.4191 0.4699,-0.2328 0.7049,-0.4868 0.7049,-0.762 0,-0.2709 -0.1038,-0.5101 -0.3112,-0.7176 -0.2074,-0.2074 -0.453,-0.3111 -0.7366,-0.3111 -0.1778,0 -0.3492,0.0381 -0.5143,0.1143l0 2.4193c0,0.4742 -0.0223,0.8308 -0.0657,1.07 -0.0444,0.2392 -0.1164,0.3588 -0.2169,0.3588 -0.126,0 -0.2138,-0.1281 -0.2646,-0.3842 -0.0497,-0.2561 -0.0751,-0.6233 -0.0751,-1.1017l0 -1.7971c0,-0.5461 0.0582,-0.89 0.1746,-1.0318 0.1153,-0.1418 0.3958,-0.2128 0.8392,-0.2128 0.5112,0 0.9166,0.1016 1.2161,0.3048 0.346,0.2329 0.5196,0.5821 0.5196,1.0478 0,0.4149 -0.0868,0.7218 -0.2603,0.9207 -0.1567,0.1778 -0.4975,0.3874 -1.0224,0.6287 0.2244,0.2794 0.4741,0.4889 0.7493,0.6286 0.4233,0.2159 0.635,0.3514 0.635,0.4064zm2.14 -0.381c0,0.1609 -0.1482,0.29 -0.4445,0.3874 -0.254,0.0847 -0.5355,0.127 -0.8445,0.127 -0.1567,0 -0.2689,-0.0783 -0.3366,-0.235 -0.0508,-0.1185 -0.0762,-0.2783 -0.0762,-0.4773 -0.0042,-0.182 -0.0085,-0.3344 -0.0127,-0.4582 -0.0296,-0.8774 -0.0444,-1.5177 -0.0444,-1.9198 0,-0.4964 0.0127,-0.8964 0.0381,-1.2023l1.1239 -0.1397c0.0423,0 0.072,0 0.0889,0 0.1101,0 0.1969,0.0201 0.2604,0.0603 0.0635,0.0402 0.0952,0.1027 0.0952,0.1873 0,0.072 -0.0423,0.1376 -0.127,0.1969 -0.0847,0.0593 -0.1799,0.0995 -0.2857,0.1206l-0.5842 0.108 0 1.2509 0.5207 -0.0254c0.1651,0 0.2815,0.0297 0.3492,0.0889 0.0677,0.0593 0.1016,0.1397 0.1016,0.2413 0,0.0847 -0.0349,0.1535 -0.1048,0.2064 -0.0698,0.0529 -0.1534,0.0794 -0.2508,0.0794l-0.5778 0.0381 0.0381 1.1747c0.0846,0 0.1957,-0.0095 0.3333,-0.0285 0.1376,-0.0191 0.2657,-0.0371 0.3842,-0.054 0.1058,0 0.1916,0.0201 0.2572,0.0603 0.0656,0.0402 0.0984,0.1111 0.0984,0.2127zm2.5908 -2.9908c0,0.2032 -0.0995,0.4276 -0.2984,0.6731 -0.2456,0.2455 -0.4911,0.4889 -0.7366,0.7302 -0.0424,0.144 -0.0784,0.2583 -0.108,0.3429 -0.0593,0.1651 -0.1609,0.2477 -0.3048,0.2477 -0.0762,0 -0.127,-0.0212 -0.1524,-0.0635 -0.0085,-0.0212 -0.0148,-0.0847 -0.019,-0.1905 -0.0043,-0.1058 -0.0064,-0.1842 -0.0064,-0.235 0,-0.0296 0,-0.0465 0,-0.0508 0,-0.0042 0,-0.0084 0,-0.0127 0,-0.1397 0.1916,-0.4032 0.5747,-0.7905 0.3831,-0.3874 0.562,-0.6234 0.5366,-0.7081 -0.0593,-0.2074 -0.2329,-0.3111 -0.5207,-0.3111 -0.1313,0 -0.3048,0.0783 -0.5207,0.2349 -0.2286,0.1778 -0.4572,0.3535 -0.6858,0.5271 -0.0381,0 -0.072,-0.0148 -0.1016,-0.0445 -0.0466,-0.0423 -0.0699,-0.0994 -0.0699,-0.1714 0,-0.2074 0.1651,-0.436 0.4953,-0.6858 0.3302,-0.2498 0.6414,-0.3747 0.9335,-0.3747 0.2709,0 0.5027,0.0815 0.6953,0.2445 0.1926,0.163 0.2889,0.3757 0.2889,0.6382zm-0.9588 3.2766c0,0.1016 -0.0254,0.1852 -0.0762,0.2508 -0.0508,0.0656 -0.1292,0.0984 -0.235,0.0984 -0.0974,0 -0.1757,-0.0296 -0.2349,-0.0889 -0.0593,-0.0592 -0.0889,-0.1375 -0.0889,-0.2349 0,-0.0974 0.0275,-0.182 0.0825,-0.254 0.055,-0.072 0.127,-0.1122 0.2159,-0.1207 0.1016,0 0.1831,0.0329 0.2445,0.0985 0.0614,0.0656 0.0921,0.1492 0.0921,0.2508z"/>
  <path class="fil21" d="M297.103 116.89c0,0.0762 -0.0169,0.127 -0.0508,0.1524 -0.0339,0.0254 -0.0804,0.0381 -0.1397,0.0381 -0.1312,0 -0.2667,-0.1375 -0.4064,-0.4127 -0.1016,-0.199 -0.2286,-0.5355 -0.381,-1.0097 -0.1312,-0.4064 -0.2603,-0.8128 -0.3873,-1.2192 -0.1736,0.6689 -0.3472,1.3378 -0.5207,2.0066 -0.1905,0.5546 -0.362,0.8319 -0.5144,0.8319 -0.1185,0 -0.2434,-0.1376 -0.3746,-0.4128 -0.1016,-0.2116 -0.2223,-0.5397 -0.362,-0.9842 -0.1143,-0.3725 -0.2265,-0.7472 -0.3365,-1.124 -0.0551,0.3091 -0.1112,0.7335 -0.1683,1.2732 -0.0572,0.5398 -0.1111,0.8943 -0.1619,1.0636 -0.0762,0.2498 -0.1927,0.3747 -0.3493,0.3747 -0.0381,0 -0.0688,-0.0265 -0.0921,-0.0794 -0.0233,-0.0529 -0.0349,-0.1492 -0.0349,-0.2889 0,-0.3217 0.0677,-0.8213 0.2032,-1.4986 0.0296,-0.2244 0.0582,-0.6297 0.0857,-1.216 0.0275,-0.5863 0.0625,-0.9769 0.1048,-1.1716 0.0677,-0.2963 0.1863,-0.4339 0.3556,-0.4128 0.1228,0.017 0.2392,0.2667 0.3493,0.7493 0.11,0.4826 0.218,0.9737 0.3238,1.4732 0.1439,0.635 0.2963,1.0986 0.4572,1.3907 0.2413,-0.6689 0.4212,-1.3504 0.5398,-2.0447 0.0592,-0.3895 0.1206,-0.7789 0.1841,-1.1684 0.055,-0.2455 0.1693,-0.3683 0.3429,-0.3683 0.0974,0 0.2074,0.1799 0.3302,0.5397 0.0974,0.2921 0.1863,0.6245 0.2667,0.997 0.0339,0.182 0.0677,0.3641 0.1016,0.5461 0.1439,0.4149 0.2498,0.7281 0.3175,0.9398 0.2117,0.635 0.3175,0.98 0.3175,1.035zm0.7557 -0.2349c0,0.3471 -0.0212,0.599 -0.0624,0.7557 -0.053,0.2032 -0.1461,0.3048 -0.2784,0.3048 -0.0709,0 -0.1217,-0.0858 -0.1524,-0.2572 -0.0307,-0.1715 -0.0465,-0.4096 -0.0465,-0.7144l-0.0826 -2.8321c0,-0.1947 0.0222,-0.345 0.0667,-0.4509 0.0444,-0.1058 0.128,-0.1587 0.2508,-0.1587 0.1185,0 0.199,0.1037 0.2413,0.3111 0.0423,0.2075 0.0635,0.5631 0.0635,1.0668l0 1.9749zm6.0833 -2.6099l0 1.7018 0 0.2731c0,0.5715 -0.0265,0.9588 -0.0794,1.162 -0.0529,0.2033 -0.1301,0.3049 -0.2317,0.3049 -0.2075,0 -0.4107,-0.18 -0.6096,-0.5398 -0.1016,-0.1863 -0.2742,-0.5937 -0.5176,-1.2224 -0.2434,-0.6286 -0.4498,-1.089 -0.6191,-1.3811 0,0.1355 0.0042,0.4138 0.0127,0.835 0.0085,0.4212 0.0127,0.6678 0.0127,0.7398 0,0.4106 -0.0169,0.726 -0.0508,0.9461 -0.0339,0.2202 -0.0995,0.3302 -0.1968,0.3302 -0.1397,0 -0.2403,-0.1174 -0.3017,-0.3524 -0.0614,-0.2349 -0.092,-0.5577 -0.092,-0.9684l0 -1.7907c0,-0.3937 0.0201,-0.6953 0.0603,-0.9048 0.0402,-0.2096 0.1196,-0.3144 0.2381,-0.3144 0.1439,0 0.3408,0.2392 0.5906,0.7176 0.1651,0.3175 0.3862,0.8075 0.6635,1.47 0.2773,0.6625 0.4562,1.0763 0.5366,1.2414l-0.0444 -2.1145c0,-0.4995 0.0232,-0.8869 0.0698,-1.1621 0.0466,-0.2751 0.1291,-0.4127 0.2477,-0.4127 0.1164,0 0.1968,0.1249 0.2423,0.3746 0.0455,0.2498 0.0688,0.6054 0.0688,1.0668zm3.1052 1.3081c0,0.5715 -0.1079,1.0436 -0.3238,1.4161 -0.2329,0.4022 -0.5483,0.6033 -0.9462,0.6033 -0.453,0 -0.8107,-0.2181 -1.0731,-0.6541 -0.2625,-0.436 -0.3937,-0.9843 -0.3937,-1.6447 0,-0.5969 0.1068,-1.0964 0.3206,-1.4986 0.2138,-0.4021 0.5027,-0.6032 0.8668,-0.6032 0.4699,0 0.8488,0.2349 1.1367,0.7048 0.2751,0.4488 0.4127,1.0076 0.4127,1.6764zm-0.5334 -0.0063c0,-0.5207 -0.0804,-0.9504 -0.2413,-1.2891 -0.1736,-0.364 -0.4106,-0.5461 -0.7112,-0.5461 -0.199,0 -0.363,0.1524 -0.4921,0.4572 -0.1291,0.3048 -0.1937,0.6837 -0.1937,1.1367 0,0.5122 0.0783,0.9271 0.235,1.2446 0.1778,0.3598 0.4233,0.5397 0.7366,0.5397 0.1905,0 0.3492,-0.1471 0.4762,-0.4413 0.127,-0.2942 0.1905,-0.6614 0.1905,-1.1017zm5.061 1.543c0,0.0762 -0.0169,0.127 -0.0508,0.1524 -0.0339,0.0254 -0.0804,0.0381 -0.1397,0.0381 -0.1312,0 -0.2667,-0.1375 -0.4064,-0.4127 -0.1016,-0.199 -0.2286,-0.5355 -0.381,-1.0097 -0.1312,-0.4064 -0.2603,-0.8128 -0.3873,-1.2192 -0.1736,0.6689 -0.3472,1.3378 -0.5207,2.0066 -0.1905,0.5546 -0.362,0.8319 -0.5144,0.8319 -0.1185,0 -0.2434,-0.1376 -0.3746,-0.4128 -0.1016,-0.2116 -0.2223,-0.5397 -0.362,-0.9842 -0.1143,-0.3725 -0.2265,-0.7472 -0.3365,-1.124 -0.0551,0.3091 -0.1112,0.7335 -0.1683,1.2732 -0.0572,0.5398 -0.1111,0.8943 -0.1619,1.0636 -0.0762,0.2498 -0.1927,0.3747 -0.3493,0.3747 -0.0381,0 -0.0688,-0.0265 -0.0921,-0.0794 -0.0233,-0.0529 -0.0349,-0.1492 -0.0349,-0.2889 0,-0.3217 0.0677,-0.8213 0.2032,-1.4986 0.0296,-0.2244 0.0582,-0.6297 0.0857,-1.216 0.0275,-0.5863 0.0625,-0.9769 0.1048,-1.1716 0.0677,-0.2963 0.1863,-0.4339 0.3556,-0.4128 0.1228,0.017 0.2392,0.2667 0.3493,0.7493 0.11,0.4826 0.218,0.9737 0.3238,1.4732 0.1439,0.635 0.2963,1.0986 0.4572,1.3907 0.2413,-0.6689 0.4212,-1.3504 0.5398,-2.0447 0.0592,-0.3895 0.1206,-0.7789 0.1841,-1.1684 0.055,-0.2455 0.1693,-0.3683 0.3429,-0.3683 0.0974,0 0.2074,0.1799 0.3302,0.5397 0.0974,0.2921 0.1863,0.6245 0.2667,0.997 0.0339,0.182 0.0677,0.3641 0.1016,0.5461 0.1439,0.4149 0.2498,0.7281 0.3175,0.9398 0.2117,0.635 0.3175,0.98 0.3175,1.035zm2.1908 -2.9591c0,0.199 -0.072,0.381 -0.2159,0.5461 -0.1058,0.1228 -0.309,0.29 -0.6096,0.5017l0.3937 0.1016c0.1016,0.0508 0.1524,0.2011 0.1524,0.4508 0,0.4742 -0.2222,0.9356 -0.6667,1.3843 -0.3937,0.398 -0.7303,0.597 -1.0097,0.597 -0.0889,0 -0.1482,-0.2297 -0.1778,-0.689 -0.0296,-0.4593 -0.0444,-1.1526 -0.0444,-2.0797 0,-0.4064 0.0021,-0.7164 0.0063,-0.9302 0.0042,-0.2138 0.0085,-0.4202 0.0127,-0.6192 0.1143,-0.0084 0.2223,-0.0158 0.3239,-0.0222 0.1016,-0.0063 0.1714,-0.0095 0.2095,-0.0095 0.5757,0 0.9906,0.0656 1.2446,0.1968 0.254,0.1313 0.381,0.3218 0.381,0.5715zm-0.5651 0.1016c0,-0.1058 -0.0508,-0.182 -0.1524,-0.2286 -0.1524,-0.0719 -0.4318,-0.1079 -0.8382,-0.1079 -0.0085,0.0804 -0.0149,0.2381 -0.0191,0.4731 -0.0042,0.2349 -0.0063,0.4879 -0.0063,0.7588 0.1989,-0.1143 0.3979,-0.2307 0.5969,-0.3493 0.2794,-0.1778 0.4191,-0.3598 0.4191,-0.5461zm-0.2921 1.6637c0,-0.0381 0,-0.0677 0,-0.0889 0,-0.055 -0.0043,-0.0931 -0.0127,-0.1143 -0.0297,-0.0719 -0.1059,-0.1079 -0.2286,-0.1079 -0.0805,0 -0.1694,0.0201 -0.2667,0.0603 -0.0974,0.0402 -0.1757,0.09 -0.235,0.1492l0 1.1303c0.2117,-0.0846 0.3884,-0.2233 0.5302,-0.4159 0.1418,-0.1926 0.2128,-0.3969 0.2128,-0.6128zm4.0894 1.2954c-0.0085,0.0551 -0.0212,0.0953 -0.0381,0.1207 -0.0508,0.0804 -0.1376,0.1206 -0.2603,0.1206 -0.3599,0 -0.7557,-0.1778 -1.1875,-0.5334 -0.4318,-0.3556 -0.6286,-0.6455 -0.5905,-0.8699 0,-0.0466 0.2349,-0.1863 0.7048,-0.4191 0.4699,-0.2328 0.7049,-0.4868 0.7049,-0.762 0,-0.2709 -0.1038,-0.5101 -0.3112,-0.7176 -0.2074,-0.2074 -0.453,-0.3111 -0.7366,-0.3111 -0.1778,0 -0.3492,0.0381 -0.5143,0.1143l0 2.4193c0,0.4742 -0.0223,0.8308 -0.0657,1.07 -0.0444,0.2392 -0.1164,0.3588 -0.2169,0.3588 -0.126,0 -0.2138,-0.1281 -0.2646,-0.3842 -0.0497,-0.2561 -0.0751,-0.6233 -0.0751,-1.1017l0 -1.7971c0,-0.5461 0.0582,-0.89 0.1746,-1.0318 0.1153,-0.1418 0.3958,-0.2128 0.8392,-0.2128 0.5112,0 0.9166,0.1016 1.2161,0.3048 0.346,0.2329 0.5196,0.5821 0.5196,1.0478 0,0.4149 -0.0868,0.7218 -0.2603,0.9207 -0.1567,0.1778 -0.4975,0.3874 -1.0224,0.6287 0.2244,0.2794 0.4741,0.4889 0.7493,0.6286 0.4233,0.2159 0.635,0.3514 0.635,0.4064zm2.14 -0.381c0,0.1609 -0.1482,0.29 -0.4445,0.3874 -0.254,0.0847 -0.5355,0.127 -0.8445,0.127 -0.1567,0 -0.2689,-0.0783 -0.3366,-0.235 -0.0508,-0.1185 -0.0762,-0.2783 -0.0762,-0.4773 -0.0042,-0.182 -0.0085,-0.3344 -0.0127,-0.4582 -0.0296,-0.8774 -0.0444,-1.5177 -0.0444,-1.9198 0,-0.4964 0.0127,-0.8964 0.0381,-1.2023l1.1239 -0.1397c0.0423,0 0.072,0 0.0889,0 0.1101,0 0.1969,0.0201 0.2604,0.0603 0.0635,0.0402 0.0952,0.1027 0.0952,0.1873 0,0.072 -0.0423,0.1376 -0.127,0.1969 -0.0847,0.0593 -0.1799,0.0995 -0.2857,0.1206l-0.5842 0.108 0 1.2509 0.5207 -0.0254c0.1651,0 0.2815,0.0297 0.3492,0.0889 0.0677,0.0593 0.1016,0.1397 0.1016,0.2413 0,0.0847 -0.0349,0.1535 -0.1048,0.2064 -0.0698,0.0529 -0.1534,0.0794 -0.2508,0.0794l-0.5778 0.0381 0.0381 1.1747c0.0846,0 0.1957,-0.0095 0.3333,-0.0285 0.1376,-0.0191 0.2657,-0.0371 0.3842,-0.054 0.1058,0 0.1916,0.0201 0.2572,0.0603 0.0656,0.0402 0.0984,0.1111 0.0984,0.2127zm4.6609 0c0,0.1609 -0.1482,0.29 -0.4445,0.3874 -0.254,0.0847 -0.5355,0.127 -0.8445,0.127 -0.1567,0 -0.2689,-0.0783 -0.3366,-0.235 -0.0508,-0.1185 -0.0762,-0.2783 -0.0762,-0.4773 -0.0042,-0.182 -0.0085,-0.3344 -0.0127,-0.4582 -0.0296,-0.8774 -0.0444,-1.5177 -0.0444,-1.9198 0,-0.4964 0.0127,-0.8964 0.0381,-1.2023l1.1239 -0.1397c0.0423,0 0.072,0 0.0889,0 0.1101,0 0.1969,0.0201 0.2604,0.0603 0.0635,0.0402 0.0952,0.1027 0.0952,0.1873 0,0.072 -0.0423,0.1376 -0.127,0.1969 -0.0847,0.0593 -0.1799,0.0995 -0.2857,0.1206l-0.5842 0.108 0 1.2509 0.5207 -0.0254c0.1651,0 0.2815,0.0297 0.3492,0.0889 0.0677,0.0593 0.1016,0.1397 0.1016,0.2413 0,0.0847 -0.0349,0.1535 -0.1048,0.2064 -0.0698,0.0529 -0.1534,0.0794 -0.2508,0.0794l-0.5778 0.0381 0.0381 1.1747c0.0846,0 0.1957,-0.0095 0.3333,-0.0285 0.1376,-0.0191 0.2657,-0.0371 0.3842,-0.054 0.1058,0 0.1916,0.0201 0.2572,0.0603 0.0656,0.0402 0.0984,0.1111 0.0984,0.2127zm2.7559 -0.6667c0,0.3514 -0.1418,0.6361 -0.4254,0.8541 -0.2837,0.218 -0.6329,0.327 -1.0478,0.327 -0.2286,0 -0.4635,-0.0614 -0.7048,-0.1842 -0.2413,-0.1227 -0.362,-0.2561 -0.362,-0.4 0,-0.0593 0.0286,-0.1154 0.0857,-0.1683 0.0572,-0.0529 0.1217,-0.0794 0.1937,-0.0794 0.0254,0 0.1503,0.0519 0.3747,0.1556 0.2243,0.1037 0.3725,0.1556 0.4445,0.1556 0.2286,0 0.4222,-0.055 0.581,-0.1651 0.1587,-0.1101 0.2381,-0.2625 0.2381,-0.4572 0,-0.2032 -0.1799,-0.3916 -0.5397,-0.5652 -0.3387,-0.1566 -0.6774,-0.3132 -1.016,-0.4699 -0.3641,-0.2116 -0.5461,-0.4572 -0.5461,-0.7366 0,-0.2963 0.1608,-0.5831 0.4826,-0.8604 0.3217,-0.2773 0.6752,-0.4159 1.0604,-0.4159 0.2709,0 0.4445,0.0042 0.5207,0.0127 0.2413,0.0254 0.362,0.1291 0.362,0.3111 0,0.1313 -0.2943,0.2202 -0.8827,0.2667 -0.5884,0.0466 -0.8826,0.2646 -0.8826,0.6541 0,0.2074 0.1778,0.3725 0.5334,0.4953 0.6011,0.2032 0.9313,0.3217 0.9906,0.3556 0.3598,0.2032 0.5397,0.508 0.5397,0.9144z"/>
  <g id="_405283752">
   <path id="_405281280" class="fil8 str2" d="M93.2327 125.84c0.7706,-0.4449 2.1171,0.4441 3.0069,1.9853 0.8898,1.5412 0.9865,3.1518 0.2159,3.5967 -0.7706,0.4449 -2.1171,-0.4441 -3.0069,-1.9853 -0.8898,-1.5412 -0.9865,-3.1518 -0.2159,-3.5967zm54.989 0c-0.7706,-0.4449 -2.1171,0.4441 -3.0069,1.9853 -0.8898,1.5412 -0.9865,3.1518 -0.2159,3.5967 0.7706,0.4449 2.1171,-0.4441 3.0069,-1.9853 0.8898,-1.5412 0.9865,-3.1518 0.2159,-3.5967z"/>
   <path id="_405281736" class="fil8 str2" d="M120.727 96.8137c27.5756,0 25.331,17.4867 25.331,31.4742 0,13.9875 -11.3435,19.1879 -25.331,19.1879 -13.9875,0 -25.3311,-5.2004 -25.3311,-19.1879 0,-13.9875 -2.2446,-31.4742 25.3311,-31.4742z"/>
   <path id="_405281112" class="fil4 str2" d="M118.648 130.797c0,0 2.0466,1.2541 4.1584,0"/>
   <path id="_405282384" class="fil14 str5" d="M113.377 109.098c-0.5102,0.5597 -0.6686,2.7948 -5.7382,2.9452 -5.0695,0.1503 -5.9434,1.0812 -8.0474,6.4185 -2.104,5.3372 -3.4785,15.9207 -3.4785,15.9207 0,0 -1.4946,-6.8381 -3.1204,-11.3326 -1.6258,-4.4945 -1.7214,-16.4798 8.416,-22.5661 8.947,-5.3718 17.4457,-5.3461 19.3184,-5.2658 1.8727,-0.0803 10.3714,-0.106 19.3184,5.2658 10.1374,6.0863 10.0418,18.0716 8.416,22.5661 -1.6258,4.4945 -3.1204,11.3326 -3.1204,11.3326 0,0 -1.3745,-10.5835 -3.4785,-15.9207 -2.104,-5.3373 -17.6778,-6.2682 -22.7473,-6.4185 -5.0695,-0.1504 -5.2279,-2.3855 -5.7381,-2.9452z"/>
   <path id="_405282240" class="fil16" d="M137.719 102.61c0,0 4.0228,3.1794 3.999,7.2473 0,0 -1.7372,-3.6451 -3.999,-7.2473z"/>
   <path id="_405281256" class="fil16" d="M130.545 100.293c0,0 4.0229,3.1794 3.999,7.2474 0,0 -1.7371,-3.6452 -3.999,-7.2474z"/>
   <path id="_405283488" class="fil16" d="M123.142 98.2531c0,0 4.0228,3.1794 3.999,7.2474 0,0 -1.7372,-3.6452 -3.999,-7.2474z"/>
   <path id="_405282864" class="fil16" d="M105.581 100.293c0,0 -4.0229,3.1794 -3.999,7.2474 0,0 1.7371,-3.6452 3.999,-7.2474z"/>
   <path id="_405283176" class="fil22" d="M103.923 132.409c1.687,0 3.0552,1.368 3.0552,3.0552 0,1.6872 -1.3682,3.0552 -3.0552,3.0552 -1.6872,0 -3.0554,-1.368 -3.0554,-3.0552 0,-1.6872 1.3682,-3.0552 3.0554,-3.0552zm33.6084 0c1.6871,0 3.0553,1.3682 3.0553,3.0552 0,1.6873 -1.3682,3.0553 -3.0553,3.0553 -1.6871,0 -3.0553,-1.368 -3.0553,-3.0553 0,-1.687 1.3682,-3.0552 3.0553,-3.0552z"/>
   <path id="_405286272" class="fil20" d="M106.755 122.384c1.6523,0.4427 2.7683,1.6395 2.4915,2.6723 -0.2767,1.0329 -1.8416,1.5113 -3.4939,1.0686 -1.6523,-0.4427 -2.7683,-1.6395 -2.4915,-2.6723 0.2768,-1.0329 1.8416,-1.5113 3.4939,-1.0686z"/>
   <g style="clip-path:url(#id8)">
    <g>
     <circle id="_591612816" class="fil14" cx="106.254" cy="124.255" r="1.99056"/>
    </g>
   </g>
   <path class="fil4 str5" d="M106.755 122.384c1.6523,0.4427 2.7683,1.6395 2.4915,2.6723 -0.2767,1.0329 -1.8416,1.5113 -3.4939,1.0686 -1.6523,-0.4427 -2.7683,-1.6395 -2.4915,-2.6723 0.2768,-1.0329 1.8416,-1.5113 3.4939,-1.0686z"/>
   <path id="_405283656" class="fil14" d="M102.247 120.979c0,0 4.3353,-0.7039 8.6706,0.3986 0,0 -3.4882,-4.6841 -8.6706,-0.3986z"/>
   <path id="_405284208" class="fil20" d="M134.815 122.384c-1.6523,0.4427 -2.7682,1.6395 -2.4915,2.6723 0.2768,1.0329 1.8416,1.5113 3.4939,1.0686 1.6523,-0.4427 2.7683,-1.6395 2.4915,-2.6723 -0.2767,-1.0329 -1.8415,-1.5113 -3.4939,-1.0686z"/>
   <g style="clip-path:url(#id9)">
    <g>
     <circle id="_591618672" class="fil14" cx="135.316" cy="124.255" r="1.99056"/>
    </g>
   </g>
   <path class="fil4 str5" d="M134.815 122.384c-1.6523,0.4427 -2.7682,1.6395 -2.4915,2.6723 0.2768,1.0329 1.8416,1.5113 3.4939,1.0686 1.6523,-0.4427 2.7683,-1.6395 2.4915,-2.6723 -0.2767,-1.0329 -1.8415,-1.5113 -3.4939,-1.0686z"/>
   <path id="_405284304" class="fil14" d="M139.322 120.979c0,0 -4.3353,-0.7039 -8.6707,0.3986 0,0 3.4882,-4.6841 8.6707,-0.3986z"/>
   <path id="_405285120" class="fil16" d="M120.727 105.678l25.4977 0c0,0 1.7945,-8.7889 -1.3311,-21.8647 -3.1257,-13.0758 -24.1666,-9.1682 -24.1666,-9.1682 0,0 -21.0409,-3.9076 -24.1666,9.1682 -3.1256,13.0758 -1.3311,21.8647 -1.3311,21.8647l25.4977 0z"/>
   <g style="clip-path:url(#id10)">
    <g>
     <ellipse id="_591621192" class="fil11" cx="120.727" cy="101.551" rx="61.401" ry="5.82614"/>
    </g>
   </g>
   <path class="fil4 str10" d="M120.727 105.678l25.4977 0c0,0 1.7945,-8.7889 -1.3311,-21.8647 -3.1257,-13.0758 -24.1666,-9.1682 -24.1666,-9.1682 0,0 -21.0409,-3.9076 -24.1666,9.1682 -3.1256,13.0758 -1.3311,21.8647 -1.3311,21.8647l25.4977 0z"/>
   <ellipse id="_405284880" class="fil16 str10" cx="120.727" cy="106.589" rx="34.4432" ry="3.2682"/>
   <path id="_405284856" class="fil10 str3" d="M123.494 139.078c0,1.5276 -1.2389,2.7665 -2.7665,2.7665 -1.5276,0 -2.7665,-1.2389 -2.7665,-2.7665l5.533 0z"/>
  </g>
  <path class="fil23" d="M248.107 185.016c-12.5399,-1.5112 -31.0455,-20.1305 -25.3819,-30.703 2.1158,-3.9495 20.1139,-5.0137 25.3819,-4.9924 5.268,-0.0213 23.2661,1.0429 25.3819,4.9924 5.6636,10.5725 -12.8419,29.1918 -25.3819,30.703z"/>
  <g style="clip-path:url(#id11)">
   <g id="_596075768">
    <path id="_5960760561" class="fil7" d="M248.107 180.022c-11.5829,-1.3959 -28.2539,-17.3877 -26.268,-28.1525 1.6679,10.3819 15.9756,23.1466 26.268,24.3869 10.2924,-1.2403 24.6001,-14.005 26.268,-24.3869 1.9859,10.7648 -14.6851,26.7566 -26.268,28.1525z"/>
    <path id="_596075984" class="fil24" d="M248.107 165.267c-9.9795,-1.3959 -24.3427,-17.3877 -22.6317,-28.1525 1.437,10.3819 13.7641,23.1466 22.6317,24.3869 8.8676,-1.2403 21.1947,-14.005 22.6317,-24.3869 1.711,10.7648 -12.6522,26.7566 -22.6317,28.1525z"/>
    <path id="_596075912" class="fil6" d="M248.656 171.554c-10.9385,-1.4753 -26.5378,-17.9182 -25.6921,-29.6067 0.7771,11.4968 15.3268,26.3346 25.6921,27.7326 10.3653,-1.398 24.915,-16.2358 25.6921,-27.7326 0.8457,11.6885 -14.7536,28.1314 -25.6921,29.6067z"/>
    <path id="_596075840" class="fil7" d="M276.393 152.013c-3.6889,-2.3085 -15.0037,-5.9875 -15.306,3.958 -0.3023,9.9455 7.3188,16.7526 11.2396,16.0229 5.6611,-1.0535 9.851,-16.3609 4.0664,-19.9809z"/>
   </g>
  </g>
  <path class="fil4 str11" d="M248.107 185.016c-12.5399,-1.5112 -31.0455,-20.1305 -25.3819,-30.703 2.1158,-3.9495 20.1139,-5.0137 25.3819,-4.9924 5.268,-0.0213 23.2661,1.0429 25.3819,4.9924 5.6636,10.5725 -12.8419,29.1918 -25.3819,30.703z"/>
  <path class="fil8 str2" d="M241.749 146.185l12.7151 0 0 5.5158c0,1.6001 -2.8469,2.898 -6.3575,2.898 -3.5105,0 -6.3576,-1.2979 -6.3576,-2.898l0 -5.5158z"/>
  <g id="_404908112">
   <g>
    <path id="_405286176" class="fil12" d="M272.106 115.475c-1.61,0.6556 -1.5438,4.0138 1.1649,3.5986 2.7086,-0.4153 1.4116,-4.6478 -1.1649,-3.5986z"/>
    <path id="_405286056" class="fil3" d="M272.256 116.37c-0.9353,0.2833 -0.7449,2.1079 0.8594,2.0042 0.3851,-0.0249 0.6217,-0.1796 0.7387,-0.3939 -0.0509,0.0092 -0.1048,0.0162 -0.1622,0.0199 -1.2757,0.0824 -1.6572,-1.0543 -1.2899,-1.6659 -0.0481,0.009 -0.0967,0.0207 -0.146,0.0357z"/>
    <path id="_405287016" class="fil8 str12" d="M221.264 128.872c0.7523,-0.4343 2.0669,0.4336 2.9356,1.9383 0.8687,1.5047 0.9631,3.0771 0.2108,3.5115 -0.7523,0.4343 -2.0669,-0.4336 -2.9356,-1.9383 -0.8688,-1.5047 -0.9631,-3.0771 -0.2108,-3.5115zm53.6856 0c-0.7523,-0.4343 -2.0669,0.4336 -2.9356,1.9383 -0.8687,1.5047 -0.9631,3.0771 -0.2108,3.5115 0.7524,0.4343 2.0669,-0.4336 2.9357,-1.9383 0.8687,-1.5047 0.9631,-3.0771 0.2107,-3.5115z"/>
    <path id="_405286608" class="fil8 str2" d="M248.107 100.533c26.922,0 24.7306,17.0723 24.7306,30.7282 0,13.656 -11.0747,18.7332 -24.7306,18.7332 -13.656,0 -24.7307,-5.0772 -24.7307,-18.7332 0,-13.6559 -2.1914,-30.7282 24.7307,-30.7282z"/>
    <path id="_405286560" class="fil4 str2" d="M246.077 134.762c0,0 1.9981,1.1768 4.0599,0"/>
    <path id="_404909648" class="fil14 str13" d="M246.28 113.54c-0.5978,-0.3337 -3.0619,2.5442 -5.3395,2.4208 -3.5165,-0.1904 0.594,-4.7758 -1.598,-4.5787 -13.0095,1.1695 -15.0375,14.6251 -15.2668,23.798 0,0 -1.4592,-4.6446 -3.0464,-9.0326 -1.5873,-4.388 -1.6807,-16.0893 8.2165,-22.0313 8.7349,-5.2444 17.0322,-5.2193 18.8605,-5.141 1.8283,-0.0783 10.1256,-0.1034 18.8605,5.141 9.8972,5.942 9.8038,17.6433 8.2165,22.0313 -1.5873,4.388 -3.0464,9.0326 -3.0464,9.0326 -0.0564,-8.0406 -1.2704,-19.2135 -10.3955,-22.3695 -2.9099,-1.0066 -2.5776,3.7752 -7.6827,3.8103 -0.9999,0.0068 1.756,-3.9445 0.7367,-3.8716 -4.2304,0.3027 -3.9314,5.0216 -8.0463,4.9023 -2.9861,-0.0866 1.3537,-3.094 -0.4691,-4.1116z"/>
    <path id="_404906384" class="fil22" d="M231.701 135.285c1.6471,0 2.9829,1.3357 2.9829,2.9829 0,1.6471 -1.3358,2.9828 -2.9829,2.9828 -1.6471,0 -2.9829,-1.3357 -2.9829,-2.9828 0,-1.6472 1.3358,-2.9829 2.9829,-2.9829zm32.812 0c1.647,0 2.9828,1.3359 2.9828,2.9829 0,1.6472 -1.3358,2.9829 -2.9828,2.9829 -1.6472,0 -2.983,-1.3357 -2.983,-2.9829 0,-1.647 1.3358,-2.9829 2.983,-2.9829z"/>
    <path id="_404914256" class="fil14" d="M266.78 124.546c0,0 -4.4428,-0.6873 -8.6754,0.3892 0,0 -0.6761,-1.7066 0.8925,-2.4354 0.9397,-0.4363 4.79,-0.5263 5.9579,-0.512 1.2019,0.0147 1.825,2.5582 1.825,2.5582z"/>
    <path id="_404907824" class="fil14" d="M229.566 124.546c0,0 4.4427,-0.6873 8.6753,0.3892 0,0 0.6762,-1.7066 -0.8924,-2.4354 -0.9397,-0.4363 -4.79,-0.5263 -5.958,-0.512 -1.2018,0.0147 -1.8249,2.5582 -1.8249,2.5582z"/>
    <path id="_404906864" class="fil20" d="M262.37 125.562c-1.7106,0 -3.0982,0.8671 -3.0982,1.9365 0,1.0693 1.3876,1.9364 3.0982,1.9364 1.7106,0 3.0983,-0.8671 3.0983,-1.9364 0,-1.0694 -1.3877,-1.9365 -3.0983,-1.9365z"/>
    <g style="clip-path:url(#id12)">
     <g>
      <circle id="_591620832" class="fil14" transform="matrix(-2.81926 -0.755418 -0.755418 2.81926 262.37 127.499)" r="0.682"/>
     </g>
    </g>
    <path class="fil4 str5" d="M262.37 125.562c-1.7106,0 -3.0982,0.8671 -3.0982,1.9365 0,1.0693 1.3876,1.9364 3.0982,1.9364 1.7106,0 3.0983,-0.8671 3.0983,-1.9364 0,-1.0694 -1.3877,-1.9365 -3.0983,-1.9365z"/>
    <path id="_404906936" class="fil20" d="M233.976 125.562c1.7106,0 3.0982,0.8671 3.0982,1.9365 0,1.0693 -1.3876,1.9364 -3.0982,1.9364 -1.7106,0 -3.0983,-0.8671 -3.0983,-1.9364 0,-1.0694 1.3877,-1.9365 3.0983,-1.9365z"/>
    <g style="clip-path:url(#id13)">
     <g>
      <circle id="_591626136" class="fil14" transform="matrix(2.81926 -0.755418 0.755418 2.81926 233.976 127.499)" r="0.682"/>
     </g>
    </g>
    <path class="fil4 str5" d="M233.976 125.562c1.7106,0 3.0982,0.8671 3.0982,1.9365 0,1.0693 -1.3876,1.9364 -3.0982,1.9364 -1.7106,0 -3.0983,-0.8671 -3.0983,-1.9364 0,-1.0694 1.3877,-1.9365 3.0983,-1.9365z"/>
    <path id="_404907728" class="fil16" d="M248.107 105.737l25.4977 0c0.3699,0 5.9179,-36.8672 -25.4977,-31.0329 -31.4156,-5.8343 -25.8676,31.0329 -25.4977,31.0329l25.4977 0z"/>
    <g style="clip-path:url(#id14)">
     <g>
      <ellipse id="_591623904" class="fil1" cx="248.107" cy="101.61" rx="61.401" ry="5.82614"/>
     </g>
    </g>
    <path class="fil4 str10" d="M248.107 105.737l25.4977 0c0.3699,0 5.9179,-36.8672 -25.4977,-31.0329 -31.4156,-5.8343 -25.8676,31.0329 -25.4977,31.0329l25.4977 0z"/>
    <path id="_404907632" class="fil10 str3" d="M250.873 141.587c0,1.5276 -1.2389,2.7665 -2.7665,2.7665 -1.5276,0 -2.7665,-1.2389 -2.7665,-2.7665l5.533 0z"/>
   </g>
   <path id="_404908208" class="fil16 str10" d="M248.107 103.68c22.2919,0 40.3701,1.1636 40.3701,2.9682 0,1.8046 -18.0782,5.7683 -40.3701,5.7683 -22.2919,0 -40.37,-3.9637 -40.37,-5.7683 0,-1.8046 18.0781,-2.9682 40.37,-2.9682z"/>
  </g>
  <g id="_404906600">
   <path id="_404908448" class="fil8 str2" d="M257.825 168.183c-1.5777,-1.2167 -2.8464,-4.1478 -3.413,-4.1445 -0.5667,0.0033 -0.8351,0.2485 -0.8305,2.7527 -1.8963,0.1434 -3.502,-3.4538 -4.7154,-2.4042 -0.7833,0.6777 1.1802,2.7466 1.819,3.3433 -1.4481,0.9514 -3.3322,-2.5438 -4.2952,-1.1153 -0.5973,0.8872 2.1948,2.6127 3.0371,3.0038 -0.687,1.4753 -2.8548,-1.2922 -3.4706,0.1215 -0.41,0.9418 2.3081,1.9902 3.1078,2.2722 0.1395,1.1619 -1.9344,-0.176 -2.1276,0.7451 -0.1578,0.7519 0.3888,1.0365 2.5287,1.3808 1.1908,0.1914 2.7458,0.9233 4.364,1.2603l-0.1235 -0.0811 4.1192 -7.1346z"/>
   <path id="_404908832" class="fil6" d="M262.356 153.497c2.165,-1.2499 7.042,1.9943 10.3447,12.5257 1.5585,4.9702 1.0822,12.1984 -3.5607,13.3557 -6.6189,1.6498 -15.3107,-3.979 -15.3107,-3.979l3.9956 -7.2157c5.5792,3.3134 7.4065,2.0341 6.0108,-1.1399 -1.5926,-3.6222 -3.6446,-12.2969 -1.4797,-13.5468z"/>
   <g style="clip-path:url(#id15)">
    <g>
     <rect id="_591604104" class="fil9" transform="matrix(0.51321 -0.888905 0.888905 0.51321 252.924 176.818)" width="11.3104" height="3.158"/>
    </g>
   </g>
   <path class="fil4 str1" d="M262.356 153.497c2.165,-1.2499 7.042,1.9943 10.3447,12.5257 1.5585,4.9702 1.0822,12.1984 -3.5607,13.3557 -6.6189,1.6498 -15.3107,-3.979 -15.3107,-3.979l3.9956 -7.2157c5.5792,3.3134 7.4065,2.0341 6.0108,-1.1399 -1.5926,-3.6222 -3.6446,-12.2969 -1.4797,-13.5468z"/>
   <g>
    <path id="_404909072" class="fil7" d="M265.4 156.899c0,0 -0.4921,0.7887 -0.0952,2.1418 0.3969,1.3531 0.8948,3.441 0.8948,3.441 0,0 -2.9853,-3.766 -0.7996,-5.5828z"/>
    <path id="_404907800" class="fil7" d="M266.823 163.621c0,0 0.4921,-0.7887 0.0952,-2.1418 -0.397,-1.353 -0.8949,-3.441 -0.8949,-3.441 0,0 2.9853,3.766 0.7997,5.5828z"/>
    <path id="_404909000" class="fil7" d="M266.482 165.368c0,0 -0.4921,0.7887 -0.0952,2.1418 0.397,1.3531 0.8949,3.4411 0.8949,3.4411 0,0 -2.9853,-3.7661 -0.7997,-5.5829zm1.4226 6.722c0,0 0.492,-0.7887 0.0951,-2.1418 -0.3969,-1.3531 -0.8948,-3.4411 -0.8948,-3.4411 0,0 2.9853,3.7661 0.7997,5.5829z"/>
    <path id="_404908376" class="fil7" d="M271.423 170.801c0,0 0.492,-0.7887 0.0951,-2.1417 -0.3969,-1.3531 -0.8948,-3.4411 -0.8948,-3.4411 0,0 2.9853,3.766 0.7997,5.5828zm-1.4226 -6.7219c0,0 -0.4921,0.7887 -0.0951,2.1417 0.3969,1.3531 0.8948,3.4411 0.8948,3.4411 0,0 -2.9853,-3.766 -0.7997,-5.5828z"/>
    <path id="_404910104" class="fil7" d="M270.668 176.564c0,0 -0.2098,-0.9057 -1.4472,-1.5818 -1.2375,-0.676 -3.066,-1.8004 -3.066,-1.8004 0,0 4.774,0.5521 4.5132,3.3822zm-5.7591 -3.7472c0,0 0.2098,0.9056 1.4472,1.5817 1.2375,0.6761 3.0659,1.8005 3.0659,1.8005 0,0 -4.7739,-0.5521 -4.5131,-3.3822z"/>
    <path id="_404912600" class="fil7" d="M259.406 174.285c0,0 0.2098,0.9056 1.4472,1.5817 1.2375,0.6761 3.066,1.8005 3.066,1.8005 0,0 -4.774,-0.552 -4.5132,-3.3822zm5.7591 3.7472c0,0 -0.2098,-0.9056 -1.4472,-1.5817 -1.2374,-0.6761 -3.0659,-1.8005 -3.0659,-1.8005 0,0 4.7739,0.5521 4.5131,3.3822z"/>
   </g>
  </g>
 </g>
</svg>
