<?xml version="1.0" encoding="UTF-8"?>
<!DOCTYPE svg PUBLIC "-//W3C//DTD SVG 1.1//EN" "http://www.w3.org/Graphics/SVG/1.1/DTD/svg11.dtd">
<!-- Creator: CorelDRAW -->
<svg xmlns="http://www.w3.org/2000/svg" xml:space="preserve" width="420mm" height="297mm" style="shape-rendering:geometricPrecision; text-rendering:geometricPrecision; image-rendering:optimizeQuality; fill-rule:evenodd; clip-rule:evenodd"
viewBox="0 0 420 297"
 xmlns:xlink="http://www.w3.org/1999/xlink">
 <defs>
  <style type="text/css">
   <![CDATA[
    .str10 {stroke:#1F1A17;stroke-width:0.75}
    .str5 {stroke:#1F1A17;stroke-width:0.75;stroke-linecap:round;stroke-linejoin:round}
    .str8 {stroke:#383431;stroke-width:0.75}
    .str2 {stroke:#383431;stroke-width:0.75;stroke-linecap:round;stroke-linejoin:round}
    .str4 {stroke:#5F4E5D;stroke-width:0.75;stroke-linecap:round;stroke-linejoin:round}
    .str0 {stroke:#8F5444;stroke-width:0.75;stroke-linecap:round;stroke-linejoin:round}
    .str9 {stroke:#969594;stroke-width:0.75;stroke-linecap:round;stroke-linejoin:round}
    .str3 {stroke:#1E3D55;stroke-width:0.75}
    .str1 {stroke:#1E3D55;stroke-width:0.75;stroke-linecap:round;stroke-linejoin:round}
    .str7 {stroke:#75445A;stroke-width:0.75;stroke-linecap:round;stroke-linejoin:round}
    .str11 {stroke:#8A2C2F;stroke-width:0.75;stroke-linecap:round;stroke-linejoin:round}
    .str6 {stroke:#605D5C;stroke-linecap:round;stroke-linejoin:round}
    .str12 {stroke:#8F5444;stroke-linecap:round;stroke-linejoin:round}
    .str13 {stroke:#1F1A17;stroke-width:1.5;stroke-linecap:round;stroke-linejoin:round}
    .fil3 {fill:none}
    .fil15 {fill:#1F1A17}
    .fil5 {fill:#383431}
    .fil17 {fill:#4D4948}
    .fil14 {fill:#5F4E5D}
    .fil7 {fill:#605D5C}
    .fil6 {fill:#838281}
    .fil18 {fill:#90546F}
    .fil20 {fill:#958089}
    .fil8 {fill:#969594}
    .fil12 {fill:#9A7A99}
    .fil2 {fill:#AAA9A9}
    .fil23 {fill:#B76767}
    .fil16 {fill:#C0A0AE}
    .fil13 {fill:#C2C1C1}
    .fil24 {fill:#DB214C}
    .fil21 {fill:white}
    .fil0 {fill:#C3957D}
    .fil1 {fill:#0779A1}
    .fil11 {fill:#0F6386}
    .fil10 {fill:#195574}
    .fil4 {fill:#1E3D55}
    .fil9 {fill:#453C35}
    .fil19 {fill:#75445A}
    .fil22 {fill:#1F1A17;fill-rule:nonzero}
   ]]>
  </style>
     <clipPath id="id0">
      <path d="M233.743 153.477c-2.165,-1.2498 -7.042,1.9943 -10.3446,12.5258 -1.5586,4.9702 -1.0823,12.1983 3.5607,13.3556 6.6188,1.6499 15.3106,-3.979 15.3106,-3.979l-3.9956 -7.2157c-5.5791,3.3134 -7.4065,2.0341 -6.0107,-1.1399 1.5926,-3.6222 3.6446,-12.2969 1.4796,-13.5468z"/>
     </clipPath>
     <clipPath id="id1">
      <path d="M262.471 153.477c2.165,-1.2498 7.042,1.9943 10.3446,12.5258 1.5586,4.9702 1.0823,12.1983 -3.5607,13.3556 -6.6188,1.6499 -15.3106,-3.979 -15.3106,-3.979l3.9956 -7.2157c5.5791,3.3134 7.4065,2.0341 6.0107,-1.1399 -1.5926,-3.6222 -3.6446,-12.2969 -1.4796,-13.5468z"/>
     </clipPath>
    <clipPath id="id2">
     <path d="M245.17 212.986c0.2657,-3.4711 -2.3037,-5.0804 -5.6044,-5.3331 -3.3006,-0.2527 -6.0849,0.9468 -6.3506,4.418 -0.1139,1.4873 0.0848,3.8188 6.1394,3.9695 6.0545,0.1506 5.7021,-1.5722 5.8156,-3.0544z"/>
    </clipPath>
    <clipPath id="id3">
     <path d="M251.043 212.986c-0.2657,-3.4711 2.3037,-5.0804 5.6044,-5.3331 3.3006,-0.2527 6.0849,0.9468 6.3506,4.418 0.1139,1.4873 -0.0848,3.8188 -6.1394,3.9695 -6.0545,0.1506 -5.7021,-1.5722 -5.8156,-3.0544z"/>
    </clipPath>
    <clipPath id="id4">
     <path d="M248.102 187.844c-0.0596,1.2457 -3.7696,18.4368 -3.7696,18.4368 0,0 -2.4096,1.8423 -11.4121,-0.57 -3.1711,-9.5366 -0.9073,-32.747 -0.7276,-33.3156l15.1762 -0.0347 0.6977 -0.0016 0.6977 -0.0016 15.1762 -0.0347c0.1823,0.5677 2.5523,23.7675 -0.5751,33.3185 -8.9914,2.4535 -11.4093,0.6223 -11.4093,0.6223 0,0 -3.7887,-17.174 -3.8541,-18.4194z"/>
    </clipPath>
   <clipPath id="id5">
    <path d="M248.107 185.016c-12.5399,-1.5112 -31.0455,-20.1305 -25.3819,-30.703 2.1158,-3.9495 20.1139,-5.0137 25.3819,-4.9924 5.268,-0.0213 23.2661,1.0429 25.3819,4.9924 5.6636,10.5725 -12.8419,29.1918 -25.3819,30.703z"/>
   </clipPath>
     <clipPath id="id6">
      <path d="M107.021 149.894c-2.165,-1.2499 -7.042,1.9943 -10.3447,12.5257 -1.5585,4.9702 -1.0822,12.1983 3.5607,13.3557 6.6189,1.6498 15.3107,-3.9791 15.3107,-3.9791l-3.9956 -7.2156c-5.5792,3.3133 -7.4065,2.0341 -6.0108,-1.14 1.5926,-3.6222 3.6446,-12.2969 1.4797,-13.5467z"/>
     </clipPath>
     <clipPath id="id7">
      <path d="M134.433 149.894c2.165,-1.2499 7.042,1.9943 10.3447,12.5257 1.5585,4.9702 1.0822,12.1983 -3.5607,13.3557 -6.6189,1.6498 -15.3107,-3.9791 -15.3107,-3.9791l3.9956 -7.2156c5.5792,3.3133 7.4065,2.0341 6.0108,-1.14 -1.5926,-3.6222 -3.6446,-12.2969 -1.4797,-13.5467z"/>
     </clipPath>
     <clipPath id="id8">
      <path d="M120.667 158.668c-0.4575,-9.4422 -8.6395,-14.2637 -13.0684,-13.3435 -4.4289,0.9202 -9.7178,7.5146 -13.2918,19.3936 -3.574,11.879 26.8177,3.3921 26.3602,-6.0501z"/>
     </clipPath>
     <clipPath id="id9">
      <path d="M120.787 158.668c0.4575,-9.4422 8.6395,-14.2637 13.0684,-13.3435 4.4289,0.9202 9.7178,7.5146 13.2918,19.3936 3.574,11.879 -26.8177,3.3921 -26.3602,-6.0501z"/>
     </clipPath>
     <clipPath id="id10">
      <path d="M105.419 123.819c1.6948,0.2322 2.9519,1.2796 2.8068,2.339 -0.1451,1.0594 -1.6376,1.7302 -3.3324,1.498 -1.6948,-0.2321 -2.9519,-1.2795 -2.8068,-2.339 0.1451,-1.0594 1.6376,-1.7301 3.3324,-1.498z"/>
     </clipPath>
     <clipPath id="id11">
      <path d="M133.257 120.302c-1.5838,0.6464 -2.541,1.9735 -2.137,2.9636 0.4041,0.99 2.0165,1.2685 3.6003,0.6222 1.5838,-0.6463 2.541,-1.9735 2.137,-2.9635 -0.4041,-0.9901 -2.0165,-1.2686 -3.6003,-0.6223z"/>
     </clipPath>
     <clipPath id="id12">
      <path d="M117.187 105.493l25.2967 -3.1957c0,0 0.6788,-8.9445 -4.061,-21.5255 -4.7399,-12.5809 -25.1251,-6.067 -25.1251,-6.067 0,0 -21.3648,-1.2397 -22.8269,12.1248 -1.4622,13.3644 1.4197,21.8591 1.4197,21.8591l25.2966 -3.1957z"/>
     </clipPath>
     <clipPath id="id13">
      <path d="M264.963 127.244c-1.6971,-0.2144 -3.1826,0.4719 -3.3166,1.5328 -0.134,1.0609 1.1341,2.0951 2.8312,2.3095 1.6971,0.2144 3.1825,-0.472 3.3165,-1.5329 0.1341,-1.0608 -1.134,-2.095 -2.8311,-2.3094z"/>
     </clipPath>
     <clipPath id="id14">
      <path d="M236.793 123.685c1.6971,0.2144 2.9652,1.2486 2.8311,2.3095 -0.134,1.0609 -1.6194,1.7472 -3.3165,1.5328 -1.6971,-0.2144 -2.9652,-1.2486 -2.8312,-2.3094 0.134,-1.0609 1.6195,-1.7473 3.3166,-1.5329z"/>
     </clipPath>
      <clipPath id="id15">
       <path d="M253.297 105.786l25.2967 3.1957c0.3669,0.0464 10.4919,-35.8347 -21.4072,-33.9839 -30.4367,-9.7257 -29.5531,27.5462 -29.1861,27.5925l25.2966 3.1957z"/>
      </clipPath>
 </defs>
 <g id="Capa_x0020_1">
  <metadata id="CorelCorpID_0Corel-Layer"/>
  <g id="_404828216">
   <g>
    <path id="_596441848" class="fil0 str0" d="M238.274 168.164c1.5776,-1.2168 2.8463,-4.1479 3.413,-4.1446 0.5667,0.0033 0.835,0.2486 0.8304,2.7528 1.8963,0.1433 3.502,-3.4539 4.7154,-2.4042 0.7834,0.6776 -1.1802,2.7465 -1.8189,3.3432 1.448,0.9515 3.3322,-2.5438 4.2952,-1.1152 0.5972,0.8871 -2.1949,2.6126 -3.0372,3.0037 0.687,1.4753 2.8548,-1.2921 3.4707,0.1216 0.4099,0.9417 -2.3081,1.9901 -3.1079,2.2721 -0.1395,1.162 1.9344,-0.176 2.1277,0.7451 0.1577,0.752 -0.3889,1.0365 -2.5287,1.3808 -1.1909,0.1914 -2.7459,0.9233 -4.3641,1.2603l0.1235 -0.081 -4.1191 -7.1346z"/>
    <path id="_404823728" class="fil1" d="M233.743 153.477c-2.165,-1.2498 -7.042,1.9943 -10.3446,12.5258 -1.5586,4.9702 -1.0823,12.1983 3.5607,13.3556 6.6188,1.6499 15.3106,-3.979 15.3106,-3.979l-3.9956 -7.2157c-5.5791,3.3134 -7.4065,2.0341 -6.0107,-1.1399 1.5926,-3.6222 3.6446,-12.2969 1.4796,-13.5468z"/>
    <g style="clip-path:url(#id0)">
     <g>
      <rect id="_591604392" class="fil2" transform="matrix(-0.51321 -0.888905 -0.888905 0.51321 243.174 176.799)" width="11.3104" height="3.158"/>
     </g>
    </g>
    <path class="fil3 str1" d="M233.743 153.477c-2.165,-1.2498 -7.042,1.9943 -10.3446,12.5258 -1.5586,4.9702 -1.0823,12.1983 3.5607,13.3556 6.6188,1.6499 15.3106,-3.979 15.3106,-3.979l-3.9956 -7.2157c-5.5791,3.3134 -7.4065,2.0341 -6.0107,-1.1399 1.5926,-3.6222 3.6446,-12.2969 1.4796,-13.5468z"/>
    <g>
     <path id="_404820512" class="fil4" d="M230.698 156.88c0,0 0.4921,0.7887 0.0952,2.1418 -0.397,1.3531 -0.8949,3.4411 -0.8949,3.4411 0,0 2.9853,-3.7661 0.7997,-5.5829z"/>
     <path id="_404821064" class="fil4" d="M229.276 163.601c0,0 -0.492,-0.7887 -0.0951,-2.1418 0.3969,-1.3531 0.8948,-3.4411 0.8948,-3.4411 0,0 -2.9853,3.7661 -0.7997,5.5829z"/>
     <path id="_404820704" class="fil4" d="M229.616 165.349c0,0 0.4921,0.7887 0.0952,2.1417 -0.397,1.3531 -0.8948,3.4411 -0.8948,3.4411 0,0 2.9853,-3.766 0.7996,-5.5828zm-1.4225 6.7219c0,0 -0.4921,-0.7887 -0.0952,-2.1418 0.397,-1.3531 0.8948,-3.441 0.8948,-3.441 0,0 -2.9853,3.766 -0.7996,5.5828z"/>
     <path id="_404821184" class="fil4" d="M224.676 170.782c0,0 -0.4921,-0.7886 -0.0952,-2.1417 0.397,-1.3531 0.8949,-3.4411 0.8949,-3.4411 0,0 -2.9854,3.766 -0.7997,5.5828zm1.4225 -6.7219c0,0 0.4921,0.7887 0.0952,2.1418 -0.3969,1.3531 -0.8948,3.441 -0.8948,3.441 0,0 2.9853,-3.766 0.7996,-5.5828z"/>
     <path id="_404821256" class="fil4" d="M225.43 176.544c0,0 0.2097,-0.9056 1.4471,-1.5817 1.2375,-0.6761 3.066,-1.8005 3.066,-1.8005 0,0 -4.7739,0.5521 -4.5131,3.3822zm5.759 -3.7472c0,0 -0.2097,0.9056 -1.4472,1.5817 -1.2374,0.6761 -3.0659,1.8005 -3.0659,1.8005 0,0 4.7739,-0.552 4.5131,-3.3822z"/>
     <path id="_404822120" class="fil4" d="M236.692 174.265c0,0 -0.2097,0.9056 -1.4472,1.5818 -1.2374,0.6761 -3.0659,1.8004 -3.0659,1.8004 0,0 4.7739,-0.552 4.5131,-3.3822zm-5.759 3.7472c0,0 0.2097,-0.9056 1.4472,-1.5817 1.2374,-0.6761 3.0659,-1.8005 3.0659,-1.8005 0,0 -4.7739,0.5521 -4.5131,3.3822z"/>
    </g>
   </g>
   <g>
    <path id="_404821952" class="fil0 str0" d="M257.939 168.164c-1.5776,-1.2168 -2.8463,-4.1479 -3.413,-4.1446 -0.5667,0.0033 -0.835,0.2486 -0.8304,2.7528 -1.8963,0.1433 -3.502,-3.4539 -4.7154,-2.4042 -0.7834,0.6776 1.1802,2.7465 1.8189,3.3432 -1.448,0.9515 -3.3322,-2.5438 -4.2952,-1.1152 -0.5972,0.8871 2.1949,2.6126 3.0372,3.0037 -0.687,1.4753 -2.8548,-1.2921 -3.4707,0.1216 -0.4099,0.9417 2.3081,1.9901 3.1079,2.2721 0.1395,1.162 -1.9344,-0.176 -2.1277,0.7451 -0.1577,0.752 0.3889,1.0365 2.5287,1.3808 1.1909,0.1914 2.7459,0.9233 4.3641,1.2603l-0.1235 -0.081 4.1191 -7.1346z"/>
    <path id="_404822528" class="fil1" d="M262.471 153.477c2.165,-1.2498 7.042,1.9943 10.3446,12.5258 1.5586,4.9702 1.0823,12.1983 -3.5607,13.3556 -6.6188,1.6499 -15.3106,-3.979 -15.3106,-3.979l3.9956 -7.2157c5.5791,3.3134 7.4065,2.0341 6.0107,-1.1399 -1.5926,-3.6222 -3.6446,-12.2969 -1.4796,-13.5468z"/>
    <g style="clip-path:url(#id1)">
     <g>
      <rect id="_591607272" class="fil2" transform="matrix(0.51321 -0.888905 0.888905 0.51321 253.039 176.799)" width="11.3104" height="3.158"/>
     </g>
    </g>
    <path class="fil3 str1" d="M262.471 153.477c2.165,-1.2498 7.042,1.9943 10.3446,12.5258 1.5586,4.9702 1.0823,12.1983 -3.5607,13.3556 -6.6188,1.6499 -15.3106,-3.979 -15.3106,-3.979l3.9956 -7.2157c5.5791,3.3134 7.4065,2.0341 6.0107,-1.1399 -1.5926,-3.6222 -3.6446,-12.2969 -1.4796,-13.5468z"/>
    <g>
     <path id="_404822912" class="fil4" d="M265.515 156.88c0,0 -0.4921,0.7887 -0.0952,2.1418 0.397,1.3531 0.8949,3.4411 0.8949,3.4411 0,0 -2.9853,-3.7661 -0.7997,-5.5829z"/>
     <path id="_404823248" class="fil4" d="M266.938 163.602c0,0 0.492,-0.7887 0.0951,-2.1418 -0.3969,-1.3531 -0.8948,-3.4411 -0.8948,-3.4411 0,0 2.9853,3.7661 0.7997,5.5829z"/>
     <path id="_404823416" class="fil4" d="M266.597 165.349c0,0 -0.4921,0.7887 -0.0952,2.1417 0.397,1.3531 0.8948,3.4411 0.8948,3.4411 0,0 -2.9853,-3.766 -0.7996,-5.5828zm1.4225 6.7219c0,0 0.4921,-0.7887 0.0952,-2.1418 -0.397,-1.3531 -0.8948,-3.441 -0.8948,-3.441 0,0 2.9853,3.766 0.7996,5.5828z"/>
     <path id="_404824688" class="fil4" d="M271.538 170.782c0,0 0.4921,-0.7886 0.0952,-2.1417 -0.397,-1.3531 -0.8949,-3.4411 -0.8949,-3.4411 0,0 2.9854,3.766 0.7997,5.5828zm-1.4225 -6.7219c0,0 -0.4921,0.7887 -0.0952,2.1418 0.3969,1.3531 0.8948,3.441 0.8948,3.441 0,0 -2.9853,-3.766 -0.7996,-5.5828z"/>
     <path id="_404825072" class="fil4" d="M270.783 176.544c0,0 -0.2097,-0.9056 -1.4471,-1.5817 -1.2375,-0.6761 -3.066,-1.8005 -3.066,-1.8005 0,0 4.7739,0.5521 4.5131,3.3822zm-5.759 -3.7472c0,0 0.2097,0.9056 1.4472,1.5817 1.2374,0.6761 3.0659,1.8005 3.0659,1.8005 0,0 -4.7739,-0.552 -4.5131,-3.3822z"/>
     <path id="_404823344" class="fil4" d="M259.521 174.265c0,0 0.2097,0.9056 1.4472,1.5818 1.2374,0.6761 3.0659,1.8004 3.0659,1.8004 0,0 -4.7739,-0.552 -4.5131,-3.3822zm5.759 3.7472c0,0 -0.2097,-0.9056 -1.4472,-1.5817 -1.2374,-0.6761 -3.0659,-1.8005 -3.0659,-1.8005 0,0 4.7739,0.5521 4.5131,3.3822z"/>
    </g>
   </g>
  </g>
  <g id="_404826440">
   <path id="_404824424" class="fil5 str2" d="M239.621 206.821c3.4273,0.2623 5.9439,3.9121 5.7278,6.7356 -0.2162,2.8235 -3.0833,3.7531 -6.5106,3.4907 -3.4274,-0.2624 -6.1195,-1.6175 -5.9033,-4.441 0.2161,-2.8235 3.2587,-6.0477 6.6861,-5.7853z"/>
   <path id="_404824496" class="fil6 str2" d="M233.864 182.327c0,0 -1.3368,10.7265 -1.4818,14.546 -0.1451,3.8195 1.874,10.162 1.7002,12.4323 -0.1738,2.2704 -0.9839,5.155 1.5681,5.4977 2.5521,0.3427 5.7577,0.8091 7.4926,0.2789 1.7349,-0.5302 2.0271,-2.4231 1.0407,-3.972 -0.9864,-1.5488 -0.7597,-13.1706 -0.3775,-15.2777 0.3823,-2.107 2.1361,-12.5069 2.1361,-12.5069l-12.0784 -0.9983z"/>
   <path id="_404820776" class="fil7" d="M245.17 212.986c0.2657,-3.4711 -2.3037,-5.0804 -5.6044,-5.3331 -3.3006,-0.2527 -6.0849,0.9468 -6.3506,4.418 -0.1139,1.4873 0.0848,3.8188 6.1394,3.9695 6.0545,0.1506 5.7021,-1.5722 5.8156,-3.0544z"/>
   <g style="clip-path:url(#id2)">
    <g>
     <path id="_5916144001" class="fil8" d="M239.389 209.583c-6.1019,-0.5771 -8.2716,8.8901 -0.1863,9.1387 7.9174,0.2435 5.5501,-8.6315 0.1863,-9.1387z"/>
     <path id="_591614472" class="fil8" d="M239.207 208.323c-1.9024,-0.0398 -2.5788,0.6132 -0.058,0.6303 2.4684,0.0168 1.7303,-0.5953 0.058,-0.6303z"/>
    </g>
   </g>
   <path class="fil3 str2" d="M245.17 212.986c0.2657,-3.4711 -2.3037,-5.0804 -5.6044,-5.3331 -3.3006,-0.2527 -6.0849,0.9468 -6.3506,4.418 -0.1139,1.4873 0.0848,3.8188 6.1394,3.9695 6.0545,0.1506 5.7021,-1.5722 5.8156,-3.0544z"/>
   <path id="_404824256" class="fil5 str2" d="M256.593 206.821c-3.4273,0.2623 -5.9439,3.9121 -5.7278,6.7356 0.2162,2.8235 3.0833,3.7531 6.5106,3.4907 3.4274,-0.2624 6.1195,-1.6175 5.9033,-4.441 -0.2161,-2.8235 -3.2587,-6.0477 -6.6861,-5.7853z"/>
   <path id="_404825456" class="fil6 str2" d="M262.349 182.327c0,0 1.3368,10.7265 1.4818,14.546 0.1451,3.8195 -1.874,10.162 -1.7002,12.4323 0.1738,2.2704 0.9839,5.155 -1.5681,5.4977 -2.5521,0.3427 -5.7577,0.8091 -7.4926,0.2789 -1.7349,-0.5302 -2.0271,-2.4231 -1.0407,-3.972 0.9864,-1.5488 0.7597,-13.1706 0.3775,-15.2777 -0.3823,-2.107 -2.1361,-12.5069 -2.1361,-12.5069l12.0784 -0.9983z"/>
   <path id="_404825552" class="fil7" d="M251.043 212.986c-0.2657,-3.4711 2.3037,-5.0804 5.6044,-5.3331 3.3006,-0.2527 6.0849,0.9468 6.3506,4.418 0.1139,1.4873 -0.0848,3.8188 -6.1394,3.9695 -6.0545,0.1506 -5.7021,-1.5722 -5.8156,-3.0544z"/>
   <g style="clip-path:url(#id3)">
    <g>
     <path id="_5916034801" class="fil8" d="M256.824 209.583c6.1019,-0.5771 8.2716,8.8901 0.1863,9.1387 -7.9174,0.2435 -5.5501,-8.6315 -0.1863,-9.1387z"/>
     <path id="_591603888" class="fil8" d="M257.006 208.323c1.9024,-0.0398 2.5788,0.6132 0.058,0.6303 -2.4684,0.0168 -1.7303,-0.5953 -0.058,-0.6303z"/>
    </g>
   </g>
   <path class="fil3 str2" d="M251.043 212.986c-0.2657,-3.4711 2.3037,-5.0804 5.6044,-5.3331 3.3006,-0.2527 6.0849,0.9468 6.3506,4.418 0.1139,1.4873 -0.0848,3.8188 -6.1394,3.9695 -6.0545,0.1506 -5.7021,-1.5722 -5.8156,-3.0544z"/>
   <path id="_404826344" class="fil7" d="M248.102 187.844c-0.0596,1.2457 -3.7696,18.4368 -3.7696,18.4368 0,0 -2.4096,1.8423 -11.4121,-0.57 -3.1711,-9.5366 -0.9073,-32.747 -0.7276,-33.3156l15.1762 -0.0347 0.6977 -0.0016 0.6977 -0.0016 15.1762 -0.0347c0.1823,0.5677 2.5523,23.7675 -0.5751,33.3185 -8.9914,2.4535 -11.4093,0.6223 -11.4093,0.6223 0,0 -3.7887,-17.174 -3.8541,-18.4194z"/>
   <g style="clip-path:url(#id4)">
    <g>
     <path id="_4846082081" class="fil5" d="M244.423 176.175c0,0 -0.6112,4.4901 0.3632,7.8025 0.9743,3.3125 3.3203,5.6709 3.3203,5.6709l-0.024 -13.6889 -3.6595 0.2155z"/>
    </g>
   </g>
   <path class="fil3 str2" d="M248.102 187.844c-0.0596,1.2457 -3.7696,18.4368 -3.7696,18.4368 0,0 -2.4096,1.8423 -11.4121,-0.57 -3.1711,-9.5366 -0.9073,-32.747 -0.7276,-33.3156l15.1762 -0.0347 0.6977 -0.0016 0.6977 -0.0016 15.1762 -0.0347c0.1823,0.5677 2.5523,23.7675 -0.5751,33.3185 -8.9914,2.4535 -11.4093,0.6223 -11.4093,0.6223 0,0 -3.7887,-17.174 -3.8541,-18.4194z"/>
   <path id="_404825936" class="fil5" d="M238.54 178.031c0,0 -1.634,13.1741 -1.529,17.5006 0.105,4.3265 0.2578,8.748 0.2578,8.748 0,0 1.3413,-16.4067 1.2712,-26.2486zm19.0799 -0.0437c0,0 1.6942,13.1665 1.609,17.4935 -0.0851,4.3269 -0.2177,8.749 -0.2177,8.749 0,0 -1.4163,-16.4003 -1.3913,-26.2425z"/>
   <path id="_404825864" class="fil9" d="M228.438 172.006c0,0 -0.1422,-0.2279 -0.2094,-0.6483 -0.0797,0.0458 -0.1599,0.0926 -0.2406,0.1406 0.1149,0.1813 0.2626,0.3519 0.45,0.5077z"/>
  </g>
  <g id="_404827640">
   <path id="_404826512" class="fil1 str1" d="M235.412 152.575c-5.4172,3.1568 -2.759,12.5736 -2.8362,15.3442 -0.0772,2.7705 -2.759,8.9045 3.0291,10.1774 4.1018,0.902 8.302,1.3532 12.5022,1.3532 4.2002,0 8.4006,-0.4512 12.5022,-1.3532 5.7881,-1.2728 3.1063,-7.4069 3.0291,-10.1774 -0.0772,-2.7706 2.581,-12.1874 -2.8361,-15.3442 -6.3296,-3.6885 -19.0608,-3.6885 -25.3903,0z"/>
   <path id="_404828000" class="fil4" d="M248.285 156.246c0,0 -0.6633,0.6194 -0.6309,1.9957 0.0324,1.3763 -0.0257,3.4712 -0.0257,3.4712 0,0 -1.8636,-4.3059 0.6566,-5.4669zm-0.357 6.6985c0,0 0.6633,-0.6195 0.6309,-1.9957 -0.0324,-1.3764 0.0257,-3.4712 0.0257,-3.4712 0,0 1.8636,4.3058 -0.6566,5.4669zm-12.8363 7.363c0,0 -0.4804,-0.77 -0.0929,-2.091 0.3876,-1.321 0.8736,-3.3595 0.8736,-3.3595 0,0 -2.9145,3.6768 -0.7807,5.4505zm8.8573 0c0,0 -0.4804,-0.77 -0.0929,-2.091 0.3875,-1.321 0.8736,-3.3595 0.8736,-3.3595 0,0 -2.9145,3.6768 -0.7807,5.4505zm-5.2977 -9.2554c0,0 -0.4804,-0.7699 -0.0929,-2.0909 0.3875,-1.3211 0.8736,-3.3596 0.8736,-3.3596 0,0 -2.9146,3.6768 -0.7807,5.4505zm3.1129 4.4495c0,0 -0.4804,-0.77 -0.0929,-2.091 0.3875,-1.321 0.8736,-3.3595 0.8736,-3.3595 0,0 -2.9145,3.6767 -0.7807,5.4505zm-2.9685 9.0628c0,0 -0.4804,-0.77 -0.0929,-2.091 0.3875,-1.321 0.8736,-3.3595 0.8736,-3.3595 0,0 -2.9145,3.6767 -0.7807,5.4505zm22.3255 -4.2569c0,0 0.4805,-0.77 0.0929,-2.091 -0.3875,-1.321 -0.8736,-3.3595 -0.8736,-3.3595 0,0 2.9146,3.6768 0.7807,5.4505zm-8.8572 0c0,0 0.4804,-0.77 0.0929,-2.091 -0.3876,-1.321 -0.8736,-3.3595 -0.8736,-3.3595 0,0 2.9145,3.6768 0.7807,5.4505zm5.2977 -9.2554c0,0 0.4804,-0.7699 0.0929,-2.0909 -0.3875,-1.3211 -0.8736,-3.3596 -0.8736,-3.3596 0,0 2.9145,3.6768 0.7807,5.4505zm-3.113 4.4495c0,0 0.4805,-0.77 0.0929,-2.091 -0.3875,-1.321 -0.8736,-3.3595 -0.8736,-3.3595 0,0 2.9146,3.6767 0.7807,5.4505zm2.9685 9.0628c0,0 0.4805,-0.77 0.0929,-2.091 -0.3875,-1.321 -0.8736,-3.3595 -0.8736,-3.3595 0,0 2.9146,3.6767 0.7807,5.4505zm-11.138 -3.4181c0,0 -0.8011,0.4266 -1.1259,1.7644 -0.3249,1.3378 -0.9232,3.3462 -0.9232,3.3462 0,0 -0.6858,-4.6414 2.0491,-5.1106zm3.6546 0c0,0 0.801,0.4266 1.126,1.7644 0.3248,1.3378 0.9231,3.3463 0.9231,3.3463 0,0 0.6857,-4.6415 -2.0491,-5.1107zm-5.7332 6.3778c0,0 0.8011,-0.4266 1.126,-1.7644 0.3249,-1.3378 0.9232,-3.3462 0.9232,-3.3462 0,0 0.6857,4.6414 -2.0492,5.1106zm7.8118 0c0,0 -0.8011,-0.4266 -1.126,-1.7644 -0.3249,-1.3378 -0.9232,-3.3462 -0.9232,-3.3462 0,0 -0.6857,4.6414 2.0492,5.1106zm4.016 -9.5223c0,0 -0.4804,0.77 -0.0929,2.091 0.3875,1.321 0.8736,3.3595 0.8736,3.3595 0,0 -2.9146,-3.6768 -0.7807,-5.4505zm-2.9685 -9.0628c0,0 -0.4804,0.77 -0.0929,2.091 0.3875,1.321 0.8736,3.3595 0.8736,3.3595 0,0 -2.9146,-3.6768 -0.7807,-5.4505zm3.1129 -4.4495c0,0 -0.4804,0.77 -0.0929,2.0911 0.3876,1.321 0.8736,3.3595 0.8736,3.3595 0,0 -2.9145,-3.6768 -0.7807,-5.4506zm-5.2977 9.2554c0,0 -0.4804,0.77 -0.0929,2.091 0.3876,1.321 0.8736,3.3595 0.8736,3.3595 0,0 -2.9145,-3.6768 -0.7807,-5.4505zm8.8573 0c0,0 -0.4804,0.77 -0.0929,2.091 0.3875,1.321 0.8736,3.3595 0.8736,3.3595 0,0 -2.9146,-3.6768 -0.7807,-5.4505zm-19.5478 4.2569c0,0 0.4804,0.77 0.0929,2.091 -0.3876,1.321 -0.8736,3.3595 -0.8736,3.3595 0,0 2.9145,-3.6768 0.7807,-5.4505zm2.9685 -9.0628c0,0 0.4804,0.77 0.0929,2.091 -0.3876,1.321 -0.8736,3.3595 -0.8736,3.3595 0,0 2.9145,-3.6768 0.7807,-5.4505zm-3.113 -4.4495c0,0 0.4804,0.77 0.0929,2.0911 -0.3875,1.321 -0.8736,3.3595 -0.8736,3.3595 0,0 2.9146,-3.6768 0.7807,-5.4506zm5.2977 9.2554c0,0 0.4804,0.77 0.0929,2.091 -0.3875,1.321 -0.8736,3.3595 -0.8736,3.3595 0,0 2.9146,-3.6768 0.7807,-5.4505zm-8.8572 0c0,0 0.4804,0.77 0.0929,2.091 -0.3876,1.321 -0.8736,3.3595 -0.8736,3.3595 0,0 2.9145,-3.6768 0.7807,-5.4505z"/>
  </g>
  <path class="fil10" d="M248.107 185.016c-12.5399,-1.5112 -31.0455,-20.1305 -25.3819,-30.703 2.1158,-3.9495 20.1139,-5.0137 25.3819,-4.9924 5.268,-0.0213 23.2661,1.0429 25.3819,4.9924 5.6636,10.5725 -12.8419,29.1918 -25.3819,30.703z"/>
  <g style="clip-path:url(#id5)">
   <g id="_596073992">
    <path id="_5960742081" class="fil4" d="M248.107 180.022c-11.5829,-1.3959 -28.2539,-17.3877 -26.268,-28.1525 1.6679,10.3819 15.9756,23.1466 26.268,24.3869 10.2924,-1.2403 24.6001,-14.005 26.268,-24.3869 1.9859,10.7648 -14.6851,26.7566 -26.268,28.1525z"/>
    <path id="_596074136" class="fil11" d="M248.107 165.267c-9.9795,-1.3959 -24.3427,-17.3877 -22.6317,-28.1525 1.437,10.3819 13.7641,23.1466 22.6317,24.3869 8.8676,-1.2403 21.1947,-14.005 22.6317,-24.3869 1.711,10.7648 -12.6522,26.7566 -22.6317,28.1525z"/>
    <path id="_596074064" class="fil1" d="M248.656 171.554c-10.9385,-1.4753 -26.5378,-17.9182 -25.6921,-29.6067 0.7771,11.4968 15.3268,26.3346 25.6921,27.7326 10.3653,-1.398 24.915,-16.2358 25.6921,-27.7326 0.8457,11.6885 -14.7536,28.1314 -25.6921,29.6067z"/>
   </g>
  </g>
  <path class="fil3 str3" d="M248.107 185.016c-12.5399,-1.5112 -31.0455,-20.1305 -25.3819,-30.703 2.1158,-3.9495 20.1139,-5.0137 25.3819,-4.9924 5.268,-0.0213 23.2661,1.0429 25.3819,4.9924 5.6636,10.5725 -12.8419,29.1918 -25.3819,30.703z"/>
  <path class="fil0 str0" d="M241.749 146.185l12.7151 0 0 5.5158c0,1.6001 -2.8469,2.898 -6.3575,2.898 -3.5105,0 -6.3576,-1.2979 -6.3576,-2.898l0 -5.5158z"/>
  <g id="_492094744">
   <g>
    <path id="_404827616" class="fil12" d="M107.021 149.894c-2.165,-1.2499 -7.042,1.9943 -10.3447,12.5257 -1.5585,4.9702 -1.0822,12.1983 3.5607,13.3557 6.6189,1.6498 15.3107,-3.9791 15.3107,-3.9791l-3.9956 -7.2156c-5.5792,3.3133 -7.4065,2.0341 -6.0108,-1.14 1.5926,-3.6222 3.6446,-12.2969 1.4797,-13.5467z"/>
    <g style="clip-path:url(#id6)">
     <g>
      <rect id="_484631464" class="fil13" transform="matrix(-0.51321 -0.888905 -0.888905 0.51321 116.453 173.216)" width="11.3104" height="3.158"/>
     </g>
    </g>
    <path class="fil3 str4" d="M107.021 149.894c-2.165,-1.2499 -7.042,1.9943 -10.3447,12.5257 -1.5585,4.9702 -1.0822,12.1983 3.5607,13.3557 6.6189,1.6498 15.3107,-3.9791 15.3107,-3.9791l-3.9956 -7.2156c-5.5792,3.3133 -7.4065,2.0341 -6.0108,-1.14 1.5926,-3.6222 3.6446,-12.2969 1.4797,-13.5467z"/>
    <g>
     <path id="_404826584" class="fil0 str0" d="M111.552 164.581c1.5777,-1.2168 2.8464,-4.1479 3.413,-4.1446 0.5667,0.0033 0.8351,0.2486 0.8305,2.7528 1.8963,0.1434 3.502,-3.4539 4.7154,-2.4042 0.7833,0.6777 -1.1802,2.7466 -1.819,3.3432 1.4481,0.9515 3.3322,-2.5438 4.2952,-1.1152 0.5973,0.8871 -2.1948,2.6126 -3.0371,3.0037 0.687,1.4754 2.8548,-1.2921 3.4706,0.1216 0.41,0.9417 -2.3081,1.9901 -3.1078,2.2722 -0.1395,1.1619 1.9344,-0.1761 2.1276,0.745 0.1578,0.752 -0.3888,1.0366 -2.5287,1.3808 -1.1908,0.1914 -2.7458,0.9233 -4.364,1.2604l0.1235 -0.0811 -4.1192 -7.1346z"/>
     <g>
      <path id="_404827568" class="fil14" d="M103.977 153.297c0,0 0.492,0.7887 0.0951,2.1418 -0.3969,1.3531 -0.8948,3.4411 -0.8948,3.4411 0,0 2.9853,-3.7661 0.7997,-5.5829z"/>
      <path id="_492069976" class="fil14" d="M102.554 160.019c0,0 -0.4921,-0.7887 -0.0952,-2.1418 0.397,-1.3531 0.8949,-3.4411 0.8949,-3.4411 0,0 -2.9853,3.7661 -0.7997,5.5829z"/>
      <path id="_492101056" class="fil14" d="M102.895 161.766c0,0 0.4921,0.7887 0.0952,2.1418 -0.397,1.353 -0.8949,3.441 -0.8949,3.441 0,0 2.9853,-3.766 0.7997,-5.5828zm-1.4225 6.7219c0,0 -0.4921,-0.7887 -0.0952,-2.1417 0.3969,-1.3531 0.8948,-3.4411 0.8948,-3.4411 0,0 -2.9853,3.766 -0.7996,5.5828z"/>
      <path id="_492075736" class="fil14" d="M97.9543 167.199c0,0 -0.492,-0.7886 -0.0951,-2.1417 0.3969,-1.3531 0.8948,-3.4411 0.8948,-3.4411 0,0 -2.9853,3.7661 -0.7997,5.5828zm1.4226 -6.7219c0,0 0.4921,0.7887 0.0951,2.1418 -0.3969,1.3531 -0.8948,3.4411 -0.8948,3.4411 0,0 2.9853,-3.766 0.7997,-5.5829z"/>
      <path id="_492087256" class="fil14" d="M98.7088 172.962c0,0 0.2098,-0.9057 1.4472,-1.5818 1.2375,-0.6761 3.066,-1.8005 3.066,-1.8005 0,0 -4.774,0.5521 -4.5132,3.3823zm5.7591 -3.7473c0,0 -0.2097,0.9057 -1.4472,1.5818 -1.2375,0.6761 -3.0659,1.8004 -3.0659,1.8004 0,0 4.7739,-0.552 4.5131,-3.3822z"/>
      <path id="_492093016" class="fil14" d="M109.971 170.682c0,0 -0.2098,0.9057 -1.4472,1.5818 -1.2375,0.6761 -3.066,1.8005 -3.066,1.8005 0,0 4.774,-0.5521 4.5132,-3.3823zm-5.759 3.7473c0,0 0.2097,-0.9057 1.4471,-1.5818 1.2374,-0.6761 3.0659,-1.8005 3.0659,-1.8005 0,0 -4.7739,0.5521 -4.513,3.3823z"/>
     </g>
    </g>
   </g>
   <g>
    <path id="_492086680" class="fil12" d="M134.433 149.894c2.165,-1.2499 7.042,1.9943 10.3447,12.5257 1.5585,4.9702 1.0822,12.1983 -3.5607,13.3557 -6.6189,1.6498 -15.3107,-3.9791 -15.3107,-3.9791l3.9956 -7.2156c5.5792,3.3133 7.4065,2.0341 6.0108,-1.14 -1.5926,-3.6222 -3.6446,-12.2969 -1.4797,-13.5467z"/>
    <g style="clip-path:url(#id7)">
     <g>
      <rect id="_484632688" class="fil13" transform="matrix(0.51321 -0.888905 0.888905 0.51321 125.002 173.216)" width="11.3104" height="3.158"/>
     </g>
    </g>
    <path class="fil3 str4" d="M134.433 149.894c2.165,-1.2499 7.042,1.9943 10.3447,12.5257 1.5585,4.9702 1.0822,12.1983 -3.5607,13.3557 -6.6189,1.6498 -15.3107,-3.9791 -15.3107,-3.9791l3.9956 -7.2156c5.5792,3.3133 7.4065,2.0341 6.0108,-1.14 -1.5926,-3.6222 -3.6446,-12.2969 -1.4797,-13.5467z"/>
    <g>
     <path id="_492078616" class="fil0 str0" d="M129.902 164.581c-1.5777,-1.2168 -2.8464,-4.1479 -3.413,-4.1446 -0.5667,0.0033 -0.8351,0.2486 -0.8305,2.7528 -1.8963,0.1434 -3.502,-3.4539 -4.7154,-2.4042 -0.7833,0.6777 1.1802,2.7466 1.819,3.3432 -1.4481,0.9515 -3.3322,-2.5438 -4.2952,-1.1152 -0.5973,0.8871 2.1948,2.6126 3.0371,3.0037 -0.687,1.4754 -2.8548,-1.2921 -3.4706,0.1216 -0.41,0.9417 2.3081,1.9901 3.1078,2.2722 0.1395,1.1619 -1.9344,-0.1761 -2.1276,0.745 -0.1578,0.752 0.3888,1.0366 2.5287,1.3808 1.1908,0.1914 2.7458,0.9233 4.364,1.2604l-0.1235 -0.0811 4.1192 -7.1346z"/>
     <g>
      <path id="_492095008" class="fil14" d="M137.478 153.297c0,0 -0.492,0.7887 -0.0951,2.1418 0.3969,1.3531 0.8948,3.4411 0.8948,3.4411 0,0 -2.9853,-3.7661 -0.7997,-5.5829z"/>
      <path id="_492070840" class="fil14" d="M138.901 160.018c0,0 0.4921,-0.7887 0.0952,-2.1418 -0.397,-1.3531 -0.8949,-3.4411 -0.8949,-3.4411 0,0 2.9853,3.7661 0.7997,5.5829z"/>
      <path id="_492085240" class="fil14" d="M138.56 161.766c0,0 -0.4921,0.7887 -0.0952,2.1418 0.397,1.353 0.8949,3.441 0.8949,3.441 0,0 -2.9853,-3.766 -0.7997,-5.5828zm1.4225 6.7219c0,0 0.4921,-0.7887 0.0952,-2.1417 -0.3969,-1.3531 -0.8948,-3.4411 -0.8948,-3.4411 0,0 2.9853,3.766 0.7996,5.5828z"/>
      <path id="_492088984" class="fil14" d="M143.501 167.199c0,0 0.492,-0.7886 0.0951,-2.1417 -0.3969,-1.3531 -0.8948,-3.4411 -0.8948,-3.4411 0,0 2.9853,3.7661 0.7997,5.5828zm-1.4226 -6.7219c0,0 -0.4921,0.7887 -0.0951,2.1418 0.3969,1.3531 0.8948,3.4411 0.8948,3.4411 0,0 -2.9853,-3.766 -0.7997,-5.5829z"/>
      <path id="_492080632" class="fil14" d="M142.746 172.961c0,0 -0.2098,-0.9057 -1.4472,-1.5818 -1.2375,-0.6761 -3.066,-1.8005 -3.066,-1.8005 0,0 4.774,0.5521 4.5132,3.3823zm-5.7591 -3.7473c0,0 0.2097,0.9057 1.4472,1.5818 1.2375,0.6761 3.0659,1.8004 3.0659,1.8004 0,0 -4.7739,-0.552 -4.5131,-3.3822z"/>
      <path id="_492076888" class="fil14" d="M131.484 170.682c0,0 0.2098,0.9057 1.4472,1.5818 1.2375,0.6761 3.066,1.8005 3.066,1.8005 0,0 -4.774,-0.5521 -4.5132,-3.3823zm5.759 3.7473c0,0 -0.2097,-0.9057 -1.4471,-1.5818 -1.2374,-0.6761 -3.0659,-1.8005 -3.0659,-1.8005 0,0 4.7739,0.5521 4.513,3.3823z"/>
     </g>
    </g>
   </g>
  </g>
  <g id="_492092704">
   <path id="_492082624" class="fil15 str5" d="M137.952 134.372c0,0 7.4114,2.9233 8.1419,7.097 0.7132,4.076 2.2413,13.0917 8.2897,13.088 1.8382,-0.0014 -4.583,2.8068 -7.3473,0.2678 -4.2128,-3.8688 -3.2651,-7.0241 -9.5759,-7.7284 -6.3108,-0.7042 -7.2185,-1.932 -7.2185,-1.932l7.7101 -10.7924z"/>
   <path id="_492097336" class="fil15 str5" d="M100.624 139.087c0,0 -6.4515,4.6747 -6.1211,8.8988 0.3228,4.1254 1.0849,13.2379 -4.7744,14.7384 -1.7808,0.4558 5.137,1.5789 7.1831,-1.5678 3.1183,-4.7949 1.4156,-7.6154 7.3531,-9.867 5.9374,-2.2516 6.5112,-3.6665 6.5112,-3.6665l-10.1519 -8.5359z"/>
   <path id="_492078880" class="fil16 str5" d="M94.7081 153.394c-0.034,1.0974 -0.132,2.2184 -0.3358,3.2887 1.2017,-0.2122 2.7864,-0.236 4.4557,0.4452 0.4869,-1.3662 0.8572,-2.5224 1.7485,-3.5397 -1.3109,-0.7955 -3.2431,-1.0981 -5.8684,-0.1942z"/>
   <path id="_492086080" class="fil17" d="M100.827 142.965c0,0 -3.8239,3.894 -3.2561,8.1865 0,0 1.3482,-4.0809 3.2561,-8.1865z"/>
   <path id="_492089536" class="fil16 str5" d="M147.24 146.757c0.3059,1.0545 0.6796,2.1159 1.1431,3.1019 -1.2167,0.0933 -2.7575,0.4644 -4.205,1.5393 -0.8114,-1.2022 -1.4575,-2.23 -2.5738,-2.9936 1.0719,-1.0966 2.8681,-1.8702 5.6357,-1.6476z"/>
   <g>
    <path id="_492087808" class="fil17" d="M138.72 138.178c0,0 4.6722,2.8208 5.1897,7.1196 0,0 -2.3206,-3.6175 -5.1897,-7.1196z"/>
    <path id="_492095296" class="fil17" d="M134.529 137.571c0,0 4.6722,2.8208 5.1897,7.1196 0,0 -2.3207,-3.6175 -5.1897,-7.1196z"/>
   </g>
   <path id="_492087232" class="fil17" d="M104.735 141.334c0,0 -3.8239,3.8941 -3.256,8.1866 0,0 1.3481,-4.081 3.256,-8.1866z"/>
  </g>
  <g id="_492097048">
   <g>
    <g>
     <path id="_492090400" class="fil2 str6" d="M106.498 180.697c0,0 -1.4395,11.1349 -1.6083,15.1014 -0.1688,3.9666 1.8982,10.5639 1.7069,12.9212 -0.1913,2.3573 -1.0465,5.3496 1.6026,5.7177 2.6491,0.368 5.9765,0.8677 7.781,0.3253 1.8045,-0.5425 2.117,-2.5072 1.0998,-4.1206 -1.0172,-1.6134 -0.7265,-13.6836 -0.3194,-15.8703 0.4071,-2.1867 2.2781,-12.9804 2.2781,-12.9804l-12.5407 -1.0943z"/>
     <path id="_492080920" class="fil5 str2" d="M112.036 206.952c3.4273,0.2623 5.9439,3.9121 5.7278,6.7356 -0.2162,2.8235 -3.0833,3.7531 -6.5106,3.4907 -3.4274,-0.2624 -6.1195,-1.6175 -5.9033,-4.441 0.2161,-2.8235 3.2587,-6.0477 6.6861,-5.7853z"/>
     <path id="_492080896" class="fil7 str2" d="M117.586 212.302c0.2657,-3.4711 -2.3037,-5.0804 -5.6044,-5.3331 -3.3006,-0.2527 -6.0849,0.9468 -6.3506,4.418 -0.1139,1.4873 0.0848,3.8188 6.1394,3.9695 6.0545,0.1506 5.7021,-1.5722 5.8156,-3.0544z"/>
     <path id="_492091264" class="fil5 str2" d="M115.045 207.733c-0.8772,-0.4293 -1.9271,-0.6772 -3.0636,-0.7642 -1.4337,-0.1098 -2.7699,0.0547 -3.8446,0.5601 0.4636,1.6148 1.7263,2.412 3.2418,2.5701 1.6727,0.1745 3.1279,-0.4842 3.6664,-2.366z"/>
    </g>
    <g>
     <path id="_492086944" class="fil2 str6" d="M134.957 180.697c0,0 1.4395,11.1349 1.6083,15.1014 0.1688,3.9666 -1.8982,10.5639 -1.7069,12.9212 0.1913,2.3573 1.0465,5.3496 -1.6026,5.7177 -2.6491,0.368 -5.9765,0.8677 -7.781,0.3253 -1.8045,-0.5425 -2.117,-2.5072 -1.0998,-4.1206 1.0172,-1.6134 0.7265,-13.6836 0.3194,-15.8703 -0.4071,-2.1867 -2.2781,-12.9804 -2.2781,-12.9804l12.5407 -1.0943z"/>
     <path id="_492072856" class="fil5 str2" d="M129.419 206.952c-3.4273,0.2623 -5.9439,3.9121 -5.7278,6.7356 0.2162,2.8235 3.0833,3.7531 6.5106,3.4907 3.4274,-0.2624 6.1195,-1.6175 5.9033,-4.441 -0.2161,-2.8235 -3.2587,-6.0477 -6.6861,-5.7853z"/>
     <path id="_492073720" class="fil7 str2" d="M123.869 212.302c-0.2657,-3.4711 2.3037,-5.0804 5.6044,-5.3331 3.3006,-0.2527 6.0849,0.9468 6.3506,4.418 0.1139,1.4873 -0.0848,3.8188 -6.1394,3.9695 -6.0545,0.1506 -5.7021,-1.5722 -5.8156,-3.0544z"/>
     <path id="_492097888" class="fil5 str2" d="M126.41 207.733c0.8772,-0.4293 1.9271,-0.6772 3.0636,-0.7642 1.4337,-0.1098 2.7699,0.0547 3.8446,0.5601 -0.4636,1.6148 -1.7263,2.412 -3.2418,2.5701 -1.6727,0.1745 -3.1279,-0.4842 -3.6664,-2.366z"/>
    </g>
   </g>
   <path id="_492093280" class="fil18 str7" d="M104.921 173.266c-6.4115,8.0868 -6.7223,24.0029 -5.442,26.0161 1.025,1.6121 10.9915,4.875 21.2486,4.875 10.2572,0 20.2237,-3.2629 21.2487,-4.875 1.2802,-2.0132 0.9694,-17.9293 -5.4421,-26.0161l-15.8066 0 -15.8066 0z"/>
  </g>
  <g id="_404481576">
   <path id="_492100480" class="fil19" d="M111.568 178.848c0,0 -2.9895,4.9015 -3.8975,10.0942 -0.9078,5.1925 -0.0741,9.3545 -0.0741,9.3545 0,0 1.7285,-6.7072 3.9716,-19.4487z"/>
   <path id="_492093304" class="fil19" d="M117.902 180.449c0,0 -2.2824,5.7098 -2.4872,11.073 -0.2045,5.3629 1.1614,9.1879 1.1614,9.1879 0,0 0.8088,-7.0962 1.3258,-20.2609z"/>
   <path id="_492082072" class="fil19" d="M123.553 180.449c0,0 2.2823,5.71 2.487,11.073 0.2048,5.3629 -1.1613,9.1879 -1.1613,9.1879 0,0 -0.8089,-7.0965 -1.3257,-20.2609z"/>
   <path id="_404487168" class="fil19" d="M129.887 178.848c0,0 2.9894,4.9015 3.8974,10.0941 0.908,5.1924 0.074,9.3546 0.074,9.3546 0,0 -1.7285,-6.7073 -3.9714,-19.4487z"/>
   <path id="_404484384" class="fil19" d="M135.017 177.354c0,0 3.2771,4.4586 4.4995,9.5004 1.2225,5.042 0.6477,9.3036 0.6477,9.3036 0,0 -2.1323,-6.4342 -5.1472,-18.804z"/>
   <path id="_404480352" class="fil19" d="M106.438 177.354c0,0 -3.277,4.4586 -4.4996,9.5004 -1.2224,5.042 -0.6475,9.3036 -0.6475,9.3036 0,0 2.1323,-6.4342 5.1471,-18.804z"/>
  </g>
  <g id="_404480496">
   <path id="_404482440" class="fil12 str4" d="M107.724 149.894c-5.5487,3.2334 -2.826,12.8788 -2.905,15.7167 -0.0791,2.8378 -2.826,9.1206 3.1026,10.4245 8.4026,1.8479 17.2088,1.8479 25.6114,0 5.9286,-1.3039 3.1817,-7.5867 3.1027,-10.4245 -0.0791,-2.8379 2.6436,-12.4833 -2.905,-15.7167 -6.4833,-3.7781 -19.5235,-3.7781 -26.0067,0z"/>
   <path id="_404481552" class="fil14" d="M120.91 153.654c0,0 -0.6794,0.6345 -0.6462,2.0442 0.0332,1.4097 -0.0263,3.5554 -0.0263,3.5554 0,0 -1.9089,-4.4104 0.6725,-5.5996zm-0.3656 6.8611c0,0 0.6794,-0.6345 0.6462,-2.0442 -0.0332,-1.4097 0.0263,-3.5554 0.0263,-3.5554 0,0 1.9089,4.4104 -0.6725,5.5996zm-13.1479 7.5418c0,0 -0.4921,-0.7887 -0.0952,-2.1418 0.397,-1.353 0.8949,-3.441 0.8949,-3.441 0,0 -2.9854,3.766 -0.7997,5.5828zm9.0723 0c0,0 -0.4921,-0.7887 -0.0952,-2.1418 0.3969,-1.3531 0.8948,-3.4411 0.8948,-3.4411 0,0 -2.9853,3.7661 -0.7996,5.5829zm-5.4263 -9.4801c0,0 -0.4921,-0.7886 -0.0952,-2.1417 0.3969,-1.3531 0.8948,-3.4411 0.8948,-3.4411 0,0 -2.9853,3.766 -0.7996,5.5828zm3.1885 4.5575c0,0 -0.4921,-0.7887 -0.0952,-2.1418 0.3969,-1.3531 0.8948,-3.4411 0.8948,-3.4411 0,0 -2.9853,3.7661 -0.7996,5.5829zm-3.0406 9.2828c0,0 -0.4921,-0.7887 -0.0951,-2.1418 0.3969,-1.3531 0.8948,-3.4411 0.8948,-3.4411 0,0 -2.9853,3.7661 -0.7997,5.5829zm22.8675 -4.3602c0,0 0.4921,-0.7887 0.0952,-2.1418 -0.397,-1.353 -0.8949,-3.441 -0.8949,-3.441 0,0 2.9854,3.766 0.7997,5.5828zm-9.0723 0c0,0 0.4921,-0.7887 0.0951,-2.1418 -0.3969,-1.3531 -0.8948,-3.4411 -0.8948,-3.4411 0,0 2.9853,3.7661 0.7997,5.5829zm5.4263 -9.4801c0,0 0.4921,-0.7886 0.0952,-2.1417 -0.3969,-1.3531 -0.8948,-3.4411 -0.8948,-3.4411 0,0 2.9853,3.766 0.7996,5.5828zm-3.1885 4.5575c0,0 0.4921,-0.7887 0.0952,-2.1418 -0.397,-1.3531 -0.8949,-3.4411 -0.8949,-3.4411 0,0 2.9854,3.7661 0.7997,5.5829zm3.0406 9.2828c0,0 0.4921,-0.7887 0.0951,-2.1418 -0.3969,-1.3531 -0.8948,-3.4411 -0.8948,-3.4411 0,0 2.9853,3.7661 0.7997,5.5829zm-11.4085 -3.5011c0,0 -0.8205,0.437 -1.1532,1.8073 -0.3328,1.3702 -0.9456,3.4274 -0.9456,3.4274 0,0 -0.7024,-4.7541 2.0988,-5.2347zm3.7434 0c0,0 0.8205,0.437 1.1533,1.8073 0.3327,1.3702 0.9455,3.4274 0.9455,3.4274 0,0 0.7024,-4.7541 -2.0988,-5.2347zm-5.8724 6.5327c0,0 0.8206,-0.437 1.1533,-1.8073 0.3328,-1.3703 0.9456,-3.4275 0.9456,-3.4275 0,0 0.7024,4.7542 -2.0989,5.2348zm8.0014 0c0,0 -0.8205,-0.437 -1.1533,-1.8073 -0.3328,-1.3703 -0.9456,-3.4275 -0.9456,-3.4275 0,0 -0.7023,4.7542 2.0989,5.2348zm4.1135 -9.7536c0,0 -0.4921,0.7888 -0.0951,2.1418 0.3969,1.3531 0.8948,3.4411 0.8948,3.4411 0,0 -2.9854,-3.7661 -0.7997,-5.5829zm-3.0406 -9.2828c0,0 -0.492,0.7887 -0.0951,2.1418 0.3969,1.3531 0.8948,3.4411 0.8948,3.4411 0,0 -2.9853,-3.7661 -0.7997,-5.5829zm3.1886 -4.5574c0,0 -0.4921,0.7887 -0.0952,2.1418 0.397,1.3531 0.8948,3.4411 0.8948,3.4411 0,0 -2.9853,-3.7661 -0.7996,-5.5829zm-5.4264 9.4801c0,0 -0.492,0.7886 -0.0951,2.1417 0.3969,1.3531 0.8948,3.4411 0.8948,3.4411 0,0 -2.9853,-3.7661 -0.7997,-5.5828zm9.0723 0c0,0 -0.492,0.7887 -0.0951,2.1417 0.3969,1.3531 0.8948,3.4411 0.8948,3.4411 0,0 -2.9853,-3.7661 -0.7997,-5.5828zm-20.0223 4.3601c0,0 0.4921,0.7888 0.0951,2.1418 -0.3969,1.3531 -0.8948,3.4411 -0.8948,3.4411 0,0 2.9853,-3.7661 0.7997,-5.5829zm3.0405 -9.2828c0,0 0.4921,0.7887 0.0952,2.1418 -0.397,1.3531 -0.8948,3.4411 -0.8948,3.4411 0,0 2.9853,-3.7661 0.7996,-5.5829zm-3.1885 -4.5574c0,0 0.4921,0.7887 0.0952,2.1418 -0.397,1.3531 -0.8949,3.4411 -0.8949,3.4411 0,0 2.9854,-3.7661 0.7997,-5.5829zm5.4263 9.4801c0,0 0.4921,0.7886 0.0952,2.1417 -0.397,1.3531 -0.8948,3.4411 -0.8948,3.4411 0,0 2.9853,-3.7661 0.7996,-5.5828zm-9.0723 0c0,0 0.4921,0.7887 0.0952,2.1417 -0.397,1.3531 -0.8948,3.4411 -0.8948,3.4411 0,0 2.9853,-3.7661 0.7996,-5.5828z"/>
  </g>
  <path class="fil0 str0" d="M114.215 143.35l13.0238 0 0 5.6497c0,3.9389 -13.0238,3.9388 -13.0238,0l0 -5.6497z"/>
  <g id="_404481912">
   <g>
    <path id="_404481264" class="fil7" d="M120.667 158.668c-0.4575,-9.4422 -8.6395,-14.2637 -13.0684,-13.3435 -4.4289,0.9202 -9.7178,7.5146 -13.2918,19.3936 -3.574,11.879 26.8177,3.3921 26.3602,-6.0501z"/>
    <g style="clip-path:url(#id8)">
     <g>
      <path id="_5960892321" class="fil5" d="M118.067 164.109c-0.6244,-12.8857 -11.7902,-19.4655 -17.8343,-18.2097 -1.8193,0.378 -3.7449,1.4587 -5.681,3.2254 7.5908,0.1509 18.8347,7.8712 20.1017,21.8287 2.2032,-2.1255 3.529,-4.4624 3.4136,-6.8444z"/>
      <path id="_596089160" class="fil13" d="M97.9414 151.076c0,0 7.6025,2.9328 10.9053,8.1968 3.3028,5.264 4.3054,12.1824 4.3054,12.1824l-0.8577 0c0,0 -1.626,-9.271 -5.7758,-13.7616 -4.1498,-4.4906 -8.4547,-5.664 -8.4547,-5.664l-0.1225 -0.9536z"/>
      <path id="_596089088" class="fil20" d="M96.1264 152.731c0,0 7.6025,2.9328 10.9053,8.1968 3.3028,5.264 4.3054,12.1824 4.3054,12.1824l-0.8577 0c0,0 -1.626,-9.271 -5.7758,-13.7616 -4.1498,-4.4906 -8.4547,-5.664 -8.4547,-5.664l-0.1225 -0.9536z"/>
      <path id="_596089016" class="fil5" d="M76.9005 144.849c0,0 19.784,7.6321 28.3791,21.3308 8.595,13.6986 11.204,31.7026 11.204,31.7026l-2.232 0c0,0 -4.2314,-24.1262 -15.0305,-35.8122 -10.7992,-11.686 -22.0018,-14.7396 -22.0018,-14.7396l-0.3188 -2.4816z"/>
      <path id="_596088944" class="fil13" d="M88.9202 158.069c0,0 7.6025,2.9328 10.9053,8.1968 3.3028,5.264 4.3054,12.1824 4.3054,12.1824l-0.8577 0c0,0 -1.626,-9.271 -5.7758,-13.7616 -4.1498,-4.4906 -8.4547,-5.664 -8.4547,-5.664l-0.1225 -0.9536z"/>
      <path id="_596088872" class="fil20" d="M105.602 143.18c0,0 7.6025,2.9328 10.9053,8.1968 3.3028,5.264 4.3054,12.1824 4.3054,12.1824l-0.8577 0c0,0 -1.626,-9.271 -5.7758,-13.7616 -4.1498,-4.4906 -8.4547,-5.664 -8.4547,-5.664l-0.1225 -0.9536z"/>
     </g>
    </g>
    <path class="fil3 str8" d="M120.667 158.668c-0.4575,-9.4422 -8.6395,-14.2637 -13.0684,-13.3435 -4.4289,0.9202 -9.7178,7.5146 -13.2918,19.3936 -3.574,11.879 26.8177,3.3921 26.3602,-6.0501z"/>
    <path id="_404481984" class="fil7" d="M120.787 158.668c0.4575,-9.4422 8.6395,-14.2637 13.0684,-13.3435 4.4289,0.9202 9.7178,7.5146 13.2918,19.3936 3.574,11.879 -26.8177,3.3921 -26.3602,-6.0501z"/>
    <g style="clip-path:url(#id9)">
     <g>
      <path id="_5960771361" class="fil5" d="M123.388 164.109c0.6244,-12.8857 11.7902,-19.4655 17.8343,-18.2097 1.8193,0.378 3.7449,1.4587 5.681,3.2254 -7.5908,0.1509 -18.8347,7.8712 -20.1017,21.8287 -2.2032,-2.1255 -3.529,-4.4624 -3.4136,-6.8444z"/>
      <path id="_596077064" class="fil13" d="M143.513 151.076c0,0 -7.6025,2.9328 -10.9053,8.1968 -3.3028,5.264 -4.3054,12.1824 -4.3054,12.1824l0.8577 0c0,0 1.626,-9.271 5.7758,-13.7616 4.1498,-4.4906 8.4547,-5.664 8.4547,-5.664l0.1225 -0.9536z"/>
      <path id="_596076992" class="fil20" d="M145.328 152.731c0,0 -7.6025,2.9328 -10.9053,8.1968 -3.3028,5.264 -4.3054,12.1824 -4.3054,12.1824l0.8577 0c0,0 1.626,-9.271 5.7758,-13.7616 4.1498,-4.4906 8.4547,-5.664 8.4547,-5.664l0.1225 -0.9536z"/>
      <path id="_596076920" class="fil5" d="M164.554 144.849c0,0 -19.784,7.6321 -28.3791,21.3308 -8.595,13.6986 -11.204,31.7026 -11.204,31.7026l2.232 0c0,0 4.2314,-24.1262 15.0305,-35.8122 10.7992,-11.686 22.0018,-14.7396 22.0018,-14.7396l0.3188 -2.4816z"/>
      <path id="_596076848" class="fil13" d="M152.535 158.069c0,0 -7.6025,2.9328 -10.9053,8.1968 -3.3028,5.264 -4.3054,12.1824 -4.3054,12.1824l0.8577 0c0,0 1.626,-9.271 5.7758,-13.7616 4.1498,-4.4906 8.4547,-5.664 8.4547,-5.664l0.1225 -0.9536z"/>
      <path id="_596076776" class="fil20" d="M135.853 143.18c0,0 -7.6025,2.9328 -10.9053,8.1968 -3.3028,5.264 -4.3054,12.1824 -4.3054,12.1824l0.8577 0c0,0 1.626,-9.271 5.7758,-13.7616 4.1498,-4.4906 8.4547,-5.664 8.4547,-5.664l0.1225 -0.9536z"/>
     </g>
    </g>
    <path class="fil3 str8" d="M120.787 158.668c0.4575,-9.4422 8.6395,-14.2637 13.0684,-13.3435 4.4289,0.9202 9.7178,7.5146 13.2918,19.3936 3.574,11.879 -26.8177,3.3921 -26.3602,-6.0501z"/>
   </g>
   <path id="_404483280" class="fil16" d="M117.911 153.352c-0.3743,0.3743 -0.4216,0.9813 -0.1818,1.5748 -0.5892,0.2501 -0.9849,0.7127 -0.9849,1.242 0,0.5293 0.3957,0.9919 0.9849,1.242 -0.2398,0.5934 -0.1925,1.2004 0.1818,1.5747 0.3743,0.3743 0.9813,0.4216 1.5747,0.1818 0.25,0.5893 0.7127,0.9849 1.2421,0.9849 0.5294,0 0.9921,-0.3957 1.2421,-0.9849 0.5935,0.2398 1.2003,0.1925 1.5746,-0.1818 0.3743,-0.3743 0.4215,-0.9812 0.1818,-1.5746 0.5892,-0.2501 0.985,-0.7127 0.985,-1.2421 0,-0.5294 -0.3958,-0.992 -0.985,-1.2421 0.2398,-0.5935 0.1925,-1.2004 -0.1818,-1.5747 -0.3743,-0.3743 -0.9812,-0.4216 -1.5746,-0.1818 -0.25,-0.5892 -0.7128,-0.9849 -1.2421,-0.9849 -0.5294,0 -0.9921,0.3956 -1.2421,0.9849 -0.5934,-0.2398 -1.2004,-0.1925 -1.5747,0.1818z"/>
   <circle id="_404481936" class="fil21" cx="120.727" cy="156.169" r="1.9917"/>
  </g>
  <path class="fil21 str9" d="M319.943 101.031c12.0503,0 21.8227,6.3272 21.8227,14.1292 0,7.8021 -9.7724,14.1293 -21.8227,14.1293 -5.935,0 -11.3167,-1.5354 -15.2508,-4.0254l-8.0449 4.01 4.0251 -7.4806c-1.628,-1.9781 -2.552,-4.2358 -2.552,-6.6333 0,-7.802 9.7724,-14.1292 21.8226,-14.1292z"/>
  <path class="fil21 str9" d="M180.857 101.124c12.0503,0 21.8227,6.3272 21.8227,14.1292 0,7.8021 -9.7724,14.1293 -21.8227,14.1293 -5.935,0 -11.3167,-1.5354 -15.2508,-4.0254l-8.0449 4.01 4.0251 -7.4806c-1.628,-1.9781 -2.552,-4.2358 -2.552,-6.6333 0,-7.802 9.7724,-14.1292 21.8226,-14.1292z"/>
  <path class="fil22" d="M164.293 116.854c0,-0.2032 0.0995,-0.4276 0.2985,-0.6731 0.2455,-0.2413 0.491,-0.4847 0.7366,-0.7303 0.0423,-0.1439 0.0783,-0.2582 0.1079,-0.3429 0.0593,-0.1651 0.1609,-0.2476 0.3048,-0.2476 0.0762,0 0.127,0.0212 0.1524,0.0635 0.0127,0.0339 0.0201,0.0995 0.0222,0.1968 0.0021,0.0974 0.0032,0.1948 0.0032,0.2921 0,0.1397 -0.1916,0.4033 -0.5747,0.7906 -0.3831,0.3874 -0.5619,0.6234 -0.5365,0.708 0.0592,0.2075 0.2328,0.3112 0.5207,0.3112 0.1312,0 0.3079,-0.0826 0.5302,-0.2477 0.2222,-0.1651 0.4477,-0.3365 0.6763,-0.5143 0.0381,0 0.0762,0.018 0.1143,0.054 0.0381,0.036 0.0571,0.0899 0.0571,0.1619 0,0.2074 -0.1651,0.436 -0.4953,0.6858 -0.3302,0.2498 -0.6413,0.3746 -0.9334,0.3746 -0.271,0 -0.4996,-0.0783 -0.6858,-0.2349 -0.199,-0.1693 -0.2985,-0.3852 -0.2985,-0.6477zm0.9589 -3.2766c0,-0.1016 0.0254,-0.1852 0.0762,-0.2508 0.0508,-0.0656 0.1291,-0.0985 0.2349,-0.0985 0.0974,0 0.1757,0.0297 0.235,0.0889 0.0592,0.0593 0.0889,0.1376 0.0889,0.235 0,0.0974 -0.0276,0.182 -0.0826,0.254 -0.055,0.072 -0.127,0.1122 -0.2159,0.1206 -0.1016,0 -0.1831,-0.0328 -0.2445,-0.0984 -0.0614,-0.0656 -0.092,-0.1492 -0.092,-0.2508zm3.9243 1.2573c0,0.5249 -0.1948,1.1314 -0.5842,1.8193 -0.3895,0.6879 -0.7176,1.0318 -0.9843,1.0318 -0.2117,0 -0.3598,-0.2582 -0.4445,-0.7747 -0.0847,-0.5164 -0.127,-1.325 -0.127,-2.4257l0 -0.8318c0.3006,-0.1439 0.599,-0.2159 0.8954,-0.2159 0.3767,0 0.6731,0.1122 0.889,0.3365 0.237,0.2456 0.3556,0.5991 0.3556,1.0605zm-0.5398 0.0571c0,-0.2921 -0.0339,-0.5058 -0.1016,-0.6413 -0.0889,-0.1778 -0.2455,-0.2667 -0.4699,-0.2667 -0.1397,0 -0.29,0.0402 -0.4508,0.1206 0,0.8001 0.0084,1.4669 0.0254,2.0003 0.0169,0.5334 0.0359,0.8001 0.0571,0.8001 0.3852,-0.5461 0.6382,-0.944 0.7588,-1.1938 0.1207,-0.2498 0.181,-0.5228 0.181,-0.8192zm3.537 0.9525c0,0.5715 -0.1079,1.0436 -0.3238,1.4161 -0.2329,0.4022 -0.5483,0.6033 -0.9462,0.6033 -0.453,0 -0.8107,-0.2181 -1.0731,-0.6541 -0.2625,-0.436 -0.3937,-0.9843 -0.3937,-1.6447 0,-0.5969 0.1068,-1.0964 0.3206,-1.4986 0.2138,-0.4021 0.5027,-0.6032 0.8668,-0.6032 0.4699,0 0.8488,0.2349 1.1367,0.7048 0.2751,0.4488 0.4127,1.0076 0.4127,1.6764zm-0.5334 -0.0063c0,-0.5207 -0.0804,-0.9504 -0.2413,-1.2891 -0.1736,-0.364 -0.4106,-0.5461 -0.7112,-0.5461 -0.199,0 -0.363,0.1524 -0.4921,0.4572 -0.1291,0.3048 -0.1937,0.6837 -0.1937,1.1367 0,0.5122 0.0783,0.9271 0.235,1.2446 0.1778,0.3598 0.4233,0.5397 0.7366,0.5397 0.1905,0 0.3492,-0.1471 0.4762,-0.4413 0.127,-0.2942 0.1905,-0.6614 0.1905,-1.1017zm-0.1968 -3.2068c0,0.0889 -0.0995,0.1948 -0.2985,0.3175 -0.0635,0.0381 -0.163,0.0911 -0.2984,0.1588l-0.5144 0c0.1651,-0.1778 0.29,-0.3112 0.3747,-0.4001 0.2667,-0.2709 0.4318,-0.4064 0.4953,-0.4064 0.1058,0 0.1756,0.0297 0.2095,0.0889 0.0212,0.0381 0.0318,0.1186 0.0318,0.2413zm3.7465 1.905l0 1.7018 0 0.2731c0,0.5715 -0.0265,0.9588 -0.0794,1.162 -0.0529,0.2033 -0.1301,0.3049 -0.2317,0.3049 -0.2075,0 -0.4107,-0.18 -0.6096,-0.5398 -0.1016,-0.1863 -0.2742,-0.5937 -0.5176,-1.2224 -0.2434,-0.6286 -0.4498,-1.089 -0.6191,-1.3811 0,0.1355 0.0042,0.4138 0.0127,0.835 0.0085,0.4212 0.0127,0.6678 0.0127,0.7398 0,0.4106 -0.0169,0.726 -0.0508,0.9461 -0.0339,0.2202 -0.0995,0.3302 -0.1968,0.3302 -0.1397,0 -0.2403,-0.1174 -0.3017,-0.3524 -0.0614,-0.2349 -0.092,-0.5577 -0.092,-0.9684l0 -1.7907c0,-0.3937 0.0201,-0.6953 0.0603,-0.9048 0.0402,-0.2096 0.1196,-0.3144 0.2381,-0.3144 0.1439,0 0.3408,0.2392 0.5906,0.7176 0.1651,0.3175 0.3862,0.8075 0.6635,1.47 0.2773,0.6625 0.4562,1.0763 0.5366,1.2414l-0.0444 -2.1145c0,-0.4995 0.0232,-0.8869 0.0698,-1.1621 0.0466,-0.2751 0.1291,-0.4127 0.2477,-0.4127 0.1164,0 0.1968,0.1249 0.2423,0.3746 0.0455,0.2498 0.0688,0.6054 0.0688,1.0668zm2.5147 0.2985c0,0.5249 -0.1948,1.1314 -0.5842,1.8193 -0.3895,0.6879 -0.7176,1.0318 -0.9843,1.0318 -0.2117,0 -0.3598,-0.2582 -0.4445,-0.7747 -0.0847,-0.5164 -0.127,-1.325 -0.127,-2.4257l0 -0.8318c0.3006,-0.1439 0.599,-0.2159 0.8954,-0.2159 0.3767,0 0.6731,0.1122 0.889,0.3365 0.237,0.2456 0.3556,0.5991 0.3556,1.0605zm-0.5398 0.0571c0,-0.2921 -0.0339,-0.5058 -0.1016,-0.6413 -0.0889,-0.1778 -0.2455,-0.2667 -0.4699,-0.2667 -0.1397,0 -0.29,0.0402 -0.4508,0.1206 0,0.8001 0.0084,1.4669 0.0254,2.0003 0.0169,0.5334 0.0359,0.8001 0.0571,0.8001 0.3852,-0.5461 0.6382,-0.944 0.7588,-1.1938 0.1207,-0.2498 0.181,-0.5228 0.181,-0.8192zm2.6353 2.2098c0,0.1609 -0.1482,0.29 -0.4445,0.3874 -0.254,0.0847 -0.5355,0.127 -0.8445,0.127 -0.1567,0 -0.2689,-0.0783 -0.3366,-0.235 -0.0508,-0.1185 -0.0762,-0.2783 -0.0762,-0.4773 -0.0042,-0.182 -0.0085,-0.3344 -0.0127,-0.4582 -0.0296,-0.8774 -0.0444,-1.5177 -0.0444,-1.9198 0,-0.4964 0.0127,-0.8964 0.0381,-1.2023l1.1239 -0.1397c0.0423,0 0.072,0 0.0889,0 0.1101,0 0.1969,0.0201 0.2604,0.0603 0.0635,0.0402 0.0952,0.1027 0.0952,0.1873 0,0.072 -0.0423,0.1376 -0.127,0.1969 -0.0847,0.0593 -0.1799,0.0995 -0.2857,0.1206l-0.5842 0.108 0 1.2509 0.5207 -0.0254c0.1651,0 0.2815,0.0297 0.3492,0.0889 0.0677,0.0593 0.1016,0.1397 0.1016,0.2413 0,0.0847 -0.0349,0.1535 -0.1048,0.2064 -0.0698,0.0529 -0.1534,0.0794 -0.2508,0.0794l-0.5778 0.0381 0.0381 1.1747c0.0846,0 0.1957,-0.0095 0.3333,-0.0285 0.1376,-0.0191 0.2657,-0.0371 0.3842,-0.054 0.1058,0 0.1916,0.0201 0.2572,0.0603 0.0656,0.0402 0.0984,0.1111 0.0984,0.2127zm5.1118 -3.7401c0,0.1609 -0.0741,0.5419 -0.2223,1.143 -0.127,0.508 -0.2646,1.0276 -0.4127,1.5589 -0.1482,0.5313 -0.2244,0.7969 -0.2286,0.7969 -0.0731,0.271 -0.145,0.4784 -0.217,0.6223 -0.0889,0.1821 -0.1842,0.2816 -0.2858,0.2985 -0.1651,0.0296 -0.3365,-0.3577 -0.5143,-1.1621l-0.4434 -2.0193c-0.0466,-0.2032 -0.0699,-0.3979 -0.0699,-0.5842 0,-0.11 0.0138,-0.1809 0.0413,-0.2127 0.0275,-0.0317 0.0688,-0.0434 0.1238,-0.0349 0.072,0.0085 0.1365,0.0508 0.1937,0.127 0.0571,0.0762 0.1005,0.1693 0.1302,0.2794l0.5715 2.3622c0.1481,-0.4868 0.3132,-1.1176 0.4953,-1.8923 0.1354,-0.5842 0.2413,-0.9694 0.3175,-1.1557 0.1058,-0.2625 0.2391,-0.3937 0.4,-0.3937 0.0804,0 0.1207,0.0889 0.1207,0.2667zm0.8127 3.7846c0,0.3471 -0.0212,0.599 -0.0624,0.7557 -0.053,0.2032 -0.1461,0.3048 -0.2784,0.3048 -0.0709,0 -0.1217,-0.0858 -0.1524,-0.2572 -0.0307,-0.1715 -0.0465,-0.4096 -0.0465,-0.7144l-0.0826 -2.8321c0,-0.1947 0.0222,-0.345 0.0667,-0.4509 0.0444,-0.1058 0.128,-0.1587 0.2508,-0.1587 0.1185,0 0.199,0.1037 0.2413,0.3111 0.0423,0.2075 0.0635,0.5631 0.0635,1.0668l0 1.9749zm2.8639 -3.7846c0,0.1609 -0.0741,0.5419 -0.2223,1.143 -0.127,0.508 -0.2646,1.0276 -0.4127,1.5589 -0.1482,0.5313 -0.2244,0.7969 -0.2286,0.7969 -0.0731,0.271 -0.145,0.4784 -0.217,0.6223 -0.0889,0.1821 -0.1842,0.2816 -0.2858,0.2985 -0.1651,0.0296 -0.3365,-0.3577 -0.5143,-1.1621l-0.4434 -2.0193c-0.0466,-0.2032 -0.0699,-0.3979 -0.0699,-0.5842 0,-0.11 0.0138,-0.1809 0.0413,-0.2127 0.0275,-0.0317 0.0688,-0.0434 0.1238,-0.0349 0.072,0.0085 0.1365,0.0508 0.1937,0.127 0.0571,0.0762 0.1005,0.1693 0.1302,0.2794l0.5715 2.3622c0.1481,-0.4868 0.3132,-1.1176 0.4953,-1.8923 0.1354,-0.5842 0.2413,-0.9694 0.3175,-1.1557 0.1058,-0.2625 0.2391,-0.3937 0.4,-0.3937 0.0804,0 0.1207,0.0889 0.1207,0.2667zm1.9811 3.7401c0,0.1609 -0.1482,0.29 -0.4445,0.3874 -0.254,0.0847 -0.5355,0.127 -0.8445,0.127 -0.1567,0 -0.2689,-0.0783 -0.3366,-0.235 -0.0508,-0.1185 -0.0762,-0.2783 -0.0762,-0.4773 -0.0042,-0.182 -0.0085,-0.3344 -0.0127,-0.4582 -0.0296,-0.8774 -0.0444,-1.5177 -0.0444,-1.9198 0,-0.4964 0.0127,-0.8964 0.0381,-1.2023l1.1239 -0.1397c0.0423,0 0.072,0 0.0889,0 0.1101,0 0.1969,0.0201 0.2604,0.0603 0.0635,0.0402 0.0952,0.1027 0.0952,0.1873 0,0.072 -0.0423,0.1376 -0.127,0.1969 -0.0847,0.0593 -0.1799,0.0995 -0.2857,0.1206l-0.5842 0.108 0 1.2509 0.5207 -0.0254c0.1651,0 0.2815,0.0297 0.3492,0.0889 0.0677,0.0593 0.1016,0.1397 0.1016,0.2413 0,0.0847 -0.0349,0.1535 -0.1048,0.2064 -0.0698,0.0529 -0.1534,0.0794 -0.2508,0.0794l-0.5778 0.0381 0.0381 1.1747c0.0846,0 0.1957,-0.0095 0.3333,-0.0285 0.1376,-0.0191 0.2657,-0.0371 0.3842,-0.054 0.1058,0 0.1916,0.0201 0.2572,0.0603 0.0656,0.0402 0.0984,0.1111 0.0984,0.2127zm2.7559 -0.6667c0,0.3514 -0.1418,0.6361 -0.4254,0.8541 -0.2837,0.218 -0.6329,0.327 -1.0478,0.327 -0.2286,0 -0.4635,-0.0614 -0.7048,-0.1842 -0.2413,-0.1227 -0.362,-0.2561 -0.362,-0.4 0,-0.0593 0.0286,-0.1154 0.0857,-0.1683 0.0572,-0.0529 0.1217,-0.0794 0.1937,-0.0794 0.0254,0 0.1503,0.0519 0.3747,0.1556 0.2243,0.1037 0.3725,0.1556 0.4445,0.1556 0.2286,0 0.4222,-0.055 0.581,-0.1651 0.1587,-0.1101 0.2381,-0.2625 0.2381,-0.4572 0,-0.2032 -0.1799,-0.3916 -0.5397,-0.5652 -0.3387,-0.1566 -0.6774,-0.3132 -1.016,-0.4699 -0.3641,-0.2116 -0.5461,-0.4572 -0.5461,-0.7366 0,-0.2963 0.1608,-0.5831 0.4826,-0.8604 0.3217,-0.2773 0.6752,-0.4159 1.0604,-0.4159 0.2709,0 0.4445,0.0042 0.5207,0.0127 0.2413,0.0254 0.362,0.1291 0.362,0.3111 0,0.1313 -0.2943,0.2202 -0.8827,0.2667 -0.5884,0.0466 -0.8826,0.2646 -0.8826,0.6541 0,0.2074 0.1778,0.3725 0.5334,0.4953 0.6011,0.2032 0.9313,0.3217 0.9906,0.3556 0.3598,0.2032 0.5397,0.508 0.5397,0.9144zm2.8639 -2.3241c0,0.2032 -0.0995,0.4276 -0.2984,0.6731 -0.2456,0.2455 -0.4911,0.4889 -0.7366,0.7302 -0.0424,0.144 -0.0784,0.2583 -0.108,0.3429 -0.0593,0.1651 -0.1609,0.2477 -0.3048,0.2477 -0.0762,0 -0.127,-0.0212 -0.1524,-0.0635 -0.0085,-0.0212 -0.0148,-0.0847 -0.019,-0.1905 -0.0043,-0.1058 -0.0064,-0.1842 -0.0064,-0.235 0,-0.0296 0,-0.0465 0,-0.0508 0,-0.0042 0,-0.0084 0,-0.0127 0,-0.1397 0.1916,-0.4032 0.5747,-0.7905 0.3831,-0.3874 0.562,-0.6234 0.5366,-0.7081 -0.0593,-0.2074 -0.2329,-0.3111 -0.5207,-0.3111 -0.1313,0 -0.3048,0.0783 -0.5207,0.2349 -0.2286,0.1778 -0.4572,0.3535 -0.6858,0.5271 -0.0381,0 -0.072,-0.0148 -0.1016,-0.0445 -0.0466,-0.0423 -0.0699,-0.0994 -0.0699,-0.1714 0,-0.2074 0.1651,-0.436 0.4953,-0.6858 0.3302,-0.2498 0.6414,-0.3747 0.9335,-0.3747 0.2709,0 0.5027,0.0815 0.6953,0.2445 0.1926,0.163 0.2889,0.3757 0.2889,0.6382zm-0.9588 3.2766c0,0.1016 -0.0254,0.1852 -0.0762,0.2508 -0.0508,0.0656 -0.1292,0.0984 -0.235,0.0984 -0.0974,0 -0.1757,-0.0296 -0.2349,-0.0889 -0.0593,-0.0592 -0.0889,-0.1375 -0.0889,-0.2349 0,-0.0974 0.0275,-0.182 0.0825,-0.254 0.055,-0.072 0.127,-0.1122 0.2159,-0.1207 0.1016,0 0.1831,0.0329 0.2445,0.0985 0.0614,0.0656 0.0921,0.1492 0.0921,0.2508z"/>
  <path class="fil22" d="M300.293 116.827c0,-0.2032 0.0995,-0.4276 0.2985,-0.6731 0.2455,-0.2413 0.491,-0.4847 0.7366,-0.7303 0.0423,-0.1439 0.0783,-0.2582 0.1079,-0.3429 0.0593,-0.1651 0.1609,-0.2476 0.3048,-0.2476 0.0762,0 0.127,0.0212 0.1524,0.0635 0.0127,0.0339 0.0201,0.0995 0.0222,0.1968 0.0021,0.0974 0.0032,0.1948 0.0032,0.2921 0,0.1397 -0.1916,0.4033 -0.5747,0.7906 -0.3831,0.3874 -0.5619,0.6234 -0.5365,0.708 0.0592,0.2075 0.2328,0.3112 0.5207,0.3112 0.1312,0 0.3079,-0.0826 0.5302,-0.2477 0.2222,-0.1651 0.4477,-0.3365 0.6763,-0.5143 0.0381,0 0.0762,0.018 0.1143,0.054 0.0381,0.036 0.0571,0.0899 0.0571,0.1619 0,0.2074 -0.1651,0.436 -0.4953,0.6858 -0.3302,0.2498 -0.6413,0.3746 -0.9334,0.3746 -0.271,0 -0.4996,-0.0783 -0.6858,-0.2349 -0.199,-0.1693 -0.2985,-0.3852 -0.2985,-0.6477zm0.9589 -3.2766c0,-0.1016 0.0254,-0.1852 0.0762,-0.2508 0.0508,-0.0656 0.1291,-0.0985 0.2349,-0.0985 0.0974,0 0.1757,0.0297 0.235,0.0889 0.0592,0.0593 0.0889,0.1376 0.0889,0.235 0,0.0974 -0.0276,0.182 -0.0826,0.254 -0.055,0.072 -0.127,0.1122 -0.2159,0.1206 -0.1016,0 -0.1831,-0.0328 -0.2445,-0.0984 -0.0614,-0.0656 -0.092,-0.1492 -0.092,-0.2508zm3.9243 1.2573c0,0.5249 -0.1948,1.1314 -0.5842,1.8193 -0.3895,0.6879 -0.7176,1.0318 -0.9843,1.0318 -0.2117,0 -0.3598,-0.2582 -0.4445,-0.7747 -0.0847,-0.5164 -0.127,-1.325 -0.127,-2.4257l0 -0.8318c0.3006,-0.1439 0.599,-0.2159 0.8954,-0.2159 0.3767,0 0.6731,0.1122 0.889,0.3365 0.237,0.2456 0.3556,0.5991 0.3556,1.0605zm-0.5398 0.0571c0,-0.2921 -0.0339,-0.5058 -0.1016,-0.6413 -0.0889,-0.1778 -0.2455,-0.2667 -0.4699,-0.2667 -0.1397,0 -0.29,0.0402 -0.4508,0.1206 0,0.8001 0.0084,1.4669 0.0254,2.0003 0.0169,0.5334 0.0359,0.8001 0.0571,0.8001 0.3852,-0.5461 0.6382,-0.944 0.7588,-1.1938 0.1207,-0.2498 0.181,-0.5228 0.181,-0.8192zm2.6353 2.2098c0,0.1609 -0.1482,0.29 -0.4445,0.3874 -0.254,0.0847 -0.5355,0.127 -0.8445,0.127 -0.1567,0 -0.2689,-0.0783 -0.3366,-0.235 -0.0508,-0.1185 -0.0762,-0.2783 -0.0762,-0.4773 -0.0042,-0.182 -0.0085,-0.3344 -0.0127,-0.4582 -0.0296,-0.8774 -0.0444,-1.5177 -0.0444,-1.9198 0,-0.4964 0.0127,-0.8964 0.0381,-1.2023l1.1239 -0.1397c0.0423,0 0.072,0 0.0889,0 0.1101,0 0.1969,0.0201 0.2604,0.0603 0.0635,0.0402 0.0952,0.1027 0.0952,0.1873 0,0.072 -0.0423,0.1376 -0.127,0.1969 -0.0847,0.0593 -0.1799,0.0995 -0.2857,0.1206l-0.5842 0.108 0 1.2509 0.5207 -0.0254c0.1651,0 0.2815,0.0297 0.3492,0.0889 0.0677,0.0593 0.1016,0.1397 0.1016,0.2413 0,0.0847 -0.0349,0.1535 -0.1048,0.2064 -0.0698,0.0529 -0.1534,0.0794 -0.2508,0.0794l-0.5778 0.0381 0.0381 1.1747c0.0846,0 0.1957,-0.0095 0.3333,-0.0285 0.1376,-0.0191 0.2657,-0.0371 0.3842,-0.054 0.1058,0 0.1916,0.0201 0.2572,0.0603 0.0656,0.0402 0.0984,0.1111 0.0984,0.2127zm4.9721 -2.2669c0,0.5249 -0.1948,1.1314 -0.5842,1.8193 -0.3895,0.6879 -0.7176,1.0318 -0.9843,1.0318 -0.2117,0 -0.3598,-0.2582 -0.4445,-0.7747 -0.0847,-0.5164 -0.127,-1.325 -0.127,-2.4257l0 -0.8318c0.3006,-0.1439 0.599,-0.2159 0.8954,-0.2159 0.3767,0 0.6731,0.1122 0.889,0.3365 0.237,0.2456 0.3556,0.5991 0.3556,1.0605zm-0.5398 0.0571c0,-0.2921 -0.0339,-0.5058 -0.1016,-0.6413 -0.0889,-0.1778 -0.2455,-0.2667 -0.4699,-0.2667 -0.1397,0 -0.29,0.0402 -0.4508,0.1206 0,0.8001 0.0084,1.4669 0.0254,2.0003 0.0169,0.5334 0.0359,0.8001 0.0571,0.8001 0.3852,-0.5461 0.6382,-0.944 0.7588,-1.1938 0.1207,-0.2498 0.181,-0.5228 0.181,-0.8192zm3.537 0.9525c0,0.5715 -0.1079,1.0436 -0.3238,1.4161 -0.2329,0.4022 -0.5483,0.6033 -0.9462,0.6033 -0.453,0 -0.8107,-0.2181 -1.0731,-0.6541 -0.2625,-0.436 -0.3937,-0.9843 -0.3937,-1.6447 0,-0.5969 0.1068,-1.0964 0.3206,-1.4986 0.2138,-0.4021 0.5027,-0.6032 0.8668,-0.6032 0.4699,0 0.8488,0.2349 1.1367,0.7048 0.2751,0.4488 0.4127,1.0076 0.4127,1.6764zm-0.5334 -0.0063c0,-0.5207 -0.0804,-0.9504 -0.2413,-1.2891 -0.1736,-0.364 -0.4106,-0.5461 -0.7112,-0.5461 -0.199,0 -0.363,0.1524 -0.4921,0.4572 -0.1291,0.3048 -0.1937,0.6837 -0.1937,1.1367 0,0.5122 0.0783,0.9271 0.235,1.2446 0.1778,0.3598 0.4233,0.5397 0.7366,0.5397 0.1905,0 0.3492,-0.1471 0.4762,-0.4413 0.127,-0.2942 0.1905,-0.6614 0.1905,-1.1017zm-0.1968 -3.2068c0,0.0889 -0.0995,0.1948 -0.2985,0.3175 -0.0635,0.0381 -0.163,0.0911 -0.2984,0.1588l-0.5144 0c0.1651,-0.1778 0.29,-0.3112 0.3747,-0.4001 0.2667,-0.2709 0.4318,-0.4064 0.4953,-0.4064 0.1058,0 0.1756,0.0297 0.2095,0.0889 0.0212,0.0381 0.0318,0.1186 0.0318,0.2413zm3.7465 1.905l0 1.7018 0 0.2731c0,0.5715 -0.0265,0.9588 -0.0794,1.162 -0.0529,0.2033 -0.1301,0.3049 -0.2317,0.3049 -0.2075,0 -0.4107,-0.18 -0.6096,-0.5398 -0.1016,-0.1863 -0.2742,-0.5937 -0.5176,-1.2224 -0.2434,-0.6286 -0.4498,-1.089 -0.6191,-1.3811 0,0.1355 0.0042,0.4138 0.0127,0.835 0.0085,0.4212 0.0127,0.6678 0.0127,0.7398 0,0.4106 -0.0169,0.726 -0.0508,0.9461 -0.0339,0.2202 -0.0995,0.3302 -0.1968,0.3302 -0.1397,0 -0.2403,-0.1174 -0.3017,-0.3524 -0.0614,-0.2349 -0.092,-0.5577 -0.092,-0.9684l0 -1.7907c0,-0.3937 0.0201,-0.6953 0.0603,-0.9048 0.0402,-0.2096 0.1196,-0.3144 0.2381,-0.3144 0.1439,0 0.3408,0.2392 0.5906,0.7176 0.1651,0.3175 0.3862,0.8075 0.6635,1.47 0.2773,0.6625 0.4562,1.0763 0.5366,1.2414l-0.0444 -2.1145c0,-0.4995 0.0232,-0.8869 0.0698,-1.1621 0.0466,-0.2751 0.1291,-0.4127 0.2477,-0.4127 0.1164,0 0.1968,0.1249 0.2423,0.3746 0.0455,0.2498 0.0688,0.6054 0.0688,1.0668zm2.5147 0.2985c0,0.5249 -0.1948,1.1314 -0.5842,1.8193 -0.3895,0.6879 -0.7176,1.0318 -0.9843,1.0318 -0.2117,0 -0.3598,-0.2582 -0.4445,-0.7747 -0.0847,-0.5164 -0.127,-1.325 -0.127,-2.4257l0 -0.8318c0.3006,-0.1439 0.599,-0.2159 0.8954,-0.2159 0.3767,0 0.6731,0.1122 0.889,0.3365 0.237,0.2456 0.3556,0.5991 0.3556,1.0605zm-0.5398 0.0571c0,-0.2921 -0.0339,-0.5058 -0.1016,-0.6413 -0.0889,-0.1778 -0.2455,-0.2667 -0.4699,-0.2667 -0.1397,0 -0.29,0.0402 -0.4508,0.1206 0,0.8001 0.0084,1.4669 0.0254,2.0003 0.0169,0.5334 0.0359,0.8001 0.0571,0.8001 0.3852,-0.5461 0.6382,-0.944 0.7588,-1.1938 0.1207,-0.2498 0.181,-0.5228 0.181,-0.8192zm2.6353 2.2098c0,0.1609 -0.1482,0.29 -0.4445,0.3874 -0.254,0.0847 -0.5355,0.127 -0.8445,0.127 -0.1567,0 -0.2689,-0.0783 -0.3366,-0.235 -0.0508,-0.1185 -0.0762,-0.2783 -0.0762,-0.4773 -0.0042,-0.182 -0.0085,-0.3344 -0.0127,-0.4582 -0.0296,-0.8774 -0.0444,-1.5177 -0.0444,-1.9198 0,-0.4964 0.0127,-0.8964 0.0381,-1.2023l1.1239 -0.1397c0.0423,0 0.072,0 0.0889,0 0.1101,0 0.1969,0.0201 0.2604,0.0603 0.0635,0.0402 0.0952,0.1027 0.0952,0.1873 0,0.072 -0.0423,0.1376 -0.127,0.1969 -0.0847,0.0593 -0.1799,0.0995 -0.2857,0.1206l-0.5842 0.108 0 1.2509 0.5207 -0.0254c0.1651,0 0.2815,0.0297 0.3492,0.0889 0.0677,0.0593 0.1016,0.1397 0.1016,0.2413 0,0.0847 -0.0349,0.1535 -0.1048,0.2064 -0.0698,0.0529 -0.1534,0.0794 -0.2508,0.0794l-0.5778 0.0381 0.0381 1.1747c0.0846,0 0.1957,-0.0095 0.3333,-0.0285 0.1376,-0.0191 0.2657,-0.0371 0.3842,-0.054 0.1058,0 0.1916,0.0201 0.2572,0.0603 0.0656,0.0402 0.0984,0.1111 0.0984,0.2127zm4.6609 0c0,0.1609 -0.1482,0.29 -0.4445,0.3874 -0.254,0.0847 -0.5355,0.127 -0.8445,0.127 -0.1567,0 -0.2689,-0.0783 -0.3366,-0.235 -0.0508,-0.1185 -0.0762,-0.2783 -0.0762,-0.4773 -0.0042,-0.182 -0.0085,-0.3344 -0.0127,-0.4582 -0.0296,-0.8774 -0.0444,-1.5177 -0.0444,-1.9198 0,-0.4964 0.0127,-0.8964 0.0381,-1.2023l1.1239 -0.1397c0.0423,0 0.072,0 0.0889,0 0.1101,0 0.1969,0.0201 0.2604,0.0603 0.0635,0.0402 0.0952,0.1027 0.0952,0.1873 0,0.072 -0.0423,0.1376 -0.127,0.1969 -0.0847,0.0593 -0.1799,0.0995 -0.2857,0.1206l-0.5842 0.108 0 1.2509 0.5207 -0.0254c0.1651,0 0.2815,0.0297 0.3492,0.0889 0.0677,0.0593 0.1016,0.1397 0.1016,0.2413 0,0.0847 -0.0349,0.1535 -0.1048,0.2064 -0.0698,0.0529 -0.1534,0.0794 -0.2508,0.0794l-0.5778 0.0381 0.0381 1.1747c0.0846,0 0.1957,-0.0095 0.3333,-0.0285 0.1376,-0.0191 0.2657,-0.0371 0.3842,-0.054 0.1058,0 0.1916,0.0201 0.2572,0.0603 0.0656,0.0402 0.0984,0.1111 0.0984,0.2127zm3.0734 0.381c-0.0085,0.0551 -0.0212,0.0953 -0.0381,0.1207 -0.0508,0.0804 -0.1376,0.1206 -0.2603,0.1206 -0.3599,0 -0.7557,-0.1778 -1.1875,-0.5334 -0.4318,-0.3556 -0.6286,-0.6455 -0.5905,-0.8699 0,-0.0466 0.2349,-0.1863 0.7048,-0.4191 0.4699,-0.2328 0.7049,-0.4868 0.7049,-0.762 0,-0.2709 -0.1038,-0.5101 -0.3112,-0.7176 -0.2074,-0.2074 -0.453,-0.3111 -0.7366,-0.3111 -0.1778,0 -0.3492,0.0381 -0.5143,0.1143l0 2.4193c0,0.4742 -0.0223,0.8308 -0.0657,1.07 -0.0444,0.2392 -0.1164,0.3588 -0.2169,0.3588 -0.126,0 -0.2138,-0.1281 -0.2646,-0.3842 -0.0497,-0.2561 -0.0751,-0.6233 -0.0751,-1.1017l0 -1.7971c0,-0.5461 0.0582,-0.89 0.1746,-1.0318 0.1153,-0.1418 0.3958,-0.2128 0.8392,-0.2128 0.5112,0 0.9166,0.1016 1.2161,0.3048 0.346,0.2329 0.5196,0.5821 0.5196,1.0478 0,0.4149 -0.0868,0.7218 -0.2603,0.9207 -0.1567,0.1778 -0.4975,0.3874 -1.0224,0.6287 0.2244,0.2794 0.4741,0.4889 0.7493,0.6286 0.4233,0.2159 0.635,0.3514 0.635,0.4064zm2.14 -0.381c0,0.1609 -0.1482,0.29 -0.4445,0.3874 -0.254,0.0847 -0.5355,0.127 -0.8445,0.127 -0.1567,0 -0.2689,-0.0783 -0.3366,-0.235 -0.0508,-0.1185 -0.0762,-0.2783 -0.0762,-0.4773 -0.0042,-0.182 -0.0085,-0.3344 -0.0127,-0.4582 -0.0296,-0.8774 -0.0444,-1.5177 -0.0444,-1.9198 0,-0.4964 0.0127,-0.8964 0.0381,-1.2023l1.1239 -0.1397c0.0423,0 0.072,0 0.0889,0 0.1101,0 0.1969,0.0201 0.2604,0.0603 0.0635,0.0402 0.0952,0.1027 0.0952,0.1873 0,0.072 -0.0423,0.1376 -0.127,0.1969 -0.0847,0.0593 -0.1799,0.0995 -0.2857,0.1206l-0.5842 0.108 0 1.2509 0.5207 -0.0254c0.1651,0 0.2815,0.0297 0.3492,0.0889 0.0677,0.0593 0.1016,0.1397 0.1016,0.2413 0,0.0847 -0.0349,0.1535 -0.1048,0.2064 -0.0698,0.0529 -0.1534,0.0794 -0.2508,0.0794l-0.5778 0.0381 0.0381 1.1747c0.0846,0 0.1957,-0.0095 0.3333,-0.0285 0.1376,-0.0191 0.2657,-0.0371 0.3842,-0.054 0.1058,0 0.1916,0.0201 0.2572,0.0603 0.0656,0.0402 0.0984,0.1111 0.0984,0.2127zm2.7559 -0.6667c0,0.3514 -0.1418,0.6361 -0.4254,0.8541 -0.2837,0.218 -0.6329,0.327 -1.0478,0.327 -0.2286,0 -0.4635,-0.0614 -0.7048,-0.1842 -0.2413,-0.1227 -0.362,-0.2561 -0.362,-0.4 0,-0.0593 0.0286,-0.1154 0.0857,-0.1683 0.0572,-0.0529 0.1217,-0.0794 0.1937,-0.0794 0.0254,0 0.1503,0.0519 0.3747,0.1556 0.2243,0.1037 0.3725,0.1556 0.4445,0.1556 0.2286,0 0.4222,-0.055 0.581,-0.1651 0.1587,-0.1101 0.2381,-0.2625 0.2381,-0.4572 0,-0.2032 -0.1799,-0.3916 -0.5397,-0.5652 -0.3387,-0.1566 -0.6774,-0.3132 -1.016,-0.4699 -0.3641,-0.2116 -0.5461,-0.4572 -0.5461,-0.7366 0,-0.2963 0.1608,-0.5831 0.4826,-0.8604 0.3217,-0.2773 0.6752,-0.4159 1.0604,-0.4159 0.2709,0 0.4445,0.0042 0.5207,0.0127 0.2413,0.0254 0.362,0.1291 0.362,0.3111 0,0.1313 -0.2943,0.2202 -0.8827,0.2667 -0.5884,0.0466 -0.8826,0.2646 -0.8826,0.6541 0,0.2074 0.1778,0.3725 0.5334,0.4953 0.6011,0.2032 0.9313,0.3217 0.9906,0.3556 0.3598,0.2032 0.5397,0.508 0.5397,0.9144zm2.8639 -2.3241c0,0.2032 -0.0995,0.4276 -0.2984,0.6731 -0.2456,0.2455 -0.4911,0.4889 -0.7366,0.7302 -0.0424,0.144 -0.0784,0.2583 -0.108,0.3429 -0.0593,0.1651 -0.1609,0.2477 -0.3048,0.2477 -0.0762,0 -0.127,-0.0212 -0.1524,-0.0635 -0.0085,-0.0212 -0.0148,-0.0847 -0.019,-0.1905 -0.0043,-0.1058 -0.0064,-0.1842 -0.0064,-0.235 0,-0.0296 0,-0.0465 0,-0.0508 0,-0.0042 0,-0.0084 0,-0.0127 0,-0.1397 0.1916,-0.4032 0.5747,-0.7905 0.3831,-0.3874 0.562,-0.6234 0.5366,-0.7081 -0.0593,-0.2074 -0.2329,-0.3111 -0.5207,-0.3111 -0.1313,0 -0.3048,0.0783 -0.5207,0.2349 -0.2286,0.1778 -0.4572,0.3535 -0.6858,0.5271 -0.0381,0 -0.072,-0.0148 -0.1016,-0.0445 -0.0466,-0.0423 -0.0699,-0.0994 -0.0699,-0.1714 0,-0.2074 0.1651,-0.436 0.4953,-0.6858 0.3302,-0.2498 0.6414,-0.3747 0.9335,-0.3747 0.2709,0 0.5027,0.0815 0.6953,0.2445 0.1926,0.163 0.2889,0.3757 0.2889,0.6382zm-0.9588 3.2766c0,0.1016 -0.0254,0.1852 -0.0762,0.2508 -0.0508,0.0656 -0.1292,0.0984 -0.235,0.0984 -0.0974,0 -0.1757,-0.0296 -0.2349,-0.0889 -0.0593,-0.0592 -0.0889,-0.1375 -0.0889,-0.2349 0,-0.0974 0.0275,-0.182 0.0825,-0.254 0.055,-0.072 0.127,-0.1122 0.2159,-0.1207 0.1016,0 0.1831,0.0329 0.2445,0.0985 0.0614,0.0656 0.0921,0.1492 0.0921,0.2508z"/>
  <g id="_404487528">
   <g>
    <path id="_404483448" class="fil0 str0" d="M92.4363 128.943c0.7088,-0.5379 2.1561,0.1753 3.232,1.5928 1.076,1.4176 1.3738,3.0034 0.665,3.5413 -0.7087,0.538 -2.156,-0.1752 -3.232,-1.5928 -1.076,-1.4175 -1.3737,-3.0033 -0.665,-3.5413zm54.5554 -6.8919c-0.8203,-0.3448 -2.0447,0.706 -2.7344,2.3465 -0.6896,1.6406 -0.5837,3.2506 0.2366,3.5954 0.8203,0.3449 2.0448,-0.7059 2.7344,-2.3465 0.6896,-1.6406 0.5837,-3.2506 -0.2366,-3.5954z"/>
    <path id="_404484072" class="fil0 str0" d="M116.076 96.6989c27.3582,-3.4562 27.3229,14.174 29.076,28.0512 1.7531,13.8771 -8.8492,20.4583 -22.7264,22.2114 -13.8772,1.7531 -25.7831,-1.9846 -27.5362,-15.8618 -1.7531,-13.8772 -6.1717,-30.9447 21.1866,-34.4008z"/>
    <path id="_404484216" class="fil3 str0" d="M118.272 130.675c0,0 2.1877,0.9877 4.1257,-0.5212"/>
    <path id="_404484360" class="fil15 str5" d="M110.324 109.808c-0.436,0.6192 -0.3131,2.8566 -5.3238,3.6411 -5.0106,0.7846 -5.761,1.8177 -7.1795,7.3765 -1.4184,5.5588 -1.4556,16.2312 -1.4556,16.2312 0,0 -2.3399,-6.5969 -4.5162,-10.8522 -2.1763,-4.2553 -3.7733,-16.1341 5.5213,-23.443 8.2032,-6.4507 16.6381,-7.4904 18.5061,-7.6455 1.8479,-0.3143 10.2764,-1.405 19.8261,2.803 10.8203,4.7678 12.2275,16.6706 11.1779,21.3335 -1.0497,4.6628 -1.6755,11.6343 -1.6755,11.6343 0,0 -2.6901,-10.3278 -5.4464,-15.3592 -2.7563,-5.0315 -18.324,-4.0032 -23.3724,-3.517 -5.0483,0.4863 -5.4857,-1.7114 -6.062,-2.2027z"/>
    <path id="_404483712" class="fil17" d="M133.66 100.32c0,0 4.3896,2.6501 4.8758,6.689 0,0 -2.1803,-3.3987 -4.8758,-6.689z"/>
    <path id="_404484864" class="fil17" d="M126.252 98.9206c0,0 4.3896,2.6501 4.8758,6.689 0,0 -2.1803,-3.3987 -4.8758,-6.689z"/>
    <path id="_404483736" class="fil17" d="M118.652 97.8243c0,0 4.3896,2.6501 4.8759,6.689 0,0 -2.1804,-3.3987 -4.8759,-6.689z"/>
    <path id="_404485032" class="fil17" d="M101.485 102.049c0,0 -3.5926,3.6586 -3.0591,7.6915 0,0 1.2666,-3.8342 3.0591,-7.6915z"/>
    <path id="_404485368" class="fil23" d="M103.866 134.12c1.6737,-0.2115 3.2026,0.9743 3.4141,2.6482 0.2114,1.6739 -0.9746,3.2026 -2.6483,3.4141 -1.6738,0.2114 -3.2028,-0.9744 -3.4142,-2.6482 -0.2115,-1.6739 0.9745,-3.2027 2.6484,-3.4141zm33.3434 -4.2123c1.6737,-0.2114 3.2027,0.9746 3.4141,2.6483 0.2115,1.6739 -0.9745,3.2027 -2.6482,3.4141 -1.6739,0.2115 -3.2028,-0.9743 -3.4142,-2.6482 -0.2115,-1.6738 0.9745,-3.2027 2.6483,-3.4142z"/>
    <path id="_404486232" class="fil21" d="M105.419 123.819c1.6948,0.2322 2.9519,1.2796 2.8068,2.339 -0.1451,1.0594 -1.6376,1.7302 -3.3324,1.498 -1.6948,-0.2321 -2.9519,-1.2795 -2.8068,-2.339 0.1451,-1.0594 1.6376,-1.7301 3.3324,-1.498z"/>
    <g style="clip-path:url(#id10)">
     <g>
      <circle id="_591613920" class="fil15" transform="matrix(2.8957 -0.365811 0.365811 2.8957 105.156 125.737)" r="0.682"/>
     </g>
    </g>
    <path class="fil3 str5" d="M105.419 123.819c1.6948,0.2322 2.9519,1.2796 2.8068,2.339 -0.1451,1.0594 -1.6376,1.7302 -3.3324,1.498 -1.6948,-0.2321 -2.9519,-1.2795 -2.8068,-2.339 0.1451,-1.0594 1.6376,-1.7301 3.3324,-1.498z"/>
    <path id="_404484312" class="fil15" d="M100.771 122.99c0,0 4.213,-1.2418 8.6523,-0.6913 0,0 -4.0478,-4.21 -8.6523,0.6913z"/>
    <path id="_404486376" class="fil21" d="M133.257 120.302c-1.5838,0.6464 -2.541,1.9735 -2.137,2.9636 0.4041,0.99 2.0165,1.2685 3.6003,0.6222 1.5838,-0.6463 2.541,-1.9735 2.137,-2.9635 -0.4041,-0.9901 -2.0165,-1.2686 -3.6003,-0.6223z"/>
    <g style="clip-path:url(#id11)">
     <g>
      <circle id="_591618816" class="fil15" transform="matrix(-2.8957 0.365811 0.365811 2.8957 133.989 122.095)" r="0.682"/>
     </g>
    </g>
    <path class="fil3 str5" d="M133.257 120.302c-1.5838,0.6464 -2.541,1.9735 -2.137,2.9636 0.4041,0.99 2.0165,1.2685 3.6003,0.6222 1.5838,-0.6463 2.541,-1.9735 2.137,-2.9635 -0.4041,-0.9901 -2.0165,-1.2686 -3.6003,-0.6223z"/>
    <path id="_404486160" class="fil15" d="M137.553 118.343c0,0 -4.3894,-0.155 -8.5523,1.4822 0,0 2.8736,-5.0844 8.5523,-1.4822z"/>
    <path id="_404486040" class="fil17" d="M117.187 105.493l25.2967 -3.1957c0,0 0.6788,-8.9445 -4.061,-21.5255 -4.7399,-12.5809 -25.1251,-6.067 -25.1251,-6.067 0,0 -21.3648,-1.2397 -22.8269,12.1248 -1.4622,13.3644 1.4197,21.8591 1.4197,21.8591l25.2966 -3.1957z"/>
    <g style="clip-path:url(#id12)">
     <g>
      <ellipse id="_591622488" class="fil12" transform="matrix(1.76862 -0.223428 0.223428 1.76862 116.67 101.399)" rx="34.4432" ry="3.2682"/>
     </g>
    </g>
    <path class="fil3 str10" d="M117.187 105.493l25.2967 -3.1957c0,0 0.6788,-8.9445 -4.061,-21.5255 -4.7399,-12.5809 -25.1251,-6.067 -25.1251,-6.067 0,0 -21.3648,-1.2397 -22.8269,12.1248 -1.4622,13.3644 1.4197,21.8591 1.4197,21.8591l25.2966 -3.1957z"/>
    <ellipse id="_404484456" class="fil17 str10" transform="matrix(0.992115 -0.125333 0.125333 0.992115 117.301 106.397)" rx="34.4432" ry="3.2682"/>
   </g>
   <path id="_404487816" class="fil24 str11" d="M123.924 138.588c0.1918,1.5155 -0.8818,2.9002 -2.3973,3.0919 -1.5155,0.1918 -2.9001,-0.8818 -3.0919,-2.3973l5.4892 -0.6946z"/>
  </g>
  <g id="_404490216">
   <g>
    <path id="_404486664" class="fil13" d="M275.887 118.456c-1.6795,0.4487 -2.0346,3.7887 0.7047,3.7162 2.7393,-0.0725 1.983,-4.4342 -0.7047,-3.7162z"/>
    <path id="_404486592" class="fil8" d="M275.923 119.363c-0.9634,0.1639 -1.0032,1.9979 0.6014,2.0961 0.3852,0.0236 0.6393,-0.1003 0.7823,-0.2982 -0.0517,0.0028 -0.106,0.0029 -0.1635,-0.0006 -1.2759,-0.0781 -1.512,-1.2537 -1.0709,-1.8144 -0.0488,0.0029 -0.0986,0.0085 -0.1493,0.0171z"/>
    <path id="_404487336" class="fil0 str12" d="M223.766 125.375c0.8008,-0.3366 1.9963,0.6893 2.6696,2.2909 0.6732,1.6017 0.5698,3.1736 -0.231,3.5102 -0.8009,0.3367 -1.9963,-0.6892 -2.6696,-2.2909 -0.6733,-1.6017 -0.5698,-3.1735 0.231,-3.5102zm53.2623 6.7286c-0.6919,-0.5252 -2.1049,0.1711 -3.1554,1.5551 -1.0505,1.3839 -1.3412,2.9321 -0.6492,3.4573 0.692,0.5253 2.105,-0.1711 3.1554,-1.555 1.0505,-1.3839 1.3412,-2.9322 0.6492,-3.4574z"/>
    <path id="_404487600" class="fil0 str0" d="M253.949 100.624c26.7098,3.3742 22.3959,20.0372 20.6844,33.5855 -1.7116,13.5482 -13.3353,17.1973 -26.8836,15.4858 -13.5483,-1.7116 -23.8993,-8.1367 -22.1878,-21.685 1.7116,-13.5483 1.6772,-30.7606 28.387,-27.3863z"/>
    <path id="_404489496" class="fil3 str0" d="M247.645 134.328c0,0 1.8349,1.418 4.0279,0.5089"/>
    <path id="_404488248" class="fil15 str13" d="M250.507 113.299c-0.5513,-0.406 -3.3566,2.1404 -5.6009,1.7325 -3.4648,-0.6297 1.1879,-4.6637 -1.0114,-4.7429 -13.0536,-0.4702 -16.752,12.6251 -18.1291,21.6969 0,0 -0.8656,-4.7909 -1.8904,-9.3432 -1.0248,-4.5523 0.3492,-16.173 10.913,-20.8278 9.3233,-4.1082 17.552,-3.0434 19.3561,-2.7366 1.8238,0.1515 10.0588,1.1665 18.0675,7.4643 9.0744,7.1357 7.5152,18.733 5.3905,22.8874 -2.1248,4.1545 -4.1545,8.5795 -4.1545,8.5795 0.9517,-7.9842 1.1477,-19.2211 -7.5099,-23.496 -2.7608,-1.3633 -3.0304,3.4224 -8.0997,2.8174 -0.9928,-0.1185 2.2365,-3.6933 1.2162,-3.7488 -4.2351,-0.2298 -4.5298,4.4894 -8.5973,3.8552 -2.9517,-0.4601 1.7308,-2.8999 0.0499,-4.1379z"/>
    <path id="_404488896" class="fil23" d="M233.317 133.045c1.634,0.2064 2.7919,1.6989 2.5855,3.3332 -0.2065,1.6341 -1.6991,2.7918 -3.3332,2.5854 -1.6342,-0.2065 -2.792,-1.699 -2.5856,-3.3332 0.2064,-1.6342 1.6991,-2.7919 3.3333,-2.5854zm32.5532 4.1124c1.634,0.2064 2.7919,1.6991 2.5855,3.3332 -0.2065,1.6342 -1.6992,2.7919 -3.3332,2.5855 -1.6342,-0.2065 -2.7921,-1.699 -2.5856,-3.3332 0.2064,-1.6341 1.6991,-2.792 3.3333,-2.5855z"/>
    <path id="_404488488" class="fil15" d="M269.466 126.788c0,0 -4.3216,-1.2387 -8.6557,-0.7012 0,0 -0.4569,-1.7779 1.1906,-2.3043 0.987,-0.3152 4.8182,0.0781 5.9752,0.2387 1.1905,0.1653 1.4899,2.7668 1.4899,2.7668z"/>
    <path id="_404489760" class="fil15" d="M232.545 122.124c0,0 4.4939,-0.125 8.5582,1.4734 0,0 0.8847,-1.6084 -0.5802,-2.528 -0.8776,-0.5507 -4.6863,-1.1225 -5.8468,-1.2548 -1.1942,-0.1359 -2.1312,2.3094 -2.1312,2.3094z"/>
    <path id="_404488968" class="fil21" d="M264.963 127.244c-1.6971,-0.2144 -3.1826,0.4719 -3.3166,1.5328 -0.134,1.0609 1.1341,2.0951 2.8312,2.3095 1.6971,0.2144 3.1825,-0.472 3.3165,-1.5329 0.1341,-1.0608 -1.134,-2.095 -2.8311,-2.3094z"/>
    <g style="clip-path:url(#id13)">
     <g>
      <circle id="_591622848" class="fil15" transform="matrix(-2.70235 -1.10281 -1.10281 2.70235 264.72 129.165)" r="0.682"/>
     </g>
    </g>
    <path class="fil3 str5" d="M264.963 127.244c-1.6971,-0.2144 -3.1826,0.4719 -3.3166,1.5328 -0.134,1.0609 1.1341,2.0951 2.8312,2.3095 1.6971,0.2144 3.1825,-0.472 3.3165,-1.5329 0.1341,-1.0608 -1.134,-2.095 -2.8311,-2.3094z"/>
    <path id="_404489328" class="fil21" d="M236.793 123.685c1.6971,0.2144 2.9652,1.2486 2.8311,2.3095 -0.134,1.0609 -1.6194,1.7472 -3.3165,1.5328 -1.6971,-0.2144 -2.9652,-1.2486 -2.8312,-2.3094 0.134,-1.0609 1.6195,-1.7473 3.3166,-1.5329z"/>
    <g style="clip-path:url(#id14)">
     <g>
      <circle id="_591629160" class="fil15" transform="matrix(2.89171 -0.396114 0.396114 2.89171 236.551 125.606)" r="0.682"/>
     </g>
    </g>
    <path class="fil3 str5" d="M236.793 123.685c1.6971,0.2144 2.9652,1.2486 2.8311,2.3095 -0.134,1.0609 -1.6194,1.7472 -3.3165,1.5328 -1.6971,-0.2144 -2.9652,-1.2486 -2.8312,-2.3094 0.134,-1.0609 1.6195,-1.7473 3.3166,-1.5329z"/>
    <g>
     <path id="_404489976" class="fil17" d="M253.297 105.786l25.2967 3.1957c0.3669,0.0464 10.4919,-35.8347 -21.4072,-33.9839 -30.4367,-9.7257 -29.5531,27.5462 -29.1861,27.5925l25.2966 3.1957z"/>
     <g style="clip-path:url(#id15)">
      <g>
       <ellipse id="_591625800" class="fil6" transform="matrix(1.76862 0.223428 -0.223428 1.76862 253.814 101.693)" rx="34.4432" ry="3.2682"/>
      </g>
     </g>
     <path class="fil3 str10" d="M253.297 105.786l25.2967 3.1957c0.3669,0.0464 10.4919,-35.8347 -21.4072,-33.9839 -30.4367,-9.7257 -29.5531,27.5462 -29.1861,27.5925l25.2966 3.1957z"/>
     <path id="_404489832" class="fil17 str10" d="M253.555 103.746c22.1161,2.794 39.9059,6.2142 39.6797,8.0046 -0.2261,1.7903 -18.6586,3.457 -40.7747,0.6631 -22.1161,-2.794 -39.5549,-8.9922 -39.3287,-10.7826 0.2262,-1.7903 18.3076,-0.679 40.4237,2.1149z"/>
    </g>
   </g>
   <path id="_404489928" class="fil24 str11" d="M251.339 141.614c-0.2196,1.5117 -1.6237,2.5597 -3.1354,2.3402 -1.5117,-0.2195 -2.5597,-1.6236 -2.3402,-3.1353l5.4756 0.7951z"/>
  </g>
 </g>
</svg>
