<?xml version="1.0" encoding="UTF-8"?>
<!DOCTYPE svg PUBLIC "-//W3C//DTD SVG 1.1//EN" "http://www.w3.org/Graphics/SVG/1.1/DTD/svg11.dtd">
<!-- Creator: CorelDRAW -->
<svg xmlns="http://www.w3.org/2000/svg" xml:space="preserve" width="420mm" height="297mm" style="shape-rendering:geometricPrecision; text-rendering:geometricPrecision; image-rendering:optimizeQuality; fill-rule:evenodd; clip-rule:evenodd"
viewBox="0 0 420 297"
 xmlns:xlink="http://www.w3.org/1999/xlink">
 <defs>
  <style type="text/css">
   <![CDATA[
    .str11 {stroke:#1F1A17;stroke-width:0.75}
    .str4 {stroke:#1F1A17;stroke-width:0.75;stroke-linecap:round;stroke-linejoin:round}
    .str13 {stroke:#383431;stroke-width:0.75}
    .str2 {stroke:#383431;stroke-width:0.75;stroke-linecap:round;stroke-linejoin:round}
    .str7 {stroke:#5F4E5D;stroke-width:0.75;stroke-linecap:round;stroke-linejoin:round}
    .str0 {stroke:#8F5444;stroke-width:0.75;stroke-linecap:round;stroke-linejoin:round}
    .str8 {stroke:#969594;stroke-width:0.75;stroke-linecap:round;stroke-linejoin:round}
    .str3 {stroke:#1E3D55;stroke-width:0.75}
    .str1 {stroke:#1E3D55;stroke-width:0.75;stroke-linecap:round;stroke-linejoin:round}
    .str6 {stroke:#75445A;stroke-width:0.75;stroke-linecap:round;stroke-linejoin:round}
    .str12 {stroke:#8A2C2F;stroke-width:0.75;stroke-linecap:round;stroke-linejoin:round}
    .str5 {stroke:#605D5C;stroke-linecap:round;stroke-linejoin:round}
    .str9 {stroke:#8F5444;stroke-linecap:round;stroke-linejoin:round}
    .str10 {stroke:#1F1A17;stroke-width:1.5;stroke-linecap:round;stroke-linejoin:round}
    .fil3 {fill:none}
    .fil12 {fill:#1F1A17}
    .fil5 {fill:#383431}
    .fil14 {fill:#4D4948}
    .fil18 {fill:#5F4E5D}
    .fil7 {fill:#605D5C}
    .fil6 {fill:#838281}
    .fil15 {fill:#90546F}
    .fil24 {fill:#958089}
    .fil8 {fill:#969594}
    .fil17 {fill:#9A7A99}
    .fil2 {fill:#AAA9A9}
    .fil22 {fill:#B76767}
    .fil13 {fill:#C0A0AE}
    .fil19 {fill:#C2C1C1}
    .fil23 {fill:#DB214C}
    .fil20 {fill:white}
    .fil0 {fill:#C3957D}
    .fil1 {fill:#0779A1}
    .fil11 {fill:#0F6386}
    .fil10 {fill:#195574}
    .fil4 {fill:#1E3D55}
    .fil9 {fill:#453C35}
    .fil16 {fill:#75445A}
    .fil21 {fill:#1F1A17;fill-rule:nonzero}
   ]]>
  </style>
     <clipPath id="id0">
      <path d="M233.743 153.875c-2.165,-1.2498 -7.042,1.9943 -10.3446,12.5258 -1.5586,4.9702 -1.0823,12.1983 3.5607,13.3556 6.6188,1.6499 15.3106,-3.979 15.3106,-3.979l-3.9956 -7.2157c-5.5791,3.3134 -7.4065,2.0341 -6.0107,-1.1399 1.5926,-3.6222 3.6446,-12.2969 1.4796,-13.5468z"/>
     </clipPath>
     <clipPath id="id1">
      <path d="M262.47 153.875c2.165,-1.2498 7.042,1.9943 10.3446,12.5258 1.5586,4.9702 1.0823,12.1983 -3.5607,13.3556 -6.6188,1.6499 -15.3106,-3.979 -15.3106,-3.979l3.9956 -7.2157c5.5791,3.3134 7.4065,2.0341 6.0107,-1.1399 -1.5926,-3.6222 -3.6446,-12.2969 -1.4796,-13.5468z"/>
     </clipPath>
    <clipPath id="id2">
     <path d="M245.17 213.384c0.2657,-3.4711 -2.3037,-5.0804 -5.6044,-5.3331 -3.3006,-0.2527 -6.0849,0.9468 -6.3506,4.418 -0.1139,1.4873 0.0848,3.8188 6.1394,3.9695 6.0545,0.1506 5.7021,-1.5722 5.8156,-3.0544z"/>
    </clipPath>
    <clipPath id="id3">
     <path d="M251.043 213.384c-0.2657,-3.4711 2.3037,-5.0804 5.6044,-5.3331 3.3006,-0.2527 6.0849,0.9468 6.3506,4.418 0.1139,1.4873 -0.0848,3.8188 -6.1394,3.9695 -6.0545,0.1506 -5.7021,-1.5722 -5.8156,-3.0544z"/>
    </clipPath>
    <clipPath id="id4">
     <path d="M248.102 188.242c-0.0596,1.2457 -3.7696,18.4368 -3.7696,18.4368 0,0 -2.4096,1.8423 -11.4121,-0.57 -3.1711,-9.5366 -0.9073,-32.747 -0.7276,-33.3156l15.1762 -0.0347 0.6977 -0.0016 0.6977 -0.0016 15.1762 -0.0347c0.1823,0.5677 2.5523,23.7675 -0.5751,33.3185 -8.9914,2.4535 -11.4093,0.6223 -11.4093,0.6223 0,0 -3.7887,-17.174 -3.8541,-18.4194z"/>
    </clipPath>
   <clipPath id="id5">
    <path d="M248.107 185.414c-12.5399,-1.5112 -31.0455,-20.1305 -25.3819,-30.703 2.1158,-3.9495 20.1139,-5.0137 25.3819,-4.9924 5.268,-0.0213 23.2661,1.0429 25.3819,4.9924 5.6636,10.5725 -12.8419,29.1918 -25.3819,30.703z"/>
   </clipPath>
    <clipPath id="id6">
     <path d="M105.069 151.297c-2.165,-1.2499 -7.042,1.9943 -10.3446,12.5257 -1.5586,4.9702 -1.0823,12.1983 3.5607,13.3557 6.6188,1.6498 15.3106,-3.9791 15.3106,-3.9791l-3.9956 -7.2156c-5.5792,3.3133 -7.4065,2.0341 -6.0107,-1.14 1.5926,-3.6222 3.6446,-12.2969 1.4796,-13.5467z"/>
    </clipPath>
    <clipPath id="id7">
     <path d="M134.535 151.044c2.9912,0.4362 7.0418,1.9941 10.3446,12.5257 3.3028,10.5316 2.6796,19.6299 2.6796,19.6299l-8.2881 0c0,0 -1.5116,-15.0568 -3.2565,-18.6088 -1.7449,-3.5521 -1.4796,-13.5468 -1.4796,-13.5468z"/>
    </clipPath>
    <clipPath id="id8">
     <path d="M262.37 125.96c-1.7106,0 -3.0982,0.8671 -3.0982,1.9365 0,1.0693 1.3876,1.9364 3.0982,1.9364 1.7106,0 3.0983,-0.8671 3.0983,-1.9364 0,-1.0694 -1.3877,-1.9365 -3.0983,-1.9365z"/>
    </clipPath>
    <clipPath id="id9">
     <path d="M233.976 125.96c1.7106,0 3.0982,0.8671 3.0982,1.9365 0,1.0693 -1.3876,1.9364 -3.0982,1.9364 -1.7106,0 -3.0983,-0.8671 -3.0983,-1.9364 0,-1.0694 1.3877,-1.9365 3.0983,-1.9365z"/>
    </clipPath>
     <clipPath id="id10">
      <path d="M248.107 106.135l25.4977 0c0.3699,0 5.9179,-36.8672 -25.4977,-31.0329 -31.4156,-5.8343 -25.8676,31.0329 -25.4977,31.0329l25.4977 0z"/>
     </clipPath>
     <clipPath id="id11">
      <path d="M120.066 158.693c-0.4575,-9.4422 -8.6395,-14.2637 -13.0684,-13.3435 -4.4289,0.9202 -9.7178,7.5146 -13.2918,19.3936 -3.574,11.879 26.8177,3.3921 26.3602,-6.0501z"/>
     </clipPath>
     <clipPath id="id12">
      <path d="M120.186 158.693c0.4575,-9.4422 8.6395,-14.2637 13.0684,-13.3435 4.4289,0.9202 9.7178,7.5146 13.2918,19.3936 3.574,11.879 -26.8177,3.3921 -26.3602,-6.0501z"/>
     </clipPath>
    <clipPath id="id13">
     <path d="M106.154 122.184c1.6523,0.4427 2.7683,1.6395 2.4915,2.6723 -0.2767,1.0329 -1.8416,1.5113 -3.4939,1.0686 -1.6523,-0.4427 -2.7683,-1.6395 -2.4915,-2.6723 0.2768,-1.0329 1.8416,-1.5113 3.4939,-1.0686z"/>
    </clipPath>
    <clipPath id="id14">
     <path d="M134.214 122.184c-1.6523,0.4427 -2.7682,1.6395 -2.4915,2.6723 0.2768,1.0329 1.8416,1.5113 3.4939,1.0686 1.6523,-0.4427 2.7683,-1.6395 2.4915,-2.6723 -0.2767,-1.0329 -1.8415,-1.5113 -3.4939,-1.0686z"/>
    </clipPath>
    <clipPath id="id15">
     <path d="M120.126 105.477l25.4977 0c0,0 1.7945,-8.7889 -1.3311,-21.8647 -3.1257,-13.0758 -24.1666,-9.1682 -24.1666,-9.1682 0,0 -21.0409,-3.9076 -24.1666,9.1682 -3.1256,13.0758 -1.3311,21.8647 -1.3311,21.8647l25.4977 0z"/>
    </clipPath>
 </defs>
 <g id="Capa_x0020_1">
  <metadata id="CorelCorpID_0Corel-Layer"/>
  <g id="_404494536">
   <g>
    <path id="_404491056" class="fil0 str0" d="M238.274 168.562c1.5776,-1.2168 2.8463,-4.1479 3.413,-4.1446 0.5667,0.0033 0.835,0.2486 0.8304,2.7528 1.8963,0.1433 3.502,-3.4539 4.7154,-2.4042 0.7834,0.6776 -1.1802,2.7465 -1.8189,3.3432 1.448,0.9515 3.3322,-2.5438 4.2952,-1.1152 0.5972,0.8871 -2.1949,2.6126 -3.0372,3.0037 0.687,1.4753 2.8548,-1.2921 3.4707,0.1216 0.4099,0.9417 -2.3081,1.9901 -3.1079,2.2721 -0.1395,1.162 1.9344,-0.176 2.1277,0.7451 0.1577,0.752 -0.3889,1.0365 -2.5287,1.3808 -1.1909,0.1914 -2.7459,0.9233 -4.3641,1.2603l0.1235 -0.081 -4.1191 -7.1346z"/>
    <path id="_404491200" class="fil1" d="M233.743 153.875c-2.165,-1.2498 -7.042,1.9943 -10.3446,12.5258 -1.5586,4.9702 -1.0823,12.1983 3.5607,13.3556 6.6188,1.6499 15.3106,-3.979 15.3106,-3.979l-3.9956 -7.2157c-5.5791,3.3134 -7.4065,2.0341 -6.0107,-1.1399 1.5926,-3.6222 3.6446,-12.2969 1.4796,-13.5468z"/>
    <g style="clip-path:url(#id0)">
     <g>
      <rect id="_591604824" class="fil2" transform="matrix(-0.51321 -0.888905 -0.888905 0.51321 243.174 177.197)" width="11.3104" height="3.158"/>
     </g>
    </g>
    <path class="fil3 str1" d="M233.743 153.875c-2.165,-1.2498 -7.042,1.9943 -10.3446,12.5258 -1.5586,4.9702 -1.0823,12.1983 3.5607,13.3556 6.6188,1.6499 15.3106,-3.979 15.3106,-3.979l-3.9956 -7.2157c-5.5791,3.3134 -7.4065,2.0341 -6.0107,-1.1399 1.5926,-3.6222 3.6446,-12.2969 1.4796,-13.5468z"/>
    <g>
     <path id="_404490864" class="fil4" d="M230.698 157.278c0,0 0.4921,0.7887 0.0952,2.1418 -0.397,1.3531 -0.8949,3.4411 -0.8949,3.4411 0,0 2.9853,-3.7661 0.7997,-5.5829z"/>
     <path id="_404491440" class="fil4" d="M229.276 164c0,0 -0.492,-0.7887 -0.0951,-2.1418 0.3969,-1.3531 0.8948,-3.4411 0.8948,-3.4411 0,0 -2.9853,3.7661 -0.7997,5.5829z"/>
     <path id="_404491704" class="fil4" d="M229.616 165.747c0,0 0.4921,0.7887 0.0952,2.1417 -0.397,1.3531 -0.8948,3.4411 -0.8948,3.4411 0,0 2.9853,-3.766 0.7996,-5.5828zm-1.4225 6.7219c0,0 -0.4921,-0.7887 -0.0952,-2.1418 0.397,-1.3531 0.8948,-3.441 0.8948,-3.441 0,0 -2.9853,3.766 -0.7996,5.5828z"/>
     <path id="_404492304" class="fil4" d="M224.676 171.18c0,0 -0.4921,-0.7886 -0.0952,-2.1417 0.397,-1.3531 0.8949,-3.4411 0.8949,-3.4411 0,0 -2.9854,3.766 -0.7997,5.5828zm1.4225 -6.7219c0,0 0.4921,0.7887 0.0952,2.1418 -0.3969,1.3531 -0.8948,3.441 -0.8948,3.441 0,0 2.9853,-3.766 0.7996,-5.5828z"/>
     <path id="_404493000" class="fil4" d="M225.43 176.942c0,0 0.2097,-0.9056 1.4471,-1.5817 1.2375,-0.6761 3.066,-1.8005 3.066,-1.8005 0,0 -4.7739,0.5521 -4.5131,3.3822zm5.759 -3.7472c0,0 -0.2097,0.9056 -1.4472,1.5817 -1.2374,0.6761 -3.0659,1.8005 -3.0659,1.8005 0,0 4.7739,-0.552 4.5131,-3.3822z"/>
     <path id="_404492784" class="fil4" d="M236.692 174.663c0,0 -0.2097,0.9056 -1.4472,1.5818 -1.2374,0.6761 -3.0659,1.8004 -3.0659,1.8004 0,0 4.7739,-0.552 4.5131,-3.3822zm-5.759 3.7472c0,0 0.2097,-0.9056 1.4472,-1.5817 1.2374,-0.6761 3.0659,-1.8005 3.0659,-1.8005 0,0 -4.7739,0.5521 -4.5131,3.3822z"/>
    </g>
   </g>
   <g>
    <path id="_404491872" class="fil0 str0" d="M257.939 168.562c-1.5776,-1.2168 -2.8463,-4.1479 -3.413,-4.1446 -0.5667,0.0033 -0.835,0.2486 -0.8304,2.7528 -1.8963,0.1433 -3.502,-3.4539 -4.7154,-2.4042 -0.7834,0.6776 1.1802,2.7465 1.8189,3.3432 -1.448,0.9515 -3.3322,-2.5438 -4.2952,-1.1152 -0.5972,0.8871 2.1949,2.6126 3.0372,3.0037 -0.687,1.4753 -2.8548,-1.2921 -3.4707,0.1216 -0.4099,0.9417 2.3081,1.9901 3.1079,2.2721 0.1395,1.162 -1.9344,-0.176 -2.1277,0.7451 -0.1577,0.752 0.3889,1.0365 2.5287,1.3808 1.1909,0.1914 2.7459,0.9233 4.3641,1.2603l-0.1235 -0.081 4.1191 -7.1346z"/>
    <path id="_404493576" class="fil1" d="M262.47 153.875c2.165,-1.2498 7.042,1.9943 10.3446,12.5258 1.5586,4.9702 1.0823,12.1983 -3.5607,13.3556 -6.6188,1.6499 -15.3106,-3.979 -15.3106,-3.979l3.9956 -7.2157c5.5791,3.3134 7.4065,2.0341 6.0107,-1.1399 -1.5926,-3.6222 -3.6446,-12.2969 -1.4796,-13.5468z"/>
    <g style="clip-path:url(#id1)">
     <g>
      <rect id="_591607008" class="fil2" transform="matrix(0.51321 -0.888905 0.888905 0.51321 253.039 177.197)" width="11.3104" height="3.158"/>
     </g>
    </g>
    <path class="fil3 str1" d="M262.47 153.875c2.165,-1.2498 7.042,1.9943 10.3446,12.5258 1.5586,4.9702 1.0823,12.1983 -3.5607,13.3556 -6.6188,1.6499 -15.3106,-3.979 -15.3106,-3.979l3.9956 -7.2157c5.5791,3.3134 7.4065,2.0341 6.0107,-1.1399 -1.5926,-3.6222 -3.6446,-12.2969 -1.4796,-13.5468z"/>
    <g>
     <path id="_404493288" class="fil4" d="M265.515 157.278c0,0 -0.4921,0.7887 -0.0952,2.1418 0.397,1.3531 0.8949,3.4411 0.8949,3.4411 0,0 -2.9853,-3.7661 -0.7997,-5.5829z"/>
     <path id="_404493216" class="fil4" d="M266.938 164c0,0 0.492,-0.7887 0.0951,-2.1418 -0.3969,-1.3531 -0.8948,-3.4411 -0.8948,-3.4411 0,0 2.9853,3.7661 0.7997,5.5829z"/>
     <path id="_404493648" class="fil4" d="M266.597 165.747c0,0 -0.4921,0.7887 -0.0952,2.1417 0.397,1.3531 0.8948,3.4411 0.8948,3.4411 0,0 -2.9853,-3.766 -0.7996,-5.5828zm1.4225 6.7219c0,0 0.4921,-0.7887 0.0952,-2.1418 -0.397,-1.3531 -0.8948,-3.441 -0.8948,-3.441 0,0 2.9853,3.766 0.7996,5.5828z"/>
     <path id="_404493936" class="fil4" d="M271.537 171.18c0,0 0.4921,-0.7886 0.0952,-2.1417 -0.397,-1.3531 -0.8949,-3.4411 -0.8949,-3.4411 0,0 2.9854,3.766 0.7997,5.5828zm-1.4225 -6.7219c0,0 -0.4921,0.7887 -0.0952,2.1418 0.3969,1.3531 0.8948,3.441 0.8948,3.441 0,0 -2.9853,-3.766 -0.7996,-5.5828z"/>
     <path id="_404494584" class="fil4" d="M270.783 176.942c0,0 -0.2097,-0.9056 -1.4471,-1.5817 -1.2375,-0.6761 -3.066,-1.8005 -3.066,-1.8005 0,0 4.7739,0.5521 4.5131,3.3822zm-5.759 -3.7472c0,0 0.2097,0.9056 1.4472,1.5817 1.2374,0.6761 3.0659,1.8005 3.0659,1.8005 0,0 -4.7739,-0.552 -4.5131,-3.3822z"/>
     <path id="_404493888" class="fil4" d="M259.521 174.663c0,0 0.2097,0.9056 1.4472,1.5818 1.2374,0.6761 3.0659,1.8004 3.0659,1.8004 0,0 -4.7739,-0.552 -4.5131,-3.3822zm5.759 3.7472c0,0 -0.2097,-0.9056 -1.4472,-1.5817 -1.2374,-0.6761 -3.0659,-1.8005 -3.0659,-1.8005 0,0 4.7739,0.5521 4.5131,3.3822z"/>
    </g>
   </g>
  </g>
  <g id="_404989272">
   <path id="_404495232" class="fil5 str2" d="M239.621 207.219c3.4273,0.2623 5.9439,3.9121 5.7278,6.7356 -0.2162,2.8235 -3.0833,3.7531 -6.5106,3.4907 -3.4274,-0.2624 -6.1195,-1.6175 -5.9033,-4.441 0.2161,-2.8235 3.2587,-6.0477 6.6861,-5.7853z"/>
   <path id="_404495328" class="fil6 str2" d="M233.864 182.725c0,0 -1.3368,10.7265 -1.4818,14.546 -0.1451,3.8195 1.874,10.162 1.7002,12.4323 -0.1738,2.2704 -0.9839,5.155 1.5681,5.4977 2.5521,0.3427 5.7577,0.8091 7.4926,0.2789 1.7349,-0.5302 2.0271,-2.4231 1.0407,-3.972 -0.9864,-1.5488 -0.7597,-13.1706 -0.3775,-15.2777 0.3823,-2.107 2.1361,-12.5069 2.1361,-12.5069l-12.0784 -0.9983z"/>
   <path id="_404496024" class="fil7" d="M245.17 213.384c0.2657,-3.4711 -2.3037,-5.0804 -5.6044,-5.3331 -3.3006,-0.2527 -6.0849,0.9468 -6.3506,4.418 -0.1139,1.4873 0.0848,3.8188 6.1394,3.9695 6.0545,0.1506 5.7021,-1.5722 5.8156,-3.0544z"/>
   <g style="clip-path:url(#id2)">
    <g>
     <path id="_5916154081" class="fil8" d="M239.389 209.981c-6.1019,-0.5771 -8.2716,8.8901 -0.1863,9.1387 7.9174,0.2435 5.5501,-8.6315 0.1863,-9.1387z"/>
     <path id="_591615000" class="fil8" d="M239.207 208.721c-1.9024,-0.0398 -2.5788,0.6132 -0.058,0.6303 2.4684,0.0168 1.7303,-0.5953 0.058,-0.6303z"/>
    </g>
   </g>
   <path class="fil3 str2" d="M245.17 213.384c0.2657,-3.4711 -2.3037,-5.0804 -5.6044,-5.3331 -3.3006,-0.2527 -6.0849,0.9468 -6.3506,4.418 -0.1139,1.4873 0.0848,3.8188 6.1394,3.9695 6.0545,0.1506 5.7021,-1.5722 5.8156,-3.0544z"/>
   <path id="_404496384" class="fil5 str2" d="M256.593 207.219c-3.4273,0.2623 -5.9439,3.9121 -5.7278,6.7356 0.2162,2.8235 3.0833,3.7531 6.5106,3.4907 3.4274,-0.2624 6.1195,-1.6175 5.9033,-4.441 -0.2161,-2.8235 -3.2587,-6.0477 -6.6861,-5.7853z"/>
   <path id="_404495688" class="fil6 str2" d="M262.349 182.725c0,0 1.3368,10.7265 1.4818,14.546 0.1451,3.8195 -1.874,10.162 -1.7002,12.4323 0.1738,2.2704 0.9839,5.155 -1.5681,5.4977 -2.5521,0.3427 -5.7577,0.8091 -7.4926,0.2789 -1.7349,-0.5302 -2.0271,-2.4231 -1.0407,-3.972 0.9864,-1.5488 0.7597,-13.1706 0.3775,-15.2777 -0.3823,-2.107 -2.1361,-12.5069 -2.1361,-12.5069l12.0784 -0.9983z"/>
   <path id="_404494824" class="fil7" d="M251.043 213.384c-0.2657,-3.4711 2.3037,-5.0804 5.6044,-5.3331 3.3006,-0.2527 6.0849,0.9468 6.3506,4.418 0.1139,1.4873 -0.0848,3.8188 -6.1394,3.9695 -6.0545,0.1506 -5.7021,-1.5722 -5.8156,-3.0544z"/>
   <g style="clip-path:url(#id3)">
    <g>
     <path id="_5916043201" class="fil8" d="M256.824 209.981c6.1019,-0.5771 8.2716,8.8901 0.1863,9.1387 -7.9174,0.2435 -5.5501,-8.6315 -0.1863,-9.1387z"/>
     <path id="_591603624" class="fil8" d="M257.006 208.721c1.9024,-0.0398 2.5788,0.6132 0.058,0.6303 -2.4684,0.0168 -1.7303,-0.5953 -0.058,-0.6303z"/>
    </g>
   </g>
   <path class="fil3 str2" d="M251.043 213.384c-0.2657,-3.4711 2.3037,-5.0804 5.6044,-5.3331 3.3006,-0.2527 6.0849,0.9468 6.3506,4.418 0.1139,1.4873 -0.0848,3.8188 -6.1394,3.9695 -6.0545,0.1506 -5.7021,-1.5722 -5.8156,-3.0544z"/>
   <path id="_404496528" class="fil7" d="M248.102 188.242c-0.0596,1.2457 -3.7696,18.4368 -3.7696,18.4368 0,0 -2.4096,1.8423 -11.4121,-0.57 -3.1711,-9.5366 -0.9073,-32.747 -0.7276,-33.3156l15.1762 -0.0347 0.6977 -0.0016 0.6977 -0.0016 15.1762 -0.0347c0.1823,0.5677 2.5523,23.7675 -0.5751,33.3185 -8.9914,2.4535 -11.4093,0.6223 -11.4093,0.6223 0,0 -3.7887,-17.174 -3.8541,-18.4194z"/>
   <g style="clip-path:url(#id4)">
    <g>
     <path id="_4846078241" class="fil5" d="M244.423 176.573c0,0 -0.6112,4.4901 0.3632,7.8025 0.9743,3.3125 3.3203,5.6709 3.3203,5.6709l-0.024 -13.6889 -3.6595 0.2155z"/>
    </g>
   </g>
   <path class="fil3 str2" d="M248.102 188.242c-0.0596,1.2457 -3.7696,18.4368 -3.7696,18.4368 0,0 -2.4096,1.8423 -11.4121,-0.57 -3.1711,-9.5366 -0.9073,-32.747 -0.7276,-33.3156l15.1762 -0.0347 0.6977 -0.0016 0.6977 -0.0016 15.1762 -0.0347c0.1823,0.5677 2.5523,23.7675 -0.5751,33.3185 -8.9914,2.4535 -11.4093,0.6223 -11.4093,0.6223 0,0 -3.7887,-17.174 -3.8541,-18.4194z"/>
   <path id="_404486760" class="fil5" d="M238.54 178.429c0,0 -1.634,13.1741 -1.529,17.5006 0.105,4.3265 0.2578,8.748 0.2578,8.748 0,0 1.3413,-16.4067 1.2712,-26.2486zm19.0799 -0.0437c0,0 1.6942,13.1665 1.609,17.4935 -0.0851,4.3269 -0.2177,8.749 -0.2177,8.749 0,0 -1.4163,-16.4003 -1.3913,-26.2425z"/>
   <path id="_404992872" class="fil9" d="M228.438 172.404c0,0 -0.1422,-0.2279 -0.2094,-0.6483 -0.0797,0.0458 -0.1599,0.0926 -0.2406,0.1406 0.1149,0.1813 0.2626,0.3519 0.45,0.5077z"/>
  </g>
  <g id="_404991984">
   <path id="_404984400" class="fil1 str1" d="M235.411 152.973c-5.4172,3.1568 -2.759,12.5736 -2.8362,15.3442 -0.0772,2.7705 -2.759,8.9045 3.0291,10.1774 4.1018,0.902 8.302,1.3532 12.5022,1.3532 4.2002,0 8.4006,-0.4512 12.5022,-1.3532 5.7881,-1.2728 3.1063,-7.4069 3.0291,-10.1774 -0.0772,-2.7706 2.581,-12.1874 -2.8361,-15.3442 -6.3296,-3.6885 -19.0608,-3.6885 -25.3903,0z"/>
   <path id="_404996496" class="fil4" d="M248.285 156.644c0,0 -0.6633,0.6194 -0.6309,1.9957 0.0324,1.3763 -0.0257,3.4712 -0.0257,3.4712 0,0 -1.8636,-4.3059 0.6566,-5.4669zm-0.357 6.6985c0,0 0.6633,-0.6195 0.6309,-1.9957 -0.0324,-1.3764 0.0257,-3.4712 0.0257,-3.4712 0,0 1.8636,4.3058 -0.6566,5.4669zm-12.8363 7.363c0,0 -0.4804,-0.77 -0.0929,-2.091 0.3876,-1.321 0.8736,-3.3595 0.8736,-3.3595 0,0 -2.9145,3.6768 -0.7807,5.4505zm8.8573 0c0,0 -0.4804,-0.77 -0.0929,-2.091 0.3875,-1.321 0.8736,-3.3595 0.8736,-3.3595 0,0 -2.9145,3.6768 -0.7807,5.4505zm-5.2977 -9.2554c0,0 -0.4804,-0.7699 -0.0929,-2.0909 0.3875,-1.3211 0.8736,-3.3596 0.8736,-3.3596 0,0 -2.9146,3.6768 -0.7807,5.4505zm3.1129 4.4495c0,0 -0.4804,-0.77 -0.0929,-2.091 0.3875,-1.321 0.8736,-3.3595 0.8736,-3.3595 0,0 -2.9145,3.6767 -0.7807,5.4505zm-2.9685 9.0628c0,0 -0.4804,-0.77 -0.0929,-2.091 0.3875,-1.321 0.8736,-3.3595 0.8736,-3.3595 0,0 -2.9145,3.6767 -0.7807,5.4505zm22.3255 -4.2569c0,0 0.4805,-0.77 0.0929,-2.091 -0.3875,-1.321 -0.8736,-3.3595 -0.8736,-3.3595 0,0 2.9146,3.6768 0.7807,5.4505zm-8.8572 0c0,0 0.4804,-0.77 0.0929,-2.091 -0.3876,-1.321 -0.8736,-3.3595 -0.8736,-3.3595 0,0 2.9145,3.6768 0.7807,5.4505zm5.2977 -9.2554c0,0 0.4804,-0.7699 0.0929,-2.0909 -0.3875,-1.3211 -0.8736,-3.3596 -0.8736,-3.3596 0,0 2.9145,3.6768 0.7807,5.4505zm-3.113 4.4495c0,0 0.4805,-0.77 0.0929,-2.091 -0.3875,-1.321 -0.8736,-3.3595 -0.8736,-3.3595 0,0 2.9146,3.6767 0.7807,5.4505zm2.9685 9.0628c0,0 0.4805,-0.77 0.0929,-2.091 -0.3875,-1.321 -0.8736,-3.3595 -0.8736,-3.3595 0,0 2.9146,3.6767 0.7807,5.4505zm-11.138 -3.4181c0,0 -0.8011,0.4266 -1.1259,1.7644 -0.3249,1.3378 -0.9232,3.3462 -0.9232,3.3462 0,0 -0.6858,-4.6414 2.0491,-5.1106zm3.6546 0c0,0 0.801,0.4266 1.126,1.7644 0.3248,1.3378 0.9231,3.3463 0.9231,3.3463 0,0 0.6857,-4.6415 -2.0491,-5.1107zm-5.7332 6.3778c0,0 0.8011,-0.4266 1.126,-1.7644 0.3249,-1.3378 0.9232,-3.3462 0.9232,-3.3462 0,0 0.6857,4.6414 -2.0492,5.1106zm7.8118 0c0,0 -0.8011,-0.4266 -1.126,-1.7644 -0.3249,-1.3378 -0.9232,-3.3462 -0.9232,-3.3462 0,0 -0.6857,4.6414 2.0492,5.1106zm4.016 -9.5223c0,0 -0.4804,0.77 -0.0929,2.091 0.3875,1.321 0.8736,3.3595 0.8736,3.3595 0,0 -2.9146,-3.6768 -0.7807,-5.4505zm-2.9685 -9.0628c0,0 -0.4804,0.77 -0.0929,2.091 0.3875,1.321 0.8736,3.3595 0.8736,3.3595 0,0 -2.9146,-3.6768 -0.7807,-5.4505zm3.1129 -4.4495c0,0 -0.4804,0.77 -0.0929,2.0911 0.3876,1.321 0.8736,3.3595 0.8736,3.3595 0,0 -2.9145,-3.6768 -0.7807,-5.4506zm-5.2977 9.2554c0,0 -0.4804,0.77 -0.0929,2.091 0.3876,1.321 0.8736,3.3595 0.8736,3.3595 0,0 -2.9145,-3.6768 -0.7807,-5.4505zm8.8573 0c0,0 -0.4804,0.77 -0.0929,2.091 0.3875,1.321 0.8736,3.3595 0.8736,3.3595 0,0 -2.9146,-3.6768 -0.7807,-5.4505zm-19.5478 4.2569c0,0 0.4804,0.77 0.0929,2.091 -0.3876,1.321 -0.8736,3.3595 -0.8736,3.3595 0,0 2.9145,-3.6768 0.7807,-5.4505zm2.9685 -9.0628c0,0 0.4804,0.77 0.0929,2.091 -0.3876,1.321 -0.8736,3.3595 -0.8736,3.3595 0,0 2.9145,-3.6768 0.7807,-5.4505zm-3.113 -4.4495c0,0 0.4804,0.77 0.0929,2.0911 -0.3875,1.321 -0.8736,3.3595 -0.8736,3.3595 0,0 2.9146,-3.6768 0.7807,-5.4506zm5.2977 9.2554c0,0 0.4804,0.77 0.0929,2.091 -0.3875,1.321 -0.8736,3.3595 -0.8736,3.3595 0,0 2.9146,-3.6768 0.7807,-5.4505zm-8.8572 0c0,0 0.4804,0.77 0.0929,2.091 -0.3876,1.321 -0.8736,3.3595 -0.8736,3.3595 0,0 2.9145,-3.6768 0.7807,-5.4505z"/>
  </g>
  <path class="fil10" d="M248.107 185.414c-12.5399,-1.5112 -31.0455,-20.1305 -25.3819,-30.703 2.1158,-3.9495 20.1139,-5.0137 25.3819,-4.9924 5.268,-0.0213 23.2661,1.0429 25.3819,4.9924 5.6636,10.5725 -12.8419,29.1918 -25.3819,30.703z"/>
  <g style="clip-path:url(#id5)">
   <g id="_596073704">
    <path id="_5960739201" class="fil4" d="M248.107 180.42c-11.5829,-1.3959 -28.2539,-17.3877 -26.268,-28.1525 1.6679,10.3819 15.9756,23.1466 26.268,24.3869 10.2924,-1.2403 24.6001,-14.005 26.268,-24.3869 1.9859,10.7648 -14.6851,26.7566 -26.268,28.1525z"/>
    <path id="_596073848" class="fil11" d="M248.107 165.665c-9.9795,-1.3959 -24.3427,-17.3877 -22.6317,-28.1525 1.437,10.3819 13.7641,23.1466 22.6317,24.3869 8.8676,-1.2403 21.1947,-14.005 22.6317,-24.3869 1.711,10.7648 -12.6522,26.7566 -22.6317,28.1525z"/>
    <path id="_596073776" class="fil1" d="M248.656 171.952c-10.9385,-1.4753 -26.5378,-17.9182 -25.6921,-29.6067 0.7771,11.4968 15.3268,26.3346 25.6921,27.7326 10.3653,-1.398 24.915,-16.2358 25.6921,-27.7326 0.8457,11.6885 -14.7536,28.1314 -25.6921,29.6067z"/>
   </g>
  </g>
  <path class="fil3 str3" d="M248.107 185.414c-12.5399,-1.5112 -31.0455,-20.1305 -25.3819,-30.703 2.1158,-3.9495 20.1139,-5.0137 25.3819,-4.9924 5.268,-0.0213 23.2661,1.0429 25.3819,4.9924 5.6636,10.5725 -12.8419,29.1918 -25.3819,30.703z"/>
  <path class="fil0 str0" d="M241.749 146.583l12.7151 0 0 5.5158c0,1.6001 -2.8469,2.898 -6.3575,2.898 -3.5105,0 -6.3576,-1.2979 -6.3576,-2.898l0 -5.5158z"/>
  <g id="_404986728">
   <path id="_404985456" class="fil12 str4" d="M138.938 136.664c0,0 6.9866,3.8292 7.1882,8.0614 0.1967,4.1333 0.5828,13.2695 6.584,14.0238 1.8239,0.229 -4.8986,2.2102 -7.323,-0.6551 -3.6947,-4.3664 -2.3589,-7.378 -8.5318,-8.8677 -6.1727,-1.4896 -6.9193,-2.8215 -6.9193,-2.8215l9.0019 -9.7409z"/>
   <path id="_404985840" class="fil12 str4" d="M101.314 136.664c0,0 -6.9866,3.8292 -7.1881,8.0614 -0.1968,4.1333 -0.5829,13.2695 -6.5841,14.0238 -1.8238,0.229 4.8987,2.2102 7.323,-0.6551 3.6947,-4.3664 2.359,-7.378 8.5318,-8.8677 6.1728,-1.4896 6.9194,-2.8215 6.9194,-2.8215l-9.002 -9.7409z"/>
   <path id="_404984904" class="fil13 str4" d="M93.6513 150.116c-0.1713,1.0846 -0.409,2.1844 -0.7453,3.2207 1.2188,-0.0599 2.794,0.1151 4.3648,1.0002 0.6543,-1.2944 1.1665,-2.3952 2.1783,-3.2926 -1.2009,-0.9536 -3.0799,-1.496 -5.7978,-0.9283z"/>
   <path id="_404986008" class="fil14" d="M101.029 140.536c0,0 -4.2818,3.3841 -4.2565,7.7139 0,0 1.849,-3.8798 4.2565,-7.7139z"/>
   <path id="_404986224" class="fil13 str4" d="M146.601 150.116c0.1712,1.0846 0.409,2.1844 0.7452,3.2207 -1.2187,-0.0599 -2.7939,0.1151 -4.3647,1.0002 -0.6543,-1.2944 -1.1666,-2.3952 -2.1783,-3.2926 1.2008,-0.9536 3.0798,-1.496 5.7978,-0.9283z"/>
   <g>
    <path id="_404984736" class="fil14" d="M139.223 140.536c0,0 4.2818,3.3841 4.2564,7.7139 0,0 -1.849,-3.8798 -4.2564,-7.7139z"/>
    <path id="_404986752" class="fil14" d="M135.142 139.408c0,0 4.2818,3.3841 4.2565,7.7139 0,0 -1.849,-3.8798 -4.2565,-7.7139z"/>
   </g>
   <path id="_404986872" class="fil14" d="M105.111 139.408c0,0 -4.2818,3.3841 -4.2564,7.7139 0,0 1.8489,-3.8798 4.2564,-7.7139z"/>
  </g>
  <g id="_404990712">
   <g>
    <g>
     <path id="_404987352" class="fil2 str5" d="M105.897 180.722c0,0 -1.4395,11.1349 -1.6083,15.1014 -0.1688,3.9666 1.8982,10.5639 1.7069,12.9212 -0.1913,2.3573 -1.0465,5.3496 1.6026,5.7177 2.6491,0.368 5.9765,0.8677 7.781,0.3253 1.8045,-0.5425 2.117,-2.5072 1.0998,-4.1206 -1.0172,-1.6134 -0.7265,-13.6836 -0.3194,-15.8703 0.4071,-2.1867 2.2781,-12.9804 2.2781,-12.9804l-12.5407 -1.0943z"/>
     <path id="_404986824" class="fil5 str2" d="M111.435 206.976c3.4273,0.2623 5.9439,3.9121 5.7278,6.7356 -0.2162,2.8235 -3.0833,3.7531 -6.5106,3.4907 -3.4274,-0.2624 -6.1195,-1.6175 -5.9033,-4.441 0.2161,-2.8235 3.2587,-6.0477 6.6861,-5.7853z"/>
     <path id="_404990088" class="fil7 str2" d="M116.984 212.327c0.2657,-3.4711 -2.3037,-5.0804 -5.6044,-5.3331 -3.3006,-0.2527 -6.0849,0.9468 -6.3506,4.418 -0.1139,1.4873 0.0848,3.8188 6.1394,3.9695 6.0545,0.1506 5.7021,-1.5722 5.8156,-3.0544z"/>
     <path id="_404988312" class="fil5 str2" d="M114.444 207.758c-0.8772,-0.4293 -1.9271,-0.6772 -3.0636,-0.7642 -1.4337,-0.1098 -2.7699,0.0547 -3.8446,0.5601 0.4636,1.6148 1.7263,2.412 3.2418,2.5701 1.6727,0.1745 3.1279,-0.4842 3.6664,-2.366z"/>
    </g>
    <g>
     <path id="_404988576" class="fil2 str5" d="M134.355 180.722c0,0 1.4395,11.1349 1.6083,15.1014 0.1688,3.9666 -1.8982,10.5639 -1.7069,12.9212 0.1913,2.3573 1.0465,5.3496 -1.6026,5.7177 -2.6491,0.368 -5.9765,0.8677 -7.781,0.3253 -1.8045,-0.5425 -2.117,-2.5072 -1.0998,-4.1206 1.0172,-1.6134 0.7265,-13.6836 0.3194,-15.8703 -0.4071,-2.1867 -2.2781,-12.9804 -2.2781,-12.9804l12.5407 -1.0943z"/>
     <path id="_404988648" class="fil5 str2" d="M128.818 206.976c-3.4273,0.2623 -5.9439,3.9121 -5.7278,6.7356 0.2162,2.8235 3.0833,3.7531 6.5106,3.4907 3.4274,-0.2624 6.1195,-1.6175 5.9033,-4.441 -0.2161,-2.8235 -3.2587,-6.0477 -6.6861,-5.7853z"/>
     <path id="_404988000" class="fil7 str2" d="M123.268 212.327c-0.2657,-3.4711 2.3037,-5.0804 5.6044,-5.3331 3.3006,-0.2527 6.0849,0.9468 6.3506,4.418 0.1139,1.4873 -0.0848,3.8188 -6.1394,3.9695 -6.0545,0.1506 -5.7021,-1.5722 -5.8156,-3.0544z"/>
     <path id="_404989944" class="fil5 str2" d="M125.809 207.758c0.8772,-0.4293 1.9271,-0.6772 3.0636,-0.7642 1.4337,-0.1098 2.7699,0.0547 3.8446,0.5601 -0.4636,1.6148 -1.7263,2.412 -3.2418,2.5701 -1.6727,0.1745 -3.1279,-0.4842 -3.6664,-2.366z"/>
    </g>
   </g>
   <path id="_404989344" class="fil15 str6" d="M104.32 173.291c-6.4115,8.0868 -6.7223,24.0029 -5.442,26.0161 1.025,1.6121 10.9915,4.875 21.2486,4.875 10.2572,0 20.2237,-3.2629 21.2487,-4.875 1.2802,-2.0132 0.9694,-17.9293 -5.4421,-26.0161l-15.8066 0 -15.8066 0z"/>
   <g>
    <path id="_404988816" class="fil16" d="M110.967 178.872c0,0 -2.9895,4.9015 -3.8975,10.0942 -0.9078,5.1925 -0.0741,9.3545 -0.0741,9.3545 0,0 1.7285,-6.7072 3.9716,-19.4487z"/>
    <path id="_404989920" class="fil16" d="M117.301 180.473c0,0 -2.2824,5.7098 -2.4872,11.073 -0.2045,5.3629 1.1614,9.1879 1.1614,9.1879 0,0 0.8088,-7.0962 1.3258,-20.2609z"/>
    <path id="_404990136" class="fil16" d="M122.952 180.473c0,0 2.2823,5.71 2.487,11.073 0.2048,5.3629 -1.1613,9.1879 -1.1613,9.1879 0,0 -0.8089,-7.0965 -1.3257,-20.2609z"/>
    <path id="_404990904" class="fil16" d="M129.286 178.872c0,0 2.9894,4.9015 3.8974,10.0941 0.908,5.1924 0.074,9.3546 0.074,9.3546 0,0 -1.7285,-6.7073 -3.9714,-19.4487z"/>
    <path id="_404991024" class="fil16" d="M134.416 177.378c0,0 3.2771,4.4586 4.4995,9.5004 1.2225,5.042 0.6477,9.3036 0.6477,9.3036 0,0 -2.1323,-6.4342 -5.1472,-18.804z"/>
    <path id="_404991264" class="fil16" d="M105.837 177.378c0,0 -3.277,4.4586 -4.4996,9.5004 -1.2224,5.042 -0.6475,9.3036 -0.6475,9.3036 0,0 2.1323,-6.4342 5.1471,-18.804z"/>
   </g>
  </g>
  <g id="_404992704">
   <path id="_404990976" class="fil17 str7" d="M107.123 149.919c-5.5487,3.2334 -2.826,12.8788 -2.905,15.7167 -0.0791,2.8378 -2.826,9.1206 3.1026,10.4245 8.4026,1.8479 17.2088,1.8479 25.6114,0 5.9286,-1.3039 3.1817,-7.5867 3.1027,-10.4245 -0.0791,-2.8379 2.6436,-12.4833 -2.905,-15.7167 -6.4833,-3.7781 -19.5235,-3.7781 -26.0067,0z"/>
   <path id="_404992272" class="fil18" d="M120.309 153.679c0,0 -0.6794,0.6345 -0.6462,2.0442 0.0332,1.4097 -0.0263,3.5554 -0.0263,3.5554 0,0 -1.9089,-4.4104 0.6725,-5.5996zm-0.3656 6.8611c0,0 0.6794,-0.6345 0.6462,-2.0442 -0.0332,-1.4097 0.0263,-3.5554 0.0263,-3.5554 0,0 1.9089,4.4104 -0.6725,5.5996zm-13.1479 7.5418c0,0 -0.4921,-0.7887 -0.0952,-2.1418 0.397,-1.353 0.8949,-3.441 0.8949,-3.441 0,0 -2.9854,3.766 -0.7997,5.5828zm9.0723 0c0,0 -0.4921,-0.7887 -0.0952,-2.1418 0.3969,-1.3531 0.8948,-3.4411 0.8948,-3.4411 0,0 -2.9853,3.7661 -0.7996,5.5829zm-5.4263 -9.4801c0,0 -0.4921,-0.7886 -0.0952,-2.1417 0.3969,-1.3531 0.8948,-3.4411 0.8948,-3.4411 0,0 -2.9853,3.766 -0.7996,5.5828zm3.1885 4.5575c0,0 -0.4921,-0.7887 -0.0952,-2.1418 0.3969,-1.3531 0.8948,-3.4411 0.8948,-3.4411 0,0 -2.9853,3.7661 -0.7996,5.5829zm-3.0406 9.2828c0,0 -0.4921,-0.7887 -0.0951,-2.1418 0.3969,-1.3531 0.8948,-3.4411 0.8948,-3.4411 0,0 -2.9853,3.7661 -0.7997,5.5829zm22.8675 -4.3602c0,0 0.4921,-0.7887 0.0952,-2.1418 -0.397,-1.353 -0.8949,-3.441 -0.8949,-3.441 0,0 2.9854,3.766 0.7997,5.5828zm-9.0723 0c0,0 0.4921,-0.7887 0.0951,-2.1418 -0.3969,-1.3531 -0.8948,-3.4411 -0.8948,-3.4411 0,0 2.9853,3.7661 0.7997,5.5829zm5.4263 -9.4801c0,0 0.4921,-0.7886 0.0952,-2.1417 -0.3969,-1.3531 -0.8948,-3.4411 -0.8948,-3.4411 0,0 2.9853,3.766 0.7996,5.5828zm-3.1885 4.5575c0,0 0.4921,-0.7887 0.0952,-2.1418 -0.397,-1.3531 -0.8949,-3.4411 -0.8949,-3.4411 0,0 2.9854,3.7661 0.7997,5.5829zm3.0406 9.2828c0,0 0.4921,-0.7887 0.0951,-2.1418 -0.3969,-1.3531 -0.8948,-3.4411 -0.8948,-3.4411 0,0 2.9853,3.7661 0.7997,5.5829zm-11.4085 -3.5011c0,0 -0.8205,0.437 -1.1532,1.8073 -0.3328,1.3702 -0.9456,3.4274 -0.9456,3.4274 0,0 -0.7024,-4.7541 2.0988,-5.2347zm3.7434 0c0,0 0.8205,0.437 1.1533,1.8073 0.3327,1.3702 0.9455,3.4274 0.9455,3.4274 0,0 0.7024,-4.7541 -2.0988,-5.2347zm-5.8724 6.5327c0,0 0.8206,-0.437 1.1533,-1.8073 0.3328,-1.3703 0.9456,-3.4275 0.9456,-3.4275 0,0 0.7024,4.7542 -2.0989,5.2348zm8.0014 0c0,0 -0.8205,-0.437 -1.1533,-1.8073 -0.3328,-1.3703 -0.9456,-3.4275 -0.9456,-3.4275 0,0 -0.7023,4.7542 2.0989,5.2348zm4.1135 -9.7536c0,0 -0.4921,0.7888 -0.0951,2.1418 0.3969,1.3531 0.8948,3.4411 0.8948,3.4411 0,0 -2.9854,-3.7661 -0.7997,-5.5829zm-3.0406 -9.2828c0,0 -0.492,0.7887 -0.0951,2.1418 0.3969,1.3531 0.8948,3.4411 0.8948,3.4411 0,0 -2.9853,-3.7661 -0.7997,-5.5829zm3.1886 -4.5574c0,0 -0.4921,0.7887 -0.0952,2.1418 0.397,1.3531 0.8948,3.4411 0.8948,3.4411 0,0 -2.9853,-3.7661 -0.7996,-5.5829zm-5.4264 9.4801c0,0 -0.492,0.7886 -0.0951,2.1417 0.3969,1.3531 0.8948,3.4411 0.8948,3.4411 0,0 -2.9853,-3.7661 -0.7997,-5.5828zm9.0723 0c0,0 -0.492,0.7887 -0.0951,2.1417 0.3969,1.3531 0.8948,3.4411 0.8948,3.4411 0,0 -2.9853,-3.7661 -0.7997,-5.5828zm-20.0223 4.3601c0,0 0.4921,0.7888 0.0951,2.1418 -0.3969,1.3531 -0.8948,3.4411 -0.8948,3.4411 0,0 2.9853,-3.7661 0.7997,-5.5829zm3.0405 -9.2828c0,0 0.4921,0.7887 0.0952,2.1418 -0.397,1.3531 -0.8948,3.4411 -0.8948,3.4411 0,0 2.9853,-3.7661 0.7996,-5.5829zm-3.1885 -4.5574c0,0 0.4921,0.7887 0.0952,2.1418 -0.397,1.3531 -0.8949,3.4411 -0.8949,3.4411 0,0 2.9854,-3.7661 0.7997,-5.5829zm5.4263 9.4801c0,0 0.4921,0.7886 0.0952,2.1417 -0.397,1.3531 -0.8948,3.4411 -0.8948,3.4411 0,0 2.9853,-3.7661 0.7996,-5.5828zm-9.0723 0c0,0 0.4921,0.7887 0.0952,2.1417 -0.397,1.3531 -0.8948,3.4411 -0.8948,3.4411 0,0 2.9853,-3.7661 0.7996,-5.5828z"/>
  </g>
  <g id="_404993904">
   <path id="_404992560" class="fil17" d="M105.069 151.297c-2.165,-1.2499 -7.042,1.9943 -10.3446,12.5257 -1.5586,4.9702 -1.0823,12.1983 3.5607,13.3557 6.6188,1.6498 15.3106,-3.9791 15.3106,-3.9791l-3.9956 -7.2156c-5.5792,3.3133 -7.4065,2.0341 -6.0107,-1.14 1.5926,-3.6222 3.6446,-12.2969 1.4796,-13.5467z"/>
   <g style="clip-path:url(#id6)">
    <g>
     <rect id="_484630216" class="fil19" transform="matrix(-0.51321 -0.888905 -0.888905 0.51321 114.5 174.618)" width="11.3104" height="3.158"/>
    </g>
   </g>
   <path class="fil3 str7" d="M105.069 151.297c-2.165,-1.2499 -7.042,1.9943 -10.3446,12.5257 -1.5586,4.9702 -1.0823,12.1983 3.5607,13.3557 6.6188,1.6498 15.3106,-3.9791 15.3106,-3.9791l-3.9956 -7.2156c-5.5792,3.3133 -7.4065,2.0341 -6.0107,-1.14 1.5926,-3.6222 3.6446,-12.2969 1.4796,-13.5467z"/>
   <g>
    <path id="_404992656" class="fil0 str0" d="M109.6 165.983c1.5776,-1.2168 2.8463,-4.1478 3.413,-4.1446 0.5666,0.0033 0.835,0.2486 0.8304,2.7528 1.8963,0.1434 3.502,-3.4539 4.7154,-2.4042 0.7833,0.6777 -1.1802,2.7466 -1.8189,3.3432 1.448,0.9515 3.3322,-2.5438 4.2951,-1.1152 0.5973,0.8871 -2.1948,2.6126 -3.0371,3.0037 0.687,1.4754 2.8548,-1.2921 3.4706,0.1216 0.41,0.9417 -2.308,1.9901 -3.1078,2.2722 -0.1395,1.1619 1.9344,-0.1761 2.1276,0.7451 0.1578,0.7519 -0.3888,1.0365 -2.5287,1.3808 -1.1908,0.1913 -2.7458,0.9232 -4.364,1.2603l0.1235 -0.0811 -4.1191 -7.1346z"/>
    <g>
     <path id="_404992536" class="fil18" d="M102.024 154.699c0,0 0.4921,0.7888 0.0951,2.1418 -0.3969,1.3531 -0.8948,3.4411 -0.8948,3.4411 0,0 2.9853,-3.766 0.7997,-5.5829z"/>
     <path id="_404990256" class="fil18" d="M100.602 161.421c0,0 -0.4921,-0.7887 -0.0951,-2.1418 0.3969,-1.3531 0.8948,-3.4411 0.8948,-3.4411 0,0 -2.9853,3.7661 -0.7997,5.5829z"/>
     <path id="_404994528" class="fil18" d="M100.942 163.168c0,0 0.4921,0.7887 0.0952,2.1418 -0.397,1.3531 -0.8948,3.441 -0.8948,3.441 0,0 2.9853,-3.766 0.7996,-5.5828zm-1.4225 6.7219c0,0 -0.4921,-0.7887 -0.0952,-2.1417 0.397,-1.3531 0.8948,-3.4411 0.8948,-3.4411 0,0 -2.9853,3.766 -0.7996,5.5828z"/>
     <path id="_404993256" class="fil18" d="M96.0017 168.601c0,0 -0.4921,-0.7887 -0.0952,-2.1418 0.397,-1.3531 0.8949,-3.4411 0.8949,-3.4411 0,0 -2.9854,3.7661 -0.7997,5.5829zm1.4225 -6.722c0,0 0.4921,0.7887 0.0951,2.1418 -0.3968,1.3531 -0.8947,3.4411 -0.8947,3.4411 0,0 2.9853,-3.766 0.7996,-5.5829z"/>
     <path id="_404993040" class="fil18" d="M96.7562 174.364c0,0 0.2097,-0.9057 1.4471,-1.5818 1.2375,-0.6761 3.066,-1.8005 3.066,-1.8005 0,0 -4.7739,0.5521 -4.5131,3.3823zm5.759 -3.7473c0,0 -0.2097,0.9057 -1.4472,1.5818 -1.2375,0.6761 -3.0659,1.8004 -3.0659,1.8004 0,0 4.7739,-0.552 4.5131,-3.3822z"/>
     <path id="_404993928" class="fil18" d="M108.018 172.084c0,0 -0.2097,0.9057 -1.4472,1.5818 -1.2374,0.6761 -3.0659,1.8005 -3.0659,1.8005 0,0 4.7739,-0.5521 4.5131,-3.3823zm-5.759 3.7473c0,0 0.2097,-0.9057 1.4471,-1.5818 1.2375,-0.6761 3.066,-1.8005 3.066,-1.8005 0,0 -4.774,0.5521 -4.5131,3.3823z"/>
    </g>
   </g>
  </g>
  <path class="fil0 str0" d="M113.614 143.374l13.0238 0 0 5.6497c0,3.9389 -13.0238,3.9388 -13.0238,0l0 -5.6497z"/>
  <g id="_404997840">
   <path id="_404995176" class="fil17" d="M134.535 151.044c2.9912,0.4362 7.0418,1.9941 10.3446,12.5257 3.3028,10.5316 2.6796,19.6299 2.6796,19.6299l-8.2881 0c0,0 -1.5116,-15.0568 -3.2565,-18.6088 -1.7449,-3.5521 -1.4796,-13.5468 -1.4796,-13.5468z"/>
   <g style="clip-path:url(#id7)">
    <g>
     <rect id="_484613008" class="fil19" x="137.611" y="179.958" width="11.6092" height="3.24143"/>
    </g>
   </g>
   <path class="fil3 str7" d="M134.535 151.044c2.9912,0.4362 7.0418,1.9941 10.3446,12.5257 3.3028,10.5316 2.6796,19.6299 2.6796,19.6299l-8.2881 0c0,0 -1.5116,-15.0568 -3.2565,-18.6088 -1.7449,-3.5521 -1.4796,-13.5468 -1.4796,-13.5468z"/>
   <g>
    <path id="_404993352" class="fil0 str0" d="M139.321 183.199c-0.2649,1.9747 -2.1689,4.5389 -1.8828,5.028 0.2862,0.4891 0.6328,0.5989 2.7992,-0.6572 1.0723,1.5706 -1.2401,4.7598 0.2756,5.2858 0.9786,0.3395 1.7885,-2.3954 1.9859,-3.2469 1.548,0.7783 -0.5369,4.1577 1.1818,4.2774 1.0669,0.0736 1.1651,-3.2071 1.0827,-4.1321 1.6212,-0.1427 0.3084,3.1184 1.8406,2.9448 1.0205,-0.1158 0.5695,-2.9939 0.4138,-3.8275 0.9365,-0.7018 0.8148,1.7632 1.7091,1.47 0.7301,-0.2393 0.7032,-0.855 -0.0685,-2.8803 -0.4297,-1.127 -0.5734,-2.8396 -1.0906,-4.4095l-0.0085 0.1475 -8.2383 0z"/>
    <g>
     <g>
      <path id="_404995344" class="fil18" d="M139.582 156.3c0,0 -0.4921,0.7887 -0.0952,2.1418 0.397,1.3531 0.8948,3.4411 0.8948,3.4411 0,0 -2.9853,-3.7661 -0.7996,-5.5829z"/>
      <path id="_404995848" class="fil18" d="M141.005 163.022c0,0 0.4921,-0.7887 0.0952,-2.1418 -0.397,-1.3531 -0.8948,-3.4411 -0.8948,-3.4411 0,0 2.9853,3.7661 0.7996,5.5829z"/>
     </g>
     <g>
      <path id="_404996616" class="fil18" d="M138.689 162.16c0,0 -0.4921,0.7887 -0.0952,2.1418 0.397,1.3531 0.8948,3.4411 0.8948,3.4411 0,0 -2.9853,-3.7661 -0.7996,-5.5829z"/>
      <path id="_404996376" class="fil18" d="M140.112 168.882c0,0 0.4921,-0.7887 0.0952,-2.1418 -0.397,-1.3531 -0.8948,-3.4411 -0.8948,-3.4411 0,0 2.9853,3.7661 0.7996,5.5829z"/>
     </g>
     <g>
      <path id="_404996352" class="fil18" d="M142.605 165.617c0,0 -0.4921,0.7887 -0.0952,2.1418 0.397,1.3531 0.8948,3.4411 0.8948,3.4411 0,0 -2.9853,-3.7661 -0.7996,-5.5829z"/>
      <path id="_404994408" class="fil18" d="M144.028 172.339c0,0 0.4921,-0.7887 0.0952,-2.1418 -0.397,-1.3531 -0.8948,-3.4411 -0.8948,-3.4411 0,0 2.9853,3.7661 0.7996,5.5829z"/>
     </g>
     <g>
      <path id="_404997360" class="fil18" d="M140.149 170.276c0,0 -0.4921,0.7887 -0.0952,2.1418 0.3969,1.3531 0.8948,3.4411 0.8948,3.4411 0,0 -2.9853,-3.7661 -0.7996,-5.5829z"/>
      <path id="_404996640" class="fil18" d="M141.572 176.998c0,0 0.4921,-0.7887 0.0952,-2.1418 -0.397,-1.3531 -0.8949,-3.4411 -0.8949,-3.4411 0,0 2.9854,3.7661 0.7997,5.5829z"/>
     </g>
    </g>
   </g>
  </g>
  <path class="fil20 str8" d="M310.343 101.031c12.0503,0 21.8227,6.3272 21.8227,14.1292 0,7.8021 -9.7724,14.1293 -21.8227,14.1293 -5.935,0 -11.3167,-1.5354 -15.2508,-4.0254l-8.0449 4.01 4.0251 -7.4806c-1.628,-1.9781 -2.552,-4.2358 -2.552,-6.6333 0,-7.802 9.7724,-14.1292 21.8226,-14.1292z"/>
  <path class="fil20 str8" d="M180.857 101.124c12.0503,0 21.8227,6.3272 21.8227,14.1292 0,7.8021 -9.7724,14.1293 -21.8227,14.1293 -5.935,0 -11.3167,-1.5354 -15.2508,-4.0254l-8.0449 4.01 4.0251 -7.4806c-1.628,-1.9781 -2.552,-4.2358 -2.552,-6.6333 0,-7.802 9.7724,-14.1292 21.8226,-14.1292z"/>
  <path class="fil21" d="M167.656 112.872c0,-0.2032 0.0995,-0.4276 0.2985,-0.6731 0.2455,-0.2413 0.491,-0.4847 0.7366,-0.7303 0.0423,-0.1439 0.0783,-0.2582 0.1079,-0.3429 0.0593,-0.1651 0.1609,-0.2476 0.3048,-0.2476 0.0762,0 0.127,0.0212 0.1524,0.0635 0.0127,0.0339 0.0201,0.0995 0.0222,0.1968 0.0021,0.0974 0.0032,0.1948 0.0032,0.2921 0,0.1397 -0.1916,0.4033 -0.5747,0.7906 -0.3831,0.3874 -0.5619,0.6234 -0.5365,0.708 0.0592,0.2075 0.2328,0.3112 0.5207,0.3112 0.1312,0 0.3079,-0.0826 0.5302,-0.2477 0.2222,-0.1651 0.4477,-0.3365 0.6763,-0.5143 0.0381,0 0.0762,0.018 0.1143,0.054 0.0381,0.036 0.0571,0.0899 0.0571,0.1619 0,0.2074 -0.1651,0.436 -0.4953,0.6858 -0.3302,0.2498 -0.6413,0.3746 -0.9334,0.3746 -0.271,0 -0.4996,-0.0783 -0.6858,-0.2349 -0.199,-0.1693 -0.2985,-0.3852 -0.2985,-0.6477zm0.9589 -3.2766c0,-0.1016 0.0254,-0.1852 0.0762,-0.2508 0.0508,-0.0656 0.1291,-0.0985 0.2349,-0.0985 0.0974,0 0.1757,0.0297 0.235,0.0889 0.0592,0.0593 0.0889,0.1376 0.0889,0.235 0,0.0974 -0.0276,0.182 -0.0826,0.254 -0.055,0.072 -0.127,0.1122 -0.2159,0.1206 -0.1016,0 -0.1831,-0.0328 -0.2445,-0.0984 -0.0614,-0.0656 -0.092,-0.1492 -0.092,-0.2508zm4.5847 0.0825c0,0.1313 -0.1059,0.3789 -0.3175,0.743 -0.127,0.2159 -0.3387,0.544 -0.635,0.9842 -0.2752,0.4107 -0.4297,0.6435 -0.4636,0.6985 0,0.2371 0.0021,0.4498 0.0064,0.6382 0.0042,0.1884 0.0084,0.3715 0.0127,0.5493 0,0.2709 -0.0149,0.4667 -0.0445,0.5874 -0.0296,0.1206 -0.0889,0.181 -0.1778,0.181 -0.1736,0 -0.2794,-0.2731 -0.3175,-0.8192 -0.0169,-0.2328 -0.0254,-0.5122 -0.0254,-0.8382 0,-0.0677 0,-0.1249 0,-0.1715 0,-0.0465 0,-0.0846 0,-0.1143 -0.3133,-0.5672 -0.5397,-1.0096 -0.6794,-1.3271 -0.1863,-0.4191 -0.2794,-0.7324 -0.2794,-0.9398 0,-0.0974 0.0127,-0.1619 0.0381,-0.1937 0.0254,-0.0317 0.0677,-0.0476 0.127,-0.0476 0.0846,0 0.218,0.1609 0.4,0.4826 0.1312,0.2328 0.2794,0.5334 0.4445,0.9017 0.1312,0.2963 0.2053,0.4678 0.2223,0.5143 0.3302,-0.491 0.5947,-0.8847 0.7937,-1.1811 0.3768,-0.5545 0.6287,-0.8318 0.7557,-0.8318 0.0423,0 0.0762,0.0127 0.1016,0.0381 0.0254,0.0254 0.0381,0.0741 0.0381,0.146zm2.6162 2.1844c0,0.5715 -0.1079,1.0436 -0.3238,1.4161 -0.2329,0.4022 -0.5483,0.6033 -0.9462,0.6033 -0.453,0 -0.8107,-0.2181 -1.0731,-0.6541 -0.2625,-0.436 -0.3937,-0.9843 -0.3937,-1.6447 0,-0.5969 0.1068,-1.0964 0.3206,-1.4986 0.2138,-0.4021 0.5027,-0.6032 0.8668,-0.6032 0.4699,0 0.8488,0.2349 1.1367,0.7048 0.2751,0.4488 0.4127,1.0076 0.4127,1.6764zm-0.5334 -0.0063c0,-0.5207 -0.0804,-0.9504 -0.2413,-1.2891 -0.1736,-0.364 -0.4106,-0.5461 -0.7112,-0.5461 -0.199,0 -0.363,0.1524 -0.4921,0.4572 -0.1291,0.3048 -0.1937,0.6837 -0.1937,1.1367 0,0.5122 0.0783,0.9271 0.235,1.2446 0.1778,0.3598 0.4233,0.5397 0.7366,0.5397 0.1905,0 0.3492,-0.1471 0.4762,-0.4413 0.127,-0.2942 0.1905,-0.6614 0.1905,-1.1017zm6.1659 -2.413c0,0.2498 -0.1746,0.3948 -0.5239,0.435 -0.3492,0.0402 -0.5683,0.0688 -0.6572,0.0857l0.0381 2.9972c0,0.2244 -0.0148,0.3926 -0.0444,0.5048 -0.0297,0.1122 -0.0932,0.1683 -0.1905,0.1683 -0.1143,0 -0.2043,-0.0826 -0.2699,-0.2477 -0.0656,-0.1651 -0.0984,-0.381 -0.0984,-0.6477 -0.0043,-0.1735 -0.0085,-0.437 -0.0127,-0.7905 -0.0043,-0.3535 -0.0096,-0.7345 -0.0159,-1.143 -0.0064,-0.4085 -0.0095,-0.6657 -0.0095,-0.7716 -0.072,-0.0169 -0.1609,-0.0254 -0.2667,-0.0254 -0.1101,0 -0.2181,0.0075 -0.3239,0.0223 -0.1058,0.0148 -0.199,0.0264 -0.2794,0.0349 -0.0974,0 -0.1715,-0.0148 -0.2223,-0.0445 -0.0719,-0.0423 -0.1079,-0.1164 -0.1079,-0.2222 0,-0.1609 0.1206,-0.2688 0.362,-0.3239 0.1651,-0.0381 0.4402,-0.0571 0.8255,-0.0571l0.3556 0c0.0592,-0.0085 0.273,-0.0423 0.6413,-0.1016 0.2625,-0.0423 0.4212,-0.0635 0.4763,-0.0635 0.0846,0 0.1598,0.0148 0.2254,0.0444 0.0656,0.0297 0.0984,0.0784 0.0984,0.1461zm2.0194 3.6766c0,0.1609 -0.1482,0.29 -0.4445,0.3874 -0.254,0.0847 -0.5355,0.127 -0.8445,0.127 -0.1567,0 -0.2689,-0.0783 -0.3366,-0.235 -0.0508,-0.1185 -0.0762,-0.2783 -0.0762,-0.4773 -0.0042,-0.182 -0.0085,-0.3344 -0.0127,-0.4582 -0.0296,-0.8774 -0.0444,-1.5177 -0.0444,-1.9198 0,-0.4964 0.0127,-0.8964 0.0381,-1.2023l1.1239 -0.1397c0.0423,0 0.072,0 0.0889,0 0.1101,0 0.1969,0.0201 0.2604,0.0603 0.0635,0.0402 0.0952,0.1027 0.0952,0.1873 0,0.072 -0.0423,0.1376 -0.127,0.1969 -0.0847,0.0593 -0.1799,0.0995 -0.2857,0.1206l-0.5842 0.108 0 1.2509 0.5207 -0.0254c0.1651,0 0.2815,0.0297 0.3492,0.0889 0.0677,0.0593 0.1016,0.1397 0.1016,0.2413 0,0.0847 -0.0349,0.1535 -0.1048,0.2064 -0.0698,0.0529 -0.1534,0.0794 -0.2508,0.0794l-0.5778 0.0381 0.0381 1.1747c0.0846,0 0.1957,-0.0095 0.3333,-0.0285 0.1376,-0.0191 0.2657,-0.0371 0.3842,-0.054 0.1058,0 0.1916,0.0201 0.2572,0.0603 0.0656,0.0402 0.0984,0.1111 0.0984,0.2127zm2.8702 -2.5654l0 1.7018 0 0.2731c0,0.5715 -0.0265,0.9588 -0.0794,1.162 -0.0529,0.2033 -0.1301,0.3049 -0.2317,0.3049 -0.2075,0 -0.4107,-0.18 -0.6096,-0.5398 -0.1016,-0.1863 -0.2742,-0.5937 -0.5176,-1.2224 -0.2434,-0.6286 -0.4498,-1.089 -0.6191,-1.3811 0,0.1355 0.0042,0.4138 0.0127,0.835 0.0085,0.4212 0.0127,0.6678 0.0127,0.7398 0,0.4106 -0.0169,0.726 -0.0508,0.9461 -0.0339,0.2202 -0.0995,0.3302 -0.1968,0.3302 -0.1397,0 -0.2403,-0.1174 -0.3017,-0.3524 -0.0614,-0.2349 -0.092,-0.5577 -0.092,-0.9684l0 -1.7907c0,-0.3937 0.0201,-0.6953 0.0603,-0.9048 0.0402,-0.2096 0.1196,-0.3144 0.2381,-0.3144 0.1439,0 0.3408,0.2392 0.5906,0.7176 0.1651,0.3175 0.3862,0.8075 0.6635,1.47 0.2773,0.6625 0.4562,1.0763 0.5366,1.2414l-0.0444 -2.1145c0,-0.4995 0.0232,-0.8869 0.0698,-1.1621 0.0466,-0.2751 0.1291,-0.4127 0.2477,-0.4127 0.1164,0 0.1968,0.1249 0.2423,0.3746 0.0455,0.2498 0.0688,0.6054 0.0688,1.0668zm3.7402 1.2954c0,0.1101 -0.0413,0.181 -0.1238,0.2128 -0.0826,0.0317 -0.1365,0.0539 -0.1619,0.0666 0,0.4869 -0.1461,0.9166 -0.4382,1.2891 -0.3175,0.4064 -0.7175,0.6096 -1.2001,0.6096 -0.4445,0 -0.8033,-0.199 -1.0764,-0.5969 -0.273,-0.3979 -0.4095,-0.8911 -0.4095,-1.4796 0,-0.6138 0.146,-1.1239 0.4381,-1.5303 0.3133,-0.436 0.7281,-0.6541 1.2446,-0.6541 0.2709,0 0.526,0.054 0.7652,0.162 0.2392,0.1079 0.3588,0.2423 0.3588,0.4032 0,0.055 -0.017,0.1111 -0.0508,0.1683 -0.0339,0.0571 -0.0805,0.0857 -0.1397,0.0857 -0.1567,-0.0677 -0.2773,-0.1164 -0.362,-0.1461 -0.2667,-0.0973 -0.4572,-0.146 -0.5715,-0.146 -0.3344,0 -0.6032,0.1577 -0.8064,0.4731 -0.2032,0.3154 -0.3048,0.7038 -0.3048,1.1652 0,0.5376 0.1143,0.9419 0.3429,1.2128 0.1862,0.2202 0.4212,0.3302 0.7048,0.3302 0.2201,0 0.4233,-0.1143 0.6096,-0.3429 0.1863,-0.2286 0.2794,-0.4783 0.2794,-0.7493l0 -0.0889c-0.1069,0.0381 -0.218,0.0762 -0.3355,0.1143 -0.1175,0.0381 -0.2127,0.0572 -0.2847,0.0572 -0.0815,0 -0.1503,-0.0265 -0.2074,-0.0794 -0.0582,-0.0529 -0.0868,-0.1196 -0.0868,-0.2 0,-0.0508 0.0275,-0.1016 0.0826,-0.1524 0.055,-0.0508 0.1058,-0.0826 0.1524,-0.0953l1.1747 -0.3683c0.0381,-0.0127 0.0762,-0.019 0.1143,-0.019 0.0847,0 0.1545,0.0254 0.2096,0.0762 0.055,0.0508 0.0825,0.1249 0.0825,0.2222zm2.7496 0.0127c0,0.5715 -0.1079,1.0436 -0.3238,1.4161 -0.2329,0.4022 -0.5483,0.6033 -0.9462,0.6033 -0.453,0 -0.8107,-0.2181 -1.0731,-0.6541 -0.2625,-0.436 -0.3937,-0.9843 -0.3937,-1.6447 0,-0.5969 0.1068,-1.0964 0.3206,-1.4986 0.2138,-0.4021 0.5027,-0.6032 0.8668,-0.6032 0.4699,0 0.8488,0.2349 1.1367,0.7048 0.2751,0.4488 0.4127,1.0076 0.4127,1.6764zm-0.5334 -0.0063c0,-0.5207 -0.0804,-0.9504 -0.2413,-1.2891 -0.1736,-0.364 -0.4106,-0.5461 -0.7112,-0.5461 -0.199,0 -0.363,0.1524 -0.4921,0.4572 -0.1291,0.3048 -0.1937,0.6837 -0.1937,1.1367 0,0.5122 0.0783,0.9271 0.235,1.2446 0.1778,0.3598 0.4233,0.5397 0.7366,0.5397 0.1905,0 0.3492,-0.1471 0.4762,-0.4413 0.127,-0.2942 0.1905,-0.6614 0.1905,-1.1017zm-24.0795 6.8009c0.0053,0.1058 0.0116,0.2318 0.0169,0.3778 0.0053,0.1461 0.0085,0.3228 0.0085,0.5302 0,0.4191 -0.0233,0.7536 -0.0688,1.0033 -0.0582,0.326 -0.1556,0.489 -0.2921,0.489 -0.1079,0 -0.1788,-0.1715 -0.2117,-0.5144 -0.0328,-0.3429 -0.0497,-0.8403 -0.0497,-1.4922l0 -0.489c0,-0.0762 0,-0.2042 0,-0.3841 0,-0.1799 0,-0.3165 0,-0.4096 0,-0.4064 0.0286,-0.6816 0.0868,-0.8255 0.0455,-0.1143 0.1185,-0.1715 0.218,-0.1715 0.1164,0 0.2011,0.1376 0.2551,0.4128 0.0412,0.2201 0.0624,0.4953 0.0624,0.8255 0,0.1482 -0.0021,0.2741 -0.0063,0.3778 -0.0043,0.1037 -0.0106,0.1937 -0.0191,0.2699zm2.8068 0.5334c0,0.5757 -0.0974,1.0456 -0.2921,1.4097 -0.2202,0.4064 -0.5313,0.6096 -0.9335,0.6096 -0.3768,0 -0.6667,-0.1926 -0.8699,-0.5779 -0.1863,-0.3513 -0.2794,-0.8085 -0.2794,-1.3716 0,-0.6477 0.1037,-1.234 0.3111,-1.7589 0.2244,-0.563 0.4911,-0.8446 0.8001,-0.8446 0.3979,0 0.7133,0.254 0.9462,0.762 0.2116,0.4657 0.3175,1.0563 0.3175,1.7717zm-0.5906 0.0508c0,-0.5122 -0.0529,-0.9504 -0.1587,-1.3145 -0.1186,-0.4021 -0.2773,-0.6032 -0.4763,-0.6032 -0.1439,0 -0.272,0.2043 -0.3842,0.6128 -0.1122,0.4085 -0.1682,0.8435 -0.1682,1.3049 0,0.4276 0.0317,0.7324 0.0952,0.9144 0.0804,0.2328 0.2328,0.3492 0.4572,0.3492 0.2159,0 0.3789,-0.1248 0.489,-0.3746 0.0973,-0.2244 0.146,-0.5207 0.146,-0.889zm6.0707 1.4414c0,0.1651 -0.0159,0.2921 -0.0477,0.381 -0.0317,0.0889 -0.0899,0.1334 -0.1746,0.1334 -0.1185,0 -0.2265,-0.1799 -0.3238,-0.5398 -0.0551,-0.2328 -0.108,-0.4677 -0.1588,-0.7048l-1.0795 0c-0.0593,0.2286 -0.1185,0.4572 -0.1778,0.6858 -0.0804,0.2752 -0.1968,0.4127 -0.3492,0.4127 -0.0889,0 -0.1419,-0.0127 -0.1588,-0.0381 -0.0339,-0.0508 -0.0508,-0.1375 -0.0508,-0.2603 0,-0.1016 0.0074,-0.217 0.0222,-0.3461 0.0148,-0.1291 0.0519,-0.3058 0.1112,-0.5302 0.0592,-0.2244 0.1185,-0.4456 0.1778,-0.6636 0.0592,-0.218 0.1735,-0.6276 0.3429,-1.2287 0.127,-0.4487 0.201,-0.6858 0.2222,-0.7112 0.1185,-0.4149 0.2942,-0.6223 0.5271,-0.6223 0.1143,0 0.2307,0.091 0.3492,0.273 0.1185,0.1821 0.2032,0.4128 0.254,0.6922 0.0169,0.0296 0.0582,0.2191 0.1238,0.5683 0.0656,0.3493 0.126,0.6763 0.181,0.9811 0.0296,0.1736 0.0593,0.3429 0.0889,0.508 0.0296,0.1651 0.0572,0.3556 0.0826,0.5715 0.0254,0.2159 0.0381,0.3619 0.0381,0.4381zm-0.7811 -1.2763l-0.3302 -2.0511 -0.5651 2.0511 0.8953 0zm3.8735 -1.4542l0 1.7018 0 0.2731c0,0.5715 -0.0265,0.9588 -0.0794,1.162 -0.0529,0.2033 -0.1301,0.3049 -0.2317,0.3049 -0.2075,0 -0.4107,-0.18 -0.6096,-0.5398 -0.1016,-0.1863 -0.2742,-0.5937 -0.5176,-1.2224 -0.2434,-0.6286 -0.4498,-1.089 -0.6191,-1.3811 0,0.1355 0.0042,0.4138 0.0127,0.835 0.0085,0.4212 0.0127,0.6678 0.0127,0.7398 0,0.4106 -0.0169,0.726 -0.0508,0.9461 -0.0339,0.2202 -0.0995,0.3302 -0.1968,0.3302 -0.1397,0 -0.2403,-0.1174 -0.3017,-0.3524 -0.0614,-0.2349 -0.092,-0.5577 -0.092,-0.9684l0 -1.7907c0,-0.3937 0.0201,-0.6953 0.0603,-0.9048 0.0402,-0.2096 0.1196,-0.3144 0.2381,-0.3144 0.1439,0 0.3408,0.2392 0.5906,0.7176 0.1651,0.3175 0.3862,0.8075 0.6635,1.47 0.2773,0.6625 0.4562,1.0763 0.5366,1.2414l-0.0444 -2.1145c0,-0.4995 0.0232,-0.8869 0.0698,-1.1621 0.0466,-0.2751 0.1291,-0.4127 0.2477,-0.4127 0.1164,0 0.1968,0.1249 0.2423,0.3746 0.0455,0.2498 0.0688,0.6054 0.0688,1.0668zm-0.4381 -2.0828c0.0169,0.1228 -0.0572,0.2689 -0.2223,0.4382 -0.1651,0.1693 -0.2921,0.254 -0.381,0.254 -0.0466,0 -0.1714,-0.0529 -0.3746,-0.1588 -0.0678,-0.0338 -0.1673,-0.0889 -0.2985,-0.1651 -0.072,0.0635 -0.127,0.1101 -0.1651,0.1397 -0.127,0.0974 -0.2201,0.1461 -0.2794,0.1461 -0.0381,0 -0.0656,0 -0.0825,0 -0.0847,0 -0.1376,-0.0106 -0.1588,-0.0318 -0.0212,-0.0211 -0.0317,-0.0762 -0.0317,-0.1651 0,-0.0889 0.127,-0.2095 0.381,-0.3619 0.0846,-0.0508 0.2116,-0.1207 0.381,-0.2096 0.0762,0.0254 0.1375,0.0487 0.1841,0.0699 0.1439,0.0677 0.2709,0.1524 0.381,0.254 0.055,-0.1058 0.1143,-0.1778 0.1778,-0.2159 0.0635,-0.0381 0.1439,-0.0572 0.2413,-0.0572 0.0381,0 0.0847,0.0106 0.1397,0.0318 0.055,0.0212 0.091,0.0317 0.108,0.0317zm3.5433 3.3909c0,0.5715 -0.1079,1.0436 -0.3238,1.4161 -0.2329,0.4022 -0.5483,0.6033 -0.9462,0.6033 -0.453,0 -0.8107,-0.2181 -1.0731,-0.6541 -0.2625,-0.436 -0.3937,-0.9843 -0.3937,-1.6447 0,-0.5969 0.1068,-1.0964 0.3206,-1.4986 0.2138,-0.4021 0.5027,-0.6032 0.8668,-0.6032 0.4699,0 0.8488,0.2349 1.1367,0.7048 0.2751,0.4488 0.4127,1.0076 0.4127,1.6764zm-0.5334 -0.0063c0,-0.5207 -0.0804,-0.9504 -0.2413,-1.2891 -0.1736,-0.364 -0.4106,-0.5461 -0.7112,-0.5461 -0.199,0 -0.363,0.1524 -0.4921,0.4572 -0.1291,0.3048 -0.1937,0.6837 -0.1937,1.1367 0,0.5122 0.0783,0.9271 0.235,1.2446 0.1778,0.3598 0.4233,0.5397 0.7366,0.5397 0.1905,0 0.3492,-0.1471 0.4762,-0.4413 0.127,-0.2942 0.1905,-0.6614 0.1905,-1.1017zm3.4354 0.5969c0,0.3514 -0.1418,0.6361 -0.4254,0.8541 -0.2837,0.218 -0.6329,0.327 -1.0478,0.327 -0.2286,0 -0.4635,-0.0614 -0.7048,-0.1842 -0.2413,-0.1227 -0.362,-0.2561 -0.362,-0.4 0,-0.0593 0.0286,-0.1154 0.0857,-0.1683 0.0572,-0.0529 0.1217,-0.0794 0.1937,-0.0794 0.0254,0 0.1503,0.0519 0.3747,0.1556 0.2243,0.1037 0.3725,0.1556 0.4445,0.1556 0.2286,0 0.4222,-0.055 0.581,-0.1651 0.1587,-0.1101 0.2381,-0.2625 0.2381,-0.4572 0,-0.2032 -0.1799,-0.3916 -0.5397,-0.5652 -0.3387,-0.1566 -0.6774,-0.3132 -1.016,-0.4699 -0.3641,-0.2116 -0.5461,-0.4572 -0.5461,-0.7366 0,-0.2963 0.1608,-0.5831 0.4826,-0.8604 0.3217,-0.2773 0.6752,-0.4159 1.0604,-0.4159 0.2709,0 0.4445,0.0042 0.5207,0.0127 0.2413,0.0254 0.362,0.1291 0.362,0.3111 0,0.1313 -0.2943,0.2202 -0.8827,0.2667 -0.5884,0.0466 -0.8826,0.2646 -0.8826,0.6541 0,0.2074 0.1778,0.3725 0.5334,0.4953 0.6011,0.2032 0.9313,0.3217 0.9906,0.3556 0.3598,0.2032 0.5397,0.508 0.5397,0.9144zm2.8639 -2.3241c0,0.2032 -0.0995,0.4276 -0.2984,0.6731 -0.2456,0.2455 -0.4911,0.4889 -0.7366,0.7302 -0.0424,0.144 -0.0784,0.2583 -0.108,0.3429 -0.0593,0.1651 -0.1609,0.2477 -0.3048,0.2477 -0.0762,0 -0.127,-0.0212 -0.1524,-0.0635 -0.0085,-0.0212 -0.0148,-0.0847 -0.019,-0.1905 -0.0043,-0.1058 -0.0064,-0.1842 -0.0064,-0.235 0,-0.0296 0,-0.0465 0,-0.0508 0,-0.0042 0,-0.0084 0,-0.0127 0,-0.1397 0.1916,-0.4032 0.5747,-0.7905 0.3831,-0.3874 0.562,-0.6234 0.5366,-0.7081 -0.0593,-0.2074 -0.2329,-0.3111 -0.5207,-0.3111 -0.1313,0 -0.3048,0.0783 -0.5207,0.2349 -0.2286,0.1778 -0.4572,0.3535 -0.6858,0.5271 -0.0381,0 -0.072,-0.0148 -0.1016,-0.0445 -0.0466,-0.0423 -0.0699,-0.0994 -0.0699,-0.1714 0,-0.2074 0.1651,-0.436 0.4953,-0.6858 0.3302,-0.2498 0.6414,-0.3747 0.9335,-0.3747 0.2709,0 0.5027,0.0815 0.6953,0.2445 0.1926,0.163 0.2889,0.3757 0.2889,0.6382zm-0.9588 3.2766c0,0.1016 -0.0254,0.1852 -0.0762,0.2508 -0.0508,0.0656 -0.1292,0.0984 -0.235,0.0984 -0.0974,0 -0.1757,-0.0296 -0.2349,-0.0889 -0.0593,-0.0592 -0.0889,-0.1375 -0.0889,-0.2349 0,-0.0974 0.0275,-0.182 0.0825,-0.254 0.055,-0.072 0.127,-0.1122 0.2159,-0.1207 0.1016,0 0.1831,0.0329 0.2445,0.0985 0.0614,0.0656 0.0921,0.1492 0.0921,0.2508z"/>
  <path class="fil21" d="M294.243 113.068c0,-0.2032 0.0995,-0.4276 0.2985,-0.6731 0.2455,-0.2413 0.491,-0.4847 0.7366,-0.7303 0.0423,-0.1439 0.0783,-0.2582 0.1079,-0.3429 0.0593,-0.1651 0.1609,-0.2476 0.3048,-0.2476 0.0762,0 0.127,0.0212 0.1524,0.0635 0.0127,0.0339 0.0201,0.0995 0.0222,0.1968 0.0021,0.0974 0.0032,0.1948 0.0032,0.2921 0,0.1397 -0.1916,0.4033 -0.5747,0.7906 -0.3831,0.3874 -0.5619,0.6234 -0.5365,0.708 0.0592,0.2075 0.2328,0.3112 0.5207,0.3112 0.1312,0 0.3079,-0.0826 0.5302,-0.2477 0.2222,-0.1651 0.4477,-0.3365 0.6763,-0.5143 0.0381,0 0.0762,0.018 0.1143,0.054 0.0381,0.036 0.0571,0.0899 0.0571,0.1619 0,0.2074 -0.1651,0.436 -0.4953,0.6858 -0.3302,0.2498 -0.6413,0.3746 -0.9334,0.3746 -0.271,0 -0.4996,-0.0783 -0.6858,-0.2349 -0.199,-0.1693 -0.2985,-0.3852 -0.2985,-0.6477zm0.9589 -3.2766c0,-0.1016 0.0254,-0.1852 0.0762,-0.2508 0.0508,-0.0656 0.1291,-0.0985 0.2349,-0.0985 0.0974,0 0.1757,0.0297 0.235,0.0889 0.0592,0.0593 0.0889,0.1376 0.0889,0.235 0,0.0974 -0.0276,0.182 -0.0826,0.254 -0.055,0.072 -0.127,0.1122 -0.2159,0.1206 -0.1016,0 -0.1831,-0.0328 -0.2445,-0.0984 -0.0614,-0.0656 -0.092,-0.1492 -0.092,-0.2508zm4.2926 3.5623c0,0.0889 -0.0593,0.162 -0.1778,0.2191 -0.1186,0.0572 -0.2794,0.0857 -0.4826,0.0857 -0.5292,0 -0.9843,-0.1566 -1.3653,-0.4699 -0.4318,-0.3556 -0.6477,-0.8382 -0.6477,-1.4478 0,-0.5037 0.2286,-1.016 0.6858,-1.5367 0.436,-0.4953 0.834,-0.7429 1.1938,-0.7429 0.0889,0 0.1545,0.0212 0.1969,0.0635 0.0423,0.0423 0.0635,0.0889 0.0635,0.1397 -0.4107,0.3133 -0.7705,0.6392 -1.0795,0.9779 -0.3387,0.3725 -0.508,0.7853 -0.508,1.2382 0,0.381 0.182,0.6668 0.5461,0.8573 0.1693,0.0889 0.5101,0.1926 1.0223,0.3111 0.3683,0.0847 0.5525,0.1863 0.5525,0.3048zm2.8194 -1.5875c0,0.5588 -0.1355,1.0393 -0.4064,1.4415 -0.2837,0.4191 -0.635,0.6286 -1.0541,0.6286 -0.398,0 -0.7197,-0.1418 -0.9652,-0.4254 -0.3048,-0.3514 -0.4572,-0.889 -0.4572,-1.6129 0,-0.5038 0.091,-1.0255 0.273,-1.5653 0.182,-0.5397 0.3683,-0.8096 0.5588,-0.8096 0.1651,0 0.2477,0.1037 0.2477,0.3111 0,0.1143 -0.0889,0.4361 -0.2667,0.9652 -0.1778,0.5292 -0.2667,0.8996 -0.2667,1.1113 0,0.5334 0.0889,0.9144 0.2667,1.143 0.1439,0.1863 0.3513,0.2794 0.6223,0.2794 0.2836,0 0.5016,-0.1588 0.654,-0.4763 0.1355,-0.2794 0.2032,-0.6392 0.2032,-1.0795 0,-0.127 -0.0307,-0.4243 -0.0921,-0.8921 -0.0614,-0.4678 -0.092,-0.744 -0.092,-0.8287 0,-0.326 0.091,-0.5017 0.273,-0.5271 0.1524,-0.0169 0.2773,0.2286 0.3747,0.7366 0.0846,0.4488 0.127,0.9822 0.127,1.6002zm2.8321 1.7145c0,0.1651 -0.0159,0.2921 -0.0477,0.381 -0.0317,0.0889 -0.0899,0.1334 -0.1746,0.1334 -0.1185,0 -0.2265,-0.1799 -0.3238,-0.5398 -0.0551,-0.2328 -0.108,-0.4677 -0.1588,-0.7048l-1.0795 0c-0.0593,0.2286 -0.1185,0.4572 -0.1778,0.6858 -0.0804,0.2752 -0.1968,0.4127 -0.3492,0.4127 -0.0889,0 -0.1419,-0.0127 -0.1588,-0.0381 -0.0339,-0.0508 -0.0508,-0.1375 -0.0508,-0.2603 0,-0.1016 0.0074,-0.217 0.0222,-0.3461 0.0148,-0.1291 0.0519,-0.3058 0.1112,-0.5302 0.0592,-0.2244 0.1185,-0.4456 0.1778,-0.6636 0.0592,-0.218 0.1735,-0.6276 0.3429,-1.2287 0.127,-0.4487 0.201,-0.6858 0.2222,-0.7112 0.1185,-0.4149 0.2942,-0.6223 0.5271,-0.6223 0.1143,0 0.2307,0.091 0.3492,0.273 0.1185,0.1821 0.2032,0.4128 0.254,0.6922 0.0169,0.0296 0.0582,0.2191 0.1238,0.5683 0.0656,0.3493 0.126,0.6763 0.181,0.9811 0.0296,0.1736 0.0593,0.3429 0.0889,0.508 0.0296,0.1651 0.0572,0.3556 0.0826,0.5715 0.0254,0.2159 0.0381,0.3619 0.0381,0.4381zm-0.7811 -1.2763l-0.3302 -2.0511 -0.5651 2.0511 0.8953 0zm0.5906 -3.3782c0,0.0931 -0.0995,0.2011 -0.2985,0.3238 -0.0635,0.0381 -0.163,0.0889 -0.2984,0.1524l-0.5144 0c0.1651,-0.1778 0.29,-0.3111 0.3747,-0.4 0.2624,-0.2667 0.4275,-0.4001 0.4953,-0.4001 0.11,0 0.1778,0.0233 0.2032,0.0699 0.0254,0.0466 0.0381,0.1312 0.0381,0.254zm3.2829 1.924l0 1.7018 0 0.2731c0,0.5715 -0.0265,0.9588 -0.0794,1.162 -0.0529,0.2033 -0.1301,0.3049 -0.2317,0.3049 -0.2075,0 -0.4107,-0.18 -0.6096,-0.5398 -0.1016,-0.1863 -0.2742,-0.5937 -0.5176,-1.2224 -0.2434,-0.6286 -0.4498,-1.089 -0.6191,-1.3811 0,0.1355 0.0042,0.4138 0.0127,0.835 0.0085,0.4212 0.0127,0.6678 0.0127,0.7398 0,0.4106 -0.0169,0.726 -0.0508,0.9461 -0.0339,0.2202 -0.0995,0.3302 -0.1968,0.3302 -0.1397,0 -0.2403,-0.1174 -0.3017,-0.3524 -0.0614,-0.2349 -0.092,-0.5577 -0.092,-0.9684l0 -1.7907c0,-0.3937 0.0201,-0.6953 0.0603,-0.9048 0.0402,-0.2096 0.1196,-0.3144 0.2381,-0.3144 0.1439,0 0.3408,0.2392 0.5906,0.7176 0.1651,0.3175 0.3862,0.8075 0.6635,1.47 0.2773,0.6625 0.4562,1.0763 0.5366,1.2414l-0.0444 -2.1145c0,-0.4995 0.0232,-0.8869 0.0698,-1.1621 0.0466,-0.2751 0.1291,-0.4127 0.2477,-0.4127 0.1164,0 0.1968,0.1249 0.2423,0.3746 0.0455,0.2498 0.0688,0.6054 0.0688,1.0668zm3.029 -1.1112c0,0.2498 -0.1746,0.3948 -0.5239,0.435 -0.3492,0.0402 -0.5683,0.0688 -0.6572,0.0857l0.0381 2.9972c0,0.2244 -0.0148,0.3926 -0.0444,0.5048 -0.0297,0.1122 -0.0932,0.1683 -0.1905,0.1683 -0.1143,0 -0.2043,-0.0826 -0.2699,-0.2477 -0.0656,-0.1651 -0.0984,-0.381 -0.0984,-0.6477 -0.0043,-0.1735 -0.0085,-0.437 -0.0127,-0.7905 -0.0043,-0.3535 -0.0096,-0.7345 -0.0159,-1.143 -0.0064,-0.4085 -0.0095,-0.6657 -0.0095,-0.7716 -0.072,-0.0169 -0.1609,-0.0254 -0.2667,-0.0254 -0.1101,0 -0.2181,0.0075 -0.3239,0.0223 -0.1058,0.0148 -0.199,0.0264 -0.2794,0.0349 -0.0974,0 -0.1715,-0.0148 -0.2223,-0.0445 -0.0719,-0.0423 -0.1079,-0.1164 -0.1079,-0.2222 0,-0.1609 0.1206,-0.2688 0.362,-0.3239 0.1651,-0.0381 0.4402,-0.0571 0.8255,-0.0571l0.3556 0c0.0592,-0.0085 0.273,-0.0423 0.6413,-0.1016 0.2625,-0.0423 0.4212,-0.0635 0.4763,-0.0635 0.0846,0 0.1598,0.0148 0.2254,0.0444 0.0656,0.0297 0.0984,0.0784 0.0984,0.1461zm2.3368 2.4193c0,0.5715 -0.1079,1.0436 -0.3238,1.4161 -0.2329,0.4022 -0.5483,0.6033 -0.9462,0.6033 -0.453,0 -0.8107,-0.2181 -1.0731,-0.6541 -0.2625,-0.436 -0.3937,-0.9843 -0.3937,-1.6447 0,-0.5969 0.1068,-1.0964 0.3206,-1.4986 0.2138,-0.4021 0.5027,-0.6032 0.8668,-0.6032 0.4699,0 0.8488,0.2349 1.1367,0.7048 0.2751,0.4488 0.4127,1.0076 0.4127,1.6764zm-0.5334 -0.0063c0,-0.5207 -0.0804,-0.9504 -0.2413,-1.2891 -0.1736,-0.364 -0.4106,-0.5461 -0.7112,-0.5461 -0.199,0 -0.363,0.1524 -0.4921,0.4572 -0.1291,0.3048 -0.1937,0.6837 -0.1937,1.1367 0,0.5122 0.0783,0.9271 0.235,1.2446 0.1778,0.3598 0.4233,0.5397 0.7366,0.5397 0.1905,0 0.3492,-0.1471 0.4762,-0.4413 0.127,-0.2942 0.1905,-0.6614 0.1905,-1.1017zm3.4354 0.5969c0,0.3514 -0.1418,0.6361 -0.4254,0.8541 -0.2837,0.218 -0.6329,0.327 -1.0478,0.327 -0.2286,0 -0.4635,-0.0614 -0.7048,-0.1842 -0.2413,-0.1227 -0.362,-0.2561 -0.362,-0.4 0,-0.0593 0.0286,-0.1154 0.0857,-0.1683 0.0572,-0.0529 0.1217,-0.0794 0.1937,-0.0794 0.0254,0 0.1503,0.0519 0.3747,0.1556 0.2243,0.1037 0.3725,0.1556 0.4445,0.1556 0.2286,0 0.4222,-0.055 0.581,-0.1651 0.1587,-0.1101 0.2381,-0.2625 0.2381,-0.4572 0,-0.2032 -0.1799,-0.3916 -0.5397,-0.5652 -0.3387,-0.1566 -0.6774,-0.3132 -1.016,-0.4699 -0.3641,-0.2116 -0.5461,-0.4572 -0.5461,-0.7366 0,-0.2963 0.1608,-0.5831 0.4826,-0.8604 0.3217,-0.2773 0.6752,-0.4159 1.0604,-0.4159 0.2709,0 0.4445,0.0042 0.5207,0.0127 0.2413,0.0254 0.362,0.1291 0.362,0.3111 0,0.1313 -0.2943,0.2202 -0.8827,0.2667 -0.5884,0.0466 -0.8826,0.2646 -0.8826,0.6541 0,0.2074 0.1778,0.3725 0.5334,0.4953 0.6011,0.2032 0.9313,0.3217 0.9906,0.3556 0.3598,0.2032 0.5397,0.508 0.5397,0.9144zm-19.9327 8.2296c0,0.1651 -0.0159,0.2921 -0.0477,0.381 -0.0317,0.0889 -0.0899,0.1334 -0.1746,0.1334 -0.1185,0 -0.2265,-0.1799 -0.3238,-0.5398 -0.0551,-0.2328 -0.108,-0.4677 -0.1588,-0.7048l-1.0795 0c-0.0593,0.2286 -0.1185,0.4572 -0.1778,0.6858 -0.0804,0.2752 -0.1968,0.4127 -0.3492,0.4127 -0.0889,0 -0.1419,-0.0127 -0.1588,-0.0381 -0.0339,-0.0508 -0.0508,-0.1375 -0.0508,-0.2603 0,-0.1016 0.0074,-0.217 0.0222,-0.3461 0.0148,-0.1291 0.0519,-0.3058 0.1112,-0.5302 0.0592,-0.2244 0.1185,-0.4456 0.1778,-0.6636 0.0592,-0.218 0.1735,-0.6276 0.3429,-1.2287 0.127,-0.4487 0.201,-0.6858 0.2222,-0.7112 0.1185,-0.4149 0.2942,-0.6223 0.5271,-0.6223 0.1143,0 0.2307,0.091 0.3492,0.273 0.1185,0.1821 0.2032,0.4128 0.254,0.6922 0.0169,0.0296 0.0582,0.2191 0.1238,0.5683 0.0656,0.3493 0.126,0.6763 0.181,0.9811 0.0296,0.1736 0.0593,0.3429 0.0889,0.508 0.0296,0.1651 0.0572,0.3556 0.0826,0.5715 0.0254,0.2159 0.0381,0.3619 0.0381,0.4381zm-0.7811 -1.2763l-0.3302 -2.0511 -0.5651 2.0511 0.8953 0zm3.8735 -1.4542l0 1.7018 0 0.2731c0,0.5715 -0.0265,0.9588 -0.0794,1.162 -0.0529,0.2033 -0.1301,0.3049 -0.2317,0.3049 -0.2075,0 -0.4107,-0.18 -0.6096,-0.5398 -0.1016,-0.1863 -0.2742,-0.5937 -0.5176,-1.2224 -0.2434,-0.6286 -0.4498,-1.089 -0.6191,-1.3811 0,0.1355 0.0042,0.4138 0.0127,0.835 0.0085,0.4212 0.0127,0.6678 0.0127,0.7398 0,0.4106 -0.0169,0.726 -0.0508,0.9461 -0.0339,0.2202 -0.0995,0.3302 -0.1968,0.3302 -0.1397,0 -0.2403,-0.1174 -0.3017,-0.3524 -0.0614,-0.2349 -0.092,-0.5577 -0.092,-0.9684l0 -1.7907c0,-0.3937 0.0201,-0.6953 0.0603,-0.9048 0.0402,-0.2096 0.1196,-0.3144 0.2381,-0.3144 0.1439,0 0.3408,0.2392 0.5906,0.7176 0.1651,0.3175 0.3862,0.8075 0.6635,1.47 0.2773,0.6625 0.4562,1.0763 0.5366,1.2414l-0.0444 -2.1145c0,-0.4995 0.0232,-0.8869 0.0698,-1.1621 0.0466,-0.2751 0.1291,-0.4127 0.2477,-0.4127 0.1164,0 0.1968,0.1249 0.2423,0.3746 0.0455,0.2498 0.0688,0.6054 0.0688,1.0668zm-0.4381 -2.0828c0.0169,0.1228 -0.0572,0.2689 -0.2223,0.4382 -0.1651,0.1693 -0.2921,0.254 -0.381,0.254 -0.0466,0 -0.1714,-0.0529 -0.3746,-0.1588 -0.0678,-0.0338 -0.1673,-0.0889 -0.2985,-0.1651 -0.072,0.0635 -0.127,0.1101 -0.1651,0.1397 -0.127,0.0974 -0.2201,0.1461 -0.2794,0.1461 -0.0381,0 -0.0656,0 -0.0825,0 -0.0847,0 -0.1376,-0.0106 -0.1588,-0.0318 -0.0212,-0.0211 -0.0317,-0.0762 -0.0317,-0.1651 0,-0.0889 0.127,-0.2095 0.381,-0.3619 0.0846,-0.0508 0.2116,-0.1207 0.381,-0.2096 0.0762,0.0254 0.1375,0.0487 0.1841,0.0699 0.1439,0.0677 0.2709,0.1524 0.381,0.254 0.055,-0.1058 0.1143,-0.1778 0.1778,-0.2159 0.0635,-0.0381 0.1439,-0.0572 0.2413,-0.0572 0.0381,0 0.0847,0.0106 0.1397,0.0318 0.055,0.0212 0.091,0.0317 0.108,0.0317zm3.5433 3.3909c0,0.5715 -0.1079,1.0436 -0.3238,1.4161 -0.2329,0.4022 -0.5483,0.6033 -0.9462,0.6033 -0.453,0 -0.8107,-0.2181 -1.0731,-0.6541 -0.2625,-0.436 -0.3937,-0.9843 -0.3937,-1.6447 0,-0.5969 0.1068,-1.0964 0.3206,-1.4986 0.2138,-0.4021 0.5027,-0.6032 0.8668,-0.6032 0.4699,0 0.8488,0.2349 1.1367,0.7048 0.2751,0.4488 0.4127,1.0076 0.4127,1.6764zm-0.5334 -0.0063c0,-0.5207 -0.0804,-0.9504 -0.2413,-1.2891 -0.1736,-0.364 -0.4106,-0.5461 -0.7112,-0.5461 -0.199,0 -0.363,0.1524 -0.4921,0.4572 -0.1291,0.3048 -0.1937,0.6837 -0.1937,1.1367 0,0.5122 0.0783,0.9271 0.235,1.2446 0.1778,0.3598 0.4233,0.5397 0.7366,0.5397 0.1905,0 0.3492,-0.1471 0.4762,-0.4413 0.127,-0.2942 0.1905,-0.6614 0.1905,-1.1017zm3.4354 0.5969c0,0.3514 -0.1418,0.6361 -0.4254,0.8541 -0.2837,0.218 -0.6329,0.327 -1.0478,0.327 -0.2286,0 -0.4635,-0.0614 -0.7048,-0.1842 -0.2413,-0.1227 -0.362,-0.2561 -0.362,-0.4 0,-0.0593 0.0286,-0.1154 0.0857,-0.1683 0.0572,-0.0529 0.1217,-0.0794 0.1937,-0.0794 0.0254,0 0.1503,0.0519 0.3747,0.1556 0.2243,0.1037 0.3725,0.1556 0.4445,0.1556 0.2286,0 0.4222,-0.055 0.581,-0.1651 0.1587,-0.1101 0.2381,-0.2625 0.2381,-0.4572 0,-0.2032 -0.1799,-0.3916 -0.5397,-0.5652 -0.3387,-0.1566 -0.6774,-0.3132 -1.016,-0.4699 -0.3641,-0.2116 -0.5461,-0.4572 -0.5461,-0.7366 0,-0.2963 0.1608,-0.5831 0.4826,-0.8604 0.3217,-0.2773 0.6752,-0.4159 1.0604,-0.4159 0.2709,0 0.4445,0.0042 0.5207,0.0127 0.2413,0.0254 0.362,0.1291 0.362,0.3111 0,0.1313 -0.2943,0.2202 -0.8827,0.2667 -0.5884,0.0466 -0.8826,0.2646 -0.8826,0.6541 0,0.2074 0.1778,0.3725 0.5334,0.4953 0.6011,0.2032 0.9313,0.3217 0.9906,0.3556 0.3598,0.2032 0.5397,0.508 0.5397,0.9144zm5.7595 -3.0099c0,0.2498 -0.1746,0.3948 -0.5239,0.435 -0.3492,0.0402 -0.5683,0.0688 -0.6572,0.0857l0.0381 2.9972c0,0.2244 -0.0148,0.3926 -0.0444,0.5048 -0.0297,0.1122 -0.0932,0.1683 -0.1905,0.1683 -0.1143,0 -0.2043,-0.0826 -0.2699,-0.2477 -0.0656,-0.1651 -0.0984,-0.381 -0.0984,-0.6477 -0.0043,-0.1735 -0.0085,-0.437 -0.0127,-0.7905 -0.0043,-0.3535 -0.0096,-0.7345 -0.0159,-1.143 -0.0064,-0.4085 -0.0095,-0.6657 -0.0095,-0.7716 -0.072,-0.0169 -0.1609,-0.0254 -0.2667,-0.0254 -0.1101,0 -0.2181,0.0075 -0.3239,0.0223 -0.1058,0.0148 -0.199,0.0264 -0.2794,0.0349 -0.0974,0 -0.1715,-0.0148 -0.2223,-0.0445 -0.0719,-0.0423 -0.1079,-0.1164 -0.1079,-0.2222 0,-0.1609 0.1206,-0.2688 0.362,-0.3239 0.1651,-0.0381 0.4402,-0.0571 0.8255,-0.0571l0.3556 0c0.0592,-0.0085 0.273,-0.0423 0.6413,-0.1016 0.2625,-0.0423 0.4212,-0.0635 0.4763,-0.0635 0.0846,0 0.1598,0.0148 0.2254,0.0444 0.0656,0.0297 0.0984,0.0784 0.0984,0.1461zm0.6732 3.7211c0,0.3471 -0.0212,0.599 -0.0624,0.7557 -0.053,0.2032 -0.1461,0.3048 -0.2784,0.3048 -0.0709,0 -0.1217,-0.0858 -0.1524,-0.2572 -0.0307,-0.1715 -0.0465,-0.4096 -0.0465,-0.7144l-0.0826 -2.8321c0,-0.1947 0.0222,-0.345 0.0667,-0.4509 0.0444,-0.1058 0.128,-0.1587 0.2508,-0.1587 0.1185,0 0.199,0.1037 0.2413,0.3111 0.0423,0.2075 0.0635,0.5631 0.0635,1.0668l0 1.9749zm2.413 -0.0445c0,0.1609 -0.1482,0.29 -0.4445,0.3874 -0.254,0.0847 -0.5355,0.127 -0.8445,0.127 -0.1567,0 -0.2689,-0.0783 -0.3366,-0.235 -0.0508,-0.1185 -0.0762,-0.2783 -0.0762,-0.4773 -0.0042,-0.182 -0.0085,-0.3344 -0.0127,-0.4582 -0.0296,-0.8774 -0.0444,-1.5177 -0.0444,-1.9198 0,-0.4964 0.0127,-0.8964 0.0381,-1.2023l1.1239 -0.1397c0.0423,0 0.072,0 0.0889,0 0.1101,0 0.1969,0.0201 0.2604,0.0603 0.0635,0.0402 0.0952,0.1027 0.0952,0.1873 0,0.072 -0.0423,0.1376 -0.127,0.1969 -0.0847,0.0593 -0.1799,0.0995 -0.2857,0.1206l-0.5842 0.108 0 1.2509 0.5207 -0.0254c0.1651,0 0.2815,0.0297 0.3492,0.0889 0.0677,0.0593 0.1016,0.1397 0.1016,0.2413 0,0.0847 -0.0349,0.1535 -0.1048,0.2064 -0.0698,0.0529 -0.1534,0.0794 -0.2508,0.0794l-0.5778 0.0381 0.0381 1.1747c0.0846,0 0.1957,-0.0095 0.3333,-0.0285 0.1376,-0.0191 0.2657,-0.0371 0.3842,-0.054 0.1058,0 0.1916,0.0201 0.2572,0.0603 0.0656,0.0402 0.0984,0.1111 0.0984,0.2127zm2.8702 -2.5654l0 1.7018 0 0.2731c0,0.5715 -0.0265,0.9588 -0.0794,1.162 -0.0529,0.2033 -0.1301,0.3049 -0.2317,0.3049 -0.2075,0 -0.4107,-0.18 -0.6096,-0.5398 -0.1016,-0.1863 -0.2742,-0.5937 -0.5176,-1.2224 -0.2434,-0.6286 -0.4498,-1.089 -0.6191,-1.3811 0,0.1355 0.0042,0.4138 0.0127,0.835 0.0085,0.4212 0.0127,0.6678 0.0127,0.7398 0,0.4106 -0.0169,0.726 -0.0508,0.9461 -0.0339,0.2202 -0.0995,0.3302 -0.1968,0.3302 -0.1397,0 -0.2403,-0.1174 -0.3017,-0.3524 -0.0614,-0.2349 -0.092,-0.5577 -0.092,-0.9684l0 -1.7907c0,-0.3937 0.0201,-0.6953 0.0603,-0.9048 0.0402,-0.2096 0.1196,-0.3144 0.2381,-0.3144 0.1439,0 0.3408,0.2392 0.5906,0.7176 0.1651,0.3175 0.3862,0.8075 0.6635,1.47 0.2773,0.6625 0.4562,1.0763 0.5366,1.2414l-0.0444 -2.1145c0,-0.4995 0.0232,-0.8869 0.0698,-1.1621 0.0466,-0.2751 0.1291,-0.4127 0.2477,-0.4127 0.1164,0 0.1968,0.1249 0.2423,0.3746 0.0455,0.2498 0.0688,0.6054 0.0688,1.0668zm2.2035 2.5654c0,0.1609 -0.1482,0.29 -0.4445,0.3874 -0.254,0.0847 -0.5355,0.127 -0.8445,0.127 -0.1567,0 -0.2689,-0.0783 -0.3366,-0.235 -0.0508,-0.1185 -0.0762,-0.2783 -0.0762,-0.4773 -0.0042,-0.182 -0.0085,-0.3344 -0.0127,-0.4582 -0.0296,-0.8774 -0.0444,-1.5177 -0.0444,-1.9198 0,-0.4964 0.0127,-0.8964 0.0381,-1.2023l1.1239 -0.1397c0.0423,0 0.072,0 0.0889,0 0.1101,0 0.1969,0.0201 0.2604,0.0603 0.0635,0.0402 0.0952,0.1027 0.0952,0.1873 0,0.072 -0.0423,0.1376 -0.127,0.1969 -0.0847,0.0593 -0.1799,0.0995 -0.2857,0.1206l-0.5842 0.108 0 1.2509 0.5207 -0.0254c0.1651,0 0.2815,0.0297 0.3492,0.0889 0.0677,0.0593 0.1016,0.1397 0.1016,0.2413 0,0.0847 -0.0349,0.1535 -0.1048,0.2064 -0.0698,0.0529 -0.1534,0.0794 -0.2508,0.0794l-0.5778 0.0381 0.0381 1.1747c0.0846,0 0.1957,-0.0095 0.3333,-0.0285 0.1376,-0.0191 0.2657,-0.0371 0.3842,-0.054 0.1058,0 0.1916,0.0201 0.2572,0.0603 0.0656,0.0402 0.0984,0.1111 0.0984,0.2127zm2.7559 -0.6667c0,0.3514 -0.1418,0.6361 -0.4254,0.8541 -0.2837,0.218 -0.6329,0.327 -1.0478,0.327 -0.2286,0 -0.4635,-0.0614 -0.7048,-0.1842 -0.2413,-0.1227 -0.362,-0.2561 -0.362,-0.4 0,-0.0593 0.0286,-0.1154 0.0857,-0.1683 0.0572,-0.0529 0.1217,-0.0794 0.1937,-0.0794 0.0254,0 0.1503,0.0519 0.3747,0.1556 0.2243,0.1037 0.3725,0.1556 0.4445,0.1556 0.2286,0 0.4222,-0.055 0.581,-0.1651 0.1587,-0.1101 0.2381,-0.2625 0.2381,-0.4572 0,-0.2032 -0.1799,-0.3916 -0.5397,-0.5652 -0.3387,-0.1566 -0.6774,-0.3132 -1.016,-0.4699 -0.3641,-0.2116 -0.5461,-0.4572 -0.5461,-0.7366 0,-0.2963 0.1608,-0.5831 0.4826,-0.8604 0.3217,-0.2773 0.6752,-0.4159 1.0604,-0.4159 0.2709,0 0.4445,0.0042 0.5207,0.0127 0.2413,0.0254 0.362,0.1291 0.362,0.3111 0,0.1313 -0.2943,0.2202 -0.8827,0.2667 -0.5884,0.0466 -0.8826,0.2646 -0.8826,0.6541 0,0.2074 0.1778,0.3725 0.5334,0.4953 0.6011,0.2032 0.9313,0.3217 0.9906,0.3556 0.3598,0.2032 0.5397,0.508 0.5397,0.9144zm2.8639 -2.3241c0,0.2032 -0.0995,0.4276 -0.2984,0.6731 -0.2456,0.2455 -0.4911,0.4889 -0.7366,0.7302 -0.0424,0.144 -0.0784,0.2583 -0.108,0.3429 -0.0593,0.1651 -0.1609,0.2477 -0.3048,0.2477 -0.0762,0 -0.127,-0.0212 -0.1524,-0.0635 -0.0085,-0.0212 -0.0148,-0.0847 -0.019,-0.1905 -0.0043,-0.1058 -0.0064,-0.1842 -0.0064,-0.235 0,-0.0296 0,-0.0465 0,-0.0508 0,-0.0042 0,-0.0084 0,-0.0127 0,-0.1397 0.1916,-0.4032 0.5747,-0.7905 0.3831,-0.3874 0.562,-0.6234 0.5366,-0.7081 -0.0593,-0.2074 -0.2329,-0.3111 -0.5207,-0.3111 -0.1313,0 -0.3048,0.0783 -0.5207,0.2349 -0.2286,0.1778 -0.4572,0.3535 -0.6858,0.5271 -0.0381,0 -0.072,-0.0148 -0.1016,-0.0445 -0.0466,-0.0423 -0.0699,-0.0994 -0.0699,-0.1714 0,-0.2074 0.1651,-0.436 0.4953,-0.6858 0.3302,-0.2498 0.6414,-0.3747 0.9335,-0.3747 0.2709,0 0.5027,0.0815 0.6953,0.2445 0.1926,0.163 0.2889,0.3757 0.2889,0.6382zm-0.9588 3.2766c0,0.1016 -0.0254,0.1852 -0.0762,0.2508 -0.0508,0.0656 -0.1292,0.0984 -0.235,0.0984 -0.0974,0 -0.1757,-0.0296 -0.2349,-0.0889 -0.0593,-0.0592 -0.0889,-0.1375 -0.0889,-0.2349 0,-0.0974 0.0275,-0.182 0.0825,-0.254 0.055,-0.072 0.127,-0.1122 0.2159,-0.1207 0.1016,0 0.1831,0.0329 0.2445,0.0985 0.0614,0.0656 0.0921,0.1492 0.0921,0.2508z"/>
  <g id="_404313400">
   <path id="_404998248" class="fil19" d="M272.106 115.873c-1.61,0.6556 -1.5438,4.0138 1.1649,3.5986 2.7086,-0.4153 1.4116,-4.6478 -1.1649,-3.5986z"/>
   <path id="_404998920" class="fil8" d="M272.256 116.768c-0.9353,0.2833 -0.7449,2.1079 0.8594,2.0042 0.3851,-0.0249 0.6217,-0.1796 0.7387,-0.3939 -0.0509,0.0092 -0.1048,0.0162 -0.1622,0.0199 -1.2757,0.0824 -1.6572,-1.0543 -1.2899,-1.6659 -0.0481,0.009 -0.0967,0.0207 -0.146,0.0357z"/>
   <path id="_404998992" class="fil0 str9" d="M221.264 129.27c0.7523,-0.4343 2.0669,0.4336 2.9356,1.9383 0.8687,1.5047 0.9631,3.0771 0.2108,3.5115 -0.7523,0.4343 -2.0669,-0.4336 -2.9356,-1.9383 -0.8688,-1.5047 -0.9631,-3.0771 -0.2108,-3.5115zm53.6856 0c-0.7523,-0.4343 -2.0669,0.4336 -2.9356,1.9383 -0.8687,1.5047 -0.9631,3.0771 -0.2108,3.5115 0.7524,0.4343 2.0669,-0.4336 2.9357,-1.9383 0.8687,-1.5047 0.9631,-3.0771 0.2107,-3.5115z"/>
   <path id="_404999592" class="fil0 str0" d="M248.107 100.931c26.922,0 24.7306,17.0723 24.7306,30.7282 0,13.656 -11.0747,18.7332 -24.7306,18.7332 -13.656,0 -24.7307,-5.0772 -24.7307,-18.7332 0,-13.6559 -2.1914,-30.7282 24.7307,-30.7282z"/>
   <path id="_405000120" class="fil3 str0" d="M246.077 135.16c0,0 1.9981,1.1768 4.0599,0"/>
   <path id="_404998152" class="fil12 str10" d="M246.28 113.938c-0.5978,-0.3337 -3.0619,2.5442 -5.3395,2.4208 -3.5165,-0.1904 0.594,-4.7758 -1.598,-4.5787 -13.0095,1.1695 -15.0375,14.6251 -15.2668,23.798 0,0 -1.4592,-4.6446 -3.0464,-9.0326 -1.5873,-4.388 -1.6807,-16.0893 8.2165,-22.0313 8.7349,-5.2444 17.0322,-5.2193 18.8605,-5.141 1.8283,-0.0783 10.1256,-0.1034 18.8605,5.141 9.8972,5.942 9.8038,17.6433 8.2165,22.0313 -1.5873,4.388 -3.0464,9.0326 -3.0464,9.0326 -0.0564,-8.0406 -1.2704,-19.2135 -10.3955,-22.3695 -2.9099,-1.0066 -2.5776,3.7752 -7.6827,3.8103 -0.9999,0.0068 1.756,-3.9445 0.7367,-3.8716 -4.2304,0.3027 -3.9314,5.0216 -8.0463,4.9023 -2.9861,-0.0866 1.3537,-3.094 -0.4691,-4.1116z"/>
   <path id="_404992968" class="fil22" d="M231.701 135.683c1.6471,0 2.9829,1.3357 2.9829,2.9829 0,1.6471 -1.3358,2.9828 -2.9829,2.9828 -1.6471,0 -2.9829,-1.3357 -2.9829,-2.9828 0,-1.6472 1.3358,-2.9829 2.9829,-2.9829zm32.812 0c1.647,0 2.9828,1.3359 2.9828,2.9829 0,1.6472 -1.3358,2.9829 -2.9828,2.9829 -1.6472,0 -2.983,-1.3357 -2.983,-2.9829 0,-1.647 1.3358,-2.9829 2.983,-2.9829z"/>
   <path id="_404322400" class="fil12" d="M266.78 124.944c0,0 -4.4428,-0.6873 -8.6754,0.3892 0,0 -0.6761,-1.7066 0.8925,-2.4354 0.9397,-0.4363 4.79,-0.5263 5.9579,-0.512 1.2019,0.0147 1.825,2.5582 1.825,2.5582z"/>
   <path id="_404317648" class="fil12" d="M229.566 124.944c0,0 4.4427,-0.6873 8.6753,0.3892 0,0 0.6762,-1.7066 -0.8924,-2.4354 -0.9397,-0.4363 -4.79,-0.5263 -5.958,-0.512 -1.2018,0.0147 -1.8249,2.5582 -1.8249,2.5582z"/>
   <path id="_404312920" class="fil20" d="M262.37 125.96c-1.7106,0 -3.0982,0.8671 -3.0982,1.9365 0,1.0693 1.3876,1.9364 3.0982,1.9364 1.7106,0 3.0983,-0.8671 3.0983,-1.9364 0,-1.0694 -1.3877,-1.9365 -3.0983,-1.9365z"/>
   <g style="clip-path:url(#id8)">
    <g>
     <circle id="_591623280" class="fil12" transform="matrix(-2.81926 -0.755418 -0.755418 2.81926 262.37 127.897)" r="0.682"/>
    </g>
   </g>
   <path class="fil3 str4" d="M262.37 125.96c-1.7106,0 -3.0982,0.8671 -3.0982,1.9365 0,1.0693 1.3876,1.9364 3.0982,1.9364 1.7106,0 3.0983,-0.8671 3.0983,-1.9364 0,-1.0694 -1.3877,-1.9365 -3.0983,-1.9365z"/>
   <path id="_404312608" class="fil20" d="M233.976 125.96c1.7106,0 3.0982,0.8671 3.0982,1.9365 0,1.0693 -1.3876,1.9364 -3.0982,1.9364 -1.7106,0 -3.0983,-0.8671 -3.0983,-1.9364 0,-1.0694 1.3877,-1.9365 3.0983,-1.9365z"/>
   <g style="clip-path:url(#id9)">
    <g>
     <circle id="_591628752" class="fil12" transform="matrix(2.81926 -0.755418 0.755418 2.81926 233.976 127.897)" r="0.682"/>
    </g>
   </g>
   <path class="fil3 str4" d="M233.976 125.96c1.7106,0 3.0982,0.8671 3.0982,1.9365 0,1.0693 -1.3876,1.9364 -3.0982,1.9364 -1.7106,0 -3.0983,-0.8671 -3.0983,-1.9364 0,-1.0694 1.3877,-1.9365 3.0983,-1.9365z"/>
   <g>
    <path id="_404312824" class="fil14" d="M248.107 106.135l25.4977 0c0.3699,0 5.9179,-36.8672 -25.4977,-31.0329 -31.4156,-5.8343 -25.8676,31.0329 -25.4977,31.0329l25.4977 0z"/>
    <g style="clip-path:url(#id10)">
     <g>
      <ellipse id="_591626232" class="fil6" cx="248.107" cy="102.008" rx="61.401" ry="5.82614"/>
     </g>
    </g>
    <path class="fil3 str11" d="M248.107 106.135l25.4977 0c0.3699,0 5.9179,-36.8672 -25.4977,-31.0329 -31.4156,-5.8343 -25.8676,31.0329 -25.4977,31.0329l25.4977 0z"/>
    <path id="_404312896" class="fil14 str11" d="M248.107 104.078c22.2919,0 40.3701,1.1636 40.3701,2.9682 0,1.8046 -18.0782,5.7683 -40.3701,5.7683 -22.2919,0 -40.37,-3.9637 -40.37,-5.7683 0,-1.8046 18.0781,-2.9682 40.37,-2.9682z"/>
   </g>
   <path id="_404314120" class="fil23 str12" d="M250.873 141.587c0,1.5276 -1.2389,2.7665 -2.7665,2.7665 -1.5276,0 -2.7665,-1.2389 -2.7665,-2.7665l5.533 0z"/>
  </g>
  <g id="_404314216">
   <g>
    <path id="_404312992" class="fil7" d="M120.066 158.693c-0.4575,-9.4422 -8.6395,-14.2637 -13.0684,-13.3435 -4.4289,0.9202 -9.7178,7.5146 -13.2918,19.3936 -3.574,11.879 26.8177,3.3921 26.3602,-6.0501z"/>
    <g style="clip-path:url(#id11)">
     <g>
      <path id="_5960937681" class="fil5" d="M117.466 164.133c-0.6244,-12.8857 -11.7902,-19.4655 -17.8343,-18.2097 -1.8193,0.378 -3.7449,1.4587 -5.681,3.2254 7.5908,0.1509 18.8347,7.8712 20.1017,21.8287 2.2032,-2.1255 3.529,-4.4624 3.4136,-6.8444z"/>
      <path id="_596093696" class="fil19" d="M97.3402 151.1c0,0 7.6025,2.9328 10.9053,8.1968 3.3028,5.264 4.3054,12.1824 4.3054,12.1824l-0.8577 0c0,0 -1.626,-9.271 -5.7758,-13.7616 -4.1498,-4.4906 -8.4547,-5.664 -8.4547,-5.664l-0.1225 -0.9536z"/>
      <path id="_596093624" class="fil24" d="M95.5252 152.755c0,0 7.6025,2.9328 10.9053,8.1968 3.3028,5.264 4.3054,12.1824 4.3054,12.1824l-0.8577 0c0,0 -1.626,-9.271 -5.7758,-13.7616 -4.1498,-4.4906 -8.4547,-5.664 -8.4547,-5.664l-0.1225 -0.9536z"/>
      <path id="_596093552" class="fil5" d="M76.2993 144.873c0,0 19.784,7.6321 28.3791,21.3308 8.595,13.6986 11.204,31.7026 11.204,31.7026l-2.232 0c0,0 -4.2314,-24.1262 -15.0305,-35.8122 -10.7992,-11.686 -22.0018,-14.7396 -22.0018,-14.7396l-0.3188 -2.4816z"/>
      <path id="_596093480" class="fil19" d="M88.319 158.093c0,0 7.6025,2.9328 10.9053,8.1968 3.3028,5.264 4.3054,12.1824 4.3054,12.1824l-0.8577 0c0,0 -1.626,-9.271 -5.7758,-13.7616 -4.1498,-4.4906 -8.4547,-5.664 -8.4547,-5.664l-0.1225 -0.9536z"/>
      <path id="_596093408" class="fil24" d="M105 143.205c0,0 7.6025,2.9328 10.9053,8.1968 3.3028,5.264 4.3054,12.1824 4.3054,12.1824l-0.8577 0c0,0 -1.626,-9.271 -5.7758,-13.7616 -4.1498,-4.4906 -8.4547,-5.664 -8.4547,-5.664l-0.1225 -0.9536z"/>
     </g>
    </g>
    <path class="fil3 str13" d="M120.066 158.693c-0.4575,-9.4422 -8.6395,-14.2637 -13.0684,-13.3435 -4.4289,0.9202 -9.7178,7.5146 -13.2918,19.3936 -3.574,11.879 26.8177,3.3921 26.3602,-6.0501z"/>
    <path id="_404313760" class="fil7" d="M120.186 158.693c0.4575,-9.4422 8.6395,-14.2637 13.0684,-13.3435 4.4289,0.9202 9.7178,7.5146 13.2918,19.3936 3.574,11.879 -26.8177,3.3921 -26.3602,-6.0501z"/>
    <g style="clip-path:url(#id12)">
     <g>
      <path id="_5960877201" class="fil5" d="M122.786 164.133c0.6244,-12.8857 11.7902,-19.4655 17.8343,-18.2097 1.8193,0.378 3.7449,1.4587 5.681,3.2254 -7.5908,0.1509 -18.8347,7.8712 -20.1017,21.8287 -2.2032,-2.1255 -3.529,-4.4624 -3.4136,-6.8444z"/>
      <path id="_596087648" class="fil19" d="M142.912 151.1c0,0 -7.6025,2.9328 -10.9053,8.1968 -3.3028,5.264 -4.3054,12.1824 -4.3054,12.1824l0.8577 0c0,0 1.626,-9.271 5.7758,-13.7616 4.1498,-4.4906 8.4547,-5.664 8.4547,-5.664l0.1225 -0.9536z"/>
      <path id="_596087576" class="fil24" d="M144.727 152.755c0,0 -7.6025,2.9328 -10.9053,8.1968 -3.3028,5.264 -4.3054,12.1824 -4.3054,12.1824l0.8577 0c0,0 1.626,-9.271 5.7758,-13.7616 4.1498,-4.4906 8.4547,-5.664 8.4547,-5.664l0.1225 -0.9536z"/>
      <path id="_596087504" class="fil5" d="M163.953 144.873c0,0 -19.784,7.6321 -28.3791,21.3308 -8.595,13.6986 -11.204,31.7026 -11.204,31.7026l2.232 0c0,0 4.2314,-24.1262 15.0305,-35.8122 10.7992,-11.686 22.0018,-14.7396 22.0018,-14.7396l0.3188 -2.4816z"/>
      <path id="_596087432" class="fil19" d="M151.933 158.093c0,0 -7.6025,2.9328 -10.9053,8.1968 -3.3028,5.264 -4.3054,12.1824 -4.3054,12.1824l0.8577 0c0,0 1.626,-9.271 5.7758,-13.7616 4.1498,-4.4906 8.4547,-5.664 8.4547,-5.664l0.1225 -0.9536z"/>
      <path id="_596087360" class="fil24" d="M135.252 143.205c0,0 -7.6025,2.9328 -10.9053,8.1968 -3.3028,5.264 -4.3054,12.1824 -4.3054,12.1824l0.8577 0c0,0 1.626,-9.271 5.7758,-13.7616 4.1498,-4.4906 8.4547,-5.664 8.4547,-5.664l0.1225 -0.9536z"/>
     </g>
    </g>
    <path class="fil3 str13" d="M120.186 158.693c0.4575,-9.4422 8.6395,-14.2637 13.0684,-13.3435 4.4289,0.9202 9.7178,7.5146 13.2918,19.3936 3.574,11.879 -26.8177,3.3921 -26.3602,-6.0501z"/>
   </g>
   <path id="_404313832" class="fil13" d="M117.309 153.377c-0.3743,0.3743 -0.4216,0.9813 -0.1818,1.5748 -0.5892,0.2501 -0.9849,0.7127 -0.9849,1.242 0,0.5293 0.3957,0.9919 0.9849,1.242 -0.2398,0.5934 -0.1925,1.2004 0.1818,1.5747 0.3743,0.3743 0.9813,0.4216 1.5747,0.1818 0.25,0.5893 0.7127,0.9849 1.2421,0.9849 0.5294,0 0.9921,-0.3957 1.2421,-0.9849 0.5935,0.2398 1.2003,0.1925 1.5746,-0.1818 0.3743,-0.3743 0.4215,-0.9812 0.1818,-1.5746 0.5892,-0.2501 0.985,-0.7127 0.985,-1.2421 0,-0.5294 -0.3958,-0.992 -0.985,-1.2421 0.2398,-0.5935 0.1925,-1.2004 -0.1818,-1.5747 -0.3743,-0.3743 -0.9812,-0.4216 -1.5746,-0.1818 -0.25,-0.5892 -0.7128,-0.9849 -1.2421,-0.9849 -0.5294,0 -0.9921,0.3956 -1.2421,0.9849 -0.5934,-0.2398 -1.2004,-0.1925 -1.5747,0.1818z"/>
   <circle id="_404314336" class="fil20" cx="120.126" cy="156.193" r="1.9917"/>
  </g>
  <g id="_404313976">
   <path id="_404314480" class="fil0 str0" d="M92.6316 125.64c0.7706,-0.4449 2.1171,0.4441 3.0069,1.9853 0.8898,1.5412 0.9865,3.1518 0.2159,3.5967 -0.7706,0.4449 -2.1171,-0.4441 -3.0069,-1.9853 -0.8898,-1.5412 -0.9865,-3.1518 -0.2159,-3.5967zm54.989 0c-0.7706,-0.4449 -2.1171,0.4441 -3.0069,1.9853 -0.8898,1.5412 -0.9865,3.1518 -0.2159,3.5967 0.7706,0.4449 2.1171,-0.4441 3.0069,-1.9853 0.8898,-1.5412 0.9865,-3.1518 0.2159,-3.5967z"/>
   <path id="_404315224" class="fil0 str0" d="M120.126 96.6132c27.5756,0 25.331,17.4867 25.331,31.4742 0,13.9875 -11.3435,19.1879 -25.331,19.1879 -13.9875,0 -25.3311,-5.2004 -25.3311,-19.1879 0,-13.9875 -2.2446,-31.4742 25.3311,-31.4742z"/>
   <path id="_404314576" class="fil3 str0" d="M118.047 130.597c0,0 2.0466,1.2541 4.1584,0"/>
   <path id="_404315656" class="fil12 str4" d="M112.776 108.898c-0.5102,0.5597 -0.6686,2.7948 -5.7382,2.9452 -5.0695,0.1503 -5.9434,1.0812 -8.0474,6.4185 -2.104,5.3372 -3.4785,15.9207 -3.4785,15.9207 0,0 -1.4946,-6.8381 -3.1204,-11.3326 -1.6258,-4.4945 -1.7214,-16.4798 8.416,-22.5661 8.947,-5.3718 17.4457,-5.3461 19.3184,-5.2658 1.8727,-0.0803 10.3714,-0.106 19.3184,5.2658 10.1374,6.0863 10.0418,18.0716 8.416,22.5661 -1.6258,4.4945 -3.1204,11.3326 -3.1204,11.3326 0,0 -1.3745,-10.5835 -3.4785,-15.9207 -2.104,-5.3373 -17.6778,-6.2682 -22.7473,-6.4185 -5.0695,-0.1504 -5.2279,-2.3855 -5.7381,-2.9452z"/>
   <path id="_404315632" class="fil14" d="M137.117 102.41c0,0 4.0228,3.1794 3.999,7.2473 0,0 -1.7372,-3.6451 -3.999,-7.2473z"/>
   <path id="_404313544" class="fil14" d="M129.944 100.093c0,0 4.0229,3.1794 3.999,7.2474 0,0 -1.7371,-3.6452 -3.999,-7.2474z"/>
   <path id="_404316208" class="fil14" d="M122.541 98.0526c0,0 4.0228,3.1794 3.999,7.2474 0,0 -1.7372,-3.6452 -3.999,-7.2474z"/>
   <path id="_404316016" class="fil14" d="M104.98 100.093c0,0 -4.0229,3.1794 -3.999,7.2474 0,0 1.7371,-3.6452 3.999,-7.2474z"/>
   <path id="_404316376" class="fil22" d="M103.322 132.209c1.687,0 3.0552,1.368 3.0552,3.0552 0,1.6872 -1.3682,3.0552 -3.0552,3.0552 -1.6872,0 -3.0554,-1.368 -3.0554,-3.0552 0,-1.6872 1.3682,-3.0552 3.0554,-3.0552zm33.6084 0c1.6871,0 3.0553,1.3682 3.0553,3.0552 0,1.6873 -1.3682,3.0553 -3.0553,3.0553 -1.6871,0 -3.0553,-1.368 -3.0553,-3.0553 0,-1.687 1.3682,-3.0552 3.0553,-3.0552z"/>
   <path id="_404316640" class="fil20" d="M106.154 122.184c1.6523,0.4427 2.7683,1.6395 2.4915,2.6723 -0.2767,1.0329 -1.8416,1.5113 -3.4939,1.0686 -1.6523,-0.4427 -2.7683,-1.6395 -2.4915,-2.6723 0.2768,-1.0329 1.8416,-1.5113 3.4939,-1.0686z"/>
   <g style="clip-path:url(#id13)">
    <g>
     <circle id="_591609720" class="fil12" cx="105.653" cy="124.054" r="1.99056"/>
    </g>
   </g>
   <path class="fil3 str4" d="M106.154 122.184c1.6523,0.4427 2.7683,1.6395 2.4915,2.6723 -0.2767,1.0329 -1.8416,1.5113 -3.4939,1.0686 -1.6523,-0.4427 -2.7683,-1.6395 -2.4915,-2.6723 0.2768,-1.0329 1.8416,-1.5113 3.4939,-1.0686z"/>
   <path id="_404317072" class="fil12" d="M101.646 120.779c0,0 4.3353,-0.7039 8.6706,0.3986 0,0 -3.4882,-4.6841 -8.6706,-0.3986z"/>
   <path id="_404316880" class="fil20" d="M134.214 122.184c-1.6523,0.4427 -2.7682,1.6395 -2.4915,2.6723 0.2768,1.0329 1.8416,1.5113 3.4939,1.0686 1.6523,-0.4427 2.7683,-1.6395 2.4915,-2.6723 -0.2767,-1.0329 -1.8415,-1.5113 -3.4939,-1.0686z"/>
   <g style="clip-path:url(#id14)">
    <g>
     <circle id="_591615504" class="fil12" cx="134.715" cy="124.054" r="1.99056"/>
    </g>
   </g>
   <path class="fil3 str4" d="M134.214 122.184c-1.6523,0.4427 -2.7682,1.6395 -2.4915,2.6723 0.2768,1.0329 1.8416,1.5113 3.4939,1.0686 1.6523,-0.4427 2.7683,-1.6395 2.4915,-2.6723 -0.2767,-1.0329 -1.8415,-1.5113 -3.4939,-1.0686z"/>
   <path id="_404317432" class="fil12" d="M138.721 120.779c0,0 -4.3353,-0.7039 -8.6707,0.3986 0,0 3.4882,-4.6841 8.6707,-0.3986z"/>
   <path id="_404316784" class="fil14" d="M120.126 105.477l25.4977 0c0,0 1.7945,-8.7889 -1.3311,-21.8647 -3.1257,-13.0758 -24.1666,-9.1682 -24.1666,-9.1682 0,0 -21.0409,-3.9076 -24.1666,9.1682 -3.1256,13.0758 -1.3311,21.8647 -1.3311,21.8647l25.4977 0z"/>
   <g style="clip-path:url(#id15)">
    <g>
     <ellipse id="_591618432" class="fil17" cx="120.126" cy="101.351" rx="61.401" ry="5.82614"/>
    </g>
   </g>
   <path class="fil3 str11" d="M120.126 105.477l25.4977 0c0,0 1.7945,-8.7889 -1.3311,-21.8647 -3.1257,-13.0758 -24.1666,-9.1682 -24.1666,-9.1682 0,0 -21.0409,-3.9076 -24.1666,9.1682 -3.1256,13.0758 -1.3311,21.8647 -1.3311,21.8647l25.4977 0z"/>
   <ellipse id="_404319040" class="fil14 str11" cx="120.126" cy="106.389" rx="34.4432" ry="3.2682"/>
   <path id="_404314000" class="fil23 str12" d="M122.893 139.078c0,1.5276 -1.2389,2.7665 -2.7665,2.7665 -1.5276,0 -2.7665,-1.2389 -2.7665,-2.7665l5.533 0z"/>
  </g>
 </g>
</svg>
