<?xml version="1.0" encoding="UTF-8"?>
<!DOCTYPE svg PUBLIC "-//W3C//DTD SVG 1.1//EN" "http://www.w3.org/Graphics/SVG/1.1/DTD/svg11.dtd">
<!-- Creator: CorelDRAW -->
<svg xmlns="http://www.w3.org/2000/svg" xml:space="preserve" width="420mm" height="297mm" style="shape-rendering:geometricPrecision; text-rendering:geometricPrecision; image-rendering:optimizeQuality; fill-rule:evenodd; clip-rule:evenodd"
viewBox="0 0 420 297"
 xmlns:xlink="http://www.w3.org/1999/xlink">
 <defs>
  <style type="text/css">
   <![CDATA[
    .str9 {stroke:#1F1A17;stroke-width:0.75}
    .str4 {stroke:#1F1A17;stroke-width:0.75;stroke-linecap:round;stroke-linejoin:round}
    .str8 {stroke:#383431;stroke-width:0.75}
    .str2 {stroke:#383431;stroke-width:0.75;stroke-linecap:round;stroke-linejoin:round}
    .str3 {stroke:#5F4E5D;stroke-width:0.75;stroke-linecap:round;stroke-linejoin:round}
    .str0 {stroke:#8F5444;stroke-width:0.75;stroke-linecap:round;stroke-linejoin:round}
    .str7 {stroke:#969594;stroke-width:0.75;stroke-linecap:round;stroke-linejoin:round}
    .str11 {stroke:#1E3D55;stroke-width:0.75}
    .str1 {stroke:#1E3D55;stroke-width:0.75;stroke-linecap:round;stroke-linejoin:round}
    .str6 {stroke:#75445A;stroke-width:0.75;stroke-linecap:round;stroke-linejoin:round}
    .str10 {stroke:#8A2C2F;stroke-width:0.75;stroke-linecap:round;stroke-linejoin:round}
    .str5 {stroke:#605D5C;stroke-linecap:round;stroke-linejoin:round}
    .str12 {stroke:#8F5444;stroke-linecap:round;stroke-linejoin:round}
    .str13 {stroke:#1F1A17;stroke-width:1.5;stroke-linecap:round;stroke-linejoin:round}
    .fil3 {fill:none}
    .fil13 {fill:#1F1A17}
    .fil5 {fill:#383431}
    .fil15 {fill:#4D4948}
    .fil12 {fill:#5F4E5D}
    .fil7 {fill:#605D5C}
    .fil6 {fill:#838281}
    .fil16 {fill:#90546F}
    .fil20 {fill:#958089}
    .fil8 {fill:#969594}
    .fil10 {fill:#9A7A99}
    .fil2 {fill:#AAA9A9}
    .fil21 {fill:#B76767}
    .fil14 {fill:#C0A0AE}
    .fil11 {fill:#C2C1C1}
    .fil18 {fill:white}
    .fil0 {fill:#C3957D}
    .fil1 {fill:#0779A1}
    .fil23 {fill:#0F6386}
    .fil22 {fill:#195574}
    .fil4 {fill:#1E3D55}
    .fil9 {fill:#453C35}
    .fil17 {fill:#75445A}
    .fil19 {fill:#1F1A17;fill-rule:nonzero}
   ]]>
  </style>
     <clipPath id="id0">
      <path d="M233.743 153.477c-2.165,-1.2498 -7.042,1.9943 -10.3446,12.5258 -1.5586,4.9702 -1.0823,12.1983 3.5607,13.3556 6.6188,1.6499 15.3106,-3.979 15.3106,-3.979l-3.9956 -7.2157c-5.5791,3.3134 -7.4065,2.0341 -6.0107,-1.1399 1.5926,-3.6222 3.6446,-12.2969 1.4796,-13.5468z"/>
     </clipPath>
     <clipPath id="id1">
      <path d="M262.47 153.477c2.165,-1.2498 7.042,1.9943 10.3446,12.5258 1.5586,4.9702 1.0823,12.1983 -3.5607,13.3556 -6.6188,1.6499 -15.3106,-3.979 -15.3106,-3.979l3.9956 -7.2157c5.5791,3.3134 7.4065,2.0341 6.0107,-1.1399 -1.5926,-3.6222 -3.6446,-12.2969 -1.4796,-13.5468z"/>
     </clipPath>
    <clipPath id="id2">
     <path d="M245.17 212.986c0.2657,-3.4711 -2.3037,-5.0804 -5.6044,-5.3331 -3.3006,-0.2527 -6.0849,0.9468 -6.3506,4.418 -0.1139,1.4873 0.0848,3.8188 6.1394,3.9695 6.0545,0.1506 5.7021,-1.5722 5.8156,-3.0544z"/>
    </clipPath>
    <clipPath id="id3">
     <path d="M251.043 212.986c-0.2657,-3.4711 2.3037,-5.0804 5.6044,-5.3331 3.3006,-0.2527 6.0849,0.9468 6.3506,4.418 0.1139,1.4873 -0.0848,3.8188 -6.1394,3.9695 -6.0545,0.1506 -5.7021,-1.5722 -5.8156,-3.0544z"/>
    </clipPath>
    <clipPath id="id4">
     <path d="M248.102 187.844c-0.0596,1.2457 -3.7696,18.4368 -3.7696,18.4368 0,0 -2.4096,1.8423 -11.4121,-0.57 -3.1711,-9.5366 -0.9073,-32.747 -0.7276,-33.3156l15.1762 -0.0347 0.6977 -0.0016 0.6977 -0.0016 15.1762 -0.0347c0.1823,0.5677 2.5523,23.7675 -0.5751,33.3185 -8.9914,2.4535 -11.4093,0.6223 -11.4093,0.6223 0,0 -3.7887,-17.174 -3.8541,-18.4194z"/>
    </clipPath>
     <clipPath id="id5">
      <path d="M107.021 150.112c-2.165,-1.2499 -7.042,1.9943 -10.3447,12.5257 -1.5585,4.9702 -1.0822,12.1983 3.5607,13.3557 6.6189,1.6498 15.3107,-3.9791 15.3107,-3.9791l-3.9956 -7.2156c-5.5792,3.3133 -7.4065,2.0341 -6.0108,-1.14 1.5926,-3.6222 3.6446,-12.2969 1.4797,-13.5467z"/>
     </clipPath>
     <clipPath id="id6">
      <path d="M134.433 150.112c2.165,-1.2499 7.042,1.9943 10.3447,12.5257 1.5585,4.9702 1.0822,12.1983 -3.5607,13.3557 -6.6189,1.6498 -15.3107,-3.9791 -15.3107,-3.9791l3.9956 -7.2156c5.5792,3.3133 7.4065,2.0341 6.0108,-1.14 -1.5926,-3.6222 -3.6446,-12.2969 -1.4797,-13.5467z"/>
     </clipPath>
     <clipPath id="id7">
      <path d="M120.667 158.886c-0.4575,-9.4422 -8.6395,-14.2637 -13.0684,-13.3435 -4.4289,0.9202 -9.7178,7.5146 -13.2918,19.3936 -3.574,11.879 26.8177,3.3921 26.3602,-6.0501z"/>
     </clipPath>
     <clipPath id="id8">
      <path d="M120.787 158.886c0.4575,-9.4422 8.6395,-14.2637 13.0684,-13.3435 4.4289,0.9202 9.7178,7.5146 13.2918,19.3936 3.574,11.879 -26.8177,3.3921 -26.3602,-6.0501z"/>
     </clipPath>
    <clipPath id="id9">
     <path d="M106.755 122.377c1.6523,0.4427 2.7683,1.6395 2.4915,2.6723 -0.2767,1.0329 -1.8416,1.5113 -3.4939,1.0686 -1.6523,-0.4427 -2.7683,-1.6395 -2.4915,-2.6723 0.2768,-1.0329 1.8416,-1.5113 3.4939,-1.0686z"/>
    </clipPath>
    <clipPath id="id10">
     <path d="M134.815 122.377c-1.6523,0.4427 -2.7682,1.6395 -2.4915,2.6723 0.2768,1.0329 1.8416,1.5113 3.4939,1.0686 1.6523,-0.4427 2.7683,-1.6395 2.4915,-2.6723 -0.2767,-1.0329 -1.8415,-1.5113 -3.4939,-1.0686z"/>
    </clipPath>
    <clipPath id="id11">
     <path d="M120.727 105.671l25.4977 0c0,0 1.7945,-8.7889 -1.3311,-21.8647 -3.1257,-13.0758 -24.1666,-9.1682 -24.1666,-9.1682 0,0 -21.0409,-3.9076 -24.1666,9.1682 -3.1256,13.0758 -1.3311,21.8647 -1.3311,21.8647l25.4977 0z"/>
    </clipPath>
   <clipPath id="id12">
    <path d="M248.107 185.016c-12.5399,-1.5112 -31.0455,-20.1305 -25.3819,-30.703 2.1158,-3.9495 20.1139,-5.0137 25.3819,-4.9924 5.268,-0.0213 23.2661,1.0429 25.3819,4.9924 5.6636,10.5725 -12.8419,29.1918 -25.3819,30.703z"/>
   </clipPath>
    <clipPath id="id13">
     <path d="M262.37 125.562c-1.7106,0 -3.0982,0.8671 -3.0982,1.9365 0,1.0693 1.3876,1.9364 3.0982,1.9364 1.7106,0 3.0983,-0.8671 3.0983,-1.9364 0,-1.0694 -1.3877,-1.9365 -3.0983,-1.9365z"/>
    </clipPath>
    <clipPath id="id14">
     <path d="M233.976 125.562c1.7106,0 3.0982,0.8671 3.0982,1.9365 0,1.0693 -1.3876,1.9364 -3.0982,1.9364 -1.7106,0 -3.0983,-0.8671 -3.0983,-1.9364 0,-1.0694 1.3877,-1.9365 3.0983,-1.9365z"/>
    </clipPath>
     <clipPath id="id15">
      <path d="M248.107 105.737l25.4977 0c0.3699,0 5.9179,-36.8672 -25.4977,-31.0329 -31.4156,-5.8343 -25.8676,31.0329 -25.4977,31.0329l25.4977 0z"/>
     </clipPath>
 </defs>
 <g id="Capa_x0020_1">
  <metadata id="CorelCorpID_0Corel-Layer"/>
  <g id="_406233816">
   <g>
    <path id="_404911952" class="fil0 str0" d="M238.274 168.164c1.5776,-1.2168 2.8463,-4.1479 3.413,-4.1446 0.5667,0.0033 0.835,0.2486 0.8304,2.7528 1.8963,0.1433 3.502,-3.4539 4.7154,-2.4042 0.7834,0.6776 -1.1802,2.7465 -1.8189,3.3432 1.448,0.9515 3.3322,-2.5438 4.2952,-1.1152 0.5972,0.8871 -2.1949,2.6126 -3.0372,3.0037 0.687,1.4753 2.8548,-1.2921 3.4707,0.1216 0.4099,0.9417 -2.3081,1.9901 -3.1079,2.2721 -0.1395,1.162 1.9344,-0.176 2.1277,0.7451 0.1577,0.752 -0.3889,1.0365 -2.5287,1.3808 -1.1909,0.1914 -2.7459,0.9233 -4.3641,1.2603l0.1235 -0.081 -4.1191 -7.1346z"/>
    <path id="_404910848" class="fil1" d="M233.743 153.477c-2.165,-1.2498 -7.042,1.9943 -10.3446,12.5258 -1.5586,4.9702 -1.0823,12.1983 3.5607,13.3556 6.6188,1.6499 15.3106,-3.979 15.3106,-3.979l-3.9956 -7.2157c-5.5791,3.3134 -7.4065,2.0341 -6.0107,-1.1399 1.5926,-3.6222 3.6446,-12.2969 1.4796,-13.5468z"/>
    <g style="clip-path:url(#id0)">
     <g>
      <rect id="_591603696" class="fil2" transform="matrix(-0.51321 -0.888905 -0.888905 0.51321 243.174 176.799)" width="11.3104" height="3.158"/>
     </g>
    </g>
    <path class="fil3 str1" d="M233.743 153.477c-2.165,-1.2498 -7.042,1.9943 -10.3446,12.5258 -1.5586,4.9702 -1.0823,12.1983 3.5607,13.3556 6.6188,1.6499 15.3106,-3.979 15.3106,-3.979l-3.9956 -7.2157c-5.5791,3.3134 -7.4065,2.0341 -6.0107,-1.1399 1.5926,-3.6222 3.6446,-12.2969 1.4796,-13.5468z"/>
    <g>
     <path id="_404911616" class="fil4" d="M230.698 156.88c0,0 0.4921,0.7887 0.0952,2.1418 -0.397,1.3531 -0.8949,3.4411 -0.8949,3.4411 0,0 2.9853,-3.7661 0.7997,-5.5829z"/>
     <path id="_404911544" class="fil4" d="M229.275 163.601c0,0 -0.492,-0.7887 -0.0951,-2.1418 0.3969,-1.3531 0.8948,-3.4411 0.8948,-3.4411 0,0 -2.9853,3.7661 -0.7997,5.5829z"/>
     <path id="_404912840" class="fil4" d="M229.616 165.349c0,0 0.4921,0.7887 0.0952,2.1417 -0.397,1.3531 -0.8948,3.4411 -0.8948,3.4411 0,0 2.9853,-3.766 0.7996,-5.5828zm-1.4225 6.7219c0,0 -0.4921,-0.7887 -0.0952,-2.1418 0.397,-1.3531 0.8948,-3.441 0.8948,-3.441 0,0 -2.9853,3.766 -0.7996,5.5828z"/>
     <path id="_404912192" class="fil4" d="M224.676 170.782c0,0 -0.4921,-0.7886 -0.0952,-2.1417 0.397,-1.3531 0.8949,-3.4411 0.8949,-3.4411 0,0 -2.9854,3.766 -0.7997,5.5828zm1.4225 -6.7219c0,0 0.4921,0.7887 0.0952,2.1418 -0.3969,1.3531 -0.8948,3.441 -0.8948,3.441 0,0 2.9853,-3.766 0.7996,-5.5828z"/>
     <path id="_404912360" class="fil4" d="M225.43 176.544c0,0 0.2097,-0.9056 1.4471,-1.5817 1.2375,-0.6761 3.066,-1.8005 3.066,-1.8005 0,0 -4.7739,0.5521 -4.5131,3.3822zm5.759 -3.7472c0,0 -0.2097,0.9056 -1.4472,1.5817 -1.2374,0.6761 -3.0659,1.8005 -3.0659,1.8005 0,0 4.7739,-0.552 4.5131,-3.3822z"/>
     <path id="_404912984" class="fil4" d="M236.692 174.265c0,0 -0.2097,0.9056 -1.4472,1.5818 -1.2374,0.6761 -3.0659,1.8004 -3.0659,1.8004 0,0 4.7739,-0.552 4.5131,-3.3822zm-5.759 3.7472c0,0 0.2097,-0.9056 1.4472,-1.5817 1.2374,-0.6761 3.0659,-1.8005 3.0659,-1.8005 0,0 -4.7739,0.5521 -4.5131,3.3822z"/>
    </g>
   </g>
   <g>
    <path id="_404914160" class="fil0 str0" d="M257.939 168.164c-1.5776,-1.2168 -2.8463,-4.1479 -3.413,-4.1446 -0.5667,0.0033 -0.835,0.2486 -0.8304,2.7528 -1.8963,0.1433 -3.502,-3.4539 -4.7154,-2.4042 -0.7834,0.6776 1.1802,2.7465 1.8189,3.3432 -1.448,0.9515 -3.3322,-2.5438 -4.2952,-1.1152 -0.5972,0.8871 2.1949,2.6126 3.0372,3.0037 -0.687,1.4753 -2.8548,-1.2921 -3.4707,0.1216 -0.4099,0.9417 2.3081,1.9901 3.1079,2.2721 0.1395,1.162 -1.9344,-0.176 -2.1277,0.7451 -0.1577,0.752 0.3889,1.0365 2.5287,1.3808 1.1909,0.1914 2.7459,0.9233 4.3641,1.2603l-0.1235 -0.081 4.1191 -7.1346z"/>
    <path id="_404912288" class="fil1" d="M262.47 153.477c2.165,-1.2498 7.042,1.9943 10.3446,12.5258 1.5586,4.9702 1.0823,12.1983 -3.5607,13.3556 -6.6188,1.6499 -15.3106,-3.979 -15.3106,-3.979l3.9956 -7.2157c5.5791,3.3134 7.4065,2.0341 6.0107,-1.1399 -1.5926,-3.6222 -3.6446,-12.2969 -1.4796,-13.5468z"/>
    <g style="clip-path:url(#id1)">
     <g>
      <rect id="_591606432" class="fil2" transform="matrix(0.51321 -0.888905 0.888905 0.51321 253.039 176.799)" width="11.3104" height="3.158"/>
     </g>
    </g>
    <path class="fil3 str1" d="M262.47 153.477c2.165,-1.2498 7.042,1.9943 10.3446,12.5258 1.5586,4.9702 1.0823,12.1983 -3.5607,13.3556 -6.6188,1.6499 -15.3106,-3.979 -15.3106,-3.979l3.9956 -7.2157c5.5791,3.3134 7.4065,2.0341 6.0107,-1.1399 -1.5926,-3.6222 -3.6446,-12.2969 -1.4796,-13.5468z"/>
    <g>
     <path id="_404914088" class="fil4" d="M265.515 156.88c0,0 -0.4921,0.7887 -0.0952,2.1418 0.397,1.3531 0.8949,3.4411 0.8949,3.4411 0,0 -2.9853,-3.7661 -0.7997,-5.5829z"/>
     <path id="_404912096" class="fil4" d="M266.938 163.602c0,0 0.492,-0.7887 0.0951,-2.1418 -0.3969,-1.3531 -0.8948,-3.4411 -0.8948,-3.4411 0,0 2.9853,3.7661 0.7997,5.5829z"/>
     <path id="_404906504" class="fil4" d="M266.597 165.349c0,0 -0.4921,0.7887 -0.0952,2.1417 0.397,1.3531 0.8948,3.4411 0.8948,3.4411 0,0 -2.9853,-3.766 -0.7996,-5.5828zm1.4225 6.7219c0,0 0.4921,-0.7887 0.0952,-2.1418 -0.397,-1.3531 -0.8948,-3.441 -0.8948,-3.441 0,0 2.9853,3.766 0.7996,5.5828z"/>
     <path id="_406243752" class="fil4" d="M271.537 170.782c0,0 0.4921,-0.7886 0.0952,-2.1417 -0.397,-1.3531 -0.8949,-3.4411 -0.8949,-3.4411 0,0 2.9854,3.766 0.7997,5.5828zm-1.4225 -6.7219c0,0 -0.4921,0.7887 -0.0952,2.1418 0.3969,1.3531 0.8948,3.441 0.8948,3.441 0,0 -2.9853,-3.766 -0.7996,-5.5828z"/>
     <path id="_406234344" class="fil4" d="M270.783 176.544c0,0 -0.2097,-0.9056 -1.4471,-1.5817 -1.2375,-0.6761 -3.066,-1.8005 -3.066,-1.8005 0,0 4.7739,0.5521 4.5131,3.3822zm-5.759 -3.7472c0,0 0.2097,0.9056 1.4472,1.5817 1.2374,0.6761 3.0659,1.8005 3.0659,1.8005 0,0 -4.7739,-0.552 -4.5131,-3.3822z"/>
     <path id="_406233240" class="fil4" d="M259.521 174.265c0,0 0.2097,0.9056 1.4472,1.5818 1.2374,0.6761 3.0659,1.8004 3.0659,1.8004 0,0 -4.7739,-0.552 -4.5131,-3.3822zm5.759 3.7472c0,0 -0.2097,-0.9056 -1.4472,-1.5817 -1.2374,-0.6761 -3.0659,-1.8005 -3.0659,-1.8005 0,0 4.7739,0.5521 4.5131,3.3822z"/>
    </g>
   </g>
  </g>
  <g id="_406235328">
   <path id="_406233168" class="fil5 str2" d="M239.621 206.821c3.4273,0.2623 5.9439,3.9121 5.7278,6.7356 -0.2162,2.8235 -3.0833,3.7531 -6.5106,3.4907 -3.4274,-0.2624 -6.1195,-1.6175 -5.9033,-4.441 0.2161,-2.8235 3.2587,-6.0477 6.6861,-5.7853z"/>
   <path id="_406233528" class="fil6 str2" d="M233.864 182.327c0,0 -1.3368,10.7265 -1.4818,14.546 -0.1451,3.8195 1.874,10.162 1.7002,12.4323 -0.1738,2.2704 -0.9839,5.155 1.5681,5.4977 2.5521,0.3427 5.7577,0.8091 7.4926,0.2789 1.7349,-0.5302 2.0271,-2.4231 1.0407,-3.972 -0.9864,-1.5488 -0.7597,-13.1706 -0.3775,-15.2777 0.3823,-2.107 2.1361,-12.5069 2.1361,-12.5069l-12.0784 -0.9983z"/>
   <path id="_406233912" class="fil7" d="M245.17 212.986c0.2657,-3.4711 -2.3037,-5.0804 -5.6044,-5.3331 -3.3006,-0.2527 -6.0849,0.9468 -6.3506,4.418 -0.1139,1.4873 0.0848,3.8188 6.1394,3.9695 6.0545,0.1506 5.7021,-1.5722 5.8156,-3.0544z"/>
   <g style="clip-path:url(#id2)">
    <g>
     <path id="_5916135601" class="fil8" d="M239.389 209.583c-6.1019,-0.5771 -8.2716,8.8901 -0.1863,9.1387 7.9174,0.2435 5.5501,-8.6315 0.1863,-9.1387z"/>
     <path id="_591607944" class="fil8" d="M239.207 208.323c-1.9024,-0.0398 -2.5788,0.6132 -0.058,0.6303 2.4684,0.0168 1.7303,-0.5953 0.058,-0.6303z"/>
    </g>
   </g>
   <path class="fil3 str2" d="M245.17 212.986c0.2657,-3.4711 -2.3037,-5.0804 -5.6044,-5.3331 -3.3006,-0.2527 -6.0849,0.9468 -6.3506,4.418 -0.1139,1.4873 0.0848,3.8188 6.1394,3.9695 6.0545,0.1506 5.7021,-1.5722 5.8156,-3.0544z"/>
   <path id="_406233984" class="fil5 str2" d="M256.592 206.821c-3.4273,0.2623 -5.9439,3.9121 -5.7278,6.7356 0.2162,2.8235 3.0833,3.7531 6.5106,3.4907 3.4274,-0.2624 6.1195,-1.6175 5.9033,-4.441 -0.2161,-2.8235 -3.2587,-6.0477 -6.6861,-5.7853z"/>
   <path id="_406234776" class="fil6 str2" d="M262.349 182.327c0,0 1.3368,10.7265 1.4818,14.546 0.1451,3.8195 -1.874,10.162 -1.7002,12.4323 0.1738,2.2704 0.9839,5.155 -1.5681,5.4977 -2.5521,0.3427 -5.7577,0.8091 -7.4926,0.2789 -1.7349,-0.5302 -2.0271,-2.4231 -1.0407,-3.972 0.9864,-1.5488 0.7597,-13.1706 0.3775,-15.2777 -0.3823,-2.107 -2.1361,-12.5069 -2.1361,-12.5069l12.0784 -0.9983z"/>
   <path id="_406234848" class="fil7" d="M251.043 212.986c-0.2657,-3.4711 2.3037,-5.0804 5.6044,-5.3331 3.3006,-0.2527 6.0849,0.9468 6.3506,4.418 0.1139,1.4873 -0.0848,3.8188 -6.1394,3.9695 -6.0545,0.1506 -5.7021,-1.5722 -5.8156,-3.0544z"/>
   <g style="clip-path:url(#id3)">
    <g>
     <path id="_5916036001" class="fil8" d="M256.824 209.583c6.1019,-0.5771 8.2716,8.8901 0.1863,9.1387 -7.9174,0.2435 -5.5501,-8.6315 -0.1863,-9.1387z"/>
     <path id="_591602880" class="fil8" d="M257.006 208.323c1.9024,-0.0398 2.5788,0.6132 0.058,0.6303 -2.4684,0.0168 -1.7303,-0.5953 -0.058,-0.6303z"/>
    </g>
   </g>
   <path class="fil3 str2" d="M251.043 212.986c-0.2657,-3.4711 2.3037,-5.0804 5.6044,-5.3331 3.3006,-0.2527 6.0849,0.9468 6.3506,4.418 0.1139,1.4873 -0.0848,3.8188 -6.1394,3.9695 -6.0545,0.1506 -5.7021,-1.5722 -5.8156,-3.0544z"/>
   <path id="_406234680" class="fil7" d="M248.102 187.844c-0.0596,1.2457 -3.7696,18.4368 -3.7696,18.4368 0,0 -2.4096,1.8423 -11.4121,-0.57 -3.1711,-9.5366 -0.9073,-32.747 -0.7276,-33.3156l15.1762 -0.0347 0.6977 -0.0016 0.6977 -0.0016 15.1762 -0.0347c0.1823,0.5677 2.5523,23.7675 -0.5751,33.3185 -8.9914,2.4535 -11.4093,0.6223 -11.4093,0.6223 0,0 -3.7887,-17.174 -3.8541,-18.4194z"/>
   <g style="clip-path:url(#id4)">
    <g>
     <path id="_4846089281" class="fil5" d="M244.423 176.175c0,0 -0.6112,4.4901 0.3632,7.8025 0.9743,3.3125 3.3203,5.6709 3.3203,5.6709l-0.024 -13.6889 -3.6595 0.2155z"/>
    </g>
   </g>
   <path class="fil3 str2" d="M248.102 187.844c-0.0596,1.2457 -3.7696,18.4368 -3.7696,18.4368 0,0 -2.4096,1.8423 -11.4121,-0.57 -3.1711,-9.5366 -0.9073,-32.747 -0.7276,-33.3156l15.1762 -0.0347 0.6977 -0.0016 0.6977 -0.0016 15.1762 -0.0347c0.1823,0.5677 2.5523,23.7675 -0.5751,33.3185 -8.9914,2.4535 -11.4093,0.6223 -11.4093,0.6223 0,0 -3.7887,-17.174 -3.8541,-18.4194z"/>
   <path id="_406235256" class="fil5" d="M238.54 178.031c0,0 -1.634,13.1741 -1.529,17.5006 0.105,4.3265 0.2578,8.748 0.2578,8.748 0,0 1.3413,-16.4067 1.2712,-26.2486zm19.0799 -0.0437c0,0 1.6942,13.1665 1.609,17.4935 -0.0851,4.3269 -0.2177,8.749 -0.2177,8.749 0,0 -1.4163,-16.4003 -1.3913,-26.2425z"/>
   <path id="_406239288" class="fil9" d="M228.438 172.006c0,0 -0.1422,-0.2279 -0.2094,-0.6483 -0.0797,0.0458 -0.1599,0.0926 -0.2406,0.1406 0.1149,0.1813 0.2626,0.3519 0.45,0.5077z"/>
  </g>
  <g id="_406235280">
   <path id="_406234320" class="fil1 str1" d="M235.411 152.575c-5.4172,3.1568 -2.759,12.5736 -2.8362,15.3442 -0.0772,2.7705 -2.759,8.9045 3.0291,10.1774 4.1018,0.902 8.302,1.3532 12.5022,1.3532 4.2002,0 8.4006,-0.4512 12.5022,-1.3532 5.7881,-1.2728 3.1063,-7.4069 3.0291,-10.1774 -0.0772,-2.7706 2.581,-12.1874 -2.8361,-15.3442 -6.3296,-3.6885 -19.0608,-3.6885 -25.3903,0z"/>
   <path id="_406236048" class="fil4" d="M248.285 156.246c0,0 -0.6633,0.6194 -0.6309,1.9957 0.0324,1.3763 -0.0257,3.4712 -0.0257,3.4712 0,0 -1.8636,-4.3059 0.6566,-5.4669zm-0.357 6.6985c0,0 0.6633,-0.6195 0.6309,-1.9957 -0.0324,-1.3764 0.0257,-3.4712 0.0257,-3.4712 0,0 1.8636,4.3058 -0.6566,5.4669zm-12.8363 7.363c0,0 -0.4804,-0.77 -0.0929,-2.091 0.3876,-1.321 0.8736,-3.3595 0.8736,-3.3595 0,0 -2.9145,3.6768 -0.7807,5.4505zm8.8573 0c0,0 -0.4804,-0.77 -0.0929,-2.091 0.3875,-1.321 0.8736,-3.3595 0.8736,-3.3595 0,0 -2.9145,3.6768 -0.7807,5.4505zm-5.2977 -9.2554c0,0 -0.4804,-0.7699 -0.0929,-2.0909 0.3875,-1.3211 0.8736,-3.3596 0.8736,-3.3596 0,0 -2.9146,3.6768 -0.7807,5.4505zm3.1129 4.4495c0,0 -0.4804,-0.77 -0.0929,-2.091 0.3875,-1.321 0.8736,-3.3595 0.8736,-3.3595 0,0 -2.9145,3.6767 -0.7807,5.4505zm-2.9685 9.0628c0,0 -0.4804,-0.77 -0.0929,-2.091 0.3875,-1.321 0.8736,-3.3595 0.8736,-3.3595 0,0 -2.9145,3.6767 -0.7807,5.4505zm22.3255 -4.2569c0,0 0.4805,-0.77 0.0929,-2.091 -0.3875,-1.321 -0.8736,-3.3595 -0.8736,-3.3595 0,0 2.9146,3.6768 0.7807,5.4505zm-8.8572 0c0,0 0.4804,-0.77 0.0929,-2.091 -0.3876,-1.321 -0.8736,-3.3595 -0.8736,-3.3595 0,0 2.9145,3.6768 0.7807,5.4505zm5.2977 -9.2554c0,0 0.4804,-0.7699 0.0929,-2.0909 -0.3875,-1.3211 -0.8736,-3.3596 -0.8736,-3.3596 0,0 2.9145,3.6768 0.7807,5.4505zm-3.113 4.4495c0,0 0.4805,-0.77 0.0929,-2.091 -0.3875,-1.321 -0.8736,-3.3595 -0.8736,-3.3595 0,0 2.9146,3.6767 0.7807,5.4505zm2.9685 9.0628c0,0 0.4805,-0.77 0.0929,-2.091 -0.3875,-1.321 -0.8736,-3.3595 -0.8736,-3.3595 0,0 2.9146,3.6767 0.7807,5.4505zm-11.138 -3.4181c0,0 -0.8011,0.4266 -1.1259,1.7644 -0.3249,1.3378 -0.9232,3.3462 -0.9232,3.3462 0,0 -0.6858,-4.6414 2.0491,-5.1106zm3.6546 0c0,0 0.801,0.4266 1.126,1.7644 0.3248,1.3378 0.9231,3.3463 0.9231,3.3463 0,0 0.6857,-4.6415 -2.0491,-5.1107zm-5.7332 6.3778c0,0 0.8011,-0.4266 1.126,-1.7644 0.3249,-1.3378 0.9232,-3.3462 0.9232,-3.3462 0,0 0.6857,4.6414 -2.0492,5.1106zm7.8118 0c0,0 -0.8011,-0.4266 -1.126,-1.7644 -0.3249,-1.3378 -0.9232,-3.3462 -0.9232,-3.3462 0,0 -0.6857,4.6414 2.0492,5.1106zm4.016 -9.5223c0,0 -0.4804,0.77 -0.0929,2.091 0.3875,1.321 0.8736,3.3595 0.8736,3.3595 0,0 -2.9146,-3.6768 -0.7807,-5.4505zm-2.9685 -9.0628c0,0 -0.4804,0.77 -0.0929,2.091 0.3875,1.321 0.8736,3.3595 0.8736,3.3595 0,0 -2.9146,-3.6768 -0.7807,-5.4505zm3.1129 -4.4495c0,0 -0.4804,0.77 -0.0929,2.0911 0.3876,1.321 0.8736,3.3595 0.8736,3.3595 0,0 -2.9145,-3.6768 -0.7807,-5.4506zm-5.2977 9.2554c0,0 -0.4804,0.77 -0.0929,2.091 0.3876,1.321 0.8736,3.3595 0.8736,3.3595 0,0 -2.9145,-3.6768 -0.7807,-5.4505zm8.8573 0c0,0 -0.4804,0.77 -0.0929,2.091 0.3875,1.321 0.8736,3.3595 0.8736,3.3595 0,0 -2.9146,-3.6768 -0.7807,-5.4505zm-19.5478 4.2569c0,0 0.4804,0.77 0.0929,2.091 -0.3876,1.321 -0.8736,3.3595 -0.8736,3.3595 0,0 2.9145,-3.6768 0.7807,-5.4505zm2.9685 -9.0628c0,0 0.4804,0.77 0.0929,2.091 -0.3876,1.321 -0.8736,3.3595 -0.8736,3.3595 0,0 2.9145,-3.6768 0.7807,-5.4505zm-3.113 -4.4495c0,0 0.4804,0.77 0.0929,2.0911 -0.3875,1.321 -0.8736,3.3595 -0.8736,3.3595 0,0 2.9146,-3.6768 0.7807,-5.4506zm5.2977 9.2554c0,0 0.4804,0.77 0.0929,2.091 -0.3875,1.321 -0.8736,3.3595 -0.8736,3.3595 0,0 2.9146,-3.6768 0.7807,-5.4505zm-8.8572 0c0,0 0.4804,0.77 0.0929,2.091 -0.3876,1.321 -0.8736,3.3595 -0.8736,3.3595 0,0 2.9145,-3.6768 0.7807,-5.4505z"/>
  </g>
  <g id="_406240224">
   <g>
    <path id="_406236120" class="fil10" d="M107.021 150.112c-2.165,-1.2499 -7.042,1.9943 -10.3447,12.5257 -1.5585,4.9702 -1.0822,12.1983 3.5607,13.3557 6.6189,1.6498 15.3107,-3.9791 15.3107,-3.9791l-3.9956 -7.2156c-5.5792,3.3133 -7.4065,2.0341 -6.0108,-1.14 1.5926,-3.6222 3.6446,-12.2969 1.4797,-13.5467z"/>
    <g style="clip-path:url(#id5)">
     <g>
      <rect id="_484633984" class="fil11" transform="matrix(-0.51321 -0.888905 -0.888905 0.51321 116.452 173.434)" width="11.3104" height="3.158"/>
     </g>
    </g>
    <path class="fil3 str3" d="M107.021 150.112c-2.165,-1.2499 -7.042,1.9943 -10.3447,12.5257 -1.5585,4.9702 -1.0822,12.1983 3.5607,13.3557 6.6189,1.6498 15.3107,-3.9791 15.3107,-3.9791l-3.9956 -7.2156c-5.5792,3.3133 -7.4065,2.0341 -6.0108,-1.14 1.5926,-3.6222 3.6446,-12.2969 1.4797,-13.5467z"/>
    <g>
     <path id="_406236336" class="fil0 str0" d="M111.552 164.799c1.5777,-1.2168 2.8464,-4.1479 3.413,-4.1446 0.5667,0.0033 0.8351,0.2486 0.8305,2.7528 1.8963,0.1434 3.502,-3.4539 4.7154,-2.4042 0.7833,0.6777 -1.1802,2.7466 -1.819,3.3432 1.4481,0.9515 3.3322,-2.5438 4.2952,-1.1152 0.5973,0.8871 -2.1948,2.6126 -3.0371,3.0037 0.687,1.4754 2.8548,-1.2921 3.4706,0.1216 0.41,0.9417 -2.3081,1.9901 -3.1078,2.2722 -0.1395,1.1619 1.9344,-0.1761 2.1276,0.745 0.1578,0.752 -0.3888,1.0366 -2.5287,1.3808 -1.1908,0.1914 -2.7458,0.9233 -4.364,1.2604l0.1235 -0.0811 -4.1192 -7.1346z"/>
     <g>
      <path id="_406236552" class="fil12" d="M103.977 153.515c0,0 0.492,0.7887 0.0951,2.1418 -0.3969,1.3531 -0.8948,3.4411 -0.8948,3.4411 0,0 2.9853,-3.7661 0.7997,-5.5829z"/>
      <path id="_406237584" class="fil12" d="M102.554 160.237c0,0 -0.4921,-0.7887 -0.0952,-2.1418 0.397,-1.3531 0.8949,-3.4411 0.8949,-3.4411 0,0 -2.9853,3.7661 -0.7997,5.5829z"/>
      <path id="_406236840" class="fil12" d="M102.894 161.983c0,0 0.4921,0.7887 0.0952,2.1418 -0.397,1.353 -0.8949,3.441 -0.8949,3.441 0,0 2.9853,-3.766 0.7997,-5.5828zm-1.4225 6.7219c0,0 -0.4921,-0.7887 -0.0952,-2.1417 0.3969,-1.3531 0.8948,-3.4411 0.8948,-3.4411 0,0 -2.9853,3.766 -0.7996,5.5828z"/>
      <path id="_406235640" class="fil12" d="M97.9541 167.417c0,0 -0.492,-0.7886 -0.0951,-2.1417 0.3969,-1.3531 0.8948,-3.4411 0.8948,-3.4411 0,0 -2.9853,3.7661 -0.7997,5.5828zm1.4226 -6.7219c0,0 0.4921,0.7887 0.0951,2.1418 -0.3969,1.3531 -0.8948,3.4411 -0.8948,3.4411 0,0 2.9853,-3.766 0.7997,-5.5829z"/>
      <path id="_406238016" class="fil12" d="M98.7086 173.179c0,0 0.2098,-0.9057 1.4472,-1.5818 1.2375,-0.6761 3.066,-1.8005 3.066,-1.8005 0,0 -4.774,0.5521 -4.5132,3.3823zm5.7591 -3.7473c0,0 -0.2097,0.9057 -1.4472,1.5818 -1.2375,0.6761 -3.0659,1.8004 -3.0659,1.8004 0,0 4.7739,-0.552 4.5131,-3.3822z"/>
      <path id="_406237656" class="fil12" d="M109.97 170.9c0,0 -0.2098,0.9057 -1.4472,1.5818 -1.2375,0.6761 -3.066,1.8005 -3.066,1.8005 0,0 4.774,-0.5521 4.5132,-3.3823zm-5.759 3.7473c0,0 0.2097,-0.9057 1.4471,-1.5818 1.2374,-0.6761 3.0659,-1.8005 3.0659,-1.8005 0,0 -4.7739,0.5521 -4.513,3.3823z"/>
     </g>
    </g>
   </g>
   <g>
    <path id="_406243080" class="fil10" d="M134.433 150.112c2.165,-1.2499 7.042,1.9943 10.3447,12.5257 1.5585,4.9702 1.0822,12.1983 -3.5607,13.3557 -6.6189,1.6498 -15.3107,-3.9791 -15.3107,-3.9791l3.9956 -7.2156c5.5792,3.3133 7.4065,2.0341 6.0108,-1.14 -1.5926,-3.6222 -3.6446,-12.2969 -1.4797,-13.5467z"/>
    <g style="clip-path:url(#id6)">
     <g>
      <rect id="_484614808" class="fil11" transform="matrix(0.51321 -0.888905 0.888905 0.51321 125.002 173.434)" width="11.3104" height="3.158"/>
     </g>
    </g>
    <path class="fil3 str3" d="M134.433 150.112c2.165,-1.2499 7.042,1.9943 10.3447,12.5257 1.5585,4.9702 1.0822,12.1983 -3.5607,13.3557 -6.6189,1.6498 -15.3107,-3.9791 -15.3107,-3.9791l3.9956 -7.2156c5.5792,3.3133 7.4065,2.0341 6.0108,-1.14 -1.5926,-3.6222 -3.6446,-12.2969 -1.4797,-13.5467z"/>
    <g>
     <path id="_406239072" class="fil0 str0" d="M129.902 164.799c-1.5777,-1.2168 -2.8464,-4.1479 -3.413,-4.1446 -0.5667,0.0033 -0.8351,0.2486 -0.8305,2.7528 -1.8963,0.1434 -3.502,-3.4539 -4.7154,-2.4042 -0.7833,0.6777 1.1802,2.7466 1.819,3.3432 -1.4481,0.9515 -3.3322,-2.5438 -4.2952,-1.1152 -0.5973,0.8871 2.1948,2.6126 3.0371,3.0037 -0.687,1.4754 -2.8548,-1.2921 -3.4706,0.1216 -0.41,0.9417 2.3081,1.9901 3.1078,2.2722 0.1395,1.1619 -1.9344,-0.1761 -2.1276,0.745 -0.1578,0.752 0.3888,1.0366 2.5287,1.3808 1.1908,0.1914 2.7458,0.9233 4.364,1.2604l-0.1235 -0.0811 4.1192 -7.1346z"/>
     <g>
      <path id="_406238424" class="fil12" d="M137.478 153.514c0,0 -0.492,0.7887 -0.0951,2.1418 0.3969,1.3531 0.8948,3.4411 0.8948,3.4411 0,0 -2.9853,-3.7661 -0.7997,-5.5829z"/>
      <path id="_406233552" class="fil12" d="M138.9 160.236c0,0 0.4921,-0.7887 0.0952,-2.1418 -0.397,-1.3531 -0.8949,-3.4411 -0.8949,-3.4411 0,0 2.9853,3.7661 0.7997,5.5829z"/>
      <path id="_406238664" class="fil12" d="M138.56 161.983c0,0 -0.4921,0.7887 -0.0952,2.1418 0.397,1.353 0.8949,3.441 0.8949,3.441 0,0 -2.9853,-3.766 -0.7997,-5.5828zm1.4225 6.7219c0,0 0.4921,-0.7887 0.0952,-2.1417 -0.3969,-1.3531 -0.8948,-3.4411 -0.8948,-3.4411 0,0 2.9853,3.766 0.7996,5.5828z"/>
      <path id="_406239000" class="fil12" d="M143.5 167.417c0,0 0.492,-0.7886 0.0951,-2.1417 -0.3969,-1.3531 -0.8948,-3.4411 -0.8948,-3.4411 0,0 2.9853,3.7661 0.7997,5.5828zm-1.4226 -6.7219c0,0 -0.4921,0.7887 -0.0951,2.1418 0.3969,1.3531 0.8948,3.4411 0.8948,3.4411 0,0 -2.9853,-3.766 -0.7997,-5.5829z"/>
      <path id="_406239600" class="fil12" d="M142.746 173.179c0,0 -0.2098,-0.9057 -1.4472,-1.5818 -1.2375,-0.6761 -3.066,-1.8005 -3.066,-1.8005 0,0 4.774,0.5521 4.5132,3.3823zm-5.7591 -3.7473c0,0 0.2097,0.9057 1.4472,1.5818 1.2375,0.6761 3.0659,1.8004 3.0659,1.8004 0,0 -4.7739,-0.552 -4.5131,-3.3822z"/>
      <path id="_406239960" class="fil12" d="M131.484 170.9c0,0 0.2098,0.9057 1.4472,1.5818 1.2375,0.6761 3.066,1.8005 3.066,1.8005 0,0 -4.774,-0.5521 -4.5132,-3.3823zm5.759 3.7473c0,0 -0.2097,-0.9057 -1.4471,-1.5818 -1.2374,-0.6761 -3.0659,-1.8005 -3.0659,-1.8005 0,0 4.7739,0.5521 4.513,3.3823z"/>
     </g>
    </g>
   </g>
  </g>
  <g id="_406242192">
   <path id="_406240296" class="fil13 str4" d="M139.539 136.857c0,0 6.9866,3.8292 7.1882,8.0614 0.1967,4.1333 0.5828,13.2695 6.584,14.0238 1.8239,0.229 -4.8986,2.2102 -7.323,-0.6551 -3.6947,-4.3664 -2.3589,-7.378 -8.5318,-8.8677 -6.1727,-1.4896 -6.9193,-2.8215 -6.9193,-2.8215l9.0019 -9.7409z"/>
   <path id="_406239480" class="fil13 str4" d="M101.915 136.857c0,0 -6.9866,3.8292 -7.1881,8.0614 -0.1968,4.1333 -0.5829,13.2695 -6.5841,14.0238 -1.8238,0.229 4.8987,2.2102 7.323,-0.6551 3.6947,-4.3664 2.359,-7.378 8.5318,-8.8677 6.1728,-1.4896 6.9194,-2.8215 6.9194,-2.8215l-9.002 -9.7409z"/>
   <path id="_406241160" class="fil14 str4" d="M94.2523 150.309c-0.1713,1.0846 -0.409,2.1844 -0.7453,3.2207 1.2188,-0.0599 2.794,0.1151 4.3648,1.0002 0.6543,-1.2944 1.1665,-2.3952 2.1783,-3.2926 -1.2009,-0.9536 -3.0799,-1.496 -5.7978,-0.9283z"/>
   <path id="_406241256" class="fil15" d="M101.63 140.73c0,0 -4.2818,3.3841 -4.2565,7.7139 0,0 1.849,-3.8798 4.2565,-7.7139z"/>
   <path id="_406242048" class="fil14 str4" d="M147.202 150.309c0.1712,1.0846 0.409,2.1844 0.7452,3.2207 -1.2187,-0.0599 -2.7939,0.1151 -4.3647,1.0002 -0.6543,-1.2944 -1.1666,-2.3952 -2.1783,-3.2926 1.2008,-0.9536 3.0798,-1.496 5.7978,-0.9283z"/>
   <g>
    <path id="_406241424" class="fil15" d="M139.824 140.73c0,0 4.2818,3.3841 4.2564,7.7139 0,0 -1.849,-3.8798 -4.2564,-7.7139z"/>
    <path id="_406242120" class="fil15" d="M135.743 139.601c0,0 4.2818,3.3841 4.2565,7.7139 0,0 -1.849,-3.8798 -4.2565,-7.7139z"/>
   </g>
   <path id="_406243320" class="fil15" d="M105.712 139.601c0,0 -4.2818,3.3841 -4.2564,7.7139 0,0 1.8489,-3.8798 4.2564,-7.7139z"/>
  </g>
  <g id="_406244760">
   <g>
    <g>
     <path id="_406242456" class="fil2 str5" d="M106.498 180.915c0,0 -1.4395,11.1349 -1.6083,15.1014 -0.1688,3.9666 1.8982,10.5639 1.7069,12.9212 -0.1913,2.3573 -1.0465,5.3496 1.6026,5.7177 2.6491,0.368 5.9765,0.8677 7.781,0.3253 1.8045,-0.5425 2.117,-2.5072 1.0998,-4.1206 -1.0172,-1.6134 -0.7265,-13.6836 -0.3194,-15.8703 0.4071,-2.1867 2.2781,-12.9804 2.2781,-12.9804l-12.5407 -1.0943z"/>
     <path id="_406242936" class="fil5 str2" d="M112.036 207.17c3.4273,0.2623 5.9439,3.9121 5.7278,6.7356 -0.2162,2.8235 -3.0833,3.7531 -6.5106,3.4907 -3.4274,-0.2624 -6.1195,-1.6175 -5.9033,-4.441 0.2161,-2.8235 3.2587,-6.0477 6.6861,-5.7853z"/>
     <path id="_406240632" class="fil7 str2" d="M117.585 212.52c0.2657,-3.4711 -2.3037,-5.0804 -5.6044,-5.3331 -3.3006,-0.2527 -6.0849,0.9468 -6.3506,4.418 -0.1139,1.4873 0.0848,3.8188 6.1394,3.9695 6.0545,0.1506 5.7021,-1.5722 5.8156,-3.0544z"/>
     <path id="_406244520" class="fil5 str2" d="M115.045 207.951c-0.8772,-0.4293 -1.9271,-0.6772 -3.0636,-0.7642 -1.4337,-0.1098 -2.7699,0.0547 -3.8446,0.5601 0.4636,1.6148 1.7263,2.412 3.2418,2.5701 1.6727,0.1745 3.1279,-0.4842 3.6664,-2.366z"/>
    </g>
    <g>
     <path id="_406243392" class="fil2 str5" d="M134.956 180.915c0,0 1.4395,11.1349 1.6083,15.1014 0.1688,3.9666 -1.8982,10.5639 -1.7069,12.9212 0.1913,2.3573 1.0465,5.3496 -1.6026,5.7177 -2.6491,0.368 -5.9765,0.8677 -7.781,0.3253 -1.8045,-0.5425 -2.117,-2.5072 -1.0998,-4.1206 1.0172,-1.6134 0.7265,-13.6836 0.3194,-15.8703 -0.4071,-2.1867 -2.2781,-12.9804 -2.2781,-12.9804l12.5407 -1.0943z"/>
     <path id="_406244352" class="fil5 str2" d="M129.419 207.17c-3.4273,0.2623 -5.9439,3.9121 -5.7278,6.7356 0.2162,2.8235 3.0833,3.7531 6.5106,3.4907 3.4274,-0.2624 6.1195,-1.6175 5.9033,-4.441 -0.2161,-2.8235 -3.2587,-6.0477 -6.6861,-5.7853z"/>
     <path id="_406244280" class="fil7 str2" d="M123.869 212.52c-0.2657,-3.4711 2.3037,-5.0804 5.6044,-5.3331 3.3006,-0.2527 6.0849,0.9468 6.3506,4.418 0.1139,1.4873 -0.0848,3.8188 -6.1394,3.9695 -6.0545,0.1506 -5.7021,-1.5722 -5.8156,-3.0544z"/>
     <path id="_406245624" class="fil5 str2" d="M126.41 207.951c0.8772,-0.4293 1.9271,-0.6772 3.0636,-0.7642 1.4337,-0.1098 2.7699,0.0547 3.8446,0.5601 -0.4636,1.6148 -1.7263,2.412 -3.2418,2.5701 -1.6727,0.1745 -3.1279,-0.4842 -3.6664,-2.366z"/>
    </g>
   </g>
   <path id="_406245072" class="fil16 str6" d="M104.921 173.484c-6.4115,8.0868 -6.7223,24.0029 -5.442,26.0161 1.025,1.6121 10.9915,4.875 21.2486,4.875 10.2572,0 20.2237,-3.2629 21.2487,-4.875 1.2802,-2.0132 0.9694,-17.9293 -5.4421,-26.0161l-15.8066 0 -15.8066 0z"/>
  </g>
  <g id="_406247520">
   <path id="_406245192" class="fil17" d="M111.568 179.066c0,0 -2.9895,4.9015 -3.8975,10.0942 -0.9078,5.1925 -0.0741,9.3545 -0.0741,9.3545 0,0 1.7285,-6.7072 3.9716,-19.4487z"/>
   <path id="_406245552" class="fil17" d="M117.902 180.666c0,0 -2.2824,5.7098 -2.4872,11.073 -0.2045,5.3629 1.1614,9.1879 1.1614,9.1879 0,0 0.8088,-7.0962 1.3258,-20.2609z"/>
   <path id="_406247256" class="fil17" d="M123.553 180.666c0,0 2.2823,5.71 2.487,11.073 0.2048,5.3629 -1.1613,9.1879 -1.1613,9.1879 0,0 -0.8089,-7.0965 -1.3257,-20.2609z"/>
   <path id="_406245888" class="fil17" d="M129.887 179.066c0,0 2.9894,4.9015 3.8974,10.0941 0.908,5.1924 0.074,9.3546 0.074,9.3546 0,0 -1.7285,-6.7073 -3.9714,-19.4487z"/>
   <path id="_406248288" class="fil17" d="M135.017 177.572c0,0 3.2771,4.4586 4.4995,9.5004 1.2225,5.042 0.6477,9.3036 0.6477,9.3036 0,0 -2.1323,-6.4342 -5.1472,-18.804z"/>
   <path id="_406246920" class="fil17" d="M106.438 177.572c0,0 -3.277,4.4586 -4.4996,9.5004 -1.2224,5.042 -0.6475,9.3036 -0.6475,9.3036 0,0 2.1323,-6.4342 5.1471,-18.804z"/>
  </g>
  <g id="_406247064">
   <path id="_406246464" class="fil10 str3" d="M107.724 150.112c-5.5487,3.2334 -2.826,12.8788 -2.905,15.7167 -0.0791,2.8378 -2.826,9.1206 3.1026,10.4245 8.4026,1.8479 17.2088,1.8479 25.6114,0 5.9286,-1.3039 3.1817,-7.5867 3.1027,-10.4245 -0.0791,-2.8379 2.6436,-12.4833 -2.905,-15.7167 -6.4833,-3.7781 -19.5235,-3.7781 -26.0067,0z"/>
   <path id="_406247184" class="fil12" d="M120.91 153.872c0,0 -0.6794,0.6345 -0.6462,2.0442 0.0332,1.4097 -0.0263,3.5554 -0.0263,3.5554 0,0 -1.9089,-4.4104 0.6725,-5.5996zm-0.3656 6.8611c0,0 0.6794,-0.6345 0.6462,-2.0442 -0.0332,-1.4097 0.0263,-3.5554 0.0263,-3.5554 0,0 1.9089,4.4104 -0.6725,5.5996zm-13.1479 7.5418c0,0 -0.4921,-0.7887 -0.0952,-2.1418 0.397,-1.353 0.8949,-3.441 0.8949,-3.441 0,0 -2.9854,3.766 -0.7997,5.5828zm9.0723 0c0,0 -0.4921,-0.7887 -0.0952,-2.1418 0.3969,-1.3531 0.8948,-3.4411 0.8948,-3.4411 0,0 -2.9853,3.7661 -0.7996,5.5829zm-5.4263 -9.4801c0,0 -0.4921,-0.7886 -0.0952,-2.1417 0.3969,-1.3531 0.8948,-3.4411 0.8948,-3.4411 0,0 -2.9853,3.766 -0.7996,5.5828zm3.1885 4.5575c0,0 -0.4921,-0.7887 -0.0952,-2.1418 0.3969,-1.3531 0.8948,-3.4411 0.8948,-3.4411 0,0 -2.9853,3.7661 -0.7996,5.5829zm-3.0406 9.2828c0,0 -0.4921,-0.7887 -0.0951,-2.1418 0.3969,-1.3531 0.8948,-3.4411 0.8948,-3.4411 0,0 -2.9853,3.7661 -0.7997,5.5829zm22.8675 -4.3602c0,0 0.4921,-0.7887 0.0952,-2.1418 -0.397,-1.353 -0.8949,-3.441 -0.8949,-3.441 0,0 2.9854,3.766 0.7997,5.5828zm-9.0723 0c0,0 0.4921,-0.7887 0.0951,-2.1418 -0.3969,-1.3531 -0.8948,-3.4411 -0.8948,-3.4411 0,0 2.9853,3.7661 0.7997,5.5829zm5.4263 -9.4801c0,0 0.4921,-0.7886 0.0952,-2.1417 -0.3969,-1.3531 -0.8948,-3.4411 -0.8948,-3.4411 0,0 2.9853,3.766 0.7996,5.5828zm-3.1885 4.5575c0,0 0.4921,-0.7887 0.0952,-2.1418 -0.397,-1.3531 -0.8949,-3.4411 -0.8949,-3.4411 0,0 2.9854,3.7661 0.7997,5.5829zm3.0406 9.2828c0,0 0.4921,-0.7887 0.0951,-2.1418 -0.3969,-1.3531 -0.8948,-3.4411 -0.8948,-3.4411 0,0 2.9853,3.7661 0.7997,5.5829zm-11.4085 -3.5011c0,0 -0.8205,0.437 -1.1532,1.8073 -0.3328,1.3702 -0.9456,3.4274 -0.9456,3.4274 0,0 -0.7024,-4.7541 2.0988,-5.2347zm3.7434 0c0,0 0.8205,0.437 1.1533,1.8073 0.3327,1.3702 0.9455,3.4274 0.9455,3.4274 0,0 0.7024,-4.7541 -2.0988,-5.2347zm-5.8724 6.5327c0,0 0.8206,-0.437 1.1533,-1.8073 0.3328,-1.3703 0.9456,-3.4275 0.9456,-3.4275 0,0 0.7024,4.7542 -2.0989,5.2348zm8.0014 0c0,0 -0.8205,-0.437 -1.1533,-1.8073 -0.3328,-1.3703 -0.9456,-3.4275 -0.9456,-3.4275 0,0 -0.7023,4.7542 2.0989,5.2348zm4.1135 -9.7536c0,0 -0.4921,0.7888 -0.0951,2.1418 0.3969,1.3531 0.8948,3.4411 0.8948,3.4411 0,0 -2.9854,-3.7661 -0.7997,-5.5829zm-3.0406 -9.2828c0,0 -0.492,0.7887 -0.0951,2.1418 0.3969,1.3531 0.8948,3.4411 0.8948,3.4411 0,0 -2.9853,-3.7661 -0.7997,-5.5829zm3.1886 -4.5574c0,0 -0.4921,0.7887 -0.0952,2.1418 0.397,1.3531 0.8948,3.4411 0.8948,3.4411 0,0 -2.9853,-3.7661 -0.7996,-5.5829zm-5.4264 9.4801c0,0 -0.492,0.7886 -0.0951,2.1417 0.3969,1.3531 0.8948,3.4411 0.8948,3.4411 0,0 -2.9853,-3.7661 -0.7997,-5.5828zm9.0723 0c0,0 -0.492,0.7887 -0.0951,2.1417 0.3969,1.3531 0.8948,3.4411 0.8948,3.4411 0,0 -2.9853,-3.7661 -0.7997,-5.5828zm-20.0223 4.3601c0,0 0.4921,0.7888 0.0951,2.1418 -0.3969,1.3531 -0.8948,3.4411 -0.8948,3.4411 0,0 2.9853,-3.7661 0.7997,-5.5829zm3.0405 -9.2828c0,0 0.4921,0.7887 0.0952,2.1418 -0.397,1.3531 -0.8948,3.4411 -0.8948,3.4411 0,0 2.9853,-3.7661 0.7996,-5.5829zm-3.1885 -4.5574c0,0 0.4921,0.7887 0.0952,2.1418 -0.397,1.3531 -0.8949,3.4411 -0.8949,3.4411 0,0 2.9854,-3.7661 0.7997,-5.5829zm5.4263 9.4801c0,0 0.4921,0.7886 0.0952,2.1417 -0.397,1.3531 -0.8948,3.4411 -0.8948,3.4411 0,0 2.9853,-3.7661 0.7996,-5.5828zm-9.0723 0c0,0 0.4921,0.7887 0.0952,2.1417 -0.397,1.3531 -0.8948,3.4411 -0.8948,3.4411 0,0 2.9853,-3.7661 0.7996,-5.5828z"/>
  </g>
  <path class="fil0 str0" d="M114.215 143.567l13.0238 0 0 5.6497c0,3.9389 -13.0238,3.9388 -13.0238,0l0 -5.6497z"/>
  <path class="fil18 str7" d="M310.343 101.031c12.0503,0 21.8227,6.3272 21.8227,14.1292 0,7.8021 -9.7724,14.1293 -21.8227,14.1293 -5.935,0 -11.3167,-1.5354 -15.2508,-4.0254l-8.0449 4.01 4.0251 -7.4806c-1.628,-1.9781 -2.552,-4.2358 -2.552,-6.6333 0,-7.802 9.7724,-14.1292 21.8226,-14.1292z"/>
  <path class="fil19" d="M309.435 113.16l0 3.4036 0 0.5461c0,1.143 -0.0529,1.9177 -0.1587,2.3241 -0.1059,0.4064 -0.2604,0.6096 -0.4636,0.6096 -0.4149,0 -0.8213,-0.3598 -1.2192,-1.0795 -0.2032,-0.3725 -0.5482,-1.1875 -1.035,-2.4448 -0.4869,-1.2573 -0.8996,-2.178 -1.2383,-2.7622 0,0.2709 0.0085,0.8276 0.0254,1.67 0.0169,0.8425 0.0254,1.3357 0.0254,1.4796 0,0.8213 -0.0339,1.452 -0.1016,1.8923 -0.0677,0.4403 -0.199,0.6604 -0.3937,0.6604 -0.2794,0 -0.4805,-0.235 -0.6032,-0.7049 -0.1228,-0.4699 -0.1842,-1.1154 -0.1842,-1.9367l0 -3.5814c0,-0.7874 0.0402,-1.3907 0.1207,-1.8098 0.0804,-0.4191 0.2391,-0.6286 0.4762,-0.6286 0.2879,0 0.6816,0.4784 1.1811,1.4351 0.3302,0.635 0.7726,1.615 1.3272,2.94 0.5545,1.3251 0.9122,2.1527 1.0731,2.4829l-0.0889 -4.2291c0,-0.9991 0.0466,-1.7738 0.1397,-2.3241 0.0931,-0.5503 0.2582,-0.8255 0.4953,-0.8255 0.2328,0 0.3937,0.2498 0.4847,0.7493 0.091,0.4995 0.1376,1.2107 0.1376,2.1336zm6.2103 2.6162c0,1.143 -0.2159,2.087 -0.6477,2.8321 -0.4657,0.8043 -1.0964,1.2065 -1.8923,1.2065 -0.9059,0 -1.6214,-0.436 -2.1463,-1.3081 -0.5249,-0.8721 -0.7874,-1.9685 -0.7874,-3.2893 0,-1.1938 0.2138,-2.1929 0.6414,-2.9972 0.4275,-0.8043 1.0054,-1.2065 1.7335,-1.2065 0.9398,0 1.6976,0.4699 2.2733,1.4097 0.5503,0.8975 0.8255,2.0151 0.8255,3.3528zm-1.0668 -0.0127c0,-1.0414 -0.1609,-1.9008 -0.4826,-2.5781 -0.3471,-0.7281 -0.8213,-1.0922 -1.4224,-1.0922 -0.3979,0 -0.726,0.3048 -0.9842,0.9144 -0.2583,0.6096 -0.3874,1.3674 -0.3874,2.2733 0,1.0245 0.1566,1.8542 0.4699,2.4892 0.3556,0.7197 0.8467,1.0795 1.4732,1.0795 0.381,0 0.6985,-0.2942 0.9525,-0.8827 0.254,-0.5884 0.381,-1.3229 0.381,-2.2034z"/>
  <path class="fil18 str7" d="M180.857 101.124c12.0503,0 21.8227,6.3272 21.8227,14.1292 0,7.8021 -9.7724,14.1293 -21.8227,14.1293 -5.935,0 -11.3167,-1.5354 -15.2508,-4.0254l-8.0449 4.01 4.0251 -7.4806c-1.628,-1.9781 -2.552,-4.2358 -2.552,-6.6333 0,-7.802 9.7724,-14.1292 21.8226,-14.1292z"/>
  <path class="fil19" d="M181.804 116.492c0,0.7027 -0.2836,1.2721 -0.8509,1.7081 -0.5673,0.4361 -1.2658,0.6541 -2.0955,0.6541 -0.4572,0 -0.9271,-0.1228 -1.4097,-0.3683 -0.4826,-0.2455 -0.7239,-0.5122 -0.7239,-0.8001 0,-0.1185 0.0572,-0.2307 0.1715,-0.3366 0.1143,-0.1058 0.2434,-0.1587 0.3873,-0.1587 0.0508,0 0.3006,0.1037 0.7493,0.3111 0.4487,0.2075 0.7451,0.3112 0.889,0.3112 0.4572,0 0.8446,-0.1101 1.1621,-0.3302 0.3175,-0.2201 0.4762,-0.5249 0.4762,-0.9144 0,-0.4064 -0.3598,-0.7832 -1.0795,-1.1303 -0.6773,-0.3133 -1.3547,-0.6265 -2.032,-0.9398 -0.7281,-0.4233 -1.0922,-0.9144 -1.0922,-1.4732 0,-0.5927 0.3217,-1.1663 0.9652,-1.7209 0.6435,-0.5545 1.3504,-0.8318 2.1209,-0.8318 0.5419,0 0.889,0.0085 1.0414,0.0254 0.4826,0.0508 0.7239,0.2582 0.7239,0.6223 0,0.2625 -0.5884,0.4403 -1.7653,0.5334 -1.1769,0.0931 -1.7653,0.5292 -1.7653,1.3081 0,0.4149 0.3556,0.7451 1.0668,0.9906 1.2023,0.4064 1.8627,0.6435 1.9812,0.7112 0.7197,0.4064 1.0795,1.016 1.0795,1.8288zm2.2733 1.4224c0,0.6943 -0.0423,1.198 -0.1249,1.5113 -0.1058,0.4064 -0.2921,0.6096 -0.5567,0.6096 -0.1418,0 -0.2434,-0.1714 -0.3048,-0.5143 -0.0613,-0.343 -0.0931,-0.8192 -0.0931,-1.4288l-0.1651 -5.6642c0,-0.3895 0.0445,-0.69 0.1334,-0.9017 0.0889,-0.2117 0.2561,-0.3175 0.5016,-0.3175 0.2371,0 0.3979,0.2074 0.4826,0.6223 0.0847,0.4149 0.127,1.1261 0.127,2.1336l0 3.9497z"/>
  <g id="_405148072">
   <g>
    <path id="_406233840" class="fil7" d="M120.667 158.886c-0.4575,-9.4422 -8.6395,-14.2637 -13.0684,-13.3435 -4.4289,0.9202 -9.7178,7.5146 -13.2918,19.3936 -3.574,11.879 26.8177,3.3921 26.3602,-6.0501z"/>
    <g style="clip-path:url(#id7)">
     <g>
      <path id="_5960897361" class="fil5" d="M118.067 164.327c-0.6244,-12.8857 -11.7902,-19.4655 -17.8343,-18.2097 -1.8193,0.378 -3.7449,1.4587 -5.681,3.2254 7.5908,0.1509 18.8347,7.8712 20.1017,21.8287 2.2032,-2.1255 3.529,-4.4624 3.4136,-6.8444z"/>
      <path id="_596089664" class="fil11" d="M97.9412 151.293c0,0 7.6025,2.9328 10.9053,8.1968 3.3028,5.264 4.3054,12.1824 4.3054,12.1824l-0.8577 0c0,0 -1.626,-9.271 -5.7758,-13.7616 -4.1498,-4.4906 -8.4547,-5.664 -8.4547,-5.664l-0.1225 -0.9536z"/>
      <path id="_596089592" class="fil20" d="M96.1262 152.948c0,0 7.6025,2.9328 10.9053,8.1968 3.3028,5.264 4.3054,12.1824 4.3054,12.1824l-0.8577 0c0,0 -1.626,-9.271 -5.7758,-13.7616 -4.1498,-4.4906 -8.4547,-5.664 -8.4547,-5.664l-0.1225 -0.9536z"/>
      <path id="_596089520" class="fil5" d="M76.9003 145.067c0,0 19.784,7.6321 28.3791,21.3308 8.595,13.6986 11.204,31.7026 11.204,31.7026l-2.232 0c0,0 -4.2314,-24.1262 -15.0305,-35.8122 -10.7992,-11.686 -22.0018,-14.7396 -22.0018,-14.7396l-0.3188 -2.4816z"/>
      <path id="_596089448" class="fil11" d="M88.92 158.287c0,0 7.6025,2.9328 10.9053,8.1968 3.3028,5.264 4.3054,12.1824 4.3054,12.1824l-0.8577 0c0,0 -1.626,-9.271 -5.7758,-13.7616 -4.1498,-4.4906 -8.4547,-5.664 -8.4547,-5.664l-0.1225 -0.9536z"/>
      <path id="_596089376" class="fil20" d="M105.601 143.398c0,0 7.6025,2.9328 10.9053,8.1968 3.3028,5.264 4.3054,12.1824 4.3054,12.1824l-0.8577 0c0,0 -1.626,-9.271 -5.7758,-13.7616 -4.1498,-4.4906 -8.4547,-5.664 -8.4547,-5.664l-0.1225 -0.9536z"/>
     </g>
    </g>
    <path class="fil3 str8" d="M120.667 158.886c-0.4575,-9.4422 -8.6395,-14.2637 -13.0684,-13.3435 -4.4289,0.9202 -9.7178,7.5146 -13.2918,19.3936 -3.574,11.879 26.8177,3.3921 26.3602,-6.0501z"/>
    <path id="_406248840" class="fil7" d="M120.787 158.886c0.4575,-9.4422 8.6395,-14.2637 13.0684,-13.3435 4.4289,0.9202 9.7178,7.5146 13.2918,19.3936 3.574,11.879 -26.8177,3.3921 -26.3602,-6.0501z"/>
    <g style="clip-path:url(#id8)">
     <g>
      <path id="_5960776401" class="fil5" d="M123.387 164.327c0.6244,-12.8857 11.7902,-19.4655 17.8343,-18.2097 1.8193,0.378 3.7449,1.4587 5.681,3.2254 -7.5908,0.1509 -18.8347,7.8712 -20.1017,21.8287 -2.2032,-2.1255 -3.529,-4.4624 -3.4136,-6.8444z"/>
      <path id="_596077568" class="fil11" d="M143.513 151.293c0,0 -7.6025,2.9328 -10.9053,8.1968 -3.3028,5.264 -4.3054,12.1824 -4.3054,12.1824l0.8577 0c0,0 1.626,-9.271 5.7758,-13.7616 4.1498,-4.4906 8.4547,-5.664 8.4547,-5.664l0.1225 -0.9536z"/>
      <path id="_596077496" class="fil20" d="M145.328 152.948c0,0 -7.6025,2.9328 -10.9053,8.1968 -3.3028,5.264 -4.3054,12.1824 -4.3054,12.1824l0.8577 0c0,0 1.626,-9.271 5.7758,-13.7616 4.1498,-4.4906 8.4547,-5.664 8.4547,-5.664l0.1225 -0.9536z"/>
      <path id="_596077424" class="fil5" d="M164.554 145.067c0,0 -19.784,7.6321 -28.3791,21.3308 -8.595,13.6986 -11.204,31.7026 -11.204,31.7026l2.232 0c0,0 4.2314,-24.1262 15.0305,-35.8122 10.7992,-11.686 22.0018,-14.7396 22.0018,-14.7396l0.3188 -2.4816z"/>
      <path id="_596077352" class="fil11" d="M152.534 158.287c0,0 -7.6025,2.9328 -10.9053,8.1968 -3.3028,5.264 -4.3054,12.1824 -4.3054,12.1824l0.8577 0c0,0 1.626,-9.271 5.7758,-13.7616 4.1498,-4.4906 8.4547,-5.664 8.4547,-5.664l0.1225 -0.9536z"/>
      <path id="_596077280" class="fil20" d="M135.853 143.398c0,0 -7.6025,2.9328 -10.9053,8.1968 -3.3028,5.264 -4.3054,12.1824 -4.3054,12.1824l0.8577 0c0,0 1.626,-9.271 5.7758,-13.7616 4.1498,-4.4906 8.4547,-5.664 8.4547,-5.664l0.1225 -0.9536z"/>
     </g>
    </g>
    <path class="fil3 str8" d="M120.787 158.886c0.4575,-9.4422 8.6395,-14.2637 13.0684,-13.3435 4.4289,0.9202 9.7178,7.5146 13.2918,19.3936 3.574,11.879 -26.8177,3.3921 -26.3602,-6.0501z"/>
   </g>
   <path id="_405151168" class="fil14" d="M117.91 153.57c-0.3743,0.3743 -0.4216,0.9813 -0.1818,1.5748 -0.5892,0.2501 -0.9849,0.7127 -0.9849,1.242 0,0.5293 0.3957,0.9919 0.9849,1.242 -0.2398,0.5934 -0.1925,1.2004 0.1818,1.5747 0.3743,0.3743 0.9813,0.4216 1.5747,0.1818 0.25,0.5893 0.7127,0.9849 1.2421,0.9849 0.5294,0 0.9921,-0.3957 1.2421,-0.9849 0.5935,0.2398 1.2003,0.1925 1.5746,-0.1818 0.3743,-0.3743 0.4215,-0.9812 0.1818,-1.5746 0.5892,-0.2501 0.985,-0.7127 0.985,-1.2421 0,-0.5294 -0.3958,-0.992 -0.985,-1.2421 0.2398,-0.5935 0.1925,-1.2004 -0.1818,-1.5747 -0.3743,-0.3743 -0.9812,-0.4216 -1.5746,-0.1818 -0.25,-0.5892 -0.7128,-0.9849 -1.2421,-0.9849 -0.5294,0 -0.9921,0.3956 -1.2421,0.9849 -0.5934,-0.2398 -1.2004,-0.1925 -1.5747,0.1818z"/>
   <circle id="_405148456" class="fil18" cx="120.727" cy="156.387" r="1.9917"/>
  </g>
  <g id="_405151552">
   <path id="_405148048" class="fil0 str0" d="M93.2326 125.833c0.7706,-0.4449 2.1171,0.4441 3.0069,1.9853 0.8898,1.5412 0.9865,3.1518 0.2159,3.5967 -0.7706,0.4449 -2.1171,-0.4441 -3.0069,-1.9853 -0.8898,-1.5412 -0.9865,-3.1518 -0.2159,-3.5967zm54.989 0c-0.7706,-0.4449 -2.1171,0.4441 -3.0069,1.9853 -0.8898,1.5412 -0.9865,3.1518 -0.2159,3.5967 0.7706,0.4449 2.1171,-0.4441 3.0069,-1.9853 0.8898,-1.5412 0.9865,-3.1518 0.2159,-3.5967z"/>
   <path id="_405147904" class="fil0 str0" d="M120.727 96.8066c27.5756,0 25.331,17.4867 25.331,31.4742 0,13.9875 -11.3435,19.1879 -25.331,19.1879 -13.9875,0 -25.3311,-5.2004 -25.3311,-19.1879 0,-13.9875 -2.2446,-31.4742 25.3311,-31.4742z"/>
   <path id="_405148600" class="fil3 str0" d="M118.648 130.79c0,0 2.0466,1.2541 4.1584,0"/>
   <path id="_405149224" class="fil13 str4" d="M113.377 109.091c-0.5102,0.5597 -0.6686,2.7948 -5.7382,2.9452 -5.0695,0.1503 -5.9434,1.0812 -8.0474,6.4185 -2.104,5.3372 -3.4785,15.9207 -3.4785,15.9207 0,0 -1.4946,-6.8381 -3.1204,-11.3326 -1.6258,-4.4945 -1.7214,-16.4798 8.416,-22.5661 8.947,-5.3718 17.4457,-5.3461 19.3184,-5.2658 1.8727,-0.0803 10.3714,-0.106 19.3184,5.2658 10.1374,6.0863 10.0418,18.0716 8.416,22.5661 -1.6258,4.4945 -3.1204,11.3326 -3.1204,11.3326 0,0 -1.3745,-10.5835 -3.4785,-15.9207 -2.104,-5.3373 -17.6778,-6.2682 -22.7473,-6.4185 -5.0695,-0.1504 -5.2279,-2.3855 -5.7381,-2.9452z"/>
   <path id="_405149512" class="fil15" d="M137.718 102.603c0,0 4.0228,3.1794 3.999,7.2473 0,0 -1.7372,-3.6451 -3.999,-7.2473z"/>
   <path id="_405149584" class="fil15" d="M130.545 100.286c0,0 4.0229,3.1794 3.999,7.2474 0,0 -1.7371,-3.6452 -3.999,-7.2474z"/>
   <path id="_405148864" class="fil15" d="M123.142 98.246c0,0 4.0228,3.1794 3.999,7.2474 0,0 -1.7372,-3.6452 -3.999,-7.2474z"/>
   <path id="_405150352" class="fil15" d="M105.581 100.286c0,0 -4.0229,3.1794 -3.999,7.2474 0,0 1.7371,-3.6452 3.999,-7.2474z"/>
   <path id="_405150760" class="fil21" d="M103.923 132.402c1.687,0 3.0552,1.368 3.0552,3.0552 0,1.6872 -1.3682,3.0552 -3.0552,3.0552 -1.6872,0 -3.0554,-1.368 -3.0554,-3.0552 0,-1.6872 1.3682,-3.0552 3.0554,-3.0552zm33.6084 0c1.6871,0 3.0553,1.3682 3.0553,3.0552 0,1.6873 -1.3682,3.0553 -3.0553,3.0553 -1.6871,0 -3.0553,-1.368 -3.0553,-3.0553 0,-1.687 1.3682,-3.0552 3.0553,-3.0552z"/>
   <path id="_405150616" class="fil18" d="M106.755 122.377c1.6523,0.4427 2.7683,1.6395 2.4915,2.6723 -0.2767,1.0329 -1.8416,1.5113 -3.4939,1.0686 -1.6523,-0.4427 -2.7683,-1.6395 -2.4915,-2.6723 0.2768,-1.0329 1.8416,-1.5113 3.4939,-1.0686z"/>
   <g style="clip-path:url(#id9)">
    <g>
     <circle id="_591613272" class="fil13" cx="106.254" cy="124.248" r="1.99056"/>
    </g>
   </g>
   <path class="fil3 str4" d="M106.755 122.377c1.6523,0.4427 2.7683,1.6395 2.4915,2.6723 -0.2767,1.0329 -1.8416,1.5113 -3.4939,1.0686 -1.6523,-0.4427 -2.7683,-1.6395 -2.4915,-2.6723 0.2768,-1.0329 1.8416,-1.5113 3.4939,-1.0686z"/>
   <path id="_405150592" class="fil13" d="M102.247 120.972c0,0 4.3353,-0.7039 8.6706,0.3986 0,0 -3.4882,-4.6841 -8.6706,-0.3986z"/>
   <path id="_405151384" class="fil18" d="M134.815 122.377c-1.6523,0.4427 -2.7682,1.6395 -2.4915,2.6723 0.2768,1.0329 1.8416,1.5113 3.4939,1.0686 1.6523,-0.4427 2.7683,-1.6395 2.4915,-2.6723 -0.2767,-1.0329 -1.8415,-1.5113 -3.4939,-1.0686z"/>
   <g style="clip-path:url(#id10)">
    <g>
     <circle id="_591619224" class="fil13" cx="135.316" cy="124.248" r="1.99056"/>
    </g>
   </g>
   <path class="fil3 str4" d="M134.815 122.377c-1.6523,0.4427 -2.7682,1.6395 -2.4915,2.6723 0.2768,1.0329 1.8416,1.5113 3.4939,1.0686 1.6523,-0.4427 2.7683,-1.6395 2.4915,-2.6723 -0.2767,-1.0329 -1.8415,-1.5113 -3.4939,-1.0686z"/>
   <path id="_405149944" class="fil13" d="M139.322 120.972c0,0 -4.3353,-0.7039 -8.6707,0.3986 0,0 3.4882,-4.6841 8.6707,-0.3986z"/>
   <path id="_405152512" class="fil15" d="M120.727 105.671l25.4977 0c0,0 1.7945,-8.7889 -1.3311,-21.8647 -3.1257,-13.0758 -24.1666,-9.1682 -24.1666,-9.1682 0,0 -21.0409,-3.9076 -24.1666,9.1682 -3.1256,13.0758 -1.3311,21.8647 -1.3311,21.8647l25.4977 0z"/>
   <g style="clip-path:url(#id11)">
    <g>
     <ellipse id="_591621888" class="fil10" cx="120.727" cy="101.544" rx="61.401" ry="5.82614"/>
    </g>
   </g>
   <path class="fil3 str9" d="M120.727 105.671l25.4977 0c0,0 1.7945,-8.7889 -1.3311,-21.8647 -3.1257,-13.0758 -24.1666,-9.1682 -24.1666,-9.1682 0,0 -21.0409,-3.9076 -24.1666,9.1682 -3.1256,13.0758 -1.3311,21.8647 -1.3311,21.8647l25.4977 0z"/>
   <ellipse id="_405151336" class="fil15 str9" cx="120.727" cy="106.582" rx="34.4432" ry="3.2682"/>
   <path id="_405151672" class="fil3 str10" d="M125.509 139.299c-4.7822,4.2684 -9.5644,0 -9.5644,0"/>
  </g>
  <path class="fil22" d="M248.107 185.016c-12.5399,-1.5112 -31.0455,-20.1305 -25.3819,-30.703 2.1158,-3.9495 20.1139,-5.0137 25.3819,-4.9924 5.268,-0.0213 23.2661,1.0429 25.3819,4.9924 5.6636,10.5725 -12.8419,29.1918 -25.3819,30.703z"/>
  <g style="clip-path:url(#id12)">
   <g id="_596074280">
    <path id="_5960744961" class="fil4" d="M248.107 180.022c-11.5829,-1.3959 -28.2539,-17.3877 -26.268,-28.1525 1.6679,10.3819 15.9756,23.1466 26.268,24.3869 10.2924,-1.2403 24.6001,-14.005 26.268,-24.3869 1.9859,10.7648 -14.6851,26.7566 -26.268,28.1525z"/>
    <path id="_596074424" class="fil23" d="M248.107 165.267c-9.9795,-1.3959 -24.3427,-17.3877 -22.6317,-28.1525 1.437,10.3819 13.7641,23.1466 22.6317,24.3869 8.8676,-1.2403 21.1947,-14.005 22.6317,-24.3869 1.711,10.7648 -12.6522,26.7566 -22.6317,28.1525z"/>
    <path id="_596074352" class="fil1" d="M248.656 171.554c-10.9385,-1.4753 -26.5378,-17.9182 -25.6921,-29.6067 0.7771,11.4968 15.3268,26.3346 25.6921,27.7326 10.3653,-1.398 24.915,-16.2358 25.6921,-27.7326 0.8457,11.6885 -14.7536,28.1314 -25.6921,29.6067z"/>
   </g>
  </g>
  <path class="fil3 str11" d="M248.107 185.016c-12.5399,-1.5112 -31.0455,-20.1305 -25.3819,-30.703 2.1158,-3.9495 20.1139,-5.0137 25.3819,-4.9924 5.268,-0.0213 23.2661,1.0429 25.3819,4.9924 5.6636,10.5725 -12.8419,29.1918 -25.3819,30.703z"/>
  <path class="fil0 str0" d="M241.749 146.185l12.7151 0 0 5.5158c0,1.6001 -2.8469,2.898 -6.3575,2.898 -3.5105,0 -6.3576,-1.2979 -6.3576,-2.898l0 -5.5158z"/>
  <g id="_405440608">
   <path id="_405152992" class="fil11" d="M272.106 115.475c-1.61,0.6556 -1.5438,4.0138 1.1649,3.5986 2.7086,-0.4153 1.4116,-4.6478 -1.1649,-3.5986z"/>
   <path id="_405153232" class="fil8" d="M272.256 116.37c-0.9353,0.2833 -0.7449,2.1079 0.8594,2.0042 0.3851,-0.0249 0.6217,-0.1796 0.7387,-0.3939 -0.0509,0.0092 -0.1048,0.0162 -0.1622,0.0199 -1.2757,0.0824 -1.6572,-1.0543 -1.2899,-1.6659 -0.0481,0.009 -0.0967,0.0207 -0.146,0.0357z"/>
   <path id="_405153592" class="fil0 str12" d="M221.264 128.872c0.7523,-0.4343 2.0669,0.4336 2.9356,1.9383 0.8687,1.5047 0.9631,3.0771 0.2108,3.5115 -0.7523,0.4343 -2.0669,-0.4336 -2.9356,-1.9383 -0.8688,-1.5047 -0.9631,-3.0771 -0.2108,-3.5115zm53.6856 0c-0.7523,-0.4343 -2.0669,0.4336 -2.9356,1.9383 -0.8687,1.5047 -0.9631,3.0771 -0.2108,3.5115 0.7524,0.4343 2.0669,-0.4336 2.9357,-1.9383 0.8687,-1.5047 0.9631,-3.0771 0.2107,-3.5115z"/>
   <path id="_405154312" class="fil0 str0" d="M248.107 100.533c26.922,0 24.7306,17.0723 24.7306,30.7282 0,13.656 -11.0747,18.7332 -24.7306,18.7332 -13.656,0 -24.7307,-5.0772 -24.7307,-18.7332 0,-13.6559 -2.1914,-30.7282 24.7307,-30.7282z"/>
   <path id="_405153736" class="fil3 str0" d="M246.077 134.762c0,0 1.9981,1.1768 4.0599,0"/>
   <path id="_405154456" class="fil13 str13" d="M246.28 113.54c-0.5978,-0.3337 -3.0619,2.5442 -5.3395,2.4208 -3.5165,-0.1904 0.594,-4.7758 -1.598,-4.5787 -13.0095,1.1695 -15.0375,14.6251 -15.2668,23.798 0,0 -1.4592,-4.6446 -3.0464,-9.0326 -1.5873,-4.388 -1.6807,-16.0893 8.2165,-22.0313 8.7349,-5.2444 17.0322,-5.2193 18.8605,-5.141 1.8283,-0.0783 10.1256,-0.1034 18.8605,5.141 9.8972,5.942 9.8038,17.6433 8.2165,22.0313 -1.5873,4.388 -3.0464,9.0326 -3.0464,9.0326 -0.0564,-8.0406 -1.2704,-19.2135 -10.3955,-22.3695 -2.9099,-1.0066 -2.5776,3.7752 -7.6827,3.8103 -0.9999,0.0068 1.756,-3.9445 0.7367,-3.8716 -4.2304,0.3027 -3.9314,5.0216 -8.0463,4.9023 -2.9861,-0.0866 1.3537,-3.094 -0.4691,-4.1116z"/>
   <path id="_405153904" class="fil21" d="M231.701 135.285c1.6471,0 2.9829,1.3357 2.9829,2.9829 0,1.6471 -1.3358,2.9828 -2.9829,2.9828 -1.6471,0 -2.9829,-1.3357 -2.9829,-2.9828 0,-1.6472 1.3358,-2.9829 2.9829,-2.9829zm32.812 0c1.647,0 2.9828,1.3359 2.9828,2.9829 0,1.6472 -1.3358,2.9829 -2.9828,2.9829 -1.6472,0 -2.983,-1.3357 -2.983,-2.9829 0,-1.647 1.3358,-2.9829 2.983,-2.9829z"/>
   <path id="_405154192" class="fil13" d="M266.78 124.546c0,0 -4.4428,-0.6873 -8.6754,0.3892 0,0 -0.6761,-1.7066 0.8925,-2.4354 0.9397,-0.4363 4.79,-0.5263 5.9579,-0.512 1.2019,0.0147 1.825,2.5582 1.825,2.5582z"/>
   <path id="_405154816" class="fil13" d="M229.566 124.546c0,0 4.4427,-0.6873 8.6753,0.3892 0,0 0.6762,-1.7066 -0.8924,-2.4354 -0.9397,-0.4363 -4.79,-0.5263 -5.958,-0.512 -1.2018,0.0147 -1.8249,2.5582 -1.8249,2.5582z"/>
   <path id="_405155800" class="fil18" d="M262.37 125.562c-1.7106,0 -3.0982,0.8671 -3.0982,1.9365 0,1.0693 1.3876,1.9364 3.0982,1.9364 1.7106,0 3.0983,-0.8671 3.0983,-1.9364 0,-1.0694 -1.3877,-1.9365 -3.0983,-1.9365z"/>
   <g style="clip-path:url(#id13)">
    <g>
     <circle id="_591622416" class="fil13" transform="matrix(-2.81926 -0.755418 -0.755418 2.81926 262.37 127.499)" r="0.682"/>
    </g>
   </g>
   <path class="fil3 str4" d="M262.37 125.562c-1.7106,0 -3.0982,0.8671 -3.0982,1.9365 0,1.0693 1.3876,1.9364 3.0982,1.9364 1.7106,0 3.0983,-0.8671 3.0983,-1.9364 0,-1.0694 -1.3877,-1.9365 -3.0983,-1.9365z"/>
   <path id="_405155464" class="fil18" d="M233.976 125.562c1.7106,0 3.0982,0.8671 3.0982,1.9365 0,1.0693 -1.3876,1.9364 -3.0982,1.9364 -1.7106,0 -3.0983,-0.8671 -3.0983,-1.9364 0,-1.0694 1.3877,-1.9365 3.0983,-1.9365z"/>
   <g style="clip-path:url(#id14)">
    <g>
     <circle id="_591627744" class="fil13" transform="matrix(2.81926 -0.755418 0.755418 2.81926 233.976 127.499)" r="0.682"/>
    </g>
   </g>
   <path class="fil3 str4" d="M233.976 125.562c1.7106,0 3.0982,0.8671 3.0982,1.9365 0,1.0693 -1.3876,1.9364 -3.0982,1.9364 -1.7106,0 -3.0983,-0.8671 -3.0983,-1.9364 0,-1.0694 1.3877,-1.9365 3.0983,-1.9365z"/>
   <path id="_405155728" class="fil3 str10" d="M252.889 142.887c-4.7822,2.3406 -9.5644,0 -9.5644,0"/>
   <g>
    <path id="_405151024" class="fil15" d="M248.107 105.737l25.4977 0c0.3699,0 5.9179,-36.8672 -25.4977,-31.0329 -31.4156,-5.8343 -25.8676,31.0329 -25.4977,31.0329l25.4977 0z"/>
    <g style="clip-path:url(#id15)">
     <g>
      <ellipse id="_591625368" class="fil6" cx="248.107" cy="101.61" rx="61.401" ry="5.82614"/>
     </g>
    </g>
    <path class="fil3 str9" d="M248.107 105.737l25.4977 0c0.3699,0 5.9179,-36.8672 -25.4977,-31.0329 -31.4156,-5.8343 -25.8676,31.0329 -25.4977,31.0329l25.4977 0z"/>
    <path id="_405440512" class="fil15 str9" d="M248.107 103.68c22.2919,0 40.3701,1.1636 40.3701,2.9682 0,1.8046 -18.0782,5.7683 -40.3701,5.7683 -22.2919,0 -40.37,-3.9637 -40.37,-5.7683 0,-1.8046 18.0781,-2.9682 40.37,-2.9682z"/>
   </g>
  </g>
 </g>
</svg>
