<?xml version="1.0" encoding="UTF-8"?>
<!DOCTYPE svg PUBLIC "-//W3C//DTD SVG 1.1//EN" "http://www.w3.org/Graphics/SVG/1.1/DTD/svg11.dtd">
<!-- Creator: CorelDRAW -->
<svg xmlns="http://www.w3.org/2000/svg" xml:space="preserve" width="420mm" height="297mm" style="shape-rendering:geometricPrecision; text-rendering:geometricPrecision; image-rendering:optimizeQuality; fill-rule:evenodd; clip-rule:evenodd"
viewBox="0 0 420 297"
 xmlns:xlink="http://www.w3.org/1999/xlink">
 <defs>
  <style type="text/css">
   <![CDATA[
    .str1 {stroke:#838281;stroke-width:0.75}
    .str0 {stroke:#C58C2D;stroke-width:0.75}
    .fil4 {fill:none}
    .fil11 {fill:#AAA9A9}
    .fil10 {fill:#C2C1C1}
    .fil9 {fill:#DEDEDD}
    .fil5 {fill:#F8C300}
    .fil12 {fill:white}
    .fil13 {fill:#0090BD}
    .fil14 {fill:#0779A1}
    .fil15 {fill:#0F6386}
    .fil8 {fill:#1E3D55}
    .fil7 {fill:#70B0C3}
    .fil3 {fill:#C3882A}
    .fil2 {fill:#DEA817}
    .fil6 {fill:#F2E200}
    .fil0 {fill:#1F1A17;fill-rule:nonzero}
    .fil1 {fill:#9DCFDC;fill-opacity:0.501961}
   ]]>
  </style>
    <clipPath id="id0">
     <path d="M75.7278 111.153l-0.6039 -6.6961 -0.2819 -3.1244c0,0 -4.9309,3.379 -13.0965,0.0641 -8.1655,-3.3148 -17.4806,4.2821 -17.1899,6.5264 0.2906,2.2443 5.7262,-5.3531 14.1539,0.2236 8.4276,5.5766 17.0183,3.0064 17.0183,3.0064zm3.3321 -18.7331l-3.3665 7.9507c0,0 -3.0689,-7.1921 -10.8876,-7.357 -7.8186,-0.165 -13.0029,-2.8578 -11.5284,-5.1853 1.4744,-2.3274 2.1689,4.1342 11.7145,0.8721 9.5456,-3.262 14.068,3.7195 14.068,3.7195zm7.9277 -7.4672l-7.1068 5.5614c0,0 -1.9573,-8.2844 -8.0997,-11.9676 -6.1424,-3.6832 -8.0655,-11.85 -6.0964,-12.9654 1.9691,-1.1155 1.1644,6.6802 9.513,8.4954 8.3484,1.8152 11.7899,10.8762 11.7899,10.8762zm8.8806 -5.1963l-7.2565 2.5199c0,0 0.8214,-5.7845 -2.7272,-10.6266 -3.5486,-4.8421 -4.2579,-12.8838 -2.0126,-13.1665 2.2454,-0.2828 -1.3582,4.3342 5.6727,9.1879 7.0309,4.8538 6.3236,12.0853 6.3236,12.0853zm14.4308 -1.2818l7.2564 2.5198c0,0 -0.8213,-5.7844 2.7272,-10.6266 3.5486,-4.8421 4.2579,-12.8838 2.0126,-13.1665 -2.2454,-0.2827 1.3582,4.3342 -5.6727,9.188 -7.0309,4.8537 -6.3235,12.0853 -6.3235,12.0853zm9.7863 3.6865l7.1069 5.5614c0,0 1.9573,-8.2844 8.0997,-11.9676 6.1423,-3.6831 8.0655,-11.85 6.0964,-12.9654 -1.9691,-1.1154 -1.1644,6.6802 -9.513,8.4954 -8.3484,1.8152 -11.79,10.8762 -11.79,10.8762zm8.9903 6.7226l3.3665 7.9509c0,0 3.069,-7.1922 10.8877,-7.3572 7.8187,-0.1648 13.0028,-2.8578 11.5283,-5.1852 -1.4744,-2.3275 -2.1688,4.1342 -11.7144,0.8721 -9.5456,-3.262 -14.0681,3.7194 -14.0681,3.7194zm1.2078 29.5628l3.3665 -7.9507c0,0 3.0689,7.1921 10.8876,7.357 7.8187,0.165 13.0029,2.8578 11.5285,5.1853 -1.4745,2.3274 -2.1689,-4.1342 -11.7146,-0.8721 -9.5456,3.262 -14.068,-3.7195 -14.068,-3.7195zm-7.9358 9.593l7.1069 -5.5613c0,0 1.9573,8.2844 8.0997,11.9676 6.1423,3.6831 8.0654,11.8499 6.0964,12.9654 -1.9691,1.1154 -1.1645,-6.6803 -9.513,-8.4954 -8.3485,-1.8152 -11.79,-10.8763 -11.79,-10.8763zm-9.4821 5.6474l7.2565 -2.5199c0,0 -0.8214,5.7845 2.7272,10.6266 3.5485,4.8421 4.2579,12.8838 2.0126,13.1665 -2.2454,0.2827 1.3581,-4.3342 -5.6728,-9.188 -7.0309,-4.8537 -6.3235,-12.0852 -6.3235,-12.0852zm-16.6954 -0.0741l-7.2565 -2.5199c0,0 0.8214,5.7845 -2.7272,10.6266 -3.5485,4.8421 -4.2578,12.8838 -2.0125,13.1665 2.2453,0.2828 -1.3582,-4.3342 5.6727,-9.1879 7.0309,-4.8538 6.3235,-12.0853 6.3235,-12.0853zm-8.8805 -5.1963l-7.1069 -5.5614c0,0 -1.9573,8.2844 -8.0997,11.9676 -6.1423,3.6832 -8.0654,11.85 -6.0964,12.9654 1.9691,1.1155 1.1645,-6.6802 9.513,-8.4954 8.3485,-1.8152 11.79,-10.8762 11.79,-10.8762zm-7.9277 -7.4672l-3.3665 -7.9507c0,0 -3.0689,7.1921 -10.8876,7.357 -7.8187,0.165 -13.0029,2.8578 -11.5285,5.1853 1.4745,2.3274 2.1689,-4.1342 11.7146,-0.8721 9.5456,3.262 14.068,-3.7195 14.068,-3.7195zm19.2671 -41.7116l2.6008 -0.2229 4.0979 -0.3512 1.5629 -0.134 1.5628 -0.134c0,0 -4.2105,-7.2944 0,-14.4541 4.2105,-7.1596 -4.2105,-16.142 -6.4561,-15.8613 -2.2455,0.2807 5.3277,5.75 -0.2863,14.1528 -5.614,8.4028 -3.082,17.0047 -3.082,17.0047zm33.3889 19.9208l0.5546 2.5508 0.8738 4.0189 0.1597 0.7341 0.1736 0.7987 0.3334 1.5328c0,0 6.6942,-5.1112 14.3347,-1.8537 7.6406,3.2574 15.4688,-6.2459 14.9024,-8.4369 -0.5664,-2.1911 -5.0192,6.021 -14.0726,1.531 -9.0534,-4.4899 -17.2596,-0.8757 -17.2596,-0.8757zm-32.0574 34.973l2.6008 0.2229 4.0979 0.3512 1.5629 0.134 1.5628 0.134c0,0 -4.2105,7.2944 0,14.4541 4.2105,7.1596 -4.2105,16.142 -6.456,15.8613 -2.2456,-0.2807 5.3276,-5.75 -0.2864,-14.1528 -5.614,-8.4028 -3.082,-17.0047 -3.082,-17.0047z"/>
    </clipPath>
 </defs>
 <g id="Capa_x0020_1">
  <metadata id="CorelCorpID_0Corel-Layer"/>
  <path class="fil0" d="M104.133 245.618c0,0.7027 -0.2836,1.2721 -0.8509,1.7081 -0.5673,0.4361 -1.2658,0.6541 -2.0955,0.6541 -0.4572,0 -0.9271,-0.1228 -1.4097,-0.3683 -0.4826,-0.2455 -0.7239,-0.5122 -0.7239,-0.8001 0,-0.1185 0.0572,-0.2307 0.1715,-0.3366 0.1143,-0.1058 0.2434,-0.1587 0.3873,-0.1587 0.0508,0 0.3006,0.1037 0.7493,0.3111 0.4487,0.2075 0.7451,0.3112 0.889,0.3112 0.4572,0 0.8446,-0.1101 1.1621,-0.3302 0.3175,-0.2201 0.4762,-0.5249 0.4762,-0.9144 0,-0.4064 -0.3598,-0.7832 -1.0795,-1.1303 -0.6773,-0.3133 -1.3547,-0.6265 -2.032,-0.9398 -0.7281,-0.4233 -1.0922,-0.9144 -1.0922,-1.4732 0,-0.5927 0.3217,-1.1663 0.9652,-1.7209 0.6435,-0.5545 1.3504,-0.8318 2.1209,-0.8318 0.5419,0 0.889,0.0085 1.0414,0.0254 0.4826,0.0508 0.7239,0.2582 0.7239,0.6223 0,0.2625 -0.5884,0.4403 -1.7653,0.5334 -1.1769,0.0931 -1.7653,0.5292 -1.7653,1.3081 0,0.4149 0.3556,0.7451 1.0668,0.9906 1.2023,0.4064 1.8627,0.6435 1.9812,0.7112 0.7197,0.4064 1.0795,1.016 1.0795,1.8288zm6.2103 -1.1811c0,1.143 -0.2159,2.087 -0.6477,2.8321 -0.4657,0.8043 -1.0964,1.2065 -1.8923,1.2065 -0.9059,0 -1.6214,-0.436 -2.1463,-1.3081 -0.5249,-0.8721 -0.7874,-1.9685 -0.7874,-3.2893 0,-1.1938 0.2138,-2.1929 0.6414,-2.9972 0.4275,-0.8043 1.0054,-1.2065 1.7335,-1.2065 0.9398,0 1.6976,0.4699 2.2733,1.4097 0.5503,0.8975 0.8255,2.0151 0.8255,3.3528zm-1.0668 -0.0127c0,-1.0414 -0.1609,-1.9008 -0.4826,-2.5781 -0.3471,-0.7281 -0.8213,-1.0922 -1.4224,-1.0922 -0.3979,0 -0.726,0.3048 -0.9842,0.9144 -0.2583,0.6096 -0.3874,1.3674 -0.3874,2.2733 0,1.0245 0.1566,1.8542 0.4699,2.4892 0.3556,0.7197 0.8467,1.0795 1.4732,1.0795 0.381,0 0.6985,-0.2942 0.9525,-0.8827 0.254,-0.5884 0.381,-1.3229 0.381,-2.2034zm5.1308 2.9845c0.0254,0.2201 -0.2625,0.4466 -0.8636,0.6794 -0.6011,0.2329 -1.1726,0.3493 -1.7124,0.3493 -0.3767,0 -0.6307,-0.2582 -0.7662,-0.7747 -0.0995,-0.3979 -0.1503,-1.1176 -0.1503,-2.159 0,-0.3387 0,-0.6858 0,-1.0414 0,-0.3556 0,-0.7239 0,-1.1049 0,-2.3453 0.2455,-3.5179 0.7366,-3.5179 0.1863,0 0.3196,0.1651 0.4001,0.4953 0.0804,0.3302 0.1206,0.7916 0.1206,1.3843 0,0.2455 -0.0106,0.7429 -0.0317,1.4922 -0.0212,0.7493 -0.0318,1.2468 -0.0318,1.4923 0,0.5503 0.0106,0.9948 0.0318,1.3335 0.0211,0.3387 0.0613,0.6689 0.1206,0.9906 0.1693,0 0.3916,-0.0191 0.6668,-0.0572 0.2751,-0.0381 0.5312,-0.074 0.7683,-0.1079 0.2032,0 0.3641,0.0381 0.4826,0.1143 0.1185,0.0762 0.1947,0.2201 0.2286,0.4318z"/>
  <g id="_639669608">
   <path id="_639668024" class="fil1" d="M93.6224 65.4037c0,0 -51.785,-8.5521 -60.981,5.5175 -9.1961,14.0696 27.4121,27.4154 27.4121,27.4154 0,0 -31.8256,25.3638 -3.3813,47.6637 28.4444,22.3 56.3522,-15.4754 56.3522,-15.4754 0,0 61.9138,11.1981 72.0779,-8.3178 10.1641,-19.5159 -41.4869,-25.9264 -41.4869,-25.9264 0,0 6.6387,-52.1372 -49.993,-30.877z"/>
   <path id="_639668864" class="fil2" d="M75.7278 111.153l-0.6039 -6.6961 -0.2819 -3.1244c0,0 -4.9309,3.379 -13.0965,0.0641 -8.1655,-3.3148 -17.4806,4.2821 -17.1899,6.5264 0.2906,2.2443 5.7262,-5.3531 14.1539,0.2236 8.4276,5.5766 17.0183,3.0064 17.0183,3.0064zm3.3321 -18.7331l-3.3665 7.9507c0,0 -3.0689,-7.1921 -10.8876,-7.357 -7.8186,-0.165 -13.0029,-2.8578 -11.5284,-5.1853 1.4744,-2.3274 2.1689,4.1342 11.7145,0.8721 9.5456,-3.262 14.068,3.7195 14.068,3.7195zm7.9277 -7.4672l-7.1068 5.5614c0,0 -1.9573,-8.2844 -8.0997,-11.9676 -6.1424,-3.6832 -8.0655,-11.85 -6.0964,-12.9654 1.9691,-1.1155 1.1644,6.6802 9.513,8.4954 8.3484,1.8152 11.7899,10.8762 11.7899,10.8762zm8.8806 -5.1963l-7.2565 2.5199c0,0 0.8214,-5.7845 -2.7272,-10.6266 -3.5486,-4.8421 -4.2579,-12.8838 -2.0126,-13.1665 2.2454,-0.2828 -1.3582,4.3342 5.6727,9.1879 7.0309,4.8538 6.3236,12.0853 6.3236,12.0853zm14.4308 -1.2818l7.2564 2.5198c0,0 -0.8213,-5.7844 2.7272,-10.6266 3.5486,-4.8421 4.2579,-12.8838 2.0126,-13.1665 -2.2454,-0.2827 1.3582,4.3342 -5.6727,9.188 -7.0309,4.8537 -6.3235,12.0853 -6.3235,12.0853zm9.7863 3.6865l7.1069 5.5614c0,0 1.9573,-8.2844 8.0997,-11.9676 6.1423,-3.6831 8.0655,-11.85 6.0964,-12.9654 -1.9691,-1.1154 -1.1644,6.6802 -9.513,8.4954 -8.3484,1.8152 -11.79,10.8762 -11.79,10.8762zm8.9903 6.7226l3.3665 7.9509c0,0 3.069,-7.1922 10.8877,-7.3572 7.8187,-0.1648 13.0028,-2.8578 11.5283,-5.1852 -1.4744,-2.3275 -2.1688,4.1342 -11.7144,0.8721 -9.5456,-3.262 -14.0681,3.7194 -14.0681,3.7194zm1.2078 29.5628l3.3665 -7.9507c0,0 3.0689,7.1921 10.8876,7.357 7.8187,0.165 13.0029,2.8578 11.5285,5.1853 -1.4745,2.3274 -2.1689,-4.1342 -11.7146,-0.8721 -9.5456,3.262 -14.068,-3.7195 -14.068,-3.7195zm-7.9358 9.593l7.1069 -5.5613c0,0 1.9573,8.2844 8.0997,11.9676 6.1423,3.6831 8.0654,11.8499 6.0964,12.9654 -1.9691,1.1154 -1.1645,-6.6803 -9.513,-8.4954 -8.3485,-1.8152 -11.79,-10.8763 -11.79,-10.8763zm-9.4821 5.6474l7.2565 -2.5199c0,0 -0.8214,5.7845 2.7272,10.6266 3.5485,4.8421 4.2579,12.8838 2.0126,13.1665 -2.2454,0.2827 1.3581,-4.3342 -5.6728,-9.188 -7.0309,-4.8537 -6.3235,-12.0852 -6.3235,-12.0852zm-16.6954 -0.0741l-7.2565 -2.5199c0,0 0.8214,5.7845 -2.7272,10.6266 -3.5485,4.8421 -4.2578,12.8838 -2.0125,13.1665 2.2453,0.2828 -1.3582,-4.3342 5.6727,-9.1879 7.0309,-4.8538 6.3235,-12.0853 6.3235,-12.0853zm-8.8805 -5.1963l-7.1069 -5.5614c0,0 -1.9573,8.2844 -8.0997,11.9676 -6.1423,3.6832 -8.0654,11.85 -6.0964,12.9654 1.9691,1.1155 1.1645,-6.6802 9.513,-8.4954 8.3485,-1.8152 11.79,-10.8762 11.79,-10.8762zm-7.9277 -7.4672l-3.3665 -7.9507c0,0 -3.0689,7.1921 -10.8876,7.357 -7.8187,0.165 -13.0029,2.8578 -11.5285,5.1853 1.4745,2.3274 2.1689,-4.1342 11.7146,-0.8721 9.5456,3.262 14.068,-3.7195 14.068,-3.7195zm19.2671 -41.7116l2.6008 -0.2229 4.0979 -0.3512 1.5629 -0.134 1.5628 -0.134c0,0 -4.2105,-7.2944 0,-14.4541 4.2105,-7.1596 -4.2105,-16.142 -6.4561,-15.8613 -2.2455,0.2807 5.3277,5.75 -0.2863,14.1528 -5.614,8.4028 -3.082,17.0047 -3.082,17.0047zm33.3889 19.9208l0.5546 2.5508 0.8738 4.0189 0.1597 0.7341 0.1736 0.7987 0.3334 1.5328c0,0 6.6942,-5.1112 14.3347,-1.8537 7.6406,3.2574 15.4688,-6.2459 14.9024,-8.4369 -0.5664,-2.1911 -5.0192,6.021 -14.0726,1.531 -9.0534,-4.4899 -17.2596,-0.8757 -17.2596,-0.8757zm-32.0574 34.973l2.6008 0.2229 4.0979 0.3512 1.5629 0.134 1.5628 0.134c0,0 -4.2105,7.2944 0,14.4541 4.2105,7.1596 -4.2105,16.142 -6.456,15.8613 -2.2456,-0.2807 5.3276,-5.75 -0.2864,-14.1528 -5.614,-8.4028 -3.082,-17.0047 -3.082,-17.0047z"/>
   <g style="clip-path:url(#id0)">
    <g>
     <path id="_6396763761" class="fil3" d="M104.106 62.5848c-1.297,1.0288 -3.2765,6.6143 -3.0688,10.6056 0.2077,3.9913 2.0529,12.1781 2.0529,12.1781l4.8186 -2.2728c0,0 -4.4502,-7.231 -4.4339,-12.7825 0.0165,-5.5514 2.328,-7.4542 0.6312,-7.7284zm30.5791 73.9171c-1.6546,-0.0602 -6.5588,-3.3864 -8.7567,-6.7245 -2.1979,-3.3381 -5.5629,-11.026 -5.5629,-11.026l5.2282 -1.0247c0,0 0.7003,8.4618 4.0032,12.9238 3.303,4.462 6.2924,4.625 5.0882,5.8514zm-17.6649 -67.9819c-1.4809,0.7401 -4.5667,5.799 -5.1844,9.7477 -0.6176,3.9487 -0.4956,12.34 -0.4956,12.34l5.183 -1.2332c0,0 -2.8679,-7.9917 -1.7101,-13.4211 1.1578,-5.4294 3.8112,-6.8161 2.2071,-7.4334zm14.7585 5.5307c-1.6512,0.1199 -6.4322,3.6208 -8.5083,7.036 -2.0759,3.4153 -5.1614,11.2197 -5.1614,11.2197l5.2619 0.8353c0,0 0.3944,-8.4816 3.5341,-13.0599 3.1398,-4.5783 6.1214,-4.849 4.8737,-6.0311zm10.4732 12.5416c-1.5017,-0.6973 -7.3812,0.0411 -10.8547,2.0182 -3.4734,1.9772 -9.9608,7.3008 -9.9608,7.3008l4.1939 3.2857c0,0 4.464,-7.2224 9.4322,-9.6996 4.968,-2.4773 7.706,-1.2659 7.1894,-2.9051zm5.2649 16.0216c-1.1074,-1.2307 -6.805,-2.8595 -10.7757,-2.4044 -3.9707,0.4551 -12.0271,2.8051 -12.0271,2.8051l2.5676 4.6682c0,0 6.9407,-4.8906 12.4825,-5.219 5.5417,-0.3283 7.5844,1.8606 7.7527,0.1501zm-4.3005 17.8754c-1.5017,0.6972 -7.3813,-0.0412 -10.8547,-2.0183 -3.4734,-1.9772 -9.9608,-7.3008 -9.9608,-7.3008l4.1939 -3.2857c0,0 4.464,7.2225 9.4321,9.6997 4.9682,2.4772 7.7061,1.2658 7.1895,2.9051zm-23.6296 22.1625c-1.505,-0.6898 -4.7597,-5.6418 -5.5101,-9.5674 -0.7504,-3.9257 -0.9114,-12.3162 -0.9114,-12.3162l5.2217 1.0576c0,0 -2.5968,8.0839 -1.2567,13.4712 1.3402,5.3873 4.0389,6.6838 2.4565,7.3548zm-14.2764 8.1332c-1.297,-1.0289 -3.2764,-6.6143 -3.0688,-10.6056 0.2077,-3.9913 2.0529,-12.178 2.0529,-12.178l4.8186 2.2727c0,0 -4.4502,7.231 -4.4338,12.7825 0.0164,5.5514 2.3279,7.4543 0.6311,7.7284zm-17.6143 -8.0753c1.5802,-0.494 5.4352,-4.9945 6.6761,-8.7936 1.241,-3.7992 2.462,-12.102 2.462,-12.102l-5.3135 0.3887c0,0 1.5534,8.3474 -0.4574,13.5219 -2.0109,5.1744 -4.8519,6.1192 -3.3672,6.985zm-12.8397 -6.2079c1.6545,-0.0602 6.5588,-3.3863 8.7567,-6.7244 2.1979,-3.3381 5.5629,-11.026 5.5629,-11.026l-5.2282 -1.0247c0,0 -0.7003,8.4618 -4.0032,12.9238 -3.3029,4.462 -6.2924,4.625 -5.0882,5.8513zm-10.1464 -13.1512c1.5017,0.6972 7.3813,-0.0412 10.8547,-2.0183 3.4734,-1.9772 9.9608,-7.3008 9.9608,-7.3008l-4.1939 -3.2857c0,0 -4.464,7.2225 -9.4321,9.6997 -4.9682,2.4772 -7.7061,1.2658 -7.1895,2.9051zm-8.4916 -20.1634c0.7404,1.4808 5.7998,4.5658 9.7486,5.1828 3.9488,0.617 12.34,0.4936 12.34,0.4936l-1.234 -5.1828c0,0 -7.9912,2.8692 -13.4208,1.7123 -5.4296,-1.1569 -6.8168,-3.8101 -7.4338,-2.2059zm8.026 -12.4081c1.3903,-0.8987 7.3156,-0.9833 11.0297,0.493 2.1464,0.853 5.4447,2.6733 7.8466,4.058 -0.2292,-2.4688 -1.0129,-8.3664 -3.4479,-11.9172 -3.1398,-4.5783 -6.1215,-4.8491 -4.8737,-6.0312 1.6512,0.1199 6.4323,3.6208 8.5083,7.0361 2.076,3.4152 5.1614,11.2196 5.1614,11.2196l-3.7905 0.6017c0.9024,0.533 1.4731,0.8813 1.4731,0.8813l-3.6975 3.8357c0,0 -5.4228,-6.5333 -10.6865,-8.2974 -5.2638,-1.7639 -7.8073,-0.1844 -7.523,-1.8796zm23.1204 -22.159c1.4809,0.7402 4.5667,5.7991 5.1844,9.7477 0.6176,3.9487 0.4956,12.3399 0.4956,12.3399l-5.183 -1.2331c0,0 2.8679,-7.9917 1.7101,-13.4211 -1.1578,-5.4294 -3.8113,-6.8162 -2.2071,-7.4334z"/>
    </g>
   </g>
   <path class="fil4 str0" d="M75.7278 111.153l-0.6039 -6.6961 -0.2819 -3.1244c0,0 -4.9309,3.379 -13.0965,0.0641 -8.1655,-3.3148 -17.4806,4.2821 -17.1899,6.5264 0.2906,2.2443 5.7262,-5.3531 14.1539,0.2236 8.4276,5.5766 17.0183,3.0064 17.0183,3.0064zm3.3321 -18.7331l-3.3665 7.9507c0,0 -3.0689,-7.1921 -10.8876,-7.357 -7.8186,-0.165 -13.0029,-2.8578 -11.5284,-5.1853 1.4744,-2.3274 2.1689,4.1342 11.7145,0.8721 9.5456,-3.262 14.068,3.7195 14.068,3.7195zm7.9277 -7.4672l-7.1068 5.5614c0,0 -1.9573,-8.2844 -8.0997,-11.9676 -6.1424,-3.6832 -8.0655,-11.85 -6.0964,-12.9654 1.9691,-1.1155 1.1644,6.6802 9.513,8.4954 8.3484,1.8152 11.7899,10.8762 11.7899,10.8762zm8.8806 -5.1963l-7.2565 2.5199c0,0 0.8214,-5.7845 -2.7272,-10.6266 -3.5486,-4.8421 -4.2579,-12.8838 -2.0126,-13.1665 2.2454,-0.2828 -1.3582,4.3342 5.6727,9.1879 7.0309,4.8538 6.3236,12.0853 6.3236,12.0853zm14.4308 -1.2818l7.2564 2.5198c0,0 -0.8213,-5.7844 2.7272,-10.6266 3.5486,-4.8421 4.2579,-12.8838 2.0126,-13.1665 -2.2454,-0.2827 1.3582,4.3342 -5.6727,9.188 -7.0309,4.8537 -6.3235,12.0853 -6.3235,12.0853zm9.7863 3.6865l7.1069 5.5614c0,0 1.9573,-8.2844 8.0997,-11.9676 6.1423,-3.6831 8.0655,-11.85 6.0964,-12.9654 -1.9691,-1.1154 -1.1644,6.6802 -9.513,8.4954 -8.3484,1.8152 -11.79,10.8762 -11.79,10.8762zm8.9903 6.7226l3.3665 7.9509c0,0 3.069,-7.1922 10.8877,-7.3572 7.8187,-0.1648 13.0028,-2.8578 11.5283,-5.1852 -1.4744,-2.3275 -2.1688,4.1342 -11.7144,0.8721 -9.5456,-3.262 -14.0681,3.7194 -14.0681,3.7194zm1.2078 29.5628l3.3665 -7.9507c0,0 3.0689,7.1921 10.8876,7.357 7.8187,0.165 13.0029,2.8578 11.5285,5.1853 -1.4745,2.3274 -2.1689,-4.1342 -11.7146,-0.8721 -9.5456,3.262 -14.068,-3.7195 -14.068,-3.7195zm-7.9358 9.593l7.1069 -5.5613c0,0 1.9573,8.2844 8.0997,11.9676 6.1423,3.6831 8.0654,11.8499 6.0964,12.9654 -1.9691,1.1154 -1.1645,-6.6803 -9.513,-8.4954 -8.3485,-1.8152 -11.79,-10.8763 -11.79,-10.8763zm-9.4821 5.6474l7.2565 -2.5199c0,0 -0.8214,5.7845 2.7272,10.6266 3.5485,4.8421 4.2579,12.8838 2.0126,13.1665 -2.2454,0.2827 1.3581,-4.3342 -5.6728,-9.188 -7.0309,-4.8537 -6.3235,-12.0852 -6.3235,-12.0852zm-16.6954 -0.0741l-7.2565 -2.5199c0,0 0.8214,5.7845 -2.7272,10.6266 -3.5485,4.8421 -4.2578,12.8838 -2.0125,13.1665 2.2453,0.2828 -1.3582,-4.3342 5.6727,-9.1879 7.0309,-4.8538 6.3235,-12.0853 6.3235,-12.0853zm-8.8805 -5.1963l-7.1069 -5.5614c0,0 -1.9573,8.2844 -8.0997,11.9676 -6.1423,3.6832 -8.0654,11.85 -6.0964,12.9654 1.9691,1.1155 1.1645,-6.6802 9.513,-8.4954 8.3485,-1.8152 11.79,-10.8762 11.79,-10.8762zm-7.9277 -7.4672l-3.3665 -7.9507c0,0 -3.0689,7.1921 -10.8876,7.357 -7.8187,0.165 -13.0029,2.8578 -11.5285,5.1853 1.4745,2.3274 2.1689,-4.1342 11.7146,-0.8721 9.5456,3.262 14.068,-3.7195 14.068,-3.7195zm19.2671 -41.7116l2.6008 -0.2229 4.0979 -0.3512 1.5629 -0.134 1.5628 -0.134c0,0 -4.2105,-7.2944 0,-14.4541 4.2105,-7.1596 -4.2105,-16.142 -6.4561,-15.8613 -2.2455,0.2807 5.3277,5.75 -0.2863,14.1528 -5.614,8.4028 -3.082,17.0047 -3.082,17.0047zm33.3889 19.9208l0.5546 2.5508 0.8738 4.0189 0.1597 0.7341 0.1736 0.7987 0.3334 1.5328c0,0 6.6942,-5.1112 14.3347,-1.8537 7.6406,3.2574 15.4688,-6.2459 14.9024,-8.4369 -0.5664,-2.1911 -5.0192,6.021 -14.0726,1.531 -9.0534,-4.4899 -17.2596,-0.8757 -17.2596,-0.8757zm-32.0574 34.973l2.6008 0.2229 4.0979 0.3512 1.5629 0.134 1.5628 0.134c0,0 -4.2105,7.2944 0,14.4541 4.2105,7.1596 -4.2105,16.142 -6.456,15.8613 -2.2456,-0.2807 5.3276,-5.75 -0.2864,-14.1528 -5.614,-8.4028 -3.082,-17.0047 -3.082,-17.0047z"/>
   <path id="_639668456" class="fil5 str0" d="M92.4131 79.9688c-22.2165,10.4548 -23.1208,28.0555 -15.6176,42.0833 7.5032,14.0277 42.7357,24.7932 55.7848,-4.5672 13.0491,-29.3604 -17.9508,-47.9709 -40.1672,-37.5161z"/>
   <path id="_639668600" class="fil2" d="M131.391 109.812c0,0 -5.3997,13.8225 -19.8389,17.6328 -14.4392,3.8104 -25.2687,-3.6098 -25.2687,-3.6098 0,0 12.8535,13.4864 28.8971,6.2668 16.0436,-7.2196 16.2105,-20.2898 16.2105,-20.2898z"/>
   <path id="_639669032" class="fil6" d="M89.4551 84.5106c-6.4076,3.2489 -7.1204,11.7751 -7.1204,11.7751 0,0 3.2106,-6.1896 9.9131,-9.3547 6.7026,-3.1651 12.6605,-3.3513 12.6605,-3.3513 0,0 -8.6067,-2.5405 -15.4532,0.9309z"/>
   <path id="_639669176" class="fil7" d="M156.418 113.291c0,0 6.015,0.5031 8.057,2.8536 2.0421,2.3504 2.955,5.2856 2.955,5.2856 0,0 2.2583,-2.0854 5.2019,-3.1 2.9437,-1.0145 8.4044,1.5573 8.4044,1.5573 0,0 -6.0396,-1.9461 -9.3538,0.0237 -3.3141,1.9697 -3.3373,4.0629 -4.7632,3.425 -1.5538,-0.1605 -0.5272,-1.9848 -2.4125,-5.3478 -1.8853,-3.3629 -8.0888,-4.6974 -8.0888,-4.6974z"/>
   <path id="_639669584" class="fil7" d="M26.5021 80.1598c0,0 6.4836,-3.0535 9.9788,-1.849 3.4952,1.2046 6.1765,3.6808 6.1765,3.6808 0,0 1.084,-3.4851 3.5085,-6.2759 2.4247,-2.7907 9.5665,-3.3881 9.5665,-3.3881 0,0 -7.3657,1.5844 -9.6041,5.5774 -2.2385,3.993 -1.0196,6.1591 -2.8646,6.3497 -1.693,0.7574 -1.7205,-1.728 -5.6555,-4.0667 -3.9351,-2.3388 -11.1061,-0.0282 -11.1061,-0.0282z"/>
  </g>
  <path class="fil0" d="M308.852 247.624c0.0254,0.2201 -0.2625,0.4466 -0.8636,0.6794 -0.6011,0.2329 -1.1726,0.3493 -1.7124,0.3493 -0.3767,0 -0.6307,-0.2582 -0.7662,-0.7747 -0.0995,-0.3979 -0.1503,-1.1176 -0.1503,-2.159 0,-0.3387 0,-0.6858 0,-1.0414 0,-0.3556 0,-0.7239 0,-1.1049 0,-2.3453 0.2455,-3.5179 0.7366,-3.5179 0.1863,0 0.3196,0.1651 0.4001,0.4953 0.0804,0.3302 0.1206,0.7916 0.1206,1.3843 0,0.2455 -0.0106,0.7429 -0.0317,1.4922 -0.0212,0.7493 -0.0318,1.2468 -0.0318,1.4923 0,0.5503 0.0106,0.9948 0.0318,1.3335 0.0211,0.3387 0.0613,0.6689 0.1206,0.9906 0.1693,0 0.3916,-0.0191 0.6668,-0.0572 0.2751,-0.0381 0.5312,-0.074 0.7683,-0.1079 0.2032,0 0.3641,0.0381 0.4826,0.1143 0.1185,0.0762 0.1947,0.2201 0.2286,0.4318zm5.9944 -3.556c0,1.1176 -0.2709,2.0786 -0.8128,2.8829 -0.5673,0.8382 -1.27,1.2573 -2.1082,1.2573 -0.7959,0 -1.4393,-0.2836 -1.9304,-0.8509 -0.6096,-0.7027 -0.9144,-1.778 -0.9144,-3.2258 0,-1.0075 0.182,-2.0511 0.5461,-3.1306 0.3641,-1.0795 0.7366,-1.6192 1.1176,-1.6192 0.3302,0 0.4953,0.2074 0.4953,0.6223 0,0.2286 -0.1778,0.8721 -0.5334,1.9304 -0.3556,1.0583 -0.5334,1.7992 -0.5334,2.2225 0,1.0668 0.1778,1.8288 0.5334,2.286 0.2879,0.3725 0.7027,0.5588 1.2446,0.5588 0.5673,0 1.0033,-0.3175 1.3081,-0.9525 0.2709,-0.5588 0.4064,-1.2785 0.4064,-2.159 0,-0.254 -0.0614,-0.8488 -0.1841,-1.7844 -0.1228,-0.9355 -0.1842,-1.488 -0.1842,-1.6573 0,-0.6519 0.182,-1.0033 0.5461,-1.0541 0.3048,-0.0339 0.5546,0.4572 0.7493,1.4732 0.1693,0.8975 0.254,1.9643 0.254,3.2004zm6.3881 -2.032l0 3.4036 0 0.5461c0,1.143 -0.0529,1.9177 -0.1587,2.3241 -0.1059,0.4064 -0.2604,0.6096 -0.4636,0.6096 -0.4149,0 -0.8213,-0.3598 -1.2192,-1.0795 -0.2032,-0.3725 -0.5482,-1.1875 -1.035,-2.4448 -0.4869,-1.2573 -0.8996,-2.178 -1.2383,-2.7622 0,0.2709 0.0085,0.8276 0.0254,1.67 0.0169,0.8425 0.0254,1.3357 0.0254,1.4796 0,0.8213 -0.0339,1.452 -0.1016,1.8923 -0.0677,0.4403 -0.199,0.6604 -0.3937,0.6604 -0.2794,0 -0.4805,-0.235 -0.6032,-0.7049 -0.1228,-0.4699 -0.1842,-1.1154 -0.1842,-1.9367l0 -3.5814c0,-0.7874 0.0402,-1.3907 0.1207,-1.8098 0.0804,-0.4191 0.2391,-0.6286 0.4762,-0.6286 0.2879,0 0.6816,0.4784 1.1811,1.4351 0.3302,0.635 0.7726,1.615 1.3272,2.94 0.5545,1.3251 0.9122,2.1527 1.0731,2.4829l-0.0889 -4.2291c0,-0.9991 0.0466,-1.7738 0.1397,-2.3241 0.0931,-0.5503 0.2582,-0.8255 0.4953,-0.8255 0.2328,0 0.3937,0.2498 0.4847,0.7493 0.091,0.4995 0.1376,1.2107 0.1376,2.1336zm5.5626 5.461c0,0.3302 -0.0317,0.5842 -0.0952,0.762 -0.0635,0.1778 -0.18,0.2667 -0.3493,0.2667 -0.2371,0 -0.453,-0.3598 -0.6477,-1.0795 -0.1101,-0.4657 -0.2159,-0.9356 -0.3175,-1.4097l-2.159 0c-0.1185,0.4572 -0.2371,0.9144 -0.3556,1.3716 -0.1609,0.5503 -0.3937,0.8255 -0.6985,0.8255 -0.1778,0 -0.2836,-0.0254 -0.3175,-0.0762 -0.0677,-0.1016 -0.1016,-0.2752 -0.1016,-0.5207 0,-0.2032 0.0148,-0.4339 0.0445,-0.6922 0.0296,-0.2582 0.1037,-0.6117 0.2222,-1.0604 0.1185,-0.4487 0.2371,-0.8911 0.3556,-1.3272 0.1185,-0.436 0.3471,-1.2551 0.6858,-2.4574 0.254,-0.8975 0.4022,-1.3716 0.4445,-1.4224 0.2371,-0.8297 0.5884,-1.2446 1.0541,-1.2446 0.2286,0 0.4614,0.182 0.6985,0.5461 0.2371,0.3641 0.4064,0.8255 0.508,1.3843 0.0339,0.0593 0.1164,0.4381 0.2477,1.1366 0.1312,0.6985 0.2518,1.3526 0.3619,1.9622 0.0593,0.3471 0.1185,0.6858 0.1778,1.016 0.0593,0.3302 0.1143,0.7112 0.1651,1.143 0.0508,0.4318 0.0762,0.7239 0.0762,0.8763zm-1.5621 -2.5527l-0.6604 -4.1021 -1.1303 4.1021 1.7907 0z"/>
  <g id="_639661520">
   <path id="_639666584" class="fil8" d="M300.696 147.966c0,0 -51.785,8.5521 -60.981,-5.5175 -9.1961,-14.0696 27.4121,-27.4154 27.4121,-27.4154 0,0 -31.8256,-25.3638 -3.3813,-47.6637 28.4444,-22.3 56.3522,15.4754 56.3522,15.4754 0,0 61.9138,-11.1981 72.0779,8.3178 10.1641,19.5159 -41.4869,25.9264 -41.4869,25.9264 0,0 6.6387,52.1372 -49.993,30.877z"/>
   <g>
    <path id="_639670592" class="fil9 str1" d="M304.171 80.0775c-22.2165,10.4548 -23.1208,28.0555 -15.6176,42.0833 7.5032,14.0277 42.7357,24.7932 55.7848,-4.5672 13.0491,-29.3604 -17.9508,-47.9709 -40.1672,-37.5161z"/>
    <g>
     <path id="_639670184" class="fil10" d="M300.077 111.787c0.3842,0.5153 0.8927,1.9358 0.8927,1.9358 0,0 0.2932,-0.7097 0.6548,-2.596 0.4651,0.5733 2.3516,0.8127 2.3516,0.8127 0,0 -1.3984,-1.6413 -1.4676,-2.1971 1.923,0.5235 3.1034,-0.2111 3.1034,-0.2111 -2.2203,-0.5567 -2.7217,-1.2566 -2.7217,-1.2566 2.4153,-0.4816 3.0623,-2.3451 3.0623,-2.1363 0,0 -2.2162,1.1517 -3.4046,0.3696 0.4365,-0.9066 1.2422,-3.7342 1.2422,-3.7342 0,0 -1.6668,1.3323 -2.4925,2.4083 -0.8257,1.076 -1.8042,-0.822 -0.7339,-4.0323 0,0 -1.1277,1.3341 -1.7247,3.7019 -0.597,2.3678 -1.6962,-2.5093 -1.6962,-2.5093 -1.6314,3.1759 1.8245,5.8168 -3.0205,3.1669 0,0 0.9007,1.8422 2.3464,2.3841 -0.6446,0.7711 -1.5786,0.7487 -2.8805,1.0399 0,0 1.3819,0.5948 3.0609,0.723 -0.2921,1.5793 -2.3696,1.8137 -2.0105,1.8137 0,0 1.4087,0.6019 2.9628,0 1.5541,-0.6019 -0.0705,2.437 -0.0705,2.437 0.999,-0.3194 1.5707,-1.5417 2.5461,-2.12z"/>
     <path id="_639670328" class="fil9" d="M299.842 106.224c-2.0095,-0.2301 -2.8354,0.9638 -2.9176,2.2717 -0.0821,1.3079 1.9199,3.5886 4.1062,2.097 2.1863,-1.4916 0.8208,-4.1386 -1.1886,-4.3687z"/>
     <path id="_639670760" class="fil11" d="M299.406 107.345c-1.3359,-0.1529 -1.885,0.6408 -1.9396,1.5102 -0.0546,0.8695 1.2763,2.3858 2.7298,1.3941 1.4535,-0.9916 0.5457,-2.7513 -0.7902,-2.9043z"/>
    </g>
    <g>
     <path id="_639670616" class="fil10" d="M333.15 87.5485c-0.1163,-0.9894 0.3019,-3.2901 0.3019,-3.2901 0,0 -0.9435,0.7254 -2.8906,2.977 -0.18,-1.1299 -2.5266,-2.9132 -2.5266,-2.9132 0,0 0.6051,3.2867 0.2672,4.0864 -2.1754,-2.1929 -4.3291,-2.1216 -4.3291,-2.1216 2.5488,2.4678 2.6794,3.7958 2.6794,3.7958 -3.6151,-1.2253 -5.9277,0.7746 -5.7659,0.4943 0,0 3.8672,0.1716 4.8563,2.1423 -1.2885,0.8786 -4.5612,4.0495 -4.5612,4.0495 0,0 3.2697,-0.4965 5.2119,-1.3009 1.9421,-0.8044 1.7846,2.5015 -2.1398,5.981 0,0 2.5475,-0.9168 5.1838,-3.6323 2.6362,-2.7155 0.3321,4.6826 0.3321,4.6826 4.6509,-2.9986 2.0588,-9.2215 6.5084,-1.9101 0,0 0.2187,-3.1706 -1.3019,-5.0183 1.4628,-0.5355 2.6991,0.2184 4.6722,0.8364 0,0 -1.3939,-1.8693 -3.5482,-3.3425 1.616,-1.8934 4.5861,-0.5981 4.1041,-0.8764 0,0 -1.4244,-1.8995 -3.9768,-2.296 -2.5524,-0.3964 1.9832,-3.2164 1.9832,-3.2164 -1.5884,-0.3454 -3.303,0.8522 -5.0604,0.8725z"/>
     <path id="_639672920" class="fil9" d="M329.155 95.1977c2.5189,1.8661 4.5527,0.9036 5.6765,-0.7883 1.1237,-1.6918 0.204,-6.3045 -3.8864,-5.9967 -4.0905,0.3078 -4.3089,4.9189 -1.7901,6.785z"/>
     <path id="_639673856" class="fil11" d="M330.609 94.0316c1.6745,1.2405 3.0266,0.6007 3.7737,-0.5241 0.747,-1.1247 0.1357,-4.1912 -2.5837,-3.9866 -2.7193,0.2047 -2.8645,3.2701 -1.19,4.5107z"/>
    </g>
    <g>
     <path id="_639676664" class="fil10" d="M322.853 123.999c0.394,-0.1794 1.4018,-0.3115 1.4018,-0.3115 0,0 -0.4254,-0.2943 -1.6156,-0.8015 0.4438,-0.2244 0.8706,-1.4322 0.8706,-1.4322 0,0 -1.2801,0.6864 -1.6559,0.6527 0.619,-1.1913 0.3038,-2.0733 0.3038,-2.0733 -0.6833,1.3823 -1.2156,1.6125 -1.2156,1.6125 0.0276,-1.6588 -1.1069,-2.3507 -0.9695,-2.3209 0,0 0.442,1.6234 -0.2425,2.2942 -0.5345,-0.4167 -2.2811,-1.3507 -2.2811,-1.3507 0,0 0.6392,1.2875 1.2298,1.9846 0.5906,0.6972 -0.7986,1.0705 -2.7594,-0.0922 0,0 0.7174,0.9328 2.1911,1.6637 1.4736,0.7309 -1.8941,0.7586 -1.8941,0.7586 1.8581,1.5273 4.0899,-0.3711 1.6539,2.4405 0,0 1.3414,-0.3301 1.9044,-1.2046 0.4157,0.5344 0.2677,1.1461 0.2736,2.0448 0,0 0.5888,-0.8249 0.9128,-1.912 0.998,0.4177 0.8559,1.8189 0.9071,1.5824 0,0 0.5973,-0.8415 0.4228,-1.9505 -0.1745,-1.109 1.5944,0.3941 1.5944,0.3941 -0.0678,-0.7032 -0.7909,-1.254 -1.0324,-1.9787z"/>
     <path id="_639656336" class="fil9" d="M319.157 123.36c-0.4383,1.2901 0.2299,2.0042 1.0792,2.2449 0.8493,0.2407 2.6365,-0.7518 1.9665,-2.404 -0.67,-1.6523 -2.6075,-1.131 -3.0457,0.1591z"/>
     <path id="_639647192" class="fil11" d="M319.833 123.807c-0.2914,0.8576 0.1528,1.3324 0.7175,1.4924 0.5646,0.16 1.7527,-0.4998 1.3073,-1.5982 -0.4455,-1.0984 -1.7335,-0.7519 -2.0248,0.1058z"/>
    </g>
    <path id="_639648152" class="fil10" d="M341.822 97.7033c0,0 2.235,14.6704 -8.3646,25.1899 -10.5996,10.5195 -23.6882,9.5082 -23.6882,9.5082 0,0 17.8746,5.2528 28.159,-9.0214 10.2844,-14.2741 3.8938,-25.6767 3.8938,-25.6767z"/>
    <path id="_639652808" class="fil12" d="M290.483 94.3982c-3.9247,6.0174 -0.279,13.7577 -0.279,13.7577 0,0 -0.3143,-6.9656 3.9077,-13.058 4.2221,-6.0923 9.2886,-9.2325 9.2886,-9.2325 0,0 -8.7238,2.1032 -12.9173,8.5328z"/>
   </g>
   <polygon id="_639651872" class="fil13" points="277.919,123.787 276.837,126.522 274.733,126.521 276.347,128.047 275.195,130.519 277.858,129.036 280.329,130.724 279.639,128.162 281.403,126.907 279.08,126.682 "/>
   <polygon id="_639654608" class="fil14" points="280.42,94.6782 278.439,94.4492 278.07,93.071 277.353,94.3959 275.532,94.0752 276.971,95.5595 276.299,97.4742 277.856,96.5727 278.988,97.5078 278.727,95.9469 "/>
   <polygon id="_639655472" class="fil14" points="381.48,97.2446 380.128,94.1218 381.85,92.4003 379.281,92.4721 378.201,89.5069 377.235,92.8996 373.832,93.5401 376.493,95.0721 376.077,97.5427 378.161,95.8256 "/>
   <polygon id="_639652832" class="fil15" points="256.916,143.69 255.193,139.708 257.388,137.513 254.112,137.605 252.735,133.825 251.504,138.15 247.166,138.967 250.558,140.92 250.028,144.07 252.685,141.881 "/>
   <polygon id="_639659792" class="fil14" points="328.903,142.679 326.922,142.45 326.553,141.072 325.836,142.397 324.015,142.076 325.454,143.56 324.782,145.475 326.339,144.574 327.471,145.509 327.21,143.948 "/>
   <polygon id="_639657224" class="fil13" points="270.796,80.1207 269.445,76.9979 271.166,75.2764 268.597,75.3482 267.517,72.383 266.552,75.7757 263.149,76.4162 265.809,77.9482 265.394,80.4188 267.478,78.7017 "/>
   <polygon id="_639658088" class="fil15" points="358.652,108.751 356.671,108.522 356.302,107.144 355.586,108.469 353.764,108.148 355.203,109.633 354.531,111.547 356.088,110.646 357.221,111.581 356.96,110.02 "/>
  </g>
 </g>
</svg>
