<?xml version="1.0" encoding="UTF-8"?>
<!DOCTYPE svg PUBLIC "-//W3C//DTD SVG 1.1//EN" "http://www.w3.org/Graphics/SVG/1.1/DTD/svg11.dtd">
<!-- Creator: CorelDRAW -->
<svg xmlns="http://www.w3.org/2000/svg" xml:space="preserve" width="420mm" height="297mm" style="shape-rendering:geometricPrecision; text-rendering:geometricPrecision; image-rendering:optimizeQuality; fill-rule:evenodd; clip-rule:evenodd"
viewBox="0 0 420 297"
 xmlns:xlink="http://www.w3.org/1999/xlink">
 <defs>
  <style type="text/css">
   <![CDATA[
    .str2 {stroke:#72706F;stroke-width:0.75;stroke-linecap:round;stroke-linejoin:round}
    .str0 {stroke:#8F5444;stroke-width:0.75;stroke-linecap:round;stroke-linejoin:round}
    .str6 {stroke:#97946B;stroke-width:0.75}
    .str1 {stroke:#C2C1C1;stroke-width:0.75}
    .str4 {stroke:#8F6D5A;stroke-width:0.75}
    .str3 {stroke:#2E4F6F;stroke-width:0.75;stroke-linecap:round;stroke-linejoin:round}
    .str5 {stroke:#6B4137;stroke-width:0.75}
    .fil12 {fill:none}
    .fil31 {fill:#1F1A17}
    .fil32 {fill:#6B4137}
    .fil13 {fill:#72706F}
    .fil20 {fill:#75C5F0}
    .fil34 {fill:#8F5444}
    .fil10 {fill:#969594}
    .fil2 {fill:#99AE6A}
    .fil33 {fill:#B7673C}
    .fil4 {fill:#BB825B}
    .fil3 {fill:#C2C1C1}
    .fil36 {fill:#C4BF66}
    .fil0 {fill:#C5D1A7}
    .fil27 {fill:#DB214C}
    .fil11 {fill:#DEDEDD}
    .fil9 {fill:#E05E29}
    .fil29 {fill:#E3556A}
    .fil7 {fill:#E77844}
    .fil30 {fill:#E87877}
    .fil6 {fill:#EE9A69}
    .fil8 {fill:#F5C491}
    .fil18 {fill:#F8C300}
    .fil35 {fill:#FFFCC8}
    .fil5 {fill:white}
    .fil26 {fill:#8F6D5A}
    .fil14 {fill:#0779A1}
    .fil15 {fill:#2E4F6F}
    .fil22 {fill:#536B3B}
    .fil23 {fill:#9B836E}
    .fil19 {fill:#C58C2D}
    .fil17 {fill:#DEA817}
    .fil21 {fill:#6E8233}
    .fil25 {fill:#D4AD8F}
    .fil24 {fill:#E0CFBF}
    .fil1 {fill:#1F1A17;fill-rule:nonzero}
    .fil16 {fill:#1D2C37;fill-opacity:0.650980}
    .fil28 {fill:#AB2B30;fill-opacity:0.749020}
   ]]>
  </style>
    <clipPath id="id0">
     <path d="M161.894 85.5883c-1.7629,0.8012 -2.3875,3.5016 -2.3875,7.3216 0,3.82 0,6.3667 0,6.3667l5.73 -2.865c0,0 0.3183,-3.396 0,-6.0751 -0.3183,-2.679 -1.5796,-5.5495 -3.3425,-4.7482z"/>
    </clipPath>
      <clipPath id="id1">
       <path d="M56.7035 136.531c0,0 6.5184,0.297 6.6385,-0.0504 0.1202,-0.3475 0.3297,-4.412 0.0859,-4.7527 -0.2438,-0.3407 -6.2953,-0.2523 -6.5528,0 -0.2575,0.2523 -0.6438,4.3491 -0.1716,4.8031zm15.307 1.4829c0,0 -6.5185,-0.2971 -6.6386,0.0504 -0.1202,0.3475 -0.3296,4.4119 -0.0858,4.7527 0.2439,0.3407 6.2952,0.2522 6.5527,0 0.2575,-0.2522 0.6439,-4.3492 0.1717,-4.8031zm-15.307 0c0,0 6.5184,-0.2971 6.6385,0.0503 0.1202,0.3474 0.3297,4.4122 0.0859,4.7528 -0.2438,0.3406 -6.2953,0.2522 -6.5528,0 -0.2575,-0.2522 -0.6438,-4.3492 -0.1716,-4.8031zm15.307 -1.483c0,0 -6.5185,0.2971 -6.6386,-0.0503 -0.1202,-0.3475 -0.3296,-4.4122 -0.0858,-4.7528 0.2439,-0.3406 6.2952,-0.2522 6.5527,0 0.2575,0.2522 0.6438,4.3492 0.1717,4.8031z"/>
      </clipPath>
      <clipPath id="id2">
       <path d="M119.225 136.531c0,0 6.5184,0.297 6.6385,-0.0504 0.1202,-0.3475 0.3297,-4.412 0.0859,-4.7527 -0.2438,-0.3407 -6.2953,-0.2523 -6.5528,0 -0.2575,0.2523 -0.6438,4.3491 -0.1716,4.8031zm15.307 1.4829c0,0 -6.5185,-0.2971 -6.6386,0.0504 -0.1201,0.3475 -0.3296,4.4119 -0.0858,4.7527 0.2439,0.3407 6.2952,0.2522 6.5527,0 0.2575,-0.2522 0.6439,-4.3492 0.1717,-4.8031zm-15.307 0c0,0 6.5184,-0.2971 6.6385,0.0503 0.1202,0.3474 0.3297,4.4122 0.0859,4.7528 -0.2438,0.3406 -6.2953,0.2522 -6.5528,0 -0.2575,-0.2522 -0.6438,-4.3492 -0.1716,-4.8031zm15.307 -1.483c0,0 -6.5185,0.2971 -6.6386,-0.0503 -0.1201,-0.3475 -0.3296,-4.4122 -0.0858,-4.7528 0.2439,-0.3406 6.2952,-0.2522 6.5527,0 0.2575,0.2522 0.6438,4.3492 0.1717,4.8031z"/>
      </clipPath>
 </defs>
 <g id="Capa_x0020_1">
  <metadata id="CorelCorpID_0Corel-Layer"/>
  <path class="fil0" d="M298.416 125c-55.4251,-2.2657 -78.7441,8.4385 -32.13,23.715 -2.9873,14.2887 40.5523,21.2668 68.7573,-0.6167 67.1433,1.4919 61.0988,-22.825 2.5751,-25.3058 0,0 -23.3019,-17.9488 -39.2024,2.2075z"/>
  <path class="fil1" d="M107.721 242.126c0,0.1778 -0.1185,0.3238 -0.3556,0.4381 -0.2371,0.1143 -0.5588,0.1715 -0.9652,0.1715 -1.0583,0 -1.9685,-0.3133 -2.7305,-0.9398 -0.8636,-0.7112 -1.2954,-1.6764 -1.2954,-2.8956 0,-1.0075 0.4572,-2.032 1.3716,-3.0734 0.8721,-0.9906 1.6679,-1.4859 2.3876,-1.4859 0.1778,0 0.309,0.0423 0.3937,0.127 0.0847,0.0847 0.127,0.1778 0.127,0.2794 -0.8213,0.6265 -1.5409,1.2785 -2.159,1.9558 -0.6773,0.7451 -1.016,1.5706 -1.016,2.4765 0,0.762 0.3641,1.3335 1.0922,1.7145 0.3387,0.1778 1.0202,0.3852 2.0447,0.6223 0.7366,0.1693 1.1049,0.3725 1.1049,0.6096zm4.7498 0.254c0,0.3302 -0.0317,0.5842 -0.0952,0.762 -0.0635,0.1778 -0.18,0.2667 -0.3493,0.2667 -0.2371,0 -0.453,-0.3598 -0.6477,-1.0795 -0.1101,-0.4657 -0.2159,-0.9356 -0.3175,-1.4097l-2.159 0c-0.1185,0.4572 -0.2371,0.9144 -0.3556,1.3716 -0.1609,0.5503 -0.3937,0.8255 -0.6985,0.8255 -0.1778,0 -0.2836,-0.0254 -0.3175,-0.0762 -0.0677,-0.1016 -0.1016,-0.2752 -0.1016,-0.5207 0,-0.2032 0.0148,-0.4339 0.0445,-0.6922 0.0296,-0.2582 0.1037,-0.6117 0.2222,-1.0604 0.1185,-0.4487 0.2371,-0.8911 0.3556,-1.3272 0.1185,-0.436 0.3471,-1.2551 0.6858,-2.4574 0.254,-0.8975 0.4022,-1.3716 0.4445,-1.4224 0.2371,-0.8297 0.5884,-1.2446 1.0541,-1.2446 0.2286,0 0.4614,0.182 0.6985,0.5461 0.2371,0.3641 0.4064,0.8255 0.508,1.3843 0.0339,0.0593 0.1164,0.4381 0.2477,1.1366 0.1312,0.6985 0.2518,1.3526 0.3619,1.9622 0.0593,0.3471 0.1185,0.6858 0.1778,1.016 0.0593,0.3302 0.1143,0.7112 0.1651,1.143 0.0508,0.4318 0.0762,0.7239 0.0762,0.8763zm-1.5621 -2.5527l-0.6604 -4.1021 -1.1303 4.1021 1.7907 0zm7.5184 0.889c0,0.7027 -0.2836,1.2721 -0.8509,1.7081 -0.5673,0.4361 -1.2658,0.6541 -2.0955,0.6541 -0.4572,0 -0.9271,-0.1228 -1.4097,-0.3683 -0.4826,-0.2455 -0.7239,-0.5122 -0.7239,-0.8001 0,-0.1185 0.0572,-0.2307 0.1715,-0.3366 0.1143,-0.1058 0.2434,-0.1587 0.3873,-0.1587 0.0508,0 0.3006,0.1037 0.7493,0.3111 0.4487,0.2075 0.7451,0.3112 0.889,0.3112 0.4572,0 0.8446,-0.1101 1.1621,-0.3302 0.3175,-0.2201 0.4762,-0.5249 0.4762,-0.9144 0,-0.4064 -0.3598,-0.7832 -1.0795,-1.1303 -0.6773,-0.3133 -1.3547,-0.6265 -2.032,-0.9398 -0.7281,-0.4233 -1.0922,-0.9144 -1.0922,-1.4732 0,-0.5927 0.3217,-1.1663 0.9652,-1.7209 0.6435,-0.5545 1.3504,-0.8318 2.1209,-0.8318 0.5419,0 0.889,0.0085 1.0414,0.0254 0.4826,0.0508 0.7239,0.2582 0.7239,0.6223 0,0.2625 -0.5884,0.4403 -1.7653,0.5334 -1.1769,0.0931 -1.7653,0.5292 -1.7653,1.3081 0,0.4149 0.3556,0.7451 1.0668,0.9906 1.2023,0.4064 1.8627,0.6435 1.9812,0.7112 0.7197,0.4064 1.0795,1.016 1.0795,1.8288zm5.5626 1.6637c0,0.3302 -0.0317,0.5842 -0.0952,0.762 -0.0635,0.1778 -0.18,0.2667 -0.3493,0.2667 -0.2371,0 -0.453,-0.3598 -0.6477,-1.0795 -0.1101,-0.4657 -0.2159,-0.9356 -0.3175,-1.4097l-2.159 0c-0.1185,0.4572 -0.2371,0.9144 -0.3556,1.3716 -0.1609,0.5503 -0.3937,0.8255 -0.6985,0.8255 -0.1778,0 -0.2836,-0.0254 -0.3175,-0.0762 -0.0677,-0.1016 -0.1016,-0.2752 -0.1016,-0.5207 0,-0.2032 0.0148,-0.4339 0.0445,-0.6922 0.0296,-0.2582 0.1037,-0.6117 0.2222,-1.0604 0.1185,-0.4487 0.2371,-0.8911 0.3556,-1.3272 0.1185,-0.436 0.3471,-1.2551 0.6858,-2.4574 0.254,-0.8975 0.4022,-1.3716 0.4445,-1.4224 0.2371,-0.8297 0.5884,-1.2446 1.0541,-1.2446 0.2286,0 0.4614,0.182 0.6985,0.5461 0.2371,0.3641 0.4064,0.8255 0.508,1.3843 0.0339,0.0593 0.1164,0.4381 0.2477,1.1366 0.1312,0.6985 0.2518,1.3526 0.3619,1.9622 0.0593,0.3471 0.1185,0.6858 0.1778,1.016 0.0593,0.3302 0.1143,0.7112 0.1651,1.143 0.0508,0.4318 0.0762,0.7239 0.0762,0.8763zm-1.5621 -2.5527l-0.6604 -4.1021 -1.1303 4.1021 1.7907 0z"/>
  <g id="_639653096">
   <path id="_639664832" class="fil2" d="M172.051 138.432c28.4654,1.4675 35.044,12.325 20.2204,12.6139 9.5792,7.3382 -10.2597,14.9452 -33.7505,11.6474 -142.203,21.4301 -136.204,-14.5879 -93.0196,-18.6219 0,0 -50.1911,0.6065 -36.8379,-6.2684 13.3532,-6.875 143.388,0.629 143.388,0.629z"/>
   <path id="_639664976" class="fil3" d="M177.181 142.983l-32.9712 18.2698c0,0 -0.6663,-29.566 0,-36.3188 0.6663,-6.7527 3.1689,-24.4317 3.1689,-24.4317l15.4005 -26.6258 14.0845 29.9264 0.3173 39.1801z"/>
   <path id="_639664568" class="fil4 str0" d="M183.604 103.161c0,0 -1.7128,-1.4273 -2.9974,-1.2846 -1.2846,0.1427 -1.9269,1.9269 -1.9269,1.9269l-1.816 0 -15.9542 -33.899 2.9048 -1.1861c0,0 4.1527,10.2055 10.2584,17.5426 6.1057,7.3371 9.5313,16.9002 9.5313,16.9002z"/>
   <path id="_639665288" class="fil5 str1" d="M47.4997 110.663c0,0 1.3649,24.3273 1.2222,30.0367 -0.1428,5.7093 0,19.7276 0,19.7276 31.8804,-0.2197 63.4908,1.567 95.4881,0.8259 0,0 -0.7137,-29.5323 0,-36.3188 0.7136,-6.7865 1.2624,-13.511 1.2624,-13.511l-97.9727 -0.7604z"/>
   <path id="_639665720" class="fil6 str0" d="M55.7256 69.1671c-1.3324,1.5543 -4.925,17.5427 -8.6999,25.0925 -3.7749,7.5498 -7.9939,22.752 -7.9939,22.752 0,0 1.1103,-3.1087 3.997,-2.6646 2.8866,0.4441 3.5528,4.441 3.5528,4.441 0,0 1.7764,-3.3308 4.6631,-3.3308 2.8867,0 3.3308,2.8867 3.3308,2.8867 2.124,0 55.7094,1.0626 58.844,1.0076 12.6569,-0.2217 20.4288,-1.3323 20.4288,-1.3323 0,0 0.3768,-3.7075 3.8523,-3.8522 3.4755,-0.1447 3.9196,4.7404 3.9196,4.7404 0,0 0.8208,-3.2634 3.8522,-3.8522 3.0314,-0.5888 3.6976,2.964 3.6976,2.964 0,0 6.6323,-17.2952 9.1436,-28.2007 2.5113,-10.9054 6.3493,-20.4741 5.4611,-21.1403 -0.8883,-0.6662 -14.0288,0.0453 -37.9654,0.2674 -23.9366,0.222 -48.3226,-2.4432 -70.0837,0.2215z"/>
   <path id="_639665144" class="fil7" d="M110.467 115.631c4.1466,-3.3045 6.2622,0.4957 6.2622,0.4957l2.031 -6.775c0,0 -3.5208,-1.4428 -4.89,-0.5136 -1.3692,0.9293 -3.4032,6.7929 -3.4032,6.7929z"/>
   <g>
    <path id="_639670040" class="fil8" d="M44.5198 106.718c4.1467,-3.3044 6.2623,0.4958 6.2623,0.4958l2.031 -6.7751c0,0 -3.5208,-1.4428 -4.89,-0.5135 -1.3693,0.9293 -3.4033,6.7928 -3.4033,6.7928z"/>
    <path id="_639646448" class="fil7" d="M49.1607 94.8086c4.1466,-3.3045 6.2622,0.4957 6.2622,0.4957l2.031 -6.775c0,0 -3.5208,-1.4428 -4.89,-0.5136 -1.3693,0.9293 -3.4032,6.7929 -3.4032,6.7929z"/>
    <path id="_639645392" class="fil9" d="M54.9393 100.723c4.1467,-3.3045 6.2623,0.4957 6.2623,0.4957l2.031 -6.7751c0,0 -3.5208,-1.4427 -4.8901,-0.5135 -1.3692,0.9293 -3.4032,6.7929 -3.4032,6.7929z"/>
    <path id="_639645128" class="fil8" d="M77.0719 94.6014c4.1466,-3.3045 6.2622,0.4957 6.2622,0.4957l2.031 -6.775c0,0 -3.5208,-1.4428 -4.89,-0.5135 -1.3692,0.9292 -3.4032,6.7928 -3.4032,6.7928z"/>
    <path id="_639645200" class="fil8" d="M62.5042 112.427c4.1466,-3.3044 6.2622,0.4958 6.2622,0.4958l2.031 -6.7751c0,0 -3.5208,-1.4427 -4.89,-0.5135 -1.3693,0.9293 -3.4032,6.7928 -3.4032,6.7928z"/>
    <path id="_639645536" class="fil9" d="M70.0795 83.2112c4.1467,-3.3045 6.2623,0.4957 6.2623,0.4957l2.031 -6.775c0,0 -3.5209,-1.4428 -4.8901,-0.5135 -1.3692,0.9292 -3.4032,6.7928 -3.4032,6.7928z"/>
    <path id="_639645608" class="fil7" d="M63.8621 103.658c4.1467,-3.3045 6.2623,0.4957 6.2623,0.4957l2.0309 -6.775c0,0 -3.5208,-1.4428 -4.89,-0.5135 -1.3692,0.9292 -3.4032,6.7928 -3.4032,6.7928z"/>
    <path id="_639645896" class="fil9" d="M73.2091 109.715c4.1466,-3.3045 6.2622,0.4957 6.2622,0.4957l2.031 -6.775c0,0 -3.5208,-1.4428 -4.89,-0.5135 -1.3692,0.9292 -3.4032,6.7928 -3.4032,6.7928z"/>
    <path id="_639645968" class="fil7" d="M89.6967 88.6711c4.1467,-3.3045 6.2623,0.4957 6.2623,0.4957l2.031 -6.775c0,0 -3.5209,-1.4428 -4.8901,-0.5136 -1.3692,0.9293 -3.4032,6.7929 -3.4032,6.7929z"/>
    <path id="_639646184" class="fil7" d="M97.6897 93.2385c4.1467,-3.3045 6.2623,0.4957 6.2623,0.4957l2.031 -6.775c0,0 -3.5208,-1.4428 -4.8901,-0.5135 -1.3692,0.9292 -3.4032,6.7928 -3.4032,6.7928z"/>
    <path id="_639646328" class="fil8" d="M86.1978 100.866c4.1466,-3.3045 6.2622,0.4957 6.2622,0.4957l2.031 -6.775c0,0 -3.5208,-1.4428 -4.89,-0.5135 -1.3692,0.9292 -3.4032,6.7928 -3.4032,6.7928z"/>
    <path id="_639646064" class="fil8" d="M93.9908 110.344c4.1467,-3.3045 6.2623,0.4957 6.2623,0.4957l2.031 -6.7751c0,0 -3.5208,-1.4427 -4.8901,-0.5135 -1.3692,0.9293 -3.4032,6.7929 -3.4032,6.7929z"/>
    <path id="_639647768" class="fil9" d="M103.897 101.437c4.1467,-3.3044 6.2623,0.4958 6.2623,0.4958l2.0309 -6.7751c0,0 -3.5208,-1.4428 -4.89,-0.5135 -1.3692,0.9292 -3.4032,6.7928 -3.4032,6.7928z"/>
    <path id="_639646592" class="fil7" d="M102.055 113.731c4.1466,-3.3045 6.2622,0.4957 6.2622,0.4957l2.031 -6.775c0,0 -3.5208,-1.4428 -4.89,-0.5136 -1.3693,0.9293 -3.4032,6.7929 -3.4032,6.7929z"/>
    <path id="_639646664" class="fil7" d="M123.023 108.146c4.1466,-3.3045 6.2622,0.4957 6.2622,0.4957l2.031 -6.7751c0,0 -3.5208,-1.4427 -4.89,-0.5135 -1.3692,0.9293 -3.4032,6.7929 -3.4032,6.7929z"/>
    <path id="_639646904" class="fil8" d="M113.745 104.577c4.1466,-3.3044 6.2622,0.4958 6.2622,0.4958l2.031 -6.7751c0,0 -3.5208,-1.4427 -4.89,-0.5135 -1.3693,0.9293 -3.4032,6.7928 -3.4032,6.7928z"/>
    <path id="_639646976" class="fil8" d="M100.186 81.7399c4.1466,-3.3044 6.2622,0.4958 6.2622,0.4958l2.031 -6.7751c0,0 -3.5208,-1.4428 -4.89,-0.5135 -1.3693,0.9292 -3.4032,6.7928 -3.4032,6.7928z"/>
    <path id="_639646784" class="fil7" d="M59.0786 88.5911c4.1466,-3.3045 6.2622,0.4957 6.2622,0.4957l2.031 -6.775c0,0 -3.5208,-1.4428 -4.89,-0.5135 -1.3692,0.9292 -3.4032,6.7928 -3.4032,6.7928z"/>
    <path id="_639647120" class="fil8" d="M53.512 80.1699c4.1466,-3.3045 6.2622,0.4957 6.2622,0.4957l2.031 -6.775c0,0 -3.5208,-1.4428 -4.89,-0.5136 -1.3692,0.9293 -3.4032,6.7929 -3.4032,6.7929z"/>
    <path id="_639647408" class="fil9" d="M116.305 95.9133c4.1466,-3.3045 6.2622,0.4957 6.2622,0.4957l2.031 -6.775c0,0 -3.5208,-1.4428 -4.89,-0.5135 -1.3693,0.9292 -3.4032,6.7928 -3.4032,6.7928z"/>
    <path id="_639647528" class="fil9" d="M132.434 110.9c4.1467,-3.3044 6.2623,0.4958 6.2623,0.4958l2.031 -6.7751c0,0 -3.5208,-1.4428 -4.8901,-0.5135 -1.3692,0.9293 -3.4032,6.7928 -3.4032,6.7928z"/>
    <path id="_639647720" class="fil8" d="M136.051 101.602c4.1467,-3.3045 6.2622,0.4957 6.2622,0.4957l2.031 -6.775c0,0 -3.5208,-1.4428 -4.89,-0.5136 -1.3692,0.9293 -3.4032,6.7929 -3.4032,6.7929z"/>
    <path id="_639647072" class="fil7" d="M140.29 87.7684c4.1467,-3.3045 6.2623,0.4957 6.2623,0.4957l2.031 -6.775c0,0 -3.5208,-1.4428 -4.89,-0.5135 -1.3693,0.9292 -3.4033,6.7928 -3.4033,6.7928z"/>
    <path id="_639647912" class="fil9" d="M143.513 105.171c4.1466,-3.3045 6.2622,0.4957 6.2622,0.4957l2.031 -6.775c0,0 -3.5208,-1.4428 -4.89,-0.5135 -1.3692,0.9292 -3.4032,6.7928 -3.4032,6.7928z"/>
    <path id="_639647984" class="fil9" d="M128.645 87.5576c4.1466,-3.3045 6.2622,0.4957 6.2622,0.4957l2.031 -6.775c0,0 -3.5208,-1.4428 -4.89,-0.5135 -1.3692,0.9292 -3.4032,6.7928 -3.4032,6.7928z"/>
    <path id="_639648320" class="fil7" d="M120.168 83.0245c4.1467,-3.3045 6.2623,0.4957 6.2623,0.4957l2.031 -6.775c0,0 -3.5208,-1.4428 -4.8901,-0.5135 -1.3692,0.9292 -3.4032,6.7928 -3.4032,6.7928z"/>
    <path id="_639648392" class="fil8" d="M146.574 93.7295c4.1466,-3.3045 6.2622,0.4957 6.2622,0.4957l2.031 -6.775c0,0 -3.5208,-1.4428 -4.89,-0.5136 -1.3693,0.9293 -3.4032,6.7929 -3.4032,6.7929z"/>
   </g>
   <path id="_639648776" class="fil10" d="M161.894 85.5883c-1.7629,0.8012 -2.3875,3.5016 -2.3875,7.3216 0,3.82 0,6.3667 0,6.3667l5.73 -2.865c0,0 0.3183,-3.396 0,-6.0751 -0.3183,-2.679 -1.5796,-5.5495 -3.3425,-4.7482z"/>
   <g style="clip-path:url(#id0)">
    <g>
     <polygon id="_6396748881" class="fil11" points="159.507,96.5865 159.507,99.2766 165.237,96.4116 162.112,95.284 "/>
    </g>
   </g>
   <path class="fil12 str2" d="M161.894 85.5883c-1.7629,0.8012 -2.3875,3.5016 -2.3875,7.3216 0,3.82 0,6.3667 0,6.3667l5.73 -2.865c0,0 0.3183,-3.396 0,-6.0751 -0.3183,-2.679 -1.5796,-5.5495 -3.3425,-4.7482z"/>
   <path id="_639648560" class="fil13" d="M161.243 86.0141c-1.2679,1.1239 -1.7357,3.5907 -1.7357,6.8958l0 3.6766 2.6051 -1.3025c0,0 0.3184,-3.3959 0,-6.0751 -0.1338,-1.127 -0.4346,-2.2877 -0.8694,-3.1948z"/>
   <path id="_639648656" class="fil14 str3" d="M107.459 146.101c-0.0025,-3.0453 -0.0193,-5.7874 -0.0626,-7.3684 -0.1383,-5.0481 -0.2011,-9.9212 -0.204,-10.1554l-0.0001 -0.006 0 -0.0012 -0.0001 -0.0024c0,0 -20.4838,0 -20.4838,0l0.0006 0.0383 0 0.0013 0.0001 0.049 0 0.0048 -0.0004 0.057c-0.0098,1.405 -0.27,10.5255 -0.2916,17.5777 0.0264,7.2195 0.4283,13.0878 0.4283,13.0878l20.551 0.4425c0,0 0.0577,-7.1859 0.0626,-13.725z"/>
   <path id="_639648872" class="fil11" d="M75.3493 123.083c1.9899,-0.3781 4.5156,-0.5772 4.1023,1.8692 3.4285,-0.7274 5.9939,-0.7239 5.8694,0.8845l27.239 0c-0.0769,-1.9598 4.5781,-1.9355 5.9665,-1.9355 0,0 -2.5636,-0.5471 -2.0441,-2.0109 0,0 -39.849,-0.0913 -39.849,-0.0913l-1.2841 1.284z"/>
   <path id="_639648944" class="fil15" d="M88.4845 131.193c0,0 -0.403,10.9777 0.0684,11.2054 0.4714,0.2277 16.2334,0.6248 16.6956,0.1627 0.4622,-0.4622 0.3421,-10.5546 0,-11.0427 -0.3421,-0.4881 -16.1482,-1.2202 -16.764,-0.3254z"/>
   <path id="_639647792" class="fil15" d="M105.391 157.2c0,0 0.4029,-10.9776 -0.0685,-11.2053 -0.4714,-0.2278 -16.2334,-0.6249 -16.6955,-0.1627 -0.4622,0.4621 -0.3422,10.5546 0,11.0426 0.3421,0.4881 16.1481,1.2202 16.764,0.3254z"/>
   <g>
    <path id="_639650504" class="fil16" d="M103.616 132.286c0,0 -0.2737,2.3072 -0.4105,4.552 -0.1369,2.2448 0.097,4.3432 0.097,4.3432 0,0 1.0662,-6.0268 0.3135,-8.8952z"/>
    <path id="_639649328" class="fil16" d="M90.3655 141.112c0,0 0.1567,-2.0973 0.1915,-4.1379 0.0348,-2.0406 -0.2615,-3.9481 -0.2615,-3.9481 0,0 -0.7287,5.4786 0.07,8.086z"/>
    <path id="_639649400" class="fil16" d="M100.748 141.076c0,0 0.1199,-1.604 0.1465,-3.1647 0.0266,-1.5606 -0.2,-3.0195 -0.2,-3.0195 0,0 -0.5573,4.19 0.0535,6.1842z"/>
    <path id="_639649640" class="fil16" d="M93.1669 133.251c0,0 -0.1134,1.5181 -0.1386,2.9952 -0.0252,1.477 0.1893,2.8578 0.1893,2.8578 0,0 0.5275,-3.9656 -0.0507,-5.853z"/>
    <path id="_639649712" class="fil16" d="M96.9925 131.602c0,0 -0.218,1.8377 -0.327,3.6257 -0.109,1.788 0.0773,3.4595 0.0773,3.4595 0,0 0.8492,-4.8005 0.2497,-7.0852z"/>
    <path id="_639649496" class="fil16" d="M98.481 139.009c0,0 -0.0995,0.7608 -0.1216,1.5011 -0.0222,0.7402 0.1661,1.4322 0.1661,1.4322 0,0 0.4629,-1.9874 -0.0445,-2.9333z"/>
   </g>
   <g>
    <path id="_639649880" class="fil16" d="M90.068 152.866c0,0 0.1199,-1.604 0.1465,-3.1646 0.0266,-1.5607 -0.2001,-3.0196 -0.2001,-3.0196 0,0 -0.5572,4.19 0.0536,6.1842z"/>
    <path id="_639649952" class="fil16" d="M92.485 149.474c0,0 -0.218,1.8377 -0.327,3.6257 -0.109,1.788 0.0772,3.4594 0.0772,3.4594 0,0 0.8493,-4.8004 0.2498,-7.0851z"/>
    <path id="_639650288" class="fil16" d="M95.2937 154.818c0,0 0.1567,-2.0973 0.1916,-4.1379 0.0348,-2.0406 -0.2616,-3.9481 -0.2616,-3.9481 0,0 -0.7286,5.4786 0.07,8.086z"/>
    <path id="_639650360" class="fil16" d="M98.0651 149.607c0,0 -0.1134,1.5181 -0.1386,2.9952 -0.0252,1.477 0.1893,2.8578 0.1893,2.8578 0,0 0.5274,-3.9656 -0.0507,-5.853z"/>
    <path id="_639651200" class="fil16" d="M103.825 147.652c0,0 -0.2737,2.3071 -0.4105,4.5519 -0.1369,2.2448 0.097,4.3433 0.097,4.3433 0,0 1.0662,-6.0269 0.3135,-8.8952z"/>
    <path id="_639650576" class="fil16" d="M100.664 147.065c0,0 -0.0996,0.7608 -0.1217,1.501 -0.0221,0.7402 0.1662,1.4322 0.1662,1.4322 0,0 0.4628,-1.9874 -0.0445,-2.9332z"/>
   </g>
   <g>
    <path id="_639650672" class="fil17" d="M106.736 144.533c-0.0001,-0.2352 -0.001,-0.447 -0.0033,-0.5691 -0.0074,-0.3899 -0.0107,-0.7663 -0.0108,-0.7843l-0.0001 -0.0005 0 -0.0001 0 -0.0002c0,0 -1.0857,0 -1.0857,0l0 0.003 0 0.0001 0 0.0037 0 0.0004 0 0.0044c-0.0005,0.1085 -0.0143,0.813 -0.0154,1.3577 0.0014,0.5576 0.0227,1.0109 0.0227,1.0109l1.0893 0.0341c0,0 0.003,-0.555 0.0033,-1.0601z"/>
    <circle id="_639650888" class="fil18" cx="105.901" cy="144.176" r="0.670583"/>
    <g>
     <path id="_639651032" class="fil17" d="M106.153 143.794c0.1456,0.0889 0.2427,0.2493 0.2427,0.4324 0,0.2795 -0.2267,0.5063 -0.5063,0.5063 -0.2284,0 -0.4215,-0.1514 -0.4845,-0.3592 0.0767,0.0469 0.167,0.0739 0.2635,0.0739 0.2796,0 0.5063,-0.2267 0.5063,-0.5063 0,-0.0512 -0.0076,-0.1005 -0.0217,-0.1471z"/>
     <path id="_639651344" class="fil5" d="M105.799 143.62c0.0963,0 0.1845,0.0344 0.2532,0.0915 -0.0312,-0.004 -0.063,-0.006 -0.0953,-0.006 -0.2155,0 -0.4098,0.0905 -0.5471,0.2356 0.0352,-0.1829 0.196,-0.3211 0.3892,-0.3211z"/>
    </g>
    <path id="_639651464" class="fil19" d="M106.197 145.202c0.0014,0.0166 0.0021,0.0344 0.0021,0.053 0,0.0907 -0.0177,0.1642 -0.0394,0.1642 -0.0218,0 -0.0394,-0.0735 -0.0394,-0.1642 0,-0.0186 0.0007,-0.0364 0.0021,-0.053 -0.0465,-0.0156 -0.0801,-0.0595 -0.0801,-0.1113 0,-0.0648 0.0526,-0.1173 0.1174,-0.1173 0.0648,0 0.1173,0.0525 0.1173,0.1173 0,0.0518 -0.0335,0.0957 -0.08,0.1113z"/>
   </g>
   <g>
    <g>
     <path id="_639651608" class="fil14 str3" d="M63.1711 144.466c1.8965,-0.0017 3.6042,-0.0133 4.5888,-0.0429 3.1438,-0.0945 6.1786,-0.1374 6.3244,-0.1394l0.0038 -0.0001 0.0007 0 0.0015 -0.0001c0,0 0,-14.0052 0,-14.0052l-0.0239 0.0004 -0.0007 0 -0.0306 0.0001 -0.003 0 -0.0355 -0.0003c-0.8749,-0.0067 -6.5549,-0.1846 -10.9467,-0.1994 -4.4961,0.0181 -8.1507,0.2929 -8.1507,0.2929l-0.2755 14.0511c0,0 4.4751,0.0395 8.5474,0.0429z"/>
     <path id="_639651680" class="fil20" d="M56.7035 136.531c0,0 6.5184,0.297 6.6385,-0.0504 0.1202,-0.3475 0.3297,-4.412 0.0859,-4.7527 -0.2438,-0.3407 -6.2953,-0.2523 -6.5528,0 -0.2575,0.2523 -0.6438,4.3491 -0.1716,4.8031zm15.307 1.4829c0,0 -6.5185,-0.2971 -6.6386,0.0504 -0.1202,0.3475 -0.3296,4.4119 -0.0858,4.7527 0.2439,0.3407 6.2952,0.2522 6.5527,0 0.2575,-0.2522 0.6439,-4.3492 0.1717,-4.8031zm-15.307 0c0,0 6.5184,-0.2971 6.6385,0.0503 0.1202,0.3474 0.3297,4.4122 0.0859,4.7528 -0.2438,0.3406 -6.2953,0.2522 -6.5528,0 -0.2575,-0.2522 -0.6438,-4.3492 -0.1716,-4.8031zm15.307 -1.483c0,0 -6.5185,0.2971 -6.6386,-0.0503 -0.1202,-0.3475 -0.3296,-4.4122 -0.0858,-4.7528 0.2439,-0.3406 6.2952,-0.2522 6.5527,0 0.2575,0.2522 0.6438,4.3492 0.1717,4.8031z"/>
     <g style="clip-path:url(#id1)">
      <g>
       <path id="_6396752001" class="fil5" d="M73.3261 126.97l0.914 0.5277 -5.7674 9.9895 -0.9141 -0.5277 5.7675 -9.9895zm3.097 0l0.914 0.5277 -5.7674 9.9895 -0.9141 -0.5277 5.7675 -9.9895z"/>
       <path id="_639674984" class="fil5" d="M57.7127 137.49l0.9141 0.5278 -5.7675 9.9895 -0.9141 -0.5277 5.7675 -9.9896zm3.097 0l0.914 0.5278 -5.7674 9.9895 -0.9141 -0.5277 5.7675 -9.9896z"/>
       <path id="_639675968" class="fil5" d="M63.0099 126.915l0.914 0.5278 -5.7674 9.9895 -0.9141 -0.5277 5.7675 -9.9896zm3.097 0l0.914 0.5278 -5.7674 9.9895 -0.9141 -0.5277 5.7675 -9.9896z"/>
       <path id="_639675344" class="fil5" d="M67.2557 137.295l0.9141 0.5277 -5.7674 9.9896 -0.9141 -0.5278 5.7674 -9.9895zm3.097 0l0.9141 0.5277 -5.7674 9.9896 -0.9142 -0.5278 5.7675 -9.9895z"/>
      </g>
     </g>
     <path class="fil12" d="M56.7035 136.531c0,0 6.5184,0.297 6.6385,-0.0504 0.1202,-0.3475 0.3297,-4.412 0.0859,-4.7527 -0.2438,-0.3407 -6.2953,-0.2523 -6.5528,0 -0.2575,0.2523 -0.6438,4.3491 -0.1716,4.8031zm15.307 1.4829c0,0 -6.5185,-0.2971 -6.6386,0.0504 -0.1202,0.3475 -0.3296,4.4119 -0.0858,4.7527 0.2439,0.3407 6.2952,0.2522 6.5527,0 0.2575,-0.2522 0.6439,-4.3492 0.1717,-4.8031zm-15.307 0c0,0 6.5184,-0.2971 6.6385,0.0503 0.1202,0.3474 0.3297,4.4122 0.0859,4.7528 -0.2438,0.3406 -6.2953,0.2522 -6.5528,0 -0.2575,-0.2522 -0.6438,-4.3492 -0.1716,-4.8031zm15.307 -1.483c0,0 -6.5185,0.2971 -6.6386,-0.0503 -0.1202,-0.3475 -0.3296,-4.4122 -0.0858,-4.7528 0.2439,-0.3406 6.2952,-0.2522 6.5527,0 0.2575,0.2522 0.6438,4.3492 0.1717,4.8031z"/>
    </g>
    <g>
     <path id="_639653216" class="fil14 str3" d="M125.693 144.466c1.8964,-0.0017 3.6041,-0.0133 4.5887,-0.0429 3.1438,-0.0945 6.1786,-0.1374 6.3244,-0.1394l0.0038 -0.0001 0.0007 0 0.0015 -0.0001c0,0 0,-14.0052 0,-14.0052l-0.0239 0.0004 -0.0007 0 -0.0306 0.0001 -0.0029 0 -0.0356 -0.0003c-0.8749,-0.0067 -6.5548,-0.1846 -10.9467,-0.1994 -4.4961,0.0181 -8.1507,0.2929 -8.1507,0.2929l-0.2755 14.0511c0,0 4.4751,0.0395 8.5475,0.0429z"/>
     <path id="_639652064" class="fil20" d="M119.225 136.531c0,0 6.5184,0.297 6.6385,-0.0504 0.1202,-0.3475 0.3297,-4.412 0.0859,-4.7527 -0.2438,-0.3407 -6.2953,-0.2523 -6.5528,0 -0.2575,0.2523 -0.6438,4.3491 -0.1716,4.8031zm15.307 1.4829c0,0 -6.5185,-0.2971 -6.6386,0.0504 -0.1201,0.3475 -0.3296,4.4119 -0.0858,4.7527 0.2439,0.3407 6.2952,0.2522 6.5527,0 0.2575,-0.2522 0.6439,-4.3492 0.1717,-4.8031zm-15.307 0c0,0 6.5184,-0.2971 6.6385,0.0503 0.1202,0.3474 0.3297,4.4122 0.0859,4.7528 -0.2438,0.3406 -6.2953,0.2522 -6.5528,0 -0.2575,-0.2522 -0.6438,-4.3492 -0.1716,-4.8031zm15.307 -1.483c0,0 -6.5185,0.2971 -6.6386,-0.0503 -0.1201,-0.3475 -0.3296,-4.4122 -0.0858,-4.7528 0.2439,-0.3406 6.2952,-0.2522 6.5527,0 0.2575,0.2522 0.6438,4.3492 0.1717,4.8031z"/>
     <g style="clip-path:url(#id2)">
      <g>
       <path id="_6396756321" class="fil5" d="M135.848 126.97l0.914 0.5277 -5.7674 9.9895 -0.9141 -0.5277 5.7675 -9.9895zm3.097 0l0.914 0.5277 -5.7674 9.9895 -0.9141 -0.5277 5.7675 -9.9895z"/>
       <path id="_639675920" class="fil5" d="M120.234 137.49l0.9141 0.5278 -5.7675 9.9895 -0.9141 -0.5277 5.7675 -9.9896zm3.097 0l0.9141 0.5278 -5.7675 9.9895 -0.9141 -0.5277 5.7675 -9.9896z"/>
       <path id="_639676280" class="fil5" d="M125.531 126.915l0.914 0.5278 -5.7674 9.9895 -0.9141 -0.5277 5.7675 -9.9896zm3.097 0l0.914 0.5278 -5.7674 9.9895 -0.9141 -0.5277 5.7675 -9.9896z"/>
       <path id="_639676064" class="fil5" d="M129.777 137.295l0.914 0.5277 -5.7674 9.9896 -0.9141 -0.5278 5.7675 -9.9895zm3.0969 0l0.9141 0.5277 -5.7674 9.9896 -0.9141 -0.5278 5.7674 -9.9895z"/>
      </g>
     </g>
     <path class="fil12" d="M119.225 136.531c0,0 6.5184,0.297 6.6385,-0.0504 0.1202,-0.3475 0.3297,-4.412 0.0859,-4.7527 -0.2438,-0.3407 -6.2953,-0.2523 -6.5528,0 -0.2575,0.2523 -0.6438,4.3491 -0.1716,4.8031zm15.307 1.4829c0,0 -6.5185,-0.2971 -6.6386,0.0504 -0.1201,0.3475 -0.3296,4.4119 -0.0858,4.7527 0.2439,0.3407 6.2952,0.2522 6.5527,0 0.2575,-0.2522 0.6439,-4.3492 0.1717,-4.8031zm-15.307 0c0,0 6.5184,-0.2971 6.6385,0.0503 0.1202,0.3474 0.3297,4.4122 0.0859,4.7528 -0.2438,0.3406 -6.2953,0.2522 -6.5528,0 -0.2575,-0.2522 -0.6438,-4.3492 -0.1716,-4.8031zm15.307 -1.483c0,0 -6.5185,0.2971 -6.6386,-0.0503 -0.1201,-0.3475 -0.3296,-4.4122 -0.0858,-4.7528 0.2439,-0.3406 6.2952,-0.2522 6.5527,0 0.2575,0.2522 0.6438,4.3492 0.1717,4.8031z"/>
    </g>
   </g>
   <g>
    <path id="_639652088" class="fil3" d="M81.3244 123.219c0,0 1.0427,-0.6516 5.4738,-0.5213 4.4311,0.1304 7.168,0.5213 7.168,0.5213l-12.6418 0z"/>
    <path id="_639652304" class="fil3" d="M112.551 124.353c0,0 -0.8541,0.5339 -4.4844,0.4271 -3.6302,-0.1068 -5.8725,-0.4271 -5.8725,-0.4271l10.3569 0z"/>
    <path id="_639652400" class="fil3" d="M97.2124 123.353c0,0 0.5948,-0.3717 3.1225,-0.2974 2.5277,0.0744 4.0889,0.2974 4.0889,0.2974l-7.2114 0z"/>
    <path id="_639652664" class="fil3" d="M94.4694 124.744c0,0 -0.4328,0.2541 -2.2725,0.2033 -1.8396,-0.0508 -2.9759,-0.2033 -2.9759,-0.2033l5.2484 0z"/>
   </g>
   <path id="_639652760" class="fil21" d="M164.547 155.505c0,0 0.8778,-1.1102 7.816,-1.0201 6.9381,0.0902 12.4875,3.4783 12.4875,3.4783 0,0 -14.4284,-3.4708 -20.3035,-2.4582z"/>
   <polygon id="_639653000" class="fil22" points="60.3918,155.864 57.2142,159.286 55.5031,152.442 54.0365,156.842 51.7144,152.075 53.3032,162.464 57.8298,162.464 "/>
   <polygon id="_639653168" class="fil22" points="169.974,140.911 173.152,144.334 174.863,137.489 176.329,141.889 178.651,137.123 177.063,147.511 172.536,147.511 "/>
  </g>
  <path class="fil1" d="M304.304 241.7c0,0.1778 -0.1185,0.3238 -0.3556,0.4381 -0.2371,0.1143 -0.5588,0.1715 -0.9652,0.1715 -1.0583,0 -1.9685,-0.3133 -2.7305,-0.9398 -0.8636,-0.7112 -1.2954,-1.6764 -1.2954,-2.8956 0,-1.0075 0.4572,-2.032 1.3716,-3.0734 0.8721,-0.9906 1.6679,-1.4859 2.3876,-1.4859 0.1778,0 0.309,0.0423 0.3937,0.127 0.0847,0.0847 0.127,0.1778 0.127,0.2794 -0.8213,0.6265 -1.5409,1.2785 -2.159,1.9558 -0.6773,0.7451 -1.016,1.5706 -1.016,2.4765 0,0.762 0.3641,1.3335 1.0922,1.7145 0.3387,0.1778 1.0202,0.3852 2.0447,0.6223 0.7366,0.1693 1.1049,0.3725 1.1049,0.6096zm5.3975 -2.5908c0,1.143 -0.2159,2.087 -0.6477,2.8321 -0.4657,0.8043 -1.0964,1.2065 -1.8923,1.2065 -0.9059,0 -1.6214,-0.436 -2.1463,-1.3081 -0.5249,-0.8721 -0.7874,-1.9685 -0.7874,-3.2893 0,-1.1938 0.2138,-2.1929 0.6414,-2.9972 0.4275,-0.8043 1.0054,-1.2065 1.7335,-1.2065 0.9398,0 1.6976,0.4699 2.2733,1.4097 0.5503,0.8975 0.8255,2.0151 0.8255,3.3528zm-1.0668 -0.0127c0,-1.0414 -0.1609,-1.9008 -0.4826,-2.5781 -0.3471,-0.7281 -0.8213,-1.0922 -1.4224,-1.0922 -0.3979,0 -0.726,0.3048 -0.9842,0.9144 -0.2583,0.6096 -0.3874,1.3674 -0.3874,2.2733 0,1.0245 0.1566,1.8542 0.4699,2.4892 0.3556,0.7197 0.8467,1.0795 1.4732,1.0795 0.381,0 0.6985,-0.2942 0.9525,-0.8827 0.254,-0.5884 0.381,-1.3229 0.381,-2.2034zm10.1219 3.0861c0,0.1524 -0.0339,0.254 -0.1016,0.3048 -0.0677,0.0508 -0.1609,0.0762 -0.2794,0.0762 -0.2625,0 -0.5334,-0.2752 -0.8128,-0.8255 -0.2032,-0.3979 -0.4572,-1.071 -0.762,-2.0193 -0.2625,-0.8128 -0.5207,-1.6256 -0.7747,-2.4384 -0.3471,1.3377 -0.6943,2.6755 -1.0414,4.0132 -0.381,1.1091 -0.7239,1.6637 -1.0287,1.6637 -0.2371,0 -0.4868,-0.2752 -0.7493,-0.8255 -0.2032,-0.4233 -0.4445,-1.0795 -0.7239,-1.9685 -0.2286,-0.7451 -0.453,-1.4944 -0.6731,-2.2479 -0.1101,0.6181 -0.2222,1.4668 -0.3365,2.5463 -0.1143,1.0795 -0.2223,1.7886 -0.3239,2.1273 -0.1524,0.4995 -0.3852,0.7493 -0.6985,0.7493 -0.0762,0 -0.1376,-0.0529 -0.1841,-0.1587 -0.0466,-0.1059 -0.0699,-0.2985 -0.0699,-0.5779 0,-0.6435 0.1355,-1.6425 0.4064,-2.9972 0.0593,-0.4487 0.1164,-1.2594 0.1715,-2.4321 0.055,-1.1726 0.1248,-1.9536 0.2095,-2.3431 0.1355,-0.5927 0.3725,-0.8678 0.7112,-0.8255 0.2455,0.0339 0.4784,0.5334 0.6985,1.4986 0.2201,0.9652 0.436,1.9473 0.6477,2.9464 0.2879,1.27 0.5927,2.1971 0.9144,2.7813 0.4826,-1.3377 0.8424,-2.7009 1.0795,-4.0894 0.1185,-0.7789 0.2413,-1.5579 0.3683,-2.3368 0.1101,-0.4911 0.3387,-0.7366 0.6858,-0.7366 0.1947,0 0.4149,0.3598 0.6604,1.0795 0.1947,0.5842 0.3725,1.2488 0.5334,1.9939 0.0677,0.3641 0.1355,0.7281 0.2032,1.0922 0.2879,0.8297 0.4995,1.4563 0.635,1.8796 0.4233,1.27 0.635,1.96 0.635,2.0701zm1.5113 -0.4699c0,0.6943 -0.0423,1.198 -0.1249,1.5113 -0.1058,0.4064 -0.2921,0.6096 -0.5567,0.6096 -0.1418,0 -0.2434,-0.1714 -0.3048,-0.5143 -0.0613,-0.343 -0.0931,-0.8192 -0.0931,-1.4288l-0.1651 -5.6642c0,-0.3895 0.0445,-0.69 0.1334,-0.9017 0.0889,-0.2117 0.2561,-0.3175 0.5016,-0.3175 0.2371,0 0.3979,0.2074 0.4826,0.6223 0.0847,0.4149 0.127,1.1261 0.127,2.1336l0 3.9497zm5.4483 -4.6228c0,1.0499 -0.3895,2.2627 -1.1684,3.6385 -0.7789,1.3759 -1.4351,2.0638 -1.9685,2.0638 -0.4233,0 -0.7197,-0.5165 -0.889,-1.5494 -0.1693,-1.0329 -0.254,-2.6501 -0.254,-4.8514l0 -1.6637c0.6011,-0.2879 1.198,-0.4318 1.7907,-0.4318 0.7535,0 1.3462,0.2244 1.778,0.6731 0.4741,0.4911 0.7112,1.198 0.7112,2.1209zm-1.0795 0.1143c0,-0.5842 -0.0677,-1.0118 -0.2032,-1.2827 -0.1778,-0.3556 -0.4911,-0.5334 -0.9398,-0.5334 -0.2794,0 -0.58,0.0804 -0.9017,0.2413 0,1.6002 0.0169,2.9337 0.0508,4.0005 0.0339,1.0668 0.072,1.6002 0.1143,1.6002 0.7705,-1.0922 1.2764,-1.8881 1.5177,-2.3876 0.2413,-0.4995 0.3619,-1.0456 0.3619,-1.6383zm6.4262 4.7498c0,0.3302 -0.0317,0.5842 -0.0952,0.762 -0.0635,0.1778 -0.18,0.2667 -0.3493,0.2667 -0.2371,0 -0.453,-0.3598 -0.6477,-1.0795 -0.1101,-0.4657 -0.2159,-0.9356 -0.3175,-1.4097l-2.159 0c-0.1185,0.4572 -0.2371,0.9144 -0.3556,1.3716 -0.1609,0.5503 -0.3937,0.8255 -0.6985,0.8255 -0.1778,0 -0.2836,-0.0254 -0.3175,-0.0762 -0.0677,-0.1016 -0.1016,-0.2752 -0.1016,-0.5207 0,-0.2032 0.0148,-0.4339 0.0445,-0.6922 0.0296,-0.2582 0.1037,-0.6117 0.2222,-1.0604 0.1185,-0.4487 0.2371,-0.8911 0.3556,-1.3272 0.1185,-0.436 0.3471,-1.2551 0.6858,-2.4574 0.254,-0.8975 0.4022,-1.3716 0.4445,-1.4224 0.2371,-0.8297 0.5884,-1.2446 1.0541,-1.2446 0.2286,0 0.4614,0.182 0.6985,0.5461 0.2371,0.3641 0.4064,0.8255 0.508,1.3843 0.0339,0.0593 0.1164,0.4381 0.2477,1.1366 0.1312,0.6985 0.2518,1.3526 0.3619,1.9622 0.0593,0.3471 0.1185,0.6858 0.1778,1.016 0.0593,0.3302 0.1143,0.7112 0.1651,1.143 0.0508,0.4318 0.0762,0.7239 0.0762,0.8763zm-1.5621 -2.5527l-0.6604 -4.1021 -1.1303 4.1021 1.7907 0z"/>
  <g id="_639657656">
   <path id="_639653312" class="fil23 str4" d="M278.078 139.486c-0.837,7.4236 21.5836,11.3461 36.9324,11.3461 15.3488,0 37.7694,-3.9225 36.9324,-11.3461 -0.8685,-7.7041 -72.9963,-7.7041 -73.8648,0z"/>
   <path id="_639653480" class="fil24 str4" d="M259.487 133.234c-1.2582,7.4236 32.4486,11.3461 55.5236,11.3461 23.075,0 56.7818,-3.9225 55.5236,-11.3461 -1.3057,-7.7041 -109.741,-7.7041 -111.047,0z"/>
   <path id="_639653600" class="fil25" d="M315.01 141.455c4.7402,0 37.5706,0.5678 36.9325,-5.0946 -0.8686,-7.7041 -72.9964,-7.7041 -73.865,0 -0.6381,5.6624 32.1923,5.0946 36.9325,5.0946z"/>
   <g>
    <path id="_639653888" class="fil5" d="M359.096 131.524c0,0 6.3732,0.1692 6.8244,2.5944 0.4512,2.4252 -7.5012,4.0044 -7.5012,4.0044 0,0 8.0088,-4.6812 0.6768,-6.5988z"/>
    <path id="_639654248" class="fil5" d="M270.925 131.524c0,0 -6.3732,0.1692 -6.8244,2.5944 -0.4512,2.4252 7.5012,4.0044 7.5012,4.0044 0,0 -8.0088,-4.6812 -0.6768,-6.5988z"/>
   </g>
   <path id="_639654176" class="fil26" d="M298.221 146.615c0,0 13.072,1.0944 25.1104,0.1824 12.0384,-0.912 17.3888,-2.3104 17.3888,-2.3104 0,0 -9.1808,7.9648 -42.4992,2.128z"/>
   <g>
    <path id="_639654392" class="fil27" d="M292.143 108.385c0,0 -3.4399,4.9327 -0.3276,6.5661 3.1123,1.6334 4.4652,-4.8813 4.4652,-4.8813 0,0 2.3902,-1.4687 2.4652,-3.3437 0.075,-1.875 -2.1,-2.175 -2.1,-2.175 -3.1949,-4.1077 -8.1073,0.3786 -4.5028,3.8339z"/>
    <path id="_639654464" class="fil28" d="M295.953 110.599c0,0 -1.7027,0.0351 -1.3883,-1.6489 0.3144,-1.684 -2.1553,-1.207 -1.8542,2.5057 0.3012,3.7126 -1.8725,3.4104 -0.1055,4.8978 1.7669,1.4874 6.5652,-6.7738 3.348,-5.7546z"/>
    <path id="_639654272" class="fil29" d="M296.553 105.217c0,0 0.7353,0.153 0.933,1.2271 0.1978,1.074 -0.0131,1.2838 -0.0131,1.2838 0,0 1.466,-2.341 -0.9199,-2.5109z"/>
    <path id="_639651824" class="fil30" d="M294.507 103.883c0,0 -1.0783,-0.2298 -1.9798,1.096 -0.9016,1.3259 -0.7425,1.7326 -0.7425,1.7326 0,0 -0.5834,-4.013 2.7223,-2.8286z"/>
    <path id="_639660128" class="fil31" d="M296.533 100.587c-1.1844,0 0,0.6768 0.0564,1.8048 0.0564,1.128 -0.6204,2.2602 -0.6204,2.2602l0.3362 0.3364c0,0 1.3558,-2.7094 0.2278,-4.4014z"/>
    <path id="_639655256" class="fil32 str5" d="M337.619 122.498c-0.4618,-0.6015 -1.0523,-1.1189 -1.8029,-1.5089 -5.485,-2.8498 -4.5762,-9.1873 -4.5762,-9.1873 0,0 -5.6942,-3.2838 -7.4786,-3.161 -1.7844,0.1227 3.6298,3.2464 3.6298,3.2464 0,0 -1.259,3.8516 -0.8318,6.1529 0.4272,2.3014 1.7684,3.5538 1.7684,3.5538 0,0 -1.2218,1.7872 -6.0827,1.4941 -4.8609,-0.2932 -4.3251,-2.9296 -7.2538,-3.8039 -2.9287,-0.8743 -5.1225,-0.1856 -5.1225,-0.1856 0,0 1.7335,-4.8815 -0.2197,-7.8903 -1.953,-3.0088 -8.55,-5.0605 -9.3307,-4.5406 -0.7808,0.5198 3.8851,3.0496 3.8851,3.0496 0,0 2.8424,2.2248 1.0636,5.0365 -1.7787,2.8116 -3.3942,4.0881 -3.3942,4.0881 0,0 -1.5046,0.1954 -2.9202,0.279 3.6959,6.1944 12.5282,10.1891 22.5205,9.5018 6.4513,-0.4438 12.1555,-2.755 16.1459,-6.1246z"/>
    <path id="_639654728" class="fil33 str5" d="M286.061 113.185c-6.1589,3.4795 -5.2718,9.4347 -5.2718,9.4347 0,0 -1.0551,-1.4554 -2.1498,-0.7116 -1.0948,0.7438 2.3756,2.606 2.3756,2.606 0,0 2.0478,3.3925 10.3459,4.6361 8.2982,1.2436 5.7013,7.9159 21.226,10.0949 15.5246,2.179 26.646,-4.1248 26.646,-4.1248 0,0 3.1722,1.6918 4.0638,0.771 0.8916,-0.9208 -1.0319,-2.5074 -1.0319,-2.5074 0,0 3.2104,-10.2479 -2.6327,-13.2838 -5.843,-3.0359 -4.875,-9.7872 -4.875,-9.7872 0,0 -6.0658,-3.4981 -7.9668,-3.3673 -1.9009,0.1307 3.8668,3.4583 3.8668,3.4583 0,0 -1.3412,4.1031 -0.8861,6.5547 0.4551,2.4515 1.8838,3.7857 1.8838,3.7857 0,0 -1.3015,1.9039 -6.4797,1.5917 -5.1782,-0.3123 -4.6075,-3.1209 -7.7274,-4.0523 -3.1199,-0.9313 -5.4568,-0.1976 -5.4568,-0.1976 0,0 1.8465,-5.2002 -0.2341,-8.4055 -2.0806,-3.2052 -9.1082,-5.3909 -9.9399,-4.837 -0.8317,0.5538 4.1388,3.2486 4.1388,3.2486 0,0 3.0279,2.3701 1.133,5.3653 -1.8949,2.9952 -3.6157,4.355 -3.6157,4.355 0,0 -3.1235,0.4059 -4.7523,0.3269 -1.6289,-0.0789 -1.0616,-7.2523 -2.083,-8.0693 -1.0214,-0.817 -1.5972,5.7062 -4.8222,4.8813 -3.225,-0.825 1.4389,-5.8135 0.0816,-7.0959 -1.3573,-1.2823 -3.69,2.8661 -5.8361,5.3295z"/>
    <path id="_639654896" class="fil32" d="M310.107 121.283c-1.74,0.696 2.262,13.572 5.133,14.442 2.871,0.87 3.1306,-2.0262 3.1306,-2.0262 4.8838,4.333 11.2541,2.5878 11.9945,-0.6541 0.6823,-2.9874 0.0441,-6.851 -3.5541,-7.1507 -2.0879,-0.1739 -1.044,4.176 -1.044,4.176 -5.3477,-0.3928 -4.7763,-9.1264 -6.9745,-7.9427 -1.3831,0.7448 0.975,6.0323 0.975,6.0323 -4.0699,-1.2277 -3.362,-7.332 -4.9928,-6.0744 -1.4324,1.1046 0.4656,5.3039 0.4656,5.3039 -2.8217,-1.4948 -4.4273,-6.8121 -5.1333,-6.1061z"/>
    <path id="_639655040" class="fil32" d="M286.398 117.164c0,0 -0.45,-1.8 0.75,-2.325 0.2596,-0.1135 -2.3688,-0.3566 -0.75,2.325z"/>
    <path id="_639655208" class="fil32" d="M286.147 124.748c2.9962,2.1511 6.8089,-0.8724 5.893,-4.3665 0,0 2.414,0.4615 2.343,3.124 -0.071,2.6625 -4.5085,5.183 -8.236,1.2425z"/>
    <path id="_639655664" class="fil32" d="M295.896 113.827c-1.05,0.525 -1.425,4.275 -0.225,5.625 1.2,1.35 0,-0.075 0.75,-1.65 0.75,-1.575 -0.525,-3.975 -0.525,-3.975z"/>
    <path id="_639655352" class="fil32" d="M339.632 122.6c0.7659,3.2926 -1.2509,5.4224 -4.5256,4.1189 0,0 1.1982,5.6931 -2.1666,8.4488 5.6851,0.0333 8.1979,-3.4564 8.1979,-3.4564 0,0 1.8003,-6.6795 -1.5057,-9.1113z"/>
   </g>
   <g>
    <path id="_639655808" class="fil34 str5" d="M284.494 128.89c-2.5589,3.402 -3.1817,10.9568 5.9535,8.673 0,0 4.704,2.8665 6.909,0.882 2.205,-1.9845 -1.2495,-8.673 -1.2495,-8.673 -1.2619,-6.7604 -10.5935,-8.8533 -11.613,-0.882z"/>
    <path id="_639655904" class="fil32" d="M286.348 136.244c0,0 0.1567,-0.6843 -0.2695,-1.288 -0.4263,-0.6037 -1.0231,-0.2927 -1.0231,-0.2927 0,0 0.827,0.4775 1.2926,1.5807z"/>
    <path id="_639655688" class="fil32" d="M287.081 125.92c0,0 0.5878,0.3838 1.3017,0.1929 0.7139,-0.191 0.6286,-0.8585 0.6286,-0.8585 0,0 -0.7341,0.6106 -1.9303,0.6656z"/>
    <path id="_639656264" class="fil32" d="M285.744 129.551c1.7064,2.1634 6.7123,1.3371 7.1295,-1.2495 0.8582,6.0864 -7.3031,5.578 -7.1295,1.2495z"/>
    <path id="_639656072" class="fil32" d="M291.697 135.946c1.5772,1.1172 4.0329,1.4318 5.145,-0.5145 1.0881,3.5873 -4.281,3.8067 -5.145,0.5145z"/>
   </g>
   <g>
    <path id="_639656528" class="fil34 str5" d="M299.627 129.25c-3.4392,0.7927 -2.4196,3.3851 -2.4196,3.3851 0,0 -5.2992,3.2186 -4.0914,5.8614 1.2077,2.6428 7.3635,1.8722 7.3635,1.8722 0,0 3.1484,1.0453 5.1259,0.0626 1.9775,-0.9826 1.7241,-4.1765 1.7241,-4.1765 0,0 2.6919,-5.5305 0.3349,-7.2712 -2.357,-1.7408 -8.0374,0.2664 -8.0374,0.2664z"/>
    <path id="_639656600" class="fil32" d="M297.678 138.547c0,0 0.1567,-0.6843 -0.2695,-1.288 -0.4263,-0.6037 -1.0231,-0.2927 -1.0231,-0.2927 0,0 0.827,0.4775 1.2926,1.5807z"/>
    <path id="_639656288" class="fil32" d="M302.629 129.894c0,0 0.5878,0.3838 1.3017,0.1929 0.7139,-0.191 0.6286,-0.8585 0.6286,-0.8585 0,0 -0.7341,0.6106 -1.9303,0.6656z"/>
    <path id="_639656768" class="fil32" d="M300.463 136.625c1.9474,2.342 4.747,1.5809 5.2731,-0.2604 2.5071,3.6061 -5.315,5.9897 -5.2731,0.2604z"/>
    <path id="_639656936" class="fil32" d="M298.089 130.957c0.6257,2.1221 4.2748,1.7513 5.8233,1.156 0,0 0.4636,1.5396 -1.5206,2.1536 -1.9842,0.6141 -4.7914,-1.486 -4.3027,-3.3096z"/>
   </g>
   <g>
    <path id="_639657080" class="fil35 str6" d="M347.274 124.554c0,0 -5.8264,0.6562 -5.4151,1.6427 0.4114,0.9864 2.1076,1.4953 2.1076,1.4953 0,0 -8.2592,1.5153 -8.7942,2.5811 -0.5349,1.0657 1.0765,2.3378 1.0765,2.3378 0,0 -5.5126,-0.6785 -8.0569,1.6114 -2.5443,2.2898 -1.1873,4.7493 -1.1873,4.7493 0,0 -0.4242,2.3748 2.6714,2.6716 3.0956,0.2968 2.5867,-2.0779 2.5867,-2.0779 0,0 5.8519,1.8658 8.8202,1.6114 2.9684,-0.2545 -0.3392,-2.1203 -0.3392,-2.1203 0,0 7.9721,0.0848 10.0075,-1.5265 2.0355,-1.6114 1.5266,-3.9013 1.5266,-3.9013 0,0 4.4101,0.1696 4.6645,-1.0177 0.2545,-1.1873 -2.3746,-1.5266 -2.3746,-1.5266 0,0 1.0177,-5.5126 -1.1874,-6.1063 -2.205,-0.5936 -2.4595,1.1026 -2.4595,1.1026 -0.1204,-3.6503 -3.1759,-4.5756 -3.6468,-1.5266z"/>
    <path id="_639657152" class="fil36" d="M350.998 133.26c0,0 0.8673,2.9736 -2.6432,4.0887 -3.5105,1.1151 -8.4665,0.4543 -8.4665,0.4543 -0.5846,-1.6563 -2.7203,-2.9921 -4.0051,-1.1712 1.1932,-3.0525 5.3257,-2.8686 9.2345,-0.6154 0,0 1.0482,-1.8891 -0.0256,-2.3847 -1.0738,-0.4956 -1.6933,0.2065 -1.6933,0.2065 0,0 0.9499,-3.717 7.5992,-0.5782z"/>
    <path id="_639656000" class="fil36" d="M329.77 134.912c-1.0858,0.4653 -2.6149,2.2093 -1.5281,3.3866 0,0 1.8055,-1.4042 3.9235,0.5782 0,0 0.6608,-2.3541 -2.3954,-3.9648z"/>
    <path id="_639657704" class="fil36" d="M345.092 127.561c1.2609,0.8158 3.0713,0.4001 4.0474,-0.6608 1.7264,-0.1652 2.5938,1.6659 0.0826,2.5193 0,0 4.6006,1.5212 3.1801,-2.3954 2.383,2.0698 -0.1239,4.7082 -0.1239,4.7082 -0.4225,-1.3219 -3.9278,-1.5828 -4.543,-0.5369 0,0 1.0738,-1.652 -2.6432,-3.6344z"/>
    <path id="_639657488" class="fil36" d="M336.739 130.961c0.5311,0.7967 3.7532,1.1941 4.4221,0.659 0,0 -3.1599,2.4837 -4.4221,-0.659z"/>
   </g>
  </g>
 </g>
</svg>
