<?xml version="1.0" encoding="UTF-8"?>
<!DOCTYPE svg PUBLIC "-//W3C//DTD SVG 1.1//EN" "http://www.w3.org/Graphics/SVG/1.1/DTD/svg11.dtd">
<!-- Creator: CorelDRAW -->
<svg xmlns="http://www.w3.org/2000/svg" xml:space="preserve" width="420mm" height="297mm" style="shape-rendering:geometricPrecision; text-rendering:geometricPrecision; image-rendering:optimizeQuality; fill-rule:evenodd; clip-rule:evenodd"
viewBox="0 0 420 297"
 xmlns:xlink="http://www.w3.org/1999/xlink">
 <defs>
  <style type="text/css">
   <![CDATA[
    .str1 {stroke:#3B2827;stroke-width:0.75}
    .str0 {stroke:#496A7D;stroke-width:0.75;stroke-linecap:round;stroke-linejoin:round}
    .fil7 {fill:#8F5444}
    .fil1 {fill:#99AE6A}
    .fil0 {fill:#C5D1A7}
    .fil4 {fill:white}
    .fil8 {fill:#3B2827}
    .fil5 {fill:#536B3B}
    .fil3 {fill:#70B0C3}
    .fil2 {fill:#6E8233}
    .fil6 {fill:#8B9B5C}
    .fil9 {fill:#1F1A17;fill-rule:nonzero}
   ]]>
  </style>
 </defs>
 <g id="Capa_x0020_1">
  <metadata id="CorelCorpID_0Corel-Layer"/>
  <g id="_639670664">
   <path id="_639663608" class="fil0" d="M258.575 120.485l-55.9954 -0.814c0,0 2.8486,-25.688 13.4494,-29.9284 10.6008,-4.2403 18.2795,17.2264 18.2795,17.2264 0,0 4.5964,-8.4962 12.8252,-7.1009 8.2287,1.3953 11.4413,20.6169 11.4413,20.6169z"/>
   <path id="_639664616" class="fil1" d="M203.55 118.117c-67.6712,71.5667 117.058,58.2579 130.91,64.7507 20.585,9.6491 -14.375,28.3935 -14.375,28.3935 0,0 65.3325,-9.3161 64.0158,-33.5666 -1.3167,-24.2505 -55.9535,-20.598 -55.9535,-20.598 98.9408,-8.7435 -45.0347,-57.2509 -124.597,-38.9796z"/>
   <path id="_639664760" class="fil2" d="M259.198 134.26c0.9822,-4.394 3.0208,-27.6888 16.2144,-31.5987 13.1936,-3.9099 20.1934,5.8837 20.1934,5.8837 0,0 5.1098,-20.257 19.3624,-17.1651 14.2527,3.092 13.5995,45.549 13.9827,50.0382 -20.4064,-6.8282 -48.2664,-8.6336 -69.7529,-7.1581z"/>
   <path id="_639665192" class="fil3 str0" d="M352.708 176.198c21.9038,20.676 -43.3064,59.8087 -128.173,21.2047 -84.867,-38.604 -20.9844,-79.286 -20.9844,-79.286 -40.2141,62.338 128.456,38.5399 149.158,58.0813z"/>
   <path id="_639665336" class="fil4" d="M255.434 202.547c0,0 13.9932,1.1661 24.7797,4.0813 10.7864,2.9153 28.861,1.7492 28.861,1.7492 0,0 -0.9129,-4.7028 -5.8497,-5.8497 -4.9367,-1.1469 -9.8927,1.7683 -9.8927,1.7683 0,0 4.6644,-7.2881 -2.6237,-8.1627 -7.2881,-0.8746 -11.2118,6.2371 -11.2118,6.2371 0,0 -8.6119,-3.9049 -24.0628,0.1765z"/>
   <path id="_639664928" class="fil4" d="M186.037 157.603c0,0 0.7586,7.3542 12.9042,14.6418 12.1457,7.2877 34.309,8.2954 34.309,8.2954 0,0 -17.278,-3.1863 -23.9184,-7.232 -6.6405,-4.0457 -7.3468,-6.3811 -7.3468,-6.3811 0,0 5.8078,0.1403 3.7779,-3.5718 -2.0298,-3.7121 -7.5856,1.7282 -7.5856,1.7282 0,0 6.3951,-7.8461 0.2558,-9.1193 -6.1393,-1.2732 -4.2617,7.4632 -4.2617,7.4632 0,0 -2.4507,-8.9454 -8.1344,-5.8244z"/>
   <path id="_639665624" class="fil4" d="M195.476 136.445c-4.9949,10.0993 0.8902,17.3188 11.0869,19.2865 0,0 -14.708,-6.8494 -11.0869,-19.2865z"/>
   <path id="_639665936" class="fil4" d="M324.647 184.36c-4.1438,-6.9937 -13.6635,-3.7659 -11.6885,3.884 -12.0385,7.5375 -53.2953,-7.5915 -53.2953,-7.5915 41.1687,23.644 72.4294,17.6441 91.65,3.6373 0,0 -4.5699,-7.4429 -9.9191,-1.4827 -2.5109,-13.028 -15.7398,-9.6838 -16.7471,1.5529z"/>
   <path id="_639666200" class="fil4" d="M223.505 185.577c15.1985,6.0249 30.7332,3.6657 44.1498,13.06 0,0 -10.4907,-5.0106 -26.1229,-5.8527 -15.6323,-0.8421 -18.0269,-7.2073 -18.0269,-7.2073z"/>
   <path id="_639666512" class="fil4" d="M311.409 172.281c0,0 -12.1874,2.9059 -22.5665,2.7503 -10.3791,-0.1555 -26.0965,-5.4004 -26.0965,-5.4004 0,0 24.1974,4.2243 48.663,2.6501z"/>
   <path id="_639665504" class="fil4" d="M217.816 163.45c5.8759,11.6386 32.3601,15.9299 34.0797,8.537 1.5971,-6.8666 -10.5978,-10.2679 -12.9923,-2.7583 -0.1697,-5.4733 -6.7778,-5.2264 -7.3355,-1.54 0,0 -7.1226,1.5746 -13.7519,-4.2387z"/>
   <path id="_639660152" class="fil4" d="M190.336 142.481c-2.9995,-5.1887 -0.4034,-10.9485 4.6117,-14.3819 0,0 -7.0371,7.4434 -4.6117,14.3819z"/>
   <path id="_639668936" class="fil1" d="M215.832 92.1821c-10.6874,8.3589 -7.5154,20.1356 -7.5154,20.1356 2.6149,-11.4449 9.3638,-8.7388 11.9112,-4.8212 3.133,-4.6712 0.8382,-10.7938 -4.6794,-8.3662 0,0 -3.7113,-2.0482 0.2836,-6.9482z"/>
   <path id="_639666920" class="fil1" d="M235.743 108.496c0.7481,-4.6388 6.2039,-8.2368 10.5408,-7.1248 0,0 -4.4896,1.3664 -2.6352,4.6848 1.8544,3.3184 -1.3664,5.856 -1.3664,5.856 0.4693,-4.704 -2.928,-8.5888 -6.5392,-3.416z"/>
   <path id="_639667064" class="fil5" d="M277.949 104.329c-6.9189,1.9067 -6.2865,7.8017 -6.2865,7.8017 -7.3508,-0.0222 -7.5604,14.1886 -7.5604,14.1886 3.5486,-7.6473 9.3711,-7.196 12.6256,-1.8824 0,0 -1.1679,-11.2801 7.2953,-12.5001 8.4631,-1.22 0.8448,-9.5145 -6.074,-7.6078z"/>
   <path id="_639667496" class="fil5" d="M300.536 107.169c5.745,4.9089 7.8728,12.2483 7.56,19.6 0,0 0.3156,-9.6246 6.2478,-9.7123 5.9322,-0.0877 5.6522,-12.4077 5.6522,-12.4077 -9.8501,7.6405 -13.5532,-4.5345 -7.84,-11.76 0,0 -11.06,-0.42 -11.62,14.28z"/>
   <polygon id="_639667640" class="fil1" points="262.686,130.096 265.033,132.623 266.296,127.57 267.379,130.818 269.093,127.299 267.92,134.969 264.578,134.969 "/>
   <polygon id="_639667232" class="fil1" points="314.391,134.146 317.952,136.673 320.501,131.619 321.514,135.994 327.008,131.349 323.227,140.326 316.283,139.019 "/>
   <polygon id="_639667928" class="fil1" points="210.448,114.929 208.747,116.136 207.53,113.722 207.046,115.812 204.422,113.593 206.228,117.88 209.544,117.256 "/>
   <polygon id="_639668240" class="fil1" points="235.635,111.808 233.973,113.597 233.078,110.018 232.311,112.319 231.096,109.826 231.927,115.259 234.295,115.259 "/>
   <polygon id="_639668504" class="fil5" points="377.598,172.518 374.711,175.626 373.157,169.409 371.824,173.406 369.715,169.075 371.158,178.513 375.271,178.513 "/>
   <polygon id="_639668816" class="fil5" points="242.257,122.3 244.511,123.899 246.123,120.702 246.764,123.47 250.241,120.53 247.848,126.211 243.454,125.384 "/>
   <polygon id="_639667808" class="fil5" points="223.394,139.551 221.23,141.882 220.064,137.22 219.065,140.217 217.483,136.97 218.566,144.046 221.649,144.046 "/>
   <polygon id="_639669224" class="fil5" points="293.898,147.414 291.134,149.375 289.157,145.453 288.37,148.849 284.106,145.243 287.041,152.211 292.43,151.196 "/>
   <path id="_639669368" class="fil2" d="M238.701 153.314c0,0 1.6637,-1.5447 13.796,-1.2427 12.1323,0.302 21.4555,5.2235 21.4555,5.2235 0,0 -24.8531,-5.2619 -35.2515,-3.9808z"/>
   <path id="_639669800" class="fil2" d="M305.141 146.606c0,0 1.3918,-1.2922 11.5407,-1.0395 10.1489,0.2526 17.948,4.3696 17.948,4.3696 0,0 -20.7902,-4.4017 -29.4887,-3.3301z"/>
   <path id="_639669944" class="fil2" d="M212.704 124.882c0,0 0.9035,-0.8389 7.4921,-0.6749 6.5887,0.164 11.6518,2.8367 11.6518,2.8367 0,0 -13.4969,-2.8575 -19.1439,-2.1618z"/>
   <path id="_639669536" class="fil2" d="M338.225 164.179c0,0 1.163,-1.0798 9.6439,-0.8687 8.4809,0.2111 14.9981,3.6514 14.9981,3.6514 0,0 -17.3732,-3.6782 -24.642,-2.7827z"/>
  </g>
  <g id="_639673016">
   <path id="_639670256" class="fil1" d="M46.7539 210.374c3.8109,8.8415 46.1415,-2.4525 46.1415,-2.4525 0,0 26.1779,3.0782 26.9396,-3.0154 0.7617,-6.0936 -24.27,-10.1731 -37.0172,-10.0376 -12.7472,0.1355 -16.8096,8.0064 -16.8096,8.0064 0,0 -21.8231,1.5394 -19.2543,7.4991z"/>
   <g>
    <path id="_639670400" class="fil2" d="M105.071 121.859c0,0 7.5735,10.7712 17.8398,7.0686 10.2663,-3.7026 1.0098,-22.0473 1.0098,-22.0473 0,0 34.1649,2.3562 36.1845,-7.4052 2.0196,-9.7614 -25.7499,-8.9199 -25.7499,-8.9199 0,0 5.7222,-29.6208 -7.9101,-32.8185 -13.6323,-3.1977 -18.6813,8.0784 -18.6813,8.0784 0,0 -3.7026,-8.2467 -12.7908,-7.9101 -9.0882,0.3366 -9.7614,8.0784 -9.7614,8.0784 0,0 -10.4346,-21.3741 -31.1355,-16.1568 -20.7009,5.2173 -7.2369,33.1551 -7.2369,33.1551 0,0 -10.6029,0.8415 -10.9395,8.5833 -0.3366,7.7418 10.6029,7.9101 10.6029,7.9101 0,0 -9.9297,9.0882 -5.2173,13.2957 4.7124,4.2075 13.464,-5.049 13.464,-5.049 0,0 -10.2663,12.4542 -3.1977,19.1862 7.0686,6.732 12.7908,0.5049 12.7908,0.5049 0,0 -3.1977,8.2467 4.0392,10.7712 7.2369,2.5245 10.4346,-9.7614 10.4346,-9.7614 0,0 2.0196,7.4052 14.4738,5.2173 12.4542,-2.1879 11.781,-11.781 11.781,-11.781z"/>
    <g>
     <path id="_639670832" class="fil6" d="M57.5261 61.0714c1.5861,3.3042 5.553,3.0636 8.5481,2.1439 -4.9658,3.2235 -2.7399,8.5565 2.4528,9.1104 -4.5379,-4.6892 -0.1817,-11.8068 6.1772,-8.3662 1.2428,-8.5619 -8.6216,-8.0516 -8.8636,-2.4962 0,0 -4.0376,-2.4409 -8.3145,-0.3919z"/>
     <path id="_639670976" class="fil6" d="M91.7406 88.31c-4.1458,-7.1226 2.4308,-10.1396 5.2888,-4.231 -1.4338,-12.3962 10.0001,-15.4518 14.7046,-5.5044 2.52,-2.6097 5.3009,-3.4942 8.9186,-3.1927 -2.1741,2.3022 -4.5568,5.3603 -7.9919,5.5238 -5.8252,-4.6567 -11.7174,3.0789 -5.1713,6.5816 -6.5796,0.1495 -9.5435,6.405 -5.8764,11.7529 0,0 -8.6015,-0.8264 -6.229,-9.0497 -10.4147,6.5462 -10.4321,-2.6698 -3.6434,-1.8805z"/>
     <path id="_639668960" class="fil6" d="M71.3477 97.7799c2.7687,6.0115 -3.8331,10.0467 -9.0059,6.7308 0,0.0949 0.3937,5.5231 -3.6973,7.4892 -1.3955,-5.1066 2.6544,-7.9632 2.6544,-7.9632 -3.7598,2.204 -7.1245,-1.0972 -5.3088,-5.1192 -6.1475,0 -8.0521,-9.0537 2.6544,-8.4372 -3.7031,4.8825 0.9201,11.2533 6.7308,5.0244 0.18,3.0615 2.4077,5.0377 5.9724,2.2752z"/>
     <path id="_639671528" class="fil6" d="M113.386 118.379c-1.5922,2.502 -0.2555,5.2212 1.9835,6.7437 0.662,-2.7783 -1.5539,-5.8414 -1.5112,-5.7916 2.9976,3.4906 9.6232,2.6594 10.2383,-3.8876 -2.2697,2.7245 -4.4718,1.7984 -5.7349,-1.1273 0,0 -0.5133,5.4033 -4.9757,4.0628z"/>
     <path id="_639671312" class="fil6" d="M139.244 98.4508c0.7863,-4.5607 7.9877,-4.7793 6.7854,0.6312 0,0 2.8308,-2.2152 7.4414,-0.1578 -2.8059,3.1984 -7.6632,1.5108 -7.6632,1.5108 -0.7309,-2.6317 -4.1376,-4.0407 -6.5636,-1.9842z"/>
    </g>
   </g>
   <g>
    <path id="_639671600" class="fil7 str1" d="M67.4133 110.064c-0.0001,1.0034 14.4565,10.268 14.4565,10.268 0,0 -19.7363,-1.5797 -19.8992,0 -0.1629,1.5797 9.4733,1.7377 9.4733,1.7377 0,0 -5.1836,3.446 -4.3295,4.3295 0.8541,0.8834 7.3909,-4.3295 7.3909,-4.3295 0,0 7.9964,0.3159 9.1022,3.1593 1.1058,2.8435 -3.1594,31.12 -3.1594,31.12 0,0 -3.1594,-5.371 -4.7391,-5.6869 -1.5797,-0.316 4.2652,13.7433 4.2652,13.7433 0,0 -2.2116,30.0141 -5.371,35.701 -3.1593,5.6869 -11.7711,9.3202 -10.3493,10.268 1.4217,0.9478 11.929,-3.1594 16.5101,-4.1072 4.5811,-0.9478 19.4573,3.9781 24.1964,3.9781 4.7391,0 -12.5066,-5.3998 -13.1385,-11.0867 -0.6319,-5.6869 -0.4739,-37.2807 0.7898,-51.182 1.2638,-13.9013 4.7391,-27.9605 9.3202,-33.9634 4.5811,-6.0028 25.2751,-17.8505 25.1171,-19.1142 -0.158,-1.2638 -11.0578,5.213 -11.0578,5.213 0,0 0.9478,-12.0118 0,-12.2457 -0.9479,-0.2339 -1.7377,12.8775 -1.7377,12.8775 0,0 -10.8999,5.213 -17.0607,11.0579 -6.1608,5.8448 -11.7967,6.852 -14.6401,5.2723 -2.8434,-1.5796 -13.4018,-7.7998 -15.1394,-7.01z"/>
    <g>
     <path id="_639671768" class="fil8" d="M90.1503 138.121c0,0 -0.9891,5.585 -1.4966,11.5959 -0.5076,6.0109 -0.7409,22.5333 -0.7409,22.5333 0,0 1.9352,-17.7137 2.2375,-34.1292z"/>
     <path id="_639672224" class="fil8" d="M79.2821 198.404c0,0 0.2382,-4.1562 1.0352,-8.5018 0.7971,-4.3456 4.1161,-16.024 4.1161,-16.024 0,0 -1.9223,12.9067 -5.1513,24.5258z"/>
     <path id="_639671912" class="fil8" d="M95.3867 120.837c0,0 -5.3931,2.6795 -7.4629,9.6513 -2.0699,6.9717 -1.5851,11.1949 -1.5851,11.1949 0,0 1.4551,-13.4039 9.048,-20.8462z"/>
     <path id="_639672104" class="fil8" d="M89.7651 205.405c-4.7743,-2.4045 -4.7452,-12.8098 -3.1959,-17.5028 0,0 -0.2289,4.9494 0.2292,9.8455 0.4021,4.2973 2.9667,7.6573 2.9667,7.6573z"/>
     <path id="_639672320" class="fil8" d="M107.285 106.444c0,0 -2.0211,1.1987 -3.9789,2.7118 -1.9577,1.5131 -6.8852,6.1373 -6.8852,6.1373 0,0 5.9408,-4.283 10.8641,-8.8491z"/>
     <path id="_639672416" class="fil8" d="M90.7958 119.471c0,0 -2.8288,1.3677 -6.3656,-0.0071 -3.5368,-1.3748 -5.1235,-2.9245 -5.1235,-2.9245 0,0 5.9929,3.6842 11.4891,2.9316z"/>
     <path id="_639673232" class="fil8" d="M83.0249 170.667c2.9597,-2.8855 0.3792,-9.7575 -1.8627,-12.3747 0,0 1.3654,3.191 2.2092,6.5339 0.7407,2.9341 -0.3465,5.8408 -0.3465,5.8408z"/>
    </g>
   </g>
   <polygon id="_639672752" class="fil5" points="62.5257,201.621 59.7056,204.658 58.187,198.584 56.8854,202.488 54.8246,198.258 56.2346,207.478 60.2519,207.478 "/>
   <path id="_639673088" class="fil2" d="M94.5257 200.093c0,0 1.1476,-0.8565 8.7358,0.151 7.5883,1.0076 13.1033,4.7229 13.1033,4.7229 0,0 -15.2315,-4.976 -21.8391,-4.8739z"/>
  </g>
  <path class="fil9" d="M74.1878 246.367c0,0.3302 -0.0317,0.5842 -0.0952,0.762 -0.0635,0.1778 -0.18,0.2667 -0.3493,0.2667 -0.2371,0 -0.453,-0.3598 -0.6477,-1.0795 -0.1101,-0.4657 -0.2159,-0.9356 -0.3175,-1.4097l-2.159 0c-0.1185,0.4572 -0.2371,0.9144 -0.3556,1.3716 -0.1609,0.5503 -0.3937,0.8255 -0.6985,0.8255 -0.1778,0 -0.2836,-0.0254 -0.3175,-0.0762 -0.0677,-0.1016 -0.1016,-0.2752 -0.1016,-0.5207 0,-0.2032 0.0148,-0.4339 0.0445,-0.6922 0.0296,-0.2582 0.1037,-0.6117 0.2222,-1.0604 0.1185,-0.4487 0.2371,-0.8911 0.3556,-1.3272 0.1185,-0.436 0.3471,-1.2551 0.6858,-2.4574 0.254,-0.8975 0.4022,-1.3716 0.4445,-1.4224 0.2371,-0.8297 0.5884,-1.2446 1.0541,-1.2446 0.2286,0 0.4614,0.182 0.6985,0.5461 0.2371,0.3641 0.4064,0.8255 0.508,1.3843 0.0339,0.0593 0.1164,0.4381 0.2477,1.1366 0.1312,0.6985 0.2518,1.3526 0.3619,1.9622 0.0593,0.3471 0.1185,0.6858 0.1778,1.016 0.0593,0.3302 0.1143,0.7112 0.1651,1.143 0.0508,0.4318 0.0762,0.7239 0.0762,0.8763zm-1.5621 -2.5527l-0.6604 -4.1021 -1.1303 4.1021 1.7907 0zm0.9906 -6.9596c0,0.1863 -0.1947,0.3979 -0.5842,0.635 -0.127,0.0762 -0.326,0.1778 -0.5969,0.3048l-1.0287 0c0.3302,-0.3556 0.58,-0.6223 0.7493,-0.8001 0.5249,-0.5334 0.8551,-0.8001 0.9906,-0.8001 0.2117,0 0.3429,0.0508 0.3937,0.1524 0.0508,0.1016 0.0762,0.2709 0.0762,0.508zm7.1628 9.9441c-0.0169,0.1101 -0.0423,0.1905 -0.0762,0.2413 -0.1016,0.1609 -0.2752,0.2413 -0.5207,0.2413 -0.7197,0 -1.5113,-0.3556 -2.3749,-1.0668 -0.8636,-0.7112 -1.2573,-1.2912 -1.1811,-1.7399 0,-0.0931 0.4699,-0.3725 1.4097,-0.8382 0.9398,-0.4657 1.4097,-0.9737 1.4097,-1.524 0,-0.5419 -0.2074,-1.0202 -0.6223,-1.4351 -0.4149,-0.4149 -0.9059,-0.6223 -1.4732,-0.6223 -0.3556,0 -0.6985,0.0762 -1.0287,0.2286l0 4.8387c0,0.9483 -0.0444,1.6616 -0.1312,2.1399 -0.0889,0.4784 -0.2329,0.7176 -0.4339,0.7176 -0.2519,0 -0.4276,-0.2561 -0.5292,-0.7684 -0.0995,-0.5122 -0.1503,-1.2467 -0.1503,-2.2034l0 -3.5941c0,-1.0922 0.1164,-1.7801 0.3493,-2.0638 0.2307,-0.2836 0.7916,-0.4254 1.6785,-0.4254 1.0223,0 1.833,0.2032 2.432,0.6096 0.6922,0.4657 1.0393,1.1642 1.0393,2.0955 0,0.8297 -0.1736,1.4436 -0.5207,1.8415 -0.3133,0.3556 -0.9948,0.7747 -2.0447,1.2573 0.4487,0.5588 0.9483,0.9779 1.4986,1.2573 0.8467,0.4318 1.27,0.7027 1.27,0.8128zm5.0165 -6.1214c0,0.3979 -0.1439,0.762 -0.4318,1.0922 -0.2117,0.2455 -0.6181,0.58 -1.2192,1.0033l0.7874 0.2032c0.2032,0.1016 0.3048,0.4022 0.3048,0.9017 0,0.9483 -0.4445,1.8711 -1.3335,2.7686 -0.7874,0.7959 -1.4605,1.1938 -2.0193,1.1938 -0.1778,0 -0.2963,-0.4593 -0.3556,-1.378 -0.0593,-0.9186 -0.0889,-2.305 -0.0889,-4.1592 0,-0.8128 0.0042,-1.433 0.0127,-1.8606 0.0085,-0.4275 0.0169,-0.8403 0.0254,-1.2382 0.2286,-0.0169 0.4445,-0.0318 0.6477,-0.0445 0.2032,-0.0127 0.3429,-0.019 0.4191,-0.019 1.1515,0 1.9812,0.1312 2.4892,0.3937 0.508,0.2625 0.762,0.6435 0.762,1.143zm-1.1303 0.2032c0,-0.2117 -0.1016,-0.3641 -0.3048,-0.4572 -0.3048,-0.1439 -0.8636,-0.2159 -1.6764,-0.2159 -0.0169,0.1609 -0.0296,0.4762 -0.0381,0.9461 -0.0085,0.4699 -0.0127,0.9758 -0.0127,1.5177 0.3979,-0.2286 0.7959,-0.4614 1.1938,-0.6985 0.5588,-0.3556 0.8382,-0.7197 0.8382,-1.0922zm-0.5842 3.3274c0,-0.0762 0,-0.1355 0,-0.1778 0,-0.1101 -0.0085,-0.1863 -0.0254,-0.2286 -0.0593,-0.1439 -0.2117,-0.2159 -0.4572,-0.2159 -0.1609,0 -0.3387,0.0402 -0.5334,0.1206 -0.1947,0.0805 -0.3514,0.18 -0.4699,0.2985l0 2.2606c0.4233,-0.1693 0.7768,-0.4466 1.0605,-0.8319 0.2836,-0.3852 0.4254,-0.7937 0.4254,-1.2255zm7.6962 -0.6858c0,1.143 -0.2159,2.087 -0.6477,2.8321 -0.4657,0.8043 -1.0964,1.2065 -1.8923,1.2065 -0.9059,0 -1.6214,-0.436 -2.1463,-1.3081 -0.5249,-0.8721 -0.7874,-1.9685 -0.7874,-3.2893 0,-1.1938 0.2138,-2.1929 0.6414,-2.9972 0.4275,-0.8043 1.0054,-1.2065 1.7335,-1.2065 0.9398,0 1.6976,0.4699 2.2733,1.4097 0.5503,0.8975 0.8255,2.0151 0.8255,3.3528zm-1.0668 -0.0127c0,-1.0414 -0.1609,-1.9008 -0.4826,-2.5781 -0.3471,-0.7281 -0.8213,-1.0922 -1.4224,-1.0922 -0.3979,0 -0.726,0.3048 -0.9842,0.9144 -0.2583,0.6096 -0.3874,1.3674 -0.3874,2.2733 0,1.0245 0.1566,1.8542 0.4699,2.4892 0.3556,0.7197 0.8467,1.0795 1.4732,1.0795 0.381,0 0.6985,-0.2942 0.9525,-0.8827 0.254,-0.5884 0.381,-1.3229 0.381,-2.2034zm5.1308 2.9845c0.0254,0.2201 -0.2625,0.4466 -0.8636,0.6794 -0.6011,0.2329 -1.1726,0.3493 -1.7124,0.3493 -0.3767,0 -0.6307,-0.2582 -0.7662,-0.7747 -0.0995,-0.3979 -0.1503,-1.1176 -0.1503,-2.159 0,-0.3387 0,-0.6858 0,-1.0414 0,-0.3556 0,-0.7239 0,-1.1049 0,-2.3453 0.2455,-3.5179 0.7366,-3.5179 0.1863,0 0.3196,0.1651 0.4001,0.4953 0.0804,0.3302 0.1206,0.7916 0.1206,1.3843 0,0.2455 -0.0106,0.7429 -0.0317,1.4922 -0.0212,0.7493 -0.0318,1.2468 -0.0318,1.4923 0,0.5503 0.0106,0.9948 0.0318,1.3335 0.0211,0.3387 0.0613,0.6689 0.1206,0.9906 0.1693,0 0.3916,-0.0191 0.6668,-0.0572 0.2751,-0.0381 0.5312,-0.074 0.7683,-0.1079 0.2032,0 0.3641,0.0381 0.4826,0.1143 0.1185,0.0762 0.1947,0.2201 0.2286,0.4318z"/>
  <path class="fil9" d="M281.047 246.532c-0.0169,0.1101 -0.0423,0.1905 -0.0762,0.2413 -0.1016,0.1609 -0.2752,0.2413 -0.5207,0.2413 -0.7197,0 -1.5113,-0.3556 -2.3749,-1.0668 -0.8636,-0.7112 -1.2573,-1.2912 -1.1811,-1.7399 0,-0.0931 0.4699,-0.3725 1.4097,-0.8382 0.9398,-0.4657 1.4097,-0.9737 1.4097,-1.524 0,-0.5419 -0.2074,-1.0202 -0.6223,-1.4351 -0.4149,-0.4149 -0.9059,-0.6223 -1.4732,-0.6223 -0.3556,0 -0.6985,0.0762 -1.0287,0.2286l0 4.8387c0,0.9483 -0.0444,1.6616 -0.1312,2.1399 -0.0889,0.4784 -0.2329,0.7176 -0.4339,0.7176 -0.2519,0 -0.4276,-0.2561 -0.5292,-0.7684 -0.0995,-0.5122 -0.1503,-1.2467 -0.1503,-2.2034l0 -3.5941c0,-1.0922 0.1164,-1.7801 0.3493,-2.0638 0.2307,-0.2836 0.7916,-0.4254 1.6785,-0.4254 1.0223,0 1.833,0.2032 2.432,0.6096 0.6922,0.4657 1.0393,1.1642 1.0393,2.0955 0,0.8297 -0.1736,1.4436 -0.5207,1.8415 -0.3133,0.3556 -0.9948,0.7747 -2.0447,1.2573 0.4487,0.5588 0.9483,0.9779 1.4986,1.2573 0.8467,0.4318 1.27,0.7027 1.27,0.8128zm2.1336 0.0635c0,0.9229 -0.2159,1.3843 -0.6477,1.3843 -0.2794,0 -0.4191,-0.4487 -0.4191,-1.3462l-0.1524 -6.2611c0,-0.3895 0.0445,-0.69 0.1334,-0.9017 0.0889,-0.2117 0.2561,-0.3175 0.5016,-0.3175 0.3641,0 0.5461,0.4106 0.5461,1.2319l0.0381 6.2103zm0.8636 -9.779c0,0.1863 -0.1947,0.4022 -0.5842,0.6477 -0.127,0.0762 -0.326,0.1778 -0.5969,0.3048l-1.0287 0c0.3302,-0.3556 0.58,-0.6223 0.7493,-0.8001 0.5249,-0.5334 0.8509,-0.8001 0.9779,-0.8001 0.2117,0 0.3514,0.0593 0.4191,0.1778 0.0423,0.0762 0.0635,0.2328 0.0635,0.4699zm5.7785 6.4389c0,1.143 -0.2159,2.087 -0.6477,2.8321 -0.4657,0.8043 -1.0964,1.2065 -1.8923,1.2065 -0.9059,0 -1.6214,-0.436 -2.1463,-1.3081 -0.5249,-0.8721 -0.7874,-1.9685 -0.7874,-3.2893 0,-1.1938 0.2138,-2.1929 0.6414,-2.9972 0.4275,-0.8043 1.0054,-1.2065 1.7335,-1.2065 0.9398,0 1.6976,0.4699 2.2733,1.4097 0.5503,0.8975 0.8255,2.0151 0.8255,3.3528zm-1.0668 -0.0127c0,-1.0414 -0.1609,-1.9008 -0.4826,-2.5781 -0.3471,-0.7281 -0.8213,-1.0922 -1.4224,-1.0922 -0.3979,0 -0.726,0.3048 -0.9842,0.9144 -0.2583,0.6096 -0.3874,1.3674 -0.3874,2.2733 0,1.0245 0.1566,1.8542 0.4699,2.4892 0.3556,0.7197 0.8467,1.0795 1.4732,1.0795 0.381,0 0.6985,-0.2942 0.9525,-0.8827 0.254,-0.5884 0.381,-1.3229 0.381,-2.2034z"/>
 </g>
</svg>
