<?xml version="1.0" encoding="UTF-8"?>
<!DOCTYPE svg PUBLIC "-//W3C//DTD SVG 1.1//EN" "http://www.w3.org/Graphics/SVG/1.1/DTD/svg11.dtd">
<!-- Creator: CorelDRAW -->
<svg xmlns="http://www.w3.org/2000/svg" xml:space="preserve" width="420mm" height="297mm" style="shape-rendering:geometricPrecision; text-rendering:geometricPrecision; image-rendering:optimizeQuality; fill-rule:evenodd; clip-rule:evenodd"
viewBox="0 0 420 297"
 xmlns:xlink="http://www.w3.org/1999/xlink">
 <defs>
  <style type="text/css">
   <![CDATA[
    .str0 {stroke:#C58C2D;stroke-width:0.75}
    .fil11 {fill:none}
    .fil6 {fill:#F8C300}
    .fil2 {fill:#FFF500}
    .fil9 {fill:red}
    .fil7 {fill:#0F6386}
    .fil10 {fill:#195574}
    .fil1 {fill:#1E3D55}
    .fil4 {fill:#DEA817}
    .fil3 {fill:#F2BF00}
    .fil5 {fill:#F2E200}
    .fil8 {fill:#E0CFBF}
    .fil0 {fill:#1F1A17;fill-rule:nonzero}
   ]]>
  </style>
    <clipPath id="id0">
     <path d="M320.46 52.5213c16.8129,9.2344 17.9258,31.6074 14.0774,42.166 0,0 4.3628,-8.0591 12.7828,-11.8573 8.4199,-3.7982 4.7439,-15.5201 4.7439,-15.5201 0,0 9.1226,13.2755 3.4974,25.201 -5.6252,11.9256 -2.8185,21.1579 -2.8185,21.1579 0,0 4.7277,-10.5146 14.5769,-8.4788 0,0 -11.2326,6.8921 -9.0849,21.142 2.4497,16.2538 -11.4337,34.2405 -34.0292,34.5165 -18.9951,0.2319 -27.2455,-9.1611 -32.772,-22.3541 -6.9748,-16.6503 -20.2509,-16.5072 -20.2509,-16.5072 12.3043,-9.9678 27.0011,1.1251 27.0011,1.1251 0,0 -18.2222,-11.9219 -15.7471,-25.4225 2.4751,-13.5006 -4.9537,-21.1545 -4.9537,-21.1545 0,0 10.6896,1.9109 14.5148,12.0363 3.8251,10.1254 9.7862,8.4395 9.7862,8.4395 0,0 0.3067,-14.4715 10.2252,-18.9898 9.9185,-4.5182 8.4506,-25.5 8.4506,-25.5z"/>
    </clipPath>
 </defs>
 <g id="Capa_x0020_1">
  <metadata id="CorelCorpID_0Corel-Layer"/>
  <path class="fil0" d="M310.152 240.461c0,0.2032 -0.0974,0.3514 -0.2921,0.4445 -0.1947,0.0931 -0.5207,0.1397 -0.9779,0.1397 -0.2455,0 -0.4995,-0.0064 -0.762,-0.0191 -0.2625,-0.0127 -0.5546,-0.0275 -0.8763,-0.0444l0 2.9591 1.3716 -0.0381c0.3979,0 0.6985,0.0381 0.9017,0.1143 0.2032,0.0762 0.3048,0.2244 0.3048,0.4445 0,0.2709 -0.0825,0.4487 -0.2476,0.5334 -0.1651,0.0847 -0.544,0.127 -1.1367,0.127l-1.0541 0 0.0254 1.7018c0,0.4911 -0.0466,0.8467 -0.1397,1.0668 -0.1185,0.2879 -0.3429,0.4318 -0.6731,0.4318 -0.0677,0 -0.1439,-0.1397 -0.2286,-0.4191 -0.0847,-0.2794 -0.127,-0.5419 -0.127,-0.7874 -0.0169,-0.3133 -0.0317,-0.6392 -0.0444,-0.9779 -0.0127,-0.3387 -0.0339,-1.0943 -0.0635,-2.267 -0.0297,-1.1726 -0.0445,-1.9071 -0.0445,-2.2034 0,-0.381 0.0042,-0.7176 0.0127,-1.0097 0.0085,-0.2921 0.0254,-0.5101 0.0508,-0.654 0.5249,-0.0677 1.1218,-0.1016 1.7907,-0.1016 0.7281,0 1.2785,0.0423 1.651,0.127 0.3725,0.0847 0.5588,0.2286 0.5588,0.4318zm5.842 3.6703c0,1.1176 -0.2709,2.0786 -0.8128,2.8829 -0.5673,0.8382 -1.27,1.2573 -2.1082,1.2573 -0.7959,0 -1.4393,-0.2836 -1.9304,-0.8509 -0.6096,-0.7027 -0.9144,-1.778 -0.9144,-3.2258 0,-1.0075 0.182,-2.0511 0.5461,-3.1306 0.3641,-1.0795 0.7366,-1.6192 1.1176,-1.6192 0.3302,0 0.4953,0.2074 0.4953,0.6223 0,0.2286 -0.1778,0.8721 -0.5334,1.9304 -0.3556,1.0583 -0.5334,1.7992 -0.5334,2.2225 0,1.0668 0.1778,1.8288 0.5334,2.286 0.2879,0.3725 0.7027,0.5588 1.2446,0.5588 0.5673,0 1.0033,-0.3175 1.3081,-0.9525 0.2709,-0.5588 0.4064,-1.2785 0.4064,-2.159 0,-0.254 -0.0614,-0.8488 -0.1841,-1.7844 -0.1228,-0.9355 -0.1842,-1.488 -0.1842,-1.6573 0,-0.6519 0.182,-1.0033 0.5461,-1.0541 0.3048,-0.0339 0.5546,0.4572 0.7493,1.4732 0.1693,0.8975 0.254,1.9643 0.254,3.2004zm4.5085 3.0988c0,0.3217 -0.2963,0.58 -0.889,0.7747 -0.508,0.1693 -1.071,0.254 -1.6891,0.254 -0.3133,0 -0.5376,-0.1566 -0.6731,-0.4699 -0.1016,-0.2371 -0.1524,-0.5567 -0.1524,-0.9546 -0.0085,-0.3641 -0.0169,-0.6689 -0.0254,-0.9165 -0.0593,-1.7548 -0.0889,-3.0353 -0.0889,-3.8397 0,-0.9927 0.0254,-1.7928 0.0762,-2.4045l2.2479 -0.2794c0.0847,0 0.1439,0 0.1778,0 0.2201,0 0.3937,0.0402 0.5207,0.1206 0.127,0.0805 0.1905,0.2054 0.1905,0.3747 0,0.1439 -0.0847,0.2752 -0.254,0.3937 -0.1693,0.1185 -0.3598,0.199 -0.5715,0.2413l-1.1684 0.2159 0 2.5019 1.0414 -0.0508c0.3302,0 0.563,0.0593 0.6985,0.1778 0.1355,0.1185 0.2032,0.2794 0.2032,0.4826 0,0.1693 -0.0698,0.3069 -0.2095,0.4127 -0.1397,0.1059 -0.307,0.1588 -0.5017,0.1588l-1.1557 0.0762 0.0762 2.3495c0.1693,0 0.3916,-0.0191 0.6668,-0.0572 0.2751,-0.0381 0.5312,-0.074 0.7683,-0.1079 0.2117,0 0.3831,0.0402 0.5144,0.1206 0.1312,0.0805 0.1968,0.2223 0.1968,0.4255zm6.9342 -2.54c0,0.2201 -0.0825,0.3619 -0.2476,0.4254 -0.1651,0.0635 -0.2731,0.108 -0.3239,0.1334 0,0.9737 -0.2921,1.833 -0.8763,2.5781 -0.635,0.8128 -1.4351,1.2192 -2.4003,1.2192 -0.889,0 -1.6065,-0.3979 -2.1526,-1.1938 -0.5461,-0.7959 -0.8192,-1.7822 -0.8192,-2.9591 0,-1.2277 0.2921,-2.2479 0.8763,-3.0607 0.6265,-0.8721 1.4563,-1.3081 2.4892,-1.3081 0.5419,0 1.052,0.1079 1.5304,0.3238 0.4783,0.2159 0.7175,0.4848 0.7175,0.8065 0,0.1101 -0.0339,0.2222 -0.1016,0.3365 -0.0677,0.1143 -0.1609,0.1715 -0.2794,0.1715 -0.3133,-0.1355 -0.5546,-0.2328 -0.7239,-0.2921 -0.5334,-0.1947 -0.9144,-0.2921 -1.143,-0.2921 -0.6689,0 -1.2065,0.3154 -1.6129,0.9461 -0.4064,0.6308 -0.6096,1.4076 -0.6096,2.3305 0,1.0753 0.2286,1.8838 0.6858,2.4257 0.3725,0.4403 0.8424,0.6604 1.4097,0.6604 0.4403,0 0.8467,-0.2286 1.2192,-0.6858 0.3725,-0.4572 0.5588,-0.9567 0.5588,-1.4986l0 -0.1778c-0.2138,0.0762 -0.436,0.1524 -0.671,0.2286 -0.2349,0.0762 -0.4254,0.1143 -0.5694,0.1143 -0.1629,0 -0.3005,-0.0529 -0.4148,-0.1588 -0.1164,-0.1058 -0.1736,-0.2391 -0.1736,-0.4 0,-0.1016 0.055,-0.2032 0.1651,-0.3048 0.1101,-0.1016 0.2117,-0.1651 0.3048,-0.1905l2.3495 -0.7366c0.0762,-0.0254 0.1524,-0.0381 0.2286,-0.0381 0.1693,0 0.309,0.0508 0.4191,0.1524 0.1101,0.1016 0.1651,0.2498 0.1651,0.4445zm5.4991 0.0254c0,1.143 -0.2159,2.087 -0.6477,2.8321 -0.4657,0.8043 -1.0964,1.2065 -1.8923,1.2065 -0.9059,0 -1.6214,-0.436 -2.1463,-1.3081 -0.5249,-0.8721 -0.7874,-1.9685 -0.7874,-3.2893 0,-1.1938 0.2138,-2.1929 0.6414,-2.9972 0.4275,-0.8043 1.0054,-1.2065 1.7335,-1.2065 0.9398,0 1.6976,0.4699 2.2733,1.4097 0.5503,0.8975 0.8255,2.0151 0.8255,3.3528zm-1.0668 -0.0127c0,-1.0414 -0.1609,-1.9008 -0.4826,-2.5781 -0.3471,-0.7281 -0.8213,-1.0922 -1.4224,-1.0922 -0.3979,0 -0.726,0.3048 -0.9842,0.9144 -0.2583,0.6096 -0.3874,1.3674 -0.3874,2.2733 0,1.0245 0.1566,1.8542 0.4699,2.4892 0.3556,0.7197 0.8467,1.0795 1.4732,1.0795 0.381,0 0.6985,-0.2942 0.9525,-0.8827 0.254,-0.5884 0.381,-1.3229 0.381,-2.2034z"/>
  <path class="fil0" d="M85.9321 247.167c0,0.3217 -0.2963,0.58 -0.889,0.7747 -0.508,0.1693 -1.071,0.254 -1.6891,0.254 -0.3133,0 -0.5376,-0.1566 -0.6731,-0.4699 -0.1016,-0.2371 -0.1524,-0.5567 -0.1524,-0.9546 -0.0085,-0.3641 -0.0169,-0.6689 -0.0254,-0.9165 -0.0593,-1.7548 -0.0889,-3.0353 -0.0889,-3.8397 0,-0.9927 0.0254,-1.7928 0.0762,-2.4045l2.2479 -0.2794c0.0847,0 0.1439,0 0.1778,0 0.2201,0 0.3937,0.0402 0.5207,0.1206 0.127,0.0805 0.1905,0.2054 0.1905,0.3747 0,0.1439 -0.0847,0.2752 -0.254,0.3937 -0.1693,0.1185 -0.3598,0.199 -0.5715,0.2413l-1.1684 0.2159 0 2.5019 1.0414 -0.0508c0.3302,0 0.563,0.0593 0.6985,0.1778 0.1355,0.1185 0.2032,0.2794 0.2032,0.4826 0,0.1693 -0.0698,0.3069 -0.2095,0.4127 -0.1397,0.1059 -0.307,0.1588 -0.5017,0.1588l-1.1557 0.0762 0.0762 2.3495c0.1693,0 0.3916,-0.0191 0.6668,-0.0572 0.2751,-0.0381 0.5312,-0.074 0.7683,-0.1079 0.2117,0 0.3831,0.0402 0.5144,0.1206 0.1312,0.0805 0.1968,0.2223 0.1968,0.4255zm5.5118 -1.3335c0,0.7027 -0.2836,1.2721 -0.8509,1.7081 -0.5673,0.4361 -1.2658,0.6541 -2.0955,0.6541 -0.4572,0 -0.9271,-0.1228 -1.4097,-0.3683 -0.4826,-0.2455 -0.7239,-0.5122 -0.7239,-0.8001 0,-0.1185 0.0572,-0.2307 0.1715,-0.3366 0.1143,-0.1058 0.2434,-0.1587 0.3873,-0.1587 0.0508,0 0.3006,0.1037 0.7493,0.3111 0.4487,0.2075 0.7451,0.3112 0.889,0.3112 0.4572,0 0.8446,-0.1101 1.1621,-0.3302 0.3175,-0.2201 0.4762,-0.5249 0.4762,-0.9144 0,-0.4064 -0.3598,-0.7832 -1.0795,-1.1303 -0.6773,-0.3133 -1.3547,-0.6265 -2.032,-0.9398 -0.7281,-0.4233 -1.0922,-0.9144 -1.0922,-1.4732 0,-0.5927 0.3217,-1.1663 0.9652,-1.7209 0.6435,-0.5545 1.3504,-0.8318 2.1209,-0.8318 0.5419,0 0.889,0.0085 1.0414,0.0254 0.4826,0.0508 0.7239,0.2582 0.7239,0.6223 0,0.2625 -0.5884,0.4403 -1.7653,0.5334 -1.1769,0.0931 -1.7653,0.5292 -1.7653,1.3081 0,0.4149 0.3556,0.7451 1.0668,0.9906 1.2023,0.4064 1.8627,0.6435 1.9812,0.7112 0.7197,0.4064 1.0795,1.016 1.0795,1.8288zm6.0579 -6.0198c0,0.4995 -0.3492,0.7895 -1.0477,0.8699 -0.6985,0.0805 -1.1367,0.1376 -1.3145,0.1715l0.0762 5.9944c0,0.4487 -0.0296,0.7853 -0.0889,1.0096 -0.0593,0.2244 -0.1863,0.3366 -0.381,0.3366 -0.2286,0 -0.4085,-0.1651 -0.5397,-0.4953 -0.1313,-0.3302 -0.1969,-0.762 -0.1969,-1.2954 -0.0085,-0.3471 -0.0169,-0.8742 -0.0254,-1.5812 -0.0085,-0.7069 -0.019,-1.4689 -0.0317,-2.286 -0.0127,-0.817 -0.0191,-1.3313 -0.0191,-1.543 -0.1439,-0.0339 -0.3217,-0.0508 -0.5334,-0.0508 -0.2201,0 -0.436,0.0148 -0.6477,0.0444 -0.2117,0.0297 -0.3979,0.053 -0.5588,0.0699 -0.1947,0 -0.3429,-0.0296 -0.4445,-0.0889 -0.1439,-0.0847 -0.2159,-0.2328 -0.2159,-0.4445 0,-0.3217 0.2413,-0.5376 0.7239,-0.6477 0.3302,-0.0762 0.8805,-0.1143 1.651,-0.1143l0.7112 0c0.1185,-0.0169 0.5461,-0.0847 1.2827,-0.2032 0.5249,-0.0847 0.8424,-0.127 0.9525,-0.127 0.1693,0 0.3196,0.0296 0.4509,0.0889 0.1312,0.0593 0.1968,0.1566 0.1968,0.2921zm5.8293 8.1153c-0.0169,0.1101 -0.0423,0.1905 -0.0762,0.2413 -0.1016,0.1609 -0.2752,0.2413 -0.5207,0.2413 -0.7197,0 -1.5113,-0.3556 -2.3749,-1.0668 -0.8636,-0.7112 -1.2573,-1.2912 -1.1811,-1.7399 0,-0.0931 0.4699,-0.3725 1.4097,-0.8382 0.9398,-0.4657 1.4097,-0.9737 1.4097,-1.524 0,-0.5419 -0.2074,-1.0202 -0.6223,-1.4351 -0.4149,-0.4149 -0.9059,-0.6223 -1.4732,-0.6223 -0.3556,0 -0.6985,0.0762 -1.0287,0.2286l0 4.8387c0,0.9483 -0.0444,1.6616 -0.1312,2.1399 -0.0889,0.4784 -0.2329,0.7176 -0.4339,0.7176 -0.2519,0 -0.4276,-0.2561 -0.5292,-0.7684 -0.0995,-0.5122 -0.1503,-1.2467 -0.1503,-2.2034l0 -3.5941c0,-1.0922 0.1164,-1.7801 0.3493,-2.0638 0.2307,-0.2836 0.7916,-0.4254 1.6785,-0.4254 1.0223,0 1.833,0.2032 2.432,0.6096 0.6922,0.4657 1.0393,1.1642 1.0393,2.0955 0,0.8297 -0.1736,1.4436 -0.5207,1.8415 -0.3133,0.3556 -0.9948,0.7747 -2.0447,1.2573 0.4487,0.5588 0.9483,0.9779 1.4986,1.2573 0.8467,0.4318 1.27,0.7027 1.27,0.8128zm4.2799 -0.762c0,0.3217 -0.2963,0.58 -0.889,0.7747 -0.508,0.1693 -1.071,0.254 -1.6891,0.254 -0.3133,0 -0.5376,-0.1566 -0.6731,-0.4699 -0.1016,-0.2371 -0.1524,-0.5567 -0.1524,-0.9546 -0.0085,-0.3641 -0.0169,-0.6689 -0.0254,-0.9165 -0.0593,-1.7548 -0.0889,-3.0353 -0.0889,-3.8397 0,-0.9927 0.0254,-1.7928 0.0762,-2.4045l2.2479 -0.2794c0.0847,0 0.1439,0 0.1778,0 0.2201,0 0.3937,0.0402 0.5207,0.1206 0.127,0.0805 0.1905,0.2054 0.1905,0.3747 0,0.1439 -0.0847,0.2752 -0.254,0.3937 -0.1693,0.1185 -0.3598,0.199 -0.5715,0.2413l-1.1684 0.2159 0 2.5019 1.0414 -0.0508c0.3302,0 0.563,0.0593 0.6985,0.1778 0.1355,0.1185 0.2032,0.2794 0.2032,0.4826 0,0.1693 -0.0698,0.3069 -0.2095,0.4127 -0.1397,0.1059 -0.307,0.1588 -0.5017,0.1588l-1.1557 0.0762 0.0762 2.3495c0.1693,0 0.3916,-0.0191 0.6668,-0.0572 0.2751,-0.0381 0.5312,-0.074 0.7683,-0.1079 0.2117,0 0.3831,0.0402 0.5144,0.1206 0.1312,0.0805 0.1968,0.2223 0.1968,0.4255zm3.7719 0.4572c0.0254,0.2201 -0.2625,0.4466 -0.8636,0.6794 -0.6011,0.2329 -1.1726,0.3493 -1.7124,0.3493 -0.3767,0 -0.6307,-0.2582 -0.7662,-0.7747 -0.0995,-0.3979 -0.1503,-1.1176 -0.1503,-2.159 0,-0.3387 0,-0.6858 0,-1.0414 0,-0.3556 0,-0.7239 0,-1.1049 0,-2.3453 0.2455,-3.5179 0.7366,-3.5179 0.1863,0 0.3196,0.1651 0.4001,0.4953 0.0804,0.3302 0.1206,0.7916 0.1206,1.3843 0,0.2455 -0.0106,0.7429 -0.0317,1.4922 -0.0212,0.7493 -0.0318,1.2468 -0.0318,1.4923 0,0.5503 0.0106,0.9948 0.0318,1.3335 0.0211,0.3387 0.0613,0.6689 0.1206,0.9906 0.1693,0 0.3916,-0.0191 0.6668,-0.0572 0.2751,-0.0381 0.5312,-0.074 0.7683,-0.1079 0.2032,0 0.3641,0.0381 0.4826,0.1143 0.1185,0.0762 0.1947,0.2201 0.2286,0.4318zm3.8608 0c0.0254,0.2201 -0.2625,0.4466 -0.8636,0.6794 -0.6011,0.2329 -1.1726,0.3493 -1.7124,0.3493 -0.3767,0 -0.6307,-0.2582 -0.7662,-0.7747 -0.0995,-0.3979 -0.1503,-1.1176 -0.1503,-2.159 0,-0.3387 0,-0.6858 0,-1.0414 0,-0.3556 0,-0.7239 0,-1.1049 0,-2.3453 0.2455,-3.5179 0.7366,-3.5179 0.1863,0 0.3196,0.1651 0.4001,0.4953 0.0804,0.3302 0.1206,0.7916 0.1206,1.3843 0,0.2455 -0.0106,0.7429 -0.0317,1.4922 -0.0212,0.7493 -0.0318,1.2468 -0.0318,1.4923 0,0.5503 0.0106,0.9948 0.0318,1.3335 0.0211,0.3387 0.0613,0.6689 0.1206,0.9906 0.1693,0 0.3916,-0.0191 0.6668,-0.0572 0.2751,-0.0381 0.5312,-0.074 0.7683,-0.1079 0.2032,0 0.3641,0.0381 0.4826,0.1143 0.1185,0.0762 0.1947,0.2201 0.2286,0.4318zm5.1054 -0.127c0,0.3302 -0.0317,0.5842 -0.0952,0.762 -0.0635,0.1778 -0.18,0.2667 -0.3493,0.2667 -0.2371,0 -0.453,-0.3598 -0.6477,-1.0795 -0.1101,-0.4657 -0.2159,-0.9356 -0.3175,-1.4097l-2.159 0c-0.1185,0.4572 -0.2371,0.9144 -0.3556,1.3716 -0.1609,0.5503 -0.3937,0.8255 -0.6985,0.8255 -0.1778,0 -0.2836,-0.0254 -0.3175,-0.0762 -0.0677,-0.1016 -0.1016,-0.2752 -0.1016,-0.5207 0,-0.2032 0.0148,-0.4339 0.0445,-0.6922 0.0296,-0.2582 0.1037,-0.6117 0.2222,-1.0604 0.1185,-0.4487 0.2371,-0.8911 0.3556,-1.3272 0.1185,-0.436 0.3471,-1.2551 0.6858,-2.4574 0.254,-0.8975 0.4022,-1.3716 0.4445,-1.4224 0.2371,-0.8297 0.5884,-1.2446 1.0541,-1.2446 0.2286,0 0.4614,0.182 0.6985,0.5461 0.2371,0.3641 0.4064,0.8255 0.508,1.3843 0.0339,0.0593 0.1164,0.4381 0.2477,1.1366 0.1312,0.6985 0.2518,1.3526 0.3619,1.9622 0.0593,0.3471 0.1185,0.6858 0.1778,1.016 0.0593,0.3302 0.1143,0.7112 0.1651,1.143 0.0508,0.4318 0.0762,0.7239 0.0762,0.8763zm-1.5621 -2.5527l-0.6604 -4.1021 -1.1303 4.1021 1.7907 0zm7.5184 0.889c0,0.7027 -0.2836,1.2721 -0.8509,1.7081 -0.5673,0.4361 -1.2658,0.6541 -2.0955,0.6541 -0.4572,0 -0.9271,-0.1228 -1.4097,-0.3683 -0.4826,-0.2455 -0.7239,-0.5122 -0.7239,-0.8001 0,-0.1185 0.0572,-0.2307 0.1715,-0.3366 0.1143,-0.1058 0.2434,-0.1587 0.3873,-0.1587 0.0508,0 0.3006,0.1037 0.7493,0.3111 0.4487,0.2075 0.7451,0.3112 0.889,0.3112 0.4572,0 0.8446,-0.1101 1.1621,-0.3302 0.3175,-0.2201 0.4762,-0.5249 0.4762,-0.9144 0,-0.4064 -0.3598,-0.7832 -1.0795,-1.1303 -0.6773,-0.3133 -1.3547,-0.6265 -2.032,-0.9398 -0.7281,-0.4233 -1.0922,-0.9144 -1.0922,-1.4732 0,-0.5927 0.3217,-1.1663 0.9652,-1.7209 0.6435,-0.5545 1.3504,-0.8318 2.1209,-0.8318 0.5419,0 0.889,0.0085 1.0414,0.0254 0.4826,0.0508 0.7239,0.2582 0.7239,0.6223 0,0.2625 -0.5884,0.4403 -1.7653,0.5334 -1.1769,0.0931 -1.7653,0.5292 -1.7653,1.3081 0,0.4149 0.3556,0.7451 1.0668,0.9906 1.2023,0.4064 1.8627,0.6435 1.9812,0.7112 0.7197,0.4064 1.0795,1.016 1.0795,1.8288z"/>
  <g id="_639667136">
   <path id="_639074144" class="fil1" d="M88.9455 147.966c0,0 -51.785,8.5521 -60.981,-5.5175 -9.1961,-14.0696 27.4121,-27.4154 27.4121,-27.4154 0,0 -31.8256,-25.3638 -3.3813,-47.6637 28.4444,-22.3 56.3522,15.4754 56.3522,15.4754 0,0 61.9138,-11.1981 72.0779,8.3178 10.1641,19.5159 -41.4869,25.9264 -41.4869,25.9264 0,0 6.6387,52.1372 -49.993,30.877z"/>
   <polygon id="_639074816" class="fil2" points="57.842,98.1812 55.861,97.9522 55.4917,96.574 54.7754,97.8989 52.9539,97.5782 54.3929,99.0625 53.7208,100.977 55.278,100.076 56.4101,101.011 56.1493,99.4499 "/>
   <polygon id="_639074504" class="fil3" points="169.706,98.0876 168.354,94.9648 170.076,93.2433 167.507,93.3151 166.427,90.3499 165.461,93.7426 162.058,94.3831 164.719,95.9151 164.303,98.3857 166.387,96.6686 "/>
   <polygon id="_639074696" class="fil4" points="70.8951,81.4562 75.7285,77.6243 79.5504,79.8311 78.2193,75.3666 82.9043,72.0844 76.5111,71.9853 73.7933,66.3278 72.3592,71.7052 67.8382,72.1361 71.8224,74.9794 "/>
   <polygon id="_639074912" class="fil5" points="101.433,116.382 101.883,112.483 104.596,111.756 101.988,110.346 102.619,106.761 99.698,109.593 95.9292,108.27 97.7037,111.335 95.8632,113.563 98.9354,113.05 "/>
   <polygon id="_639075008" class="fil6" points="96.0498,90.1009 94.2914,89.5116 94.2205,88.1866 93.314,89.2544 91.7185,88.6123 92.7422,90.2394 91.7626,91.8522 93.3527,91.3315 94.2028,92.3999 94.2657,90.9297 "/>
   <polygon id="_639075200" class="fil6" points="63.66,129.661 70.164,133.971 69.0093,139.433 73.8561,136.081 79.6409,140.428 77.2523,132.7 82.9899,127.213 75.9606,127.597 73.6691,122.33 71.8126,128.236 "/>
   <polygon id="_639075344" class="fil4" points="42.9236,139.441 41.5718,136.319 43.2935,134.597 40.7244,134.669 39.6443,131.704 38.6786,135.096 35.2758,135.737 37.9365,137.269 37.5206,139.74 39.6046,138.023 "/>
   <polygon id="_639075632" class="fil4" points="124.437,132.137 119.38,131.552 118.437,128.034 116.608,131.416 111.958,130.597 115.632,134.387 113.916,139.275 117.891,136.973 120.782,139.36 120.116,135.376 "/>
   <polygon id="_639075152" class="fil4" points="138.693,89.586 136.538,89.9045 135.759,88.5547 135.378,90.1551 133.365,90.3317 135.303,91.4909 135.135,93.7012 136.524,92.3098 137.982,92.9763 137.266,91.4032 "/>
   <polygon id="_639070400" class="fil7" points="76.1839,102.679 74.618,102.869 74.0793,101.878 73.7732,103.029 72.3131,103.119 73.6941,103.995 73.5311,105.592 74.5621,104.61 75.6056,105.12 75.1165,103.968 "/>
   <polygon id="_639042944" class="fil7" points="54.3606,132.763 54.7644,130.492 56.3816,130.163 54.9024,129.243 55.4009,127.162 53.586,128.719 51.4228,127.808 52.3539,129.67 51.1947,130.911 53.0151,130.72 "/>
   <polygon id="_639666560" class="fil7" points="95.046,144.18 97.3381,143.922 98.1131,145.38 98.5754,143.7 100.712,143.587 98.7035,142.289 98.9623,139.956 97.4422,141.378 95.9229,140.619 96.6232,142.31 "/>
   <polygon id="_639665864" class="fil7" points="147.955,102.59 150.247,102.333 151.022,103.79 151.485,102.11 153.621,101.997 151.613,100.699 151.872,98.3663 150.351,99.7877 148.832,99.0287 149.533,100.72 "/>
   <polygon id="_639666152" class="fil7" points="131.525,118.959 129.959,119.149 129.42,118.157 129.114,119.308 127.654,119.398 129.035,120.274 128.872,121.871 129.903,120.89 130.947,121.4 130.457,120.247 "/>
   <polygon id="_639666296" class="fil7" points="51.6382,82.8429 53.9303,82.5851 54.7053,84.0422 55.1676,82.3626 57.3038,82.2497 55.2957,80.9517 55.5545,78.6189 54.0344,80.0403 52.5151,79.2813 53.2154,80.9724 "/>
   <polygon id="_639667712" class="fil7" points="118.752,101.622 119.621,96.7323 123.103,96.0234 119.918,94.0418 120.992,89.5627 117.084,92.9147 112.426,90.9538 114.431,94.9614 111.935,97.6337 115.855,97.222 "/>
  </g>
  <g id="_639667424">
   <path id="_639666728" class="fil8" d="M265.618 160.068c7.4403,-14.172 37.8899,-15.162 37.8899,-15.162 0,0 -54.1877,-17.0793 -10.6088,-23.1024 43.5789,-6.0231 65.5455,23.3838 65.5455,23.3838 0,0 21.9985,10.2428 11.6919,20.5494 -10.3066,10.3066 -53.8536,2.8344 -53.8536,2.8344 0,0 -50.6649,10.629 -50.6649,-8.5032z"/>
   <path id="_639666872" class="fil4" d="M320.46 52.5213c16.8129,9.2344 17.9258,31.6074 14.0774,42.166 0,0 4.3628,-8.0591 12.7828,-11.8573 8.4199,-3.7982 4.7439,-15.5201 4.7439,-15.5201 0,0 9.1226,13.2755 3.4974,25.201 -5.6252,11.9256 -2.8185,21.1579 -2.8185,21.1579 0,0 4.7277,-10.5146 14.5769,-8.4788 0,0 -11.2326,6.8921 -9.0849,21.142 2.4497,16.2538 -11.4337,34.2405 -34.0292,34.5165 -18.9951,0.2319 -27.2455,-9.1611 -32.772,-22.3541 -6.9748,-16.6503 -20.2509,-16.5072 -20.2509,-16.5072 12.3043,-9.9678 27.0011,1.1251 27.0011,1.1251 0,0 -18.2222,-11.9219 -15.7471,-25.4225 2.4751,-13.5006 -4.9537,-21.1545 -4.9537,-21.1545 0,0 10.6896,1.9109 14.5148,12.0363 3.8251,10.1254 9.7862,8.4395 9.7862,8.4395 0,0 0.3067,-14.4715 10.2252,-18.9898 9.9185,-4.5182 8.4506,-25.5 8.4506,-25.5z"/>
   <g style="clip-path:url(#id0)">
    <g>
     <g>
      <path id="_6396772881" class="fil9" d="M320.562 92.9591c0,0 4.9393,24.1347 -7.6468,21.5902 -5.0475,-1.0204 -6.9974,-10.6813 -7.4284,-10.0182 -7.2143,11.0984 13.3668,31.9042 -4.2792,22.1831 -8.315,-4.5807 -14.172,-3.6038 -14.172,-3.6038 0,0 10.1254,8.7754 12.3755,17.1008 2.2501,8.3253 12.123,20.5757 22.979,20.6056 10.856,0.0299 21.3479,-6.43 24.9481,-18.8056 3.6001,-12.3755 7.6503,-20.9259 7.6503,-20.9259 0,0 -6.7503,0.9001 -10.5755,7.2004 -3.8251,6.3002 -6.7503,5.6252 -6.7503,5.6252 0,0 -6.5252,-7.7706 0,-14.4608 6.5253,-6.6901 4.7252,-15.9155 4.7252,-15.9155 0,0 -1.3285,8.0789 -8.7646,8.7646 -7.436,0.6858 -1.8108,-15.5149 -13.0613,-19.3401z"/>
      <path id="_639676760" class="fil10" d="M320.562 121.535c0,0 -3.3751,5.1752 -1.35,12.8255 2.025,7.6503 -6.0753,10.8005 -5.8503,18.6758 0.225,7.8753 6.8562,9.4497 13.4998,7.4207 6.6437,-2.029 7.8761,-10.7958 4.501,-18.2212 -3.3752,-7.4253 -10.3505,-2.9533 -10.8005,-20.7008z"/>
     </g>
    </g>
   </g>
   <path class="fil11 str0" d="M320.46 52.5213c16.8129,9.2344 17.9258,31.6074 14.0774,42.166 0,0 4.3628,-8.0591 12.7828,-11.8573 8.4199,-3.7982 4.7439,-15.5201 4.7439,-15.5201 0,0 9.1226,13.2755 3.4974,25.201 -5.6252,11.9256 -2.8185,21.1579 -2.8185,21.1579 0,0 4.7277,-10.5146 14.5769,-8.4788 0,0 -11.2326,6.8921 -9.0849,21.142 2.4497,16.2538 -11.4337,34.2405 -34.0292,34.5165 -18.9951,0.2319 -27.2455,-9.1611 -32.772,-22.3541 -6.9748,-16.6503 -20.2509,-16.5072 -20.2509,-16.5072 12.3043,-9.9678 27.0011,1.1251 27.0011,1.1251 0,0 -18.2222,-11.9219 -15.7471,-25.4225 2.4751,-13.5006 -4.9537,-21.1545 -4.9537,-21.1545 0,0 10.6896,1.9109 14.5148,12.0363 3.8251,10.1254 9.7862,8.4395 9.7862,8.4395 0,0 0.3067,-14.4715 10.2252,-18.9898 9.9185,-4.5182 8.4506,-25.5 8.4506,-25.5z"/>
  </g>
 </g>
</svg>
