<?xml version="1.0" encoding="UTF-8"?>
<!DOCTYPE svg PUBLIC "-//W3C//DTD SVG 1.1//EN" "http://www.w3.org/Graphics/SVG/1.1/DTD/svg11.dtd">
<!-- Creator: CorelDRAW -->
<svg xmlns="http://www.w3.org/2000/svg" xml:space="preserve" width="420mm" height="297mm" style="shape-rendering:geometricPrecision; text-rendering:geometricPrecision; image-rendering:optimizeQuality; fill-rule:evenodd; clip-rule:evenodd"
viewBox="0 0 420 297"
 xmlns:xlink="http://www.w3.org/1999/xlink">
 <defs>
  <style type="text/css">
   <![CDATA[
    .str0 {stroke:#70B0C3;stroke-width:0.75;stroke-linecap:round;stroke-linejoin:round}
    .fil6 {fill:#969594}
    .fil5 {fill:#DEDEDD}
    .fil3 {fill:white}
    .fil4 {fill:#9DCFDC}
    .fil1 {fill:#1F1A17;fill-rule:nonzero}
    .fil0 {fill:#838281;fill-opacity:0.501961}
    .fil2 {fill:#9DCFDC;fill-opacity:0.501961}
   ]]>
  </style>
 </defs>
 <g id="Capa_x0020_1">
  <metadata id="CorelCorpID_0Corel-Layer"/>
  <path class="fil0" d="M262.757 92.0934c0,0 -33.4022,2.5052 -32.1496,16.2836 1.2526,13.7784 29.227,16.2836 29.227,16.2836 0,0 9.1856,25.8867 50.9383,25.8867 41.7528,0 49.2683,-17.9537 49.2683,-17.9537 0,0 22.964,-6.6804 23.7991,-34.2373 0.835,-27.5568 -18.7888,-33.4022 -18.7888,-33.4022 0,0 -6.3293,-40.5666 -39.9071,-39.9071 -33.5777,0.6595 -32.7427,19.4483 -32.7427,19.4483 -52.8873,-20.9725 -88.6538,12.1925 -29.6445,47.5981z"/>
  <path class="fil1" d="M105.944 236.919l0 3.4036 0 0.5461c0,1.143 -0.0529,1.9177 -0.1587,2.3241 -0.1059,0.4064 -0.2604,0.6096 -0.4636,0.6096 -0.4149,0 -0.8213,-0.3598 -1.2192,-1.0795 -0.2032,-0.3725 -0.5482,-1.1875 -1.035,-2.4448 -0.4869,-1.2573 -0.8996,-2.178 -1.2383,-2.7622 0,0.2709 0.0085,0.8276 0.0254,1.67 0.0169,0.8425 0.0254,1.3357 0.0254,1.4796 0,0.8213 -0.0339,1.452 -0.1016,1.8923 -0.0677,0.4403 -0.199,0.6604 -0.3937,0.6604 -0.2794,0 -0.4805,-0.235 -0.6032,-0.7049 -0.1228,-0.4699 -0.1842,-1.1154 -0.1842,-1.9367l0 -3.5814c0,-0.7874 0.0402,-1.3907 0.1207,-1.8098 0.0804,-0.4191 0.2391,-0.6286 0.4762,-0.6286 0.2879,0 0.6816,0.4784 1.1811,1.4351 0.3302,0.635 0.7726,1.615 1.3272,2.94 0.5545,1.3251 0.9122,2.1527 1.0731,2.4829l-0.0889 -4.2291c0,-0.9991 0.0466,-1.7738 0.1397,-2.3241 0.0931,-0.5503 0.2582,-0.8255 0.4953,-0.8255 0.2328,0 0.3937,0.2498 0.4847,0.7493 0.091,0.4995 0.1376,1.2107 0.1376,2.1336zm6.4516 2.032c0,1.1176 -0.2709,2.0786 -0.8128,2.8829 -0.5673,0.8382 -1.27,1.2573 -2.1082,1.2573 -0.7959,0 -1.4393,-0.2836 -1.9304,-0.8509 -0.6096,-0.7027 -0.9144,-1.778 -0.9144,-3.2258 0,-1.0075 0.182,-2.0511 0.5461,-3.1306 0.3641,-1.0795 0.7366,-1.6192 1.1176,-1.6192 0.3302,0 0.4953,0.2074 0.4953,0.6223 0,0.2286 -0.1778,0.8721 -0.5334,1.9304 -0.3556,1.0583 -0.5334,1.7992 -0.5334,2.2225 0,1.0668 0.1778,1.8288 0.5334,2.286 0.2879,0.3725 0.7027,0.5588 1.2446,0.5588 0.5673,0 1.0033,-0.3175 1.3081,-0.9525 0.2709,-0.5588 0.4064,-1.2785 0.4064,-2.159 0,-0.254 -0.0614,-0.8488 -0.1841,-1.7844 -0.1228,-0.9355 -0.1842,-1.488 -0.1842,-1.6573 0,-0.6519 0.182,-1.0033 0.5461,-1.0541 0.3048,-0.0339 0.5546,0.4572 0.7493,1.4732 0.1693,0.8975 0.254,1.9643 0.254,3.2004zm5.2451 -2.2606c0,0.3979 -0.1439,0.762 -0.4318,1.0922 -0.2117,0.2455 -0.6181,0.58 -1.2192,1.0033l0.7874 0.2032c0.2032,0.1016 0.3048,0.4022 0.3048,0.9017 0,0.9483 -0.4445,1.8711 -1.3335,2.7686 -0.7874,0.7959 -1.4605,1.1938 -2.0193,1.1938 -0.1778,0 -0.2963,-0.4593 -0.3556,-1.378 -0.0593,-0.9186 -0.0889,-2.305 -0.0889,-4.1592 0,-0.8128 0.0042,-1.433 0.0127,-1.8606 0.0085,-0.4275 0.0169,-0.8403 0.0254,-1.2382 0.2286,-0.0169 0.4445,-0.0318 0.6477,-0.0445 0.2032,-0.0127 0.3429,-0.019 0.4191,-0.019 1.1515,0 1.9812,0.1312 2.4892,0.3937 0.508,0.2625 0.762,0.6435 0.762,1.143zm-1.1303 0.2032c0,-0.2117 -0.1016,-0.3641 -0.3048,-0.4572 -0.3048,-0.1439 -0.8636,-0.2159 -1.6764,-0.2159 -0.0169,0.1609 -0.0296,0.4762 -0.0381,0.9461 -0.0085,0.4699 -0.0127,0.9758 -0.0127,1.5177 0.3979,-0.2286 0.7959,-0.4614 1.1938,-0.6985 0.5588,-0.3556 0.8382,-0.7197 0.8382,-1.0922zm-0.5842 3.3274c0,-0.0762 0,-0.1355 0,-0.1778 0,-0.1101 -0.0085,-0.1863 -0.0254,-0.2286 -0.0593,-0.1439 -0.2117,-0.2159 -0.4572,-0.2159 -0.1609,0 -0.3387,0.0402 -0.5334,0.1206 -0.1947,0.0805 -0.3514,0.18 -0.4699,0.2985l0 2.2606c0.4233,-0.1693 0.7768,-0.4466 1.0605,-0.8319 0.2836,-0.3852 0.4254,-0.7937 0.4254,-1.2255zm5.8928 1.8288c0,0.3217 -0.2963,0.58 -0.889,0.7747 -0.508,0.1693 -1.071,0.254 -1.6891,0.254 -0.3133,0 -0.5376,-0.1566 -0.6731,-0.4699 -0.1016,-0.2371 -0.1524,-0.5567 -0.1524,-0.9546 -0.0085,-0.3641 -0.0169,-0.6689 -0.0254,-0.9165 -0.0593,-1.7548 -0.0889,-3.0353 -0.0889,-3.8397 0,-0.9927 0.0254,-1.7928 0.0762,-2.4045l2.2479 -0.2794c0.0847,0 0.1439,0 0.1778,0 0.2201,0 0.3937,0.0402 0.5207,0.1206 0.127,0.0805 0.1905,0.2054 0.1905,0.3747 0,0.1439 -0.0847,0.2752 -0.254,0.3937 -0.1693,0.1185 -0.3598,0.199 -0.5715,0.2413l-1.1684 0.2159 0 2.5019 1.0414 -0.0508c0.3302,0 0.563,0.0593 0.6985,0.1778 0.1355,0.1185 0.2032,0.2794 0.2032,0.4826 0,0.1693 -0.0698,0.3069 -0.2095,0.4127 -0.1397,0.1059 -0.307,0.1588 -0.5017,0.1588l-1.1557 0.0762 0.0762 2.3495c0.1693,0 0.3916,-0.0191 0.6668,-0.0572 0.2751,-0.0381 0.5312,-0.074 0.7683,-0.1079 0.2117,0 0.3831,0.0402 0.5144,0.1206 0.1312,0.0805 0.1968,0.2223 0.1968,0.4255zm5.5118 -1.3335c0,0.7027 -0.2836,1.2721 -0.8509,1.7081 -0.5673,0.4361 -1.2658,0.6541 -2.0955,0.6541 -0.4572,0 -0.9271,-0.1228 -1.4097,-0.3683 -0.4826,-0.2455 -0.7239,-0.5122 -0.7239,-0.8001 0,-0.1185 0.0572,-0.2307 0.1715,-0.3366 0.1143,-0.1058 0.2434,-0.1587 0.3873,-0.1587 0.0508,0 0.3006,0.1037 0.7493,0.3111 0.4487,0.2075 0.7451,0.3112 0.889,0.3112 0.4572,0 0.8446,-0.1101 1.1621,-0.3302 0.3175,-0.2201 0.4762,-0.5249 0.4762,-0.9144 0,-0.4064 -0.3598,-0.7832 -1.0795,-1.1303 -0.6773,-0.3133 -1.3547,-0.6265 -2.032,-0.9398 -0.7281,-0.4233 -1.0922,-0.9144 -1.0922,-1.4732 0,-0.5927 0.3217,-1.1663 0.9652,-1.7209 0.6435,-0.5545 1.3504,-0.8318 2.1209,-0.8318 0.5419,0 0.889,0.0085 1.0414,0.0254 0.4826,0.0508 0.7239,0.2582 0.7239,0.6223 0,0.2625 -0.5884,0.4403 -1.7653,0.5334 -1.1769,0.0931 -1.7653,0.5292 -1.7653,1.3081 0,0.4149 0.3556,0.7451 1.0668,0.9906 1.2023,0.4064 1.8627,0.6435 1.9812,0.7112 0.7197,0.4064 1.0795,1.016 1.0795,1.8288z"/>
  <path class="fil1" d="M297.553 242.304c0.0254,0.2201 -0.2625,0.4466 -0.8636,0.6794 -0.6011,0.2329 -1.1726,0.3493 -1.7124,0.3493 -0.3767,0 -0.6307,-0.2582 -0.7662,-0.7747 -0.0995,-0.3979 -0.1503,-1.1176 -0.1503,-2.159 0,-0.3387 0,-0.6858 0,-1.0414 0,-0.3556 0,-0.7239 0,-1.1049 0,-2.3453 0.2455,-3.5179 0.7366,-3.5179 0.1863,0 0.3196,0.1651 0.4001,0.4953 0.0804,0.3302 0.1206,0.7916 0.1206,1.3843 0,0.2455 -0.0106,0.7429 -0.0317,1.4922 -0.0212,0.7493 -0.0318,1.2468 -0.0318,1.4923 0,0.5503 0.0106,0.9948 0.0318,1.3335 0.0211,0.3387 0.0613,0.6689 0.1206,0.9906 0.1693,0 0.3916,-0.0191 0.6668,-0.0572 0.2751,-0.0381 0.5312,-0.074 0.7683,-0.1079 0.2032,0 0.3641,0.0381 0.4826,0.1143 0.1185,0.0762 0.1947,0.2201 0.2286,0.4318zm3.8608 0c0.0254,0.2201 -0.2625,0.4466 -0.8636,0.6794 -0.6011,0.2329 -1.1726,0.3493 -1.7124,0.3493 -0.3767,0 -0.6307,-0.2582 -0.7662,-0.7747 -0.0995,-0.3979 -0.1503,-1.1176 -0.1503,-2.159 0,-0.3387 0,-0.6858 0,-1.0414 0,-0.3556 0,-0.7239 0,-1.1049 0,-2.3453 0.2455,-3.5179 0.7366,-3.5179 0.1863,0 0.3196,0.1651 0.4001,0.4953 0.0804,0.3302 0.1206,0.7916 0.1206,1.3843 0,0.2455 -0.0106,0.7429 -0.0317,1.4922 -0.0212,0.7493 -0.0318,1.2468 -0.0318,1.4923 0,0.5503 0.0106,0.9948 0.0318,1.3335 0.0211,0.3387 0.0613,0.6689 0.1206,0.9906 0.1693,0 0.3916,-0.0191 0.6668,-0.0572 0.2751,-0.0381 0.5312,-0.074 0.7683,-0.1079 0.2032,0 0.3641,0.0381 0.4826,0.1143 0.1185,0.0762 0.1947,0.2201 0.2286,0.4318zm5.9944 -3.556c0,1.1176 -0.2709,2.0786 -0.8128,2.8829 -0.5673,0.8382 -1.27,1.2573 -2.1082,1.2573 -0.7959,0 -1.4393,-0.2836 -1.9304,-0.8509 -0.6096,-0.7027 -0.9144,-1.778 -0.9144,-3.2258 0,-1.0075 0.182,-2.0511 0.5461,-3.1306 0.3641,-1.0795 0.7366,-1.6192 1.1176,-1.6192 0.3302,0 0.4953,0.2074 0.4953,0.6223 0,0.2286 -0.1778,0.8721 -0.5334,1.9304 -0.3556,1.0583 -0.5334,1.7992 -0.5334,2.2225 0,1.0668 0.1778,1.8288 0.5334,2.286 0.2879,0.3725 0.7027,0.5588 1.2446,0.5588 0.5673,0 1.0033,-0.3175 1.3081,-0.9525 0.2709,-0.5588 0.4064,-1.2785 0.4064,-2.159 0,-0.254 -0.0614,-0.8488 -0.1841,-1.7844 -0.1228,-0.9355 -0.1842,-1.488 -0.1842,-1.6573 0,-0.6519 0.182,-1.0033 0.5461,-1.0541 0.3048,-0.0339 0.5546,0.4572 0.7493,1.4732 0.1693,0.8975 0.254,1.9643 0.254,3.2004zm5.4102 -4.3815c0,0.3217 -0.1482,1.0837 -0.4445,2.286 -0.254,1.016 -0.5292,2.0553 -0.8255,3.1178 -0.2963,1.0626 -0.4487,1.5939 -0.4572,1.5939 -0.146,0.5419 -0.29,0.9567 -0.4339,1.2446 -0.1778,0.3641 -0.3683,0.563 -0.5715,0.5969 -0.3302,0.0593 -0.6731,-0.7154 -1.0287,-2.3241l-0.8869 -4.0386c-0.0931,-0.4064 -0.1397,-0.7959 -0.1397,-1.1684 0,-0.2201 0.0275,-0.362 0.0826,-0.4255 0.055,-0.0635 0.1375,-0.0867 0.2476,-0.0698 0.1439,0.0169 0.2731,0.1016 0.3874,0.254 0.1143,0.1524 0.201,0.3387 0.2603,0.5588l1.143 4.7244c0.2963,-0.9737 0.6265,-2.2352 0.9906,-3.7846 0.2709,-1.1684 0.4826,-1.9389 0.635,-2.3114 0.2117,-0.5249 0.4784,-0.7874 0.8001,-0.7874 0.1609,0 0.2413,0.1778 0.2413,0.5334zm1.9939 7.5692c0,0.6943 -0.0423,1.198 -0.1249,1.5113 -0.1058,0.4064 -0.2921,0.6096 -0.5567,0.6096 -0.1418,0 -0.2434,-0.1714 -0.3048,-0.5143 -0.0613,-0.343 -0.0931,-0.8192 -0.0931,-1.4288l-0.1651 -5.6642c0,-0.3895 0.0445,-0.69 0.1334,-0.9017 0.0889,-0.2117 0.2561,-0.3175 0.5016,-0.3175 0.2371,0 0.3979,0.2074 0.4826,0.6223 0.0847,0.4149 0.127,1.1261 0.127,2.1336l0 3.9497zm5.9817 0.2413c0,0.3302 -0.0317,0.5842 -0.0952,0.762 -0.0635,0.1778 -0.18,0.2667 -0.3493,0.2667 -0.2371,0 -0.453,-0.3598 -0.6477,-1.0795 -0.1101,-0.4657 -0.2159,-0.9356 -0.3175,-1.4097l-2.159 0c-0.1185,0.4572 -0.2371,0.9144 -0.3556,1.3716 -0.1609,0.5503 -0.3937,0.8255 -0.6985,0.8255 -0.1778,0 -0.2836,-0.0254 -0.3175,-0.0762 -0.0677,-0.1016 -0.1016,-0.2752 -0.1016,-0.5207 0,-0.2032 0.0148,-0.4339 0.0445,-0.6922 0.0296,-0.2582 0.1037,-0.6117 0.2222,-1.0604 0.1185,-0.4487 0.2371,-0.8911 0.3556,-1.3272 0.1185,-0.436 0.3471,-1.2551 0.6858,-2.4574 0.254,-0.8975 0.4022,-1.3716 0.4445,-1.4224 0.2371,-0.8297 0.5884,-1.2446 1.0541,-1.2446 0.2286,0 0.4614,0.182 0.6985,0.5461 0.2371,0.3641 0.4064,0.8255 0.508,1.3843 0.0339,0.0593 0.1164,0.4381 0.2477,1.1366 0.1312,0.6985 0.2518,1.3526 0.3619,1.9622 0.0593,0.3471 0.1185,0.6858 0.1778,1.016 0.0593,0.3302 0.1143,0.7112 0.1651,1.143 0.0508,0.4318 0.0762,0.7239 0.0762,0.8763zm-1.5621 -2.5527l-0.6604 -4.1021 -1.1303 4.1021 1.7907 0z"/>
  <path class="fil2" d="M69.2362 83.5009c0,0 -33.4022,-2.5052 -32.1496,-16.2836 1.2526,-13.7784 29.2269,-16.2836 29.2269,-16.2836 0,0 9.1857,-25.8867 50.9384,-25.8867 41.7528,0 49.2683,17.9537 49.2683,17.9537 0,0 22.964,6.6804 23.7991,34.2373 0.835,27.5568 -18.7888,33.4022 -18.7888,33.4022 0,0 -6.3293,40.5666 -39.9071,39.9071 -33.5777,-0.6595 -32.7427,-19.4483 -32.7427,-19.4483 -52.8873,20.9725 -88.6538,-12.1925 -29.6445,-47.5981z"/>
  <g id="_639659648">
   <path id="_639658592" class="fil3 str0" d="M120.818 90.0207c-9.7547,-3.682 -16.9299,4.4297 -9.9163,9.3042 -18.1362,-1.9328 -17.7204,9.8614 -7.7127,11.9975 7.3447,9.882 23.362,10.206 28.4023,0.7346 7.2827,7.2826 25.7856,10.5064 34.9838,0.2203 16.5341,1.1765 15.993,-11.7588 1.8855,-13.1963 2.1054,-13.5704 -11.1836,-16.8814 -14.4657,-8.8155 -5.3633,-9.4407 -16.5713,-7.8762 -20.5672,-1.8363 -0.9354,-9.9977 -13.0162,-8.438 -12.6097,1.5915z"/>
   <path id="_639659432" class="fil4" d="M165.549 110.161c6.681,0.4912 7.0454,-5.4091 1.5473,-6.2861 -3.1954,3.7495 -8.5804,3.1011 -11.3066,-0.6929 -1.7547,7.4384 -9.7145,4.2913 -11.4709,1.3634 0.4854,5.0408 -1.5161,9.4468 -8.9521,6.6341 7.5091,8.0515 27.6839,5.6795 30.1823,-1.0185z"/>
   <path id="_639658784" class="fil4" d="M105.007 105.302c-4.7249,0.5108 -3.5906,4.4695 -0.069,3.9587 2.746,7.141 11.07,8.5273 16.9794,6.9696 -5.561,0.4476 -12.2987,-4.7 -7.5343,-10.9283 -3.9755,4.3977 -7.6107,2.8262 -9.3761,0z"/>
   <path id="_639659072" class="fil4" d="M128.926 84.346c2.7136,1.1629 3.338,4.9381 3.0648,7.5343 0,0 -5.696,-1.1009 -6.1296,4.5972 0,0 0.297,-2.5835 -4.5855,-3.6405 0,0 4.5297,-0.1104 4.7417,-3.5865 3.0048,0.3246 4.1933,-1.8109 2.9086,-4.9045z"/>
   <path id="_639659192" class="fil3 str0" d="M66.9554 59.0431c-6.923,-5.7651 -13.4337,1.465 -6.9071,5.6347 -13.1986,-2.5275 -15.4262,7.4525 -5.453,9.2701 6.2008,8.0874 28.5446,8.5247 35.4908,1.9995 4.4014,6.0167 18.2545,6.9796 23.0381,-2.363 16.4921,-0.7249 13.6057,-12.141 1.4541,-12.3601 -0.4062,-7.7198 -9.754,-8.578 -11.6331,-2.1812 -1.2007,-14.4243 -19.1939,-13.9727 -21.9937,-3.9989 -4.4887,-7.1818 -15.1027,-4.7634 -13.9961,3.9989z"/>
   <path id="_639659384" class="fil4" d="M95.1479 51.438c4.4527,0.6956 6.2891,5.6019 5.6126,9.5859 4.6539,0.3104 6.1317,2.6311 4.7541,6.4108 -0.1531,-3.2073 -7.8609,-5.5137 -10.0123,-0.5042 0.8371,-3.897 -2.5712,-6.1618 -6.1185,-5.7525 0,0 8.6428,-3.0142 5.7641,-9.74z"/>
   <path id="_639659720" class="fil4" d="M52.4144 69.5137c0.1139,3.1367 3.8385,2.6064 3.8385,2.6064 2.4867,4.5657 10.5612,7.2806 17.5406,6.0445 -7.4391,-1.286 -5.6623,-5.4793 -4.1157,-7.5012 0,0 -6.7695,1.4461 -6.5058,-3.8051 0,0 -0.9191,5.7973 -10.7576,2.6554z"/>
   <path id="_639659528" class="fil4" d="M111.543 69.4217c0,0 3.9599,-0.1583 3.15,-2.835 4.8151,-0.9353 7.9653,4.3929 -0.525,5.46 0,0 -0.2913,-2.5067 -2.625,-2.625z"/>
  </g>
  <path class="fil4" d="M116.755 55.1148c0,0 9.6782,1.143 18.6476,-4.7607 8.9694,-5.9036 25.9766,0.1599 25.9766,0.1599 0,0 -18.7625,-3.7326 -25.9264,2.3604 -7.1639,6.0931 -18.6978,2.2404 -18.6978,2.2404z"/>
  <path class="fil4" d="M85.3003 111.437c0,0 -7.7612,-0.9166 -14.954,3.8177 -7.1928,4.7342 -20.8313,-0.1282 -20.8313,-0.1282 0,0 15.0461,2.9933 20.791,-1.8929 5.745,-4.8862 14.9943,-1.7966 14.9943,-1.7966z"/>
  <path class="fil4" d="M177.988 69.7497c0,0 -7.3778,-0.8712 -14.2152,3.6292 -6.8375,4.5004 -19.8023,-0.1219 -19.8023,-0.1219 0,0 14.3028,2.8454 19.764,-1.7994 5.4611,-4.6448 14.2535,-1.7079 14.2535,-1.7079z"/>
  <path class="fil4" d="M97.053 91.3081c0,0 -5.8442,-0.6902 -11.2604,2.8747 -5.4162,3.5649 -15.6861,-0.0965 -15.6861,-0.0965 0,0 11.3298,2.254 15.6558,-1.4254 4.3259,-3.6793 11.2907,-1.3528 11.2907,-1.3528z"/>
  <g id="_639663680">
   <path id="_639660848" class="fil5" d="M317.039 91.5443c-9.7547,-3.682 -16.9299,4.4297 -9.9163,9.3042 -18.1362,-1.9328 -17.7204,9.8614 -7.7127,11.9975 7.3447,9.882 23.362,10.206 28.4023,0.7346 7.2827,7.2826 25.7856,10.5064 34.9838,0.2203 16.5341,1.1765 15.993,-11.7588 1.8855,-13.1963 2.1054,-13.5704 -11.1836,-16.8814 -14.4657,-8.8155 -5.3633,-9.4407 -16.5713,-7.8762 -20.5672,-1.8363 -0.9354,-9.9977 -13.0162,-8.438 -12.6097,1.5915z"/>
   <path id="_639660224" class="fil6" d="M361.769 111.685c6.681,0.4912 7.0454,-5.4091 1.5473,-6.2861 -3.1954,3.7495 -8.5804,3.1011 -11.3066,-0.6929 -1.7547,7.4384 -9.7145,4.2913 -11.4709,1.3634 0.4854,5.0408 -1.5161,9.4468 -8.9521,6.6341 7.5091,8.0515 27.6839,5.6795 30.1823,-1.0185z"/>
   <path id="_639660392" class="fil6" d="M301.227 106.826c-4.7249,0.5108 -3.5906,4.4695 -0.069,3.9587 2.746,7.141 11.07,8.5273 16.9794,6.9696 -5.561,0.4476 -12.2987,-4.7 -7.5343,-10.9283 -3.9755,4.3977 -7.6107,2.8262 -9.3761,0z"/>
   <path id="_639660512" class="fil6" d="M325.147 85.8696c2.7136,1.1629 3.338,4.9381 3.0648,7.5343 0,0 -5.696,-1.1009 -6.1296,4.5972 0,0 0.297,-2.5835 -4.5855,-3.6405 0,0 4.5297,-0.1104 4.7417,-3.5865 3.0048,0.3246 4.1933,-1.8109 2.9086,-4.9045z"/>
   <path id="_639660800" class="fil5" d="M263.176 60.5667c-6.923,-5.7651 -13.4337,1.465 -6.9071,5.6347 -13.1986,-2.5275 -15.4262,7.4525 -5.453,9.2701 6.2008,8.0874 28.5446,8.5247 35.4908,1.9995 4.4014,6.0167 18.2545,6.9796 23.0381,-2.363 16.4921,-0.7249 13.6057,-12.141 1.4541,-12.3601 -0.4062,-7.7198 -9.754,-8.578 -11.6331,-2.1812 -1.2007,-14.4243 -19.1939,-13.9727 -21.9937,-3.9989 -4.4887,-7.1818 -15.1027,-4.7634 -13.9961,3.9989z"/>
   <path id="_639661160" class="fil6" d="M291.369 52.9616c4.4527,0.6956 6.2891,5.6019 5.6126,9.5859 4.6539,0.3104 6.1317,2.6311 4.7541,6.4108 -0.1531,-3.2073 -7.8609,-5.5137 -10.0123,-0.5042 0.8371,-3.897 -2.5712,-6.1618 -6.1185,-5.7525 0,0 8.6428,-3.0142 5.7641,-9.74z"/>
   <path id="_639660944" class="fil6" d="M248.635 71.0373c0.1139,3.1367 3.8385,2.6064 3.8385,2.6064 2.4867,4.5657 10.5612,7.2806 17.5406,6.0445 -7.4391,-1.286 -5.6623,-5.4793 -4.1157,-7.5012 0,0 -6.7695,1.4461 -6.5058,-3.8051 0,0 -0.9191,5.7973 -10.7576,2.6554z"/>
   <path id="_639661016" class="fil6" d="M307.764 70.9453c0,0 3.9599,-0.1583 3.15,-2.835 4.8151,-0.9353 7.9653,4.3929 -0.525,5.46 0,0 -0.2913,-2.5067 -2.625,-2.625z"/>
   <path id="_639661256" class="fil3" d="M250.3 99.9353c0,0 -2.1837,8.735 -1.2738,9.8268 0.9098,1.0919 1.2738,-9.8268 1.2738,-9.8268z"/>
   <path id="_639661328" class="fil3" d="M262.099 95.2901c0,0 -2.1837,8.735 -1.2738,9.8268 0.9098,1.0919 1.2738,-9.8268 1.2738,-9.8268z"/>
   <path id="_639662168" class="fil3" d="M267.665 100.246c0,0 -2.1837,8.735 -1.2738,9.8268 0.9098,1.0919 1.2738,-9.8268 1.2738,-9.8268z"/>
   <path id="_639661640" class="fil3" d="M275.778 101.766c0,0 -2.1837,8.735 -1.2738,9.8268 0.9098,1.0919 1.2738,-9.8268 1.2738,-9.8268z"/>
   <path id="_639661808" class="fil3" d="M281.044 85.0148c0,0 -2.1837,8.735 -1.2738,9.8268 0.9098,1.0919 1.2738,-9.8268 1.2738,-9.8268z"/>
   <path id="_639661952" class="fil3" d="M285.301 113.375c0,0 -2.1837,8.735 -1.2738,9.8268 0.9098,1.0919 1.2738,-9.8268 1.2738,-9.8268z"/>
   <path id="_639662120" class="fil3" d="M262.701 108.245c0,0 -2.1837,8.735 -1.2738,9.8268 0.9098,1.0919 1.2738,-9.8268 1.2738,-9.8268z"/>
   <path id="_639662576" class="fil3" d="M295.789 88.6867c0,0 -2.1837,8.735 -1.2738,9.8268 0.9098,1.0919 1.2738,-9.8268 1.2738,-9.8268z"/>
   <path id="_639662264" class="fil3" d="M298.525 117.283c0,0 -2.1837,8.735 -1.2738,9.8268 0.9098,1.0919 1.2738,-9.8268 1.2738,-9.8268z"/>
   <path id="_639662336" class="fil3" d="M317.278 128.696c0,0 -2.1837,8.735 -1.2738,9.8268 0.9098,1.0919 1.2738,-9.8268 1.2738,-9.8268z"/>
   <path id="_639662672" class="fil3" d="M323.879 120.15c0,0 -2.1837,8.735 -1.2738,9.8268 0.9098,1.0919 1.2738,-9.8268 1.2738,-9.8268z"/>
   <path id="_639662744" class="fil3" d="M308.804 126.326c0,0 -2.1837,8.735 -1.2738,9.8268 0.9098,1.0919 1.2738,-9.8268 1.2738,-9.8268z"/>
   <path id="_639661472" class="fil3" d="M285.36 91.8822c0,0 -2.1837,8.735 -1.2738,9.8268 0.9098,1.0919 1.2738,-9.8268 1.2738,-9.8268z"/>
   <path id="_639663176" class="fil3" d="M331.818 127.356c0,0 -2.1837,8.735 -1.2738,9.8268 0.9098,1.0919 1.2738,-9.8268 1.2738,-9.8268z"/>
   <path id="_639662984" class="fil3" d="M339.768 122.153c0,0 -2.1837,8.735 -1.2738,9.8268 0.9098,1.0919 1.2738,-9.8268 1.2738,-9.8268z"/>
   <path id="_639663056" class="fil3" d="M347.756 121.712c0,0 -2.1837,8.735 -1.2738,9.8268 0.9098,1.0919 1.2738,-9.8268 1.2738,-9.8268z"/>
   <path id="_639663392" class="fil6" d="M305.135 51.9218c0,0 5.8442,0.6902 11.2604,-2.8747 5.4162,-3.5649 15.6861,0.0965 15.6861,0.0965 0,0 -11.3298,-2.254 -15.6558,1.4254 -4.3259,3.6793 -11.2907,1.3528 -11.2907,1.3528z"/>
   <path id="_639663464" class="fil6" d="M369.169 74.7116c0,0 -8.0301,-0.9484 -15.4721,3.9499 -7.442,4.8983 -21.553,-0.1326 -21.553,-0.1326 0,0 15.5674,3.097 21.5114,-1.9585 5.9439,-5.0554 15.5137,-1.8588 15.5137,-1.8588z"/>
   <path id="_639663752" class="fil3" d="M300.059 133.344c0,0 -2.1837,8.735 -1.2738,9.8268 0.9098,1.0919 1.2738,-9.8268 1.2738,-9.8268z"/>
  </g>
  <path class="fil4" d="M146.136 133.184c0,0 -5.8442,-0.6902 -11.2604,2.8747 -5.4162,3.5649 -15.6861,-0.0965 -15.6861,-0.0965 0,0 11.3298,2.254 15.6558,-1.4254 4.3259,-3.6793 11.2907,-1.3528 11.2907,-1.3528z"/>
 </g>
</svg>
