<?xml version="1.0" encoding="UTF-8"?>
<!DOCTYPE svg PUBLIC "-//W3C//DTD SVG 1.1//EN" "http://www.w3.org/Graphics/SVG/1.1/DTD/svg11.dtd">
<!-- Creator: CorelDRAW -->
<svg xmlns="http://www.w3.org/2000/svg" xml:space="preserve" width="420mm" height="297mm" style="shape-rendering:geometricPrecision; text-rendering:geometricPrecision; image-rendering:optimizeQuality; fill-rule:evenodd; clip-rule:evenodd"
viewBox="0 0 420 297"
 xmlns:xlink="http://www.w3.org/1999/xlink">
 <defs>
  <style type="text/css">
   <![CDATA[
    .str9 {stroke:#1F1A17;stroke-width:0.75}
    .str2 {stroke:#1F1A17;stroke-width:0.75;stroke-linecap:round;stroke-linejoin:round}
    .str5 {stroke:#8F5444;stroke-width:0.75;stroke-linecap:round;stroke-linejoin:round}
    .str6 {stroke:#969594;stroke-width:0.75;stroke-linecap:round;stroke-linejoin:round}
    .str4 {stroke:#542829;stroke-width:0.75}
    .str3 {stroke:#542829;stroke-width:0.75;stroke-linecap:round;stroke-linejoin:round}
    .str8 {stroke:#8A2C2F;stroke-width:0.75;stroke-linecap:round;stroke-linejoin:round}
    .str0 {stroke:#1F1A17;stroke-linecap:round;stroke-linejoin:round}
    .str1 {stroke:#8F5444;stroke-linecap:round;stroke-linejoin:round}
    .str7 {stroke:#1F1A17;stroke-width:1.5;stroke-linecap:round;stroke-linejoin:round}
    .fil3 {fill:none}
    .fil0 {fill:#1F1A17}
    .fil2 {fill:#383431}
    .fil8 {fill:#4D4948}
    .fil11 {fill:#969594}
    .fil12 {fill:#B76767}
    .fil10 {fill:#C2C1C1}
    .fil4 {fill:#DA251D}
    .fil13 {fill:#DB214C}
    .fil7 {fill:white}
    .fil1 {fill:#C3957D}
    .fil5 {fill:#542829}
    .fil6 {fill:#E0CFBF}
    .fil9 {fill:#1F1A17;fill-rule:nonzero}
   ]]>
  </style>
      <clipPath id="id0">
       <path d="M123.713 212.348c0.2007,-3.2221 2.3928,-4.8231 5.8211,-5.063 3.4284,-0.2399 6.0736,0.9334 6.5963,4.1942 0.6546,4.083 -4.4284,4.6329 -5.7362,4.7244 -4.3317,0.303 -6.8819,-0.6335 -6.6812,-3.8556z"/>
      </clipPath>
      <clipPath id="id1">
       <path d="M117.741 212.348c-0.2007,-3.2221 -2.3928,-4.8231 -5.8211,-5.063 -3.4284,-0.2399 -6.0736,0.9334 -6.5963,4.1942 -0.6546,4.083 4.4284,4.6329 5.7362,4.7244 4.3317,0.303 6.8819,-0.6335 6.6812,-3.8556z"/>
      </clipPath>
    <clipPath id="id2">
     <path d="M104.921 173.484c-6.4115,8.0868 -6.7223,24.0029 -5.442,26.0161 1.025,1.6121 10.9915,4.875 21.2486,4.875 10.2572,0 20.2237,-3.2629 21.2487,-4.875 1.2802,-2.0132 0.9694,-17.9293 -5.4421,-26.0161l-15.8066 0 -15.8066 0z"/>
    </clipPath>
    <clipPath id="id3">
     <path d="M92.7071 140.365c-0.982,8.9153 2.9286,18.0451 15.4447,18.0451 12.5161,0 12.5162,-4.2472 12.5162,-4.2472l-0.0001 -25.8382 -27.9608 -3.453c0,0 0.982,6.578 0,15.4933z"/>
    </clipPath>
    <clipPath id="id4">
     <path d="M148.747 140.365c0.982,8.9153 -2.9286,18.0451 -15.4447,18.0451 -12.5161,0 -12.5162,-4.2472 -12.5162,-4.2472l0.0001 -25.8382 27.9608 -3.453c0,0 -0.982,6.578 0,15.4933z"/>
    </clipPath>
    <clipPath id="id5">
     <path d="M107.724 150.112c-5.5487,3.2334 -2.826,12.8788 -2.905,15.7167 -0.0791,2.8378 -2.826,9.1206 3.1026,10.4245 8.4026,1.8479 17.2088,1.8479 25.6114,0 5.9286,-1.3039 3.1817,-7.5867 3.1027,-10.4245 -0.0791,-2.8379 2.6436,-12.4833 -2.905,-15.7167 -6.4833,-3.7781 -19.5235,-3.7781 -26.0067,0z"/>
    </clipPath>
     <clipPath id="id6">
      <path d="M104.404 168.659c-0.0154,0.0901 -0.0307,0.1807 -0.0456,0.2719l-0.0042 0.026c-0.0295,0.1812 -0.0578,0.3643 -0.084,0.5486l-0.0042 0.0296 -0.0173 0.1248 -0.0005 0.0035c-0.0119,0.0887 -0.0231,0.1778 -0.0339,0.2669l-0.0036 0.0299 -0.0142 0.1234 -0.0049 0.0456c-0.0076,0.0705 -0.0148,0.1411 -0.0215,0.2117l-0.0052 0.0554 -0.0084 0.0982 -0.0057 0.0704 -0.0079 0.1059 -0.0044 0.0673c-0.0035,0.0548 -0.0067,0.1096 -0.0095,0.1644l-0.004 0.0826 -0.0038 0.0993 -0.0022 0.0718 -0.0024 0.1031 -0.0007 0.068m-0.0003 0.1614l0.0009 0.0859 0.002 0.0904 0.0026 0.0804 0.0037 0.0934c0.0016,0.0337 0.0037,0.0671 0.0058,0.1007 0.0027,0.0438 0.0058,0.0874 0.0092,0.131l0.0069 0.0829 0.0079 0.0822c0.0035,0.0343 0.0074,0.0684 0.0114,0.1025l0.0075 0.0639c0.0065,0.0509 0.0137,0.1013 0.0214,0.1518l0.0119 0.0735 0.0163 0.094 0.0135 0.0725c0.007,0.0356 0.0144,0.071 0.0221,0.1063l0.0201 0.0897c0.0088,0.0378 0.018,0.0756 0.0276,0.113l0.0191 0.0709c0.0086,0.0316 0.0176,0.0631 0.0268,0.0944l0.0191 0.0636c0.014,0.0452 0.0287,0.09 0.044,0.1346l0.0205 0.0575c0.013,0.0363 0.0264,0.0725 0.0404,0.1083l0.025 0.0623c0.0126,0.0308 0.0256,0.0613 0.0388,0.0918l0.0272 0.0619c0.0209,0.046 0.0426,0.0918 0.0653,0.137l0.0257 0.0492c0.0165,0.0317 0.0333,0.0633 0.0506,0.0946l0.0335 0.0593c0.0186,0.0321 0.0378,0.0641 0.0573,0.0957l0.0275 0.0447c0.0281,0.0441 0.0574,0.0878 0.0874,0.131l0.0346 0.0482c0.0211,0.0292 0.0426,0.0583 0.0647,0.087l0.0404 0.0521c0.0278,0.0349 0.0563,0.0694 0.0855,0.1036l0.0209 0.0248c0.036,0.0413 0.0734,0.0819 0.1116,0.1221l0.0425 0.0434c0.0279,0.0283 0.0564,0.0564 0.0855,0.0841l0.043 0.0407c0.0416,0.0385 0.0839,0.0764 0.1279,0.1136l0.0231 0.0189c0.0383,0.0319 0.0776,0.0633 0.1177,0.0942l0.0537 0.0404c0.0336,0.025 0.0679,0.0497 0.1028,0.0741l0.0517 0.0359c0.05,0.0338 0.1011,0.0671 0.1536,0.0995l0.0416 0.0248c0.0421,0.0254 0.0851,0.0504 0.1288,0.0749l0.0585 0.0321c0.0459,0.0248 0.0928,0.0491 0.1404,0.073l0.0405 0.0205c0.061,0.0299 0.1237,0.0588 0.1877,0.087l0.05 0.0214c0.0506,0.0217 0.1023,0.043 0.1547,0.0637l0.0611 0.0237c0.0574,0.022 0.1162,0.0433 0.1758,0.064l0.0384 0.0136c0.0711,0.0242 0.1442,0.0472 0.2184,0.0696l0.0632 0.0184c0.0562,0.0164 0.1136,0.0321 0.1715,0.0476l0.0766 0.02c0.0783,0.02 0.1582,0.0392 0.2401,0.0572 8.4026,1.8479 17.2088,1.8479 25.6114,0 0.0821,-0.0181 0.1618,-0.0374 0.2407,-0.0573l0.0748 -0.0196c0.0593,-0.0157 0.1177,-0.0319 0.1751,-0.0486l0.0581 -0.0168c0.0751,-0.0226 0.1488,-0.046 0.2208,-0.0704l0.0372 -0.0132c0.0601,-0.0208 0.119,-0.0423 0.1769,-0.0643l0.059 -0.0229c0.0569,-0.0224 0.1129,-0.0455 0.1677,-0.0691l0.0336 -0.0142c0.0658,-0.0289 0.1299,-0.0588 0.1926,-0.0894l0.038 -0.0191c0.0496,-0.0248 0.0983,-0.0501 0.146,-0.0759l0.0509 -0.0278c0.0533,-0.0297 0.1056,-0.0599 0.1564,-0.0909l0.0129 -0.0077c0.0551,-0.0339 0.1084,-0.0687 0.1607,-0.1041l0.0441 -0.0305c0.0384,-0.0267 0.0759,-0.0539 0.1128,-0.0813l0.0444 -0.0333c0.0478,-0.0367 0.0946,-0.0738 0.1398,-0.1119l0.0165 -0.0143c0.0408,-0.0347 0.0804,-0.07 0.1191,-0.1057l0.036 -0.0338c0.0331,-0.0315 0.0655,-0.0634 0.0971,-0.0956l0.0318 -0.0324c0.0397,-0.0414 0.0782,-0.0835 0.1154,-0.1261l0.0216 -0.0254c0.0299,-0.0348 0.0588,-0.0701 0.0872,-0.1057l0.0331 -0.0423c0.0282,-0.0365 0.0556,-0.0734 0.0822,-0.1107l0.0179 -0.0246c0.032,-0.0456 0.0627,-0.0918 0.0924,-0.1385l0.0222 -0.0358c0.0227,-0.0366 0.0449,-0.0735 0.0663,-0.1107l0.0238 -0.0415c0.0269,-0.048 0.0529,-0.0964 0.0777,-0.1454l0.0017 -0.0034c0.0245,-0.0485 0.0476,-0.0976 0.0701,-0.147l0.0183 -0.0412c0.0177,-0.0401 0.0348,-0.0803 0.0512,-0.121l0.015 -0.0371c0.0202,-0.0513 0.0397,-0.1031 0.058,-0.1552l0.0088 -0.0262c0.0154,-0.0446 0.0301,-0.0896 0.0441,-0.1348l0.0135 -0.0445c0.0131,-0.0437 0.0256,-0.0876 0.0375,-0.1318l0.0088 -0.032c0.014,-0.0533 0.027,-0.1071 0.0394,-0.1611l0.0095 -0.0435c0.0093,-0.0422 0.0181,-0.0846 0.0264,-0.1272l0.0092 -0.0479c0.0204,-0.1096 0.0377,-0.2205 0.0522,-0.3323l0.007 -0.0571c0.0051,-0.0421 0.0097,-0.0844 0.014,-0.1268l0.0045 -0.0444c0.0055,-0.0578 0.0104,-0.1157 0.0145,-0.1739l0.001 -0.0169c0.0035,-0.0509 0.0063,-0.102 0.0088,-0.1532l0.0026 -0.06c0.0017,-0.042 0.003,-0.084 0.0041,-0.1263l0.0013 -0.0487c0.0011,-0.0578 0.0017,-0.1159 0.0018,-0.1739l-0.0002 -0.0376 -0.0015 -0.1377 -0.0012 -0.0599 -0.0042 -0.14 -0.0012 -0.0361c-0.0023,-0.0582 -0.0053,-0.1164 -0.0086,-0.1746l-0.0028 -0.0482 -0.0087 -0.1331 -0.0042 -0.0593c-0.004,-0.0538 -0.0084,-0.1078 -0.0131,-0.1616l-0.0042 -0.0462 -0.0131 -0.1378 -0.0065 -0.0625 -0.0136 -0.1257 -0.0066 -0.059 -0.0167 -0.1397 -0.015 -0.117 -0.0088 -0.0673 -0.0146 -0.1075 -0.0073 -0.0524 -0.0251 -0.173 -0.0133 -0.0889 -0.0111 -0.0715 -0.0156 -0.0996 -0.0145 -0.0911 -0.0198 -0.121 -0.0048 -0.0294 -0.0238 -0.1413c-4.4904,1.0925 -10.1637,1.7449 -16.3317,1.7449 -6.168,0 -11.8413,-0.6524 -16.3316,-1.7449l0.0088 -0.0515"/>
     </clipPath>
     <clipPath id="id7">
      <path d="M107.724 150.112c-5.5487,3.2334 -2.826,12.8788 -2.905,15.7167 -0.0791,2.8378 -2.826,9.1206 3.1026,10.4245 8.4026,1.8479 17.2088,1.8479 25.6114,0 5.9286,-1.3039 3.1817,-7.5867 3.1027,-10.4245 -0.0791,-2.8379 2.6436,-12.4833 -2.905,-15.7167 -6.4833,-3.7781 -19.5235,-3.7781 -26.0067,0z"/>
     </clipPath>
     <clipPath id="id8">
      <path d="M239.937 206.821c3.4273,0.2623 5.9439,3.9121 5.7278,6.7356 -0.2162,2.8235 -3.0833,3.7531 -6.5106,3.4907 -3.4274,-0.2624 -6.1195,-1.6175 -5.9033,-4.441 0.2161,-2.8235 3.2587,-6.0477 6.6861,-5.7853z"/>
     </clipPath>
     <clipPath id="id9">
      <path d="M256.666 206.821c-3.4273,0.2623 -5.9439,3.9121 -5.7278,6.7356 0.2162,2.8235 3.0833,3.7531 6.5106,3.4907 3.4274,-0.2624 6.1195,-1.6175 5.9033,-4.441 -0.2161,-2.8235 -3.2587,-6.0477 -6.6861,-5.7853z"/>
     </clipPath>
    <clipPath id="id10">
     <path d="M248.102 187.844c-0.0596,1.2457 -3.7696,18.4368 -3.7696,18.4368 0,0 -2.4096,1.8423 -11.4121,-0.57 -3.1711,-9.5366 -0.9073,-32.747 -0.7276,-33.3156l15.1762 -0.0347 0.6977 -0.0016 0.6977 -0.0016 15.1762 -0.0347c0.1823,0.5677 2.5523,23.7675 -0.5751,33.3185 -8.9914,2.4535 -11.4093,0.6223 -11.4093,0.6223 0,0 -3.7887,-17.174 -3.8541,-18.4194z"/>
    </clipPath>
   <clipPath id="id11">
    <path d="M235.411 152.575c-5.4172,3.1568 -2.759,12.5736 -2.8362,15.3442 -0.0772,2.7705 -2.759,8.9045 3.0291,10.1774 4.1018,0.902 8.302,1.3532 12.5022,1.3532 4.2002,0 8.4006,-0.4512 12.5022,-1.3532 5.7881,-1.2728 3.1063,-7.4069 3.0291,-10.1774 -0.0772,-2.7706 2.581,-12.1874 -2.8361,-15.3442 -6.3296,-3.6885 -19.0608,-3.6885 -25.3903,0z"/>
   </clipPath>
    <clipPath id="id12">
     <path d="M234.48 153.244c-2.9912,0.4362 -7.0418,1.9941 -10.3446,12.5257 -3.3028,10.5316 -2.6796,19.6299 -2.6796,19.6299l8.2881 0c0,0 1.5116,-15.0568 3.2565,-18.6088 1.7449,-3.5521 1.4796,-13.5468 1.4796,-13.5468z"/>
    </clipPath>
    <clipPath id="id13">
     <path d="M263.164 153.884c-1.7676,1.7677 0.1038,7.3182 9.4216,13.234 4.3974,2.7919 11.5026,4.2025 13.8222,0.0173 3.3066,-5.9663 0.1192,-15.8188 0.1192,-15.8188l-8.004 1.992c1.7565,6.2466 0.0479,7.6805 -2.6567,5.5108 -3.0866,-2.4758 -10.9347,-6.703 -12.7023,-4.9353z"/>
    </clipPath>
    <clipPath id="id14">
     <path d="M262.37 125.562c-1.7106,0 -3.0982,0.8671 -3.0982,1.9365 0,1.0693 1.3876,1.9364 3.0982,1.9364 1.7106,0 3.0983,-0.8671 3.0983,-1.9364 0,-1.0694 -1.3877,-1.9365 -3.0983,-1.9365z"/>
    </clipPath>
    <clipPath id="id15">
     <path d="M233.976 125.562c1.7106,0 3.0982,0.8671 3.0982,1.9365 0,1.0693 -1.3876,1.9364 -3.0982,1.9364 -1.7106,0 -3.0983,-0.8671 -3.0983,-1.9364 0,-1.0694 1.3877,-1.9365 3.0983,-1.9365z"/>
    </clipPath>
     <clipPath id="id16">
      <path d="M223.283 97.5905c0,7.9808 0,9.788 0,9.788l49.6463 0c0,0 0,-2.1313 0,-9.788 0,-8.3052 -17.1505,-14.1114 -24.8231,-13.2372 -7.6727,-0.8742 -24.8232,5.2563 -24.8232,13.2372z"/>
     </clipPath>
    <clipPath id="id17">
     <path d="M135.785 152.073c-1.7676,1.7677 0.1038,7.3182 9.4216,13.234 4.3974,2.7919 11.5026,4.2025 13.8222,0.0173 3.3066,-5.9663 0.1192,-15.8188 0.1192,-15.8188l-8.004 1.992c1.7565,6.2466 0.0479,7.6805 -2.6567,5.5108 -3.0866,-2.4758 -10.9347,-6.703 -12.7023,-4.9353z"/>
    </clipPath>
    <clipPath id="id18">
     <path d="M106.155 151.421c-2.9912,0.4362 -7.0418,1.9941 -10.3446,12.5257 -3.3028,10.5316 -2.6796,19.6299 -2.6796,19.6299l8.2881 0c0,0 1.5116,-15.0568 3.2565,-18.6088 1.7449,-3.5521 1.4796,-13.5468 1.4796,-13.5468z"/>
    </clipPath>
    <clipPath id="id19">
     <path d="M86.4124 97.3907c3.3347,3.8004 5.1612,-4.7226 15.0558,-2.1414 9.8946,2.5812 19.9039,2.5179 17.4357,-6.4775 -4.2179,-15.3726 -35.8262,4.8185 -32.4915,8.6189zm68.6296 0c-3.3347,3.8004 -5.1612,-4.7226 -15.0558,-2.1414 -9.8946,2.5812 -19.9039,2.5179 -17.4357,-6.4775 4.2179,-15.3726 35.8262,4.8185 32.4915,8.6189z"/>
    </clipPath>
    <clipPath id="id20">
     <path d="M120.727 83.5086c3.1623,0 5.7267,2.5644 5.7267,5.7267 0,3.1623 -2.5644,5.7267 -5.7267,5.7267 -3.1623,0 -5.7267,-2.5644 -5.7267,-5.7267 0,-3.1623 2.5644,-5.7267 5.7267,-5.7267z"/>
    </clipPath>
    <clipPath id="id21">
     <path d="M106.755 122.377c1.6523,0.4427 2.7683,1.6395 2.4915,2.6723 -0.2767,1.0329 -1.8416,1.5113 -3.4939,1.0686 -1.6523,-0.4427 -2.7683,-1.6395 -2.4915,-2.6723 0.2768,-1.0329 1.8416,-1.5113 3.4939,-1.0686z"/>
    </clipPath>
    <clipPath id="id22">
     <path d="M134.815 122.377c-1.6523,0.4427 -2.7682,1.6395 -2.4915,2.6723 0.2768,1.0329 1.8416,1.5113 3.4939,1.0686 1.6523,-0.4427 2.7683,-1.6395 2.4915,-2.6723 -0.2767,-1.0329 -1.8415,-1.5113 -3.4939,-1.0686z"/>
    </clipPath>
    <clipPath id="id23">
     <path d="M97.5538 112.863c-1.9494,6.7668 -2.3274,14.6901 -1.3857,21.7029 0,0 -2.436,-5.9426 -4.1045,-8.7327 -1.6684,-2.7901 -8.2749,-16.0991 3.6859,-28.3906 10.6487,-10.9431 39.3066,-10.9431 49.9553,0 11.9608,12.2915 5.3543,25.6005 3.6859,28.3906 -1.6685,2.7901 -4.1045,8.7327 -4.1045,8.7327 0,0 1.547,-11.5228 -1.3857,-21.7029 -4.5128,-15.6653 -41.8339,-15.6653 -46.3467,0z"/>
    </clipPath>
 </defs>
 <g id="Capa_x0020_1">
  <metadata id="CorelCorpID_0Corel-Layer"/>
  <g id="_658915296">
   <g>
    <g>
     <path id="_658915824" class="fil0 str0" d="M129.582 206.424c-3.5599,0.2725 -6.1738,4.0634 -5.9493,6.9961 0.2245,2.9328 3.2025,3.8983 6.7624,3.6257 3.56,-0.2725 6.3561,-1.68 6.1316,-4.6127 -0.2245,-2.9328 -3.3848,-6.2817 -6.9447,-6.0091z"/>
     <path id="_658915752" class="fil1 str1" d="M135.457 180.983c0,0 1.3885,11.1414 1.5391,15.1086 0.1507,3.9673 -1.9465,10.5551 -1.766,12.9132 0.1805,2.3582 1.022,5.3544 -1.6288,5.7103 -2.6507,0.356 -5.9803,0.8404 -7.7823,0.2897 -1.802,-0.5507 -2.1056,-2.5168 -1.081,-4.1256 1.0246,-1.6087 0.7892,-13.6801 0.3921,-15.8686 -0.3971,-2.1885 -2.2187,-12.9907 -2.2187,-12.9907l12.5456 -1.0369z"/>
     <path id="_658915680" class="fil2" d="M123.713 212.348c0.2007,-3.2221 2.3928,-4.8231 5.8211,-5.063 3.4284,-0.2399 6.0736,0.9334 6.5963,4.1942 0.6546,4.083 -4.4284,4.6329 -5.7362,4.7244 -4.3317,0.303 -6.8819,-0.6335 -6.6812,-3.8556z"/>
     <g style="clip-path:url(#id0)">
      <g>
       <path id="_6372971601" class="fil2 str2" d="M130.117 211.819c1.8971,-0.1312 3.2901,-1.9561 3.1705,-3.3678 -0.1197,-1.4118 -1.7067,-1.8766 -3.6038,-1.7454 -1.8972,0.1312 -3.3873,0.8087 -3.2677,2.2205 0.1197,1.4118 1.8038,3.0239 3.701,2.8927z"/>
      </g>
     </g>
     <path class="fil3 str0" d="M123.713 212.348c0.2007,-3.2221 2.3928,-4.8231 5.8211,-5.063 3.4284,-0.2399 6.0736,0.9334 6.5963,4.1942 0.6546,4.083 -4.4284,4.6329 -5.7362,4.7244 -4.3317,0.303 -6.8819,-0.6335 -6.6812,-3.8556z"/>
    </g>
    <g>
     <path id="_658915584" class="fil0 str0" d="M111.873 206.424c3.5599,0.2725 6.1738,4.0634 5.9493,6.9961 -0.2245,2.9328 -3.2025,3.8983 -6.7624,3.6257 -3.56,-0.2725 -6.3561,-1.68 -6.1316,-4.6127 0.2245,-2.9328 3.3848,-6.2817 6.9447,-6.0091z"/>
     <path id="_658915512" class="fil1 str1" d="M105.998 180.983c0,0 -1.3885,11.1414 -1.5391,15.1086 -0.1507,3.9673 1.9465,10.5551 1.766,12.9132 -0.1805,2.3582 -1.022,5.3544 1.6288,5.7103 2.6507,0.356 5.9803,0.8404 7.7823,0.2897 1.802,-0.5507 2.1056,-2.5168 1.081,-4.1256 -1.0246,-1.6087 -0.7892,-13.6801 -0.3921,-15.8686 0.3971,-2.1885 2.2187,-12.9907 2.2187,-12.9907l-12.5456 -1.0369z"/>
     <path id="_658915440" class="fil2" d="M117.741 212.348c-0.2007,-3.2221 -2.3928,-4.8231 -5.8211,-5.063 -3.4284,-0.2399 -6.0736,0.9334 -6.5963,4.1942 -0.6546,4.083 4.4284,4.6329 5.7362,4.7244 4.3317,0.303 6.8819,-0.6335 6.6812,-3.8556z"/>
     <g style="clip-path:url(#id1)">
      <g>
       <path id="_6372997521" class="fil2 str2" d="M111.337 211.819c-1.8971,-0.1312 -3.2901,-1.9561 -3.1705,-3.3678 0.1197,-1.4118 1.7067,-1.8766 3.6038,-1.7454 1.8972,0.1312 3.3873,0.8087 3.2677,2.2205 -0.1197,1.4118 -1.8038,3.0239 -3.701,2.8927z"/>
      </g>
     </g>
     <path class="fil3 str0" d="M117.741 212.348c-0.2007,-3.2221 -2.3928,-4.8231 -5.8211,-5.063 -3.4284,-0.2399 -6.0736,0.9334 -6.5963,4.1942 -0.6546,4.083 4.4284,4.6329 5.7362,4.7244 4.3317,0.303 6.8819,-0.6335 6.6812,-3.8556z"/>
    </g>
   </g>
   <path id="_658915320" class="fil4" d="M104.921 173.484c-6.4115,8.0868 -6.7223,24.0029 -5.442,26.0161 1.025,1.6121 10.9915,4.875 21.2486,4.875 10.2572,0 20.2237,-3.2629 21.2487,-4.875 1.2802,-2.0132 0.9694,-17.9293 -5.4421,-26.0161l-15.8066 0 -15.8066 0z"/>
   <g style="clip-path:url(#id2)">
    <g>
     <g>
      <g>
       <path id="_6396640161" class="fil5" d="M112.591 168.742c0,0 -2.6555,9.7164 -3.4621,20.0099 -0.8064,10.2932 -0.0658,18.5437 -0.0658,18.5437 0,0 1.5355,-13.2958 3.5279,-38.5536z"/>
       <path id="_639663944" class="fil5" d="M118.217 171.915c0,0 -2.0275,11.3186 -2.2094,21.9502 -0.1817,10.6309 1.0316,18.2134 1.0316,18.2134 0,0 0.7185,-14.067 1.1778,-40.1636z"/>
       <path id="_639663872" class="fil5" d="M123.237 171.915c0,0 2.0274,11.3191 2.2093,21.9502 0.1819,10.6309 -1.0316,18.2134 -1.0316,18.2134 0,0 -0.7185,-14.0675 -1.1777,-40.1636z"/>
       <path id="_639663800" class="fil5" d="M128.863 168.742c0,0 2.6554,9.7164 3.462,20.0097 0.8065,10.2929 0.0658,18.5439 0.0658,18.5439 0,0 -1.5355,-13.2961 -3.5278,-38.5536z"/>
       <path id="_639663728" class="fil5" d="M133.42 165.78c0,0 2.911,8.8384 3.9969,18.8328 1.0859,9.9947 0.5754,18.4427 0.5754,18.4427 0,0 -1.8942,-12.7547 -4.5723,-37.2755z"/>
       <path id="_639663656" class="fil5" d="M108.034 165.78c0,0 -2.9109,8.8384 -3.9969,18.8328 -1.0859,9.9947 -0.5753,18.4427 -0.5753,18.4427 0,0 1.8942,-12.7547 4.5722,-37.2755z"/>
      </g>
      <g>
       <path id="_639663560" class="fil5" d="M94.5619 197.567c0,0 14.7474,2.2824 28.5997,2.4872 13.8514,0.2045 23.7309,-1.1614 23.7309,-1.1614 0,0 -18.3284,-0.8088 -52.3306,-1.3258z"/>
       <path id="_639663488" class="fil5" d="M94.5619 191.121c0,0 14.7474,2.2824 28.5997,2.4872 13.8514,0.2045 23.7309,-1.1614 23.7309,-1.1614 0,0 -18.3284,-0.8088 -52.3306,-1.3258z"/>
       <path id="_639663416" class="fil5" d="M94.5619 183.75c0,0 14.7474,2.2824 28.5997,2.4872 13.8514,0.2045 23.7309,-1.1614 23.7309,-1.1614 0,0 -18.3284,-0.8088 -52.3306,-1.3258z"/>
       <path id="_639663344" class="fil5" d="M94.5619 177.784c0,0 14.7474,2.2824 28.5997,2.4872 13.8514,0.2045 23.7309,-1.1614 23.7309,-1.1614 0,0 -18.3284,-0.8088 -52.3306,-1.3258z"/>
      </g>
     </g>
    </g>
   </g>
   <path class="fil3 str3" d="M104.921 173.484c-6.4115,8.0868 -6.7223,24.0029 -5.442,26.0161 1.025,1.6121 10.9915,4.875 21.2486,4.875 10.2572,0 20.2237,-3.2629 21.2487,-4.875 1.2802,-2.0132 0.9694,-17.9293 -5.4421,-26.0161l-15.8066 0 -15.8066 0z"/>
  </g>
  <g id="_658915128">
   <path id="_658915224" class="fil4" d="M92.7071 140.365c-0.982,8.9153 2.9286,18.0451 15.4447,18.0451 12.5161,0 12.5162,-4.2472 12.5162,-4.2472l-0.0001 -25.8382 -27.9608 -3.453c0,0 0.982,6.578 0,15.4933z"/>
   <g style="clip-path:url(#id3)">
    <g>
     <g>
      <g>
       <path id="_6394953281" class="fil5" d="M107.942 109.919c0,0 -4.1728,15.2677 -5.4402,31.4422 -1.2671,16.1742 -0.1034,29.1384 -0.1034,29.1384 0,0 2.4127,-20.8922 5.5436,-60.5806z"/>
       <path id="_639495256" class="fil5" d="M116.783 114.906c0,0 -3.1859,17.7852 -3.4717,34.4911 -0.2854,16.7048 1.621,28.6194 1.621,28.6194 0,0 1.129,-22.104 1.8507,-63.1105z"/>
       <path id="_639495184" class="fil5" d="M124.671 114.906c0,0 3.1857,17.786 3.4715,34.4911 0.2858,16.7048 -1.621,28.6194 -1.621,28.6194 0,0 -1.129,-22.1047 -1.8505,-63.1105z"/>
       <path id="_639495112" class="fil5" d="M133.512 109.919c0,0 4.1726,15.2677 5.44,31.4418 1.2674,16.1738 0.1034,29.1388 0.1034,29.1388 0,0 -2.4127,-20.8926 -5.5434,-60.5806z"/>
       <path id="_639495040" class="fil5" d="M140.673 105.265c0,0 4.5741,13.888 6.2804,29.5927 1.7063,15.7051 0.9041,28.9797 0.9041,28.9797 0,0 -2.9764,-20.042 -7.1845,-58.5724z"/>
       <path id="_639494968" class="fil5" d="M100.782 105.265c0,0 -4.5741,13.888 -6.2806,29.5927 -1.7063,15.7051 -0.9039,28.9797 -0.9039,28.9797 0,0 2.9763,-20.042 7.1845,-58.5724z"/>
      </g>
      <g>
       <path id="_639494872" class="fil5" d="M79.6127 155.214c0,0 23.1731,3.5865 44.9398,3.9082 21.7652,0.3214 37.2892,-1.8248 37.2892,-1.8248 0,0 -28.8001,-1.271 -82.229,-2.0834z"/>
       <path id="_639494800" class="fil5" d="M79.6127 145.084c0,0 23.1731,3.5865 44.9398,3.9082 21.7652,0.3214 37.2892,-1.8248 37.2892,-1.8248 0,0 -28.8001,-1.271 -82.229,-2.0834z"/>
       <path id="_639494728" class="fil5" d="M79.6127 133.501c0,0 23.1731,3.5865 44.9398,3.9082 21.7652,0.3214 37.2892,-1.8248 37.2892,-1.8248 0,0 -28.8001,-1.271 -82.229,-2.0834z"/>
       <path id="_639494656" class="fil5" d="M79.6127 124.127c0,0 23.1731,3.5864 44.9398,3.9082 21.7652,0.3213 37.2892,-1.8249 37.2892,-1.8249 0,0 -28.8001,-1.271 -82.229,-2.0833z"/>
      </g>
     </g>
    </g>
   </g>
   <path class="fil3 str4" d="M92.7071 140.365c-0.982,8.9153 2.9286,18.0451 15.4447,18.0451 12.5161,0 12.5162,-4.2472 12.5162,-4.2472l-0.0001 -25.8382 -27.9608 -3.453c0,0 0.982,6.578 0,15.4933z"/>
   <path id="_658915152" class="fil4" d="M148.747 140.365c0.982,8.9153 -2.9286,18.0451 -15.4447,18.0451 -12.5161,0 -12.5162,-4.2472 -12.5162,-4.2472l0.0001 -25.8382 27.9608 -3.453c0,0 -0.982,6.578 0,15.4933z"/>
   <g style="clip-path:url(#id4)">
    <g>
     <g>
      <g>
       <path id="_6394953281" class="fil5" d="M107.942 109.919c0,0 -4.1728,15.2677 -5.4402,31.4422 -1.2671,16.1742 -0.1034,29.1384 -0.1034,29.1384 0,0 2.4127,-20.8922 5.5436,-60.5806z"/>
       <path id="_639495256" class="fil5" d="M116.783 114.906c0,0 -3.1859,17.7852 -3.4717,34.4911 -0.2854,16.7048 1.621,28.6194 1.621,28.6194 0,0 1.129,-22.104 1.8507,-63.1105z"/>
       <path id="_639495184" class="fil5" d="M124.671 114.906c0,0 3.1857,17.786 3.4715,34.4911 0.2858,16.7048 -1.621,28.6194 -1.621,28.6194 0,0 -1.129,-22.1047 -1.8505,-63.1105z"/>
       <path id="_639495112" class="fil5" d="M133.512 109.919c0,0 4.1726,15.2677 5.44,31.4418 1.2674,16.1738 0.1034,29.1388 0.1034,29.1388 0,0 -2.4127,-20.8926 -5.5434,-60.5806z"/>
       <path id="_639495040" class="fil5" d="M140.673 105.265c0,0 4.5741,13.888 6.2804,29.5927 1.7063,15.7051 0.9041,28.9797 0.9041,28.9797 0,0 -2.9764,-20.042 -7.1845,-58.5724z"/>
       <path id="_639494968" class="fil5" d="M100.782 105.265c0,0 -4.5741,13.888 -6.2806,29.5927 -1.7063,15.7051 -0.9039,28.9797 -0.9039,28.9797 0,0 2.9763,-20.042 7.1845,-58.5724z"/>
      </g>
      <g>
       <path id="_639494872" class="fil5" d="M79.6127 155.214c0,0 23.1731,3.5865 44.9398,3.9082 21.7652,0.3214 37.2892,-1.8248 37.2892,-1.8248 0,0 -28.8001,-1.271 -82.229,-2.0834z"/>
       <path id="_639494800" class="fil5" d="M79.6127 145.084c0,0 23.1731,3.5865 44.9398,3.9082 21.7652,0.3214 37.2892,-1.8248 37.2892,-1.8248 0,0 -28.8001,-1.271 -82.229,-2.0834z"/>
       <path id="_639494728" class="fil5" d="M79.6127 133.501c0,0 23.1731,3.5865 44.9398,3.9082 21.7652,0.3214 37.2892,-1.8248 37.2892,-1.8248 0,0 -28.8001,-1.271 -82.229,-2.0834z"/>
       <path id="_639494656" class="fil5" d="M79.6127 124.127c0,0 23.1731,3.5864 44.9398,3.9082 21.7652,0.3213 37.2892,-1.8249 37.2892,-1.8249 0,0 -28.8001,-1.271 -82.229,-2.0833z"/>
      </g>
     </g>
    </g>
   </g>
   <path class="fil3 str4" d="M148.747 140.365c0.982,8.9153 -2.9286,18.0451 -15.4447,18.0451 -12.5161,0 -12.5162,-4.2472 -12.5162,-4.2472l0.0001 -25.8382 27.9608 -3.453c0,0 -0.982,6.578 0,15.4933z"/>
  </g>
  <g id="_658914432">
   <path id="_658915056" class="fil4" d="M107.724 150.112c-5.5487,3.2334 -2.826,12.8788 -2.905,15.7167 -0.0791,2.8378 -2.826,9.1206 3.1026,10.4245 8.4026,1.8479 17.2088,1.8479 25.6114,0 5.9286,-1.3039 3.1817,-7.5867 3.1027,-10.4245 -0.0791,-2.8379 2.6436,-12.4833 -2.905,-15.7167 -6.4833,-3.7781 -19.5235,-3.7781 -26.0067,0z"/>
   <g style="clip-path:url(#id5)">
    <g>
     <g>
      <g>
       <path id="_6396536481" class="fil5" d="M112.591 142.271c0,0 -2.6555,9.7164 -3.4621,20.0099 -0.8064,10.2932 -0.0658,18.5437 -0.0658,18.5437 0,0 1.5355,-13.2958 3.5279,-38.5536z"/>
       <path id="_639653576" class="fil5" d="M118.217 145.445c0,0 -2.0275,11.3186 -2.2094,21.9502 -0.1817,10.6309 1.0316,18.2134 1.0316,18.2134 0,0 0.7185,-14.067 1.1778,-40.1636z"/>
       <path id="_639653504" class="fil5" d="M123.237 145.445c0,0 2.0274,11.3191 2.2093,21.9502 0.1819,10.6309 -1.0316,18.2134 -1.0316,18.2134 0,0 -0.7185,-14.0675 -1.1777,-40.1636z"/>
       <path id="_639653432" class="fil5" d="M128.863 142.271c0,0 2.6554,9.7164 3.462,20.0097 0.8065,10.2929 0.0658,18.5439 0.0658,18.5439 0,0 -1.5355,-13.2961 -3.5278,-38.5536z"/>
       <path id="_639653360" class="fil5" d="M133.42 139.31c0,0 2.911,8.8384 3.9969,18.8328 1.0859,9.9947 0.5754,18.4427 0.5754,18.4427 0,0 -1.8942,-12.7547 -4.5723,-37.2755z"/>
       <path id="_639653288" class="fil5" d="M108.034 139.31c0,0 -2.9109,8.8384 -3.9969,18.8328 -1.0859,9.9947 -0.5753,18.4427 -0.5753,18.4427 0,0 1.8942,-12.7547 4.5722,-37.2755z"/>
      </g>
      <g>
       <path id="_639653192" class="fil5" d="M94.5619 171.097c0,0 14.7474,2.2824 28.5997,2.4872 13.8514,0.2045 23.7309,-1.1614 23.7309,-1.1614 0,0 -18.3284,-0.8088 -52.3306,-1.3258z"/>
       <path id="_639653120" class="fil5" d="M94.5619 164.65c0,0 14.7474,2.2824 28.5997,2.4872 13.8514,0.2045 23.7309,-1.1614 23.7309,-1.1614 0,0 -18.3284,-0.8088 -52.3306,-1.3258z"/>
       <path id="_639653048" class="fil5" d="M94.5619 157.279c0,0 14.7474,2.2824 28.5997,2.4872 13.8514,0.2045 23.7309,-1.1614 23.7309,-1.1614 0,0 -18.3284,-0.8088 -52.3306,-1.3258z"/>
       <path id="_639652976" class="fil5" d="M94.5619 151.313c0,0 14.7474,2.2824 28.5997,2.4872 13.8514,0.2045 23.7309,-1.1614 23.7309,-1.1614 0,0 -18.3284,-0.8088 -52.3306,-1.3258z"/>
      </g>
     </g>
     <path id="_639652856" class="fil5" d="M104.404 168.659c-0.5113,2.9922 -0.8378,6.6368 3.5171,7.5947 8.4026,1.8479 17.2088,1.8479 25.6114,0 4.3303,-0.9524 4.0322,-4.5609 3.526,-7.5432 -4.4904,1.0925 -10.1637,1.7449 -16.3317,1.7449 -6.168,0 -11.8413,-0.6524 -16.3316,-1.7449l0.0088 -0.0515z"/>
    </g>
    <g style="clip-path:url(#id6)">
     <g>
      <path id="_6372945681" class="fil4" d="M102.194 167.718c-0.307,2.6025 0.1097,5.276 4.1847,6.076 9.4151,1.848 19.2825,1.848 28.6976,0 4.0753,-0.7999 4.492,-3.4736 4.1849,-6.0762 -0.276,1.7253 -1.337,3.1995 -4.1849,3.7585 -9.4151,1.848 -19.2825,1.848 -28.6976,0 -2.8476,-0.559 -3.9085,-2.033 -4.1847,-3.7583z"/>
     </g>
    </g>
    <g style="clip-path:url(#id7)">
     <path class="fil3" d="M104.404 168.659c-0.5113,2.9922 -0.8378,6.6368 3.5171,7.5947 8.4026,1.8479 17.2088,1.8479 25.6114,0 4.3303,-0.9524 4.0322,-4.5609 3.526,-7.5432 -4.4904,1.0925 -10.1637,1.7449 -16.3317,1.7449 -6.168,0 -11.8413,-0.6524 -16.3316,-1.7449l0.0088 -0.0515z"/>
    </g>
   </g>
   <path class="fil3 str3" d="M107.724 150.112c-5.5487,3.2334 -2.826,12.8788 -2.905,15.7167 -0.0791,2.8378 -2.826,9.1206 3.1026,10.4245 8.4026,1.8479 17.2088,1.8479 25.6114,0 5.9286,-1.3039 3.1817,-7.5867 3.1027,-10.4245 -0.0791,-2.8379 2.6436,-12.4833 -2.905,-15.7167 -6.4833,-3.7781 -19.5235,-3.7781 -26.0067,0z"/>
   <path id="_658914984" class="fil4" d="M127.024 162.304l0.0002 0.0202c0,3.9425 -2.8197,7.1397 -6.2967,7.1397 -3.4771,0 -6.2968,-3.1972 -6.2968,-7.1397l0.0002 -0.0202 0.6156 0 -0.0002 0.0202c0,3.5571 2.544,6.4417 5.6812,6.4417 3.1371,0 5.6811,-2.8846 5.6811,-6.4417l-0.0002 -0.0202 0.6156 0z"/>
   <g>
    <ellipse id="_658914912" class="fil6" cx="120.727" cy="172.084" rx="3.08046" ry="3.45617"/>
    <g>
     <ellipse id="_658914840" class="fil6" cx="116.101" cy="169.953" rx="3.08046" ry="3.45617"/>
     <ellipse id="_658914768" class="fil6" cx="125.353" cy="169.953" rx="3.08046" ry="3.45617"/>
    </g>
   </g>
   <g>
    <g>
     <path id="_658914648" class="fil7" d="M117.762 170.909c-0.2483,0.9059 -0.9384,1.5578 -1.7507,1.5578 -1.0211,0 -1.8491,-1.0301 -1.8491,-2.3002 0,-0.6679 0.229,-1.2692 0.5946,-1.6895 -0.0639,0.2329 -0.0985,0.4826 -0.0985,0.7424 0,1.2701 0.828,2.3001 1.8491,2.3001 0.4842,0 0.925,-0.2317 1.2546,-0.6106z"/>
     <path id="_658914576" class="fil7" d="M123.693 170.909c0.2483,0.9059 0.9384,1.5578 1.7507,1.5578 1.0211,0 1.8491,-1.0301 1.8491,-2.3002 0,-0.6679 -0.229,-1.2692 -0.5946,-1.6895 0.0639,0.2329 0.0985,0.4826 0.0985,0.7424 0,1.2701 -0.828,2.3001 -1.8491,2.3001 -0.4842,0 -0.925,-0.2317 -1.2546,-0.6106z"/>
    </g>
    <path id="_658914480" class="fil7" d="M118.927 173.249c0.2483,0.9059 0.9384,1.5578 1.7507,1.5578 1.0211,0 1.8491,-1.0301 1.8491,-2.3002 0,-0.6679 -0.229,-1.2692 -0.5946,-1.6895 0.0639,0.2329 0.0985,0.4826 0.0985,0.7424 0,1.2701 -0.828,2.3001 -1.8491,2.3001 -0.4842,0 -0.925,-0.2317 -1.2546,-0.6106z"/>
   </g>
  </g>
  <g id="_658913928">
   <g>
    <path id="_658914360" class="fil0 str2" d="M234.28 182.327c0,0 -1.3368,10.7265 -1.4818,14.546 -0.1451,3.8195 1.874,10.162 1.7002,12.4323 -0.1738,2.2704 -0.9839,5.155 1.5681,5.4977 2.5521,0.3427 5.7577,0.8091 7.4926,0.2789 1.7349,-0.5302 2.0271,-2.4231 1.0407,-3.972 -0.9864,-1.5488 -0.7597,-13.1706 -0.3775,-15.2777 0.3823,-2.107 2.1361,-12.5069 2.1361,-12.5069l-12.0784 -0.9983z"/>
    <path id="_658914288" class="fil0" d="M239.937 206.821c3.4273,0.2623 5.9439,3.9121 5.7278,6.7356 -0.2162,2.8235 -3.0833,3.7531 -6.5106,3.4907 -3.4274,-0.2624 -6.1195,-1.6175 -5.9033,-4.441 0.2161,-2.8235 3.2587,-6.0477 6.6861,-5.7853z"/>
    <g style="clip-path:url(#id8)">
     <g>
      <path id="_6373023441" class="fil2 str2" d="M239.937 205.121c3.4273,0.2623 5.9439,3.9121 5.7278,6.7356 -0.2162,2.8235 -3.0833,3.7531 -6.5106,3.4907 -3.4274,-0.2624 -6.1195,-1.6175 -5.9033,-4.441 0.2161,-2.8235 3.2587,-6.0477 6.6861,-5.7853z"/>
      <path id="_637302272" class="fil2 str2" d="M239.123 205.748c-1.8971,0.1312 -3.2901,1.9561 -3.1705,3.3678 0.1197,1.4118 1.7067,1.8766 3.6038,1.7454 1.8972,-0.1312 3.3873,-0.8087 3.2677,-2.2205 -0.1197,-1.4118 -1.8038,-3.0239 -3.701,-2.8927z"/>
     </g>
    </g>
    <path class="fil3 str2" d="M239.937 206.821c3.4273,0.2623 5.9439,3.9121 5.7278,6.7356 -0.2162,2.8235 -3.0833,3.7531 -6.5106,3.4907 -3.4274,-0.2624 -6.1195,-1.6175 -5.9033,-4.441 0.2161,-2.8235 3.2587,-6.0477 6.6861,-5.7853z"/>
   </g>
   <g>
    <path id="_658914192" class="fil0 str2" d="M262.322 182.327c0,0 1.3368,10.7265 1.4818,14.546 0.1451,3.8195 -1.874,10.162 -1.7002,12.4323 0.1738,2.2704 0.9839,5.155 -1.5681,5.4977 -2.5521,0.3427 -5.7577,0.8091 -7.4926,0.2789 -1.7349,-0.5302 -2.0271,-2.4231 -1.0407,-3.972 0.9864,-1.5488 0.7597,-13.1706 0.3775,-15.2777 -0.3823,-2.107 -2.1361,-12.5069 -2.1361,-12.5069l12.0784 -0.9983z"/>
    <path id="_658914120" class="fil0" d="M256.666 206.821c-3.4273,0.2623 -5.9439,3.9121 -5.7278,6.7356 0.2162,2.8235 3.0833,3.7531 6.5106,3.4907 3.4274,-0.2624 6.1195,-1.6175 5.9033,-4.441 -0.2161,-2.8235 -3.2587,-6.0477 -6.6861,-5.7853z"/>
    <g style="clip-path:url(#id9)">
     <g>
      <path id="_6373049361" class="fil2 str2" d="M256.666 205.121c-3.4273,0.2623 -5.9439,3.9121 -5.7278,6.7356 0.2162,2.8235 3.0833,3.7531 6.5106,3.4907 3.4274,-0.2624 6.1195,-1.6175 5.9033,-4.441 -0.2161,-2.8235 -3.2587,-6.0477 -6.6861,-5.7853z"/>
      <path id="_637304864" class="fil2 str2" d="M257.48 205.748c1.8971,0.1312 3.2901,1.9561 3.1705,3.3678 -0.1197,1.4118 -1.7067,1.8766 -3.6038,1.7454 -1.8972,-0.1312 -3.3873,-0.8087 -3.2677,-2.2205 0.1197,-1.4118 1.8038,-3.0239 3.701,-2.8927z"/>
     </g>
    </g>
    <path class="fil3 str2" d="M256.666 206.821c-3.4273,0.2623 -5.9439,3.9121 -5.7278,6.7356 0.2162,2.8235 3.0833,3.7531 6.5106,3.4907 3.4274,-0.2624 6.1195,-1.6175 5.9033,-4.441 -0.2161,-2.8235 -3.2587,-6.0477 -6.6861,-5.7853z"/>
   </g>
   <path id="_658914024" class="fil8" d="M248.102 187.844c-0.0596,1.2457 -3.7696,18.4368 -3.7696,18.4368 0,0 -2.4096,1.8423 -11.4121,-0.57 -3.1711,-9.5366 -0.9073,-32.747 -0.7276,-33.3156l15.1762 -0.0347 0.6977 -0.0016 0.6977 -0.0016 15.1762 -0.0347c0.1823,0.5677 2.5523,23.7675 -0.5751,33.3185 -8.9914,2.4535 -11.4093,0.6223 -11.4093,0.6223 0,0 -3.7887,-17.174 -3.8541,-18.4194z"/>
   <g style="clip-path:url(#id10)">
    <g>
     <path id="_6383434801" class="fil0" d="M244.423 176.175c0,0 -0.6112,4.4901 0.3632,7.8025 0.9743,3.3125 3.3203,5.6709 3.3203,5.6709l-0.024 -13.6889 -3.6595 0.2155z"/>
    </g>
   </g>
   <path class="fil3 str2" d="M248.102 187.844c-0.0596,1.2457 -3.7696,18.4368 -3.7696,18.4368 0,0 -2.4096,1.8423 -11.4121,-0.57 -3.1711,-9.5366 -0.9073,-32.747 -0.7276,-33.3156l15.1762 -0.0347 0.6977 -0.0016 0.6977 -0.0016 15.1762 -0.0347c0.1823,0.5677 2.5523,23.7675 -0.5751,33.3185 -8.9914,2.4535 -11.4093,0.6223 -11.4093,0.6223 0,0 -3.7887,-17.174 -3.8541,-18.4194z"/>
   <path id="_658913952" class="fil0" d="M238.54 178.031c0,0 -1.634,13.1741 -1.529,17.5006 0.105,4.3265 0.2578,8.748 0.2578,8.748 0,0 1.3413,-16.4067 1.2712,-26.2486zm19.0799 -0.0437c0,0 1.6942,13.1665 1.609,17.4935 -0.0851,4.3269 -0.2177,8.749 -0.2177,8.749 0,0 -1.4163,-16.4003 -1.3913,-26.2425z"/>
  </g>
  <path class="fil4" d="M235.411 152.575c-5.4172,3.1568 -2.759,12.5736 -2.8362,15.3442 -0.0772,2.7705 -2.759,8.9045 3.0291,10.1774 4.1018,0.902 8.302,1.3532 12.5022,1.3532 4.2002,0 8.4006,-0.4512 12.5022,-1.3532 5.7881,-1.2728 3.1063,-7.4069 3.0291,-10.1774 -0.0772,-2.7706 2.581,-12.1874 -2.8361,-15.3442 -6.3296,-3.6885 -19.0608,-3.6885 -25.3903,0z"/>
  <g style="clip-path:url(#id11)">
   <g id="_590430608">
    <g>
     <g>
      <path id="_5916031201" class="fil5" d="M239.97 144.442c0,0 -2.6555,9.7164 -3.4621,20.0099 -0.8064,10.2932 -0.0658,18.5437 -0.0658,18.5437 0,0 1.5355,-13.2958 3.5279,-38.5536z"/>
      <path id="_591612888" class="fil5" d="M245.597 147.615c0,0 -2.0275,11.3186 -2.2094,21.9502 -0.1817,10.6309 1.0316,18.2134 1.0316,18.2134 0,0 0.7185,-14.067 1.1778,-40.1636z"/>
      <path id="_591627528" class="fil5" d="M250.617 147.615c0,0 2.0274,11.3191 2.2093,21.9502 0.1819,10.6309 -1.0316,18.2134 -1.0316,18.2134 0,0 -0.7185,-14.0675 -1.1777,-40.1636z"/>
      <path id="_591599904" class="fil5" d="M256.243 144.442c0,0 2.6554,9.7164 3.462,20.0097 0.8065,10.2929 0.0658,18.5439 0.0658,18.5439 0,0 -1.5355,-13.2961 -3.5278,-38.5536z"/>
      <path id="_591624072" class="fil5" d="M260.8 141.48c0,0 2.911,8.8384 3.9969,18.8328 1.0859,9.9947 0.5754,18.4427 0.5754,18.4427 0,0 -1.8942,-12.7547 -4.5723,-37.2755z"/>
      <path id="_590440736" class="fil5" d="M235.413 141.48c0,0 -2.9109,8.8384 -3.9969,18.8328 -1.0859,9.9947 -0.5753,18.4427 -0.5753,18.4427 0,0 1.8942,-12.7547 4.5722,-37.2755z"/>
     </g>
     <g>
      <path id="_590445680" class="fil5" d="M221.941 173.267c0,0 14.7474,2.2824 28.5997,2.4872 13.8514,0.2045 23.7309,-1.1614 23.7309,-1.1614 0,0 -18.3284,-0.8088 -52.3306,-1.3258z"/>
      <path id="_590443448" class="fil5" d="M221.941 166.821c0,0 14.7474,2.2824 28.5997,2.4872 13.8514,0.2045 23.7309,-1.1614 23.7309,-1.1614 0,0 -18.3284,-0.8088 -52.3306,-1.3258z"/>
      <path id="_590442224" class="fil5" d="M221.941 159.449c0,0 14.7474,2.2824 28.5997,2.4872 13.8514,0.2045 23.7309,-1.1614 23.7309,-1.1614 0,0 -18.3284,-0.8088 -52.3306,-1.3258z"/>
      <path id="_590430584" class="fil5" d="M221.941 153.484c0,0 14.7474,2.2824 28.5997,2.4872 13.8514,0.2045 23.7309,-1.1614 23.7309,-1.1614 0,0 -18.3284,-0.8088 -52.3306,-1.3258z"/>
     </g>
    </g>
   </g>
  </g>
  <path class="fil3 str3" d="M235.411 152.575c-5.4172,3.1568 -2.759,12.5736 -2.8362,15.3442 -0.0772,2.7705 -2.759,8.9045 3.0291,10.1774 4.1018,0.902 8.302,1.3532 12.5022,1.3532 4.2002,0 8.4006,-0.4512 12.5022,-1.3532 5.7881,-1.2728 3.1063,-7.4069 3.0291,-10.1774 -0.0772,-2.7706 2.581,-12.1874 -2.8361,-15.3442 -6.3296,-3.6885 -19.0608,-3.6885 -25.3903,0z"/>
  <g id="_658913688">
   <path id="_658913784" class="fil1 str5" d="M229.694 185.4c0.2649,1.9747 2.1689,4.5389 1.8828,5.028 -0.2862,0.4891 -0.6328,0.5989 -2.7992,-0.6572 -1.0723,1.5706 1.2401,4.7598 -0.2756,5.2858 -0.9786,0.3395 -1.7885,-2.3954 -1.9859,-3.2469 -1.548,0.7783 0.5369,4.1577 -1.1818,4.2774 -1.0669,0.0736 -1.1651,-3.2071 -1.0827,-4.1321 -1.6212,-0.1427 -0.3084,3.1184 -1.8406,2.9448 -1.0205,-0.1158 -0.5695,-2.9939 -0.4138,-3.8275 -0.9365,-0.7018 -0.8148,1.7632 -1.7091,1.47 -0.7301,-0.2393 -0.7032,-0.855 0.0685,-2.8803 0.4297,-1.127 0.5734,-2.8396 1.0906,-4.4095l0.0085 0.1475 8.2383 0z"/>
   <path id="_658913712" class="fil4" d="M234.48 153.244c-2.9912,0.4362 -7.0418,1.9941 -10.3446,12.5257 -3.3028,10.5316 -2.6796,19.6299 -2.6796,19.6299l8.2881 0c0,0 1.5116,-15.0568 3.2565,-18.6088 1.7449,-3.5521 1.4796,-13.5468 1.4796,-13.5468z"/>
   <g style="clip-path:url(#id12)">
    <g>
     <rect id="_639074456" class="fil5" x="219.795" y="182.158" width="11.6092" height="3.24143"/>
     <g>
      <g>
       <path id="_639074384" class="fil5" d="M219.815 149.134c0,0 -2.6555,9.7164 -3.4621,20.0099 -0.8064,10.2932 -0.0658,18.5437 -0.0658,18.5437 0,0 1.5355,-13.2958 3.5279,-38.5536z"/>
       <path id="_639074312" class="fil5" d="M225.441 152.308c0,0 -2.0275,11.3186 -2.2094,21.9502 -0.1817,10.6309 1.0316,18.2134 1.0316,18.2134 0,0 0.7185,-14.067 1.1778,-40.1636z"/>
       <path id="_639074240" class="fil5" d="M230.462 152.308c0,0 2.0274,11.3191 2.2093,21.9502 0.1819,10.6309 -1.0316,18.2134 -1.0316,18.2134 0,0 -0.7185,-14.0675 -1.1777,-40.1636z"/>
       <path id="_639074168" class="fil5" d="M236.088 149.134c0,0 2.6554,9.7164 3.462,20.0097 0.8065,10.2929 0.0658,18.5439 0.0658,18.5439 0,0 -1.5355,-13.2961 -3.5278,-38.5536z"/>
       <path id="_639074096" class="fil5" d="M240.645 146.173c0,0 2.911,8.8384 3.9969,18.8328 1.0859,9.9947 0.5754,18.4427 0.5754,18.4427 0,0 -1.8942,-12.7547 -4.5723,-37.2755z"/>
       <path id="_639074024" class="fil5" d="M215.258 146.173c0,0 -2.9109,8.8384 -3.9969,18.8328 -1.0859,9.9947 -0.5753,18.4427 -0.5753,18.4427 0,0 1.8942,-12.7547 4.5722,-37.2755z"/>
      </g>
      <g>
       <path id="_639073928" class="fil5" d="M201.786 177.96c0,0 14.7474,2.2824 28.5997,2.4872 13.8514,0.2045 23.7309,-1.1614 23.7309,-1.1614 0,0 -18.3284,-0.8088 -52.3306,-1.3258z"/>
       <path id="_639073856" class="fil5" d="M201.786 171.513c0,0 14.7474,2.2824 28.5997,2.4872 13.8514,0.2045 23.7309,-1.1614 23.7309,-1.1614 0,0 -18.3284,-0.8088 -52.3306,-1.3258z"/>
       <path id="_639073784" class="fil5" d="M201.786 164.142c0,0 14.7474,2.2824 28.5997,2.4872 13.8514,0.2045 23.7309,-1.1614 23.7309,-1.1614 0,0 -18.3284,-0.8088 -52.3306,-1.3258z"/>
       <path id="_639073712" class="fil5" d="M201.786 158.176c0,0 14.7474,2.2824 28.5997,2.4872 13.8514,0.2045 23.7309,-1.1614 23.7309,-1.1614 0,0 -18.3284,-0.8088 -52.3306,-1.3258z"/>
      </g>
     </g>
    </g>
   </g>
   <path class="fil3 str3" d="M234.48 153.244c-2.9912,0.4362 -7.0418,1.9941 -10.3446,12.5257 -3.3028,10.5316 -2.6796,19.6299 -2.6796,19.6299l8.2881 0c0,0 1.5116,-15.0568 3.2565,-18.6088 1.7449,-3.5521 1.4796,-13.5468 1.4796,-13.5468z"/>
  </g>
  <g id="_658913448">
   <path id="_658913616" class="fil1 str5" d="M278.523 153.308c-0.767,-1.8388 -3.2698,-3.8229 -3.12,-4.3694 0.1498,-0.5465 0.4562,-0.7423 2.8739,-0.0897 0.6293,-1.7946 -2.4298,-4.2766 -1.1019,-5.177 0.8574,-0.5812 2.3476,1.8509 2.7586,2.6223 1.2938,-1.1525 -1.5947,-3.877 0.0344,-4.4375 1.0115,-0.3473 1.9556,2.7963 2.1153,3.7111 1.6029,-0.2818 -0.5092,-3.092 1.0157,-3.3209 1.0158,-0.1523 1.325,2.7445 1.3904,3.59 1.0862,0.4355 0.3306,-1.9141 1.2704,-1.8623 0.7671,0.0422 0.9005,0.6439 0.6792,2.7999 -0.1233,1.1998 0.1812,2.8912 0.0879,4.5415l-0.0463 -0.1402 -7.9576 2.1322z"/>
   <path id="_658913544" class="fil4" d="M263.164 153.884c-1.7676,1.7677 0.1038,7.3182 9.4216,13.234 4.3974,2.7919 11.5026,4.2025 13.8222,0.0173 3.3066,-5.9663 0.1192,-15.8188 0.1192,-15.8188l-8.004 1.992c1.7565,6.2466 0.0479,7.6805 -2.6567,5.5108 -3.0866,-2.4758 -10.9347,-6.703 -12.7023,-4.9353z"/>
   <g style="clip-path:url(#id13)">
    <g>
     <rect id="_639673736" class="fil5" transform="matrix(-0.991445 0.265657 0.265657 0.991445 288.132 150.81)" width="11.3104" height="3.158"/>
     <g>
      <g>
       <path id="_639673664" class="fil5" d="M267.102 140.354c0,0 -2.6555,9.7164 -3.4621,20.0099 -0.8064,10.2932 -0.0658,18.5437 -0.0658,18.5437 0,0 1.5355,-13.2958 3.5279,-38.5536z"/>
       <path id="_639673592" class="fil5" d="M272.728 143.528c0,0 -2.0275,11.3186 -2.2094,21.9502 -0.1817,10.6309 1.0316,18.2134 1.0316,18.2134 0,0 0.7185,-14.067 1.1778,-40.1636z"/>
       <path id="_639673520" class="fil5" d="M277.748 143.528c0,0 2.0274,11.3191 2.2093,21.9502 0.1819,10.6309 -1.0316,18.2134 -1.0316,18.2134 0,0 -0.7185,-14.0675 -1.1777,-40.1636z"/>
       <path id="_639673448" class="fil5" d="M283.374 140.354c0,0 2.6554,9.7164 3.462,20.0097 0.8065,10.2929 0.0658,18.5439 0.0658,18.5439 0,0 -1.5355,-13.2961 -3.5278,-38.5536z"/>
       <path id="_639673376" class="fil5" d="M287.931 137.393c0,0 2.911,8.8384 3.9969,18.8328 1.0859,9.9947 0.5754,18.4427 0.5754,18.4427 0,0 -1.8942,-12.7547 -4.5723,-37.2755z"/>
       <path id="_639673304" class="fil5" d="M262.545 137.393c0,0 -2.9109,8.8384 -3.9969,18.8328 -1.0859,9.9947 -0.5753,18.4427 -0.5753,18.4427 0,0 1.8942,-12.7547 4.5722,-37.2755z"/>
      </g>
      <g>
       <path id="_639673208" class="fil5" d="M249.073 169.18c0,0 14.7474,2.2824 28.5997,2.4872 13.8514,0.2045 23.7309,-1.1614 23.7309,-1.1614 0,0 -18.3284,-0.8088 -52.3306,-1.3258z"/>
       <path id="_639673136" class="fil5" d="M249.073 162.733c0,0 14.7474,2.2824 28.5997,2.4872 13.8514,0.2045 23.7309,-1.1614 23.7309,-1.1614 0,0 -18.3284,-0.8088 -52.3306,-1.3258z"/>
       <path id="_639673064" class="fil5" d="M249.073 155.362c0,0 14.7474,2.2824 28.5997,2.4872 13.8514,0.2045 23.7309,-1.1614 23.7309,-1.1614 0,0 -18.3284,-0.8088 -52.3306,-1.3258z"/>
       <path id="_639672992" class="fil5" d="M249.073 149.396c0,0 14.7474,2.2824 28.5997,2.4872 13.8514,0.2045 23.7309,-1.1614 23.7309,-1.1614 0,0 -18.3284,-0.8088 -52.3306,-1.3258z"/>
      </g>
     </g>
    </g>
   </g>
   <path class="fil3 str3" d="M263.164 153.884c-1.7676,1.7677 0.1038,7.3182 9.4216,13.234 4.3974,2.7919 11.5026,4.2025 13.8222,0.0173 3.3066,-5.9663 0.1192,-15.8188 0.1192,-15.8188l-8.004 1.992c1.7565,6.2466 0.0479,7.6805 -2.6567,5.5108 -3.0866,-2.4758 -10.9347,-6.703 -12.7023,-4.9353z"/>
   <path id="_658913472" class="fil3 str5" d="M282.899 151.005c0,0 -0.3167,-2.0576 -2.7263,-1.412"/>
  </g>
  <path class="fil7 str6" d="M310.343 101.031c12.0503,0 21.8227,6.3272 21.8227,14.1292 0,7.8021 -9.7724,14.1293 -21.8227,14.1293 -5.935,0 -11.3167,-1.5354 -15.2508,-4.0254l-8.0449 4.01 4.0251 -7.4806c-1.628,-1.9781 -2.552,-4.2358 -2.552,-6.6333 0,-7.802 9.7724,-14.1292 21.8226,-14.1292z"/>
  <path class="fil9" d="M304.317 118.78c0,0.3556 -0.0233,0.6371 -0.0698,0.8445 -0.0466,0.2075 -0.1249,0.3112 -0.235,0.3112 -0.3979,0 -0.6477,-0.326 -0.7493,-0.9779 -0.0593,-0.3725 -0.0889,-1.2446 -0.0889,-2.6162l-2.0701 0.381 0 1.7145c0,0.127 0,0.2201 0,0.2794 0,0.4657 -0.0296,0.7916 -0.0868,0.9779 -0.0995,0.3133 -0.2942,0.4699 -0.5842,0.4699 -0.1651,0 -0.2794,-0.1503 -0.3408,-0.4508 -0.0613,-0.3006 -0.0931,-0.7303 -0.0931,-1.2891l0 -4.2164c0,-0.9398 0.0339,-1.6468 0.0995,-2.1209 0.0677,-0.4741 0.2011,-0.7112 0.4022,-0.7112 0.2264,0 0.3831,0.2328 0.472,0.6985 0.0868,0.4657 0.1312,1.1705 0.1312,2.1188l0 1.3335 2.0701 -0.2519c0,-0.6689 -0.0021,-1.1832 -0.0063,-1.5431 -0.0043,-0.3598 -0.0149,-0.709 -0.0318,-1.0477 0,-0.8297 0.0381,-1.4584 0.1143,-1.886 0.0762,-0.4275 0.2286,-0.6413 0.4572,-0.6413 0.1947,0 0.3323,0.254 0.4128,0.762 0.0804,0.508 0.1206,1.215 0.1206,2.1209l0.0762 5.7404zm6.4389 -3.0226c0,1.143 -0.2159,2.087 -0.6477,2.8321 -0.4657,0.8043 -1.0964,1.2065 -1.8923,1.2065 -0.9059,0 -1.6214,-0.436 -2.1463,-1.3081 -0.5249,-0.8721 -0.7874,-1.9685 -0.7874,-3.2893 0,-1.1938 0.2138,-2.1929 0.6414,-2.9972 0.4275,-0.8043 1.0054,-1.2065 1.7335,-1.2065 0.9398,0 1.6976,0.4699 2.2733,1.4097 0.5503,0.8975 0.8255,2.0151 0.8255,3.3528zm-1.0668 -0.0127c0,-1.0414 -0.1609,-1.9008 -0.4826,-2.5781 -0.3471,-0.7281 -0.8213,-1.0922 -1.4224,-1.0922 -0.3979,0 -0.726,0.3048 -0.9842,0.9144 -0.2583,0.6096 -0.3874,1.3674 -0.3874,2.2733 0,1.0245 0.1566,1.8542 0.4699,2.4892 0.3556,0.7197 0.8467,1.0795 1.4732,1.0795 0.381,0 0.6985,-0.2942 0.9525,-0.8827 0.254,-0.5884 0.381,-1.3229 0.381,-2.2034zm5.1308 2.9845c0.0254,0.2201 -0.2625,0.4466 -0.8636,0.6794 -0.6011,0.2329 -1.1726,0.3493 -1.7124,0.3493 -0.3767,0 -0.6307,-0.2582 -0.7662,-0.7747 -0.0995,-0.3979 -0.1503,-1.1176 -0.1503,-2.159 0,-0.3387 0,-0.6858 0,-1.0414 0,-0.3556 0,-0.7239 0,-1.1049 0,-2.3453 0.2455,-3.5179 0.7366,-3.5179 0.1863,0 0.3196,0.1651 0.4001,0.4953 0.0804,0.3302 0.1206,0.7916 0.1206,1.3843 0,0.2455 -0.0106,0.7429 -0.0317,1.4922 -0.0212,0.7493 -0.0318,1.2468 -0.0318,1.4923 0,0.5503 0.0106,0.9948 0.0318,1.3335 0.0211,0.3387 0.0613,0.6689 0.1206,0.9906 0.1693,0 0.3916,-0.0191 0.6668,-0.0572 0.2751,-0.0381 0.5312,-0.074 0.7683,-0.1079 0.2032,0 0.3641,0.0381 0.4826,0.1143 0.1185,0.0762 0.1947,0.2201 0.2286,0.4318zm5.1054 -0.127c0,0.3302 -0.0317,0.5842 -0.0952,0.762 -0.0635,0.1778 -0.18,0.2667 -0.3493,0.2667 -0.2371,0 -0.453,-0.3598 -0.6477,-1.0795 -0.1101,-0.4657 -0.2159,-0.9356 -0.3175,-1.4097l-2.159 0c-0.1185,0.4572 -0.2371,0.9144 -0.3556,1.3716 -0.1609,0.5503 -0.3937,0.8255 -0.6985,0.8255 -0.1778,0 -0.2836,-0.0254 -0.3175,-0.0762 -0.0677,-0.1016 -0.1016,-0.2752 -0.1016,-0.5207 0,-0.2032 0.0148,-0.4339 0.0445,-0.6922 0.0296,-0.2582 0.1037,-0.6117 0.2222,-1.0604 0.1185,-0.4487 0.2371,-0.8911 0.3556,-1.3272 0.1185,-0.436 0.3471,-1.2551 0.6858,-2.4574 0.254,-0.8975 0.4022,-1.3716 0.4445,-1.4224 0.2371,-0.8297 0.5884,-1.2446 1.0541,-1.2446 0.2286,0 0.4614,0.182 0.6985,0.5461 0.2371,0.3641 0.4064,0.8255 0.508,1.3843 0.0339,0.0593 0.1164,0.4381 0.2477,1.1366 0.1312,0.6985 0.2518,1.3526 0.3619,1.9622 0.0593,0.3471 0.1185,0.6858 0.1778,1.016 0.0593,0.3302 0.1143,0.7112 0.1651,1.143 0.0508,0.4318 0.0762,0.7239 0.0762,0.8763zm-1.5621 -2.5527l-0.6604 -4.1021 -1.1303 4.1021 1.7907 0z"/>
  <path class="fil1 str5" d="M241.749 146.185l12.7151 0 0 5.5158c0,1.6001 -2.8469,2.898 -6.3575,2.898 -3.5105,0 -6.3576,-1.2979 -6.3576,-2.898l0 -5.5158z"/>
  <path class="fil7 str6" d="M180.857 101.124c12.0503,0 21.8227,6.3272 21.8227,14.1292 0,7.8021 -9.7724,14.1293 -21.8227,14.1293 -5.935,0 -11.3167,-1.5354 -15.2508,-4.0254l-8.0449 4.01 4.0251 -7.4806c-1.628,-1.9781 -2.552,-4.2358 -2.552,-6.6333 0,-7.802 9.7724,-14.1292 21.8226,-14.1292z"/>
  <path class="fil9" d="M174.831 118.873c0,0.3556 -0.0233,0.6371 -0.0698,0.8445 -0.0466,0.2075 -0.1249,0.3112 -0.235,0.3112 -0.3979,0 -0.6477,-0.326 -0.7493,-0.9779 -0.0593,-0.3725 -0.0889,-1.2446 -0.0889,-2.6162l-2.0701 0.381 0 1.7145c0,0.127 0,0.2201 0,0.2794 0,0.4657 -0.0296,0.7916 -0.0868,0.9779 -0.0995,0.3133 -0.2942,0.4699 -0.5842,0.4699 -0.1651,0 -0.2794,-0.1503 -0.3408,-0.4508 -0.0613,-0.3006 -0.0931,-0.7303 -0.0931,-1.2891l0 -4.2164c0,-0.9398 0.0339,-1.6468 0.0995,-2.1209 0.0677,-0.4741 0.2011,-0.7112 0.4022,-0.7112 0.2264,0 0.3831,0.2328 0.472,0.6985 0.0868,0.4657 0.1312,1.1705 0.1312,2.1188l0 1.3335 2.0701 -0.2519c0,-0.6689 -0.0021,-1.1832 -0.0063,-1.5431 -0.0043,-0.3598 -0.0149,-0.709 -0.0318,-1.0477 0,-0.8297 0.0381,-1.4584 0.1143,-1.886 0.0762,-0.4275 0.2286,-0.6413 0.4572,-0.6413 0.1947,0 0.3323,0.254 0.4128,0.762 0.0804,0.508 0.1206,1.215 0.1206,2.1209l0.0762 5.7404zm6.4389 -3.0226c0,1.143 -0.2159,2.087 -0.6477,2.8321 -0.4657,0.8043 -1.0964,1.2065 -1.8923,1.2065 -0.9059,0 -1.6214,-0.436 -2.1463,-1.3081 -0.5249,-0.8721 -0.7874,-1.9685 -0.7874,-3.2893 0,-1.1938 0.2138,-2.1929 0.6414,-2.9972 0.4275,-0.8043 1.0054,-1.2065 1.7335,-1.2065 0.9398,0 1.6976,0.4699 2.2733,1.4097 0.5503,0.8975 0.8255,2.0151 0.8255,3.3528zm-1.0668 -0.0127c0,-1.0414 -0.1609,-1.9008 -0.4826,-2.5781 -0.3471,-0.7281 -0.8213,-1.0922 -1.4224,-1.0922 -0.3979,0 -0.726,0.3048 -0.9842,0.9144 -0.2583,0.6096 -0.3874,1.3674 -0.3874,2.2733 0,1.0245 0.1566,1.8542 0.4699,2.4892 0.3556,0.7197 0.8467,1.0795 1.4732,1.0795 0.381,0 0.6985,-0.2942 0.9525,-0.8827 0.254,-0.5884 0.381,-1.3229 0.381,-2.2034zm5.1308 2.9845c0.0254,0.2201 -0.2625,0.4466 -0.8636,0.6794 -0.6011,0.2329 -1.1726,0.3493 -1.7124,0.3493 -0.3767,0 -0.6307,-0.2582 -0.7662,-0.7747 -0.0995,-0.3979 -0.1503,-1.1176 -0.1503,-2.159 0,-0.3387 0,-0.6858 0,-1.0414 0,-0.3556 0,-0.7239 0,-1.1049 0,-2.3453 0.2455,-3.5179 0.7366,-3.5179 0.1863,0 0.3196,0.1651 0.4001,0.4953 0.0804,0.3302 0.1206,0.7916 0.1206,1.3843 0,0.2455 -0.0106,0.7429 -0.0317,1.4922 -0.0212,0.7493 -0.0318,1.2468 -0.0318,1.4923 0,0.5503 0.0106,0.9948 0.0318,1.3335 0.0211,0.3387 0.0613,0.6689 0.1206,0.9906 0.1693,0 0.3916,-0.0191 0.6668,-0.0572 0.2751,-0.0381 0.5312,-0.074 0.7683,-0.1079 0.2032,0 0.3641,0.0381 0.4826,0.1143 0.1185,0.0762 0.1947,0.2201 0.2286,0.4318zm5.1054 -0.127c0,0.3302 -0.0317,0.5842 -0.0952,0.762 -0.0635,0.1778 -0.18,0.2667 -0.3493,0.2667 -0.2371,0 -0.453,-0.3598 -0.6477,-1.0795 -0.1101,-0.4657 -0.2159,-0.9356 -0.3175,-1.4097l-2.159 0c-0.1185,0.4572 -0.2371,0.9144 -0.3556,1.3716 -0.1609,0.5503 -0.3937,0.8255 -0.6985,0.8255 -0.1778,0 -0.2836,-0.0254 -0.3175,-0.0762 -0.0677,-0.1016 -0.1016,-0.2752 -0.1016,-0.5207 0,-0.2032 0.0148,-0.4339 0.0445,-0.6922 0.0296,-0.2582 0.1037,-0.6117 0.2222,-1.0604 0.1185,-0.4487 0.2371,-0.8911 0.3556,-1.3272 0.1185,-0.436 0.3471,-1.2551 0.6858,-2.4574 0.254,-0.8975 0.4022,-1.3716 0.4445,-1.4224 0.2371,-0.8297 0.5884,-1.2446 1.0541,-1.2446 0.2286,0 0.4614,0.182 0.6985,0.5461 0.2371,0.3641 0.4064,0.8255 0.508,1.3843 0.0339,0.0593 0.1164,0.4381 0.2477,1.1366 0.1312,0.6985 0.2518,1.3526 0.3619,1.9622 0.0593,0.3471 0.1185,0.6858 0.1778,1.016 0.0593,0.3302 0.1143,0.7112 0.1651,1.143 0.0508,0.4318 0.0762,0.7239 0.0762,0.8763zm-1.5621 -2.5527l-0.6604 -4.1021 -1.1303 4.1021 1.7907 0z"/>
  <g id="_658912032">
   <path id="_658913016" class="fil10" d="M272.106 115.475c-1.61,0.6556 -1.5438,4.0138 1.1649,3.5986 2.7086,-0.4153 1.4116,-4.6478 -1.1649,-3.5986z"/>
   <path id="_658912944" class="fil11" d="M272.256 116.37c-0.9353,0.2833 -0.7449,2.1079 0.8594,2.0042 0.3851,-0.0249 0.6217,-0.1796 0.7387,-0.3939 -0.0509,0.0092 -0.1048,0.0162 -0.1622,0.0199 -1.2757,0.0824 -1.6572,-1.0543 -1.2899,-1.6659 -0.0481,0.009 -0.0967,0.0207 -0.146,0.0357z"/>
   <path id="_658912872" class="fil1 str1" d="M221.264 128.872c0.7523,-0.4343 2.0669,0.4336 2.9356,1.9383 0.8687,1.5047 0.9631,3.0771 0.2108,3.5115 -0.7523,0.4343 -2.0669,-0.4336 -2.9356,-1.9383 -0.8688,-1.5047 -0.9631,-3.0771 -0.2108,-3.5115zm53.6856 0c-0.7523,-0.4343 -2.0669,0.4336 -2.9356,1.9383 -0.8687,1.5047 -0.9631,3.0771 -0.2108,3.5115 0.7524,0.4343 2.0669,-0.4336 2.9357,-1.9383 0.8687,-1.5047 0.9631,-3.0771 0.2107,-3.5115z"/>
   <path id="_658912800" class="fil1 str5" d="M248.107 100.533c26.922,0 24.7306,17.0723 24.7306,30.7282 0,13.656 -11.0747,18.7332 -24.7306,18.7332 -13.656,0 -24.7307,-5.0772 -24.7307,-18.7332 0,-13.6559 -2.1914,-30.7282 24.7307,-30.7282z"/>
   <path id="_658912728" class="fil3 str1" d="M246.077 134.762c0,0 1.9981,1.1768 4.0599,0"/>
   <path id="_658912656" class="fil0 str7" d="M246.28 113.54c-0.5978,-0.3337 -3.0619,2.5442 -5.3395,2.4208 -3.5165,-0.1904 0.594,-4.7758 -1.598,-4.5787 -13.0095,1.1695 -15.0375,14.6251 -15.2668,23.798 0,0 -1.4592,-4.6446 -3.0464,-9.0326 -1.5873,-4.388 -1.6807,-16.0893 8.2165,-22.0313 8.7349,-5.2444 17.0322,-5.2193 18.8605,-5.141 1.8283,-0.0783 10.1256,-0.1034 18.8605,5.141 9.8972,5.942 9.8038,17.6433 8.2165,22.0313 -1.5873,4.388 -3.0464,9.0326 -3.0464,9.0326 -0.0564,-8.0406 -1.2704,-19.2135 -10.3955,-22.3695 -2.9099,-1.0066 -2.5776,3.7752 -7.6827,3.8103 -0.9999,0.0068 1.756,-3.9445 0.7367,-3.8716 -4.2304,0.3027 -3.9314,5.0216 -8.0463,4.9023 -2.9861,-0.0866 1.3537,-3.094 -0.4691,-4.1116z"/>
   <path id="_658912584" class="fil12" d="M231.701 135.285c1.6471,0 2.9829,1.3357 2.9829,2.9829 0,1.6471 -1.3358,2.9828 -2.9829,2.9828 -1.6471,0 -2.9829,-1.3357 -2.9829,-2.9828 0,-1.6472 1.3358,-2.9829 2.9829,-2.9829zm32.812 0c1.647,0 2.9828,1.3359 2.9828,2.9829 0,1.6472 -1.3358,2.9829 -2.9828,2.9829 -1.6472,0 -2.983,-1.3357 -2.983,-2.9829 0,-1.647 1.3358,-2.9829 2.983,-2.9829z"/>
   <path id="_658912512" class="fil0" d="M266.78 124.546c0,0 -4.4428,-0.6873 -8.6754,0.3892 0,0 -0.6761,-1.7066 0.8925,-2.4354 0.9397,-0.4363 4.79,-0.5263 5.9579,-0.512 1.2019,0.0147 1.825,2.5582 1.825,2.5582z"/>
   <path id="_658912440" class="fil0" d="M229.566 124.546c0,0 4.4427,-0.6873 8.6753,0.3892 0,0 0.6762,-1.7066 -0.8924,-2.4354 -0.9397,-0.4363 -4.79,-0.5263 -5.958,-0.512 -1.2018,0.0147 -1.8249,2.5582 -1.8249,2.5582z"/>
   <path id="_658912368" class="fil13 str8" d="M252.889 140.817c0,2.6406 -2.1416,4.7822 -4.7822,4.7822 -2.6406,0 -4.7822,-2.1416 -4.7822,-4.7822l9.5644 0z"/>
   <path id="_658912296" class="fil7" d="M262.37 125.562c-1.7106,0 -3.0982,0.8671 -3.0982,1.9365 0,1.0693 1.3876,1.9364 3.0982,1.9364 1.7106,0 3.0983,-0.8671 3.0983,-1.9364 0,-1.0694 -1.3877,-1.9365 -3.0983,-1.9365z"/>
   <g style="clip-path:url(#id14)">
    <g>
     <circle id="_639667472" class="fil0" transform="matrix(-2.81926 -0.755418 -0.755418 2.81926 262.37 127.499)" r="0.682"/>
    </g>
   </g>
   <path class="fil3 str2" d="M262.37 125.562c-1.7106,0 -3.0982,0.8671 -3.0982,1.9365 0,1.0693 1.3876,1.9364 3.0982,1.9364 1.7106,0 3.0983,-0.8671 3.0983,-1.9364 0,-1.0694 -1.3877,-1.9365 -3.0983,-1.9365z"/>
   <path id="_658912224" class="fil7" d="M233.976 125.562c1.7106,0 3.0982,0.8671 3.0982,1.9365 0,1.0693 -1.3876,1.9364 -3.0982,1.9364 -1.7106,0 -3.0983,-0.8671 -3.0983,-1.9364 0,-1.0694 1.3877,-1.9365 3.0983,-1.9365z"/>
   <g style="clip-path:url(#id15)">
    <g>
     <circle id="_639665744" class="fil0" transform="matrix(2.81926 -0.755418 0.755418 2.81926 233.976 127.499)" r="0.682"/>
    </g>
   </g>
   <path class="fil3 str2" d="M233.976 125.562c1.7106,0 3.0982,0.8671 3.0982,1.9365 0,1.0693 -1.3876,1.9364 -3.0982,1.9364 -1.7106,0 -3.0983,-0.8671 -3.0983,-1.9364 0,-1.0694 1.3877,-1.9365 3.0983,-1.9365z"/>
   <g>
    <path id="_658912152" class="fil2" d="M223.283 97.5905c0,7.9808 0,9.788 0,9.788l49.6463 0c0,0 0,-2.1313 0,-9.788 0,-8.3052 -17.1505,-14.1114 -24.8231,-13.2372 -7.6727,-0.8742 -24.8232,5.2563 -24.8232,13.2372z"/>
    <g style="clip-path:url(#id16)">
     <g>
      <ellipse id="_637306664" class="fil8" cx="248.107" cy="112.97" rx="45.4898" ry="15.4548"/>
     </g>
    </g>
    <path class="fil3 str9" d="M223.283 97.5905c0,7.9808 0,9.788 0,9.788l49.6463 0c0,0 0,-2.1313 0,-9.788 0,-8.3052 -17.1505,-14.1114 -24.8231,-13.2372 -7.6727,-0.8742 -24.8232,5.2563 -24.8232,13.2372z"/>
    <ellipse id="_658912080" class="fil2 str9" cx="248.107" cy="107.808" rx="39.5152" ry="3.20593"/>
   </g>
  </g>
  <g id="_658911792">
   <path id="_658911960" class="fil1 str5" d="M151.144 151.497c-0.767,-1.8388 -3.2698,-3.8229 -3.12,-4.3694 0.1498,-0.5465 0.4562,-0.7423 2.8739,-0.0897 0.6293,-1.7946 -2.4298,-4.2766 -1.1019,-5.177 0.8574,-0.5812 2.3476,1.8509 2.7586,2.6223 1.2938,-1.1525 -1.5947,-3.877 0.0344,-4.4375 1.0115,-0.3473 1.9556,2.7963 2.1153,3.7111 1.6029,-0.2818 -0.5092,-3.092 1.0157,-3.3209 1.0158,-0.1523 1.325,2.7445 1.3904,3.59 1.0862,0.4355 0.3306,-1.9141 1.2704,-1.8623 0.7671,0.0422 0.9005,0.6439 0.6792,2.7999 -0.1233,1.1998 0.1812,2.8912 0.0879,4.5415l-0.0463 -0.1402 -7.9576 2.1322z"/>
   <path id="_658911888" class="fil4" d="M135.785 152.073c-1.7676,1.7677 0.1038,7.3182 9.4216,13.234 4.3974,2.7919 11.5026,4.2025 13.8222,0.0173 3.3066,-5.9663 0.1192,-15.8188 0.1192,-15.8188l-8.004 1.992c1.7565,6.2466 0.0479,7.6805 -2.6567,5.5108 -3.0866,-2.4758 -10.9347,-6.703 -12.7023,-4.9353z"/>
   <g style="clip-path:url(#id17)">
    <g>
     <rect id="_639065096" class="fil5" transform="matrix(-0.991445 0.265657 0.265657 0.991445 160.753 148.999)" width="11.3104" height="3.158"/>
     <g>
      <g>
       <path id="_639065024" class="fil5" d="M139.722 138.543c0,0 -2.6555,9.7164 -3.4621,20.0099 -0.8064,10.2932 -0.0658,18.5437 -0.0658,18.5437 0,0 1.5355,-13.2958 3.5279,-38.5536z"/>
       <path id="_639064952" class="fil5" d="M145.349 141.717c0,0 -2.0275,11.3186 -2.2094,21.9502 -0.1817,10.6309 1.0316,18.2134 1.0316,18.2134 0,0 0.7185,-14.067 1.1778,-40.1636z"/>
       <path id="_639064880" class="fil5" d="M150.368 141.717c0,0 2.0274,11.3191 2.2093,21.9502 0.1819,10.6309 -1.0316,18.2134 -1.0316,18.2134 0,0 -0.7185,-14.0675 -1.1777,-40.1636z"/>
       <path id="_639064808" class="fil5" d="M155.995 138.543c0,0 2.6554,9.7164 3.462,20.0097 0.8065,10.2929 0.0658,18.5439 0.0658,18.5439 0,0 -1.5355,-13.2961 -3.5278,-38.5536z"/>
       <path id="_639064736" class="fil5" d="M160.552 135.582c0,0 2.911,8.8384 3.9969,18.8328 1.0859,9.9947 0.5754,18.4427 0.5754,18.4427 0,0 -1.8942,-12.7547 -4.5723,-37.2755z"/>
       <path id="_639064664" class="fil5" d="M135.165 135.582c0,0 -2.9109,8.8384 -3.9969,18.8328 -1.0859,9.9947 -0.5753,18.4427 -0.5753,18.4427 0,0 1.8942,-12.7547 4.5722,-37.2755z"/>
      </g>
      <g>
       <path id="_639064568" class="fil5" d="M121.693 167.369c0,0 14.7474,2.2824 28.5997,2.4872 13.8514,0.2045 23.7309,-1.1614 23.7309,-1.1614 0,0 -18.3284,-0.8088 -52.3306,-1.3258z"/>
       <path id="_639064496" class="fil5" d="M121.693 160.923c0,0 14.7474,2.2824 28.5997,2.4872 13.8514,0.2045 23.7309,-1.1614 23.7309,-1.1614 0,0 -18.3284,-0.8088 -52.3306,-1.3258z"/>
       <path id="_639064424" class="fil5" d="M121.693 153.551c0,0 14.7474,2.2824 28.5997,2.4872 13.8514,0.2045 23.7309,-1.1614 23.7309,-1.1614 0,0 -18.3284,-0.8088 -52.3306,-1.3258z"/>
       <path id="_639064352" class="fil5" d="M121.693 147.586c0,0 14.7474,2.2824 28.5997,2.4872 13.8514,0.2045 23.7309,-1.1614 23.7309,-1.1614 0,0 -18.3284,-0.8088 -52.3306,-1.3258z"/>
      </g>
     </g>
    </g>
   </g>
   <path class="fil3 str3" d="M135.785 152.073c-1.7676,1.7677 0.1038,7.3182 9.4216,13.234 4.3974,2.7919 11.5026,4.2025 13.8222,0.0173 3.3066,-5.9663 0.1192,-15.8188 0.1192,-15.8188l-8.004 1.992c1.7565,6.2466 0.0479,7.6805 -2.6567,5.5108 -3.0866,-2.4758 -10.9347,-6.703 -12.7023,-4.9353z"/>
   <path id="_658911816" class="fil3 str5" d="M155.52 149.194c0,0 -0.3167,-2.0576 -2.7263,-1.412"/>
  </g>
  <path class="fil1 str5" d="M114.215 143.567l13.0238 0 0 5.6497c0,1.639 -2.9159,2.9683 -6.5118,2.9683 -3.5957,0 -6.512,-1.3293 -6.512,-2.9683l0 -5.6497z"/>
  <path class="fil1 str5" d="M120.727 96.8066c27.5756,0 25.331,17.4867 25.331,31.4742 0,13.9875 -11.3435,19.1879 -25.331,19.1879 -13.9875,0 -25.3311,-5.2004 -25.3311,-19.1879 0,-13.9875 -2.2446,-31.4742 25.3311,-31.4742z"/>
  <g id="_658911480">
   <path id="_658911576" class="fil1 str5" d="M101.369 183.577c0.2649,1.9747 2.1689,4.5389 1.8828,5.028 -0.2862,0.4891 -0.6328,0.5989 -2.7992,-0.6572 -1.0723,1.5706 1.2401,4.7598 -0.2756,5.2858 -0.9786,0.3395 -1.7885,-2.3954 -1.9859,-3.2469 -1.548,0.7783 0.5369,4.1577 -1.1818,4.2774 -1.0669,0.0736 -1.1651,-3.2071 -1.0827,-4.1321 -1.6212,-0.1427 -0.3084,3.1184 -1.8406,2.9448 -1.0205,-0.1158 -0.5695,-2.9939 -0.4138,-3.8275 -0.9365,-0.7018 -0.8148,1.7632 -1.7091,1.47 -0.7301,-0.2393 -0.7032,-0.855 0.0685,-2.8803 0.4297,-1.127 0.5734,-2.8396 1.0906,-4.4095l0.0085 0.1475 8.2383 0z"/>
   <path id="_658911504" class="fil4" d="M106.155 151.421c-2.9912,0.4362 -7.0418,1.9941 -10.3446,12.5257 -3.3028,10.5316 -2.6796,19.6299 -2.6796,19.6299l8.2881 0c0,0 1.5116,-15.0568 3.2565,-18.6088 1.7449,-3.5521 1.4796,-13.5468 1.4796,-13.5468z"/>
   <g style="clip-path:url(#id18)">
    <g>
     <g>
      <g>
       <path id="_6383400241" class="fil5" d="M91.4905 147.312c0,0 -2.6555,9.7164 -3.4621,20.0099 -0.8064,10.2932 -0.0658,18.5437 -0.0658,18.5437 0,0 1.5355,-13.2958 3.5279,-38.5536z"/>
       <path id="_638339952" class="fil5" d="M97.1168 150.485c0,0 -2.0275,11.3186 -2.2094,21.9502 -0.1817,10.6309 1.0316,18.2134 1.0316,18.2134 0,0 0.7185,-14.067 1.1778,-40.1636z"/>
       <path id="_638339880" class="fil5" d="M102.137 150.485c0,0 2.0274,11.3191 2.2093,21.9502 0.1819,10.6309 -1.0316,18.2134 -1.0316,18.2134 0,0 -0.7185,-14.0675 -1.1777,-40.1636z"/>
       <path id="_638339808" class="fil5" d="M107.763 147.312c0,0 2.6554,9.7164 3.462,20.0097 0.8065,10.2929 0.0658,18.5439 0.0658,18.5439 0,0 -1.5355,-13.2961 -3.5278,-38.5536z"/>
       <path id="_638339736" class="fil5" d="M112.32 144.35c0,0 2.911,8.8384 3.9969,18.8328 1.0859,9.9947 0.5754,18.4427 0.5754,18.4427 0,0 -1.8942,-12.7547 -4.5723,-37.2755z"/>
       <path id="_638339664" class="fil5" d="M86.9335 144.35c0,0 -2.9109,8.8384 -3.9969,18.8328 -1.0859,9.9947 -0.5753,18.4427 -0.5753,18.4427 0,0 1.8942,-12.7547 4.5722,-37.2755z"/>
      </g>
      <g>
       <path id="_638339568" class="fil5" d="M73.4615 176.137c0,0 14.7474,2.2824 28.5997,2.4872 13.8514,0.2045 23.7309,-1.1614 23.7309,-1.1614 0,0 -18.3284,-0.8088 -52.3306,-1.3258z"/>
       <path id="_638339496" class="fil5" d="M73.4615 169.691c0,0 14.7474,2.2824 28.5997,2.4872 13.8514,0.2045 23.7309,-1.1614 23.7309,-1.1614 0,0 -18.3284,-0.8088 -52.3306,-1.3258z"/>
       <path id="_638339424" class="fil5" d="M73.4615 162.319c0,0 14.7474,2.2824 28.5997,2.4872 13.8514,0.2045 23.7309,-1.1614 23.7309,-1.1614 0,0 -18.3284,-0.8088 -52.3306,-1.3258z"/>
       <path id="_638339352" class="fil5" d="M73.4615 156.354c0,0 14.7474,2.2824 28.5997,2.4872 13.8514,0.2045 23.7309,-1.1614 23.7309,-1.1614 0,0 -18.3284,-0.8088 -52.3306,-1.3258z"/>
      </g>
     </g>
     <rect id="_638339232" class="fil5" x="91.4704" y="180.336" width="11.6092" height="3.24143"/>
    </g>
   </g>
   <path class="fil3 str3" d="M106.155 151.421c-2.9912,0.4362 -7.0418,1.9941 -10.3446,12.5257 -3.3028,10.5316 -2.6796,19.6299 -2.6796,19.6299l8.2881 0c0,0 1.5116,-15.0568 3.2565,-18.6088 1.7449,-3.5521 1.4796,-13.5468 1.4796,-13.5468z"/>
  </g>
  <g id="_658909584">
   <path id="_658911408" class="fil4" d="M86.4124 97.3907c3.3347,3.8004 5.1612,-4.7226 15.0558,-2.1414 9.8946,2.5812 19.9039,2.5179 17.4357,-6.4775 -4.2179,-15.3726 -35.8262,4.8185 -32.4915,8.6189zm68.6296 0c-3.3347,3.8004 -5.1612,-4.7226 -15.0558,-2.1414 -9.8946,2.5812 -19.9039,2.5179 -17.4357,-6.4775 4.2179,-15.3726 35.8262,4.8185 32.4915,8.6189z"/>
   <g style="clip-path:url(#id19)">
    <g>
     <g>
      <g>
       <path id="_6394849601" class="fil5" d="M107.942 66.9124c0,0 -4.1728,15.2677 -5.4402,31.4422 -1.2671,16.1742 -0.1034,29.1384 -0.1034,29.1384 0,0 2.4127,-20.8922 5.5436,-60.5806z"/>
       <path id="_639484888" class="fil5" d="M116.783 71.8987c0,0 -3.1859,17.7852 -3.4717,34.4911 -0.2854,16.7048 1.621,28.6194 1.621,28.6194 0,0 1.129,-22.104 1.8507,-63.1105z"/>
       <path id="_639484816" class="fil5" d="M124.671 71.8987c0,0 3.1857,17.786 3.4715,34.4911 0.2858,16.7048 -1.621,28.6194 -1.621,28.6194 0,0 -1.129,-22.1047 -1.8505,-63.1105z"/>
       <path id="_639484744" class="fil5" d="M133.512 66.9124c0,0 4.1726,15.2677 5.44,31.4418 1.2674,16.1738 0.1034,29.1388 0.1034,29.1388 0,0 -2.4127,-20.8926 -5.5434,-60.5806z"/>
       <path id="_639484672" class="fil5" d="M140.673 62.2585c0,0 4.5741,13.888 6.2804,29.5927 1.7063,15.7051 0.9041,28.9797 0.9041,28.9797 0,0 -2.9764,-20.042 -7.1845,-58.5724z"/>
       <path id="_639484600" class="fil5" d="M100.782 62.2585c0,0 -4.5741,13.888 -6.2806,29.5927 -1.7063,15.7051 -0.9039,28.9797 -0.9039,28.9797 0,0 2.9763,-20.042 7.1845,-58.5724z"/>
      </g>
      <g>
       <path id="_639484504" class="fil5" d="M79.6127 112.207c0,0 23.1731,3.5865 44.9398,3.9082 21.7652,0.3214 37.2892,-1.8248 37.2892,-1.8248 0,0 -28.8001,-1.271 -82.229,-2.0834z"/>
       <path id="_639484432" class="fil5" d="M79.6127 102.077c0,0 23.1731,3.5865 44.9398,3.9082 21.7652,0.3214 37.2892,-1.8248 37.2892,-1.8248 0,0 -28.8001,-1.271 -82.229,-2.0834z"/>
       <path id="_639484360" class="fil5" d="M79.6127 90.4946c0,0 23.1731,3.5865 44.9398,3.9082 21.7652,0.3214 37.2892,-1.8248 37.2892,-1.8248 0,0 -28.8001,-1.271 -82.229,-2.0834z"/>
       <path id="_639484288" class="fil5" d="M79.6127 81.1205c0,0 23.1731,3.5864 44.9398,3.9082 21.7652,0.3213 37.2892,-1.8249 37.2892,-1.8249 0,0 -28.8001,-1.271 -82.229,-2.0833z"/>
      </g>
     </g>
    </g>
   </g>
   <path class="fil3 str4" d="M86.4124 97.3907c3.3347,3.8004 5.1612,-4.7226 15.0558,-2.1414 9.8946,2.5812 19.9039,2.5179 17.4357,-6.4775 -4.2179,-15.3726 -35.8262,4.8185 -32.4915,8.6189zm68.6296 0c-3.3347,3.8004 -5.1612,-4.7226 -15.0558,-2.1414 -9.8946,2.5812 -19.9039,2.5179 -17.4357,-6.4775 4.2179,-15.3726 35.8262,4.8185 32.4915,8.6189z"/>
   <path id="_658911336" class="fil4" d="M120.727 83.5086c3.1623,0 5.7267,2.5644 5.7267,5.7267 0,3.1623 -2.5644,5.7267 -5.7267,5.7267 -3.1623,0 -5.7267,-2.5644 -5.7267,-5.7267 0,-3.1623 2.5644,-5.7267 5.7267,-5.7267z"/>
   <g style="clip-path:url(#id20)">
    <g>
     <g>
      <g>
       <path id="_5914762241" class="fil5" d="M107.942 63.5137c0,0 -4.1728,15.2677 -5.4402,31.4422 -1.2671,16.1742 -0.1034,29.1384 -0.1034,29.1384 0,0 2.4127,-20.8922 5.5436,-60.5806z"/>
       <path id="_591484504" class="fil5" d="M116.783 68.5c0,0 -3.1859,17.7852 -3.4717,34.4911 -0.2854,16.7048 1.621,28.6194 1.621,28.6194 0,0 1.129,-22.104 1.8507,-63.1105z"/>
       <path id="_590509512" class="fil5" d="M124.671 68.5c0,0 3.1857,17.786 3.4715,34.4911 0.2858,16.7048 -1.621,28.6194 -1.621,28.6194 0,0 -1.129,-22.1047 -1.8505,-63.1105z"/>
       <path id="_590509584" class="fil5" d="M133.512 63.5137c0,0 4.1726,15.2677 5.44,31.4418 1.2674,16.1738 0.1034,29.1388 0.1034,29.1388 0,0 -2.4127,-20.8926 -5.5434,-60.5806z"/>
       <path id="_590507496" class="fil5" d="M140.673 58.8598c0,0 4.5741,13.888 6.2804,29.5927 1.7063,15.7051 0.9041,28.9797 0.9041,28.9797 0,0 -2.9764,-20.042 -7.1845,-58.5724z"/>
       <path id="_590510760" class="fil5" d="M100.782 58.8598c0,0 -4.5741,13.888 -6.2806,29.5927 -1.7063,15.7051 -0.9039,28.9797 -0.9039,28.9797 0,0 2.9763,-20.042 7.1845,-58.5724z"/>
      </g>
      <g>
       <path id="_590514000" class="fil5" d="M79.6127 108.808c0,0 23.1731,3.5865 44.9398,3.9082 21.7652,0.3214 37.2892,-1.8248 37.2892,-1.8248 0,0 -28.8001,-1.271 -82.229,-2.0834z"/>
       <path id="_590510328" class="fil5" d="M79.6127 98.6787c0,0 23.1731,3.5865 44.9398,3.9082 21.7652,0.3214 37.2892,-1.8248 37.2892,-1.8248 0,0 -28.8001,-1.271 -82.229,-2.0834z"/>
       <path id="_590511216" class="fil5" d="M79.6127 87.0959c0,0 23.1731,3.5865 44.9398,3.9082 21.7652,0.3214 37.2892,-1.8248 37.2892,-1.8248 0,0 -28.8001,-1.271 -82.229,-2.0834z"/>
       <path id="_590512296" class="fil5" d="M79.6127 77.7218c0,0 23.1731,3.5864 44.9398,3.9082 21.7652,0.3213 37.2892,-1.8249 37.2892,-1.8249 0,0 -28.8001,-1.271 -82.229,-2.0833z"/>
      </g>
     </g>
    </g>
   </g>
   <path class="fil3 str4" d="M120.727 83.5086c3.1623,0 5.7267,2.5644 5.7267,5.7267 0,3.1623 -2.5644,5.7267 -5.7267,5.7267 -3.1623,0 -5.7267,-2.5644 -5.7267,-5.7267 0,-3.1623 2.5644,-5.7267 5.7267,-5.7267z"/>
   <path id="_658911264" class="fil1 str5" d="M93.2326 125.833c0.7706,-0.4449 2.1171,0.4441 3.0069,1.9853 0.8898,1.5412 0.9865,3.1518 0.2159,3.5967 -0.7706,0.4449 -2.1171,-0.4441 -3.0069,-1.9853 -0.8898,-1.5412 -0.9865,-3.1518 -0.2159,-3.5967zm54.989 0c-0.7706,-0.4449 -2.1171,0.4441 -3.0069,1.9853 -0.8898,1.5412 -0.9865,3.1518 -0.2159,3.5967 0.7706,0.4449 2.1171,-0.4441 3.0069,-1.9853 0.8898,-1.5412 0.9865,-3.1518 0.2159,-3.5967z"/>
   <path id="_658911192" class="fil3 str5" d="M118.648 130.79c0,0 2.0466,1.2541 4.1584,0"/>
   <path id="_658911120" class="fil0 str2" d="M113.377 109.091c-0.5102,0.5597 -0.6686,2.7948 -5.7382,2.9452 -5.0695,0.1503 -5.9434,1.0812 -8.0474,6.4185 -2.104,5.3372 -3.4785,15.9207 -3.4785,15.9207 0,0 -1.4946,-6.8381 -3.1204,-11.3326 -1.6258,-4.4945 -1.7214,-16.4798 8.416,-22.5661 8.947,-5.3718 17.4457,-5.3461 19.3184,-5.2658 1.8727,-0.0803 10.3714,-0.106 19.3184,5.2658 10.1374,6.0863 10.0418,18.0716 8.416,22.5661 -1.6258,4.4945 -3.1204,11.3326 -3.1204,11.3326 0,0 -1.3745,-10.5835 -3.4785,-15.9207 -2.104,-5.3373 -17.6778,-6.2682 -22.7473,-6.4185 -5.0695,-0.1504 -5.2279,-2.3855 -5.7381,-2.9452z"/>
   <path id="_658911048" class="fil8" d="M137.718 102.603c0,0 4.0228,3.1794 3.999,7.2473 0,0 -1.7372,-3.6451 -3.999,-7.2473z"/>
   <path id="_658910976" class="fil8" d="M130.545 100.286c0,0 4.0229,3.1794 3.999,7.2474 0,0 -1.7371,-3.6452 -3.999,-7.2474z"/>
   <path id="_658910904" class="fil8" d="M123.142 98.246c0,0 4.0228,3.1794 3.999,7.2474 0,0 -1.7372,-3.6452 -3.999,-7.2474z"/>
   <path id="_658910832" class="fil8" d="M105.581 100.286c0,0 -4.0229,3.1794 -3.999,7.2474 0,0 1.7371,-3.6452 3.999,-7.2474z"/>
   <path id="_658910760" class="fil13 str8" d="M125.509 138.26c0,2.6406 -2.1416,4.7822 -4.7822,4.7822 -2.6406,0 -4.7822,-2.1416 -4.7822,-4.7822l9.5644 0z"/>
   <path id="_658910688" class="fil12" d="M103.923 132.402c1.687,0 3.0552,1.368 3.0552,3.0552 0,1.6872 -1.3682,3.0552 -3.0552,3.0552 -1.6872,0 -3.0554,-1.368 -3.0554,-3.0552 0,-1.6872 1.3682,-3.0552 3.0554,-3.0552zm33.6084 0c1.6871,0 3.0553,1.3682 3.0553,3.0552 0,1.6873 -1.3682,3.0553 -3.0553,3.0553 -1.6871,0 -3.0553,-1.368 -3.0553,-3.0553 0,-1.687 1.3682,-3.0552 3.0553,-3.0552z"/>
   <path id="_658910616" class="fil7" d="M106.755 122.377c1.6523,0.4427 2.7683,1.6395 2.4915,2.6723 -0.2767,1.0329 -1.8416,1.5113 -3.4939,1.0686 -1.6523,-0.4427 -2.7683,-1.6395 -2.4915,-2.6723 0.2768,-1.0329 1.8416,-1.5113 3.4939,-1.0686z"/>
   <g style="clip-path:url(#id21)">
    <g>
     <circle id="_639670928" class="fil0" cx="106.254" cy="124.248" r="1.99056"/>
    </g>
   </g>
   <path class="fil3 str2" d="M106.755 122.377c1.6523,0.4427 2.7683,1.6395 2.4915,2.6723 -0.2767,1.0329 -1.8416,1.5113 -3.4939,1.0686 -1.6523,-0.4427 -2.7683,-1.6395 -2.4915,-2.6723 0.2768,-1.0329 1.8416,-1.5113 3.4939,-1.0686z"/>
   <path id="_658910544" class="fil0" d="M102.247 120.972c0,0 4.3353,-0.7039 8.6706,0.3986 0,0 -3.4882,-4.6841 -8.6706,-0.3986z"/>
   <path id="_658910472" class="fil7" d="M134.815 122.377c-1.6523,0.4427 -2.7682,1.6395 -2.4915,2.6723 0.2768,1.0329 1.8416,1.5113 3.4939,1.0686 1.6523,-0.4427 2.7683,-1.6395 2.4915,-2.6723 -0.2767,-1.0329 -1.8415,-1.5113 -3.4939,-1.0686z"/>
   <g style="clip-path:url(#id22)">
    <g>
     <circle id="_639669200" class="fil0" cx="135.316" cy="124.248" r="1.99056"/>
    </g>
   </g>
   <path class="fil3 str2" d="M134.815 122.377c-1.6523,0.4427 -2.7682,1.6395 -2.4915,2.6723 0.2768,1.0329 1.8416,1.5113 3.4939,1.0686 1.6523,-0.4427 2.7683,-1.6395 2.4915,-2.6723 -0.2767,-1.0329 -1.8415,-1.5113 -3.4939,-1.0686z"/>
   <path id="_658910400" class="fil0" d="M139.322 120.972c0,0 -4.3353,-0.7039 -8.6707,0.3986 0,0 3.4882,-4.6841 8.6707,-0.3986z"/>
   <g>
    <g>
     <path id="_658910328" class="fil6" d="M95.6143 136.643c0.4458,0.1383 0.7855,0.8485 0.7855,1.7036 0,0.9543 -0.423,1.7281 -0.9445,1.7281 -0.5216,0 -0.9446,-0.7738 -0.9446,-1.7281 0,-0.8551 0.3397,-1.5653 0.7856,-1.7036l0 -6.7383 0.318 0 0 6.7383z"/>
     <path id="_658910256" class="fil6" d="M94.8193 139.321c0.4458,0.1383 0.7855,0.8485 0.7855,1.7036 0,0.9543 -0.423,1.7281 -0.9445,1.7281 -0.5216,0 -0.9446,-0.7738 -0.9446,-1.7281 0,-0.8551 0.3397,-1.5653 0.7856,-1.7036l0 -9.4383 0.318 0 0 9.4383z"/>
    </g>
    <g>
     <path id="_658910160" class="fil6" d="M145.84 136.643c-0.4458,0.1383 -0.7855,0.8485 -0.7855,1.7036 0,0.9543 0.423,1.7281 0.9445,1.7281 0.5216,0 0.9446,-0.7738 0.9446,-1.7281 0,-0.8551 -0.3397,-1.5653 -0.7856,-1.7036l0 -6.7383 -0.318 0 0 6.7383z"/>
     <path id="_658910088" class="fil6" d="M146.635 139.321c-0.4458,0.1383 -0.7855,0.8485 -0.7855,1.7036 0,0.9543 0.423,1.7281 0.9445,1.7281 0.5216,0 0.9446,-0.7738 0.9446,-1.7281 0,-0.8551 -0.3397,-1.5653 -0.7856,-1.7036l0 -9.4383 -0.318 0 0 9.4383z"/>
    </g>
   </g>
   <path id="_658909968" class="fil4" d="M97.5538 112.863c-1.9494,6.7668 -2.3274,14.6901 -1.3857,21.7029 0,0 -2.436,-5.9426 -4.1045,-8.7327 -1.6684,-2.7901 -8.2749,-16.0991 3.6859,-28.3906 10.6487,-10.9431 39.3066,-10.9431 49.9553,0 11.9608,12.2915 5.3543,25.6005 3.6859,28.3906 -1.6685,2.7901 -4.1045,8.7327 -4.1045,8.7327 0,0 1.547,-11.5228 -1.3857,-21.7029 -4.5128,-15.6653 -41.8339,-15.6653 -46.3467,0z"/>
   <g style="clip-path:url(#id23)">
    <g>
     <g>
      <g>
       <path id="_6395056961" class="fil5" d="M107.542 80.179c0,0 -4.1728,15.2677 -5.4402,31.4422 -1.2671,16.1742 -0.1034,29.1384 -0.1034,29.1384 0,0 2.4127,-20.8922 5.5436,-60.5806z"/>
       <path id="_639505624" class="fil5" d="M116.383 85.1653c0,0 -3.1859,17.7852 -3.4717,34.4911 -0.2854,16.7048 1.621,28.6194 1.621,28.6194 0,0 1.129,-22.104 1.8507,-63.1105z"/>
       <path id="_639505552" class="fil5" d="M124.271 85.1653c0,0 3.1857,17.786 3.4715,34.4911 0.2858,16.7048 -1.621,28.6194 -1.621,28.6194 0,0 -1.129,-22.1047 -1.8505,-63.1105z"/>
       <path id="_639505480" class="fil5" d="M133.112 80.179c0,0 4.1726,15.2677 5.44,31.4418 1.2674,16.1738 0.1034,29.1388 0.1034,29.1388 0,0 -2.4127,-20.8926 -5.5434,-60.5806z"/>
       <path id="_639505408" class="fil5" d="M140.272 75.5251c0,0 4.5741,13.888 6.2804,29.5927 1.7063,15.7051 0.9041,28.9797 0.9041,28.9797 0,0 -2.9764,-20.042 -7.1845,-58.5724z"/>
       <path id="_639505336" class="fil5" d="M100.382 75.5251c0,0 -4.5741,13.888 -6.2806,29.5927 -1.7063,15.7051 -0.9039,28.9797 -0.9039,28.9797 0,0 2.9763,-20.042 7.1845,-58.5724z"/>
      </g>
      <g>
       <path id="_639505240" class="fil5" d="M79.2126 125.473c0,0 23.1731,3.5865 44.9398,3.9082 21.7652,0.3214 37.2892,-1.8248 37.2892,-1.8248 0,0 -28.8001,-1.271 -82.229,-2.0834z"/>
       <path id="_639505168" class="fil5" d="M79.2126 115.344c0,0 23.1731,3.5865 44.9398,3.9082 21.7652,0.3214 37.2892,-1.8248 37.2892,-1.8248 0,0 -28.8001,-1.271 -82.229,-2.0834z"/>
       <path id="_639505096" class="fil5" d="M79.2126 103.761c0,0 23.1731,3.5865 44.9398,3.9082 21.7652,0.3214 37.2892,-1.8248 37.2892,-1.8248 0,0 -28.8001,-1.271 -82.229,-2.0834z"/>
       <path id="_639505024" class="fil5" d="M79.2126 94.3871c0,0 23.1731,3.5864 44.9398,3.9082 21.7652,0.3213 37.2892,-1.8249 37.2892,-1.8249 0,0 -28.8001,-1.271 -82.229,-2.0833z"/>
      </g>
     </g>
    </g>
   </g>
   <path class="fil3 str4" d="M97.5538 112.863c-1.9494,6.7668 -2.3274,14.6901 -1.3857,21.7029 0,0 -2.436,-5.9426 -4.1045,-8.7327 -1.6684,-2.7901 -8.2749,-16.0991 3.6859,-28.3906 10.6487,-10.9431 39.3066,-10.9431 49.9553,0 11.9608,12.2915 5.3543,25.6005 3.6859,28.3906 -1.6685,2.7901 -4.1045,8.7327 -4.1045,8.7327 0,0 1.547,-11.5228 -1.3857,-21.7029 -4.5128,-15.6653 -41.8339,-15.6653 -46.3467,0z"/>
   <g>
    <g>
     <path id="_658909896" class="fil7" d="M95.1608 141.423c-0.0809,0.5902 -0.3057,1.0149 -0.5703,1.0149 -0.3326,0 -0.6023,-0.6711 -0.6023,-1.4985 0,-0.4351 0.0746,-0.8269 0.1937,-1.1007 -0.0208,0.1517 -0.0321,0.3144 -0.0321,0.4836 0,0.8275 0.2697,1.4986 0.6023,1.4986 0.1578,0 0.3013,-0.151 0.4087,-0.3979z"/>
     <path id="_658909824" class="fil7" d="M96.0145 138.775c-0.0809,0.5902 -0.3057,1.0149 -0.5703,1.0149 -0.3326,0 -0.6023,-0.6711 -0.6023,-1.4985 0,-0.4351 0.0746,-0.8269 0.1937,-1.1007 -0.0208,0.1517 -0.0321,0.3144 -0.0321,0.4836 0,0.8275 0.2697,1.4986 0.6023,1.4986 0.1578,0 0.3013,-0.151 0.4087,-0.3979z"/>
    </g>
    <g>
     <path id="_658909728" class="fil7" d="M146.293 141.423c0.0809,0.5902 0.3057,1.0149 0.5703,1.0149 0.3326,0 0.6023,-0.6711 0.6023,-1.4985 0,-0.4351 -0.0746,-0.8269 -0.1937,-1.1007 0.0208,0.1517 0.0321,0.3144 0.0321,0.4836 0,0.8275 -0.2697,1.4986 -0.6023,1.4986 -0.1578,0 -0.3013,-0.151 -0.4087,-0.3979z"/>
     <path id="_658909656" class="fil7" d="M145.44 138.775c0.0809,0.5902 0.3057,1.0149 0.5703,1.0149 0.3326,0 0.6023,-0.6711 0.6023,-1.4985 0,-0.4351 -0.0746,-0.8269 -0.1937,-1.1007 0.0208,0.1517 0.0321,0.3144 0.0321,0.4836 0,0.8275 -0.2697,1.4986 -0.6023,1.4986 -0.1578,0 -0.3013,-0.151 -0.4087,-0.3979z"/>
    </g>
   </g>
  </g>
 </g>
</svg>
