<?xml version="1.0" encoding="UTF-8"?>
<!DOCTYPE svg PUBLIC "-//W3C//DTD SVG 1.1//EN" "http://www.w3.org/Graphics/SVG/1.1/DTD/svg11.dtd">
<!-- Creator: CorelDRAW -->
<svg xmlns="http://www.w3.org/2000/svg" xml:space="preserve" width="420mm" height="297mm" style="shape-rendering:geometricPrecision; text-rendering:geometricPrecision; image-rendering:optimizeQuality; fill-rule:evenodd; clip-rule:evenodd"
viewBox="0 0 420 297"
 xmlns:xlink="http://www.w3.org/1999/xlink">
 <defs>
  <style type="text/css">
   <![CDATA[
    .str7 {stroke:#1F1A17;stroke-width:0.75}
    .str5 {stroke:#1F1A17;stroke-width:0.75;stroke-linecap:round;stroke-linejoin:round}
    .str1 {stroke:#8F5444;stroke-width:0.75;stroke-linecap:round;stroke-linejoin:round}
    .str9 {stroke:#969594;stroke-width:0.75;stroke-linecap:round;stroke-linejoin:round}
    .str0 {stroke:#542829;stroke-width:0.75}
    .str2 {stroke:#542829;stroke-width:0.75;stroke-linecap:round;stroke-linejoin:round}
    .str8 {stroke:#8A2C2F;stroke-width:0.75;stroke-linecap:round;stroke-linejoin:round}
    .str3 {stroke:#1F1A17;stroke-linecap:round;stroke-linejoin:round}
    .str4 {stroke:#8F5444;stroke-linecap:round;stroke-linejoin:round}
    .str6 {stroke:#1F1A17;stroke-width:1.5;stroke-linecap:round;stroke-linejoin:round}
    .fil2 {fill:none}
    .fil4 {fill:#1F1A17}
    .fil5 {fill:#383431}
    .fil8 {fill:#4D4948}
    .fil10 {fill:#969594}
    .fil11 {fill:#B76767}
    .fil9 {fill:#C2C1C1}
    .fil0 {fill:#DA251D}
    .fil12 {fill:#DB214C}
    .fil7 {fill:white}
    .fil3 {fill:#C3957D}
    .fil1 {fill:#542829}
    .fil6 {fill:#E0CFBF}
    .fil13 {fill:#1F1A17;fill-rule:nonzero}
   ]]>
  </style>
    <clipPath id="id0">
     <path d="M93.3994 143.634c0.1432,8.9681 5.1672,17.5358 17.5846,15.9671 12.4174,-1.5687 11.8852,-5.7824 11.8852,-5.7824l-3.2385 -25.6345 -28.1731 0.0787c0,0 1.7987,6.403 1.9418,15.3711z"/>
    </clipPath>
    <clipPath id="id1">
     <path d="M148.998 136.611c2.0917,8.7219 -0.6438,18.2699 -13.0612,19.8386 -12.4174,1.5686 -12.9498,-2.645 -12.9498,-2.645l-3.2383 -25.6345 27.3075 -6.9302c0,0 -0.1498,6.6492 1.9418,15.3711z"/>
    </clipPath>
     <clipPath id="id2">
      <path d="M107.268 151.494c-2.165,-1.2499 -7.042,1.9943 -10.3446,12.5257 -1.5586,4.9702 -1.0823,12.1984 3.5607,13.3557 6.6188,1.6498 15.3106,-3.979 15.3106,-3.979l-3.9956 -7.2157c-5.5792,3.3133 -7.4065,2.0341 -6.0107,-1.1399 1.5926,-3.6223 3.6446,-12.297 1.4796,-13.5468z"/>
     </clipPath>
     <clipPath id="id3">
      <path d="M134.441 151.494c2.165,-1.2499 7.042,1.9943 10.3446,12.5257 1.5586,4.9702 1.0823,12.1984 -3.5607,13.3557 -6.6188,1.6498 -15.3106,-3.979 -15.3106,-3.979l3.9956 -7.2157c5.5792,3.3133 7.4065,2.0341 6.0107,-1.1399 -1.5926,-3.6223 -3.6446,-12.297 -1.4796,-13.5468z"/>
     </clipPath>
      <clipPath id="id4">
       <path d="M123.84 212.304c0.2007,-3.2221 2.3928,-4.8231 5.8211,-5.063 3.4284,-0.2399 6.0736,0.9334 6.5963,4.1942 0.6546,4.083 -4.4284,4.6329 -5.7362,4.7244 -4.3317,0.303 -6.8819,-0.6335 -6.6812,-3.8556z"/>
      </clipPath>
      <clipPath id="id5">
       <path d="M117.868 212.304c-0.2007,-3.2221 -2.3928,-4.8231 -5.8211,-5.063 -3.4284,-0.2399 -6.0736,0.9334 -6.5963,4.1942 -0.6546,4.083 4.4284,4.6329 5.7362,4.7244 4.3317,0.303 6.8819,-0.6335 6.6812,-3.8556z"/>
      </clipPath>
    <clipPath id="id6">
     <path d="M105.048 173.439c-6.4115,8.0868 -6.7223,24.0029 -5.442,26.0161 1.025,1.6121 10.9915,4.875 21.2486,4.875 10.2572,0 20.2237,-3.2629 21.2487,-4.875 1.2802,-2.0132 0.9694,-17.9293 -5.4421,-26.0161l-15.8066 0 -15.8066 0z"/>
    </clipPath>
    <clipPath id="id7">
     <path d="M107.851 150.068c-5.5487,3.2334 -2.826,12.8788 -2.905,15.7167 -0.0791,2.8378 -2.826,9.1206 3.1026,10.4245 8.4026,1.8479 17.2088,1.8479 25.6114,0 5.9286,-1.3039 3.1817,-7.5867 3.1027,-10.4245 -0.0791,-2.8379 2.6436,-12.4833 -2.905,-15.7167 -6.4833,-3.7781 -19.5235,-3.7781 -26.0067,0z"/>
    </clipPath>
     <clipPath id="id8">
      <path d="M104.531 168.614c-0.0154,0.0901 -0.0307,0.1807 -0.0456,0.2719l-0.0042 0.026c-0.0295,0.1812 -0.0578,0.3643 -0.084,0.5486l-0.0042 0.0296 -0.0173 0.1248 -0.0005 0.0035c-0.0119,0.0887 -0.0231,0.1778 -0.0339,0.2669l-0.0036 0.0299 -0.0142 0.1234 -0.0049 0.0456c-0.0076,0.0705 -0.0148,0.1411 -0.0215,0.2117l-0.0052 0.0554 -0.0084 0.0982 -0.0057 0.0704 -0.0079 0.1059 -0.0044 0.0673c-0.0035,0.0548 -0.0067,0.1096 -0.0095,0.1644l-0.004 0.0826 -0.0038 0.0993 -0.0022 0.0718 -0.0024 0.1031 -0.0007 0.068m-0.0003 0.1614l0.0009 0.0859 0.002 0.0904 0.0026 0.0804 0.0037 0.0934c0.0016,0.0337 0.0037,0.0671 0.0058,0.1007 0.0027,0.0438 0.0058,0.0874 0.0092,0.131l0.0069 0.0829 0.0079 0.0822c0.0035,0.0343 0.0074,0.0684 0.0114,0.1025l0.0075 0.0639c0.0065,0.0509 0.0137,0.1013 0.0214,0.1518l0.0119 0.0735 0.0163 0.094 0.0135 0.0725c0.007,0.0356 0.0144,0.071 0.0221,0.1063l0.0201 0.0897c0.0088,0.0378 0.018,0.0756 0.0276,0.113l0.0191 0.0709c0.0086,0.0316 0.0176,0.0631 0.0268,0.0944l0.0191 0.0636c0.014,0.0452 0.0287,0.09 0.044,0.1346l0.0205 0.0575c0.013,0.0363 0.0264,0.0725 0.0404,0.1083l0.025 0.0623c0.0126,0.0308 0.0256,0.0613 0.0388,0.0918l0.0272 0.0619c0.0209,0.046 0.0426,0.0918 0.0653,0.137l0.0257 0.0492c0.0165,0.0317 0.0333,0.0633 0.0506,0.0946l0.0335 0.0593c0.0186,0.0321 0.0378,0.0641 0.0573,0.0957l0.0275 0.0447c0.0281,0.0441 0.0574,0.0878 0.0874,0.131l0.0346 0.0482c0.0211,0.0292 0.0426,0.0583 0.0647,0.087l0.0404 0.0521c0.0278,0.0349 0.0563,0.0694 0.0855,0.1036l0.0209 0.0248c0.036,0.0413 0.0734,0.0819 0.1116,0.1221l0.0425 0.0434c0.0279,0.0283 0.0564,0.0564 0.0855,0.0841l0.043 0.0407c0.0416,0.0385 0.0839,0.0764 0.1279,0.1136l0.0231 0.0189c0.0383,0.0319 0.0776,0.0633 0.1177,0.0942l0.0537 0.0404c0.0336,0.025 0.0679,0.0497 0.1028,0.0741l0.0517 0.0359c0.05,0.0338 0.1011,0.0671 0.1536,0.0995l0.0416 0.0248c0.0421,0.0254 0.0851,0.0504 0.1288,0.0749l0.0585 0.0321c0.0459,0.0248 0.0928,0.0491 0.1404,0.073l0.0405 0.0205c0.061,0.0299 0.1237,0.0588 0.1877,0.087l0.05 0.0214c0.0506,0.0217 0.1023,0.043 0.1547,0.0637l0.0611 0.0237c0.0574,0.022 0.1162,0.0433 0.1758,0.064l0.0384 0.0136c0.0711,0.0242 0.1442,0.0472 0.2184,0.0696l0.0632 0.0184c0.0562,0.0164 0.1136,0.0321 0.1715,0.0476l0.0766 0.02c0.0783,0.02 0.1582,0.0392 0.2401,0.0572 8.4026,1.8479 17.2088,1.8479 25.6114,0 0.0821,-0.0181 0.1618,-0.0374 0.2407,-0.0573l0.0748 -0.0196c0.0593,-0.0157 0.1177,-0.0319 0.1751,-0.0486l0.0581 -0.0168c0.0751,-0.0226 0.1488,-0.046 0.2208,-0.0704l0.0372 -0.0132c0.0601,-0.0208 0.119,-0.0423 0.1769,-0.0643l0.059 -0.0229c0.0569,-0.0224 0.1129,-0.0455 0.1677,-0.0691l0.0336 -0.0142c0.0658,-0.0289 0.1299,-0.0588 0.1926,-0.0894l0.038 -0.0191c0.0496,-0.0248 0.0983,-0.0501 0.146,-0.0759l0.0509 -0.0278c0.0533,-0.0297 0.1056,-0.0599 0.1564,-0.0909l0.0129 -0.0077c0.0551,-0.0339 0.1084,-0.0687 0.1607,-0.1041l0.0441 -0.0305c0.0384,-0.0267 0.0759,-0.0539 0.1128,-0.0813l0.0444 -0.0333c0.0478,-0.0367 0.0946,-0.0738 0.1398,-0.1119l0.0165 -0.0143c0.0408,-0.0347 0.0804,-0.07 0.1191,-0.1057l0.036 -0.0338c0.0331,-0.0315 0.0655,-0.0634 0.0971,-0.0956l0.0318 -0.0324c0.0397,-0.0414 0.0782,-0.0835 0.1154,-0.1261l0.0216 -0.0254c0.0299,-0.0348 0.0588,-0.0701 0.0872,-0.1057l0.0331 -0.0423c0.0282,-0.0365 0.0556,-0.0734 0.0822,-0.1107l0.0179 -0.0246c0.032,-0.0456 0.0627,-0.0918 0.0924,-0.1385l0.0222 -0.0358c0.0227,-0.0366 0.0449,-0.0735 0.0663,-0.1107l0.0238 -0.0415c0.0269,-0.048 0.0529,-0.0964 0.0777,-0.1454l0.0017 -0.0034c0.0245,-0.0485 0.0476,-0.0976 0.0701,-0.147l0.0183 -0.0412c0.0177,-0.0401 0.0348,-0.0803 0.0512,-0.121l0.015 -0.0371c0.0202,-0.0513 0.0397,-0.1031 0.058,-0.1552l0.0088 -0.0262c0.0154,-0.0446 0.0301,-0.0896 0.0441,-0.1348l0.0135 -0.0445c0.0131,-0.0437 0.0256,-0.0876 0.0375,-0.1318l0.0088 -0.032c0.014,-0.0533 0.027,-0.1071 0.0394,-0.1611l0.0095 -0.0435c0.0093,-0.0422 0.0181,-0.0846 0.0264,-0.1272l0.0092 -0.0479c0.0204,-0.1096 0.0377,-0.2205 0.0522,-0.3323l0.007 -0.0571c0.0051,-0.0421 0.0097,-0.0844 0.014,-0.1268l0.0045 -0.0444c0.0055,-0.0578 0.0104,-0.1157 0.0145,-0.1739l0.001 -0.0169c0.0035,-0.0509 0.0063,-0.102 0.0088,-0.1532l0.0026 -0.06c0.0017,-0.042 0.003,-0.084 0.0041,-0.1263l0.0013 -0.0487c0.0011,-0.0578 0.0017,-0.1159 0.0018,-0.1739l-0.0002 -0.0376 -0.0015 -0.1377 -0.0012 -0.0599 -0.0042 -0.14 -0.0012 -0.0361c-0.0023,-0.0582 -0.0053,-0.1164 -0.0086,-0.1746l-0.0028 -0.0482 -0.0087 -0.1331 -0.0042 -0.0593c-0.004,-0.0538 -0.0084,-0.1078 -0.0131,-0.1616l-0.0042 -0.0462 -0.0131 -0.1378 -0.0065 -0.0625 -0.0136 -0.1257 -0.0066 -0.059 -0.0167 -0.1397 -0.015 -0.117 -0.0088 -0.0673 -0.0146 -0.1075 -0.0073 -0.0524 -0.0251 -0.173 -0.0133 -0.0889 -0.0111 -0.0715 -0.0156 -0.0996 -0.0145 -0.0911 -0.0198 -0.121 -0.0048 -0.0294 -0.0238 -0.1413c-4.4904,1.0925 -10.1637,1.7449 -16.3317,1.7449 -6.168,0 -11.8413,-0.6524 -16.3316,-1.7449l0.0088 -0.0515"/>
     </clipPath>
     <clipPath id="id9">
      <path d="M107.851 150.068c-5.5487,3.2334 -2.826,12.8788 -2.905,15.7167 -0.0791,2.8378 -2.826,9.1206 3.1026,10.4245 8.4026,1.8479 17.2088,1.8479 25.6114,0 5.9286,-1.3039 3.1817,-7.5867 3.1027,-10.4245 -0.0791,-2.8379 2.6436,-12.4833 -2.905,-15.7167 -6.4833,-3.7781 -19.5235,-3.7781 -26.0067,0z"/>
     </clipPath>
     <clipPath id="id10">
      <path d="M234.82 153.336c-2.165,-1.2499 -7.042,1.9943 -10.3446,12.5257 -1.5586,4.9702 -1.0823,12.1984 3.5607,13.3557 6.6188,1.6498 15.3106,-3.979 15.3106,-3.979l-3.9956 -7.2157c-5.5792,3.3133 -7.4065,2.0341 -6.0107,-1.1399 1.5926,-3.6223 3.6446,-12.297 1.4796,-13.5468z"/>
     </clipPath>
     <clipPath id="id11">
      <path d="M261.393 153.336c2.165,-1.2499 7.042,1.9943 10.3446,12.5257 1.5586,4.9702 1.0823,12.1984 -3.5607,13.3557 -6.6188,1.6498 -15.3106,-3.979 -15.3106,-3.979l3.9956 -7.2157c5.5792,3.3133 7.4065,2.0341 6.0107,-1.1399 -1.5926,-3.6223 -3.6446,-12.297 -1.4796,-13.5468z"/>
     </clipPath>
     <clipPath id="id12">
      <path d="M239.937 206.419c3.4273,0.2623 5.9439,3.9121 5.7278,6.7356 -0.2162,2.8235 -3.0833,3.7531 -6.5106,3.4907 -3.4274,-0.2624 -6.1195,-1.6175 -5.9033,-4.441 0.2161,-2.8235 3.2587,-6.0477 6.6861,-5.7853z"/>
     </clipPath>
     <clipPath id="id13">
      <path d="M256.666 206.419c-3.4273,0.2623 -5.9439,3.9121 -5.7278,6.7356 0.2162,2.8235 3.0833,3.7531 6.5106,3.4907 3.4274,-0.2624 6.1195,-1.6175 5.9033,-4.441 -0.2161,-2.8235 -3.2587,-6.0477 -6.6861,-5.7853z"/>
     </clipPath>
    <clipPath id="id14">
     <path d="M248.102 187.442c-0.0596,1.2457 -3.7696,18.4368 -3.7696,18.4368 0,0 -2.4096,1.8423 -11.4121,-0.57 -3.1711,-9.5366 -0.9073,-32.747 -0.7276,-33.3156l15.1762 -0.0347 0.6977 -0.0016 0.6977 -0.0016 15.1762 -0.0347c0.1823,0.5677 2.5523,23.7675 -0.5751,33.3185 -8.9914,2.4535 -11.4093,0.6223 -11.4093,0.6223 0,0 -3.7887,-17.174 -3.8541,-18.4194z"/>
    </clipPath>
   <clipPath id="id15">
    <path d="M235.411 152.173c-5.4172,3.1568 -2.759,12.5736 -2.8362,15.3442 -0.0772,2.7705 -2.759,8.9045 3.0291,10.1774 4.1018,0.902 8.302,1.3532 12.5022,1.3532 4.2002,0 8.4006,-0.4512 12.5022,-1.3532 5.7881,-1.2728 3.1063,-7.4069 3.0291,-10.1774 -0.0772,-2.7706 2.581,-12.1874 -2.8361,-15.3442 -6.3296,-3.6885 -19.0608,-3.6885 -25.3903,0z"/>
   </clipPath>
    <clipPath id="id16">
     <path d="M264.695 126.028c-1.6971,-0.2144 -3.1826,0.4719 -3.3166,1.5328 -0.134,1.0609 1.1341,2.0951 2.8312,2.3095 1.6971,0.2144 3.1825,-0.472 3.3165,-1.5328 0.134,-1.0609 -1.134,-2.0951 -2.8311,-2.3095z"/>
    </clipPath>
    <clipPath id="id17">
     <path d="M236.526 122.47c1.6971,0.2144 2.9651,1.2486 2.8311,2.3095 -0.134,1.0609 -1.6194,1.7473 -3.3165,1.5329 -1.6971,-0.2144 -2.9652,-1.2486 -2.8312,-2.3095 0.134,-1.0609 1.6195,-1.7473 3.3166,-1.5329z"/>
    </clipPath>
     <clipPath id="id18">
      <path d="M229.423 93.378c-1.0002,7.9179 -1.2267,9.7108 -1.2267,9.7108l49.2548 6.2223c0,0 0.2671,-2.1144 1.2268,-9.7108 1.0409,-8.2397 -15.2466,-16.1496 -22.9684,-16.2439 -7.5026,-1.829 -25.2862,2.1036 -26.2865,10.0216z"/>
     </clipPath>
      <clipPath id="id19">
       <path d="M81.7683 101.788c3.7847,3.3525 4.5286,-5.3322 14.6687,-4.0115 10.14,1.3207 20.0625,0.0034 16.4863,-8.6117 -6.1113,-14.7227 -34.9398,9.2707 -31.155,12.6232zm68.0884 -8.6015c-2.8321,4.1883 -5.7124,-4.0385 -15.2055,-0.2376 -9.493,3.801 -19.4313,4.9927 -18.11,-4.2411 2.2579,-15.78 36.1476,0.2903 33.3155,4.4787z"/>
      </clipPath>
      <clipPath id="id20">
       <path d="M114.073 83.7145c3.1373,-0.3963 6.0029,1.8265 6.3993,4.9638 0.3963,3.1373 -1.8265,6.003 -4.9638,6.3993 -3.1373,0.3963 -6.003,-1.8265 -6.3993,-4.9638 -0.3963,-3.1373 1.8265,-6.003 4.9638,-6.3993z"/>
      </clipPath>
      <clipPath id="id21">
       <path d="M105.082 124.028c1.6948,0.2321 2.9519,1.2796 2.8068,2.339 -0.1451,1.0594 -1.6377,1.7302 -3.3324,1.498 -1.6948,-0.2321 -2.952,-1.2796 -2.8068,-2.339 0.1451,-1.0594 1.6376,-1.7302 3.3324,-1.498z"/>
      </clipPath>
      <clipPath id="id22">
       <path d="M132.92 120.511c-1.5838,0.6463 -2.541,1.9735 -2.137,2.9635 0.404,0.9901 2.0165,1.2686 3.6003,0.6223 1.5838,-0.6464 2.541,-1.9735 2.1369,-2.9636 -0.404,-0.99 -2.0164,-1.2685 -3.6002,-0.6222z"/>
      </clipPath>
      <clipPath id="id23">
       <path d="M94.761 115.742c-1.0859,6.9578 -0.4679,14.866 1.3453,21.7055 0,0 -3.1616,-5.5905 -5.1666,-8.1494 -2.005,-2.559 -10.2274,-14.9351 0.0985,-28.6287 9.1932,-12.1915 37.6252,-15.7833 49.5614,-6.2611 13.407,10.6955 8.5207,24.7276 7.2151,27.7048 -1.3056,2.9772 -2.9776,9.1782 -2.9776,9.1782 0,0 0.0906,-11.6258 -4.0949,-21.358 -6.4406,-14.9762 -43.4673,-10.2987 -45.9812,5.8087z"/>
      </clipPath>
 </defs>
 <g id="Capa_x0020_1">
  <metadata id="CorelCorpID_0Corel-Layer"/>
  <g id="_638565344">
   <path id="_638565440" class="fil0" d="M93.3994 143.634c0.1432,8.9681 5.1672,17.5358 17.5846,15.9671 12.4174,-1.5687 11.8852,-5.7824 11.8852,-5.7824l-3.2385 -25.6345 -28.1731 0.0787c0,0 1.7987,6.403 1.9418,15.3711z"/>
   <g style="clip-path:url(#id0)">
    <g>
     <g>
      <g>
       <path id="_6394858241" class="fil1" d="M104.699 111.519c0,0 -2.2263,15.6703 -1.4565,31.8762 0.7701,16.2054 3.5494,28.9215 3.5494,28.9215 0,0 -0.2248,-21.0299 -2.0929,-60.7977z"/>
       <path id="_639485752" class="fil1" d="M114.095 115.358c0,0 -0.9316,18.0444 0.8787,34.6543 1.8104,16.6088 5.1952,28.1906 5.1952,28.1906 0,0 -1.6503,-22.0712 -6.0739,-62.8449z"/>
       <path id="_639485680" class="fil1" d="M121.921 114.37c0,0 5.3897,17.2465 7.767,33.7841 2.3772,16.5372 1.9787,28.5969 1.9787,28.5969 0,0 -3.8906,-21.789 -9.7457,-62.381z"/>
       <path id="_639485608" class="fil1" d="M130.067 108.315c0,0 6.0533,14.6244 9.3379,30.5122 3.2845,15.8874 3.7546,28.896 3.7546,28.896 0,0 -5.0123,-20.4255 -13.0925,-59.4082z"/>
       <path id="_639485536" class="fil1" d="M136.587 102.8c0,0 6.2787,13.2052 9.9399,28.5722 3.6612,15.3674 4.5291,28.6379 4.5291,28.6379 0,0 -5.4648,-19.5109 -14.469,-57.2101z"/>
       <path id="_639485464" class="fil1" d="M97.0113 107.799c0,0 -2.7974,14.3519 -2.5221,30.1466 0.2755,15.7951 2.7353,28.8645 2.7353,28.8645 0,0 0.441,-20.257 -0.2132,-59.0111z"/>
      </g>
      <g>
       <path id="_639485368" class="fil1" d="M82.2693 160.007c0,0 23.4399,0.6539 45.0753,-1.755 21.6338,-2.4091 36.7664,-6.4841 36.7664,-6.4841 0,0 -28.7322,2.3487 -81.8417,8.2391z"/>
       <path id="_639485296" class="fil1" d="M80.9998 149.958c0,0 23.4398,0.6538 45.0752,-1.7551 21.6339,-2.4091 36.7665,-6.484 36.7665,-6.484 0,0 -28.7323,2.3486 -81.8417,8.2391z"/>
       <path id="_639485224" class="fil1" d="M79.5481 138.466c0,0 23.4398,0.6538 45.0752,-1.7551 21.6339,-2.409 36.7665,-6.484 36.7665,-6.484 0,0 -28.7323,2.3487 -81.8417,8.2391z"/>
       <path id="_639485152" class="fil1" d="M78.3732 129.166c0,0 23.4398,0.6538 45.0752,-1.7551 21.6339,-2.4091 36.7665,-6.484 36.7665,-6.484 0,0 -28.7323,2.3486 -81.8417,8.2391z"/>
      </g>
     </g>
    </g>
   </g>
   <path class="fil2 str0" d="M93.3994 143.634c0.1432,8.9681 5.1672,17.5358 17.5846,15.9671 12.4174,-1.5687 11.8852,-5.7824 11.8852,-5.7824l-3.2385 -25.6345 -28.1731 0.0787c0,0 1.7987,6.403 1.9418,15.3711z"/>
   <path id="_638565368" class="fil0" d="M148.998 136.611c2.0917,8.7219 -0.6438,18.2699 -13.0612,19.8386 -12.4174,1.5686 -12.9498,-2.645 -12.9498,-2.645l-3.2383 -25.6345 27.3075 -6.9302c0,0 -0.1498,6.6492 1.9418,15.3711z"/>
   <g style="clip-path:url(#id1)">
    <g>
     <g>
      <g>
       <path id="_6394858241" class="fil1" d="M104.699 111.519c0,0 -2.2263,15.6703 -1.4565,31.8762 0.7701,16.2054 3.5494,28.9215 3.5494,28.9215 0,0 -0.2248,-21.0299 -2.0929,-60.7977z"/>
       <path id="_639485752" class="fil1" d="M114.095 115.358c0,0 -0.9316,18.0444 0.8787,34.6543 1.8104,16.6088 5.1952,28.1906 5.1952,28.1906 0,0 -1.6503,-22.0712 -6.0739,-62.8449z"/>
       <path id="_639485680" class="fil1" d="M121.921 114.37c0,0 5.3897,17.2465 7.767,33.7841 2.3772,16.5372 1.9787,28.5969 1.9787,28.5969 0,0 -3.8906,-21.789 -9.7457,-62.381z"/>
       <path id="_639485608" class="fil1" d="M130.067 108.315c0,0 6.0533,14.6244 9.3379,30.5122 3.2845,15.8874 3.7546,28.896 3.7546,28.896 0,0 -5.0123,-20.4255 -13.0925,-59.4082z"/>
       <path id="_639485536" class="fil1" d="M136.587 102.8c0,0 6.2787,13.2052 9.9399,28.5722 3.6612,15.3674 4.5291,28.6379 4.5291,28.6379 0,0 -5.4648,-19.5109 -14.469,-57.2101z"/>
       <path id="_639485464" class="fil1" d="M97.0113 107.799c0,0 -2.7974,14.3519 -2.5221,30.1466 0.2755,15.7951 2.7353,28.8645 2.7353,28.8645 0,0 0.441,-20.257 -0.2132,-59.0111z"/>
      </g>
      <g>
       <path id="_639485368" class="fil1" d="M82.2693 160.007c0,0 23.4399,0.6539 45.0753,-1.755 21.6338,-2.4091 36.7664,-6.4841 36.7664,-6.4841 0,0 -28.7322,2.3487 -81.8417,8.2391z"/>
       <path id="_639485296" class="fil1" d="M80.9998 149.958c0,0 23.4398,0.6538 45.0752,-1.7551 21.6339,-2.4091 36.7665,-6.484 36.7665,-6.484 0,0 -28.7323,2.3486 -81.8417,8.2391z"/>
       <path id="_639485224" class="fil1" d="M79.5481 138.466c0,0 23.4398,0.6538 45.0752,-1.7551 21.6339,-2.409 36.7665,-6.484 36.7665,-6.484 0,0 -28.7323,2.3487 -81.8417,8.2391z"/>
       <path id="_639485152" class="fil1" d="M78.3732 129.166c0,0 23.4398,0.6538 45.0752,-1.7551 21.6339,-2.4091 36.7665,-6.484 36.7665,-6.484 0,0 -28.7323,2.3486 -81.8417,8.2391z"/>
      </g>
     </g>
    </g>
   </g>
   <path class="fil2 str0" d="M148.998 136.611c2.0917,8.7219 -0.6438,18.2699 -13.0612,19.8386 -12.4174,1.5686 -12.9498,-2.645 -12.9498,-2.645l-3.2383 -25.6345 27.3075 -6.9302c0,0 -0.1498,6.6492 1.9418,15.3711z"/>
  </g>
  <g id="_638564984">
   <g>
    <path id="_638565272" class="fil3 str1" d="M111.799 166.18c1.5776,-1.2168 2.8463,-4.1478 3.413,-4.1445 0.5666,0.0032 0.835,0.2485 0.8304,2.7527 1.8963,0.1434 3.502,-3.4538 4.7154,-2.4042 0.7833,0.6777 -1.1802,2.7466 -1.8189,3.3432 1.448,0.9515 3.3322,-2.5437 4.2951,-1.1152 0.5973,0.8872 -2.1948,2.6126 -3.0371,3.0037 0.687,1.4754 2.8548,-1.2921 3.4706,0.1216 0.41,0.9418 -2.308,1.9902 -3.1078,2.2722 -0.1395,1.1619 1.9344,-0.176 2.1276,0.7451 0.1578,0.7519 -0.3888,1.0365 -2.5287,1.3808 -1.1908,0.1914 -2.7458,0.9233 -4.364,1.2603l0.1235 -0.0811 -4.1191 -7.1346z"/>
    <path id="_638565200" class="fil0" d="M107.268 151.494c-2.165,-1.2499 -7.042,1.9943 -10.3446,12.5257 -1.5586,4.9702 -1.0823,12.1984 3.5607,13.3557 6.6188,1.6498 15.3106,-3.979 15.3106,-3.979l-3.9956 -7.2157c-5.5792,3.3133 -7.4065,2.0341 -6.0107,-1.1399 1.5926,-3.6223 3.6446,-12.297 1.4796,-13.5468z"/>
    <g style="clip-path:url(#id2)">
     <g>
      <rect id="_639056672" class="fil1" transform="matrix(-0.51321 -0.888905 -0.888905 0.51321 116.699 174.815)" width="11.3104" height="3.158"/>
      <g>
       <g>
        <path id="_639056600" class="fil1" d="M121.355 151.795c0,0 -10.0726,-0.0503 -20.2241,1.8347 -10.1512,1.8852 -17.9288,4.7359 -17.9288,4.7359 0,0 13.2402,-1.9581 38.1529,-6.5706z"/>
        <path id="_639056528" class="fil1" d="M119.746 158.051c0,0 -11.4577,0.9711 -21.7741,3.547 -10.3157,2.576 -17.3258,5.7105 -17.3258,5.7105 0,0 13.7736,-2.9468 39.0999,-9.2575z"/>
        <path id="_639056456" class="fil1" d="M121.045 162.9c0,0 -10.4087,4.8879 -20.6305,7.8151 -10.2216,2.9272 -17.8598,3.7175 -17.8598,3.7175 0,0 13.4022,-4.3349 38.4903,-11.5326z"/>
        <path id="_639056384" class="fil1" d="M125.567 167.513c0,0 -8.698,5.0798 -18.4318,8.5229 -9.7335,3.4431 -17.895,4.8631 -17.895,4.8631 0,0 12.4456,-4.9244 36.3268,-13.386z"/>
        <path id="_639056312" class="fil1" d="M129.607 171.148c0,0 -7.7837,5.0993 -17.1566,8.7349 -9.3731,3.6358 -17.6653,5.3291 -17.6653,5.3291 0,0 11.8298,-5.1308 34.8219,-14.064z"/>
        <path id="_639056240" class="fil1" d="M123.036 146.627c0,0 -9.2906,-0.5242 -19.2256,1.0135 -9.9352,1.5379 -17.9631,4.2177 -17.9631,4.2177 0,0 12.8103,-1.4716 37.1887,-5.2312z"/>
       </g>
       <g>
        <path id="_639056144" class="fil1" d="M88.8457 141.841c0,0 1.6122,14.8356 4.9997,28.2689 3.3874,13.4324 7.2637,22.6217 7.2637,22.6217 0,0 -3.9624,-17.9132 -12.2634,-50.8906z"/>
        <path id="_639056072" class="fil1" d="M95.0723 140.172c0,0 1.6123,14.8356 4.9997,28.2689 3.3875,13.4323 7.2638,22.6217 7.2638,22.6217 0,0 -3.9625,-17.9132 -12.2635,-50.8906z"/>
        <path id="_639056000" class="fil1" d="M102.192 138.265c0,0 1.6123,14.8356 4.9997,28.2689 3.3875,13.4323 7.2638,22.6216 7.2638,22.6216 0,0 -3.9624,-17.9131 -12.2635,-50.8905z"/>
        <path id="_639055928" class="fil1" d="M107.955 136.72c0,0 1.6122,14.8356 4.9997,28.2689 3.3874,13.4324 7.2637,22.6217 7.2637,22.6217 0,0 -3.9624,-17.9132 -12.2634,-50.8906z"/>
       </g>
      </g>
     </g>
    </g>
    <path class="fil2 str2" d="M107.268 151.494c-2.165,-1.2499 -7.042,1.9943 -10.3446,12.5257 -1.5586,4.9702 -1.0823,12.1984 3.5607,13.3557 6.6188,1.6498 15.3106,-3.979 15.3106,-3.979l-3.9956 -7.2157c-5.5792,3.3133 -7.4065,2.0341 -6.0107,-1.1399 1.5926,-3.6223 3.6446,-12.297 1.4796,-13.5468z"/>
   </g>
   <g>
    <path id="_638565104" class="fil3 str1" d="M129.909 166.18c-1.5776,-1.2168 -2.8463,-4.1478 -3.413,-4.1445 -0.5666,0.0032 -0.835,0.2485 -0.8304,2.7527 -1.8963,0.1434 -3.502,-3.4538 -4.7154,-2.4042 -0.7833,0.6777 1.1802,2.7466 1.8189,3.3432 -1.448,0.9515 -3.3322,-2.5437 -4.2951,-1.1152 -0.5973,0.8872 2.1948,2.6126 3.0371,3.0037 -0.687,1.4754 -2.8548,-1.2921 -3.4706,0.1216 -0.41,0.9418 2.308,1.9902 3.1078,2.2722 0.1395,1.1619 -1.9344,-0.176 -2.1276,0.7451 -0.1578,0.7519 0.3888,1.0365 2.5287,1.3808 1.1908,0.1914 2.7458,0.9233 4.364,1.2603l-0.1235 -0.0811 4.1191 -7.1346z"/>
    <path id="_638565032" class="fil0" d="M134.441 151.494c2.165,-1.2499 7.042,1.9943 10.3446,12.5257 1.5586,4.9702 1.0823,12.1984 -3.5607,13.3557 -6.6188,1.6498 -15.3106,-3.979 -15.3106,-3.979l3.9956 -7.2157c5.5792,3.3133 7.4065,2.0341 6.0107,-1.1399 -1.5926,-3.6223 -3.6446,-12.297 -1.4796,-13.5468z"/>
    <g style="clip-path:url(#id3)">
     <g>
      <rect id="_639048248" class="fil1" transform="matrix(0.51321 -0.888905 0.888905 0.51321 125.009 174.815)" width="11.3104" height="3.158"/>
      <g>
       <g>
        <path id="_639048176" class="fil1" d="M120.353 151.795c0,0 10.0726,-0.0503 20.2241,1.8347 10.1512,1.8852 17.9288,4.7359 17.9288,4.7359 0,0 -13.2402,-1.9581 -38.1529,-6.5706z"/>
        <path id="_639048104" class="fil1" d="M121.962 158.051c0,0 11.4577,0.9711 21.7741,3.547 10.3157,2.576 17.3258,5.7105 17.3258,5.7105 0,0 -13.7736,-2.9468 -39.0999,-9.2575z"/>
        <path id="_639048032" class="fil1" d="M120.663 162.9c0,0 10.4087,4.8879 20.6305,7.8151 10.2216,2.9272 17.8598,3.7175 17.8598,3.7175 0,0 -13.4022,-4.3349 -38.4903,-11.5326z"/>
        <path id="_639047960" class="fil1" d="M116.142 167.513c0,0 8.698,5.0798 18.4318,8.5229 9.7335,3.4431 17.895,4.8631 17.895,4.8631 0,0 -12.4456,-4.9244 -36.3268,-13.386z"/>
        <path id="_639047888" class="fil1" d="M112.101 171.148c0,0 7.7837,5.0993 17.1566,8.7349 9.3731,3.6358 17.6653,5.3291 17.6653,5.3291 0,0 -11.8298,-5.1308 -34.8219,-14.064z"/>
        <path id="_639047816" class="fil1" d="M118.672 146.627c0,0 9.2906,-0.5242 19.2256,1.0135 9.9352,1.5379 17.9631,4.2177 17.9631,4.2177 0,0 -12.8103,-1.4716 -37.1887,-5.2312z"/>
       </g>
       <g>
        <path id="_639047720" class="fil1" d="M152.863 141.841c0,0 -1.6122,14.8356 -4.9997,28.2689 -3.3874,13.4324 -7.2637,22.6217 -7.2637,22.6217 0,0 3.9624,-17.9132 12.2634,-50.8906z"/>
        <path id="_639047648" class="fil1" d="M146.636 140.172c0,0 -1.6123,14.8356 -4.9997,28.2689 -3.3875,13.4323 -7.2638,22.6217 -7.2638,22.6217 0,0 3.9625,-17.9132 12.2635,-50.8906z"/>
        <path id="_639047576" class="fil1" d="M139.516 138.265c0,0 -1.6123,14.8356 -4.9997,28.2689 -3.3875,13.4323 -7.2638,22.6216 -7.2638,22.6216 0,0 3.9624,-17.9131 12.2635,-50.8905z"/>
        <path id="_639047504" class="fil1" d="M133.753 136.72c0,0 -1.6122,14.8356 -4.9997,28.2689 -3.3874,13.4324 -7.2637,22.6217 -7.2637,22.6217 0,0 3.9624,-17.9132 12.2634,-50.8906z"/>
       </g>
      </g>
     </g>
    </g>
    <path class="fil2 str2" d="M134.441 151.494c2.165,-1.2499 7.042,1.9943 10.3446,12.5257 1.5586,4.9702 1.0823,12.1984 -3.5607,13.3557 -6.6188,1.6498 -15.3106,-3.979 -15.3106,-3.979l3.9956 -7.2157c5.5792,3.3133 7.4065,2.0341 6.0107,-1.1399 -1.5926,-3.6223 -3.6446,-12.297 -1.4796,-13.5468z"/>
   </g>
  </g>
  <g id="_638564384">
   <g>
    <g>
     <path id="_638564912" class="fil4 str3" d="M129.709 206.379c-3.5599,0.2725 -6.1738,4.0634 -5.9493,6.9961 0.2245,2.9328 3.2025,3.8983 6.7624,3.6257 3.56,-0.2725 6.3561,-1.68 6.1316,-4.6127 -0.2245,-2.9328 -3.3848,-6.2817 -6.9447,-6.0091z"/>
     <path id="_638564840" class="fil3 str4" d="M135.584 180.938c0,0 1.3885,11.1414 1.5391,15.1086 0.1507,3.9673 -1.9465,10.5551 -1.766,12.9132 0.1805,2.3582 1.022,5.3544 -1.6288,5.7103 -2.6507,0.356 -5.9803,0.8404 -7.7823,0.2897 -1.802,-0.5507 -2.1056,-2.5168 -1.081,-4.1256 1.0246,-1.6087 0.7892,-13.6801 0.3921,-15.8686 -0.3971,-2.1885 -2.2187,-12.9907 -2.2187,-12.9907l12.5456 -1.0369z"/>
     <path id="_638564768" class="fil5" d="M123.84 212.304c0.2007,-3.2221 2.3928,-4.8231 5.8211,-5.063 3.4284,-0.2399 6.0736,0.9334 6.5963,4.1942 0.6546,4.083 -4.4284,4.6329 -5.7362,4.7244 -4.3317,0.303 -6.8819,-0.6335 -6.6812,-3.8556z"/>
     <g style="clip-path:url(#id4)">
      <g>
       <path id="_6372947121" class="fil5 str5" d="M130.244 211.774c1.8971,-0.1312 3.2901,-1.9561 3.1705,-3.3678 -0.1197,-1.4118 -1.7067,-1.8766 -3.6038,-1.7454 -1.8972,0.1312 -3.3873,0.8087 -3.2677,2.2205 0.1197,1.4118 1.8038,3.0239 3.701,2.8927z"/>
      </g>
     </g>
     <path class="fil2 str3" d="M123.84 212.304c0.2007,-3.2221 2.3928,-4.8231 5.8211,-5.063 3.4284,-0.2399 6.0736,0.9334 6.5963,4.1942 0.6546,4.083 -4.4284,4.6329 -5.7362,4.7244 -4.3317,0.303 -6.8819,-0.6335 -6.6812,-3.8556z"/>
    </g>
    <g>
     <path id="_638564672" class="fil4 str3" d="M112 206.379c3.5599,0.2725 6.1738,4.0634 5.9493,6.9961 -0.2245,2.9328 -3.2025,3.8983 -6.7624,3.6257 -3.56,-0.2725 -6.3561,-1.68 -6.1316,-4.6127 0.2245,-2.9328 3.3848,-6.2817 6.9447,-6.0091z"/>
     <path id="_638564600" class="fil3 str4" d="M106.125 180.938c0,0 -1.3885,11.1414 -1.5391,15.1086 -0.1507,3.9673 1.9465,10.5551 1.766,12.9132 -0.1805,2.3582 -1.022,5.3544 1.6288,5.7103 2.6507,0.356 5.9803,0.8404 7.7823,0.2897 1.802,-0.5507 2.1056,-2.5168 1.081,-4.1256 -1.0246,-1.6087 -0.7892,-13.6801 -0.3921,-15.8686 0.3971,-2.1885 2.2187,-12.9907 2.2187,-12.9907l-12.5456 -1.0369z"/>
     <path id="_638564528" class="fil5" d="M117.868 212.304c-0.2007,-3.2221 -2.3928,-4.8231 -5.8211,-5.063 -3.4284,-0.2399 -6.0736,0.9334 -6.5963,4.1942 -0.6546,4.083 4.4284,4.6329 5.7362,4.7244 4.3317,0.303 6.8819,-0.6335 6.6812,-3.8556z"/>
     <g style="clip-path:url(#id5)">
      <g>
       <path id="_6372973041" class="fil5 str5" d="M111.464 211.774c-1.8971,-0.1312 -3.2901,-1.9561 -3.1705,-3.3678 0.1197,-1.4118 1.7067,-1.8766 3.6038,-1.7454 1.8972,0.1312 3.3873,0.8087 3.2677,2.2205 -0.1197,1.4118 -1.8038,3.0239 -3.701,2.8927z"/>
      </g>
     </g>
     <path class="fil2 str3" d="M117.868 212.304c-0.2007,-3.2221 -2.3928,-4.8231 -5.8211,-5.063 -3.4284,-0.2399 -6.0736,0.9334 -6.5963,4.1942 -0.6546,4.083 4.4284,4.6329 5.7362,4.7244 4.3317,0.303 6.8819,-0.6335 6.6812,-3.8556z"/>
    </g>
   </g>
   <path id="_638564408" class="fil0" d="M105.048 173.439c-6.4115,8.0868 -6.7223,24.0029 -5.442,26.0161 1.025,1.6121 10.9915,4.875 21.2486,4.875 10.2572,0 20.2237,-3.2629 21.2487,-4.875 1.2802,-2.0132 0.9694,-17.9293 -5.4421,-26.0161l-15.8066 0 -15.8066 0z"/>
   <g style="clip-path:url(#id6)">
    <g>
     <g>
      <g>
       <path id="_6396545121" class="fil1" d="M112.718 168.697c0,0 -2.6555,9.7164 -3.4621,20.0099 -0.8064,10.2932 -0.0658,18.5437 -0.0658,18.5437 0,0 1.5355,-13.2958 3.5279,-38.5536z"/>
       <path id="_639654440" class="fil1" d="M118.344 171.87c0,0 -2.0275,11.3186 -2.2094,21.9502 -0.1817,10.6309 1.0316,18.2134 1.0316,18.2134 0,0 0.7185,-14.067 1.1778,-40.1636z"/>
       <path id="_639654368" class="fil1" d="M123.364 171.87c0,0 2.0274,11.3191 2.2093,21.9502 0.1819,10.6309 -1.0316,18.2134 -1.0316,18.2134 0,0 -0.7185,-14.0675 -1.1777,-40.1636z"/>
       <path id="_639654296" class="fil1" d="M128.991 168.697c0,0 2.6554,9.7164 3.462,20.0097 0.8065,10.2929 0.0658,18.5439 0.0658,18.5439 0,0 -1.5355,-13.2961 -3.5278,-38.5536z"/>
       <path id="_639654224" class="fil1" d="M133.547 165.736c0,0 2.911,8.8384 3.9969,18.8328 1.0859,9.9947 0.5754,18.4427 0.5754,18.4427 0,0 -1.8942,-12.7547 -4.5723,-37.2755z"/>
       <path id="_639654152" class="fil1" d="M108.161 165.736c0,0 -2.9109,8.8384 -3.9969,18.8328 -1.0859,9.9947 -0.5753,18.4427 -0.5753,18.4427 0,0 1.8942,-12.7547 4.5722,-37.2755z"/>
      </g>
      <g>
       <path id="_639654056" class="fil1" d="M94.6889 197.523c0,0 14.7474,2.2824 28.5997,2.4872 13.8514,0.2045 23.7309,-1.1614 23.7309,-1.1614 0,0 -18.3284,-0.8088 -52.3306,-1.3258z"/>
       <path id="_639653984" class="fil1" d="M94.6889 191.076c0,0 14.7474,2.2824 28.5997,2.4872 13.8514,0.2045 23.7309,-1.1614 23.7309,-1.1614 0,0 -18.3284,-0.8088 -52.3306,-1.3258z"/>
       <path id="_639653912" class="fil1" d="M94.6889 183.705c0,0 14.7474,2.2824 28.5997,2.4872 13.8514,0.2045 23.7309,-1.1614 23.7309,-1.1614 0,0 -18.3284,-0.8088 -52.3306,-1.3258z"/>
       <path id="_639653840" class="fil1" d="M94.6889 177.739c0,0 14.7474,2.2824 28.5997,2.4872 13.8514,0.2045 23.7309,-1.1614 23.7309,-1.1614 0,0 -18.3284,-0.8088 -52.3306,-1.3258z"/>
      </g>
     </g>
    </g>
   </g>
   <path class="fil2 str2" d="M105.048 173.439c-6.4115,8.0868 -6.7223,24.0029 -5.442,26.0161 1.025,1.6121 10.9915,4.875 21.2486,4.875 10.2572,0 20.2237,-3.2629 21.2487,-4.875 1.2802,-2.0132 0.9694,-17.9293 -5.4421,-26.0161l-15.8066 0 -15.8066 0z"/>
  </g>
  <g id="_638563688">
   <path id="_638564312" class="fil0" d="M107.851 150.068c-5.5487,3.2334 -2.826,12.8788 -2.905,15.7167 -0.0791,2.8378 -2.826,9.1206 3.1026,10.4245 8.4026,1.8479 17.2088,1.8479 25.6114,0 5.9286,-1.3039 3.1817,-7.5867 3.1027,-10.4245 -0.0791,-2.8379 2.6436,-12.4833 -2.905,-15.7167 -6.4833,-3.7781 -19.5235,-3.7781 -26.0067,0z"/>
   <g style="clip-path:url(#id7)">
    <g>
     <g>
      <g>
       <path id="_6395066321" class="fil1" d="M112.718 142.227c0,0 -2.6555,9.7164 -3.4621,20.0099 -0.8064,10.2932 -0.0658,18.5437 -0.0658,18.5437 0,0 1.5355,-13.2958 3.5279,-38.5536z"/>
       <path id="_639506560" class="fil1" d="M118.344 145.4c0,0 -2.0275,11.3186 -2.2094,21.9502 -0.1817,10.6309 1.0316,18.2134 1.0316,18.2134 0,0 0.7185,-14.067 1.1778,-40.1636z"/>
       <path id="_639506488" class="fil1" d="M123.364 145.4c0,0 2.0274,11.3191 2.2093,21.9502 0.1819,10.6309 -1.0316,18.2134 -1.0316,18.2134 0,0 -0.7185,-14.0675 -1.1777,-40.1636z"/>
       <path id="_639506416" class="fil1" d="M128.991 142.227c0,0 2.6554,9.7164 3.462,20.0097 0.8065,10.2929 0.0658,18.5439 0.0658,18.5439 0,0 -1.5355,-13.2961 -3.5278,-38.5536z"/>
       <path id="_639506344" class="fil1" d="M133.547 139.265c0,0 2.911,8.8384 3.9969,18.8328 1.0859,9.9947 0.5754,18.4427 0.5754,18.4427 0,0 -1.8942,-12.7547 -4.5723,-37.2755z"/>
       <path id="_639506272" class="fil1" d="M108.161 139.265c0,0 -2.9109,8.8384 -3.9969,18.8328 -1.0859,9.9947 -0.5753,18.4427 -0.5753,18.4427 0,0 1.8942,-12.7547 4.5722,-37.2755z"/>
      </g>
      <g>
       <path id="_639506176" class="fil1" d="M94.6889 171.052c0,0 14.7474,2.2824 28.5997,2.4872 13.8514,0.2045 23.7309,-1.1614 23.7309,-1.1614 0,0 -18.3284,-0.8088 -52.3306,-1.3258z"/>
       <path id="_639506104" class="fil1" d="M94.6889 164.606c0,0 14.7474,2.2824 28.5997,2.4872 13.8514,0.2045 23.7309,-1.1614 23.7309,-1.1614 0,0 -18.3284,-0.8088 -52.3306,-1.3258z"/>
       <path id="_639506032" class="fil1" d="M94.6889 157.234c0,0 14.7474,2.2824 28.5997,2.4872 13.8514,0.2045 23.7309,-1.1614 23.7309,-1.1614 0,0 -18.3284,-0.8088 -52.3306,-1.3258z"/>
       <path id="_639505960" class="fil1" d="M94.6889 151.269c0,0 14.7474,2.2824 28.5997,2.4872 13.8514,0.2045 23.7309,-1.1614 23.7309,-1.1614 0,0 -18.3284,-0.8088 -52.3306,-1.3258z"/>
      </g>
     </g>
     <path id="_639505840" class="fil1" d="M104.531 168.614c-0.5113,2.9922 -0.8378,6.6368 3.5171,7.5947 8.4026,1.8479 17.2088,1.8479 25.6114,0 4.3303,-0.9524 4.0322,-4.5609 3.526,-7.5432 -4.4904,1.0925 -10.1637,1.7449 -16.3317,1.7449 -6.168,0 -11.8413,-0.6524 -16.3316,-1.7449l0.0088 -0.0515z"/>
    </g>
    <g style="clip-path:url(#id8)">
     <g>
      <path id="_6372921201" class="fil0" d="M102.321 167.673c-0.307,2.6025 0.1097,5.276 4.1847,6.076 9.4151,1.848 19.2825,1.848 28.6976,0 4.0753,-0.7999 4.492,-3.4736 4.1849,-6.0762 -0.276,1.7253 -1.337,3.1995 -4.1849,3.7585 -9.4151,1.848 -19.2825,1.848 -28.6976,0 -2.8476,-0.559 -3.9085,-2.033 -4.1847,-3.7583z"/>
     </g>
    </g>
    <g style="clip-path:url(#id9)">
     <path class="fil2" d="M104.531 168.614c-0.5113,2.9922 -0.8378,6.6368 3.5171,7.5947 8.4026,1.8479 17.2088,1.8479 25.6114,0 4.3303,-0.9524 4.0322,-4.5609 3.526,-7.5432 -4.4904,1.0925 -10.1637,1.7449 -16.3317,1.7449 -6.168,0 -11.8413,-0.6524 -16.3316,-1.7449l0.0088 -0.0515z"/>
    </g>
   </g>
   <path class="fil2 str2" d="M107.851 150.068c-5.5487,3.2334 -2.826,12.8788 -2.905,15.7167 -0.0791,2.8378 -2.826,9.1206 3.1026,10.4245 8.4026,1.8479 17.2088,1.8479 25.6114,0 5.9286,-1.3039 3.1817,-7.5867 3.1027,-10.4245 -0.0791,-2.8379 2.6436,-12.4833 -2.905,-15.7167 -6.4833,-3.7781 -19.5235,-3.7781 -26.0067,0z"/>
   <path id="_638564240" class="fil0" d="M127.151 162.259l0.0002 0.0202c0,3.9425 -2.8197,7.1397 -6.2967,7.1397 -3.4771,0 -6.2968,-3.1972 -6.2968,-7.1397l0.0002 -0.0202 0.6156 0 -0.0002 0.0202c0,3.5571 2.544,6.4417 5.6812,6.4417 3.1371,0 5.6811,-2.8846 5.6811,-6.4417l-0.0002 -0.0202 0.6156 0z"/>
   <g>
    <ellipse id="_638564168" class="fil6" cx="120.854" cy="172.039" rx="3.08046" ry="3.45617"/>
    <g>
     <ellipse id="_638564096" class="fil6" cx="116.228" cy="169.908" rx="3.08046" ry="3.45617"/>
     <ellipse id="_638564024" class="fil6" cx="125.48" cy="169.908" rx="3.08046" ry="3.45617"/>
    </g>
   </g>
   <g>
    <g>
     <path id="_638563904" class="fil7" d="M117.888 170.865c-0.2483,0.9059 -0.9384,1.5578 -1.7507,1.5578 -1.0211,0 -1.8491,-1.0301 -1.8491,-2.3002 0,-0.6679 0.229,-1.2692 0.5946,-1.6895 -0.0639,0.2329 -0.0985,0.4826 -0.0985,0.7424 0,1.2701 0.828,2.3001 1.8491,2.3001 0.4842,0 0.925,-0.2317 1.2546,-0.6106z"/>
     <path id="_638563832" class="fil7" d="M123.82 170.865c0.2483,0.9059 0.9384,1.5578 1.7507,1.5578 1.0211,0 1.8491,-1.0301 1.8491,-2.3002 0,-0.6679 -0.229,-1.2692 -0.5946,-1.6895 0.0639,0.2329 0.0985,0.4826 0.0985,0.7424 0,1.2701 -0.828,2.3001 -1.8491,2.3001 -0.4842,0 -0.925,-0.2317 -1.2546,-0.6106z"/>
    </g>
    <path id="_638563736" class="fil7" d="M119.054 173.204c0.2483,0.9059 0.9384,1.5578 1.7507,1.5578 1.0211,0 1.8491,-1.0301 1.8491,-2.3002 0,-0.6679 -0.229,-1.2692 -0.5946,-1.6895 0.0639,0.2329 0.0985,0.4826 0.0985,0.7424 0,1.2701 -0.828,2.3001 -1.8491,2.3001 -0.4842,0 -0.925,-0.2317 -1.2546,-0.6106z"/>
   </g>
  </g>
  <path class="fil3 str1" d="M114.342 143.523l13.0238 0 0 5.6497c0,1.639 -2.9159,2.9683 -6.5118,2.9683 -3.5957,0 -6.512,-1.3293 -6.512,-2.9683l0 -5.6497z"/>
  <g id="_638563256">
   <g>
    <path id="_638563544" class="fil3 str1" d="M239.351 168.023c1.5776,-1.2168 2.8463,-4.1478 3.413,-4.1445 0.5666,0.0032 0.835,0.2485 0.8304,2.7527 1.8963,0.1434 3.502,-3.4538 4.7154,-2.4042 0.7833,0.6777 -1.1802,2.7466 -1.8189,3.3432 1.448,0.9515 3.3322,-2.5437 4.2951,-1.1152 0.5973,0.8872 -2.1948,2.6126 -3.0371,3.0037 0.687,1.4754 2.8548,-1.2921 3.4706,0.1216 0.41,0.9418 -2.308,1.9902 -3.1078,2.2722 -0.1395,1.1619 1.9344,-0.176 2.1276,0.7451 0.1578,0.7519 -0.3888,1.0365 -2.5287,1.3808 -1.1908,0.1914 -2.7458,0.9233 -4.364,1.2603l0.1235 -0.0811 -4.1191 -7.1346z"/>
    <path id="_638563472" class="fil0" d="M234.82 153.336c-2.165,-1.2499 -7.042,1.9943 -10.3446,12.5257 -1.5586,4.9702 -1.0823,12.1984 3.5607,13.3557 6.6188,1.6498 15.3106,-3.979 15.3106,-3.979l-3.9956 -7.2157c-5.5792,3.3133 -7.4065,2.0341 -6.0107,-1.1399 1.5926,-3.6223 3.6446,-12.297 1.4796,-13.5468z"/>
    <g style="clip-path:url(#id10)">
     <g>
      <rect id="_639051056" class="fil1" transform="matrix(-0.51321 -0.888905 -0.888905 0.51321 244.251 176.658)" width="11.3104" height="3.158"/>
      <g>
       <g>
        <path id="_639050984" class="fil1" d="M248.908 153.638c0,0 -10.0726,-0.0503 -20.2241,1.8347 -10.1512,1.8852 -17.9288,4.7359 -17.9288,4.7359 0,0 13.2402,-1.9581 38.1529,-6.5706z"/>
        <path id="_639050912" class="fil1" d="M247.299 159.893c0,0 -11.4577,0.9711 -21.7741,3.547 -10.3157,2.576 -17.3258,5.7105 -17.3258,5.7105 0,0 13.7736,-2.9468 39.0999,-9.2575z"/>
        <path id="_639050840" class="fil1" d="M248.598 164.742c0,0 -10.4087,4.8879 -20.6305,7.8151 -10.2216,2.9272 -17.8598,3.7175 -17.8598,3.7175 0,0 13.4022,-4.3349 38.4903,-11.5326z"/>
        <path id="_639050768" class="fil1" d="M253.119 169.356c0,0 -8.698,5.0798 -18.4318,8.5229 -9.7335,3.4431 -17.895,4.8631 -17.895,4.8631 0,0 12.4456,-4.9244 36.3268,-13.386z"/>
        <path id="_639050696" class="fil1" d="M257.159 172.991c0,0 -7.7837,5.0993 -17.1566,8.7349 -9.3731,3.6358 -17.6653,5.3291 -17.6653,5.3291 0,0 11.8298,-5.1308 34.8219,-14.064z"/>
        <path id="_639050624" class="fil1" d="M250.589 148.469c0,0 -9.2906,-0.5242 -19.2256,1.0135 -9.9352,1.5379 -17.9631,4.2177 -17.9631,4.2177 0,0 12.8103,-1.4716 37.1887,-5.2312z"/>
       </g>
       <g>
        <path id="_639050528" class="fil1" d="M216.398 143.683c0,0 1.6122,14.8356 4.9997,28.2689 3.3874,13.4324 7.2637,22.6217 7.2637,22.6217 0,0 -3.9624,-17.9132 -12.2634,-50.8906z"/>
        <path id="_639050456" class="fil1" d="M222.625 142.015c0,0 1.6123,14.8356 4.9997,28.2689 3.3875,13.4323 7.2638,22.6217 7.2638,22.6217 0,0 -3.9625,-17.9132 -12.2635,-50.8906z"/>
        <path id="_639050384" class="fil1" d="M229.745 140.107c0,0 1.6123,14.8356 4.9997,28.2689 3.3875,13.4323 7.2638,22.6216 7.2638,22.6216 0,0 -3.9624,-17.9131 -12.2635,-50.8905z"/>
        <path id="_639050312" class="fil1" d="M235.507 138.563c0,0 1.6122,14.8356 4.9997,28.2689 3.3874,13.4324 7.2637,22.6217 7.2637,22.6217 0,0 -3.9624,-17.9132 -12.2634,-50.8906z"/>
       </g>
      </g>
     </g>
    </g>
    <path class="fil2 str2" d="M234.82 153.336c-2.165,-1.2499 -7.042,1.9943 -10.3446,12.5257 -1.5586,4.9702 -1.0823,12.1984 3.5607,13.3557 6.6188,1.6498 15.3106,-3.979 15.3106,-3.979l-3.9956 -7.2157c-5.5792,3.3133 -7.4065,2.0341 -6.0107,-1.1399 1.5926,-3.6223 3.6446,-12.297 1.4796,-13.5468z"/>
   </g>
   <g>
    <path id="_638563376" class="fil3 str1" d="M256.862 168.023c-1.5776,-1.2168 -2.8463,-4.1478 -3.413,-4.1445 -0.5666,0.0032 -0.835,0.2485 -0.8304,2.7527 -1.8963,0.1434 -3.502,-3.4538 -4.7154,-2.4042 -0.7833,0.6777 1.1802,2.7466 1.8189,3.3432 -1.448,0.9515 -3.3322,-2.5437 -4.2951,-1.1152 -0.5973,0.8872 2.1948,2.6126 3.0371,3.0037 -0.687,1.4754 -2.8548,-1.2921 -3.4706,0.1216 -0.41,0.9418 2.308,1.9902 3.1078,2.2722 0.1395,1.1619 -1.9344,-0.176 -2.1276,0.7451 -0.1578,0.7519 0.3888,1.0365 2.5287,1.3808 1.1908,0.1914 2.7458,0.9233 4.364,1.2603l-0.1235 -0.0811 4.1191 -7.1346z"/>
    <path id="_638563304" class="fil0" d="M261.393 153.336c2.165,-1.2499 7.042,1.9943 10.3446,12.5257 1.5586,4.9702 1.0823,12.1984 -3.5607,13.3557 -6.6188,1.6498 -15.3106,-3.979 -15.3106,-3.979l3.9956 -7.2157c5.5792,3.3133 7.4065,2.0341 6.0107,-1.1399 -1.5926,-3.6223 -3.6446,-12.297 -1.4796,-13.5468z"/>
    <g style="clip-path:url(#id11)">
     <g>
      <rect id="_639043568" class="fil1" transform="matrix(0.51321 -0.888905 0.888905 0.51321 251.962 176.658)" width="11.3104" height="3.158"/>
      <g>
       <g>
        <path id="_639043496" class="fil1" d="M247.306 153.638c0,0 10.0726,-0.0503 20.2241,1.8347 10.1512,1.8852 17.9288,4.7359 17.9288,4.7359 0,0 -13.2402,-1.9581 -38.1529,-6.5706z"/>
        <path id="_639043424" class="fil1" d="M248.915 159.893c0,0 11.4577,0.9711 21.7741,3.547 10.3157,2.576 17.3258,5.7105 17.3258,5.7105 0,0 -13.7736,-2.9468 -39.0999,-9.2575z"/>
        <path id="_639043352" class="fil1" d="M247.615 164.742c0,0 10.4087,4.8879 20.6305,7.8151 10.2216,2.9272 17.8598,3.7175 17.8598,3.7175 0,0 -13.4022,-4.3349 -38.4903,-11.5326z"/>
        <path id="_639043280" class="fil1" d="M243.094 169.356c0,0 8.698,5.0798 18.4318,8.5229 9.7335,3.4431 17.895,4.8631 17.895,4.8631 0,0 -12.4456,-4.9244 -36.3268,-13.386z"/>
        <path id="_639043208" class="fil1" d="M239.054 172.991c0,0 7.7837,5.0993 17.1566,8.7349 9.3731,3.6358 17.6653,5.3291 17.6653,5.3291 0,0 -11.8298,-5.1308 -34.8219,-14.064z"/>
        <path id="_639043136" class="fil1" d="M245.624 148.469c0,0 9.2906,-0.5242 19.2256,1.0135 9.9352,1.5379 17.9631,4.2177 17.9631,4.2177 0,0 -12.8103,-1.4716 -37.1887,-5.2312z"/>
       </g>
       <g>
        <path id="_639043040" class="fil1" d="M279.815 143.683c0,0 -1.6122,14.8356 -4.9997,28.2689 -3.3874,13.4324 -7.2637,22.6217 -7.2637,22.6217 0,0 3.9624,-17.9132 12.2634,-50.8906z"/>
        <path id="_639042968" class="fil1" d="M273.589 142.015c0,0 -1.6123,14.8356 -4.9997,28.2689 -3.3875,13.4323 -7.2638,22.6217 -7.2638,22.6217 0,0 3.9625,-17.9132 12.2635,-50.8906z"/>
        <path id="_639677744" class="fil1" d="M266.468 140.107c0,0 -1.6123,14.8356 -4.9997,28.2689 -3.3875,13.4323 -7.2638,22.6216 -7.2638,22.6216 0,0 3.9624,-17.9131 12.2635,-50.8905z"/>
        <path id="_639677672" class="fil1" d="M260.706 138.563c0,0 -1.6122,14.8356 -4.9997,28.2689 -3.3874,13.4324 -7.2637,22.6217 -7.2637,22.6217 0,0 3.9624,-17.9132 12.2634,-50.8906z"/>
       </g>
      </g>
     </g>
    </g>
    <path class="fil2 str2" d="M261.393 153.336c2.165,-1.2499 7.042,1.9943 10.3446,12.5257 1.5586,4.9702 1.0823,12.1984 -3.5607,13.3557 -6.6188,1.6498 -15.3106,-3.979 -15.3106,-3.979l3.9956 -7.2157c5.5792,3.3133 7.4065,2.0341 6.0107,-1.1399 -1.5926,-3.6223 -3.6446,-12.297 -1.4796,-13.5468z"/>
   </g>
  </g>
  <g id="_638562752">
   <g>
    <path id="_638563184" class="fil4 str5" d="M234.28 181.925c0,0 -1.3368,10.7265 -1.4818,14.546 -0.1451,3.8195 1.874,10.162 1.7002,12.4323 -0.1738,2.2704 -0.9839,5.155 1.5681,5.4977 2.5521,0.3427 5.7577,0.8091 7.4926,0.2789 1.7349,-0.5302 2.0271,-2.4231 1.0407,-3.972 -0.9864,-1.5488 -0.7597,-13.1706 -0.3775,-15.2777 0.3823,-2.107 2.1361,-12.5069 2.1361,-12.5069l-12.0784 -0.9983z"/>
    <path id="_638563112" class="fil4" d="M239.937 206.419c3.4273,0.2623 5.9439,3.9121 5.7278,6.7356 -0.2162,2.8235 -3.0833,3.7531 -6.5106,3.4907 -3.4274,-0.2624 -6.1195,-1.6175 -5.9033,-4.441 0.2161,-2.8235 3.2587,-6.0477 6.6861,-5.7853z"/>
    <g style="clip-path:url(#id12)">
     <g>
      <path id="_6372999681" class="fil5 str5" d="M239.937 204.719c3.4273,0.2623 5.9439,3.9121 5.7278,6.7356 -0.2162,2.8235 -3.0833,3.7531 -6.5106,3.4907 -3.4274,-0.2624 -6.1195,-1.6175 -5.9033,-4.441 0.2161,-2.8235 3.2587,-6.0477 6.6861,-5.7853z"/>
      <path id="_637299896" class="fil5 str5" d="M239.123 205.346c-1.8971,0.1312 -3.2901,1.9561 -3.1705,3.3678 0.1197,1.4118 1.7067,1.8766 3.6038,1.7454 1.8972,-0.1312 3.3873,-0.8087 3.2677,-2.2205 -0.1197,-1.4118 -1.8038,-3.0239 -3.701,-2.8927z"/>
     </g>
    </g>
    <path class="fil2 str5" d="M239.937 206.419c3.4273,0.2623 5.9439,3.9121 5.7278,6.7356 -0.2162,2.8235 -3.0833,3.7531 -6.5106,3.4907 -3.4274,-0.2624 -6.1195,-1.6175 -5.9033,-4.441 0.2161,-2.8235 3.2587,-6.0477 6.6861,-5.7853z"/>
   </g>
   <g>
    <path id="_638563016" class="fil4 str5" d="M262.322 181.925c0,0 1.3368,10.7265 1.4818,14.546 0.1451,3.8195 -1.874,10.162 -1.7002,12.4323 0.1738,2.2704 0.9839,5.155 -1.5681,5.4977 -2.5521,0.3427 -5.7577,0.8091 -7.4926,0.2789 -1.7349,-0.5302 -2.0271,-2.4231 -1.0407,-3.972 0.9864,-1.5488 0.7597,-13.1706 0.3775,-15.2777 -0.3823,-2.107 -2.1361,-12.5069 -2.1361,-12.5069l12.0784 -0.9983z"/>
    <path id="_638562944" class="fil4" d="M256.666 206.419c-3.4273,0.2623 -5.9439,3.9121 -5.7278,6.7356 0.2162,2.8235 3.0833,3.7531 6.5106,3.4907 3.4274,-0.2624 6.1195,-1.6175 5.9033,-4.441 -0.2161,-2.8235 -3.2587,-6.0477 -6.6861,-5.7853z"/>
    <g style="clip-path:url(#id13)">
     <g>
      <path id="_6373025601" class="fil5 str5" d="M256.666 204.719c-3.4273,0.2623 -5.9439,3.9121 -5.7278,6.7356 0.2162,2.8235 3.0833,3.7531 6.5106,3.4907 3.4274,-0.2624 6.1195,-1.6175 5.9033,-4.441 -0.2161,-2.8235 -3.2587,-6.0477 -6.6861,-5.7853z"/>
      <path id="_637302488" class="fil5 str5" d="M257.48 205.346c1.8971,0.1312 3.2901,1.9561 3.1705,3.3678 -0.1197,1.4118 -1.7067,1.8766 -3.6038,1.7454 -1.8972,-0.1312 -3.3873,-0.8087 -3.2677,-2.2205 0.1197,-1.4118 1.8038,-3.0239 3.701,-2.8927z"/>
     </g>
    </g>
    <path class="fil2 str5" d="M256.666 206.419c-3.4273,0.2623 -5.9439,3.9121 -5.7278,6.7356 0.2162,2.8235 3.0833,3.7531 6.5106,3.4907 3.4274,-0.2624 6.1195,-1.6175 5.9033,-4.441 -0.2161,-2.8235 -3.2587,-6.0477 -6.6861,-5.7853z"/>
   </g>
   <path id="_638562848" class="fil8" d="M248.102 187.442c-0.0596,1.2457 -3.7696,18.4368 -3.7696,18.4368 0,0 -2.4096,1.8423 -11.4121,-0.57 -3.1711,-9.5366 -0.9073,-32.747 -0.7276,-33.3156l15.1762 -0.0347 0.6977 -0.0016 0.6977 -0.0016 15.1762 -0.0347c0.1823,0.5677 2.5523,23.7675 -0.5751,33.3185 -8.9914,2.4535 -11.4093,0.6223 -11.4093,0.6223 0,0 -3.7887,-17.174 -3.8541,-18.4194z"/>
   <g style="clip-path:url(#id14)">
    <g>
     <path id="_6383418961" class="fil4" d="M244.423 175.773c0,0 -0.6112,4.4901 0.3632,7.8025 0.9743,3.3125 3.3203,5.6709 3.3203,5.6709l-0.024 -13.6889 -3.6595 0.2155z"/>
    </g>
   </g>
   <path class="fil2 str5" d="M248.102 187.442c-0.0596,1.2457 -3.7696,18.4368 -3.7696,18.4368 0,0 -2.4096,1.8423 -11.4121,-0.57 -3.1711,-9.5366 -0.9073,-32.747 -0.7276,-33.3156l15.1762 -0.0347 0.6977 -0.0016 0.6977 -0.0016 15.1762 -0.0347c0.1823,0.5677 2.5523,23.7675 -0.5751,33.3185 -8.9914,2.4535 -11.4093,0.6223 -11.4093,0.6223 0,0 -3.7887,-17.174 -3.8541,-18.4194z"/>
   <path id="_638562776" class="fil4" d="M238.54 177.629c0,0 -1.634,13.1741 -1.529,17.5006 0.105,4.3265 0.2578,8.748 0.2578,8.748 0,0 1.3413,-16.4067 1.2712,-26.2486zm19.0799 -0.0437c0,0 1.6942,13.1665 1.609,17.4935 -0.0851,4.3269 -0.2177,8.749 -0.2177,8.749 0,0 -1.4163,-16.4003 -1.3913,-26.2425z"/>
  </g>
  <path class="fil0" d="M235.411 152.173c-5.4172,3.1568 -2.759,12.5736 -2.8362,15.3442 -0.0772,2.7705 -2.759,8.9045 3.0291,10.1774 4.1018,0.902 8.302,1.3532 12.5022,1.3532 4.2002,0 8.4006,-0.4512 12.5022,-1.3532 5.7881,-1.2728 3.1063,-7.4069 3.0291,-10.1774 -0.0772,-2.7706 2.581,-12.1874 -2.8361,-15.3442 -6.3296,-3.6885 -19.0608,-3.6885 -25.3903,0z"/>
  <g style="clip-path:url(#id15)">
   <g id="_637306736">
    <g>
     <g>
      <path id="_6373075281" class="fil1" d="M239.97 144.04c0,0 -2.6555,9.7164 -3.4621,20.0099 -0.8064,10.2932 -0.0658,18.5437 -0.0658,18.5437 0,0 1.5355,-13.2958 3.5279,-38.5536z"/>
      <path id="_637307456" class="fil1" d="M245.597 147.213c0,0 -2.0275,11.3186 -2.2094,21.9502 -0.1817,10.6309 1.0316,18.2134 1.0316,18.2134 0,0 0.7185,-14.067 1.1778,-40.1636z"/>
      <path id="_637307384" class="fil1" d="M250.617 147.213c0,0 2.0274,11.3191 2.2093,21.9502 0.1819,10.6309 -1.0316,18.2134 -1.0316,18.2134 0,0 -0.7185,-14.0675 -1.1777,-40.1636z"/>
      <path id="_637307312" class="fil1" d="M256.243 144.04c0,0 2.6554,9.7164 3.462,20.0097 0.8065,10.2929 0.0658,18.5439 0.0658,18.5439 0,0 -1.5355,-13.2961 -3.5278,-38.5536z"/>
      <path id="_637307240" class="fil1" d="M260.8 141.078c0,0 2.911,8.8384 3.9969,18.8328 1.0859,9.9947 0.5754,18.4427 0.5754,18.4427 0,0 -1.8942,-12.7547 -4.5723,-37.2755z"/>
      <path id="_637307168" class="fil1" d="M235.413 141.078c0,0 -2.9109,8.8384 -3.9969,18.8328 -1.0859,9.9947 -0.5753,18.4427 -0.5753,18.4427 0,0 1.8942,-12.7547 4.5722,-37.2755z"/>
     </g>
     <g>
      <path id="_637307072" class="fil1" d="M221.941 172.865c0,0 14.7474,2.2824 28.5997,2.4872 13.8514,0.2045 23.7309,-1.1614 23.7309,-1.1614 0,0 -18.3284,-0.8088 -52.3306,-1.3258z"/>
      <path id="_637307000" class="fil1" d="M221.941 166.419c0,0 14.7474,2.2824 28.5997,2.4872 13.8514,0.2045 23.7309,-1.1614 23.7309,-1.1614 0,0 -18.3284,-0.8088 -52.3306,-1.3258z"/>
      <path id="_637306928" class="fil1" d="M221.941 159.047c0,0 14.7474,2.2824 28.5997,2.4872 13.8514,0.2045 23.7309,-1.1614 23.7309,-1.1614 0,0 -18.3284,-0.8088 -52.3306,-1.3258z"/>
      <path id="_637306856" class="fil1" d="M221.941 153.082c0,0 14.7474,2.2824 28.5997,2.4872 13.8514,0.2045 23.7309,-1.1614 23.7309,-1.1614 0,0 -18.3284,-0.8088 -52.3306,-1.3258z"/>
     </g>
    </g>
   </g>
  </g>
  <path class="fil2 str2" d="M235.411 152.173c-5.4172,3.1568 -2.759,12.5736 -2.8362,15.3442 -0.0772,2.7705 -2.759,8.9045 3.0291,10.1774 4.1018,0.902 8.302,1.3532 12.5022,1.3532 4.2002,0 8.4006,-0.4512 12.5022,-1.3532 5.7881,-1.2728 3.1063,-7.4069 3.0291,-10.1774 -0.0772,-2.7706 2.581,-12.1874 -2.8361,-15.3442 -6.3296,-3.6885 -19.0608,-3.6885 -25.3903,0z"/>
  <path class="fil3 str1" d="M241.749 145.784l12.7151 0 0 5.5158c0,1.6001 -2.8469,2.898 -6.3575,2.898 -3.5105,0 -6.3576,-1.2979 -6.3576,-2.898l0 -5.5158z"/>
  <g id="_638561552">
   <path id="_638562536" class="fil9" d="M275.619 117.241c-1.6795,0.4487 -2.0347,3.7887 0.7047,3.7162 2.7393,-0.0725 1.983,-4.4342 -0.7047,-3.7162z"/>
   <path id="_638562464" class="fil10" d="M275.656 118.147c-0.9634,0.1639 -1.0032,1.9979 0.6014,2.0961 0.3852,0.0236 0.6393,-0.1003 0.7823,-0.2982 -0.0517,0.0028 -0.106,0.003 -0.1635,-0.0006 -1.2759,-0.0781 -1.512,-1.2537 -1.0709,-1.8144 -0.0488,0.0029 -0.0986,0.0085 -0.1493,0.0171z"/>
   <path id="_638562392" class="fil3 str4" d="M223.499 124.159c0.8008,-0.3366 1.9963,0.6893 2.6696,2.2909 0.6732,1.6017 0.5698,3.1736 -0.2311,3.5102 -0.8008,0.3367 -1.9962,-0.6892 -2.6695,-2.2909 -0.6733,-1.6016 -0.5698,-3.1735 0.231,-3.5102zm53.2623 6.7286c-0.6919,-0.5252 -2.1049,0.1712 -3.1554,1.5551 -1.0505,1.3839 -1.3412,2.9321 -0.6492,3.4573 0.692,0.5253 2.1049,-0.1711 3.1554,-1.555 1.0505,-1.3839 1.3412,-2.9321 0.6492,-3.4574z"/>
   <path id="_638562320" class="fil3 str1" d="M253.682 99.4085c26.7098,3.3742 22.3959,20.0372 20.6844,33.5855 -1.7116,13.5483 -13.3353,17.1974 -26.8836,15.4858 -13.5483,-1.7115 -23.8993,-8.1367 -22.1878,-21.685 1.7116,-13.5482 1.6772,-30.7605 28.387,-27.3863z"/>
   <path id="_638562248" class="fil2 str1" d="M247.378 133.113c0,0 1.8349,1.4179 4.0279,0.5088"/>
   <path id="_638562176" class="fil4 str6" d="M250.239 112.084c-0.5513,-0.4059 -3.3566,2.1404 -5.6009,1.7325 -3.4648,-0.6297 1.1879,-4.6637 -1.0114,-4.7429 -13.0536,-0.4702 -16.752,12.6252 -18.1291,21.6969 0,0 -0.8656,-4.7908 -1.8904,-9.3432 -1.0248,-4.5523 0.3492,-16.173 10.913,-20.8277 9.3233,-4.1083 17.552,-3.0435 19.3561,-2.7366 1.8238,0.1514 10.0587,1.1664 18.0675,7.4643 9.0744,7.1356 7.5152,18.7329 5.3904,22.8873 -2.1247,4.1545 -4.1545,8.5796 -4.1545,8.5796 0.9518,-7.9843 1.1478,-19.2212 -7.5099,-23.4961 -2.7608,-1.3632 -3.0303,3.4224 -8.0996,2.8174 -0.9928,-0.1185 2.2365,-3.6933 1.2161,-3.7487 -4.235,-0.2298 -4.5297,4.4893 -8.5972,3.8551 -2.9517,-0.4601 1.7308,-2.8998 0.0499,-4.1379z"/>
   <path id="_638562104" class="fil11" d="M233.049 131.83c1.634,0.2064 2.7919,1.6989 2.5855,3.3332 -0.2065,1.6341 -1.6992,2.7918 -3.3332,2.5854 -1.6342,-0.2065 -2.7921,-1.699 -2.5856,-3.3331 0.2064,-1.6343 1.6991,-2.792 3.3333,-2.5855zm32.5532 4.1124c1.634,0.2064 2.7919,1.6991 2.5854,3.3332 -0.2064,1.6342 -1.6991,2.7919 -3.3332,2.5855 -1.6341,-0.2064 -2.792,-1.699 -2.5855,-3.3332 0.2064,-1.6341 1.6991,-2.7919 3.3333,-2.5855z"/>
   <path id="_638562032" class="fil4" d="M269.198 125.573c0,0 -4.3216,-1.2387 -8.6557,-0.7012 0,0 -0.4569,-1.7779 1.1906,-2.3043 0.9869,-0.3151 4.8182,0.0782 5.9752,0.2387 1.1904,0.1653 1.4899,2.7668 1.4899,2.7668z"/>
   <path id="_638561960" class="fil4" d="M232.278 120.909c0,0 4.4939,-0.125 8.5582,1.4734 0,0 0.8847,-1.6084 -0.5802,-2.528 -0.8776,-0.5507 -4.6863,-1.1225 -5.8468,-1.2547 -1.1942,-0.136 -2.1312,2.3093 -2.1312,2.3093z"/>
   <path id="_638561888" class="fil7" d="M264.695 126.028c-1.6971,-0.2144 -3.1826,0.4719 -3.3166,1.5328 -0.134,1.0609 1.1341,2.0951 2.8312,2.3095 1.6971,0.2144 3.1825,-0.472 3.3165,-1.5328 0.134,-1.0609 -1.134,-2.0951 -2.8311,-2.3095z"/>
   <g style="clip-path:url(#id16)">
    <g>
     <circle id="_639665888" class="fil4" transform="matrix(-2.70235 -1.10281 -1.10281 2.70235 264.453 127.949)" r="0.682"/>
    </g>
   </g>
   <path class="fil2 str5" d="M264.695 126.028c-1.6971,-0.2144 -3.1826,0.4719 -3.3166,1.5328 -0.134,1.0609 1.1341,2.0951 2.8312,2.3095 1.6971,0.2144 3.1825,-0.472 3.3165,-1.5328 0.134,-1.0609 -1.134,-2.0951 -2.8311,-2.3095z"/>
   <path id="_638561816" class="fil7" d="M236.526 122.47c1.6971,0.2144 2.9651,1.2486 2.8311,2.3095 -0.134,1.0609 -1.6194,1.7473 -3.3165,1.5329 -1.6971,-0.2144 -2.9652,-1.2486 -2.8312,-2.3095 0.134,-1.0609 1.6195,-1.7473 3.3166,-1.5329z"/>
   <g style="clip-path:url(#id17)">
    <g>
     <circle id="_639664160" class="fil4" transform="matrix(2.89171 -0.396114 0.396114 2.89171 236.283 124.391)" r="0.682"/>
    </g>
   </g>
   <path class="fil2 str5" d="M236.526 122.47c1.6971,0.2144 2.9651,1.2486 2.8311,2.3095 -0.134,1.0609 -1.6194,1.7473 -3.3165,1.5329 -1.6971,-0.2144 -2.9652,-1.2486 -2.8312,-2.3095 0.134,-1.0609 1.6195,-1.7473 3.3166,-1.5329z"/>
   <g>
    <path id="_638561744" class="fil5" d="M229.423 93.378c-1.0002,7.9179 -1.2267,9.7108 -1.2267,9.7108l49.2548 6.2223c0,0 0.2671,-2.1144 1.2268,-9.7108 1.0409,-8.2397 -15.2466,-16.1496 -22.9684,-16.2439 -7.5026,-1.829 -25.2862,2.1036 -26.2865,10.0216z"/>
    <g style="clip-path:url(#id18)">
     <g>
      <ellipse id="_637305080" class="fil8" transform="matrix(1.7205 0.21735 -0.21735 1.7205 252.123 111.747)" rx="26.2314" ry="8.9119"/>
     </g>
    </g>
    <path class="fil2 str7" d="M229.423 93.378c-1.0002,7.9179 -1.2267,9.7108 -1.2267,9.7108l49.2548 6.2223c0,0 0.2671,-2.1144 1.2268,-9.7108 1.0409,-8.2397 -15.2466,-16.1496 -22.9684,-16.2439 -7.5026,-1.829 -25.2862,2.1036 -26.2865,10.0216z"/>
    <ellipse id="_638561672" class="fil5 str7" transform="matrix(1.49453 0.188803 -0.0450869 0.356899 252.77 106.626)" rx="26.2314" ry="8.9119"/>
   </g>
   <path id="_638561576" class="fil12 str8" d="M251.281 140.485c-0.1914,1.5156 -1.5759,2.5894 -3.0914,2.398 -1.5156,-0.1915 -2.5894,-1.5759 -2.398,-3.0915l5.4894 0.6935z"/>
  </g>
  <path class="fil7 str9" d="M310.343 101.031c12.0503,0 21.8227,6.3272 21.8227,14.1292 0,7.8021 -9.7724,14.1293 -21.8227,14.1293 -5.935,0 -11.3167,-1.5354 -15.2508,-4.0254l-8.0449 4.01 4.0251 -7.4806c-1.628,-1.9781 -2.552,-4.2358 -2.552,-6.6333 0,-7.802 9.7724,-14.1292 21.8226,-14.1292z"/>
  <path class="fil7 str9" d="M180.857 101.124c12.0503,0 21.8227,6.3272 21.8227,14.1292 0,7.8021 -9.7724,14.1293 -21.8227,14.1293 -5.935,0 -11.3167,-1.5354 -15.2508,-4.0254l-8.0449 4.01 4.0251 -7.4806c-1.628,-1.9781 -2.552,-4.2358 -2.552,-6.6333 0,-7.802 9.7724,-14.1292 21.8226,-14.1292z"/>
  <path class="fil13" d="M164.293 116.854c0,-0.2032 0.0995,-0.4276 0.2985,-0.6731 0.2455,-0.2413 0.491,-0.4847 0.7366,-0.7303 0.0423,-0.1439 0.0783,-0.2582 0.1079,-0.3429 0.0593,-0.1651 0.1609,-0.2476 0.3048,-0.2476 0.0762,0 0.127,0.0212 0.1524,0.0635 0.0127,0.0339 0.0201,0.0995 0.0222,0.1968 0.0021,0.0974 0.0032,0.1948 0.0032,0.2921 0,0.1397 -0.1916,0.4033 -0.5747,0.7906 -0.3831,0.3874 -0.5619,0.6234 -0.5365,0.708 0.0592,0.2075 0.2328,0.3112 0.5207,0.3112 0.1312,0 0.3079,-0.0826 0.5302,-0.2477 0.2222,-0.1651 0.4477,-0.3365 0.6763,-0.5143 0.0381,0 0.0762,0.018 0.1143,0.054 0.0381,0.036 0.0571,0.0899 0.0571,0.1619 0,0.2074 -0.1651,0.436 -0.4953,0.6858 -0.3302,0.2498 -0.6413,0.3746 -0.9334,0.3746 -0.271,0 -0.4996,-0.0783 -0.6858,-0.2349 -0.199,-0.1693 -0.2985,-0.3852 -0.2985,-0.6477zm0.9589 -3.2766c0,-0.1016 0.0254,-0.1852 0.0762,-0.2508 0.0508,-0.0656 0.1291,-0.0985 0.2349,-0.0985 0.0974,0 0.1757,0.0297 0.235,0.0889 0.0592,0.0593 0.0889,0.1376 0.0889,0.235 0,0.0974 -0.0276,0.182 -0.0826,0.254 -0.055,0.072 -0.127,0.1122 -0.2159,0.1206 -0.1016,0 -0.1831,-0.0328 -0.2445,-0.0984 -0.0614,-0.0656 -0.092,-0.1492 -0.092,-0.2508zm3.9243 1.2573c0,0.5249 -0.1948,1.1314 -0.5842,1.8193 -0.3895,0.6879 -0.7176,1.0318 -0.9843,1.0318 -0.2117,0 -0.3598,-0.2582 -0.4445,-0.7747 -0.0847,-0.5164 -0.127,-1.325 -0.127,-2.4257l0 -0.8318c0.3006,-0.1439 0.599,-0.2159 0.8954,-0.2159 0.3767,0 0.6731,0.1122 0.889,0.3365 0.237,0.2456 0.3556,0.5991 0.3556,1.0605zm-0.5398 0.0571c0,-0.2921 -0.0339,-0.5058 -0.1016,-0.6413 -0.0889,-0.1778 -0.2455,-0.2667 -0.4699,-0.2667 -0.1397,0 -0.29,0.0402 -0.4508,0.1206 0,0.8001 0.0084,1.4669 0.0254,2.0003 0.0169,0.5334 0.0359,0.8001 0.0571,0.8001 0.3852,-0.5461 0.6382,-0.944 0.7588,-1.1938 0.1207,-0.2498 0.181,-0.5228 0.181,-0.8192zm3.537 0.9525c0,0.5715 -0.1079,1.0436 -0.3238,1.4161 -0.2329,0.4022 -0.5483,0.6033 -0.9462,0.6033 -0.453,0 -0.8107,-0.2181 -1.0731,-0.6541 -0.2625,-0.436 -0.3937,-0.9843 -0.3937,-1.6447 0,-0.5969 0.1068,-1.0964 0.3206,-1.4986 0.2138,-0.4021 0.5027,-0.6032 0.8668,-0.6032 0.4699,0 0.8488,0.2349 1.1367,0.7048 0.2751,0.4488 0.4127,1.0076 0.4127,1.6764zm-0.5334 -0.0063c0,-0.5207 -0.0804,-0.9504 -0.2413,-1.2891 -0.1736,-0.364 -0.4106,-0.5461 -0.7112,-0.5461 -0.199,0 -0.363,0.1524 -0.4921,0.4572 -0.1291,0.3048 -0.1937,0.6837 -0.1937,1.1367 0,0.5122 0.0783,0.9271 0.235,1.2446 0.1778,0.3598 0.4233,0.5397 0.7366,0.5397 0.1905,0 0.3492,-0.1471 0.4762,-0.4413 0.127,-0.2942 0.1905,-0.6614 0.1905,-1.1017zm-0.1968 -3.2068c0,0.0889 -0.0995,0.1948 -0.2985,0.3175 -0.0635,0.0381 -0.163,0.0911 -0.2984,0.1588l-0.5144 0c0.1651,-0.1778 0.29,-0.3112 0.3747,-0.4001 0.2667,-0.2709 0.4318,-0.4064 0.4953,-0.4064 0.1058,0 0.1756,0.0297 0.2095,0.0889 0.0212,0.0381 0.0318,0.1186 0.0318,0.2413zm3.7465 1.905l0 1.7018 0 0.2731c0,0.5715 -0.0265,0.9588 -0.0794,1.162 -0.0529,0.2033 -0.1301,0.3049 -0.2317,0.3049 -0.2075,0 -0.4107,-0.18 -0.6096,-0.5398 -0.1016,-0.1863 -0.2742,-0.5937 -0.5176,-1.2224 -0.2434,-0.6286 -0.4498,-1.089 -0.6191,-1.3811 0,0.1355 0.0042,0.4138 0.0127,0.835 0.0085,0.4212 0.0127,0.6678 0.0127,0.7398 0,0.4106 -0.0169,0.726 -0.0508,0.9461 -0.0339,0.2202 -0.0995,0.3302 -0.1968,0.3302 -0.1397,0 -0.2403,-0.1174 -0.3017,-0.3524 -0.0614,-0.2349 -0.092,-0.5577 -0.092,-0.9684l0 -1.7907c0,-0.3937 0.0201,-0.6953 0.0603,-0.9048 0.0402,-0.2096 0.1196,-0.3144 0.2381,-0.3144 0.1439,0 0.3408,0.2392 0.5906,0.7176 0.1651,0.3175 0.3862,0.8075 0.6635,1.47 0.2773,0.6625 0.4562,1.0763 0.5366,1.2414l-0.0444 -2.1145c0,-0.4995 0.0232,-0.8869 0.0698,-1.1621 0.0466,-0.2751 0.1291,-0.4127 0.2477,-0.4127 0.1164,0 0.1968,0.1249 0.2423,0.3746 0.0455,0.2498 0.0688,0.6054 0.0688,1.0668zm2.5147 0.2985c0,0.5249 -0.1948,1.1314 -0.5842,1.8193 -0.3895,0.6879 -0.7176,1.0318 -0.9843,1.0318 -0.2117,0 -0.3598,-0.2582 -0.4445,-0.7747 -0.0847,-0.5164 -0.127,-1.325 -0.127,-2.4257l0 -0.8318c0.3006,-0.1439 0.599,-0.2159 0.8954,-0.2159 0.3767,0 0.6731,0.1122 0.889,0.3365 0.237,0.2456 0.3556,0.5991 0.3556,1.0605zm-0.5398 0.0571c0,-0.2921 -0.0339,-0.5058 -0.1016,-0.6413 -0.0889,-0.1778 -0.2455,-0.2667 -0.4699,-0.2667 -0.1397,0 -0.29,0.0402 -0.4508,0.1206 0,0.8001 0.0084,1.4669 0.0254,2.0003 0.0169,0.5334 0.0359,0.8001 0.0571,0.8001 0.3852,-0.5461 0.6382,-0.944 0.7588,-1.1938 0.1207,-0.2498 0.181,-0.5228 0.181,-0.8192zm2.6353 2.2098c0,0.1609 -0.1482,0.29 -0.4445,0.3874 -0.254,0.0847 -0.5355,0.127 -0.8445,0.127 -0.1567,0 -0.2689,-0.0783 -0.3366,-0.235 -0.0508,-0.1185 -0.0762,-0.2783 -0.0762,-0.4773 -0.0042,-0.182 -0.0085,-0.3344 -0.0127,-0.4582 -0.0296,-0.8774 -0.0444,-1.5177 -0.0444,-1.9198 0,-0.4964 0.0127,-0.8964 0.0381,-1.2023l1.1239 -0.1397c0.0423,0 0.072,0 0.0889,0 0.1101,0 0.1969,0.0201 0.2604,0.0603 0.0635,0.0402 0.0952,0.1027 0.0952,0.1873 0,0.072 -0.0423,0.1376 -0.127,0.1969 -0.0847,0.0593 -0.1799,0.0995 -0.2857,0.1206l-0.5842 0.108 0 1.2509 0.5207 -0.0254c0.1651,0 0.2815,0.0297 0.3492,0.0889 0.0677,0.0593 0.1016,0.1397 0.1016,0.2413 0,0.0847 -0.0349,0.1535 -0.1048,0.2064 -0.0698,0.0529 -0.1534,0.0794 -0.2508,0.0794l-0.5778 0.0381 0.0381 1.1747c0.0846,0 0.1957,-0.0095 0.3333,-0.0285 0.1376,-0.0191 0.2657,-0.0371 0.3842,-0.054 0.1058,0 0.1916,0.0201 0.2572,0.0603 0.0656,0.0402 0.0984,0.1111 0.0984,0.2127zm5.1118 -3.7401c0,0.1609 -0.0741,0.5419 -0.2223,1.143 -0.127,0.508 -0.2646,1.0276 -0.4127,1.5589 -0.1482,0.5313 -0.2244,0.7969 -0.2286,0.7969 -0.0731,0.271 -0.145,0.4784 -0.217,0.6223 -0.0889,0.1821 -0.1842,0.2816 -0.2858,0.2985 -0.1651,0.0296 -0.3365,-0.3577 -0.5143,-1.1621l-0.4434 -2.0193c-0.0466,-0.2032 -0.0699,-0.3979 -0.0699,-0.5842 0,-0.11 0.0138,-0.1809 0.0413,-0.2127 0.0275,-0.0317 0.0688,-0.0434 0.1238,-0.0349 0.072,0.0085 0.1365,0.0508 0.1937,0.127 0.0571,0.0762 0.1005,0.1693 0.1302,0.2794l0.5715 2.3622c0.1481,-0.4868 0.3132,-1.1176 0.4953,-1.8923 0.1354,-0.5842 0.2413,-0.9694 0.3175,-1.1557 0.1058,-0.2625 0.2391,-0.3937 0.4,-0.3937 0.0804,0 0.1207,0.0889 0.1207,0.2667zm0.8127 3.7846c0,0.3471 -0.0212,0.599 -0.0624,0.7557 -0.053,0.2032 -0.1461,0.3048 -0.2784,0.3048 -0.0709,0 -0.1217,-0.0858 -0.1524,-0.2572 -0.0307,-0.1715 -0.0465,-0.4096 -0.0465,-0.7144l-0.0826 -2.8321c0,-0.1947 0.0222,-0.345 0.0667,-0.4509 0.0444,-0.1058 0.128,-0.1587 0.2508,-0.1587 0.1185,0 0.199,0.1037 0.2413,0.3111 0.0423,0.2075 0.0635,0.5631 0.0635,1.0668l0 1.9749zm2.8639 -3.7846c0,0.1609 -0.0741,0.5419 -0.2223,1.143 -0.127,0.508 -0.2646,1.0276 -0.4127,1.5589 -0.1482,0.5313 -0.2244,0.7969 -0.2286,0.7969 -0.0731,0.271 -0.145,0.4784 -0.217,0.6223 -0.0889,0.1821 -0.1842,0.2816 -0.2858,0.2985 -0.1651,0.0296 -0.3365,-0.3577 -0.5143,-1.1621l-0.4434 -2.0193c-0.0466,-0.2032 -0.0699,-0.3979 -0.0699,-0.5842 0,-0.11 0.0138,-0.1809 0.0413,-0.2127 0.0275,-0.0317 0.0688,-0.0434 0.1238,-0.0349 0.072,0.0085 0.1365,0.0508 0.1937,0.127 0.0571,0.0762 0.1005,0.1693 0.1302,0.2794l0.5715 2.3622c0.1481,-0.4868 0.3132,-1.1176 0.4953,-1.8923 0.1354,-0.5842 0.2413,-0.9694 0.3175,-1.1557 0.1058,-0.2625 0.2391,-0.3937 0.4,-0.3937 0.0804,0 0.1207,0.0889 0.1207,0.2667zm1.9811 3.7401c0,0.1609 -0.1482,0.29 -0.4445,0.3874 -0.254,0.0847 -0.5355,0.127 -0.8445,0.127 -0.1567,0 -0.2689,-0.0783 -0.3366,-0.235 -0.0508,-0.1185 -0.0762,-0.2783 -0.0762,-0.4773 -0.0042,-0.182 -0.0085,-0.3344 -0.0127,-0.4582 -0.0296,-0.8774 -0.0444,-1.5177 -0.0444,-1.9198 0,-0.4964 0.0127,-0.8964 0.0381,-1.2023l1.1239 -0.1397c0.0423,0 0.072,0 0.0889,0 0.1101,0 0.1969,0.0201 0.2604,0.0603 0.0635,0.0402 0.0952,0.1027 0.0952,0.1873 0,0.072 -0.0423,0.1376 -0.127,0.1969 -0.0847,0.0593 -0.1799,0.0995 -0.2857,0.1206l-0.5842 0.108 0 1.2509 0.5207 -0.0254c0.1651,0 0.2815,0.0297 0.3492,0.0889 0.0677,0.0593 0.1016,0.1397 0.1016,0.2413 0,0.0847 -0.0349,0.1535 -0.1048,0.2064 -0.0698,0.0529 -0.1534,0.0794 -0.2508,0.0794l-0.5778 0.0381 0.0381 1.1747c0.0846,0 0.1957,-0.0095 0.3333,-0.0285 0.1376,-0.0191 0.2657,-0.0371 0.3842,-0.054 0.1058,0 0.1916,0.0201 0.2572,0.0603 0.0656,0.0402 0.0984,0.1111 0.0984,0.2127zm2.7559 -0.6667c0,0.3514 -0.1418,0.6361 -0.4254,0.8541 -0.2837,0.218 -0.6329,0.327 -1.0478,0.327 -0.2286,0 -0.4635,-0.0614 -0.7048,-0.1842 -0.2413,-0.1227 -0.362,-0.2561 -0.362,-0.4 0,-0.0593 0.0286,-0.1154 0.0857,-0.1683 0.0572,-0.0529 0.1217,-0.0794 0.1937,-0.0794 0.0254,0 0.1503,0.0519 0.3747,0.1556 0.2243,0.1037 0.3725,0.1556 0.4445,0.1556 0.2286,0 0.4222,-0.055 0.581,-0.1651 0.1587,-0.1101 0.2381,-0.2625 0.2381,-0.4572 0,-0.2032 -0.1799,-0.3916 -0.5397,-0.5652 -0.3387,-0.1566 -0.6774,-0.3132 -1.016,-0.4699 -0.3641,-0.2116 -0.5461,-0.4572 -0.5461,-0.7366 0,-0.2963 0.1608,-0.5831 0.4826,-0.8604 0.3217,-0.2773 0.6752,-0.4159 1.0604,-0.4159 0.2709,0 0.4445,0.0042 0.5207,0.0127 0.2413,0.0254 0.362,0.1291 0.362,0.3111 0,0.1313 -0.2943,0.2202 -0.8827,0.2667 -0.5884,0.0466 -0.8826,0.2646 -0.8826,0.6541 0,0.2074 0.1778,0.3725 0.5334,0.4953 0.6011,0.2032 0.9313,0.3217 0.9906,0.3556 0.3598,0.2032 0.5397,0.508 0.5397,0.9144zm2.8639 -2.3241c0,0.2032 -0.0995,0.4276 -0.2984,0.6731 -0.2456,0.2455 -0.4911,0.4889 -0.7366,0.7302 -0.0424,0.144 -0.0784,0.2583 -0.108,0.3429 -0.0593,0.1651 -0.1609,0.2477 -0.3048,0.2477 -0.0762,0 -0.127,-0.0212 -0.1524,-0.0635 -0.0085,-0.0212 -0.0148,-0.0847 -0.019,-0.1905 -0.0043,-0.1058 -0.0064,-0.1842 -0.0064,-0.235 0,-0.0296 0,-0.0465 0,-0.0508 0,-0.0042 0,-0.0084 0,-0.0127 0,-0.1397 0.1916,-0.4032 0.5747,-0.7905 0.3831,-0.3874 0.562,-0.6234 0.5366,-0.7081 -0.0593,-0.2074 -0.2329,-0.3111 -0.5207,-0.3111 -0.1313,0 -0.3048,0.0783 -0.5207,0.2349 -0.2286,0.1778 -0.4572,0.3535 -0.6858,0.5271 -0.0381,0 -0.072,-0.0148 -0.1016,-0.0445 -0.0466,-0.0423 -0.0699,-0.0994 -0.0699,-0.1714 0,-0.2074 0.1651,-0.436 0.4953,-0.6858 0.3302,-0.2498 0.6414,-0.3747 0.9335,-0.3747 0.2709,0 0.5027,0.0815 0.6953,0.2445 0.1926,0.163 0.2889,0.3757 0.2889,0.6382zm-0.9588 3.2766c0,0.1016 -0.0254,0.1852 -0.0762,0.2508 -0.0508,0.0656 -0.1292,0.0984 -0.235,0.0984 -0.0974,0 -0.1757,-0.0296 -0.2349,-0.0889 -0.0593,-0.0592 -0.0889,-0.1375 -0.0889,-0.2349 0,-0.0974 0.0275,-0.182 0.0825,-0.254 0.055,-0.072 0.127,-0.1122 0.2159,-0.1207 0.1016,0 0.1831,0.0329 0.2445,0.0985 0.0614,0.0656 0.0921,0.1492 0.0921,0.2508z"/>
  <path class="fil13" d="M290.693 116.827c0,-0.2032 0.0995,-0.4276 0.2985,-0.6731 0.2455,-0.2413 0.491,-0.4847 0.7366,-0.7303 0.0423,-0.1439 0.0783,-0.2582 0.1079,-0.3429 0.0593,-0.1651 0.1609,-0.2476 0.3048,-0.2476 0.0762,0 0.127,0.0212 0.1524,0.0635 0.0127,0.0339 0.0201,0.0995 0.0222,0.1968 0.0021,0.0974 0.0032,0.1948 0.0032,0.2921 0,0.1397 -0.1916,0.4033 -0.5747,0.7906 -0.3831,0.3874 -0.5619,0.6234 -0.5365,0.708 0.0592,0.2075 0.2328,0.3112 0.5207,0.3112 0.1312,0 0.3079,-0.0826 0.5302,-0.2477 0.2222,-0.1651 0.4477,-0.3365 0.6763,-0.5143 0.0381,0 0.0762,0.018 0.1143,0.054 0.0381,0.036 0.0571,0.0899 0.0571,0.1619 0,0.2074 -0.1651,0.436 -0.4953,0.6858 -0.3302,0.2498 -0.6413,0.3746 -0.9334,0.3746 -0.271,0 -0.4996,-0.0783 -0.6858,-0.2349 -0.199,-0.1693 -0.2985,-0.3852 -0.2985,-0.6477zm0.9589 -3.2766c0,-0.1016 0.0254,-0.1852 0.0762,-0.2508 0.0508,-0.0656 0.1291,-0.0985 0.2349,-0.0985 0.0974,0 0.1757,0.0297 0.235,0.0889 0.0592,0.0593 0.0889,0.1376 0.0889,0.235 0,0.0974 -0.0276,0.182 -0.0826,0.254 -0.055,0.072 -0.127,0.1122 -0.2159,0.1206 -0.1016,0 -0.1831,-0.0328 -0.2445,-0.0984 -0.0614,-0.0656 -0.092,-0.1492 -0.092,-0.2508zm3.9243 1.2573c0,0.5249 -0.1948,1.1314 -0.5842,1.8193 -0.3895,0.6879 -0.7176,1.0318 -0.9843,1.0318 -0.2117,0 -0.3598,-0.2582 -0.4445,-0.7747 -0.0847,-0.5164 -0.127,-1.325 -0.127,-2.4257l0 -0.8318c0.3006,-0.1439 0.599,-0.2159 0.8954,-0.2159 0.3767,0 0.6731,0.1122 0.889,0.3365 0.237,0.2456 0.3556,0.5991 0.3556,1.0605zm-0.5398 0.0571c0,-0.2921 -0.0339,-0.5058 -0.1016,-0.6413 -0.0889,-0.1778 -0.2455,-0.2667 -0.4699,-0.2667 -0.1397,0 -0.29,0.0402 -0.4508,0.1206 0,0.8001 0.0084,1.4669 0.0254,2.0003 0.0169,0.5334 0.0359,0.8001 0.0571,0.8001 0.3852,-0.5461 0.6382,-0.944 0.7588,-1.1938 0.1207,-0.2498 0.181,-0.5228 0.181,-0.8192zm2.6353 2.2098c0,0.1609 -0.1482,0.29 -0.4445,0.3874 -0.254,0.0847 -0.5355,0.127 -0.8445,0.127 -0.1567,0 -0.2689,-0.0783 -0.3366,-0.235 -0.0508,-0.1185 -0.0762,-0.2783 -0.0762,-0.4773 -0.0042,-0.182 -0.0085,-0.3344 -0.0127,-0.4582 -0.0296,-0.8774 -0.0444,-1.5177 -0.0444,-1.9198 0,-0.4964 0.0127,-0.8964 0.0381,-1.2023l1.1239 -0.1397c0.0423,0 0.072,0 0.0889,0 0.1101,0 0.1969,0.0201 0.2604,0.0603 0.0635,0.0402 0.0952,0.1027 0.0952,0.1873 0,0.072 -0.0423,0.1376 -0.127,0.1969 -0.0847,0.0593 -0.1799,0.0995 -0.2857,0.1206l-0.5842 0.108 0 1.2509 0.5207 -0.0254c0.1651,0 0.2815,0.0297 0.3492,0.0889 0.0677,0.0593 0.1016,0.1397 0.1016,0.2413 0,0.0847 -0.0349,0.1535 -0.1048,0.2064 -0.0698,0.0529 -0.1534,0.0794 -0.2508,0.0794l-0.5778 0.0381 0.0381 1.1747c0.0846,0 0.1957,-0.0095 0.3333,-0.0285 0.1376,-0.0191 0.2657,-0.0371 0.3842,-0.054 0.1058,0 0.1916,0.0201 0.2572,0.0603 0.0656,0.0402 0.0984,0.1111 0.0984,0.2127zm4.9721 -2.2669c0,0.5249 -0.1948,1.1314 -0.5842,1.8193 -0.3895,0.6879 -0.7176,1.0318 -0.9843,1.0318 -0.2117,0 -0.3598,-0.2582 -0.4445,-0.7747 -0.0847,-0.5164 -0.127,-1.325 -0.127,-2.4257l0 -0.8318c0.3006,-0.1439 0.599,-0.2159 0.8954,-0.2159 0.3767,0 0.6731,0.1122 0.889,0.3365 0.237,0.2456 0.3556,0.5991 0.3556,1.0605zm-0.5398 0.0571c0,-0.2921 -0.0339,-0.5058 -0.1016,-0.6413 -0.0889,-0.1778 -0.2455,-0.2667 -0.4699,-0.2667 -0.1397,0 -0.29,0.0402 -0.4508,0.1206 0,0.8001 0.0084,1.4669 0.0254,2.0003 0.0169,0.5334 0.0359,0.8001 0.0571,0.8001 0.3852,-0.5461 0.6382,-0.944 0.7588,-1.1938 0.1207,-0.2498 0.181,-0.5228 0.181,-0.8192zm3.537 0.9525c0,0.5715 -0.1079,1.0436 -0.3238,1.4161 -0.2329,0.4022 -0.5483,0.6033 -0.9462,0.6033 -0.453,0 -0.8107,-0.2181 -1.0731,-0.6541 -0.2625,-0.436 -0.3937,-0.9843 -0.3937,-1.6447 0,-0.5969 0.1068,-1.0964 0.3206,-1.4986 0.2138,-0.4021 0.5027,-0.6032 0.8668,-0.6032 0.4699,0 0.8488,0.2349 1.1367,0.7048 0.2751,0.4488 0.4127,1.0076 0.4127,1.6764zm-0.5334 -0.0063c0,-0.5207 -0.0804,-0.9504 -0.2413,-1.2891 -0.1736,-0.364 -0.4106,-0.5461 -0.7112,-0.5461 -0.199,0 -0.363,0.1524 -0.4921,0.4572 -0.1291,0.3048 -0.1937,0.6837 -0.1937,1.1367 0,0.5122 0.0783,0.9271 0.235,1.2446 0.1778,0.3598 0.4233,0.5397 0.7366,0.5397 0.1905,0 0.3492,-0.1471 0.4762,-0.4413 0.127,-0.2942 0.1905,-0.6614 0.1905,-1.1017zm-0.1968 -3.2068c0,0.0889 -0.0995,0.1948 -0.2985,0.3175 -0.0635,0.0381 -0.163,0.0911 -0.2984,0.1588l-0.5144 0c0.1651,-0.1778 0.29,-0.3112 0.3747,-0.4001 0.2667,-0.2709 0.4318,-0.4064 0.4953,-0.4064 0.1058,0 0.1756,0.0297 0.2095,0.0889 0.0212,0.0381 0.0318,0.1186 0.0318,0.2413zm3.7465 1.905l0 1.7018 0 0.2731c0,0.5715 -0.0265,0.9588 -0.0794,1.162 -0.0529,0.2033 -0.1301,0.3049 -0.2317,0.3049 -0.2075,0 -0.4107,-0.18 -0.6096,-0.5398 -0.1016,-0.1863 -0.2742,-0.5937 -0.5176,-1.2224 -0.2434,-0.6286 -0.4498,-1.089 -0.6191,-1.3811 0,0.1355 0.0042,0.4138 0.0127,0.835 0.0085,0.4212 0.0127,0.6678 0.0127,0.7398 0,0.4106 -0.0169,0.726 -0.0508,0.9461 -0.0339,0.2202 -0.0995,0.3302 -0.1968,0.3302 -0.1397,0 -0.2403,-0.1174 -0.3017,-0.3524 -0.0614,-0.2349 -0.092,-0.5577 -0.092,-0.9684l0 -1.7907c0,-0.3937 0.0201,-0.6953 0.0603,-0.9048 0.0402,-0.2096 0.1196,-0.3144 0.2381,-0.3144 0.1439,0 0.3408,0.2392 0.5906,0.7176 0.1651,0.3175 0.3862,0.8075 0.6635,1.47 0.2773,0.6625 0.4562,1.0763 0.5366,1.2414l-0.0444 -2.1145c0,-0.4995 0.0232,-0.8869 0.0698,-1.1621 0.0466,-0.2751 0.1291,-0.4127 0.2477,-0.4127 0.1164,0 0.1968,0.1249 0.2423,0.3746 0.0455,0.2498 0.0688,0.6054 0.0688,1.0668zm2.5147 0.2985c0,0.5249 -0.1948,1.1314 -0.5842,1.8193 -0.3895,0.6879 -0.7176,1.0318 -0.9843,1.0318 -0.2117,0 -0.3598,-0.2582 -0.4445,-0.7747 -0.0847,-0.5164 -0.127,-1.325 -0.127,-2.4257l0 -0.8318c0.3006,-0.1439 0.599,-0.2159 0.8954,-0.2159 0.3767,0 0.6731,0.1122 0.889,0.3365 0.237,0.2456 0.3556,0.5991 0.3556,1.0605zm-0.5398 0.0571c0,-0.2921 -0.0339,-0.5058 -0.1016,-0.6413 -0.0889,-0.1778 -0.2455,-0.2667 -0.4699,-0.2667 -0.1397,0 -0.29,0.0402 -0.4508,0.1206 0,0.8001 0.0084,1.4669 0.0254,2.0003 0.0169,0.5334 0.0359,0.8001 0.0571,0.8001 0.3852,-0.5461 0.6382,-0.944 0.7588,-1.1938 0.1207,-0.2498 0.181,-0.5228 0.181,-0.8192zm2.6353 2.2098c0,0.1609 -0.1482,0.29 -0.4445,0.3874 -0.254,0.0847 -0.5355,0.127 -0.8445,0.127 -0.1567,0 -0.2689,-0.0783 -0.3366,-0.235 -0.0508,-0.1185 -0.0762,-0.2783 -0.0762,-0.4773 -0.0042,-0.182 -0.0085,-0.3344 -0.0127,-0.4582 -0.0296,-0.8774 -0.0444,-1.5177 -0.0444,-1.9198 0,-0.4964 0.0127,-0.8964 0.0381,-1.2023l1.1239 -0.1397c0.0423,0 0.072,0 0.0889,0 0.1101,0 0.1969,0.0201 0.2604,0.0603 0.0635,0.0402 0.0952,0.1027 0.0952,0.1873 0,0.072 -0.0423,0.1376 -0.127,0.1969 -0.0847,0.0593 -0.1799,0.0995 -0.2857,0.1206l-0.5842 0.108 0 1.2509 0.5207 -0.0254c0.1651,0 0.2815,0.0297 0.3492,0.0889 0.0677,0.0593 0.1016,0.1397 0.1016,0.2413 0,0.0847 -0.0349,0.1535 -0.1048,0.2064 -0.0698,0.0529 -0.1534,0.0794 -0.2508,0.0794l-0.5778 0.0381 0.0381 1.1747c0.0846,0 0.1957,-0.0095 0.3333,-0.0285 0.1376,-0.0191 0.2657,-0.0371 0.3842,-0.054 0.1058,0 0.1916,0.0201 0.2572,0.0603 0.0656,0.0402 0.0984,0.1111 0.0984,0.2127zm4.6609 0c0,0.1609 -0.1482,0.29 -0.4445,0.3874 -0.254,0.0847 -0.5355,0.127 -0.8445,0.127 -0.1567,0 -0.2689,-0.0783 -0.3366,-0.235 -0.0508,-0.1185 -0.0762,-0.2783 -0.0762,-0.4773 -0.0042,-0.182 -0.0085,-0.3344 -0.0127,-0.4582 -0.0296,-0.8774 -0.0444,-1.5177 -0.0444,-1.9198 0,-0.4964 0.0127,-0.8964 0.0381,-1.2023l1.1239 -0.1397c0.0423,0 0.072,0 0.0889,0 0.1101,0 0.1969,0.0201 0.2604,0.0603 0.0635,0.0402 0.0952,0.1027 0.0952,0.1873 0,0.072 -0.0423,0.1376 -0.127,0.1969 -0.0847,0.0593 -0.1799,0.0995 -0.2857,0.1206l-0.5842 0.108 0 1.2509 0.5207 -0.0254c0.1651,0 0.2815,0.0297 0.3492,0.0889 0.0677,0.0593 0.1016,0.1397 0.1016,0.2413 0,0.0847 -0.0349,0.1535 -0.1048,0.2064 -0.0698,0.0529 -0.1534,0.0794 -0.2508,0.0794l-0.5778 0.0381 0.0381 1.1747c0.0846,0 0.1957,-0.0095 0.3333,-0.0285 0.1376,-0.0191 0.2657,-0.0371 0.3842,-0.054 0.1058,0 0.1916,0.0201 0.2572,0.0603 0.0656,0.0402 0.0984,0.1111 0.0984,0.2127zm3.0734 0.381c-0.0085,0.0551 -0.0212,0.0953 -0.0381,0.1207 -0.0508,0.0804 -0.1376,0.1206 -0.2603,0.1206 -0.3599,0 -0.7557,-0.1778 -1.1875,-0.5334 -0.4318,-0.3556 -0.6286,-0.6455 -0.5905,-0.8699 0,-0.0466 0.2349,-0.1863 0.7048,-0.4191 0.4699,-0.2328 0.7049,-0.4868 0.7049,-0.762 0,-0.2709 -0.1038,-0.5101 -0.3112,-0.7176 -0.2074,-0.2074 -0.453,-0.3111 -0.7366,-0.3111 -0.1778,0 -0.3492,0.0381 -0.5143,0.1143l0 2.4193c0,0.4742 -0.0223,0.8308 -0.0657,1.07 -0.0444,0.2392 -0.1164,0.3588 -0.2169,0.3588 -0.126,0 -0.2138,-0.1281 -0.2646,-0.3842 -0.0497,-0.2561 -0.0751,-0.6233 -0.0751,-1.1017l0 -1.7971c0,-0.5461 0.0582,-0.89 0.1746,-1.0318 0.1153,-0.1418 0.3958,-0.2128 0.8392,-0.2128 0.5112,0 0.9166,0.1016 1.2161,0.3048 0.346,0.2329 0.5196,0.5821 0.5196,1.0478 0,0.4149 -0.0868,0.7218 -0.2603,0.9207 -0.1567,0.1778 -0.4975,0.3874 -1.0224,0.6287 0.2244,0.2794 0.4741,0.4889 0.7493,0.6286 0.4233,0.2159 0.635,0.3514 0.635,0.4064zm2.14 -0.381c0,0.1609 -0.1482,0.29 -0.4445,0.3874 -0.254,0.0847 -0.5355,0.127 -0.8445,0.127 -0.1567,0 -0.2689,-0.0783 -0.3366,-0.235 -0.0508,-0.1185 -0.0762,-0.2783 -0.0762,-0.4773 -0.0042,-0.182 -0.0085,-0.3344 -0.0127,-0.4582 -0.0296,-0.8774 -0.0444,-1.5177 -0.0444,-1.9198 0,-0.4964 0.0127,-0.8964 0.0381,-1.2023l1.1239 -0.1397c0.0423,0 0.072,0 0.0889,0 0.1101,0 0.1969,0.0201 0.2604,0.0603 0.0635,0.0402 0.0952,0.1027 0.0952,0.1873 0,0.072 -0.0423,0.1376 -0.127,0.1969 -0.0847,0.0593 -0.1799,0.0995 -0.2857,0.1206l-0.5842 0.108 0 1.2509 0.5207 -0.0254c0.1651,0 0.2815,0.0297 0.3492,0.0889 0.0677,0.0593 0.1016,0.1397 0.1016,0.2413 0,0.0847 -0.0349,0.1535 -0.1048,0.2064 -0.0698,0.0529 -0.1534,0.0794 -0.2508,0.0794l-0.5778 0.0381 0.0381 1.1747c0.0846,0 0.1957,-0.0095 0.3333,-0.0285 0.1376,-0.0191 0.2657,-0.0371 0.3842,-0.054 0.1058,0 0.1916,0.0201 0.2572,0.0603 0.0656,0.0402 0.0984,0.1111 0.0984,0.2127zm2.7559 -0.6667c0,0.3514 -0.1418,0.6361 -0.4254,0.8541 -0.2837,0.218 -0.6329,0.327 -1.0478,0.327 -0.2286,0 -0.4635,-0.0614 -0.7048,-0.1842 -0.2413,-0.1227 -0.362,-0.2561 -0.362,-0.4 0,-0.0593 0.0286,-0.1154 0.0857,-0.1683 0.0572,-0.0529 0.1217,-0.0794 0.1937,-0.0794 0.0254,0 0.1503,0.0519 0.3747,0.1556 0.2243,0.1037 0.3725,0.1556 0.4445,0.1556 0.2286,0 0.4222,-0.055 0.581,-0.1651 0.1587,-0.1101 0.2381,-0.2625 0.2381,-0.4572 0,-0.2032 -0.1799,-0.3916 -0.5397,-0.5652 -0.3387,-0.1566 -0.6774,-0.3132 -1.016,-0.4699 -0.3641,-0.2116 -0.5461,-0.4572 -0.5461,-0.7366 0,-0.2963 0.1608,-0.5831 0.4826,-0.8604 0.3217,-0.2773 0.6752,-0.4159 1.0604,-0.4159 0.2709,0 0.4445,0.0042 0.5207,0.0127 0.2413,0.0254 0.362,0.1291 0.362,0.3111 0,0.1313 -0.2943,0.2202 -0.8827,0.2667 -0.5884,0.0466 -0.8826,0.2646 -0.8826,0.6541 0,0.2074 0.1778,0.3725 0.5334,0.4953 0.6011,0.2032 0.9313,0.3217 0.9906,0.3556 0.3598,0.2032 0.5397,0.508 0.5397,0.9144zm2.8639 -2.3241c0,0.2032 -0.0995,0.4276 -0.2984,0.6731 -0.2456,0.2455 -0.4911,0.4889 -0.7366,0.7302 -0.0424,0.144 -0.0784,0.2583 -0.108,0.3429 -0.0593,0.1651 -0.1609,0.2477 -0.3048,0.2477 -0.0762,0 -0.127,-0.0212 -0.1524,-0.0635 -0.0085,-0.0212 -0.0148,-0.0847 -0.019,-0.1905 -0.0043,-0.1058 -0.0064,-0.1842 -0.0064,-0.235 0,-0.0296 0,-0.0465 0,-0.0508 0,-0.0042 0,-0.0084 0,-0.0127 0,-0.1397 0.1916,-0.4032 0.5747,-0.7905 0.3831,-0.3874 0.562,-0.6234 0.5366,-0.7081 -0.0593,-0.2074 -0.2329,-0.3111 -0.5207,-0.3111 -0.1313,0 -0.3048,0.0783 -0.5207,0.2349 -0.2286,0.1778 -0.4572,0.3535 -0.6858,0.5271 -0.0381,0 -0.072,-0.0148 -0.1016,-0.0445 -0.0466,-0.0423 -0.0699,-0.0994 -0.0699,-0.1714 0,-0.2074 0.1651,-0.436 0.4953,-0.6858 0.3302,-0.2498 0.6414,-0.3747 0.9335,-0.3747 0.2709,0 0.5027,0.0815 0.6953,0.2445 0.1926,0.163 0.2889,0.3757 0.2889,0.6382zm-0.9588 3.2766c0,0.1016 -0.0254,0.1852 -0.0762,0.2508 -0.0508,0.0656 -0.1292,0.0984 -0.235,0.0984 -0.0974,0 -0.1757,-0.0296 -0.2349,-0.0889 -0.0593,-0.0592 -0.0889,-0.1375 -0.0889,-0.2349 0,-0.0974 0.0275,-0.182 0.0825,-0.254 0.055,-0.072 0.127,-0.1122 0.2159,-0.1207 0.1016,0 0.1831,0.0329 0.2445,0.0985 0.0614,0.0656 0.0921,0.1492 0.0921,0.2508z"/>
  <g id="_638559248">
   <g>
    <path id="_638561192" class="fil3 str1" d="M115.739 96.9076c27.3583,-3.4561 27.323,14.174 29.0761,28.0512 1.7531,13.8772 -8.8492,20.4584 -22.7264,22.2114 -13.8772,1.7531 -25.7831,-1.9845 -27.5362,-15.8617 -1.7531,-13.8772 -6.1717,-30.9447 21.1865,-34.4009z"/>
    <g>
     <path id="_638561120" class="fil0" d="M81.7683 101.788c3.7847,3.3525 4.5286,-5.3322 14.6687,-4.0115 10.14,1.3207 20.0625,0.0034 16.4863,-8.6117 -6.1113,-14.7227 -34.9398,9.2707 -31.155,12.6232zm68.0884 -8.6015c-2.8321,4.1883 -5.7124,-4.0385 -15.2055,-0.2376 -9.493,3.801 -19.4313,4.9927 -18.11,-4.2411 2.2579,-15.78 36.1476,0.2903 33.3155,4.4787z"/>
     <g style="clip-path:url(#id19)">
      <g>
       <g>
        <g>
         <path id="_5914757441" class="fil1" d="M99.3085 68.8515c0,0 -2.2263,15.6703 -1.4565,31.8762 0.7701,16.2054 3.5494,28.9215 3.5494,28.9215 0,0 -0.2248,-21.0299 -2.0929,-60.7977z"/>
         <path id="_591475528" class="fil1" d="M108.704 72.6904c0,0 -0.9316,18.0444 0.8787,34.6544 1.8104,16.6088 5.1952,28.1905 5.1952,28.1905 0,0 -1.6503,-22.0712 -6.0739,-62.8449z"/>
         <path id="_591475048" class="fil1" d="M116.53 71.7018c0,0 5.3897,17.2465 7.767,33.7841 2.3772,16.5372 1.9787,28.5969 1.9787,28.5969 0,0 -3.8906,-21.789 -9.7457,-62.381z"/>
         <path id="_591469264" class="fil1" d="M124.676 65.6468c0,0 6.0533,14.6244 9.3379,30.5121 3.2845,15.8874 3.7546,28.8961 3.7546,28.8961 0,0 -5.0122,-20.4255 -13.0925,-59.4082z"/>
         <path id="_591477064" class="fil1" d="M131.197 60.1321c0,0 6.2787,13.2053 9.9399,28.5723 3.6613,15.3673 4.5291,28.6378 4.5291,28.6378 0,0 -5.4648,-19.5109 -14.469,-57.2101z"/>
         <path id="_591468712" class="fil1" d="M91.6211 65.1318c0,0 -2.7974,14.3518 -2.5221,30.1465 0.2755,15.7951 2.7353,28.8645 2.7353,28.8645 0,0 0.441,-20.257 -0.2132,-59.011z"/>
        </g>
        <g>
         <path id="_591480304" class="fil1" d="M76.8791 117.339c0,0 23.4399,0.6538 45.0753,-1.7551 21.6338,-2.4091 36.7664,-6.484 36.7664,-6.484 0,0 -28.7322,2.3486 -81.8417,8.2391z"/>
         <path id="_591479632" class="fil1" d="M75.6096 107.29c0,0 23.4398,0.6538 45.0752,-1.7551 21.6339,-2.409 36.7665,-6.484 36.7665,-6.484 0,0 -28.7323,2.3487 -81.8417,8.2391z"/>
         <path id="_591479488" class="fil1" d="M74.1579 95.7984c0,0 23.4398,0.6539 45.0752,-1.755 21.6339,-2.4091 36.7665,-6.4841 36.7665,-6.4841 0,0 -28.7323,2.3487 -81.8417,8.2391z"/>
         <path id="_591481960" class="fil1" d="M72.983 86.4982c0,0 23.4398,0.6538 45.0752,-1.7551 21.6339,-2.409 36.7665,-6.484 36.7665,-6.484 0,0 -28.7323,2.3487 -81.8417,8.2391z"/>
        </g>
       </g>
      </g>
     </g>
     <path class="fil2 str0" d="M81.7683 101.788c3.7847,3.3525 4.5286,-5.3322 14.6687,-4.0115 10.14,1.3207 20.0625,0.0034 16.4863,-8.6117 -6.1113,-14.7227 -34.9398,9.2707 -31.155,12.6232zm68.0884 -8.6015c-2.8321,4.1883 -5.7124,-4.0385 -15.2055,-0.2376 -9.493,3.801 -19.4313,4.9927 -18.11,-4.2411 2.2579,-15.78 36.1476,0.2903 33.3155,4.4787z"/>
     <path id="_638561048" class="fil0" d="M114.073 83.7145c3.1373,-0.3963 6.0029,1.8265 6.3993,4.9638 0.3963,3.1373 -1.8265,6.003 -4.9638,6.3993 -3.1373,0.3963 -6.003,-1.8265 -6.3993,-4.9638 -0.3963,-3.1373 1.8265,-6.003 4.9638,-6.3993z"/>
     <g style="clip-path:url(#id20)">
      <g>
       <g>
        <g>
         <path id="_5916132481" class="fil1" d="M98.8825 65.4796c0,0 -2.2263,15.6703 -1.4565,31.8762 0.7701,16.2054 3.5495,28.9215 3.5495,28.9215 0,0 -0.2249,-21.0299 -2.093,-60.7977z"/>
         <path id="_591612456" class="fil1" d="M108.278 69.3185c0,0 -0.9316,18.0444 0.8786,34.6544 1.8105,16.6088 5.1952,28.1905 5.1952,28.1905 0,0 -1.6503,-22.0712 -6.0738,-62.8449z"/>
         <path id="_591619248" class="fil1" d="M116.105 68.3299c0,0 5.3897,17.2465 7.767,33.7841 2.3772,16.5372 1.9787,28.5969 1.9787,28.5969 0,0 -3.8905,-21.789 -9.7457,-62.381z"/>
         <path id="_591619008" class="fil1" d="M124.251 62.2749c0,0 6.0532,14.6244 9.3378,30.5121 3.2845,15.8874 3.7546,28.8961 3.7546,28.8961 0,0 -5.0122,-20.4255 -13.0924,-59.4082z"/>
         <path id="_591615768" class="fil1" d="M130.771 56.7602c0,0 6.2786,13.2053 9.9398,28.5723 3.6613,15.3673 4.5291,28.6378 4.5291,28.6378 0,0 -5.4648,-19.5109 -14.4689,-57.2101z"/>
         <path id="_591619440" class="fil1" d="M91.1951 61.7599c0,0 -2.7974,14.3518 -2.5221,30.1465 0.2755,15.7951 2.7354,28.8645 2.7354,28.8645 0,0 0.4409,-20.257 -0.2133,-59.011z"/>
        </g>
        <g>
         <path id="_591599112" class="fil1" d="M76.4531 113.968c0,0 23.4399,0.6538 45.0753,-1.7551 21.6338,-2.4091 36.7665,-6.484 36.7665,-6.484 0,0 -28.7323,2.3486 -81.8418,8.2391z"/>
         <path id="_591623928" class="fil1" d="M75.1836 103.918c0,0 23.4399,0.6538 45.0753,-1.7551 21.6338,-2.409 36.7664,-6.484 36.7664,-6.484 0,0 -28.7322,2.3487 -81.8417,8.2391z"/>
         <path id="_591608448" class="fil1" d="M73.7319 92.4265c0,0 23.4399,0.6539 45.0752,-1.755 21.6339,-2.4091 36.7665,-6.4841 36.7665,-6.4841 0,0 -28.7323,2.3487 -81.8417,8.2391z"/>
         <path id="_591622128" class="fil1" d="M72.557 83.1263c0,0 23.4399,0.6538 45.0753,-1.7551 21.6338,-2.409 36.7664,-6.484 36.7664,-6.484 0,0 -28.7322,2.3487 -81.8417,8.2391z"/>
        </g>
       </g>
      </g>
     </g>
     <path class="fil2 str0" d="M114.073 83.7145c3.1373,-0.3963 6.0029,1.8265 6.3993,4.9638 0.3963,3.1373 -1.8265,6.003 -4.9638,6.3993 -3.1373,0.3963 -6.003,-1.8265 -6.3993,-4.9638 -0.3963,-3.1373 1.8265,-6.003 4.9638,-6.3993z"/>
     <path id="_638560976" class="fil3 str1" d="M92.0995 129.151c0.7088,-0.538 2.1561,0.1753 3.232,1.5928 1.076,1.4175 1.3738,3.0033 0.665,3.5413 -0.7088,0.538 -2.1561,-0.1753 -3.232,-1.5928 -1.076,-1.4175 -1.3738,-3.0033 -0.665,-3.5413zm54.5554 -6.8919c-0.8203,-0.3448 -2.0448,0.7059 -2.7344,2.3465 -0.6896,1.6406 -0.5837,3.2506 0.2366,3.5954 0.8203,0.3448 2.0447,-0.7059 2.7344,-2.3465 0.6896,-1.6406 0.5837,-3.2506 -0.2366,-3.5954z"/>
     <path id="_638560904" class="fil2 str1" d="M117.936 130.884c0,0 2.1877,0.9876 4.1257,-0.5212"/>
     <path id="_638560832" class="fil4 str5" d="M109.987 110.017c-0.436,0.6193 -0.3131,2.8566 -5.3238,3.6412 -5.0107,0.7845 -5.761,1.8176 -7.1795,7.3765 -1.4185,5.5588 -1.4556,16.2312 -1.4556,16.2312 0,0 -2.3399,-6.5969 -4.5162,-10.8522 -2.1763,-4.2553 -3.7733,-16.1341 5.5213,-23.443 8.2032,-6.4507 16.6381,-7.4904 18.5061,-7.6455 1.8479,-0.3143 10.2764,-1.405 19.8261,2.803 10.8202,4.7678 12.2275,16.6706 11.1778,21.3334 -1.0496,4.6629 -1.6754,11.6344 -1.6754,11.6344 0,0 -2.6901,-10.3278 -5.4464,-15.3593 -2.7564,-5.0314 -18.324,-4.0031 -23.3724,-3.5169 -5.0484,0.4862 -5.4857,-1.7114 -6.062,-2.2028z"/>
     <path id="_638560760" class="fil8" d="M133.323 100.529c0,0 4.3897,2.6502 4.8759,6.6891 0,0 -2.1803,-3.3988 -4.8759,-6.6891z"/>
     <path id="_638560688" class="fil8" d="M125.916 99.1294c0,0 4.3896,2.6501 4.8758,6.689 0,0 -2.1803,-3.3987 -4.8758,-6.689z"/>
     <path id="_638560616" class="fil8" d="M118.315 98.0331c0,0 4.3896,2.6501 4.8758,6.689 0,0 -2.1803,-3.3987 -4.8758,-6.689z"/>
     <path id="_638560544" class="fil8" d="M101.148 102.258c0,0 -3.5926,3.6585 -3.0592,7.6914 0,0 1.2666,-3.8341 3.0592,-7.6914z"/>
     <path id="_638560472" class="fil11" d="M103.529 134.328c1.6738,-0.2115 3.2027,0.9743 3.4141,2.6482 0.2115,1.6738 -0.9745,3.2026 -2.6482,3.414 -1.6739,0.2115 -3.2028,-0.9743 -3.4142,-2.6481 -0.2115,-1.6739 0.9745,-3.2027 2.6483,-3.4141zm33.3435 -4.2123c1.6737,-0.2114 3.2027,0.9745 3.4141,2.6483 0.2115,1.6739 -0.9745,3.2026 -2.6483,3.4141 -1.6738,0.2114 -3.2027,-0.9744 -3.4142,-2.6483 -0.2114,-1.6737 0.9746,-3.2026 2.6484,-3.4141z"/>
     <path id="_638560400" class="fil7" d="M105.082 124.028c1.6948,0.2321 2.9519,1.2796 2.8068,2.339 -0.1451,1.0594 -1.6377,1.7302 -3.3324,1.498 -1.6948,-0.2321 -2.952,-1.2796 -2.8068,-2.339 0.1451,-1.0594 1.6376,-1.7302 3.3324,-1.498z"/>
     <g style="clip-path:url(#id21)">
      <g>
       <circle id="_639669344" class="fil4" transform="matrix(2.8957 -0.365811 0.365811 2.8957 104.819 125.946)" r="0.682"/>
      </g>
     </g>
     <path class="fil2 str5" d="M105.082 124.028c1.6948,0.2321 2.9519,1.2796 2.8068,2.339 -0.1451,1.0594 -1.6377,1.7302 -3.3324,1.498 -1.6948,-0.2321 -2.952,-1.2796 -2.8068,-2.339 0.1451,-1.0594 1.6376,-1.7302 3.3324,-1.498z"/>
     <path id="_638560328" class="fil4" d="M100.434 123.199c0,0 4.2129,-1.2417 8.6523,-0.6912 0,0 -4.0478,-4.21 -8.6523,0.6912z"/>
     <path id="_638560256" class="fil7" d="M132.92 120.511c-1.5838,0.6463 -2.541,1.9735 -2.137,2.9635 0.404,0.9901 2.0165,1.2686 3.6003,0.6223 1.5838,-0.6464 2.541,-1.9735 2.1369,-2.9636 -0.404,-0.99 -2.0164,-1.2685 -3.6002,-0.6222z"/>
     <g style="clip-path:url(#id22)">
      <g>
       <circle id="_639667616" class="fil4" transform="matrix(-2.8957 0.365811 0.365811 2.8957 133.652 122.304)" r="0.682"/>
      </g>
     </g>
     <path class="fil2 str5" d="M132.92 120.511c-1.5838,0.6463 -2.541,1.9735 -2.137,2.9635 0.404,0.9901 2.0165,1.2686 3.6003,0.6223 1.5838,-0.6464 2.541,-1.9735 2.1369,-2.9636 -0.404,-0.99 -2.0164,-1.2685 -3.6002,-0.6222z"/>
     <path id="_638560184" class="fil4" d="M137.217 118.552c0,0 -4.3894,-0.155 -8.5523,1.4822 0,0 2.8736,-5.0844 8.5523,-1.4822z"/>
     <g>
      <g>
       <path id="_638560112" class="fil6" d="M95.8173 139.578c0.4596,0.0813 0.8856,0.7434 0.9928,1.5917 0.1196,0.9468 -0.2031,1.7675 -0.7205,1.8329 -0.5175,0.0653 -1.0341,-0.6493 -1.1537,-1.5961 -0.1072,-0.8484 0.1408,-1.5955 0.5659,-1.7886l-0.8446 -6.6852 0.3155 -0.0399 0.8446 6.6852z"/>
       <path id="_638560040" class="fil6" d="M95.3641 142.334c0.4596,0.0814 0.8857,0.7434 0.9928,1.5917 0.1196,0.9468 -0.203,1.7675 -0.7204,1.8329 -0.5175,0.0654 -1.0342,-0.6493 -1.1538,-1.5961 -0.1071,-0.8483 0.1409,-1.5955 0.5659,-1.7886l-1.1829 -9.3639 0.3155 -0.0398 1.1829 9.3638z"/>
      </g>
      <g>
       <path id="_638559944" class="fil6" d="M145.647 133.283c-0.4249,0.1931 -0.673,0.9403 -0.5658,1.7887 0.1196,0.9467 0.6363,1.6614 1.1537,1.596 0.5174,-0.0653 0.8401,-0.886 0.7205,-1.8328 -0.1071,-0.8484 -0.5332,-1.5104 -0.9929,-1.5917l-0.8445 -6.6852 -0.3155 0.0399 0.8445 6.6851z"/>
       <path id="_638559872" class="fil6" d="M146.771 135.839c-0.4249,0.1931 -0.6729,0.9402 -0.5658,1.7886 0.1196,0.9468 0.6363,1.6615 1.1537,1.5961 0.5175,-0.0654 0.8401,-0.8861 0.7205,-1.8329 -0.1071,-0.8483 -0.5332,-1.5103 -0.9929,-1.5917l-1.1829 -9.3638 -0.3155 0.0398 1.1829 9.3639z"/>
      </g>
     </g>
     <path id="_638559752" class="fil0" d="M94.761 115.742c-1.0859,6.9578 -0.4679,14.866 1.3453,21.7055 0,0 -3.1616,-5.5905 -5.1666,-8.1494 -2.005,-2.559 -10.2274,-14.9351 0.0985,-28.6287 9.1932,-12.1915 37.6252,-15.7833 49.5614,-6.2611 13.407,10.6955 8.5207,24.7276 7.2151,27.7048 -1.3056,2.9772 -2.9776,9.1782 -2.9776,9.1782 0,0 0.0906,-11.6258 -4.0949,-21.358 -6.4406,-14.9762 -43.4673,-10.2987 -45.9812,5.8087z"/>
     <g style="clip-path:url(#id23)">
      <g>
       <g>
        <g>
         <path id="_6394961921" class="fil1" d="M100.574 82.0636c0,0 -2.2263,15.6704 -1.4565,31.8762 0.7701,16.2054 3.5494,28.9216 3.5494,28.9216 0,0 -0.2248,-21.0299 -2.0929,-60.7978z"/>
         <path id="_639496120" class="fil1" d="M109.97 85.9026c0,0 -0.9316,18.0443 0.8787,34.6543 1.8104,16.6088 5.1952,28.1906 5.1952,28.1906 0,0 -1.6503,-22.0712 -6.0739,-62.8449z"/>
         <path id="_639496048" class="fil1" d="M117.796 84.9139c0,0 5.3897,17.2466 7.767,33.7841 2.3772,16.5372 1.9787,28.5969 1.9787,28.5969 0,0 -3.8906,-21.7889 -9.7457,-62.381z"/>
         <path id="_639495976" class="fil1" d="M125.942 78.8589c0,0 6.0533,14.6244 9.3379,30.5121 3.2845,15.8874 3.7546,28.8961 3.7546,28.8961 0,0 -5.0122,-20.4255 -13.0925,-59.4082z"/>
         <path id="_639495904" class="fil1" d="M132.463 73.3443c0,0 6.2787,13.2052 9.9399,28.5722 3.6613,15.3674 4.5291,28.6379 4.5291,28.6379 0,0 -5.4648,-19.5109 -14.469,-57.2101z"/>
         <path id="_639495832" class="fil1" d="M92.8869 78.3439c0,0 -2.7974,14.3518 -2.5221,30.1465 0.2755,15.7951 2.7353,28.8645 2.7353,28.8645 0,0 0.441,-20.2569 -0.2132,-59.011z"/>
        </g>
        <g>
         <path id="_639495736" class="fil1" d="M78.1449 130.552c0,0 23.4399,0.6538 45.0753,-1.7551 21.6338,-2.4091 36.7664,-6.484 36.7664,-6.484 0,0 -28.7322,2.3486 -81.8417,8.2391z"/>
         <path id="_639495664" class="fil1" d="M76.8754 120.502c0,0 23.4398,0.6538 45.0752,-1.7551 21.6339,-2.4091 36.7665,-6.4841 36.7665,-6.4841 0,0 -28.7323,2.3487 -81.8417,8.2392z"/>
         <path id="_639495592" class="fil1" d="M75.4237 109.011c0,0 23.4398,0.6538 45.0752,-1.7551 21.6339,-2.4091 36.7665,-6.484 36.7665,-6.484 0,0 -28.7323,2.3486 -81.8417,8.2391z"/>
         <path id="_639495520" class="fil1" d="M74.2488 99.7104c0,0 23.4398,0.6538 45.0752,-1.7551 21.6339,-2.4091 36.7665,-6.4841 36.7665,-6.4841 0,0 -28.7323,2.3487 -81.8417,8.2392z"/>
        </g>
       </g>
      </g>
     </g>
     <path class="fil2 str0" d="M94.761 115.742c-1.0859,6.9578 -0.4679,14.866 1.3453,21.7055 0,0 -3.1616,-5.5905 -5.1666,-8.1494 -2.005,-2.559 -10.2274,-14.9351 0.0985,-28.6287 9.1932,-12.1915 37.6252,-15.7833 49.5614,-6.2611 13.407,10.6955 8.5207,24.7276 7.2151,27.7048 -1.3056,2.9772 -2.9776,9.1782 -2.9776,9.1782 0,0 0.0906,-11.6258 -4.0949,-21.358 -6.4406,-14.9762 -43.4673,-10.2987 -45.9812,5.8087z"/>
     <g>
      <g>
       <path id="_638559680" class="fil7" d="M95.9664 144.377c-0.0062,0.5956 -0.176,1.0451 -0.4385,1.0783 -0.33,0.0417 -0.6817,-0.5903 -0.7854,-1.4112 -0.0546,-0.4317 -0.0297,-0.8297 0.0542,-1.1163 -0.0017,0.1532 0.0075,0.316 0.0288,0.4839 0.1037,0.8209 0.4554,1.4529 0.7854,1.4112 0.1564,-0.0198 0.28,-0.1875 0.3555,-0.4459z"/>
       <path id="_638559608" class="fil7" d="M96.4814 141.642c-0.0062,0.5957 -0.176,1.0452 -0.4385,1.0784 -0.33,0.0417 -0.6817,-0.5903 -0.7854,-1.4112 -0.0546,-0.4317 -0.0297,-0.8297 0.0542,-1.1163 -0.0017,0.1532 0.0075,0.316 0.0288,0.4839 0.1037,0.8209 0.4554,1.4529 0.7854,1.4112 0.1564,-0.0198 0.2799,-0.1876 0.3555,-0.446z"/>
      </g>
      <g>
       <path id="_638559512" class="fil7" d="M146.696 137.968c0.1543,0.5754 0.4305,0.9686 0.693,0.9354 0.33,-0.0417 0.5135,-0.7412 0.4098,-1.5622 -0.0545,-0.4316 -0.1777,-0.811 -0.3301,-1.0677 0.0396,0.148 0.0712,0.3079 0.0924,0.4758 0.1037,0.821 -0.0798,1.5205 -0.4098,1.5622 -0.1564,0.0198 -0.3178,-0.112 -0.4553,-0.3435z"/>
       <path id="_638559440" class="fil7" d="M145.517 135.447c0.1542,0.5754 0.4305,0.9686 0.693,0.9354 0.33,-0.0417 0.5135,-0.7412 0.4097,-1.5622 -0.0545,-0.4317 -0.1776,-0.811 -0.3301,-1.0677 0.0397,0.1479 0.0713,0.3079 0.0925,0.4758 0.1037,0.8209 -0.0798,1.5205 -0.4098,1.5622 -0.1565,0.0198 -0.3178,-0.112 -0.4553,-0.3435z"/>
      </g>
     </g>
    </g>
   </g>
   <path id="_638559272" class="fil12 str8" d="M123.924 138.588c0.1918,1.5155 -0.8818,2.9002 -2.3973,3.0919 -1.5155,0.1918 -2.9001,-0.8818 -3.0919,-2.3973l5.4892 -0.6946z"/>
  </g>
 </g>
</svg>
