<?xml version="1.0" encoding="UTF-8"?>
<!DOCTYPE svg PUBLIC "-//W3C//DTD SVG 1.1//EN" "http://www.w3.org/Graphics/SVG/1.1/DTD/svg11.dtd">
<!-- Creator: CorelDRAW -->
<svg xmlns="http://www.w3.org/2000/svg" xml:space="preserve" width="420mm" height="297mm" style="shape-rendering:geometricPrecision; text-rendering:geometricPrecision; image-rendering:optimizeQuality; fill-rule:evenodd; clip-rule:evenodd"
viewBox="0 0 420 297"
 xmlns:xlink="http://www.w3.org/1999/xlink">
 <defs>
  <style type="text/css">
   <![CDATA[
    .str9 {stroke:#1F1A17;stroke-width:0.75}
    .str1 {stroke:#1F1A17;stroke-width:0.75;stroke-linecap:round;stroke-linejoin:round}
    .str3 {stroke:#8F5444;stroke-width:0.75;stroke-linecap:round;stroke-linejoin:round}
    .str0 {stroke:#969594;stroke-width:0.75;stroke-linecap:round;stroke-linejoin:round}
    .str4 {stroke:#542829;stroke-width:0.75}
    .str2 {stroke:#542829;stroke-width:0.75;stroke-linecap:round;stroke-linejoin:round}
    .str7 {stroke:#8A2C2F;stroke-width:0.75;stroke-linecap:round;stroke-linejoin:round}
    .str5 {stroke:#1F1A17;stroke-linecap:round;stroke-linejoin:round}
    .str6 {stroke:#8F5444;stroke-linecap:round;stroke-linejoin:round}
    .str8 {stroke:#1F1A17;stroke-width:1.5;stroke-linecap:round;stroke-linejoin:round}
    .fil3 {fill:none}
    .fil1 {fill:#1F1A17}
    .fil2 {fill:#383431}
    .fil4 {fill:#4D4948}
    .fil13 {fill:#969594}
    .fil10 {fill:#B76767}
    .fil12 {fill:#C2C1C1}
    .fil5 {fill:#DA251D}
    .fil11 {fill:#DB214C}
    .fil0 {fill:white}
    .fil7 {fill:#C3957D}
    .fil6 {fill:#542829}
    .fil9 {fill:#E0CFBF}
    .fil8 {fill:#1F1A17;fill-rule:nonzero}
   ]]>
  </style>
     <clipPath id="id0">
      <path d="M239.937 206.821c3.4273,0.2623 5.9439,3.9121 5.7278,6.7356 -0.2162,2.8235 -3.0833,3.7531 -6.5106,3.4907 -3.4274,-0.2624 -6.1195,-1.6175 -5.9033,-4.441 0.2161,-2.8235 3.2587,-6.0477 6.6861,-5.7853z"/>
     </clipPath>
     <clipPath id="id1">
      <path d="M256.666 206.821c-3.4273,0.2623 -5.9439,3.9121 -5.7278,6.7356 0.2162,2.8235 3.0833,3.7531 6.5106,3.4907 3.4274,-0.2624 6.1195,-1.6175 5.9033,-4.441 -0.2161,-2.8235 -3.2587,-6.0477 -6.6861,-5.7853z"/>
     </clipPath>
    <clipPath id="id2">
     <path d="M248.102 187.844c-0.0596,1.2457 -3.7696,18.4368 -3.7696,18.4368 0,0 -2.4096,1.8423 -11.4121,-0.57 -3.1711,-9.5366 -0.9073,-32.747 -0.7276,-33.3156l15.1762 -0.0347 0.6977 -0.0016 0.6977 -0.0016 15.1762 -0.0347c0.1823,0.5677 2.5523,23.7675 -0.5751,33.3185 -8.9914,2.4535 -11.4093,0.6223 -11.4093,0.6223 0,0 -3.7887,-17.174 -3.8541,-18.4194z"/>
    </clipPath>
   <clipPath id="id3">
    <path d="M235.412 152.575c-5.4172,3.1568 -2.759,12.5736 -2.8362,15.3442 -0.0772,2.7705 -2.759,8.9045 3.0291,10.1774 4.1018,0.902 8.302,1.3532 12.5022,1.3532 4.2002,0 8.4006,-0.4512 12.5022,-1.3532 5.7881,-1.2728 3.1063,-7.4069 3.0291,-10.1774 -0.0772,-2.7706 2.581,-12.1874 -2.8361,-15.3442 -6.3296,-3.6885 -19.0608,-3.6885 -25.3903,0z"/>
   </clipPath>
     <clipPath id="id4">
      <path d="M233.807 153.898c-2.9912,0.4362 -7.0418,1.9941 -10.3446,12.5257 -3.3028,10.5316 -2.6796,19.6299 -2.6796,19.6299l8.2881 0c0,0 1.5116,-15.0568 3.2565,-18.6088 1.7449,-3.5521 1.4796,-13.5468 1.4796,-13.5468z"/>
     </clipPath>
     <clipPath id="id5">
      <path d="M262.253 154.151c2.1649,-1.2499 7.042,1.9943 10.3446,12.5257 1.5586,4.9702 1.0823,12.1984 -3.5607,13.3557 -6.6189,1.6498 -15.3107,-3.979 -15.3107,-3.979l3.9957 -7.2157c5.5791,3.3133 7.4065,2.0341 6.0107,-1.1399 -1.5926,-3.6223 -3.6446,-12.297 -1.4796,-13.5468z"/>
     </clipPath>
    <clipPath id="id6">
     <path d="M93.3084 140.172c-0.982,8.9153 2.9286,18.0451 15.4447,18.0451 12.5161,0 12.5162,-4.2472 12.5162,-4.2472l-0.0001 -25.8382 -27.9608 -3.453c0,0 0.982,6.578 0,15.4933z"/>
    </clipPath>
    <clipPath id="id7">
     <path d="M149.349 140.172c0.982,8.9153 -2.9286,18.0451 -15.4447,18.0451 -12.5161,0 -12.5162,-4.2472 -12.5162,-4.2472l0.0001 -25.8382 27.9608 -3.453c0,0 -0.982,6.578 0,15.4933z"/>
    </clipPath>
    <clipPath id="id8">
     <path d="M135.785 152.073c-2.8558,1.1735 -3.1265,6.6173 2.6383,16.0296 5.7648,9.4122 15.4997,12.1554 15.4997,12.1554l3.6245 -7.3981c0,0 -7.9438,-4.0807 -10.6936,-8.2371 -2.7499,-4.1563 -8.2131,-13.7232 -11.0689,-12.5498z"/>
    </clipPath>
      <clipPath id="id9">
       <path d="M124.315 212.155c0.2007,-3.2221 2.3928,-4.8231 5.8211,-5.063 3.4284,-0.2399 6.0736,0.9334 6.5963,4.1942 0.6546,4.083 -4.4284,4.6329 -5.7362,4.7244 -4.3317,0.303 -6.8819,-0.6335 -6.6812,-3.8556z"/>
      </clipPath>
      <clipPath id="id10">
       <path d="M118.342 212.155c-0.2007,-3.2221 -2.3928,-4.8231 -5.8211,-5.063 -3.4284,-0.2399 -6.0736,0.9334 -6.5963,4.1942 -0.6546,4.083 4.4284,4.6329 5.7362,4.7244 4.3317,0.303 6.8819,-0.6335 6.6812,-3.8556z"/>
      </clipPath>
    <clipPath id="id11">
     <path d="M105.522 173.291c-6.4115,8.0868 -6.7223,24.0029 -5.442,26.0161 1.025,1.6121 10.9915,4.875 21.2486,4.875 10.2572,0 20.2237,-3.2629 21.2487,-4.875 1.2802,-2.0132 0.9694,-17.9293 -5.4421,-26.0161l-15.8066 0 -15.8066 0z"/>
    </clipPath>
    <clipPath id="id12">
     <path d="M108.325 149.919c-5.5487,3.2334 -2.826,12.8788 -2.905,15.7167 -0.0791,2.8378 -2.826,9.1206 3.1026,10.4245 8.4026,1.8479 17.2088,1.8479 25.6114,0 5.9286,-1.3039 3.1817,-7.5867 3.1027,-10.4245 -0.0791,-2.8379 2.6436,-12.4833 -2.905,-15.7167 -6.4833,-3.7781 -19.5235,-3.7781 -26.0067,0z"/>
    </clipPath>
     <clipPath id="id13">
      <path d="M105.006 168.465c-0.0154,0.0901 -0.0307,0.1807 -0.0456,0.2719l-0.0042 0.026c-0.0295,0.1812 -0.0578,0.3643 -0.084,0.5486l-0.0042 0.0296 -0.0173 0.1248 -0.0005 0.0035c-0.0119,0.0887 -0.0231,0.1778 -0.0339,0.2669l-0.0036 0.0299 -0.0142 0.1234 -0.0049 0.0456c-0.0076,0.0705 -0.0148,0.1411 -0.0215,0.2117l-0.0052 0.0554 -0.0084 0.0982 -0.0057 0.0704 -0.0079 0.1059 -0.0044 0.0673c-0.0035,0.0548 -0.0067,0.1096 -0.0095,0.1644l-0.004 0.0826 -0.0038 0.0993 -0.0022 0.0718 -0.0024 0.1031 -0.0007 0.068m-0.0003 0.1614l0.0009 0.0859 0.002 0.0904 0.0026 0.0804 0.0037 0.0934c0.0016,0.0337 0.0037,0.0671 0.0058,0.1007 0.0027,0.0438 0.0058,0.0874 0.0092,0.131l0.0069 0.0829 0.0079 0.0822c0.0035,0.0343 0.0074,0.0684 0.0114,0.1025l0.0075 0.0639c0.0065,0.0509 0.0137,0.1013 0.0214,0.1518l0.0119 0.0735 0.0163 0.094 0.0135 0.0725c0.007,0.0356 0.0144,0.071 0.0221,0.1063l0.0201 0.0897c0.0088,0.0378 0.018,0.0756 0.0276,0.113l0.0191 0.0709c0.0086,0.0316 0.0176,0.0631 0.0268,0.0944l0.0191 0.0636c0.014,0.0452 0.0287,0.09 0.044,0.1346l0.0205 0.0575c0.013,0.0363 0.0264,0.0725 0.0404,0.1083l0.025 0.0623c0.0126,0.0308 0.0256,0.0613 0.0388,0.0918l0.0272 0.0619c0.0209,0.046 0.0426,0.0918 0.0653,0.137l0.0257 0.0492c0.0165,0.0317 0.0333,0.0633 0.0506,0.0946l0.0335 0.0593c0.0186,0.0321 0.0378,0.0641 0.0573,0.0957l0.0275 0.0447c0.0281,0.0441 0.0574,0.0878 0.0874,0.131l0.0346 0.0482c0.0211,0.0292 0.0426,0.0583 0.0647,0.087l0.0404 0.0521c0.0278,0.0349 0.0563,0.0694 0.0855,0.1036l0.0209 0.0248c0.036,0.0413 0.0734,0.0819 0.1116,0.1221l0.0425 0.0434c0.0279,0.0283 0.0564,0.0564 0.0855,0.0841l0.043 0.0407c0.0416,0.0385 0.0839,0.0764 0.1279,0.1136l0.0231 0.0189c0.0383,0.0319 0.0776,0.0633 0.1177,0.0942l0.0537 0.0404c0.0336,0.025 0.0679,0.0497 0.1028,0.0741l0.0517 0.0359c0.05,0.0338 0.1011,0.0671 0.1536,0.0995l0.0416 0.0248c0.0421,0.0254 0.0851,0.0504 0.1288,0.0749l0.0585 0.0321c0.0459,0.0248 0.0928,0.0491 0.1404,0.073l0.0405 0.0205c0.061,0.0299 0.1237,0.0588 0.1877,0.087l0.05 0.0214c0.0506,0.0217 0.1023,0.043 0.1547,0.0637l0.0611 0.0237c0.0574,0.022 0.1162,0.0433 0.1758,0.064l0.0384 0.0136c0.0711,0.0242 0.1442,0.0472 0.2184,0.0696l0.0632 0.0184c0.0562,0.0164 0.1136,0.0321 0.1715,0.0476l0.0766 0.02c0.0783,0.02 0.1582,0.0392 0.2401,0.0572 8.4026,1.8479 17.2088,1.8479 25.6114,0 0.0821,-0.0181 0.1618,-0.0374 0.2407,-0.0573l0.0748 -0.0196c0.0593,-0.0157 0.1177,-0.0319 0.1751,-0.0486l0.0581 -0.0168c0.0751,-0.0226 0.1488,-0.046 0.2208,-0.0704l0.0372 -0.0132c0.0601,-0.0208 0.119,-0.0423 0.1769,-0.0643l0.059 -0.0229c0.0569,-0.0224 0.1129,-0.0455 0.1677,-0.0691l0.0336 -0.0142c0.0658,-0.0289 0.1299,-0.0588 0.1926,-0.0894l0.038 -0.0191c0.0496,-0.0248 0.0983,-0.0501 0.146,-0.0759l0.0509 -0.0278c0.0533,-0.0297 0.1056,-0.0599 0.1564,-0.0909l0.0129 -0.0077c0.0551,-0.0339 0.1084,-0.0687 0.1607,-0.1041l0.0441 -0.0305c0.0384,-0.0267 0.0759,-0.0539 0.1128,-0.0813l0.0444 -0.0333c0.0478,-0.0367 0.0946,-0.0738 0.1398,-0.1119l0.0165 -0.0143c0.0408,-0.0347 0.0804,-0.07 0.1191,-0.1057l0.036 -0.0338c0.0331,-0.0315 0.0655,-0.0634 0.0971,-0.0956l0.0318 -0.0324c0.0397,-0.0414 0.0782,-0.0835 0.1154,-0.1261l0.0216 -0.0254c0.0299,-0.0348 0.0588,-0.0701 0.0872,-0.1057l0.0331 -0.0423c0.0282,-0.0365 0.0556,-0.0734 0.0822,-0.1107l0.0179 -0.0246c0.032,-0.0456 0.0627,-0.0918 0.0924,-0.1385l0.0222 -0.0358c0.0227,-0.0366 0.0449,-0.0735 0.0663,-0.1107l0.0238 -0.0415c0.0269,-0.048 0.0529,-0.0964 0.0777,-0.1454l0.0017 -0.0034c0.0245,-0.0485 0.0476,-0.0976 0.0701,-0.147l0.0183 -0.0412c0.0177,-0.0401 0.0348,-0.0803 0.0512,-0.121l0.015 -0.0371c0.0202,-0.0513 0.0397,-0.1031 0.058,-0.1552l0.0088 -0.0262c0.0154,-0.0446 0.0301,-0.0896 0.0441,-0.1348l0.0135 -0.0445c0.0131,-0.0437 0.0256,-0.0876 0.0375,-0.1318l0.0088 -0.032c0.014,-0.0533 0.027,-0.1071 0.0394,-0.1611l0.0095 -0.0435c0.0093,-0.0422 0.0181,-0.0846 0.0264,-0.1272l0.0092 -0.0479c0.0204,-0.1096 0.0377,-0.2205 0.0522,-0.3323l0.007 -0.0571c0.0051,-0.0421 0.0097,-0.0844 0.014,-0.1268l0.0045 -0.0444c0.0055,-0.0578 0.0104,-0.1157 0.0145,-0.1739l0.001 -0.0169c0.0035,-0.0509 0.0063,-0.102 0.0088,-0.1532l0.0026 -0.06c0.0017,-0.042 0.003,-0.084 0.0041,-0.1263l0.0013 -0.0487c0.0011,-0.0578 0.0017,-0.1159 0.0018,-0.1739l-0.0002 -0.0376 -0.0015 -0.1377 -0.0012 -0.0599 -0.0042 -0.14 -0.0012 -0.0361c-0.0023,-0.0582 -0.0053,-0.1164 -0.0086,-0.1746l-0.0028 -0.0482 -0.0087 -0.1331 -0.0042 -0.0593c-0.004,-0.0538 -0.0084,-0.1078 -0.0131,-0.1616l-0.0042 -0.0462 -0.0131 -0.1378 -0.0065 -0.0625 -0.0136 -0.1257 -0.0066 -0.059 -0.0167 -0.1397 -0.015 -0.117 -0.0088 -0.0673 -0.0146 -0.1075 -0.0073 -0.0524 -0.0251 -0.173 -0.0133 -0.0889 -0.0111 -0.0715 -0.0156 -0.0996 -0.0145 -0.0911 -0.0198 -0.121 -0.0048 -0.0294 -0.0238 -0.1413c-4.4904,1.0925 -10.1637,1.7449 -16.3317,1.7449 -6.168,0 -11.8413,-0.6524 -16.3316,-1.7449l0.0088 -0.0515"/>
     </clipPath>
     <clipPath id="id14">
      <path d="M108.325 149.919c-5.5487,3.2334 -2.826,12.8788 -2.905,15.7167 -0.0791,2.8378 -2.826,9.1206 3.1026,10.4245 8.4026,1.8479 17.2088,1.8479 25.6114,0 5.9286,-1.3039 3.1817,-7.5867 3.1027,-10.4245 -0.0791,-2.8379 2.6436,-12.4833 -2.905,-15.7167 -6.4833,-3.7781 -19.5235,-3.7781 -26.0067,0z"/>
     </clipPath>
     <clipPath id="id15">
      <path d="M87.0137 97.1973c3.3347,3.8004 5.1612,-4.7226 15.0558,-2.1414 9.8946,2.5812 19.9039,2.5179 17.4357,-6.4775 -4.2179,-15.3726 -35.8262,4.8185 -32.4915,8.6189zm68.6296 0c-3.3347,3.8004 -5.1612,-4.7226 -15.0558,-2.1414 -9.8946,2.5812 -19.9039,2.5179 -17.4357,-6.4775 4.2179,-15.3726 35.8262,4.8185 32.4915,8.6189z"/>
     </clipPath>
     <clipPath id="id16">
      <path d="M121.328 83.3152c3.1623,0 5.7267,2.5644 5.7267,5.7267 0,3.1623 -2.5644,5.7267 -5.7267,5.7267 -3.1623,0 -5.7267,-2.5644 -5.7267,-5.7267 0,-3.1623 2.5644,-5.7267 5.7267,-5.7267z"/>
     </clipPath>
     <clipPath id="id17">
      <path d="M107.356 122.184c1.6523,0.4427 2.7683,1.6395 2.4915,2.6723 -0.2767,1.0329 -1.8416,1.5113 -3.4939,1.0686 -1.6523,-0.4427 -2.7683,-1.6395 -2.4915,-2.6723 0.2768,-1.0329 1.8416,-1.5113 3.4939,-1.0686z"/>
     </clipPath>
     <clipPath id="id18">
      <path d="M135.416 122.184c-1.6523,0.4427 -2.7682,1.6395 -2.4915,2.6723 0.2768,1.0329 1.8416,1.5113 3.4939,1.0686 1.6523,-0.4427 2.7683,-1.6395 2.4915,-2.6723 -0.2767,-1.0329 -1.8415,-1.5113 -3.4939,-1.0686z"/>
     </clipPath>
     <clipPath id="id19">
      <path d="M98.1551 112.67c-1.9494,6.7668 -2.3274,14.6901 -1.3857,21.7029 0,0 -2.436,-5.9426 -4.1045,-8.7327 -1.6684,-2.7901 -8.2749,-16.0991 3.6859,-28.3906 10.6487,-10.9431 39.3066,-10.9431 49.9553,0 11.9608,12.2915 5.3543,25.6005 3.6859,28.3906 -1.6685,2.7901 -4.1045,8.7327 -4.1045,8.7327 0,0 1.547,-11.5228 -1.3857,-21.7029 -4.5128,-15.6653 -41.8339,-15.6653 -46.3467,0z"/>
     </clipPath>
    <clipPath id="id20">
     <path d="M262.37 125.562c-1.7106,0 -3.0982,0.8671 -3.0982,1.9365 0,1.0693 1.3876,1.9364 3.0982,1.9364 1.7106,0 3.0983,-0.8671 3.0983,-1.9364 0,-1.0694 -1.3877,-1.9365 -3.0983,-1.9365z"/>
    </clipPath>
    <clipPath id="id21">
     <path d="M233.976 125.562c1.7106,0 3.0982,0.8671 3.0982,1.9365 0,1.0693 -1.3876,1.9364 -3.0982,1.9364 -1.7106,0 -3.0983,-0.8671 -3.0983,-1.9364 0,-1.0694 1.3877,-1.9365 3.0983,-1.9365z"/>
    </clipPath>
     <clipPath id="id22">
      <path d="M223.284 97.5905c0,7.9808 0,9.788 0,9.788l49.6463 0c0,0 0,-2.1313 0,-9.788 0,-8.3052 -17.1505,-14.1114 -24.8231,-13.2372 -7.6727,-0.8742 -24.8232,5.2563 -24.8232,13.2372z"/>
     </clipPath>
    <clipPath id="id23">
     <path d="M106.583 151.441c-2.9912,0.4362 -7.0418,1.9941 -10.3446,12.5257 -3.3028,10.5316 -2.6796,19.6299 -2.6796,19.6299l8.2881 0c0,0 1.5116,-15.0568 3.2565,-18.6088 1.7449,-3.5521 1.4796,-13.5468 1.4796,-13.5468z"/>
    </clipPath>
 </defs>
 <g id="Capa_x0020_1">
  <metadata id="CorelCorpID_0Corel-Layer"/>
  <path class="fil0 str0" d="M310.343 101.031c12.0503,0 21.8227,6.3272 21.8227,14.1292 0,7.8021 -9.7724,14.1293 -21.8227,14.1293 -5.935,0 -11.3167,-1.5354 -15.2508,-4.0254l-8.0449 4.01 4.0251 -7.4806c-1.628,-1.9781 -2.552,-4.2358 -2.552,-6.6333 0,-7.802 9.7724,-14.1292 21.8226,-14.1292z"/>
  <g id="_658934856">
   <g>
    <path id="_658935288" class="fil1 str1" d="M234.281 182.327c0,0 -1.3368,10.7265 -1.4818,14.546 -0.1451,3.8195 1.874,10.162 1.7002,12.4323 -0.1738,2.2704 -0.9839,5.155 1.5681,5.4977 2.5521,0.3427 5.7577,0.8091 7.4926,0.2789 1.7349,-0.5302 2.0271,-2.4231 1.0407,-3.972 -0.9864,-1.5488 -0.7597,-13.1706 -0.3775,-15.2777 0.3823,-2.107 2.1361,-12.5069 2.1361,-12.5069l-12.0784 -0.9983z"/>
    <path id="_658935216" class="fil1" d="M239.937 206.821c3.4273,0.2623 5.9439,3.9121 5.7278,6.7356 -0.2162,2.8235 -3.0833,3.7531 -6.5106,3.4907 -3.4274,-0.2624 -6.1195,-1.6175 -5.9033,-4.441 0.2161,-2.8235 3.2587,-6.0477 6.6861,-5.7853z"/>
    <g style="clip-path:url(#id0)">
     <g>
      <path id="_6373012641" class="fil2 str1" d="M239.937 205.121c3.4273,0.2623 5.9439,3.9121 5.7278,6.7356 -0.2162,2.8235 -3.0833,3.7531 -6.5106,3.4907 -3.4274,-0.2624 -6.1195,-1.6175 -5.9033,-4.441 0.2161,-2.8235 3.2587,-6.0477 6.6861,-5.7853z"/>
      <path id="_637301192" class="fil2 str1" d="M239.123 205.748c-1.8971,0.1312 -3.2901,1.9561 -3.1705,3.3678 0.1197,1.4118 1.7067,1.8766 3.6038,1.7454 1.8972,-0.1312 3.3873,-0.8087 3.2677,-2.2205 -0.1197,-1.4118 -1.8038,-3.0239 -3.701,-2.8927z"/>
     </g>
    </g>
    <path class="fil3 str1" d="M239.937 206.821c3.4273,0.2623 5.9439,3.9121 5.7278,6.7356 -0.2162,2.8235 -3.0833,3.7531 -6.5106,3.4907 -3.4274,-0.2624 -6.1195,-1.6175 -5.9033,-4.441 0.2161,-2.8235 3.2587,-6.0477 6.6861,-5.7853z"/>
   </g>
   <g>
    <path id="_658935120" class="fil1 str1" d="M262.322 182.327c0,0 1.3368,10.7265 1.4818,14.546 0.1451,3.8195 -1.874,10.162 -1.7002,12.4323 0.1738,2.2704 0.9839,5.155 -1.5681,5.4977 -2.5521,0.3427 -5.7577,0.8091 -7.4926,0.2789 -1.7349,-0.5302 -2.0271,-2.4231 -1.0407,-3.972 0.9864,-1.5488 0.7597,-13.1706 0.3775,-15.2777 -0.3823,-2.107 -2.1361,-12.5069 -2.1361,-12.5069l12.0784 -0.9983z"/>
    <path id="_658935048" class="fil1" d="M256.666 206.821c-3.4273,0.2623 -5.9439,3.9121 -5.7278,6.7356 0.2162,2.8235 3.0833,3.7531 6.5106,3.4907 3.4274,-0.2624 6.1195,-1.6175 5.9033,-4.441 -0.2161,-2.8235 -3.2587,-6.0477 -6.6861,-5.7853z"/>
    <g style="clip-path:url(#id1)">
     <g>
      <path id="_6373038561" class="fil2 str1" d="M256.666 205.121c-3.4273,0.2623 -5.9439,3.9121 -5.7278,6.7356 0.2162,2.8235 3.0833,3.7531 6.5106,3.4907 3.4274,-0.2624 6.1195,-1.6175 5.9033,-4.441 -0.2161,-2.8235 -3.2587,-6.0477 -6.6861,-5.7853z"/>
      <path id="_637303784" class="fil2 str1" d="M257.48 205.748c1.8971,0.1312 3.2901,1.9561 3.1705,3.3678 -0.1197,1.4118 -1.7067,1.8766 -3.6038,1.7454 -1.8972,-0.1312 -3.3873,-0.8087 -3.2677,-2.2205 0.1197,-1.4118 1.8038,-3.0239 3.701,-2.8927z"/>
     </g>
    </g>
    <path class="fil3 str1" d="M256.666 206.821c-3.4273,0.2623 -5.9439,3.9121 -5.7278,6.7356 0.2162,2.8235 3.0833,3.7531 6.5106,3.4907 3.4274,-0.2624 6.1195,-1.6175 5.9033,-4.441 -0.2161,-2.8235 -3.2587,-6.0477 -6.6861,-5.7853z"/>
   </g>
   <path id="_658934952" class="fil4" d="M248.102 187.844c-0.0596,1.2457 -3.7696,18.4368 -3.7696,18.4368 0,0 -2.4096,1.8423 -11.4121,-0.57 -3.1711,-9.5366 -0.9073,-32.747 -0.7276,-33.3156l15.1762 -0.0347 0.6977 -0.0016 0.6977 -0.0016 15.1762 -0.0347c0.1823,0.5677 2.5523,23.7675 -0.5751,33.3185 -8.9914,2.4535 -11.4093,0.6223 -11.4093,0.6223 0,0 -3.7887,-17.174 -3.8541,-18.4194z"/>
   <g style="clip-path:url(#id2)">
    <g>
     <path id="_6383427601" class="fil1" d="M244.423 176.175c0,0 -0.6112,4.4901 0.3632,7.8025 0.9743,3.3125 3.3203,5.6709 3.3203,5.6709l-0.024 -13.6889 -3.6595 0.2155z"/>
    </g>
   </g>
   <path class="fil3 str1" d="M248.102 187.844c-0.0596,1.2457 -3.7696,18.4368 -3.7696,18.4368 0,0 -2.4096,1.8423 -11.4121,-0.57 -3.1711,-9.5366 -0.9073,-32.747 -0.7276,-33.3156l15.1762 -0.0347 0.6977 -0.0016 0.6977 -0.0016 15.1762 -0.0347c0.1823,0.5677 2.5523,23.7675 -0.5751,33.3185 -8.9914,2.4535 -11.4093,0.6223 -11.4093,0.6223 0,0 -3.7887,-17.174 -3.8541,-18.4194z"/>
   <path id="_658934880" class="fil1" d="M238.54 178.031c0,0 -1.634,13.1741 -1.529,17.5006 0.105,4.3265 0.2578,8.748 0.2578,8.748 0,0 1.3413,-16.4067 1.2712,-26.2486zm19.0799 -0.0437c0,0 1.6942,13.1665 1.609,17.4935 -0.0851,4.3269 -0.2177,8.749 -0.2177,8.749 0,0 -1.4163,-16.4003 -1.3913,-26.2425z"/>
  </g>
  <path class="fil5" d="M235.412 152.575c-5.4172,3.1568 -2.759,12.5736 -2.8362,15.3442 -0.0772,2.7705 -2.759,8.9045 3.0291,10.1774 4.1018,0.902 8.302,1.3532 12.5022,1.3532 4.2002,0 8.4006,-0.4512 12.5022,-1.3532 5.7881,-1.2728 3.1063,-7.4069 3.0291,-10.1774 -0.0772,-2.7706 2.581,-12.1874 -2.8361,-15.3442 -6.3296,-3.6885 -19.0608,-3.6885 -25.3903,0z"/>
  <g style="clip-path:url(#id3)">
   <g id="_590422568">
    <g>
     <g>
      <path id="_5904363201" class="fil6" d="M239.97 144.442c0,0 -2.6555,9.7164 -3.4621,20.0099 -0.8064,10.2932 -0.0658,18.5437 -0.0658,18.5437 0,0 1.5355,-13.2958 3.5279,-38.5536z"/>
      <path id="_590421344" class="fil6" d="M245.597 147.615c0,0 -2.0275,11.3186 -2.2094,21.9502 -0.1817,10.6309 1.0316,18.2134 1.0316,18.2134 0,0 0.7185,-14.067 1.1778,-40.1636z"/>
      <path id="_590422088" class="fil6" d="M250.617 147.615c0,0 2.0274,11.3191 2.2093,21.9502 0.1819,10.6309 -1.0316,18.2134 -1.0316,18.2134 0,0 -0.7185,-14.0675 -1.1777,-40.1636z"/>
      <path id="_590417024" class="fil6" d="M256.243 144.442c0,0 2.6554,9.7164 3.462,20.0097 0.8065,10.2929 0.0658,18.5439 0.0658,18.5439 0,0 -1.5355,-13.2961 -3.5278,-38.5536z"/>
      <path id="_590421920" class="fil6" d="M260.8 141.48c0,0 2.911,8.8384 3.9969,18.8328 1.0859,9.9947 0.5754,18.4427 0.5754,18.4427 0,0 -1.8942,-12.7547 -4.5723,-37.2755z"/>
      <path id="_590425328" class="fil6" d="M235.413 141.48c0,0 -2.9109,8.8384 -3.9969,18.8328 -1.0859,9.9947 -0.5753,18.4427 -0.5753,18.4427 0,0 1.8942,-12.7547 4.5722,-37.2755z"/>
     </g>
     <g>
      <path id="_590423984" class="fil6" d="M221.941 173.267c0,0 14.7474,2.2824 28.5997,2.4872 13.8514,0.2045 23.7309,-1.1614 23.7309,-1.1614 0,0 -18.3284,-0.8088 -52.3306,-1.3258z"/>
      <path id="_590425304" class="fil6" d="M221.941 166.821c0,0 14.7474,2.2824 28.5997,2.4872 13.8514,0.2045 23.7309,-1.1614 23.7309,-1.1614 0,0 -18.3284,-0.8088 -52.3306,-1.3258z"/>
      <path id="_590426000" class="fil6" d="M221.941 159.449c0,0 14.7474,2.2824 28.5997,2.4872 13.8514,0.2045 23.7309,-1.1614 23.7309,-1.1614 0,0 -18.3284,-0.8088 -52.3306,-1.3258z"/>
      <path id="_590417216" class="fil6" d="M221.941 153.484c0,0 14.7474,2.2824 28.5997,2.4872 13.8514,0.2045 23.7309,-1.1614 23.7309,-1.1614 0,0 -18.3284,-0.8088 -52.3306,-1.3258z"/>
     </g>
    </g>
   </g>
  </g>
  <path class="fil3 str2" d="M235.412 152.575c-5.4172,3.1568 -2.759,12.5736 -2.8362,15.3442 -0.0772,2.7705 -2.759,8.9045 3.0291,10.1774 4.1018,0.902 8.302,1.3532 12.5022,1.3532 4.2002,0 8.4006,-0.4512 12.5022,-1.3532 5.7881,-1.2728 3.1063,-7.4069 3.0291,-10.1774 -0.0772,-2.7706 2.581,-12.1874 -2.8361,-15.3442 -6.3296,-3.6885 -19.0608,-3.6885 -25.3903,0z"/>
  <g id="_658934424">
   <g>
    <path id="_658934712" class="fil7 str3" d="M229.021 186.054c0.2649,1.9747 2.1689,4.5389 1.8828,5.028 -0.2862,0.4891 -0.6328,0.5989 -2.7992,-0.6572 -1.0723,1.5706 1.2401,4.7598 -0.2756,5.2858 -0.9786,0.3395 -1.7885,-2.3954 -1.9859,-3.2469 -1.548,0.7783 0.5369,4.1577 -1.1818,4.2774 -1.0669,0.0736 -1.1651,-3.2071 -1.0827,-4.1321 -1.6212,-0.1427 -0.3084,3.1184 -1.8406,2.9448 -1.0205,-0.1158 -0.5695,-2.9939 -0.4138,-3.8275 -0.9365,-0.7018 -0.8148,1.7632 -1.7091,1.47 -0.7301,-0.2393 -0.7032,-0.855 0.0685,-2.8803 0.4297,-1.127 0.5734,-2.8396 1.0906,-4.4095l0.0085 0.1475 8.2383 0z"/>
    <path id="_658934640" class="fil5" d="M233.807 153.898c-2.9912,0.4362 -7.0418,1.9941 -10.3446,12.5257 -3.3028,10.5316 -2.6796,19.6299 -2.6796,19.6299l8.2881 0c0,0 1.5116,-15.0568 3.2565,-18.6088 1.7449,-3.5521 1.4796,-13.5468 1.4796,-13.5468z"/>
    <g style="clip-path:url(#id4)">
     <g>
      <rect id="_639072584" class="fil6" x="219.122" y="182.812" width="11.6092" height="3.24143"/>
      <g>
       <g>
        <path id="_639072512" class="fil6" d="M219.142 149.788c0,0 -2.6555,9.7164 -3.4621,20.0099 -0.8064,10.2932 -0.0658,18.5437 -0.0658,18.5437 0,0 1.5355,-13.2958 3.5279,-38.5536z"/>
        <path id="_639072440" class="fil6" d="M224.768 152.962c0,0 -2.0275,11.3186 -2.2094,21.9502 -0.1817,10.6309 1.0316,18.2134 1.0316,18.2134 0,0 0.7185,-14.067 1.1778,-40.1636z"/>
        <path id="_639072368" class="fil6" d="M229.788 152.962c0,0 2.0274,11.3191 2.2093,21.9502 0.1819,10.6309 -1.0316,18.2134 -1.0316,18.2134 0,0 -0.7185,-14.0675 -1.1777,-40.1636z"/>
        <path id="_639072296" class="fil6" d="M235.415 149.788c0,0 2.6554,9.7164 3.462,20.0097 0.8065,10.2929 0.0658,18.5439 0.0658,18.5439 0,0 -1.5355,-13.2961 -3.5278,-38.5536z"/>
        <path id="_639072224" class="fil6" d="M239.972 146.827c0,0 2.911,8.8384 3.9969,18.8328 1.0859,9.9947 0.5754,18.4427 0.5754,18.4427 0,0 -1.8942,-12.7547 -4.5723,-37.2755z"/>
        <path id="_639072152" class="fil6" d="M214.585 146.827c0,0 -2.9109,8.8384 -3.9969,18.8328 -1.0859,9.9947 -0.5753,18.4427 -0.5753,18.4427 0,0 1.8942,-12.7547 4.5722,-37.2755z"/>
       </g>
       <g>
        <path id="_639072056" class="fil6" d="M201.113 178.614c0,0 14.7474,2.2824 28.5997,2.4872 13.8514,0.2045 23.7309,-1.1614 23.7309,-1.1614 0,0 -18.3284,-0.8088 -52.3306,-1.3258z"/>
        <path id="_639071984" class="fil6" d="M201.113 172.167c0,0 14.7474,2.2824 28.5997,2.4872 13.8514,0.2045 23.7309,-1.1614 23.7309,-1.1614 0,0 -18.3284,-0.8088 -52.3306,-1.3258z"/>
        <path id="_639071912" class="fil6" d="M201.113 164.796c0,0 14.7474,2.2824 28.5997,2.4872 13.8514,0.2045 23.7309,-1.1614 23.7309,-1.1614 0,0 -18.3284,-0.8088 -52.3306,-1.3258z"/>
        <path id="_639071840" class="fil6" d="M201.113 158.831c0,0 14.7474,2.2824 28.5997,2.4872 13.8514,0.2045 23.7309,-1.1614 23.7309,-1.1614 0,0 -18.3284,-0.8088 -52.3306,-1.3258z"/>
       </g>
      </g>
     </g>
    </g>
    <path class="fil3 str2" d="M233.807 153.898c-2.9912,0.4362 -7.0418,1.9941 -10.3446,12.5257 -3.3028,10.5316 -2.6796,19.6299 -2.6796,19.6299l8.2881 0c0,0 1.5116,-15.0568 3.2565,-18.6088 1.7449,-3.5521 1.4796,-13.5468 1.4796,-13.5468z"/>
   </g>
   <g>
    <path id="_658934544" class="fil7 str3" d="M257.722 168.838c-1.5776,-1.2168 -2.8463,-4.1478 -3.413,-4.1445 -0.5667,0.0032 -0.835,0.2485 -0.8304,2.7527 -1.8963,0.1434 -3.502,-3.4538 -4.7154,-2.4042 -0.7834,0.6777 1.1802,2.7466 1.8189,3.3433 -1.448,0.9514 -3.3322,-2.5438 -4.2952,-1.1153 -0.5972,0.8872 2.1949,2.6126 3.0372,3.0037 -0.687,1.4754 -2.8548,-1.2921 -3.4707,0.1216 -0.4099,0.9418 2.3081,1.9902 3.1079,2.2722 0.1395,1.1619 -1.9344,-0.176 -2.1277,0.7451 -0.1577,0.7519 0.3889,1.0365 2.5287,1.3808 1.1909,0.1914 2.7459,0.9233 4.3641,1.2603l-0.1235 -0.0811 4.1191 -7.1346z"/>
    <path id="_658934472" class="fil5" d="M262.253 154.151c2.1649,-1.2499 7.042,1.9943 10.3446,12.5257 1.5586,4.9702 1.0823,12.1984 -3.5607,13.3557 -6.6189,1.6498 -15.3107,-3.979 -15.3107,-3.979l3.9957 -7.2157c5.5791,3.3133 7.4065,2.0341 6.0107,-1.1399 -1.5926,-3.6223 -3.6446,-12.297 -1.4796,-13.5468z"/>
    <g style="clip-path:url(#id5)">
     <g>
      <rect id="_639671864" class="fil6" transform="matrix(0.51321 -0.888905 0.888905 0.51321 252.821 177.472)" width="11.3104" height="3.158"/>
      <g>
       <g>
        <path id="_639671792" class="fil6" d="M248.165 154.452c0,0 10.0727,-0.0503 20.2241,1.8347 10.1512,1.8852 17.9289,4.7359 17.9289,4.7359 0,0 -13.2402,-1.958 -38.153,-6.5706z"/>
        <path id="_639671720" class="fil6" d="M249.774 160.708c0,0 11.4576,0.9711 21.7741,3.547 10.3157,2.576 17.3258,5.7105 17.3258,5.7105 0,0 -13.7737,-2.9468 -39.0999,-9.2575z"/>
        <path id="_639671648" class="fil6" d="M248.475 165.557c0,0 10.4087,4.8879 20.6305,7.8151 10.2216,2.9272 17.8598,3.7175 17.8598,3.7175 0,0 -13.4022,-4.3349 -38.4903,-11.5326z"/>
        <path id="_639671576" class="fil6" d="M243.954 170.17c0,0 8.698,5.0798 18.4318,8.5229 9.7335,3.4431 17.895,4.8631 17.895,4.8631 0,0 -12.4456,-4.9244 -36.3268,-13.386z"/>
        <path id="_639671504" class="fil6" d="M239.913 173.806c0,0 7.7838,5.0993 17.1567,8.7349 9.3731,3.6358 17.6653,5.3291 17.6653,5.3291 0,0 -11.8298,-5.1308 -34.822,-14.064z"/>
        <path id="_639671432" class="fil6" d="M246.484 149.284c0,0 9.2906,-0.5242 19.2255,1.0135 9.9352,1.5379 17.9632,4.2177 17.9632,4.2177 0,0 -12.8104,-1.4716 -37.1887,-5.2312z"/>
       </g>
       <g>
        <path id="_639671336" class="fil6" d="M280.675 144.498c0,0 -1.6122,14.8356 -4.9997,28.2689 -3.3874,13.4324 -7.2638,22.6217 -7.2638,22.6217 0,0 3.9625,-17.9132 12.2635,-50.8906z"/>
        <path id="_639671264" class="fil6" d="M274.448 142.83c0,0 -1.6123,14.8356 -4.9997,28.2689 -3.3875,13.4323 -7.2638,22.6217 -7.2638,22.6217 0,0 3.9624,-17.9132 12.2635,-50.8906z"/>
        <path id="_639671192" class="fil6" d="M267.328 140.922c0,0 -1.6122,14.8356 -4.9997,28.2689 -3.3874,13.4323 -7.2637,22.6216 -7.2637,22.6216 0,0 3.9624,-17.9131 12.2634,-50.8905z"/>
        <path id="_639671120" class="fil6" d="M261.565 139.378c0,0 -1.6122,14.8356 -4.9997,28.2689 -3.3874,13.4324 -7.2638,22.6217 -7.2638,22.6217 0,0 3.9625,-17.9132 12.2635,-50.8906z"/>
       </g>
      </g>
     </g>
    </g>
    <path class="fil3 str2" d="M262.253 154.151c2.1649,-1.2499 7.042,1.9943 10.3446,12.5257 1.5586,4.9702 1.0823,12.1984 -3.5607,13.3557 -6.6189,1.6498 -15.3107,-3.979 -15.3107,-3.979l3.9957 -7.2157c5.5791,3.3133 7.4065,2.0341 6.0107,-1.1399 -1.5926,-3.6223 -3.6446,-12.297 -1.4796,-13.5468z"/>
   </g>
  </g>
  <path class="fil7 str3" d="M241.749 146.185l12.7151 0 0 5.5158c0,1.6001 -2.8469,2.898 -6.3575,2.898 -3.5105,0 -6.3576,-1.2979 -6.3576,-2.898l0 -5.5158z"/>
  <path class="fil8" d="M303.892 118.348c0,0.1778 -0.1185,0.3238 -0.3556,0.4381 -0.2371,0.1143 -0.5588,0.1715 -0.9652,0.1715 -1.0583,0 -1.9685,-0.3133 -2.7305,-0.9398 -0.8636,-0.7112 -1.2954,-1.6764 -1.2954,-2.8956 0,-1.0075 0.4572,-2.032 1.3716,-3.0734 0.8721,-0.9906 1.6679,-1.4859 2.3876,-1.4859 0.1778,0 0.309,0.0423 0.3937,0.127 0.0847,0.0847 0.127,0.1778 0.127,0.2794 -0.8213,0.6265 -1.5409,1.2785 -2.159,1.9558 -0.6773,0.7451 -1.016,1.5706 -1.016,2.4765 0,0.762 0.3641,1.3335 1.0922,1.7145 0.3387,0.1778 1.0202,0.3852 2.0447,0.6223 0.7366,0.1693 1.1049,0.3725 1.1049,0.6096z"/>
  <path id="1" class="fil8" d="M308.527 118.78c0,0.3556 -0.0233,0.6371 -0.0698,0.8445 -0.0466,0.2075 -0.1249,0.3112 -0.235,0.3112 -0.3979,0 -0.6477,-0.326 -0.7493,-0.9779 -0.0593,-0.3725 -0.0889,-1.2446 -0.0889,-2.6162l-2.0701 0.381 0 1.7145c0,0.127 0,0.2201 0,0.2794 0,0.4657 -0.0296,0.7916 -0.0868,0.9779 -0.0995,0.3133 -0.2942,0.4699 -0.5842,0.4699 -0.1651,0 -0.2794,-0.1503 -0.3408,-0.4508 -0.0613,-0.3006 -0.0931,-0.7303 -0.0931,-1.2891l0 -4.2164c0,-0.9398 0.0339,-1.6468 0.0995,-2.1209 0.0677,-0.4741 0.2011,-0.7112 0.4022,-0.7112 0.2264,0 0.3831,0.2328 0.472,0.6985 0.0868,0.4657 0.1312,1.1705 0.1312,2.1188l0 1.3335 2.0701 -0.2519c0,-0.6689 -0.0021,-1.1832 -0.0063,-1.5431 -0.0043,-0.3598 -0.0149,-0.709 -0.0318,-1.0477 0,-0.8297 0.0381,-1.4584 0.1143,-1.886 0.0762,-0.4275 0.2286,-0.6413 0.4572,-0.6413 0.1947,0 0.3323,0.254 0.4128,0.762 0.0804,0.508 0.1206,1.215 0.1206,2.1209l0.0762 5.7404z"/>
  <path id="12" class="fil8" d="M314.318 118.602c0,0.3302 -0.0317,0.5842 -0.0952,0.762 -0.0635,0.1778 -0.18,0.2667 -0.3493,0.2667 -0.2371,0 -0.453,-0.3598 -0.6477,-1.0795 -0.1101,-0.4657 -0.2159,-0.9356 -0.3175,-1.4097l-2.159 0c-0.1185,0.4572 -0.2371,0.9144 -0.3556,1.3716 -0.1609,0.5503 -0.3937,0.8255 -0.6985,0.8255 -0.1778,0 -0.2836,-0.0254 -0.3175,-0.0762 -0.0677,-0.1016 -0.1016,-0.2752 -0.1016,-0.5207 0,-0.2032 0.0148,-0.4339 0.0445,-0.6922 0.0296,-0.2582 0.1037,-0.6117 0.2222,-1.0604 0.1185,-0.4487 0.2371,-0.8911 0.3556,-1.3272 0.1185,-0.436 0.3471,-1.2551 0.6858,-2.4574 0.254,-0.8975 0.4022,-1.3716 0.4445,-1.4224 0.2371,-0.8297 0.5884,-1.2446 1.0541,-1.2446 0.2286,0 0.4614,0.182 0.6985,0.5461 0.2371,0.3641 0.4064,0.8255 0.508,1.3843 0.0339,0.0593 0.1164,0.4381 0.2477,1.1366 0.1312,0.6985 0.2518,1.3526 0.3619,1.9622 0.0593,0.3471 0.1185,0.6858 0.1778,1.016 0.0593,0.3302 0.1143,0.7112 0.1651,1.143 0.0508,0.4318 0.0762,0.7239 0.0762,0.8763zm-1.5621 -2.5527l-0.6604 -4.1021 -1.1303 4.1021 1.7907 0z"/>
  <path id="123" class="fil8" d="M320.668 115.173c0,1.1176 -0.2709,2.0786 -0.8128,2.8829 -0.5673,0.8382 -1.27,1.2573 -2.1082,1.2573 -0.7959,0 -1.4393,-0.2836 -1.9304,-0.8509 -0.6096,-0.7027 -0.9144,-1.778 -0.9144,-3.2258 0,-1.0075 0.182,-2.0511 0.5461,-3.1306 0.3641,-1.0795 0.7366,-1.6192 1.1176,-1.6192 0.3302,0 0.4953,0.2074 0.4953,0.6223 0,0.2286 -0.1778,0.8721 -0.5334,1.9304 -0.3556,1.0583 -0.5334,1.7992 -0.5334,2.2225 0,1.0668 0.1778,1.8288 0.5334,2.286 0.2879,0.3725 0.7027,0.5588 1.2446,0.5588 0.5673,0 1.0033,-0.3175 1.3081,-0.9525 0.2709,-0.5588 0.4064,-1.2785 0.4064,-2.159 0,-0.254 -0.0614,-0.8488 -0.1841,-1.7844 -0.1228,-0.9355 -0.1842,-1.488 -0.1842,-1.6573 0,-0.6519 0.182,-1.0033 0.5461,-1.0541 0.3048,-0.0339 0.5546,0.4572 0.7493,1.4732 0.1693,0.8975 0.254,1.9643 0.254,3.2004z"/>
  <g id="_658934064">
   <path id="_658934160" class="fil5" d="M93.3084 140.172c-0.982,8.9153 2.9286,18.0451 15.4447,18.0451 12.5161,0 12.5162,-4.2472 12.5162,-4.2472l-0.0001 -25.8382 -27.9608 -3.453c0,0 0.982,6.578 0,15.4933z"/>
   <g style="clip-path:url(#id6)">
    <g>
     <g>
      <g>
       <path id="_6394910081" class="fil6" d="M108.544 109.726c0,0 -4.1728,15.2677 -5.4402,31.4422 -1.2671,16.1742 -0.1034,29.1384 -0.1034,29.1384 0,0 2.4127,-20.8922 5.5436,-60.5806z"/>
       <path id="_639490936" class="fil6" d="M117.384 114.712c0,0 -3.1859,17.7852 -3.4717,34.4911 -0.2854,16.7048 1.621,28.6194 1.621,28.6194 0,0 1.129,-22.104 1.8507,-63.1105z"/>
       <path id="_639490864" class="fil6" d="M125.273 114.712c0,0 3.1857,17.786 3.4715,34.4911 0.2858,16.7048 -1.621,28.6194 -1.621,28.6194 0,0 -1.129,-22.1047 -1.8505,-63.1105z"/>
       <path id="_639490792" class="fil6" d="M134.113 109.726c0,0 4.1726,15.2677 5.44,31.4418 1.2674,16.1738 0.1034,29.1388 0.1034,29.1388 0,0 -2.4127,-20.8926 -5.5434,-60.5806z"/>
       <path id="_639490720" class="fil6" d="M141.274 105.072c0,0 4.5741,13.888 6.2804,29.5927 1.7063,15.7051 0.9041,28.9797 0.9041,28.9797 0,0 -2.9764,-20.042 -7.1845,-58.5724z"/>
       <path id="_639490648" class="fil6" d="M101.383 105.072c0,0 -4.5741,13.888 -6.2806,29.5927 -1.7063,15.7051 -0.9039,28.9797 -0.9039,28.9797 0,0 2.9763,-20.042 7.1845,-58.5724z"/>
      </g>
      <g>
       <path id="_639490552" class="fil6" d="M80.214 155.02c0,0 23.1731,3.5865 44.9398,3.9082 21.7652,0.3214 37.2892,-1.8248 37.2892,-1.8248 0,0 -28.8001,-1.271 -82.229,-2.0834z"/>
       <path id="_639490480" class="fil6" d="M80.214 144.891c0,0 23.1731,3.5865 44.9398,3.9082 21.7652,0.3214 37.2892,-1.8248 37.2892,-1.8248 0,0 -28.8001,-1.271 -82.229,-2.0834z"/>
       <path id="_639490408" class="fil6" d="M80.214 133.308c0,0 23.1731,3.5865 44.9398,3.9082 21.7652,0.3214 37.2892,-1.8248 37.2892,-1.8248 0,0 -28.8001,-1.271 -82.229,-2.0834z"/>
       <path id="_639490336" class="fil6" d="M80.214 123.934c0,0 23.1731,3.5864 44.9398,3.9082 21.7652,0.3213 37.2892,-1.8249 37.2892,-1.8249 0,0 -28.8001,-1.271 -82.229,-2.0833z"/>
      </g>
     </g>
    </g>
   </g>
   <path class="fil3 str4" d="M93.3084 140.172c-0.982,8.9153 2.9286,18.0451 15.4447,18.0451 12.5161,0 12.5162,-4.2472 12.5162,-4.2472l-0.0001 -25.8382 -27.9608 -3.453c0,0 0.982,6.578 0,15.4933z"/>
   <path id="_658934088" class="fil5" d="M149.349 140.172c0.982,8.9153 -2.9286,18.0451 -15.4447,18.0451 -12.5161,0 -12.5162,-4.2472 -12.5162,-4.2472l0.0001 -25.8382 27.9608 -3.453c0,0 -0.982,6.578 0,15.4933z"/>
   <g style="clip-path:url(#id7)">
    <g>
     <g>
      <g>
       <path id="_6394910081" class="fil6" d="M108.544 109.726c0,0 -4.1728,15.2677 -5.4402,31.4422 -1.2671,16.1742 -0.1034,29.1384 -0.1034,29.1384 0,0 2.4127,-20.8922 5.5436,-60.5806z"/>
       <path id="_639490936" class="fil6" d="M117.384 114.712c0,0 -3.1859,17.7852 -3.4717,34.4911 -0.2854,16.7048 1.621,28.6194 1.621,28.6194 0,0 1.129,-22.104 1.8507,-63.1105z"/>
       <path id="_639490864" class="fil6" d="M125.273 114.712c0,0 3.1857,17.786 3.4715,34.4911 0.2858,16.7048 -1.621,28.6194 -1.621,28.6194 0,0 -1.129,-22.1047 -1.8505,-63.1105z"/>
       <path id="_639490792" class="fil6" d="M134.113 109.726c0,0 4.1726,15.2677 5.44,31.4418 1.2674,16.1738 0.1034,29.1388 0.1034,29.1388 0,0 -2.4127,-20.8926 -5.5434,-60.5806z"/>
       <path id="_639490720" class="fil6" d="M141.274 105.072c0,0 4.5741,13.888 6.2804,29.5927 1.7063,15.7051 0.9041,28.9797 0.9041,28.9797 0,0 -2.9764,-20.042 -7.1845,-58.5724z"/>
       <path id="_639490648" class="fil6" d="M101.383 105.072c0,0 -4.5741,13.888 -6.2806,29.5927 -1.7063,15.7051 -0.9039,28.9797 -0.9039,28.9797 0,0 2.9763,-20.042 7.1845,-58.5724z"/>
      </g>
      <g>
       <path id="_639490552" class="fil6" d="M80.214 155.02c0,0 23.1731,3.5865 44.9398,3.9082 21.7652,0.3214 37.2892,-1.8248 37.2892,-1.8248 0,0 -28.8001,-1.271 -82.229,-2.0834z"/>
       <path id="_639490480" class="fil6" d="M80.214 144.891c0,0 23.1731,3.5865 44.9398,3.9082 21.7652,0.3214 37.2892,-1.8248 37.2892,-1.8248 0,0 -28.8001,-1.271 -82.229,-2.0834z"/>
       <path id="_639490408" class="fil6" d="M80.214 133.308c0,0 23.1731,3.5865 44.9398,3.9082 21.7652,0.3214 37.2892,-1.8248 37.2892,-1.8248 0,0 -28.8001,-1.271 -82.229,-2.0834z"/>
       <path id="_639490336" class="fil6" d="M80.214 123.934c0,0 23.1731,3.5864 44.9398,3.9082 21.7652,0.3213 37.2892,-1.8249 37.2892,-1.8249 0,0 -28.8001,-1.271 -82.229,-2.0833z"/>
      </g>
     </g>
    </g>
   </g>
   <path class="fil3 str4" d="M149.349 140.172c0.982,8.9153 -2.9286,18.0451 -15.4447,18.0451 -12.5161,0 -12.5162,-4.2472 -12.5162,-4.2472l0.0001 -25.8382 27.9608 -3.453c0,0 -0.982,6.578 0,15.4933z"/>
  </g>
  <g id="_658933824">
   <path id="_658933992" class="fil7 str3" d="M157.548 172.86c1.8898,0.6309 5.0303,0.0492 5.3436,0.5214 0.3133,0.4722 0.2594,0.8317 -1.8217,2.2246 0.9386,1.6539 4.8199,0.9804 4.6255,2.573 -0.1256,1.0281 -2.938,0.5522 -3.7895,0.3548 0.0179,1.7326 3.9699,1.3471 3.3212,2.9432 -0.4032,0.9905 -3.3926,-0.3647 -4.187,-0.8457 -0.8415,1.3931 2.6647,1.6489 1.8347,2.9485 -0.553,0.8655 -2.9391,-0.8058 -3.6193,-1.3123 -1.0422,0.5322 1.225,1.5074 0.5682,2.1815 -0.5361,0.5503 -1.0772,0.2554 -2.5564,-1.3287 -0.823,-0.8817 -2.2978,-1.7642 -3.48,-2.9194l0.1362 0.0573 3.6245 -7.3982z"/>
   <path id="_658933920" class="fil5" d="M135.785 152.073c-2.8558,1.1735 -3.1265,6.6173 2.6383,16.0296 5.7648,9.4122 15.4997,12.1554 15.4997,12.1554l3.6245 -7.3981c0,0 -7.9438,-4.0807 -10.6936,-8.2371 -2.7499,-4.1563 -8.2131,-13.7232 -11.0689,-12.5498z"/>
   <g style="clip-path:url(#id8)">
    <g>
     <rect id="_638335344" class="fil6" transform="matrix(0.451583 -0.921742 0.921742 0.451583 150.492 179.893)" width="11.3104" height="3.158"/>
     <g>
      <g>
       <path id="_638335272" class="fil6" d="M153.815 145.929c0,0 2.6555,9.7164 3.4621,20.0099 0.8064,10.2932 0.0658,18.5437 0.0658,18.5437 0,0 -1.5355,-13.2958 -3.5279,-38.5536z"/>
       <path id="_638335200" class="fil6" d="M148.189 149.102c0,0 2.0275,11.3186 2.2094,21.9502 0.1817,10.6309 -1.0316,18.2134 -1.0316,18.2134 0,0 -0.7185,-14.067 -1.1778,-40.1636z"/>
       <path id="_638335128" class="fil6" d="M143.169 149.102c0,0 -2.0274,11.3191 -2.2093,21.9502 -0.1819,10.6309 1.0316,18.2134 1.0316,18.2134 0,0 0.7185,-14.0675 1.1777,-40.1636z"/>
       <path id="_638335056" class="fil6" d="M137.543 145.929c0,0 -2.6554,9.7164 -3.462,20.0097 -0.8065,10.2929 -0.0658,18.5439 -0.0658,18.5439 0,0 1.5355,-13.2961 3.5278,-38.5536z"/>
       <path id="_638334984" class="fil6" d="M132.986 142.967c0,0 -2.911,8.8384 -3.9969,18.8328 -1.0859,9.9947 -0.5754,18.4427 -0.5754,18.4427 0,0 1.8942,-12.7547 4.5723,-37.2755z"/>
       <path id="_638334912" class="fil6" d="M158.372 142.967c0,0 2.9109,8.8384 3.9969,18.8328 1.0859,9.9947 0.5753,18.4427 0.5753,18.4427 0,0 -1.8942,-12.7547 -4.5722,-37.2755z"/>
      </g>
      <g>
       <path id="_638334816" class="fil6" d="M171.844 174.754c0,0 -14.7474,2.2824 -28.5997,2.4872 -13.8514,0.2045 -23.7309,-1.1614 -23.7309,-1.1614 0,0 18.3284,-0.8088 52.3306,-1.3258z"/>
       <path id="_638334744" class="fil6" d="M171.844 168.308c0,0 -14.7474,2.2824 -28.5997,2.4872 -13.8514,0.2045 -23.7309,-1.1614 -23.7309,-1.1614 0,0 18.3284,-0.8088 52.3306,-1.3258z"/>
       <path id="_638334672" class="fil6" d="M171.844 160.937c0,0 -14.7474,2.2824 -28.5997,2.4872 -13.8514,0.2045 -23.7309,-1.1614 -23.7309,-1.1614 0,0 18.3284,-0.8088 52.3306,-1.3258z"/>
       <path id="_638334600" class="fil6" d="M171.844 154.971c0,0 -14.7474,2.2824 -28.5997,2.4872 -13.8514,0.2045 -23.7309,-1.1614 -23.7309,-1.1614 0,0 18.3284,-0.8088 52.3306,-1.3258z"/>
      </g>
     </g>
    </g>
   </g>
   <path class="fil3 str2" d="M135.785 152.073c-2.8558,1.1735 -3.1265,6.6173 2.6383,16.0296 5.7648,9.4122 15.4997,12.1554 15.4997,12.1554l3.6245 -7.3981c0,0 -7.9438,-4.0807 -10.6936,-8.2371 -2.7499,-4.1563 -8.2131,-13.7232 -11.0689,-12.5498z"/>
   <path id="_658933848" class="fil3 str3" d="M156.491 177.87c0,0 1.9403,0.7546 2.586,-1.655"/>
  </g>
  <g id="_658933224">
   <g>
    <g>
     <path id="_658933752" class="fil1 str5" d="M130.183 206.231c-3.5599,0.2725 -6.1738,4.0634 -5.9493,6.9961 0.2245,2.9328 3.2025,3.8983 6.7624,3.6257 3.56,-0.2725 6.3561,-1.68 6.1316,-4.6127 -0.2245,-2.9328 -3.3848,-6.2817 -6.9447,-6.0091z"/>
     <path id="_658933680" class="fil7 str6" d="M136.058 180.789c0,0 1.3885,11.1414 1.5391,15.1086 0.1507,3.9673 -1.9465,10.5551 -1.766,12.9132 0.1805,2.3582 1.022,5.3544 -1.6288,5.7103 -2.6507,0.356 -5.9803,0.8404 -7.7823,0.2897 -1.802,-0.5507 -2.1056,-2.5168 -1.081,-4.1256 1.0246,-1.6087 0.7892,-13.6801 0.3921,-15.8686 -0.3971,-2.1885 -2.2187,-12.9907 -2.2187,-12.9907l12.5456 -1.0369z"/>
     <path id="_658933608" class="fil2" d="M124.315 212.155c0.2007,-3.2221 2.3928,-4.8231 5.8211,-5.063 3.4284,-0.2399 6.0736,0.9334 6.5963,4.1942 0.6546,4.083 -4.4284,4.6329 -5.7362,4.7244 -4.3317,0.303 -6.8819,-0.6335 -6.6812,-3.8556z"/>
     <g style="clip-path:url(#id9)">
      <g>
       <path id="_6372964401" class="fil2 str1" d="M130.719 211.625c1.8971,-0.1312 3.2901,-1.9561 3.1705,-3.3678 -0.1197,-1.4118 -1.7067,-1.8766 -3.6038,-1.7454 -1.8972,0.1312 -3.3873,0.8087 -3.2677,2.2205 0.1197,1.4118 1.8038,3.0239 3.701,2.8927z"/>
      </g>
     </g>
     <path class="fil3 str5" d="M124.315 212.155c0.2007,-3.2221 2.3928,-4.8231 5.8211,-5.063 3.4284,-0.2399 6.0736,0.9334 6.5963,4.1942 0.6546,4.083 -4.4284,4.6329 -5.7362,4.7244 -4.3317,0.303 -6.8819,-0.6335 -6.6812,-3.8556z"/>
    </g>
    <g>
     <path id="_658933512" class="fil1 str5" d="M112.474 206.231c3.5599,0.2725 6.1738,4.0634 5.9493,6.9961 -0.2245,2.9328 -3.2025,3.8983 -6.7624,3.6257 -3.56,-0.2725 -6.3561,-1.68 -6.1316,-4.6127 0.2245,-2.9328 3.3848,-6.2817 6.9447,-6.0091z"/>
     <path id="_658933440" class="fil7 str6" d="M106.599 180.789c0,0 -1.3885,11.1414 -1.5391,15.1086 -0.1507,3.9673 1.9465,10.5551 1.766,12.9132 -0.1805,2.3582 -1.022,5.3544 1.6288,5.7103 2.6507,0.356 5.9803,0.8404 7.7823,0.2897 1.802,-0.5507 2.1056,-2.5168 1.081,-4.1256 -1.0246,-1.6087 -0.7892,-13.6801 -0.3921,-15.8686 0.3971,-2.1885 2.2187,-12.9907 2.2187,-12.9907l-12.5456 -1.0369z"/>
     <path id="_658933368" class="fil2" d="M118.342 212.155c-0.2007,-3.2221 -2.3928,-4.8231 -5.8211,-5.063 -3.4284,-0.2399 -6.0736,0.9334 -6.5963,4.1942 -0.6546,4.083 4.4284,4.6329 5.7362,4.7244 4.3317,0.303 6.8819,-0.6335 6.6812,-3.8556z"/>
     <g style="clip-path:url(#id10)">
      <g>
       <path id="_6372990321" class="fil2 str1" d="M111.938 211.625c-1.8971,-0.1312 -3.2901,-1.9561 -3.1705,-3.3678 0.1197,-1.4118 1.7067,-1.8766 3.6038,-1.7454 1.8972,0.1312 3.3873,0.8087 3.2677,2.2205 -0.1197,1.4118 -1.8038,3.0239 -3.701,2.8927z"/>
      </g>
     </g>
     <path class="fil3 str5" d="M118.342 212.155c-0.2007,-3.2221 -2.3928,-4.8231 -5.8211,-5.063 -3.4284,-0.2399 -6.0736,0.9334 -6.5963,4.1942 -0.6546,4.083 4.4284,4.6329 5.7362,4.7244 4.3317,0.303 6.8819,-0.6335 6.6812,-3.8556z"/>
    </g>
   </g>
   <path id="_658933248" class="fil5" d="M105.522 173.291c-6.4115,8.0868 -6.7223,24.0029 -5.442,26.0161 1.025,1.6121 10.9915,4.875 21.2486,4.875 10.2572,0 20.2237,-3.2629 21.2487,-4.875 1.2802,-2.0132 0.9694,-17.9293 -5.4421,-26.0161l-15.8066 0 -15.8066 0z"/>
   <g style="clip-path:url(#id11)">
    <g>
     <g>
      <g>
       <path id="_6396596961" class="fil6" d="M113.192 168.548c0,0 -2.6555,9.7164 -3.4621,20.0099 -0.8064,10.2932 -0.0658,18.5437 -0.0658,18.5437 0,0 1.5355,-13.2958 3.5279,-38.5536z"/>
       <path id="_639659624" class="fil6" d="M118.819 171.722c0,0 -2.0275,11.3186 -2.2094,21.9502 -0.1817,10.6309 1.0316,18.2134 1.0316,18.2134 0,0 0.7185,-14.067 1.1778,-40.1636z"/>
       <path id="_639659552" class="fil6" d="M123.839 171.722c0,0 2.0274,11.3191 2.2093,21.9502 0.1819,10.6309 -1.0316,18.2134 -1.0316,18.2134 0,0 -0.7185,-14.0675 -1.1777,-40.1636z"/>
       <path id="_639659480" class="fil6" d="M129.465 168.548c0,0 2.6554,9.7164 3.462,20.0097 0.8065,10.2929 0.0658,18.5439 0.0658,18.5439 0,0 -1.5355,-13.2961 -3.5278,-38.5536z"/>
       <path id="_639659408" class="fil6" d="M134.022 165.587c0,0 2.911,8.8384 3.9969,18.8328 1.0859,9.9947 0.5754,18.4427 0.5754,18.4427 0,0 -1.8942,-12.7547 -4.5723,-37.2755z"/>
       <path id="_639659336" class="fil6" d="M108.635 165.587c0,0 -2.9109,8.8384 -3.9969,18.8328 -1.0859,9.9947 -0.5753,18.4427 -0.5753,18.4427 0,0 1.8942,-12.7547 4.5722,-37.2755z"/>
      </g>
      <g>
       <path id="_639659240" class="fil6" d="M95.1632 197.374c0,0 14.7474,2.2824 28.5997,2.4872 13.8514,0.2045 23.7309,-1.1614 23.7309,-1.1614 0,0 -18.3284,-0.8088 -52.3306,-1.3258z"/>
       <path id="_639659168" class="fil6" d="M95.1632 190.928c0,0 14.7474,2.2824 28.5997,2.4872 13.8514,0.2045 23.7309,-1.1614 23.7309,-1.1614 0,0 -18.3284,-0.8088 -52.3306,-1.3258z"/>
       <path id="_639659096" class="fil6" d="M95.1632 183.556c0,0 14.7474,2.2824 28.5997,2.4872 13.8514,0.2045 23.7309,-1.1614 23.7309,-1.1614 0,0 -18.3284,-0.8088 -52.3306,-1.3258z"/>
       <path id="_639659024" class="fil6" d="M95.1632 177.59c0,0 14.7474,2.2824 28.5997,2.4872 13.8514,0.2045 23.7309,-1.1614 23.7309,-1.1614 0,0 -18.3284,-0.8088 -52.3306,-1.3258z"/>
      </g>
     </g>
    </g>
   </g>
   <path class="fil3 str2" d="M105.522 173.291c-6.4115,8.0868 -6.7223,24.0029 -5.442,26.0161 1.025,1.6121 10.9915,4.875 21.2486,4.875 10.2572,0 20.2237,-3.2629 21.2487,-4.875 1.2802,-2.0132 0.9694,-17.9293 -5.4421,-26.0161l-15.8066 0 -15.8066 0z"/>
  </g>
  <g id="_658932528">
   <path id="_658933152" class="fil5" d="M108.325 149.919c-5.5487,3.2334 -2.826,12.8788 -2.905,15.7167 -0.0791,2.8378 -2.826,9.1206 3.1026,10.4245 8.4026,1.8479 17.2088,1.8479 25.6114,0 5.9286,-1.3039 3.1817,-7.5867 3.1027,-10.4245 -0.0791,-2.8379 2.6436,-12.4833 -2.905,-15.7167 -6.4833,-3.7781 -19.5235,-3.7781 -26.0067,0z"/>
   <g style="clip-path:url(#id12)">
    <g>
     <g>
      <g>
       <path id="_6396480321" class="fil6" d="M113.192 142.078c0,0 -2.6555,9.7164 -3.4621,20.0099 -0.8064,10.2932 -0.0658,18.5437 -0.0658,18.5437 0,0 1.5355,-13.2958 3.5279,-38.5536z"/>
       <path id="_639647960" class="fil6" d="M118.819 145.251c0,0 -2.0275,11.3186 -2.2094,21.9502 -0.1817,10.6309 1.0316,18.2134 1.0316,18.2134 0,0 0.7185,-14.067 1.1778,-40.1636z"/>
       <path id="_639647888" class="fil6" d="M123.839 145.251c0,0 2.0274,11.3191 2.2093,21.9502 0.1819,10.6309 -1.0316,18.2134 -1.0316,18.2134 0,0 -0.7185,-14.0675 -1.1777,-40.1636z"/>
       <path id="_639647816" class="fil6" d="M129.465 142.078c0,0 2.6554,9.7164 3.462,20.0097 0.8065,10.2929 0.0658,18.5439 0.0658,18.5439 0,0 -1.5355,-13.2961 -3.5278,-38.5536z"/>
       <path id="_639647744" class="fil6" d="M134.022 139.116c0,0 2.911,8.8384 3.9969,18.8328 1.0859,9.9947 0.5754,18.4427 0.5754,18.4427 0,0 -1.8942,-12.7547 -4.5723,-37.2755z"/>
       <path id="_639647672" class="fil6" d="M108.635 139.116c0,0 -2.9109,8.8384 -3.9969,18.8328 -1.0859,9.9947 -0.5753,18.4427 -0.5753,18.4427 0,0 1.8942,-12.7547 4.5722,-37.2755z"/>
      </g>
      <g>
       <path id="_639647576" class="fil6" d="M95.1632 170.903c0,0 14.7474,2.2824 28.5997,2.4872 13.8514,0.2045 23.7309,-1.1614 23.7309,-1.1614 0,0 -18.3284,-0.8088 -52.3306,-1.3258z"/>
       <path id="_639647504" class="fil6" d="M95.1632 164.457c0,0 14.7474,2.2824 28.5997,2.4872 13.8514,0.2045 23.7309,-1.1614 23.7309,-1.1614 0,0 -18.3284,-0.8088 -52.3306,-1.3258z"/>
       <path id="_639647432" class="fil6" d="M95.1632 157.086c0,0 14.7474,2.2824 28.5997,2.4872 13.8514,0.2045 23.7309,-1.1614 23.7309,-1.1614 0,0 -18.3284,-0.8088 -52.3306,-1.3258z"/>
       <path id="_639647360" class="fil6" d="M95.1632 151.12c0,0 14.7474,2.2824 28.5997,2.4872 13.8514,0.2045 23.7309,-1.1614 23.7309,-1.1614 0,0 -18.3284,-0.8088 -52.3306,-1.3258z"/>
      </g>
     </g>
     <path id="_639647240" class="fil6" d="M105.006 168.465c-0.5113,2.9922 -0.8378,6.6368 3.5171,7.5947 8.4026,1.8479 17.2088,1.8479 25.6114,0 4.3303,-0.9524 4.0322,-4.5609 3.526,-7.5432 -4.4904,1.0925 -10.1637,1.7449 -16.3317,1.7449 -6.168,0 -11.8413,-0.6524 -16.3316,-1.7449l0.0088 -0.0515z"/>
    </g>
    <g style="clip-path:url(#id13)">
     <g>
      <path id="_6372937041" class="fil5" d="M102.795 167.525c-0.307,2.6025 0.1097,5.276 4.1847,6.076 9.4151,1.848 19.2825,1.848 28.6976,0 4.0753,-0.7999 4.492,-3.4736 4.1849,-6.0762 -0.276,1.7253 -1.337,3.1995 -4.1849,3.7585 -9.4151,1.848 -19.2825,1.848 -28.6976,0 -2.8476,-0.559 -3.9085,-2.033 -4.1847,-3.7583z"/>
     </g>
    </g>
    <g style="clip-path:url(#id14)">
     <path class="fil3" d="M105.006 168.465c-0.5113,2.9922 -0.8378,6.6368 3.5171,7.5947 8.4026,1.8479 17.2088,1.8479 25.6114,0 4.3303,-0.9524 4.0322,-4.5609 3.526,-7.5432 -4.4904,1.0925 -10.1637,1.7449 -16.3317,1.7449 -6.168,0 -11.8413,-0.6524 -16.3316,-1.7449l0.0088 -0.0515z"/>
    </g>
   </g>
   <path class="fil3 str2" d="M108.325 149.919c-5.5487,3.2334 -2.826,12.8788 -2.905,15.7167 -0.0791,2.8378 -2.826,9.1206 3.1026,10.4245 8.4026,1.8479 17.2088,1.8479 25.6114,0 5.9286,-1.3039 3.1817,-7.5867 3.1027,-10.4245 -0.0791,-2.8379 2.6436,-12.4833 -2.905,-15.7167 -6.4833,-3.7781 -19.5235,-3.7781 -26.0067,0z"/>
   <path id="_658933080" class="fil5" d="M127.625 162.11l0.0002 0.0202c0,3.9425 -2.8197,7.1397 -6.2967,7.1397 -3.4771,0 -6.2968,-3.1972 -6.2968,-7.1397l0.0002 -0.0202 0.6156 0 -0.0002 0.0202c0,3.5571 2.544,6.4417 5.6812,6.4417 3.1371,0 5.6811,-2.8846 5.6811,-6.4417l-0.0002 -0.0202 0.6156 0z"/>
   <g>
    <ellipse id="_658933008" class="fil9" cx="121.328" cy="171.891" rx="3.08046" ry="3.45617"/>
    <g>
     <ellipse id="_658932936" class="fil9" cx="116.702" cy="169.76" rx="3.08046" ry="3.45617"/>
     <ellipse id="_658932864" class="fil9" cx="125.955" cy="169.76" rx="3.08046" ry="3.45617"/>
    </g>
   </g>
   <g>
    <g>
     <path id="_658932744" class="fil0" d="M118.363 170.716c-0.2483,0.9059 -0.9384,1.5578 -1.7507,1.5578 -1.0211,0 -1.8491,-1.0301 -1.8491,-2.3002 0,-0.6679 0.229,-1.2692 0.5946,-1.6895 -0.0639,0.2329 -0.0985,0.4826 -0.0985,0.7424 0,1.2701 0.828,2.3001 1.8491,2.3001 0.4842,0 0.925,-0.2317 1.2546,-0.6106z"/>
     <path id="_658932672" class="fil0" d="M124.294 170.716c0.2483,0.9059 0.9384,1.5578 1.7507,1.5578 1.0211,0 1.8491,-1.0301 1.8491,-2.3002 0,-0.6679 -0.229,-1.2692 -0.5946,-1.6895 0.0639,0.2329 0.0985,0.4826 0.0985,0.7424 0,1.2701 -0.828,2.3001 -1.8491,2.3001 -0.4842,0 -0.925,-0.2317 -1.2546,-0.6106z"/>
    </g>
    <path id="_658932576" class="fil0" d="M119.529 173.055c0.2483,0.9059 0.9384,1.5578 1.7507,1.5578 1.0211,0 1.8491,-1.0301 1.8491,-2.3002 0,-0.6679 -0.229,-1.2692 -0.5946,-1.6895 0.0639,0.2329 0.0985,0.4826 0.0985,0.7424 0,1.2701 -0.828,2.3001 -1.8491,2.3001 -0.4842,0 -0.925,-0.2317 -1.2546,-0.6106z"/>
   </g>
  </g>
  <path class="fil7 str3" d="M114.817 143.374l13.0238 0 0 5.6497c0,1.639 -2.9159,2.9683 -6.5118,2.9683 -3.5957,0 -6.512,-1.3293 -6.512,-2.9683l0 -5.6497z"/>
  <path class="fil0 str0" d="M310.343 101.031c12.0503,0 21.8227,6.3272 21.8227,14.1292 0,7.8021 -9.7724,14.1293 -21.8227,14.1293 -5.935,0 -11.3167,-1.5354 -15.2508,-4.0254l-8.0449 4.01 4.0251 -7.4806c-1.628,-1.9781 -2.552,-4.2358 -2.552,-6.6333 0,-7.802 9.7724,-14.1292 21.8226,-14.1292z"/>
  <path class="fil0 str0" d="M180.857 101.124c12.0503,0 21.8227,6.3272 21.8227,14.1292 0,7.8021 -9.7724,14.1293 -21.8227,14.1293 -5.935,0 -11.3167,-1.5354 -15.2508,-4.0254l-8.0449 4.01 4.0251 -7.4806c-1.628,-1.9781 -2.552,-4.2358 -2.552,-6.6333 0,-7.802 9.7724,-14.1292 21.8226,-14.1292z"/>
  <path class="fil8" d="M165.811 113.228c0,-0.2032 0.0995,-0.4276 0.2985,-0.6731 0.2455,-0.2413 0.491,-0.4847 0.7366,-0.7303 0.0423,-0.1439 0.0783,-0.2582 0.1079,-0.3429 0.0593,-0.1651 0.1609,-0.2476 0.3048,-0.2476 0.0762,0 0.127,0.0212 0.1524,0.0635 0.0127,0.0339 0.0201,0.0995 0.0222,0.1968 0.0021,0.0974 0.0032,0.1948 0.0032,0.2921 0,0.1397 -0.1916,0.4033 -0.5747,0.7906 -0.3831,0.3874 -0.5619,0.6234 -0.5365,0.708 0.0592,0.2075 0.2328,0.3112 0.5207,0.3112 0.1312,0 0.3079,-0.0826 0.5302,-0.2477 0.2222,-0.1651 0.4477,-0.3365 0.6763,-0.5143 0.0381,0 0.0762,0.018 0.1143,0.054 0.0381,0.036 0.0571,0.0899 0.0571,0.1619 0,0.2074 -0.1651,0.436 -0.4953,0.6858 -0.3302,0.2498 -0.6413,0.3746 -0.9334,0.3746 -0.271,0 -0.4996,-0.0783 -0.6858,-0.2349 -0.199,-0.1693 -0.2985,-0.3852 -0.2985,-0.6477zm0.9589 -3.2766c0,-0.1016 0.0254,-0.1852 0.0762,-0.2508 0.0508,-0.0656 0.1291,-0.0985 0.2349,-0.0985 0.0974,0 0.1757,0.0297 0.235,0.0889 0.0592,0.0593 0.0889,0.1376 0.0889,0.235 0,0.0974 -0.0276,0.182 -0.0826,0.254 -0.055,0.072 -0.127,0.1122 -0.2159,0.1206 -0.1016,0 -0.1831,-0.0328 -0.2445,-0.0984 -0.0614,-0.0656 -0.092,-0.1492 -0.092,-0.2508zm4.2926 3.5623c0,0.0889 -0.0593,0.162 -0.1778,0.2191 -0.1186,0.0572 -0.2794,0.0857 -0.4826,0.0857 -0.5292,0 -0.9843,-0.1566 -1.3653,-0.4699 -0.4318,-0.3556 -0.6477,-0.8382 -0.6477,-1.4478 0,-0.5037 0.2286,-1.016 0.6858,-1.5367 0.436,-0.4953 0.834,-0.7429 1.1938,-0.7429 0.0889,0 0.1545,0.0212 0.1969,0.0635 0.0423,0.0423 0.0635,0.0889 0.0635,0.1397 -0.4107,0.3133 -0.7705,0.6392 -1.0795,0.9779 -0.3387,0.3725 -0.508,0.7853 -0.508,1.2382 0,0.381 0.182,0.6668 0.5461,0.8573 0.1693,0.0889 0.5101,0.1926 1.0223,0.3111 0.3683,0.0847 0.5525,0.1863 0.5525,0.3048zm2.8194 -1.5875c0,0.5588 -0.1355,1.0393 -0.4064,1.4415 -0.2837,0.4191 -0.635,0.6286 -1.0541,0.6286 -0.398,0 -0.7197,-0.1418 -0.9652,-0.4254 -0.3048,-0.3514 -0.4572,-0.889 -0.4572,-1.6129 0,-0.5038 0.091,-1.0255 0.273,-1.5653 0.182,-0.5397 0.3683,-0.8096 0.5588,-0.8096 0.1651,0 0.2477,0.1037 0.2477,0.3111 0,0.1143 -0.0889,0.4361 -0.2667,0.9652 -0.1778,0.5292 -0.2667,0.8996 -0.2667,1.1113 0,0.5334 0.0889,0.9144 0.2667,1.143 0.1439,0.1863 0.3513,0.2794 0.6223,0.2794 0.2836,0 0.5016,-0.1588 0.654,-0.4763 0.1355,-0.2794 0.2032,-0.6392 0.2032,-1.0795 0,-0.127 -0.0307,-0.4243 -0.0921,-0.8921 -0.0614,-0.4678 -0.092,-0.744 -0.092,-0.8287 0,-0.326 0.091,-0.5017 0.273,-0.5271 0.1524,-0.0169 0.2773,0.2286 0.3747,0.7366 0.0846,0.4488 0.127,0.9822 0.127,1.6002zm2.8321 1.7145c0,0.1651 -0.0159,0.2921 -0.0477,0.381 -0.0317,0.0889 -0.0899,0.1334 -0.1746,0.1334 -0.1185,0 -0.2265,-0.1799 -0.3238,-0.5398 -0.0551,-0.2328 -0.108,-0.4677 -0.1588,-0.7048l-1.0795 0c-0.0593,0.2286 -0.1185,0.4572 -0.1778,0.6858 -0.0804,0.2752 -0.1968,0.4127 -0.3492,0.4127 -0.0889,0 -0.1419,-0.0127 -0.1588,-0.0381 -0.0339,-0.0508 -0.0508,-0.1375 -0.0508,-0.2603 0,-0.1016 0.0074,-0.217 0.0222,-0.3461 0.0148,-0.1291 0.0519,-0.3058 0.1112,-0.5302 0.0592,-0.2244 0.1185,-0.4456 0.1778,-0.6636 0.0592,-0.218 0.1735,-0.6276 0.3429,-1.2287 0.127,-0.4487 0.201,-0.6858 0.2222,-0.7112 0.1185,-0.4149 0.2942,-0.6223 0.5271,-0.6223 0.1143,0 0.2307,0.091 0.3492,0.273 0.1185,0.1821 0.2032,0.4128 0.254,0.6922 0.0169,0.0296 0.0582,0.2191 0.1238,0.5683 0.0656,0.3493 0.126,0.6763 0.181,0.9811 0.0296,0.1736 0.0593,0.3429 0.0889,0.508 0.0296,0.1651 0.0572,0.3556 0.0826,0.5715 0.0254,0.2159 0.0381,0.3619 0.0381,0.4381zm-0.7811 -1.2763l-0.3302 -2.0511 -0.5651 2.0511 0.8953 0zm0.5906 -3.3782c0,0.0931 -0.0995,0.2011 -0.2985,0.3238 -0.0635,0.0381 -0.163,0.0889 -0.2984,0.1524l-0.5144 0c0.1651,-0.1778 0.29,-0.3111 0.3747,-0.4 0.2624,-0.2667 0.4275,-0.4001 0.4953,-0.4001 0.11,0 0.1778,0.0233 0.2032,0.0699 0.0254,0.0466 0.0381,0.1312 0.0381,0.254zm2.2987 4.718c0.0127,0.1101 -0.1313,0.2234 -0.4318,0.3398 -0.3006,0.1164 -0.5864,0.1746 -0.8562,0.1746 -0.1884,0 -0.3154,-0.1291 -0.3832,-0.3874 -0.0497,-0.1989 -0.0751,-0.5588 -0.0751,-1.0795 0,-0.1693 0,-0.3429 0,-0.5207 0,-0.1778 0,-0.3619 0,-0.5524 0,-1.1726 0.1228,-1.759 0.3683,-1.759 0.0931,0 0.1598,0.0826 0.2,0.2477 0.0402,0.1651 0.0604,0.3958 0.0604,0.6921 0,0.1228 -0.0053,0.3715 -0.0159,0.7462 -0.0106,0.3746 -0.0159,0.6233 -0.0159,0.7461 0,0.2752 0.0053,0.4974 0.0159,0.6667 0.0106,0.1694 0.0307,0.3345 0.0603,0.4953 0.0847,0 0.1958,-0.0095 0.3334,-0.0285 0.1376,-0.0191 0.2656,-0.0371 0.3842,-0.054 0.1016,0 0.182,0.019 0.2413,0.0571 0.0592,0.0381 0.0973,0.1101 0.1143,0.2159zm4.7053 -0.2286c0,0.1609 -0.1482,0.29 -0.4445,0.3874 -0.254,0.0847 -0.5355,0.127 -0.8445,0.127 -0.1567,0 -0.2689,-0.0783 -0.3366,-0.235 -0.0508,-0.1185 -0.0762,-0.2783 -0.0762,-0.4773 -0.0042,-0.182 -0.0085,-0.3344 -0.0127,-0.4582 -0.0296,-0.8774 -0.0444,-1.5177 -0.0444,-1.9198 0,-0.4964 0.0127,-0.8964 0.0381,-1.2023l1.1239 -0.1397c0.0423,0 0.072,0 0.0889,0 0.1101,0 0.1969,0.0201 0.2604,0.0603 0.0635,0.0402 0.0952,0.1027 0.0952,0.1873 0,0.072 -0.0423,0.1376 -0.127,0.1969 -0.0847,0.0593 -0.1799,0.0995 -0.2857,0.1206l-0.5842 0.108 0 1.2509 0.5207 -0.0254c0.1651,0 0.2815,0.0297 0.3492,0.0889 0.0677,0.0593 0.1016,0.1397 0.1016,0.2413 0,0.0847 -0.0349,0.1535 -0.1048,0.2064 -0.0698,0.0529 -0.1534,0.0794 -0.2508,0.0794l-0.5778 0.0381 0.0381 1.1747c0.0846,0 0.1957,-0.0095 0.3333,-0.0285 0.1376,-0.0191 0.2657,-0.0371 0.3842,-0.054 0.1058,0 0.1916,0.0201 0.2572,0.0603 0.0656,0.0402 0.0984,0.1111 0.0984,0.2127zm2.7559 -0.6667c0,0.3514 -0.1418,0.6361 -0.4254,0.8541 -0.2837,0.218 -0.6329,0.327 -1.0478,0.327 -0.2286,0 -0.4635,-0.0614 -0.7048,-0.1842 -0.2413,-0.1227 -0.362,-0.2561 -0.362,-0.4 0,-0.0593 0.0286,-0.1154 0.0857,-0.1683 0.0572,-0.0529 0.1217,-0.0794 0.1937,-0.0794 0.0254,0 0.1503,0.0519 0.3747,0.1556 0.2243,0.1037 0.3725,0.1556 0.4445,0.1556 0.2286,0 0.4222,-0.055 0.581,-0.1651 0.1587,-0.1101 0.2381,-0.2625 0.2381,-0.4572 0,-0.2032 -0.1799,-0.3916 -0.5397,-0.5652 -0.3387,-0.1566 -0.6774,-0.3132 -1.016,-0.4699 -0.3641,-0.2116 -0.5461,-0.4572 -0.5461,-0.7366 0,-0.2963 0.1608,-0.5831 0.4826,-0.8604 0.3217,-0.2773 0.6752,-0.4159 1.0604,-0.4159 0.2709,0 0.4445,0.0042 0.5207,0.0127 0.2413,0.0254 0.362,0.1291 0.362,0.3111 0,0.1313 -0.2943,0.2202 -0.8827,0.2667 -0.5884,0.0466 -0.8826,0.2646 -0.8826,0.6541 0,0.2074 0.1778,0.3725 0.5334,0.4953 0.6011,0.2032 0.9313,0.3217 0.9906,0.3556 0.3598,0.2032 0.5397,0.508 0.5397,0.9144zm-17.8943 4.3879c0,0.2498 -0.1746,0.3948 -0.5239,0.435 -0.3492,0.0402 -0.5683,0.0688 -0.6572,0.0857l0.0381 2.9972c0,0.2244 -0.0148,0.3926 -0.0444,0.5048 -0.0297,0.1122 -0.0932,0.1683 -0.1905,0.1683 -0.1143,0 -0.2043,-0.0826 -0.2699,-0.2477 -0.0656,-0.1651 -0.0984,-0.381 -0.0984,-0.6477 -0.0043,-0.1735 -0.0085,-0.437 -0.0127,-0.7905 -0.0043,-0.3535 -0.0096,-0.7345 -0.0159,-1.143 -0.0064,-0.4085 -0.0095,-0.6657 -0.0095,-0.7716 -0.072,-0.0169 -0.1609,-0.0254 -0.2667,-0.0254 -0.1101,0 -0.2181,0.0075 -0.3239,0.0223 -0.1058,0.0148 -0.199,0.0264 -0.2794,0.0349 -0.0974,0 -0.1715,-0.0148 -0.2223,-0.0445 -0.0719,-0.0423 -0.1079,-0.1164 -0.1079,-0.2222 0,-0.1609 0.1206,-0.2688 0.362,-0.3239 0.1651,-0.0381 0.4402,-0.0571 0.8255,-0.0571l0.3556 0c0.0592,-0.0085 0.273,-0.0423 0.6413,-0.1016 0.2625,-0.0423 0.4212,-0.0635 0.4763,-0.0635 0.0846,0 0.1598,0.0148 0.2254,0.0444 0.0656,0.0297 0.0984,0.0784 0.0984,0.1461zm2.737 2.1272c0,0.5588 -0.1355,1.0393 -0.4064,1.4415 -0.2837,0.4191 -0.635,0.6286 -1.0541,0.6286 -0.398,0 -0.7197,-0.1418 -0.9652,-0.4254 -0.3048,-0.3514 -0.4572,-0.889 -0.4572,-1.6129 0,-0.5038 0.091,-1.0255 0.273,-1.5653 0.182,-0.5397 0.3683,-0.8096 0.5588,-0.8096 0.1651,0 0.2477,0.1037 0.2477,0.3111 0,0.1143 -0.0889,0.4361 -0.2667,0.9652 -0.1778,0.5292 -0.2667,0.8996 -0.2667,1.1113 0,0.5334 0.0889,0.9144 0.2667,1.143 0.1439,0.1863 0.3513,0.2794 0.6223,0.2794 0.2836,0 0.5016,-0.1588 0.654,-0.4763 0.1355,-0.2794 0.2032,-0.6392 0.2032,-1.0795 0,-0.127 -0.0307,-0.4243 -0.0921,-0.8921 -0.0614,-0.4678 -0.092,-0.744 -0.092,-0.8287 0,-0.326 0.091,-0.5017 0.273,-0.5271 0.1524,-0.0169 0.2773,0.2286 0.3747,0.7366 0.0846,0.4488 0.127,0.9822 0.127,1.6002zm5.9245 -1.016l0 1.7018 0 0.2731c0,0.5715 -0.0265,0.9588 -0.0794,1.162 -0.0529,0.2033 -0.1301,0.3049 -0.2317,0.3049 -0.2075,0 -0.4107,-0.18 -0.6096,-0.5398 -0.1016,-0.1863 -0.2742,-0.5937 -0.5176,-1.2224 -0.2434,-0.6286 -0.4498,-1.089 -0.6191,-1.3811 0,0.1355 0.0042,0.4138 0.0127,0.835 0.0085,0.4212 0.0127,0.6678 0.0127,0.7398 0,0.4106 -0.0169,0.726 -0.0508,0.9461 -0.0339,0.2202 -0.0995,0.3302 -0.1968,0.3302 -0.1397,0 -0.2403,-0.1174 -0.3017,-0.3524 -0.0614,-0.2349 -0.092,-0.5577 -0.092,-0.9684l0 -1.7907c0,-0.3937 0.0201,-0.6953 0.0603,-0.9048 0.0402,-0.2096 0.1196,-0.3144 0.2381,-0.3144 0.1439,0 0.3408,0.2392 0.5906,0.7176 0.1651,0.3175 0.3862,0.8075 0.6635,1.47 0.2773,0.6625 0.4562,1.0763 0.5366,1.2414l-0.0444 -2.1145c0,-0.4995 0.0232,-0.8869 0.0698,-1.1621 0.0466,-0.2751 0.1291,-0.4127 0.2477,-0.4127 0.1164,0 0.1968,0.1249 0.2423,0.3746 0.0455,0.2498 0.0688,0.6054 0.0688,1.0668zm3.1052 1.3081c0,0.5715 -0.1079,1.0436 -0.3238,1.4161 -0.2329,0.4022 -0.5483,0.6033 -0.9462,0.6033 -0.453,0 -0.8107,-0.2181 -1.0731,-0.6541 -0.2625,-0.436 -0.3937,-0.9843 -0.3937,-1.6447 0,-0.5969 0.1068,-1.0964 0.3206,-1.4986 0.2138,-0.4021 0.5027,-0.6032 0.8668,-0.6032 0.4699,0 0.8488,0.2349 1.1367,0.7048 0.2751,0.4488 0.4127,1.0076 0.4127,1.6764zm-0.5334 -0.0063c0,-0.5207 -0.0804,-0.9504 -0.2413,-1.2891 -0.1736,-0.364 -0.4106,-0.5461 -0.7112,-0.5461 -0.199,0 -0.363,0.1524 -0.4921,0.4572 -0.1291,0.3048 -0.1937,0.6837 -0.1937,1.1367 0,0.5122 0.0783,0.9271 0.235,1.2446 0.1778,0.3598 0.4233,0.5397 0.7366,0.5397 0.1905,0 0.3492,-0.1471 0.4762,-0.4413 0.127,-0.2942 0.1905,-0.6614 0.1905,-1.1017zm5.061 1.543c0,0.0762 -0.0169,0.127 -0.0508,0.1524 -0.0339,0.0254 -0.0804,0.0381 -0.1397,0.0381 -0.1312,0 -0.2667,-0.1375 -0.4064,-0.4127 -0.1016,-0.199 -0.2286,-0.5355 -0.381,-1.0097 -0.1312,-0.4064 -0.2603,-0.8128 -0.3873,-1.2192 -0.1736,0.6689 -0.3472,1.3378 -0.5207,2.0066 -0.1905,0.5546 -0.362,0.8319 -0.5144,0.8319 -0.1185,0 -0.2434,-0.1376 -0.3746,-0.4128 -0.1016,-0.2116 -0.2223,-0.5397 -0.362,-0.9842 -0.1143,-0.3725 -0.2265,-0.7472 -0.3365,-1.124 -0.0551,0.3091 -0.1112,0.7335 -0.1683,1.2732 -0.0572,0.5398 -0.1111,0.8943 -0.1619,1.0636 -0.0762,0.2498 -0.1927,0.3747 -0.3493,0.3747 -0.0381,0 -0.0688,-0.0265 -0.0921,-0.0794 -0.0233,-0.0529 -0.0349,-0.1492 -0.0349,-0.2889 0,-0.3217 0.0677,-0.8213 0.2032,-1.4986 0.0296,-0.2244 0.0582,-0.6297 0.0857,-1.216 0.0275,-0.5863 0.0625,-0.9769 0.1048,-1.1716 0.0677,-0.2963 0.1863,-0.4339 0.3556,-0.4128 0.1228,0.017 0.2392,0.2667 0.3493,0.7493 0.11,0.4826 0.218,0.9737 0.3238,1.4732 0.1439,0.635 0.2963,1.0986 0.4572,1.3907 0.2413,-0.6689 0.4212,-1.3504 0.5398,-2.0447 0.0592,-0.3895 0.1206,-0.7789 0.1841,-1.1684 0.055,-0.2455 0.1693,-0.3683 0.3429,-0.3683 0.0974,0 0.2074,0.1799 0.3302,0.5397 0.0974,0.2921 0.1863,0.6245 0.2667,0.997 0.0339,0.182 0.0677,0.3641 0.1016,0.5461 0.1439,0.4149 0.2498,0.7281 0.3175,0.9398 0.2117,0.635 0.3175,0.98 0.3175,1.035zm2.1908 -2.9591c0,0.199 -0.072,0.381 -0.2159,0.5461 -0.1058,0.1228 -0.309,0.29 -0.6096,0.5017l0.3937 0.1016c0.1016,0.0508 0.1524,0.2011 0.1524,0.4508 0,0.4742 -0.2222,0.9356 -0.6667,1.3843 -0.3937,0.398 -0.7303,0.597 -1.0097,0.597 -0.0889,0 -0.1482,-0.2297 -0.1778,-0.689 -0.0296,-0.4593 -0.0444,-1.1526 -0.0444,-2.0797 0,-0.4064 0.0021,-0.7164 0.0063,-0.9302 0.0042,-0.2138 0.0085,-0.4202 0.0127,-0.6192 0.1143,-0.0084 0.2223,-0.0158 0.3239,-0.0222 0.1016,-0.0063 0.1714,-0.0095 0.2095,-0.0095 0.5757,0 0.9906,0.0656 1.2446,0.1968 0.254,0.1313 0.381,0.3218 0.381,0.5715zm-0.5651 0.1016c0,-0.1058 -0.0508,-0.182 -0.1524,-0.2286 -0.1524,-0.0719 -0.4318,-0.1079 -0.8382,-0.1079 -0.0085,0.0804 -0.0149,0.2381 -0.0191,0.4731 -0.0042,0.2349 -0.0063,0.4879 -0.0063,0.7588 0.1989,-0.1143 0.3979,-0.2307 0.5969,-0.3493 0.2794,-0.1778 0.4191,-0.3598 0.4191,-0.5461zm-0.2921 1.6637c0,-0.0381 0,-0.0677 0,-0.0889 0,-0.055 -0.0043,-0.0931 -0.0127,-0.1143 -0.0297,-0.0719 -0.1059,-0.1079 -0.2286,-0.1079 -0.0805,0 -0.1694,0.0201 -0.2667,0.0603 -0.0974,0.0402 -0.1757,0.09 -0.235,0.1492l0 1.1303c0.2117,-0.0846 0.3884,-0.2233 0.5302,-0.4159 0.1418,-0.1926 0.2128,-0.3969 0.2128,-0.6128zm4.0894 1.2954c-0.0085,0.0551 -0.0212,0.0953 -0.0381,0.1207 -0.0508,0.0804 -0.1376,0.1206 -0.2603,0.1206 -0.3599,0 -0.7557,-0.1778 -1.1875,-0.5334 -0.4318,-0.3556 -0.6286,-0.6455 -0.5905,-0.8699 0,-0.0466 0.2349,-0.1863 0.7048,-0.4191 0.4699,-0.2328 0.7049,-0.4868 0.7049,-0.762 0,-0.2709 -0.1038,-0.5101 -0.3112,-0.7176 -0.2074,-0.2074 -0.453,-0.3111 -0.7366,-0.3111 -0.1778,0 -0.3492,0.0381 -0.5143,0.1143l0 2.4193c0,0.4742 -0.0223,0.8308 -0.0657,1.07 -0.0444,0.2392 -0.1164,0.3588 -0.2169,0.3588 -0.126,0 -0.2138,-0.1281 -0.2646,-0.3842 -0.0497,-0.2561 -0.0751,-0.6233 -0.0751,-1.1017l0 -1.7971c0,-0.5461 0.0582,-0.89 0.1746,-1.0318 0.1153,-0.1418 0.3958,-0.2128 0.8392,-0.2128 0.5112,0 0.9166,0.1016 1.2161,0.3048 0.346,0.2329 0.5196,0.5821 0.5196,1.0478 0,0.4149 -0.0868,0.7218 -0.2603,0.9207 -0.1567,0.1778 -0.4975,0.3874 -1.0224,0.6287 0.2244,0.2794 0.4741,0.4889 0.7493,0.6286 0.4233,0.2159 0.635,0.3514 0.635,0.4064zm2.14 -0.381c0,0.1609 -0.1482,0.29 -0.4445,0.3874 -0.254,0.0847 -0.5355,0.127 -0.8445,0.127 -0.1567,0 -0.2689,-0.0783 -0.3366,-0.235 -0.0508,-0.1185 -0.0762,-0.2783 -0.0762,-0.4773 -0.0042,-0.182 -0.0085,-0.3344 -0.0127,-0.4582 -0.0296,-0.8774 -0.0444,-1.5177 -0.0444,-1.9198 0,-0.4964 0.0127,-0.8964 0.0381,-1.2023l1.1239 -0.1397c0.0423,0 0.072,0 0.0889,0 0.1101,0 0.1969,0.0201 0.2604,0.0603 0.0635,0.0402 0.0952,0.1027 0.0952,0.1873 0,0.072 -0.0423,0.1376 -0.127,0.1969 -0.0847,0.0593 -0.1799,0.0995 -0.2857,0.1206l-0.5842 0.108 0 1.2509 0.5207 -0.0254c0.1651,0 0.2815,0.0297 0.3492,0.0889 0.0677,0.0593 0.1016,0.1397 0.1016,0.2413 0,0.0847 -0.0349,0.1535 -0.1048,0.2064 -0.0698,0.0529 -0.1534,0.0794 -0.2508,0.0794l-0.5778 0.0381 0.0381 1.1747c0.0846,0 0.1957,-0.0095 0.3333,-0.0285 0.1376,-0.0191 0.2657,-0.0371 0.3842,-0.054 0.1058,0 0.1916,0.0201 0.2572,0.0603 0.0656,0.0402 0.0984,0.1111 0.0984,0.2127zm2.5908 -2.9908c0,0.2032 -0.0995,0.4276 -0.2984,0.6731 -0.2456,0.2455 -0.4911,0.4889 -0.7366,0.7302 -0.0424,0.144 -0.0784,0.2583 -0.108,0.3429 -0.0593,0.1651 -0.1609,0.2477 -0.3048,0.2477 -0.0762,0 -0.127,-0.0212 -0.1524,-0.0635 -0.0085,-0.0212 -0.0148,-0.0847 -0.019,-0.1905 -0.0043,-0.1058 -0.0064,-0.1842 -0.0064,-0.235 0,-0.0296 0,-0.0465 0,-0.0508 0,-0.0042 0,-0.0084 0,-0.0127 0,-0.1397 0.1916,-0.4032 0.5747,-0.7905 0.3831,-0.3874 0.562,-0.6234 0.5366,-0.7081 -0.0593,-0.2074 -0.2329,-0.3111 -0.5207,-0.3111 -0.1313,0 -0.3048,0.0783 -0.5207,0.2349 -0.2286,0.1778 -0.4572,0.3535 -0.6858,0.5271 -0.0381,0 -0.072,-0.0148 -0.1016,-0.0445 -0.0466,-0.0423 -0.0699,-0.0994 -0.0699,-0.1714 0,-0.2074 0.1651,-0.436 0.4953,-0.6858 0.3302,-0.2498 0.6414,-0.3747 0.9335,-0.3747 0.2709,0 0.5027,0.0815 0.6953,0.2445 0.1926,0.163 0.2889,0.3757 0.2889,0.6382zm-0.9588 3.2766c0,0.1016 -0.0254,0.1852 -0.0762,0.2508 -0.0508,0.0656 -0.1292,0.0984 -0.235,0.0984 -0.0974,0 -0.1757,-0.0296 -0.2349,-0.0889 -0.0593,-0.0592 -0.0889,-0.1375 -0.0889,-0.2349 0,-0.0974 0.0275,-0.182 0.0825,-0.254 0.055,-0.072 0.127,-0.1122 0.2159,-0.1207 0.1016,0 0.1831,0.0329 0.2445,0.0985 0.0614,0.0656 0.0921,0.1492 0.0921,0.2508z"/>
  <path class="fil8" d="M297.103 116.89c0,0.0762 -0.0169,0.127 -0.0508,0.1524 -0.0339,0.0254 -0.0804,0.0381 -0.1397,0.0381 -0.1312,0 -0.2667,-0.1375 -0.4064,-0.4127 -0.1016,-0.199 -0.2286,-0.5355 -0.381,-1.0097 -0.1312,-0.4064 -0.2603,-0.8128 -0.3873,-1.2192 -0.1736,0.6689 -0.3472,1.3378 -0.5207,2.0066 -0.1905,0.5546 -0.362,0.8319 -0.5144,0.8319 -0.1185,0 -0.2434,-0.1376 -0.3746,-0.4128 -0.1016,-0.2116 -0.2223,-0.5397 -0.362,-0.9842 -0.1143,-0.3725 -0.2265,-0.7472 -0.3365,-1.124 -0.0551,0.3091 -0.1112,0.7335 -0.1683,1.2732 -0.0572,0.5398 -0.1111,0.8943 -0.1619,1.0636 -0.0762,0.2498 -0.1927,0.3747 -0.3493,0.3747 -0.0381,0 -0.0688,-0.0265 -0.0921,-0.0794 -0.0233,-0.0529 -0.0349,-0.1492 -0.0349,-0.2889 0,-0.3217 0.0677,-0.8213 0.2032,-1.4986 0.0296,-0.2244 0.0582,-0.6297 0.0857,-1.216 0.0275,-0.5863 0.0625,-0.9769 0.1048,-1.1716 0.0677,-0.2963 0.1863,-0.4339 0.3556,-0.4128 0.1228,0.017 0.2392,0.2667 0.3493,0.7493 0.11,0.4826 0.218,0.9737 0.3238,1.4732 0.1439,0.635 0.2963,1.0986 0.4572,1.3907 0.2413,-0.6689 0.4212,-1.3504 0.5398,-2.0447 0.0592,-0.3895 0.1206,-0.7789 0.1841,-1.1684 0.055,-0.2455 0.1693,-0.3683 0.3429,-0.3683 0.0974,0 0.2074,0.1799 0.3302,0.5397 0.0974,0.2921 0.1863,0.6245 0.2667,0.997 0.0339,0.182 0.0677,0.3641 0.1016,0.5461 0.1439,0.4149 0.2498,0.7281 0.3175,0.9398 0.2117,0.635 0.3175,0.98 0.3175,1.035zm0.7557 -0.2349c0,0.3471 -0.0212,0.599 -0.0624,0.7557 -0.053,0.2032 -0.1461,0.3048 -0.2784,0.3048 -0.0709,0 -0.1217,-0.0858 -0.1524,-0.2572 -0.0307,-0.1715 -0.0465,-0.4096 -0.0465,-0.7144l-0.0826 -2.8321c0,-0.1947 0.0222,-0.345 0.0667,-0.4509 0.0444,-0.1058 0.128,-0.1587 0.2508,-0.1587 0.1185,0 0.199,0.1037 0.2413,0.3111 0.0423,0.2075 0.0635,0.5631 0.0635,1.0668l0 1.9749zm6.0833 -2.6099l0 1.7018 0 0.2731c0,0.5715 -0.0265,0.9588 -0.0794,1.162 -0.0529,0.2033 -0.1301,0.3049 -0.2317,0.3049 -0.2075,0 -0.4107,-0.18 -0.6096,-0.5398 -0.1016,-0.1863 -0.2742,-0.5937 -0.5176,-1.2224 -0.2434,-0.6286 -0.4498,-1.089 -0.6191,-1.3811 0,0.1355 0.0042,0.4138 0.0127,0.835 0.0085,0.4212 0.0127,0.6678 0.0127,0.7398 0,0.4106 -0.0169,0.726 -0.0508,0.9461 -0.0339,0.2202 -0.0995,0.3302 -0.1968,0.3302 -0.1397,0 -0.2403,-0.1174 -0.3017,-0.3524 -0.0614,-0.2349 -0.092,-0.5577 -0.092,-0.9684l0 -1.7907c0,-0.3937 0.0201,-0.6953 0.0603,-0.9048 0.0402,-0.2096 0.1196,-0.3144 0.2381,-0.3144 0.1439,0 0.3408,0.2392 0.5906,0.7176 0.1651,0.3175 0.3862,0.8075 0.6635,1.47 0.2773,0.6625 0.4562,1.0763 0.5366,1.2414l-0.0444 -2.1145c0,-0.4995 0.0232,-0.8869 0.0698,-1.1621 0.0466,-0.2751 0.1291,-0.4127 0.2477,-0.4127 0.1164,0 0.1968,0.1249 0.2423,0.3746 0.0455,0.2498 0.0688,0.6054 0.0688,1.0668zm3.1052 1.3081c0,0.5715 -0.1079,1.0436 -0.3238,1.4161 -0.2329,0.4022 -0.5483,0.6033 -0.9462,0.6033 -0.453,0 -0.8107,-0.2181 -1.0731,-0.6541 -0.2625,-0.436 -0.3937,-0.9843 -0.3937,-1.6447 0,-0.5969 0.1068,-1.0964 0.3206,-1.4986 0.2138,-0.4021 0.5027,-0.6032 0.8668,-0.6032 0.4699,0 0.8488,0.2349 1.1367,0.7048 0.2751,0.4488 0.4127,1.0076 0.4127,1.6764zm-0.5334 -0.0063c0,-0.5207 -0.0804,-0.9504 -0.2413,-1.2891 -0.1736,-0.364 -0.4106,-0.5461 -0.7112,-0.5461 -0.199,0 -0.363,0.1524 -0.4921,0.4572 -0.1291,0.3048 -0.1937,0.6837 -0.1937,1.1367 0,0.5122 0.0783,0.9271 0.235,1.2446 0.1778,0.3598 0.4233,0.5397 0.7366,0.5397 0.1905,0 0.3492,-0.1471 0.4762,-0.4413 0.127,-0.2942 0.1905,-0.6614 0.1905,-1.1017zm5.061 1.543c0,0.0762 -0.0169,0.127 -0.0508,0.1524 -0.0339,0.0254 -0.0804,0.0381 -0.1397,0.0381 -0.1312,0 -0.2667,-0.1375 -0.4064,-0.4127 -0.1016,-0.199 -0.2286,-0.5355 -0.381,-1.0097 -0.1312,-0.4064 -0.2603,-0.8128 -0.3873,-1.2192 -0.1736,0.6689 -0.3472,1.3378 -0.5207,2.0066 -0.1905,0.5546 -0.362,0.8319 -0.5144,0.8319 -0.1185,0 -0.2434,-0.1376 -0.3746,-0.4128 -0.1016,-0.2116 -0.2223,-0.5397 -0.362,-0.9842 -0.1143,-0.3725 -0.2265,-0.7472 -0.3365,-1.124 -0.0551,0.3091 -0.1112,0.7335 -0.1683,1.2732 -0.0572,0.5398 -0.1111,0.8943 -0.1619,1.0636 -0.0762,0.2498 -0.1927,0.3747 -0.3493,0.3747 -0.0381,0 -0.0688,-0.0265 -0.0921,-0.0794 -0.0233,-0.0529 -0.0349,-0.1492 -0.0349,-0.2889 0,-0.3217 0.0677,-0.8213 0.2032,-1.4986 0.0296,-0.2244 0.0582,-0.6297 0.0857,-1.216 0.0275,-0.5863 0.0625,-0.9769 0.1048,-1.1716 0.0677,-0.2963 0.1863,-0.4339 0.3556,-0.4128 0.1228,0.017 0.2392,0.2667 0.3493,0.7493 0.11,0.4826 0.218,0.9737 0.3238,1.4732 0.1439,0.635 0.2963,1.0986 0.4572,1.3907 0.2413,-0.6689 0.4212,-1.3504 0.5398,-2.0447 0.0592,-0.3895 0.1206,-0.7789 0.1841,-1.1684 0.055,-0.2455 0.1693,-0.3683 0.3429,-0.3683 0.0974,0 0.2074,0.1799 0.3302,0.5397 0.0974,0.2921 0.1863,0.6245 0.2667,0.997 0.0339,0.182 0.0677,0.3641 0.1016,0.5461 0.1439,0.4149 0.2498,0.7281 0.3175,0.9398 0.2117,0.635 0.3175,0.98 0.3175,1.035zm2.1908 -2.9591c0,0.199 -0.072,0.381 -0.2159,0.5461 -0.1058,0.1228 -0.309,0.29 -0.6096,0.5017l0.3937 0.1016c0.1016,0.0508 0.1524,0.2011 0.1524,0.4508 0,0.4742 -0.2222,0.9356 -0.6667,1.3843 -0.3937,0.398 -0.7303,0.597 -1.0097,0.597 -0.0889,0 -0.1482,-0.2297 -0.1778,-0.689 -0.0296,-0.4593 -0.0444,-1.1526 -0.0444,-2.0797 0,-0.4064 0.0021,-0.7164 0.0063,-0.9302 0.0042,-0.2138 0.0085,-0.4202 0.0127,-0.6192 0.1143,-0.0084 0.2223,-0.0158 0.3239,-0.0222 0.1016,-0.0063 0.1714,-0.0095 0.2095,-0.0095 0.5757,0 0.9906,0.0656 1.2446,0.1968 0.254,0.1313 0.381,0.3218 0.381,0.5715zm-0.5651 0.1016c0,-0.1058 -0.0508,-0.182 -0.1524,-0.2286 -0.1524,-0.0719 -0.4318,-0.1079 -0.8382,-0.1079 -0.0085,0.0804 -0.0149,0.2381 -0.0191,0.4731 -0.0042,0.2349 -0.0063,0.4879 -0.0063,0.7588 0.1989,-0.1143 0.3979,-0.2307 0.5969,-0.3493 0.2794,-0.1778 0.4191,-0.3598 0.4191,-0.5461zm-0.2921 1.6637c0,-0.0381 0,-0.0677 0,-0.0889 0,-0.055 -0.0043,-0.0931 -0.0127,-0.1143 -0.0297,-0.0719 -0.1059,-0.1079 -0.2286,-0.1079 -0.0805,0 -0.1694,0.0201 -0.2667,0.0603 -0.0974,0.0402 -0.1757,0.09 -0.235,0.1492l0 1.1303c0.2117,-0.0846 0.3884,-0.2233 0.5302,-0.4159 0.1418,-0.1926 0.2128,-0.3969 0.2128,-0.6128zm4.0894 1.2954c-0.0085,0.0551 -0.0212,0.0953 -0.0381,0.1207 -0.0508,0.0804 -0.1376,0.1206 -0.2603,0.1206 -0.3599,0 -0.7557,-0.1778 -1.1875,-0.5334 -0.4318,-0.3556 -0.6286,-0.6455 -0.5905,-0.8699 0,-0.0466 0.2349,-0.1863 0.7048,-0.4191 0.4699,-0.2328 0.7049,-0.4868 0.7049,-0.762 0,-0.2709 -0.1038,-0.5101 -0.3112,-0.7176 -0.2074,-0.2074 -0.453,-0.3111 -0.7366,-0.3111 -0.1778,0 -0.3492,0.0381 -0.5143,0.1143l0 2.4193c0,0.4742 -0.0223,0.8308 -0.0657,1.07 -0.0444,0.2392 -0.1164,0.3588 -0.2169,0.3588 -0.126,0 -0.2138,-0.1281 -0.2646,-0.3842 -0.0497,-0.2561 -0.0751,-0.6233 -0.0751,-1.1017l0 -1.7971c0,-0.5461 0.0582,-0.89 0.1746,-1.0318 0.1153,-0.1418 0.3958,-0.2128 0.8392,-0.2128 0.5112,0 0.9166,0.1016 1.2161,0.3048 0.346,0.2329 0.5196,0.5821 0.5196,1.0478 0,0.4149 -0.0868,0.7218 -0.2603,0.9207 -0.1567,0.1778 -0.4975,0.3874 -1.0224,0.6287 0.2244,0.2794 0.4741,0.4889 0.7493,0.6286 0.4233,0.2159 0.635,0.3514 0.635,0.4064zm2.14 -0.381c0,0.1609 -0.1482,0.29 -0.4445,0.3874 -0.254,0.0847 -0.5355,0.127 -0.8445,0.127 -0.1567,0 -0.2689,-0.0783 -0.3366,-0.235 -0.0508,-0.1185 -0.0762,-0.2783 -0.0762,-0.4773 -0.0042,-0.182 -0.0085,-0.3344 -0.0127,-0.4582 -0.0296,-0.8774 -0.0444,-1.5177 -0.0444,-1.9198 0,-0.4964 0.0127,-0.8964 0.0381,-1.2023l1.1239 -0.1397c0.0423,0 0.072,0 0.0889,0 0.1101,0 0.1969,0.0201 0.2604,0.0603 0.0635,0.0402 0.0952,0.1027 0.0952,0.1873 0,0.072 -0.0423,0.1376 -0.127,0.1969 -0.0847,0.0593 -0.1799,0.0995 -0.2857,0.1206l-0.5842 0.108 0 1.2509 0.5207 -0.0254c0.1651,0 0.2815,0.0297 0.3492,0.0889 0.0677,0.0593 0.1016,0.1397 0.1016,0.2413 0,0.0847 -0.0349,0.1535 -0.1048,0.2064 -0.0698,0.0529 -0.1534,0.0794 -0.2508,0.0794l-0.5778 0.0381 0.0381 1.1747c0.0846,0 0.1957,-0.0095 0.3333,-0.0285 0.1376,-0.0191 0.2657,-0.0371 0.3842,-0.054 0.1058,0 0.1916,0.0201 0.2572,0.0603 0.0656,0.0402 0.0984,0.1111 0.0984,0.2127zm4.6609 0c0,0.1609 -0.1482,0.29 -0.4445,0.3874 -0.254,0.0847 -0.5355,0.127 -0.8445,0.127 -0.1567,0 -0.2689,-0.0783 -0.3366,-0.235 -0.0508,-0.1185 -0.0762,-0.2783 -0.0762,-0.4773 -0.0042,-0.182 -0.0085,-0.3344 -0.0127,-0.4582 -0.0296,-0.8774 -0.0444,-1.5177 -0.0444,-1.9198 0,-0.4964 0.0127,-0.8964 0.0381,-1.2023l1.1239 -0.1397c0.0423,0 0.072,0 0.0889,0 0.1101,0 0.1969,0.0201 0.2604,0.0603 0.0635,0.0402 0.0952,0.1027 0.0952,0.1873 0,0.072 -0.0423,0.1376 -0.127,0.1969 -0.0847,0.0593 -0.1799,0.0995 -0.2857,0.1206l-0.5842 0.108 0 1.2509 0.5207 -0.0254c0.1651,0 0.2815,0.0297 0.3492,0.0889 0.0677,0.0593 0.1016,0.1397 0.1016,0.2413 0,0.0847 -0.0349,0.1535 -0.1048,0.2064 -0.0698,0.0529 -0.1534,0.0794 -0.2508,0.0794l-0.5778 0.0381 0.0381 1.1747c0.0846,0 0.1957,-0.0095 0.3333,-0.0285 0.1376,-0.0191 0.2657,-0.0371 0.3842,-0.054 0.1058,0 0.1916,0.0201 0.2572,0.0603 0.0656,0.0402 0.0984,0.1111 0.0984,0.2127zm2.7559 -0.6667c0,0.3514 -0.1418,0.6361 -0.4254,0.8541 -0.2837,0.218 -0.6329,0.327 -1.0478,0.327 -0.2286,0 -0.4635,-0.0614 -0.7048,-0.1842 -0.2413,-0.1227 -0.362,-0.2561 -0.362,-0.4 0,-0.0593 0.0286,-0.1154 0.0857,-0.1683 0.0572,-0.0529 0.1217,-0.0794 0.1937,-0.0794 0.0254,0 0.1503,0.0519 0.3747,0.1556 0.2243,0.1037 0.3725,0.1556 0.4445,0.1556 0.2286,0 0.4222,-0.055 0.581,-0.1651 0.1587,-0.1101 0.2381,-0.2625 0.2381,-0.4572 0,-0.2032 -0.1799,-0.3916 -0.5397,-0.5652 -0.3387,-0.1566 -0.6774,-0.3132 -1.016,-0.4699 -0.3641,-0.2116 -0.5461,-0.4572 -0.5461,-0.7366 0,-0.2963 0.1608,-0.5831 0.4826,-0.8604 0.3217,-0.2773 0.6752,-0.4159 1.0604,-0.4159 0.2709,0 0.4445,0.0042 0.5207,0.0127 0.2413,0.0254 0.362,0.1291 0.362,0.3111 0,0.1313 -0.2943,0.2202 -0.8827,0.2667 -0.5884,0.0466 -0.8826,0.2646 -0.8826,0.6541 0,0.2074 0.1778,0.3725 0.5334,0.4953 0.6011,0.2032 0.9313,0.3217 0.9906,0.3556 0.3598,0.2032 0.5397,0.508 0.5397,0.9144z"/>
  <g id="_658930176">
   <path id="_658932096" class="fil7 str3" d="M121.328 96.6132c27.5756,0 25.331,17.4867 25.331,31.4742 0,13.9875 -11.3435,19.1879 -25.331,19.1879 -13.9875,0 -25.3311,-5.2004 -25.3311,-19.1879 0,-13.9875 -2.2446,-31.4742 25.3311,-31.4742z"/>
   <g>
    <path id="_658932024" class="fil5" d="M87.0137 97.1973c3.3347,3.8004 5.1612,-4.7226 15.0558,-2.1414 9.8946,2.5812 19.9039,2.5179 17.4357,-6.4775 -4.2179,-15.3726 -35.8262,4.8185 -32.4915,8.6189zm68.6296 0c-3.3347,3.8004 -5.1612,-4.7226 -15.0558,-2.1414 -9.8946,2.5812 -19.9039,2.5179 -17.4357,-6.4775 4.2179,-15.3726 35.8262,4.8185 32.4915,8.6189z"/>
    <g style="clip-path:url(#id15)">
     <g>
      <g>
       <g>
        <path id="_4846164161" class="fil6" d="M108.544 66.719c0,0 -4.1728,15.2677 -5.4402,31.4422 -1.2671,16.1742 -0.1034,29.1384 -0.1034,29.1384 0,0 2.4127,-20.8922 5.5436,-60.5806z"/>
        <path id="_484634752" class="fil6" d="M117.384 71.7053c0,0 -3.1859,17.7852 -3.4717,34.4911 -0.2854,16.7048 1.621,28.6194 1.621,28.6194 0,0 1.129,-22.104 1.8507,-63.1105z"/>
        <path id="_484623088" class="fil6" d="M125.273 71.7053c0,0 3.1857,17.786 3.4715,34.4911 0.2858,16.7048 -1.621,28.6194 -1.621,28.6194 0,0 -1.129,-22.1047 -1.8505,-63.1105z"/>
        <path id="_484611760" class="fil6" d="M134.113 66.719c0,0 4.1726,15.2677 5.44,31.4418 1.2674,16.1738 0.1034,29.1388 0.1034,29.1388 0,0 -2.4127,-20.8926 -5.5434,-60.5806z"/>
        <path id="_484632520" class="fil6" d="M141.274 62.0651c0,0 4.5741,13.888 6.2804,29.5927 1.7063,15.7051 0.9041,28.9797 0.9041,28.9797 0,0 -2.9764,-20.042 -7.1845,-58.5724z"/>
        <path id="_484608808" class="fil6" d="M101.383 62.0651c0,0 -4.5741,13.888 -6.2806,29.5927 -1.7063,15.7051 -0.9039,28.9797 -0.9039,28.9797 0,0 2.9763,-20.042 7.1845,-58.5724z"/>
       </g>
       <g>
        <path id="_484607104" class="fil6" d="M80.214 112.013c0,0 23.1731,3.5865 44.9398,3.9082 21.7652,0.3214 37.2892,-1.8248 37.2892,-1.8248 0,0 -28.8001,-1.271 -82.229,-2.0834z"/>
        <path id="_484610944" class="fil6" d="M80.214 101.884c0,0 23.1731,3.5865 44.9398,3.9082 21.7652,0.3214 37.2892,-1.8248 37.2892,-1.8248 0,0 -28.8001,-1.271 -82.229,-2.0834z"/>
        <path id="_484618288" class="fil6" d="M80.214 90.3012c0,0 23.1731,3.5865 44.9398,3.9082 21.7652,0.3214 37.2892,-1.8248 37.2892,-1.8248 0,0 -28.8001,-1.271 -82.229,-2.0834z"/>
        <path id="_484625560" class="fil6" d="M80.214 80.9271c0,0 23.1731,3.5864 44.9398,3.9082 21.7652,0.3213 37.2892,-1.8249 37.2892,-1.8249 0,0 -28.8001,-1.271 -82.229,-2.0833z"/>
       </g>
      </g>
     </g>
    </g>
    <path class="fil3 str4" d="M87.0137 97.1973c3.3347,3.8004 5.1612,-4.7226 15.0558,-2.1414 9.8946,2.5812 19.9039,2.5179 17.4357,-6.4775 -4.2179,-15.3726 -35.8262,4.8185 -32.4915,8.6189zm68.6296 0c-3.3347,3.8004 -5.1612,-4.7226 -15.0558,-2.1414 -9.8946,2.5812 -19.9039,2.5179 -17.4357,-6.4775 4.2179,-15.3726 35.8262,4.8185 32.4915,8.6189z"/>
    <path id="_658931952" class="fil5" d="M121.328 83.3152c3.1623,0 5.7267,2.5644 5.7267,5.7267 0,3.1623 -2.5644,5.7267 -5.7267,5.7267 -3.1623,0 -5.7267,-2.5644 -5.7267,-5.7267 0,-3.1623 2.5644,-5.7267 5.7267,-5.7267z"/>
    <g style="clip-path:url(#id16)">
     <g>
      <g>
       <g>
        <path id="_5905066081" class="fil6" d="M108.544 63.3203c0,0 -4.1728,15.2677 -5.4402,31.4422 -1.2671,16.1742 -0.1034,29.1384 -0.1034,29.1384 0,0 2.4127,-20.8922 5.5436,-60.5806z"/>
        <path id="_590506680" class="fil6" d="M117.384 68.3066c0,0 -3.1859,17.7852 -3.4717,34.4911 -0.2854,16.7048 1.621,28.6194 1.621,28.6194 0,0 1.129,-22.104 1.8507,-63.1105z"/>
        <path id="_590506752" class="fil6" d="M125.273 68.3066c0,0 3.1857,17.786 3.4715,34.4911 0.2858,16.7048 -1.621,28.6194 -1.621,28.6194 0,0 -1.129,-22.1047 -1.8505,-63.1105z"/>
        <path id="_591617232" class="fil6" d="M134.113 63.3203c0,0 4.1726,15.2677 5.44,31.4418 1.2674,16.1738 0.1034,29.1388 0.1034,29.1388 0,0 -2.4127,-20.8926 -5.5434,-60.5806z"/>
        <path id="_591619320" class="fil6" d="M141.274 58.6664c0,0 4.5741,13.888 6.2804,29.5927 1.7063,15.7051 0.9041,28.9797 0.9041,28.9797 0,0 -2.9764,-20.042 -7.1845,-58.5724z"/>
        <path id="_591624264" class="fil6" d="M101.383 58.6664c0,0 -4.5741,13.888 -6.2806,29.5927 -1.7063,15.7051 -0.9039,28.9797 -0.9039,28.9797 0,0 2.9763,-20.042 7.1845,-58.5724z"/>
       </g>
       <g>
        <path id="_591599808" class="fil6" d="M80.214 108.615c0,0 23.1731,3.5865 44.9398,3.9082 21.7652,0.3214 37.2892,-1.8248 37.2892,-1.8248 0,0 -28.8001,-1.271 -82.229,-2.0834z"/>
        <path id="_591598272" class="fil6" d="M80.214 98.4853c0,0 23.1731,3.5865 44.9398,3.9082 21.7652,0.3214 37.2892,-1.8248 37.2892,-1.8248 0,0 -28.8001,-1.271 -82.229,-2.0834z"/>
        <path id="_591615288" class="fil6" d="M80.214 86.9025c0,0 23.1731,3.5865 44.9398,3.9082 21.7652,0.3214 37.2892,-1.8248 37.2892,-1.8248 0,0 -28.8001,-1.271 -82.229,-2.0834z"/>
        <path id="_591603168" class="fil6" d="M80.214 77.5284c0,0 23.1731,3.5864 44.9398,3.9082 21.7652,0.3213 37.2892,-1.8249 37.2892,-1.8249 0,0 -28.8001,-1.271 -82.229,-2.0833z"/>
       </g>
      </g>
     </g>
    </g>
    <path class="fil3 str4" d="M121.328 83.3152c3.1623,0 5.7267,2.5644 5.7267,5.7267 0,3.1623 -2.5644,5.7267 -5.7267,5.7267 -3.1623,0 -5.7267,-2.5644 -5.7267,-5.7267 0,-3.1623 2.5644,-5.7267 5.7267,-5.7267z"/>
    <path id="_658931880" class="fil7 str3" d="M93.8339 125.64c0.7706,-0.4449 2.1171,0.4441 3.0069,1.9853 0.8898,1.5412 0.9865,3.1518 0.2159,3.5967 -0.7706,0.4449 -2.1171,-0.4441 -3.0069,-1.9853 -0.8898,-1.5412 -0.9865,-3.1518 -0.2159,-3.5967zm54.989 0c-0.7706,-0.4449 -2.1171,0.4441 -3.0069,1.9853 -0.8898,1.5412 -0.9865,3.1518 -0.2159,3.5967 0.7706,0.4449 2.1171,-0.4441 3.0069,-1.9853 0.8898,-1.5412 0.9865,-3.1518 0.2159,-3.5967z"/>
    <path id="_658931808" class="fil3 str3" d="M119.249 130.597c0,0 2.0466,1.2541 4.1584,0"/>
    <path id="_658931736" class="fil1 str1" d="M113.979 108.898c-0.5102,0.5597 -0.6686,2.7948 -5.7382,2.9452 -5.0695,0.1503 -5.9434,1.0812 -8.0474,6.4185 -2.104,5.3372 -3.4785,15.9207 -3.4785,15.9207 0,0 -1.4946,-6.8381 -3.1204,-11.3326 -1.6258,-4.4945 -1.7214,-16.4798 8.416,-22.5661 8.947,-5.3718 17.4457,-5.3461 19.3184,-5.2658 1.8727,-0.0803 10.3714,-0.106 19.3184,5.2658 10.1374,6.0863 10.0418,18.0716 8.416,22.5661 -1.6258,4.4945 -3.1204,11.3326 -3.1204,11.3326 0,0 -1.3745,-10.5835 -3.4785,-15.9207 -2.104,-5.3373 -17.6778,-6.2682 -22.7473,-6.4185 -5.0695,-0.1504 -5.2279,-2.3855 -5.7381,-2.9452z"/>
    <path id="_658931664" class="fil4" d="M138.32 102.41c0,0 4.0228,3.1794 3.999,7.2473 0,0 -1.7372,-3.6451 -3.999,-7.2473z"/>
    <path id="_658931592" class="fil4" d="M131.146 100.093c0,0 4.0229,3.1794 3.999,7.2474 0,0 -1.7371,-3.6452 -3.999,-7.2474z"/>
    <path id="_658931520" class="fil4" d="M123.743 98.0526c0,0 4.0228,3.1794 3.999,7.2474 0,0 -1.7372,-3.6452 -3.999,-7.2474z"/>
    <path id="_658931448" class="fil4" d="M106.182 100.093c0,0 -4.0229,3.1794 -3.999,7.2474 0,0 1.7371,-3.6452 3.999,-7.2474z"/>
    <path id="_658931376" class="fil10" d="M104.524 132.209c1.687,0 3.0552,1.368 3.0552,3.0552 0,1.6872 -1.3682,3.0552 -3.0552,3.0552 -1.6872,0 -3.0554,-1.368 -3.0554,-3.0552 0,-1.6872 1.3682,-3.0552 3.0554,-3.0552zm33.6084 0c1.6871,0 3.0553,1.3682 3.0553,3.0552 0,1.6873 -1.3682,3.0553 -3.0553,3.0553 -1.6871,0 -3.0553,-1.368 -3.0553,-3.0553 0,-1.687 1.3682,-3.0552 3.0553,-3.0552z"/>
    <path id="_658931304" class="fil0" d="M107.356 122.184c1.6523,0.4427 2.7683,1.6395 2.4915,2.6723 -0.2767,1.0329 -1.8416,1.5113 -3.4939,1.0686 -1.6523,-0.4427 -2.7683,-1.6395 -2.4915,-2.6723 0.2768,-1.0329 1.8416,-1.5113 3.4939,-1.0686z"/>
    <g style="clip-path:url(#id17)">
     <g>
      <circle id="_639670208" class="fil1" cx="106.855" cy="124.054" r="1.99056"/>
     </g>
    </g>
    <path class="fil3 str1" d="M107.356 122.184c1.6523,0.4427 2.7683,1.6395 2.4915,2.6723 -0.2767,1.0329 -1.8416,1.5113 -3.4939,1.0686 -1.6523,-0.4427 -2.7683,-1.6395 -2.4915,-2.6723 0.2768,-1.0329 1.8416,-1.5113 3.4939,-1.0686z"/>
    <path id="_658931232" class="fil1" d="M102.849 120.779c0,0 4.3353,-0.7039 8.6706,0.3986 0,0 -3.4882,-4.6841 -8.6706,-0.3986z"/>
    <path id="_658931160" class="fil0" d="M135.416 122.184c-1.6523,0.4427 -2.7682,1.6395 -2.4915,2.6723 0.2768,1.0329 1.8416,1.5113 3.4939,1.0686 1.6523,-0.4427 2.7683,-1.6395 2.4915,-2.6723 -0.2767,-1.0329 -1.8415,-1.5113 -3.4939,-1.0686z"/>
    <g style="clip-path:url(#id18)">
     <g>
      <circle id="_639668480" class="fil1" cx="135.917" cy="124.054" r="1.99056"/>
     </g>
    </g>
    <path class="fil3 str1" d="M135.416 122.184c-1.6523,0.4427 -2.7682,1.6395 -2.4915,2.6723 0.2768,1.0329 1.8416,1.5113 3.4939,1.0686 1.6523,-0.4427 2.7683,-1.6395 2.4915,-2.6723 -0.2767,-1.0329 -1.8415,-1.5113 -3.4939,-1.0686z"/>
    <path id="_658931088" class="fil1" d="M139.924 120.779c0,0 -4.3353,-0.7039 -8.6707,0.3986 0,0 3.4882,-4.6841 8.6707,-0.3986z"/>
    <g>
     <g>
      <path id="_658931016" class="fil9" d="M96.2156 136.45c0.4458,0.1383 0.7855,0.8485 0.7855,1.7036 0,0.9543 -0.423,1.7281 -0.9445,1.7281 -0.5216,0 -0.9446,-0.7738 -0.9446,-1.7281 0,-0.8551 0.3397,-1.5653 0.7856,-1.7036l0 -6.7383 0.318 0 0 6.7383z"/>
      <path id="_658930944" class="fil9" d="M95.4206 139.127c0.4458,0.1383 0.7855,0.8485 0.7855,1.7036 0,0.9543 -0.423,1.7281 -0.9445,1.7281 -0.5216,0 -0.9446,-0.7738 -0.9446,-1.7281 0,-0.8551 0.3397,-1.5653 0.7856,-1.7036l0 -9.4383 0.318 0 0 9.4383z"/>
     </g>
     <g>
      <path id="_658930848" class="fil9" d="M146.441 136.45c-0.4458,0.1383 -0.7855,0.8485 -0.7855,1.7036 0,0.9543 0.423,1.7281 0.9445,1.7281 0.5216,0 0.9446,-0.7738 0.9446,-1.7281 0,-0.8551 -0.3397,-1.5653 -0.7856,-1.7036l0 -6.7383 -0.318 0 0 6.7383z"/>
      <path id="_658930776" class="fil9" d="M147.236 139.127c-0.4458,0.1383 -0.7855,0.8485 -0.7855,1.7036 0,0.9543 0.423,1.7281 0.9445,1.7281 0.5216,0 0.9446,-0.7738 0.9446,-1.7281 0,-0.8551 -0.3397,-1.5653 -0.7856,-1.7036l0 -9.4383 -0.318 0 0 9.4383z"/>
     </g>
    </g>
    <path id="_658930656" class="fil5" d="M98.1551 112.67c-1.9494,6.7668 -2.3274,14.6901 -1.3857,21.7029 0,0 -2.436,-5.9426 -4.1045,-8.7327 -1.6684,-2.7901 -8.2749,-16.0991 3.6859,-28.3906 10.6487,-10.9431 39.3066,-10.9431 49.9553,0 11.9608,12.2915 5.3543,25.6005 3.6859,28.3906 -1.6685,2.7901 -4.1045,8.7327 -4.1045,8.7327 0,0 1.547,-11.5228 -1.3857,-21.7029 -4.5128,-15.6653 -41.8339,-15.6653 -46.3467,0z"/>
    <g style="clip-path:url(#id19)">
     <g>
      <g>
       <g>
        <path id="_6395013761" class="fil6" d="M108.144 79.9856c0,0 -4.1728,15.2677 -5.4402,31.4422 -1.2671,16.1742 -0.1034,29.1384 -0.1034,29.1384 0,0 2.4127,-20.8922 5.5436,-60.5806z"/>
        <path id="_639501304" class="fil6" d="M116.984 84.9719c0,0 -3.1859,17.7852 -3.4717,34.4911 -0.2854,16.7048 1.621,28.6194 1.621,28.6194 0,0 1.129,-22.104 1.8507,-63.1105z"/>
        <path id="_639501232" class="fil6" d="M124.873 84.9719c0,0 3.1857,17.786 3.4715,34.4911 0.2858,16.7048 -1.621,28.6194 -1.621,28.6194 0,0 -1.129,-22.1047 -1.8505,-63.1105z"/>
        <path id="_639501160" class="fil6" d="M133.713 79.9856c0,0 4.1726,15.2677 5.44,31.4418 1.2674,16.1738 0.1034,29.1388 0.1034,29.1388 0,0 -2.4127,-20.8926 -5.5434,-60.5806z"/>
        <path id="_639501088" class="fil6" d="M140.874 75.3317c0,0 4.5741,13.888 6.2804,29.5927 1.7063,15.7051 0.9041,28.9797 0.9041,28.9797 0,0 -2.9764,-20.042 -7.1845,-58.5724z"/>
        <path id="_639501016" class="fil6" d="M100.983 75.3317c0,0 -4.5741,13.888 -6.2806,29.5927 -1.7063,15.7051 -0.9039,28.9797 -0.9039,28.9797 0,0 2.9763,-20.042 7.1845,-58.5724z"/>
       </g>
       <g>
        <path id="_639500920" class="fil6" d="M79.8139 125.28c0,0 23.1731,3.5865 44.9398,3.9082 21.7652,0.3214 37.2892,-1.8248 37.2892,-1.8248 0,0 -28.8001,-1.271 -82.229,-2.0834z"/>
        <path id="_639500848" class="fil6" d="M79.8139 115.151c0,0 23.1731,3.5865 44.9398,3.9082 21.7652,0.3214 37.2892,-1.8248 37.2892,-1.8248 0,0 -28.8001,-1.271 -82.229,-2.0834z"/>
        <path id="_639500776" class="fil6" d="M79.8139 103.568c0,0 23.1731,3.5865 44.9398,3.9082 21.7652,0.3214 37.2892,-1.8248 37.2892,-1.8248 0,0 -28.8001,-1.271 -82.229,-2.0834z"/>
        <path id="_639500704" class="fil6" d="M79.8139 94.1937c0,0 23.1731,3.5864 44.9398,3.9082 21.7652,0.3213 37.2892,-1.8249 37.2892,-1.8249 0,0 -28.8001,-1.271 -82.229,-2.0833z"/>
       </g>
      </g>
     </g>
    </g>
    <path class="fil3 str4" d="M98.1551 112.67c-1.9494,6.7668 -2.3274,14.6901 -1.3857,21.7029 0,0 -2.436,-5.9426 -4.1045,-8.7327 -1.6684,-2.7901 -8.2749,-16.0991 3.6859,-28.3906 10.6487,-10.9431 39.3066,-10.9431 49.9553,0 11.9608,12.2915 5.3543,25.6005 3.6859,28.3906 -1.6685,2.7901 -4.1045,8.7327 -4.1045,8.7327 0,0 1.547,-11.5228 -1.3857,-21.7029 -4.5128,-15.6653 -41.8339,-15.6653 -46.3467,0z"/>
    <g>
     <g>
      <path id="_658930584" class="fil0" d="M95.7621 141.23c-0.0809,0.5902 -0.3057,1.0149 -0.5703,1.0149 -0.3326,0 -0.6023,-0.6711 -0.6023,-1.4985 0,-0.4351 0.0746,-0.8269 0.1937,-1.1007 -0.0208,0.1517 -0.0321,0.3144 -0.0321,0.4836 0,0.8275 0.2697,1.4986 0.6023,1.4986 0.1578,0 0.3013,-0.151 0.4087,-0.3979z"/>
      <path id="_658930512" class="fil0" d="M96.6158 138.581c-0.0809,0.5902 -0.3057,1.0149 -0.5703,1.0149 -0.3326,0 -0.6023,-0.6711 -0.6023,-1.4985 0,-0.4351 0.0746,-0.8269 0.1937,-1.1007 -0.0208,0.1517 -0.0321,0.3144 -0.0321,0.4836 0,0.8275 0.2697,1.4986 0.6023,1.4986 0.1578,0 0.3013,-0.151 0.4087,-0.3979z"/>
     </g>
     <g>
      <path id="_658930416" class="fil0" d="M146.895 141.23c0.0809,0.5902 0.3057,1.0149 0.5703,1.0149 0.3326,0 0.6023,-0.6711 0.6023,-1.4985 0,-0.4351 -0.0746,-0.8269 -0.1937,-1.1007 0.0208,0.1517 0.0321,0.3144 0.0321,0.4836 0,0.8275 -0.2697,1.4986 -0.6023,1.4986 -0.1578,0 -0.3013,-0.151 -0.4087,-0.3979z"/>
      <path id="_658930344" class="fil0" d="M146.041 138.581c0.0809,0.5902 0.3057,1.0149 0.5703,1.0149 0.3326,0 0.6023,-0.6711 0.6023,-1.4985 0,-0.4351 -0.0746,-0.8269 -0.1937,-1.1007 0.0208,0.1517 0.0321,0.3144 0.0321,0.4836 0,0.8275 -0.2697,1.4986 -0.6023,1.4986 -0.1578,0 -0.3013,-0.151 -0.4087,-0.3979z"/>
     </g>
    </g>
   </g>
   <path id="_658930200" class="fil11 str7" d="M124.095 139.078c0,1.5276 -1.2389,2.7665 -2.7665,2.7665 -1.5276,0 -2.7665,-1.2389 -2.7665,-2.7665l5.533 0z"/>
  </g>
  <g id="_658929120">
   <path id="_658930104" class="fil12" d="M272.106 115.475c-1.61,0.6556 -1.5438,4.0138 1.1649,3.5986 2.7086,-0.4153 1.4116,-4.6478 -1.1649,-3.5986z"/>
   <path id="_658930032" class="fil13" d="M272.256 116.37c-0.9353,0.2833 -0.7449,2.1079 0.8594,2.0042 0.3851,-0.0249 0.6217,-0.1796 0.7387,-0.3939 -0.0509,0.0092 -0.1048,0.0162 -0.1622,0.0199 -1.2757,0.0824 -1.6572,-1.0543 -1.2899,-1.6659 -0.0481,0.009 -0.0967,0.0207 -0.146,0.0357z"/>
   <path id="_658929960" class="fil7 str6" d="M221.264 128.872c0.7523,-0.4343 2.0669,0.4336 2.9356,1.9383 0.8687,1.5047 0.9631,3.0771 0.2108,3.5115 -0.7523,0.4343 -2.0669,-0.4336 -2.9356,-1.9383 -0.8688,-1.5047 -0.9631,-3.0771 -0.2108,-3.5115zm53.6856 0c-0.7523,-0.4343 -2.0669,0.4336 -2.9356,1.9383 -0.8687,1.5047 -0.9631,3.0771 -0.2108,3.5115 0.7524,0.4343 2.0669,-0.4336 2.9357,-1.9383 0.8687,-1.5047 0.9631,-3.0771 0.2107,-3.5115z"/>
   <path id="_658929888" class="fil7 str3" d="M248.107 100.533c26.922,0 24.7306,17.0723 24.7306,30.7282 0,13.656 -11.0747,18.7332 -24.7306,18.7332 -13.656,0 -24.7307,-5.0772 -24.7307,-18.7332 0,-13.6559 -2.1914,-30.7282 24.7307,-30.7282z"/>
   <path id="_658929816" class="fil3 str3" d="M246.077 134.762c0,0 1.9981,1.1768 4.0599,0"/>
   <path id="_658929744" class="fil1 str8" d="M246.28 113.54c-0.5978,-0.3337 -3.0619,2.5442 -5.3395,2.4208 -3.5165,-0.1904 0.594,-4.7758 -1.598,-4.5787 -13.0095,1.1695 -15.0375,14.6251 -15.2668,23.798 0,0 -1.4592,-4.6446 -3.0464,-9.0326 -1.5873,-4.388 -1.6807,-16.0893 8.2165,-22.0313 8.7349,-5.2444 17.0322,-5.2193 18.8605,-5.141 1.8283,-0.0783 10.1256,-0.1034 18.8605,5.141 9.8972,5.942 9.8038,17.6433 8.2165,22.0313 -1.5873,4.388 -3.0464,9.0326 -3.0464,9.0326 -0.0564,-8.0406 -1.2704,-19.2135 -10.3955,-22.3695 -2.9099,-1.0066 -2.5776,3.7752 -7.6827,3.8103 -0.9999,0.0068 1.756,-3.9445 0.7367,-3.8716 -4.2304,0.3027 -3.9314,5.0216 -8.0463,4.9023 -2.9861,-0.0866 1.3537,-3.094 -0.4691,-4.1116z"/>
   <path id="_658929672" class="fil10" d="M231.701 135.285c1.6471,0 2.9829,1.3357 2.9829,2.9829 0,1.6471 -1.3358,2.9828 -2.9829,2.9828 -1.6471,0 -2.9829,-1.3357 -2.9829,-2.9828 0,-1.6472 1.3358,-2.9829 2.9829,-2.9829zm32.812 0c1.647,0 2.9828,1.3359 2.9828,2.9829 0,1.6472 -1.3358,2.9829 -2.9828,2.9829 -1.6472,0 -2.983,-1.3357 -2.983,-2.9829 0,-1.647 1.3358,-2.9829 2.983,-2.9829z"/>
   <path id="_658929600" class="fil1" d="M266.78 124.546c0,0 -4.4428,-0.6873 -8.6754,0.3892 0,0 -0.6761,-1.7066 0.8925,-2.4354 0.9397,-0.4363 4.79,-0.5263 5.9579,-0.512 1.2019,0.0147 1.825,2.5582 1.825,2.5582z"/>
   <path id="_658929528" class="fil1" d="M229.566 124.546c0,0 4.4427,-0.6873 8.6753,0.3892 0,0 0.6762,-1.7066 -0.8924,-2.4354 -0.9397,-0.4363 -4.79,-0.5263 -5.958,-0.512 -1.2018,0.0147 -1.8249,2.5582 -1.8249,2.5582z"/>
   <path id="_658929456" class="fil0" d="M262.37 125.562c-1.7106,0 -3.0982,0.8671 -3.0982,1.9365 0,1.0693 1.3876,1.9364 3.0982,1.9364 1.7106,0 3.0983,-0.8671 3.0983,-1.9364 0,-1.0694 -1.3877,-1.9365 -3.0983,-1.9365z"/>
   <g style="clip-path:url(#id20)">
    <g>
     <circle id="_639666752" class="fil1" transform="matrix(-2.81926 -0.755418 -0.755418 2.81926 262.37 127.499)" r="0.682"/>
    </g>
   </g>
   <path class="fil3 str1" d="M262.37 125.562c-1.7106,0 -3.0982,0.8671 -3.0982,1.9365 0,1.0693 1.3876,1.9364 3.0982,1.9364 1.7106,0 3.0983,-0.8671 3.0983,-1.9364 0,-1.0694 -1.3877,-1.9365 -3.0983,-1.9365z"/>
   <path id="_658929384" class="fil0" d="M233.976 125.562c1.7106,0 3.0982,0.8671 3.0982,1.9365 0,1.0693 -1.3876,1.9364 -3.0982,1.9364 -1.7106,0 -3.0983,-0.8671 -3.0983,-1.9364 0,-1.0694 1.3877,-1.9365 3.0983,-1.9365z"/>
   <g style="clip-path:url(#id21)">
    <g>
     <circle id="_639665024" class="fil1" transform="matrix(2.81926 -0.755418 0.755418 2.81926 233.976 127.499)" r="0.682"/>
    </g>
   </g>
   <path class="fil3 str1" d="M233.976 125.562c1.7106,0 3.0982,0.8671 3.0982,1.9365 0,1.0693 -1.3876,1.9364 -3.0982,1.9364 -1.7106,0 -3.0983,-0.8671 -3.0983,-1.9364 0,-1.0694 1.3877,-1.9365 3.0983,-1.9365z"/>
   <g>
    <path id="_658929312" class="fil2" d="M223.284 97.5905c0,7.9808 0,9.788 0,9.788l49.6463 0c0,0 0,-2.1313 0,-9.788 0,-8.3052 -17.1505,-14.1114 -24.8231,-13.2372 -7.6727,-0.8742 -24.8232,5.2563 -24.8232,13.2372z"/>
    <g style="clip-path:url(#id22)">
     <g>
      <ellipse id="_637305944" class="fil4" cx="248.107" cy="112.97" rx="45.4898" ry="15.4548"/>
     </g>
    </g>
    <path class="fil3 str9" d="M223.284 97.5905c0,7.9808 0,9.788 0,9.788l49.6463 0c0,0 0,-2.1313 0,-9.788 0,-8.3052 -17.1505,-14.1114 -24.8231,-13.2372 -7.6727,-0.8742 -24.8232,5.2563 -24.8232,13.2372z"/>
    <ellipse id="_658929240" class="fil2 str9" cx="248.107" cy="107.808" rx="39.5152" ry="3.20593"/>
   </g>
   <path id="_658929144" class="fil11 str7" d="M250.873 141.587c0,1.5276 -1.2389,2.7665 -2.7665,2.7665 -1.5276,0 -2.7665,-1.2389 -2.7665,-2.7665l5.533 0z"/>
  </g>
  <g id="_658928952">
   <path id="_658929048" class="fil7 str3" d="M101.797 183.597c0.2649,1.9747 2.1689,4.5389 1.8828,5.028 -0.2862,0.4891 -0.6328,0.5989 -2.7992,-0.6572 -1.0723,1.5706 1.2401,4.7598 -0.2756,5.2858 -0.9786,0.3395 -1.7885,-2.3954 -1.9859,-3.2469 -1.548,0.7783 0.5369,4.1577 -1.1818,4.2774 -1.0669,0.0736 -1.1651,-3.2071 -1.0827,-4.1321 -1.6212,-0.1427 -0.3084,3.1184 -1.8406,2.9448 -1.0205,-0.1158 -0.5695,-2.9939 -0.4138,-3.8275 -0.9365,-0.7018 -0.8148,1.7632 -1.7091,1.47 -0.7301,-0.2393 -0.7032,-0.855 0.0685,-2.8803 0.4297,-1.127 0.5734,-2.8396 1.0906,-4.4095l0.0085 0.1475 8.2383 0z"/>
   <path id="_658928976" class="fil5" d="M106.583 151.441c-2.9912,0.4362 -7.0418,1.9941 -10.3446,12.5257 -3.3028,10.5316 -2.6796,19.6299 -2.6796,19.6299l8.2881 0c0,0 1.5116,-15.0568 3.2565,-18.6088 1.7449,-3.5521 1.4796,-13.5468 1.4796,-13.5468z"/>
   <g style="clip-path:url(#id23)">
    <g>
     <g>
      <g>
       <path id="_6383362801" class="fil6" d="M91.9184 147.331c0,0 -2.6555,9.7164 -3.4621,20.0099 -0.8064,10.2932 -0.0658,18.5437 -0.0658,18.5437 0,0 1.5355,-13.2958 3.5279,-38.5536z"/>
       <path id="_638336208" class="fil6" d="M97.5447 150.505c0,0 -2.0275,11.3186 -2.2094,21.9502 -0.1817,10.6309 1.0316,18.2134 1.0316,18.2134 0,0 0.7185,-14.067 1.1778,-40.1636z"/>
       <path id="_638336136" class="fil6" d="M102.565 150.505c0,0 2.0274,11.3191 2.2093,21.9502 0.1819,10.6309 -1.0316,18.2134 -1.0316,18.2134 0,0 -0.7185,-14.0675 -1.1777,-40.1636z"/>
       <path id="_638336064" class="fil6" d="M108.191 147.331c0,0 2.6554,9.7164 3.462,20.0097 0.8065,10.2929 0.0658,18.5439 0.0658,18.5439 0,0 -1.5355,-13.2961 -3.5278,-38.5536z"/>
       <path id="_638335992" class="fil6" d="M112.748 144.369c0,0 2.911,8.8384 3.9969,18.8328 1.0859,9.9947 0.5754,18.4427 0.5754,18.4427 0,0 -1.8942,-12.7547 -4.5723,-37.2755z"/>
       <path id="_638335920" class="fil6" d="M87.3614 144.369c0,0 -2.9109,8.8384 -3.9969,18.8328 -1.0859,9.9947 -0.5753,18.4427 -0.5753,18.4427 0,0 1.8942,-12.7547 4.5722,-37.2755z"/>
      </g>
      <g>
       <path id="_638335824" class="fil6" d="M73.8894 176.157c0,0 14.7474,2.2824 28.5997,2.4872 13.8514,0.2045 23.7309,-1.1614 23.7309,-1.1614 0,0 -18.3284,-0.8088 -52.3306,-1.3258z"/>
       <path id="_638335752" class="fil6" d="M73.8894 169.71c0,0 14.7474,2.2824 28.5997,2.4872 13.8514,0.2045 23.7309,-1.1614 23.7309,-1.1614 0,0 -18.3284,-0.8088 -52.3306,-1.3258z"/>
       <path id="_638335680" class="fil6" d="M73.8894 162.339c0,0 14.7474,2.2824 28.5997,2.4872 13.8514,0.2045 23.7309,-1.1614 23.7309,-1.1614 0,0 -18.3284,-0.8088 -52.3306,-1.3258z"/>
       <path id="_638335608" class="fil6" d="M73.8894 156.373c0,0 14.7474,2.2824 28.5997,2.4872 13.8514,0.2045 23.7309,-1.1614 23.7309,-1.1614 0,0 -18.3284,-0.8088 -52.3306,-1.3258z"/>
      </g>
     </g>
     <rect id="_638335488" class="fil6" x="91.8983" y="180.355" width="11.6092" height="3.24143"/>
    </g>
   </g>
   <path class="fil3 str2" d="M106.583 151.441c-2.9912,0.4362 -7.0418,1.9941 -10.3446,12.5257 -3.3028,10.5316 -2.6796,19.6299 -2.6796,19.6299l8.2881 0c0,0 1.5116,-15.0568 3.2565,-18.6088 1.7449,-3.5521 1.4796,-13.5468 1.4796,-13.5468z"/>
  </g>
 </g>
</svg>
