<?xml version="1.0" encoding="UTF-8"?>
<!DOCTYPE svg PUBLIC "-//W3C//DTD SVG 1.1//EN" "http://www.w3.org/Graphics/SVG/1.1/DTD/svg11.dtd">
<!-- Creator: CorelDRAW -->
<svg xmlns="http://www.w3.org/2000/svg" xml:space="preserve" width="420mm" height="297mm" style="shape-rendering:geometricPrecision; text-rendering:geometricPrecision; image-rendering:optimizeQuality; fill-rule:evenodd; clip-rule:evenodd"
viewBox="0 0 420 297"
 xmlns:xlink="http://www.w3.org/1999/xlink">
 <defs>
  <style type="text/css">
   <![CDATA[
    .str9 {stroke:#8F5444;stroke-width:0.5;stroke-linecap:round;stroke-linejoin:round}
    .str6 {stroke:#1F1A17;stroke-width:0.75;stroke-linecap:round;stroke-linejoin:round}
    .str3 {stroke:#383431;stroke-width:0.75;stroke-linecap:round;stroke-linejoin:round}
    .str4 {stroke:#4C4840;stroke-width:0.75;stroke-linecap:round;stroke-linejoin:round}
    .str0 {stroke:#8F5444;stroke-width:0.75;stroke-linecap:round;stroke-linejoin:round}
    .str11 {stroke:#969594;stroke-width:0.75;stroke-linecap:round;stroke-linejoin:round}
    .str1 {stroke:#8F6D5A;stroke-width:0.75}
    .str2 {stroke:#8F6D5A;stroke-width:0.75;stroke-linecap:round;stroke-linejoin:round}
    .str5 {stroke:#453C35;stroke-width:0.75;stroke-linecap:round;stroke-linejoin:round}
    .str7 {stroke:#542829;stroke-width:0.75;stroke-linecap:round;stroke-linejoin:round}
    .str12 {stroke:#8A2C2F;stroke-width:0.75;stroke-linecap:round;stroke-linejoin:round}
    .str10 {stroke:#8F5444;stroke-linecap:round;stroke-linejoin:round}
    .str8 {stroke:#3D2A2A;stroke-linecap:round;stroke-linejoin:round}
    .str13 {stroke:#1F1A17;stroke-width:1.5;stroke-linecap:round;stroke-linejoin:round}
    .fil3 {fill:none}
    .fil10 {fill:#1F1A17}
    .fil4 {fill:#383431}
    .fil11 {fill:#4D4948}
    .fil6 {fill:#605D5C}
    .fil5 {fill:#716F61}
    .fil7 {fill:#969594}
    .fil17 {fill:#B76767}
    .fil18 {fill:#C2C1C1}
    .fil16 {fill:#DB214C}
    .fil12 {fill:#E77817}
    .fil14 {fill:white}
    .fil2 {fill:#8F6D5A}
    .fil0 {fill:#C3957D}
    .fil9 {fill:#453C35}
    .fil13 {fill:#542829}
    .fil8 {fill:#615649}
    .fil1 {fill:#E0CFBF}
    .fil15 {fill:#1F1A17;fill-rule:nonzero}
   ]]>
  </style>
     <clipPath id="id0">
      <path d="M273.102 161.736c-5.8629,-9.1268 -11.3395,-10.956 -13.0932,-9.2024 -1.7677,1.7676 2.4595,9.6157 4.9353,12.7023 0.8278,1.0319 1.1303,1.9184 0.8419,2.5232 2.1881,-0.6787 5.345,-3.4044 7.316,-6.0231z"/>
     </clipPath>
      <clipPath id="id1">
       <path d="M260.839 158.285c1.7216,-1.25 3.762,-2.6156 5.9237,-4.0003 1.3996,1.1315 2.9244,2.7089 4.5052,4.8088 -2.5559,1.6703 -5.011,3.4225 -7.0649,5.1503 -1.129,-1.604 -2.4313,-3.8438 -3.364,-5.9588z"/>
      </clipPath>
      <clipPath id="id2">
       <path d="M273.102 161.736c-5.8629,-9.1268 -11.3395,-10.956 -13.0932,-9.2024 -1.7677,1.7676 2.4595,9.6157 4.9353,12.7023 0.8278,1.0319 1.1303,1.9184 0.8419,2.5232 2.1881,-0.6787 5.345,-3.4044 7.316,-6.0231z"/>
      </clipPath>
     <clipPath id="id3">
      <path d="M223.111 161.736c5.8629,-9.1268 11.3395,-10.956 13.0932,-9.2024 1.7677,1.7676 -2.4595,9.6157 -4.9353,12.7023 -0.8278,1.0319 -1.1303,1.9184 -0.8419,2.5232 -2.1881,-0.6787 -5.345,-3.4044 -7.316,-6.0231z"/>
     </clipPath>
      <clipPath id="id4">
       <path d="M235.374 158.285c-1.7216,-1.25 -3.762,-2.6156 -5.9237,-4.0003 -1.3996,1.1315 -2.9244,2.7089 -4.5052,4.8088 2.5559,1.6703 5.011,3.4225 7.0649,5.1503 1.129,-1.604 2.4313,-3.8438 3.364,-5.9588z"/>
      </clipPath>
      <clipPath id="id5">
       <path d="M223.111 161.736c5.8629,-9.1268 11.3395,-10.956 13.0932,-9.2024 1.7677,1.7676 -2.4595,9.6157 -4.9353,12.7023 -0.8278,1.0319 -1.1303,1.9184 -0.8419,2.5232 -2.1881,-0.6787 -5.345,-3.4044 -7.316,-6.0231z"/>
      </clipPath>
       <clipPath id="id6">
        <path d="M245.17 212.986c0.2657,-3.4711 -2.3037,-5.0804 -5.6044,-5.3331 -3.3006,-0.2527 -6.0849,0.9468 -6.3506,4.418 -0.1139,1.4873 0.0848,3.8188 6.1394,3.9695 6.0545,0.1506 5.7021,-1.5722 5.8156,-3.0544z"/>
       </clipPath>
       <clipPath id="id7">
        <path d="M251.043 212.986c-0.2657,-3.4711 2.3037,-5.0804 5.6044,-5.3331 3.3006,-0.2527 6.0849,0.9468 6.3506,4.418 0.1139,1.4873 -0.0848,3.8188 -6.1394,3.9695 -6.0545,0.1506 -5.7021,-1.5722 -5.8156,-3.0544z"/>
       </clipPath>
      <clipPath id="id8">
       <path d="M248.102 187.844c-0.0596,1.2457 -3.7696,18.4368 -3.7696,18.4368 0,0 -2.4096,1.8423 -11.4121,-0.57 -3.1711,-9.5366 -0.9073,-32.747 -0.7276,-33.3156l15.1762 -0.0347 0.6977 -0.0016 0.6977 -0.0016 15.1762 -0.0347c0.1823,0.5677 2.5523,23.7675 -0.5751,33.3185 -8.9914,2.4535 -11.4093,0.6223 -11.4093,0.6223 0,0 -3.7887,-17.174 -3.8541,-18.4194z"/>
      </clipPath>
    <clipPath id="id9">
     <path d="M226.858 195.93c1.025,1.612 10.9915,4.875 21.2486,4.875 10.2572,0 20.2237,-3.263 21.2487,-4.875 0.2103,-0.3309 -4.0845,-40.8632 -8.2453,-43.2879 -6.4833,-3.778 -19.5235,-3.778 -26.0067,0 -4.1605,2.4245 -8.4558,42.9567 -8.2453,43.2879z"/>
    </clipPath>
      <clipPath id="id10">
       <path d="M235.184 152.597c3.0528,3.5135 7.9502,9.4614 9.6129,13.2611 2.3017,5.26 1.9775,31.1843 1.9182,34.9274 -2.3407,-0.0655 -4.6451,-0.2908 -6.8099,-0.6165 0.2742,-4.5146 1.4689,-28.1326 -3.0344,-35.3189 -1.6186,-2.5829 -3.1005,-4.6886 -4.3642,-6.3553 0.843,-3.1475 1.723,-5.343 2.5971,-5.8524 0.0264,-0.0154 0.0537,-0.0302 0.0803,-0.0454z"/>
      </clipPath>
      <clipPath id="id11">
       <path d="M226.858 195.93c1.025,1.612 10.9915,4.875 21.2486,4.875 10.2572,0 20.2237,-3.263 21.2487,-4.875 0.2103,-0.3309 -4.0845,-40.8632 -8.2453,-43.2879 -6.4833,-3.778 -19.5235,-3.778 -26.0067,0 -4.1605,2.4245 -8.4558,42.9567 -8.2453,43.2879z"/>
      </clipPath>
      <clipPath id="id12">
       <path d="M261.03 152.597c-3.0528,3.5136 -7.9502,9.4614 -9.6129,13.2611 -2.3017,5.26 -1.9775,31.1843 -1.9182,34.9274 2.3407,-0.0655 4.645,-0.2908 6.8099,-0.6165 -0.2741,-4.5146 -1.4689,-28.1326 3.0344,-35.3189 1.6186,-2.583 3.1006,-4.6887 4.3643,-6.3555 -0.8429,-3.1474 -1.7229,-5.3428 -2.5971,-5.8522 -0.0264,-0.0154 -0.0538,-0.0302 -0.0804,-0.0454z"/>
      </clipPath>
      <clipPath id="id13">
       <path d="M226.858 195.93c1.025,1.612 10.9915,4.875 21.2486,4.875 10.2572,0 20.2237,-3.263 21.2487,-4.875 0.2103,-0.3309 -4.0845,-40.8632 -8.2453,-43.2879 -6.4833,-3.778 -19.5235,-3.778 -26.0067,0 -4.1605,2.4245 -8.4558,42.9567 -8.2453,43.2879z"/>
      </clipPath>
      <clipPath id="id14">
       <path d="M266.272 171.229c-0.3379,0.5921 -0.6282,1.1556 -0.8569,1.6782 -1.5533,3.5498 -1.9107,16.5125 -1.9607,25.7172 3.2251,-0.9369 5.4452,-1.9784 5.9005,-2.6944 0.118,-0.1857 -1.183,-13.0334 -3.0829,-24.701z"/>
      </clipPath>
      <clipPath id="id15">
       <path d="M226.858 195.93c1.025,1.612 10.9915,4.875 21.2486,4.875 10.2572,0 20.2237,-3.263 21.2487,-4.875 0.2103,-0.3309 -4.0845,-40.8632 -8.2453,-43.2879 -6.4833,-3.778 -19.5235,-3.778 -26.0067,0 -4.1605,2.4245 -8.4558,42.9567 -8.2453,43.2879z"/>
      </clipPath>
      <clipPath id="id16">
       <path d="M229.941 171.229c0.3379,0.592 0.6282,1.1556 0.8569,1.6783 1.5533,3.5498 1.9107,16.5125 1.9607,25.7172 -3.2251,-0.9369 -5.4452,-1.9784 -5.9005,-2.6944 -0.1181,-0.1859 1.183,-13.0336 3.0829,-24.7011z"/>
      </clipPath>
      <clipPath id="id17">
       <path d="M226.858 195.93c1.025,1.612 10.9915,4.875 21.2486,4.875 10.2572,0 20.2237,-3.263 21.2487,-4.875 0.2103,-0.3309 -4.0845,-40.8632 -8.2453,-43.2879 -6.4833,-3.778 -19.5235,-3.778 -26.0067,0 -4.1605,2.4245 -8.4558,42.9567 -8.2453,43.2879z"/>
      </clipPath>
    <clipPath id="id18">
     <path d="M106.078 180.87c0,0 -1.3885,11.1414 -1.5391,15.1086 -0.1507,3.9673 1.9465,10.5551 1.766,12.9132 -0.1805,2.3582 -1.022,5.3544 1.6288,5.7103 2.6507,0.356 5.9803,0.8404 7.7823,0.2897 1.802,-0.5507 2.1056,-2.5168 1.081,-4.1256 -1.0246,-1.6087 -0.7892,-13.6801 -0.3921,-15.8686 0.3971,-2.1885 2.2187,-12.9907 2.2187,-12.9907l-12.5456 -1.0369z"/>
    </clipPath>
     <clipPath id="id19">
      <path d="M105.708 204.176c0.0806,0.4062 0.1584,0.8022 0.2303,1.1834 1.966,0.3477 4.0949,0.5383 6.3185,0.5383 1.3266,0 2.6192,-0.0683 3.8641,-0.1967 -0.0136,-0.3712 -0.0246,-0.7518 -0.033,-1.138 -1.2347,0.1262 -2.5163,0.1929 -3.8311,0.1929 -2.3108,0 -4.5192,-0.2058 -6.5488,-0.5799z"/>
     </clipPath>
     <clipPath id="id20">
      <path d="M106.078 180.87c0,0 -1.3885,11.1414 -1.5391,15.1086 -0.1507,3.9673 1.9465,10.5551 1.766,12.9132 -0.1805,2.3582 -1.022,5.3544 1.6288,5.7103 2.6507,0.356 5.9803,0.8404 7.7823,0.2897 1.802,-0.5507 2.1056,-2.5168 1.081,-4.1256 -1.0246,-1.6087 -0.7892,-13.6801 -0.3921,-15.8686 0.3971,-2.1885 2.2187,-12.9907 2.2187,-12.9907l-12.5456 -1.0369z"/>
     </clipPath>
    <clipPath id="id21">
     <path d="M135.531 180.803c0,0 1.4395,11.1349 1.6083,15.1014 0.1688,3.9666 -1.8982,10.5639 -1.7069,12.9212 0.1913,2.3573 1.0465,5.3496 -1.6026,5.7177 -2.6491,0.368 -5.9765,0.8677 -7.781,0.3253 -1.8045,-0.5425 -2.117,-2.5072 -1.0998,-4.1206 1.0172,-1.6134 0.7265,-13.6836 0.3194,-15.8703 -0.4071,-2.1867 -2.2781,-12.9804 -2.2781,-12.9804l12.5407 -1.0943z"/>
    </clipPath>
    <clipPath id="id22">
     <path d="M105.197 123.933c1.6948,0.2318 2.9522,1.2789 2.8073,2.3384 -0.1449,1.0594 -1.6373,1.7305 -3.3321,1.4987 -1.6948,-0.2318 -2.9522,-1.2789 -2.8073,-2.3384 0.1449,-1.0594 1.6373,-1.7305 3.3321,-1.4987z"/>
    </clipPath>
    <clipPath id="id23">
     <path d="M133.034 120.41c-1.5837,0.6467 -2.5406,1.974 -2.1364,2.964 0.4043,0.99 2.0168,1.2681 3.6004,0.6215 1.5837,-0.6467 2.5406,-1.9741 2.1364,-2.964 -0.4043,-0.99 -2.0168,-1.2682 -3.6004,-0.6215z"/>
    </clipPath>
     <clipPath id="id24">
      <path d="M264.934 127.608c-1.6927,-0.2469 -3.191,0.4108 -3.3453,1.4689 -0.1544,1.0581 1.0936,2.1165 2.7863,2.3634 1.6926,0.2469 3.191,-0.4108 3.3453,-1.4689 0.1544,-1.0581 -1.0936,-2.1165 -2.7863,-2.3634z"/>
     </clipPath>
     <clipPath id="id25">
      <path d="M236.838 123.509c1.6927,0.247 2.9407,1.3053 2.7863,2.3634 -0.1543,1.0582 -1.6527,1.7159 -3.3453,1.4689 -1.6927,-0.2469 -2.9407,-1.3053 -2.7863,-2.3634 0.1543,-1.0581 1.6527,-1.7158 3.3453,-1.4689z"/>
     </clipPath>
 </defs>
 <g id="Capa_x0020_1">
  <metadata id="CorelCorpID_0Corel-Layer"/>
  <g id="_589079688">
   <g>
    <path id="_589079976" class="fil0 str0" d="M259.433 167.892c-1.8387,-0.7671 -3.8227,-3.2697 -4.3692,-3.1199 -0.5465,0.1498 -0.7423,0.4562 -0.0897,2.8739 -1.7946,0.6293 -4.2766,-2.4298 -5.177,-1.1019 -0.5812,0.8574 1.8509,2.3476 2.6223,2.7586 -1.1525,1.2938 -3.877,-1.5947 -4.4375,0.0344 -0.3473,1.0115 2.7963,1.9556 3.7111,2.1153 -0.2818,1.6029 -3.092,-0.5092 -3.3209,1.0157 -0.1523,1.0158 2.7445,1.325 3.59,1.3904 0.4355,1.0862 -1.9141,0.3306 -1.8623,1.2704 0.0422,0.7671 0.6439,0.9005 2.7999,0.6792 1.1998,-0.1233 2.8912,0.1812 4.5415,0.0879l-0.1402 -0.0463 0.1402 0.0463c0,0 9.8525,3.1874 15.8188,-0.1192 4.1852,-2.3196 2.7746,-9.4248 -0.0173,-13.8222 -5.9158,-9.3178 -11.4663,-11.1892 -13.234,-9.4216 -1.7677,1.7676 2.4595,9.6157 4.9353,12.7023 2.1697,2.7046 0.7358,4.4132 -5.5108,2.6567l-0.0002 0z"/>
    <path id="_589079904" class="fil1" d="M273.102 161.736c-5.8629,-9.1268 -11.3395,-10.956 -13.0932,-9.2024 -1.7677,1.7676 2.4595,9.6157 4.9353,12.7023 0.8278,1.0319 1.1303,1.9184 0.8419,2.5232 2.1881,-0.6787 5.345,-3.4044 7.316,-6.0231z"/>
    <g style="clip-path:url(#id0)">
     <g>
      <path id="_5914737761" class="fil1" d="M248.331 180.912c0,0 4.2136,-13.6241 7.885,-18.61 3.6714,-4.9859 29.6867,-19.3457 29.6867,-19.3457l3.1489 6.0924c0,0 -25.347,12.3235 -29.7455,20.6215 -4.3985,8.2979 -5.5252,13.2109 -5.5252,13.2109l-5.4499 -1.9691z"/>
     </g>
     <g style="clip-path:url(#id1)">
      <g>
       <path id="_5904308722" class="fil2" d="M249.104 181.45c0,0 4.5718,-13.5994 7.7385,-18.0636 3.1667,-4.4643 29.6233,-19.6555 29.6233,-19.6555l0.9745 2.007c0,0 -25.4496,11.8252 -30.3236,20.4665 -4.8741,8.6414 -6.8668,15.7444 -6.8668,15.7444l-1.1459 -0.4988z"/>
       <path id="_590430968" class="fil2" d="M250.928 183.423c0,0 4.5718,-13.5994 7.7386,-18.0637 3.1667,-4.4642 29.6233,-19.6555 29.6233,-19.6555l0.9745 2.0071c0,0 -25.4496,11.8252 -30.3237,20.4665 -4.874,8.6413 -6.8668,15.7443 -6.8668,15.7443l-1.1459 -0.4987z"/>
      </g>
     </g>
     <g style="clip-path:url(#id2)">
      <path class="fil3 str1" d="M248.331 180.912c0,0 4.2136,-13.6241 7.885,-18.61 3.6714,-4.9859 29.6867,-19.3457 29.6867,-19.3457l3.1489 6.0924c0,0 -25.347,12.3235 -29.7455,20.6215 -4.3985,8.2979 -5.5252,13.2109 -5.5252,13.2109l-5.4499 -1.9691z"/>
     </g>
    </g>
    <path class="fil3 str2" d="M273.102 161.736c-5.8629,-9.1268 -11.3395,-10.956 -13.0932,-9.2024 -1.7677,1.7676 2.4595,9.6157 4.9353,12.7023 0.8278,1.0319 1.1303,1.9184 0.8419,2.5232 2.1881,-0.6787 5.345,-3.4044 7.316,-6.0231z"/>
   </g>
   <g>
    <path id="_589079808" class="fil0 str0" d="M236.78 167.892c1.8387,-0.7671 3.8227,-3.2697 4.3692,-3.1199 0.5465,0.1498 0.7423,0.4562 0.0897,2.8739 1.7946,0.6293 4.2766,-2.4298 5.177,-1.1019 0.5812,0.8574 -1.8509,2.3476 -2.6223,2.7586 1.1525,1.2938 3.877,-1.5947 4.4375,0.0344 0.3473,1.0115 -2.7963,1.9556 -3.7111,2.1153 0.2818,1.6029 3.092,-0.5092 3.3209,1.0157 0.1523,1.0158 -2.7445,1.325 -3.59,1.3904 -0.4355,1.0862 1.9141,0.3306 1.8623,1.2704 -0.0422,0.7671 -0.6439,0.9005 -2.7999,0.6792 -1.1998,-0.1233 -2.8912,0.1812 -4.5415,0.0879l0.1402 -0.0463 -0.1402 0.0463c0,0 -9.8525,3.1874 -15.8188,-0.1192 -4.1852,-2.3196 -2.7746,-9.4248 0.0173,-13.8222 5.9158,-9.3178 11.4663,-11.1892 13.234,-9.4216 1.7677,1.7676 -2.4595,9.6157 -4.9353,12.7023 -2.1697,2.7046 -0.7358,4.4132 5.5108,2.6567l0.0002 0z"/>
    <path id="_589079736" class="fil1" d="M223.111 161.736c5.8629,-9.1268 11.3395,-10.956 13.0932,-9.2024 1.7677,1.7676 -2.4595,9.6157 -4.9353,12.7023 -0.8278,1.0319 -1.1303,1.9184 -0.8419,2.5232 -2.1881,-0.6787 -5.345,-3.4044 -7.316,-6.0231z"/>
    <g style="clip-path:url(#id3)">
     <g>
      <path id="_5914749761" class="fil1" d="M247.882 180.912c0,0 -4.2136,-13.6241 -7.885,-18.61 -3.6714,-4.9859 -29.6867,-19.3457 -29.6867,-19.3457l-3.1489 6.0924c0,0 25.347,12.3235 29.7455,20.6215 4.3985,8.2979 5.5252,13.2109 5.5252,13.2109l5.4499 -1.9691z"/>
     </g>
     <g style="clip-path:url(#id4)">
      <g>
       <path id="_5904345682" class="fil2" d="M247.11 181.45c0,0 -4.5718,-13.5994 -7.7385,-18.0636 -3.1667,-4.4643 -29.6233,-19.6555 -29.6233,-19.6555l-0.9745 2.007c0,0 25.4496,11.8252 30.3236,20.4665 4.8741,8.6414 6.8668,15.7444 6.8668,15.7444l1.1459 -0.4988z"/>
       <path id="_590433224" class="fil2" d="M245.285 183.423c0,0 -4.5718,-13.5994 -7.7386,-18.0637 -3.1667,-4.4642 -29.6233,-19.6555 -29.6233,-19.6555l-0.9745 2.0071c0,0 25.4496,11.8252 30.3237,20.4665 4.874,8.6413 6.8668,15.7443 6.8668,15.7443l1.1459 -0.4987z"/>
      </g>
     </g>
     <g style="clip-path:url(#id5)">
      <path class="fil3 str1" d="M247.882 180.912c0,0 -4.2136,-13.6241 -7.885,-18.61 -3.6714,-4.9859 -29.6867,-19.3457 -29.6867,-19.3457l-3.1489 6.0924c0,0 25.347,12.3235 29.7455,20.6215 4.3985,8.2979 5.5252,13.2109 5.5252,13.2109l5.4499 -1.9691z"/>
     </g>
    </g>
    <path class="fil3 str2" d="M223.111 161.736c5.8629,-9.1268 11.3395,-10.956 13.0932,-9.2024 1.7677,1.7676 -2.4595,9.6157 -4.9353,12.7023 -0.8278,1.0319 -1.1303,1.9184 -0.8419,2.5232 -2.1881,-0.6787 -5.345,-3.4044 -7.316,-6.0231z"/>
   </g>
  </g>
  <g id="_589078896">
   <g>
    <g>
     <g>
      <path id="_589079616" class="fil4 str3" d="M239.621 206.821c3.4273,0.2623 5.9439,3.9121 5.7278,6.7356 -0.2162,2.8235 -3.0833,3.7531 -6.5106,3.4907 -3.4274,-0.2624 -6.1195,-1.6175 -5.9033,-4.441 0.2161,-2.8235 3.2587,-6.0477 6.6861,-5.7853z"/>
      <path id="_589079544" class="fil5 str4" d="M233.864 182.327c0,0 -1.3368,10.7265 -1.4818,14.546 -0.1451,3.8195 1.874,10.162 1.7002,12.4323 -0.1738,2.2704 -0.9839,5.155 1.5681,5.4977 2.5521,0.3427 5.7577,0.8091 7.4926,0.2789 1.7349,-0.5302 2.0271,-2.4231 1.0407,-3.972 -0.9864,-1.5488 -0.7597,-13.1706 -0.3775,-15.2777 0.3823,-2.107 2.1361,-12.5069 2.1361,-12.5069l-12.0784 -0.9983z"/>
      <path id="_589079472" class="fil6" d="M245.17 212.986c0.2657,-3.4711 -2.3037,-5.0804 -5.6044,-5.3331 -3.3006,-0.2527 -6.0849,0.9468 -6.3506,4.418 -0.1139,1.4873 0.0848,3.8188 6.1394,3.9695 6.0545,0.1506 5.7021,-1.5722 5.8156,-3.0544z"/>
      <g style="clip-path:url(#id6)">
       <g>
        <path id="_5916209761" class="fil7" d="M239.389 209.583c-6.1019,-0.5771 -8.2716,8.8901 -0.1863,9.1387 7.9174,0.2435 5.5501,-8.6315 0.1863,-9.1387z"/>
        <path id="_591620952" class="fil7" d="M239.207 208.323c-1.9024,-0.0398 -2.5788,0.6132 -0.058,0.6303 2.4684,0.0168 1.7303,-0.5953 0.058,-0.6303z"/>
       </g>
      </g>
      <path class="fil3 str3" d="M245.17 212.986c0.2657,-3.4711 -2.3037,-5.0804 -5.6044,-5.3331 -3.3006,-0.2527 -6.0849,0.9468 -6.3506,4.418 -0.1139,1.4873 0.0848,3.8188 6.1394,3.9695 6.0545,0.1506 5.7021,-1.5722 5.8156,-3.0544z"/>
     </g>
     <g>
      <path id="_589079376" class="fil4 str3" d="M256.593 206.821c-3.4273,0.2623 -5.9439,3.9121 -5.7278,6.7356 0.2162,2.8235 3.0833,3.7531 6.5106,3.4907 3.4274,-0.2624 6.1195,-1.6175 5.9033,-4.441 -0.2161,-2.8235 -3.2587,-6.0477 -6.6861,-5.7853z"/>
      <path id="_589079304" class="fil5 str4" d="M262.349 182.327c0,0 1.3368,10.7265 1.4818,14.546 0.1451,3.8195 -1.874,10.162 -1.7002,12.4323 0.1738,2.2704 0.9839,5.155 -1.5681,5.4977 -2.5521,0.3427 -5.7577,0.8091 -7.4926,0.2789 -1.7349,-0.5302 -2.0271,-2.4231 -1.0407,-3.972 0.9864,-1.5488 0.7597,-13.1706 0.3775,-15.2777 -0.3823,-2.107 -2.1361,-12.5069 -2.1361,-12.5069l12.0784 -0.9983z"/>
      <path id="_589079232" class="fil6" d="M251.043 212.986c-0.2657,-3.4711 2.3037,-5.0804 5.6044,-5.3331 3.3006,-0.2527 6.0849,0.9468 6.3506,4.418 0.1139,1.4873 -0.0848,3.8188 -6.1394,3.9695 -6.0545,0.1506 -5.7021,-1.5722 -5.8156,-3.0544z"/>
      <g style="clip-path:url(#id7)">
       <g>
        <path id="_5916095041" class="fil7" d="M256.824 209.583c6.1019,-0.5771 8.2716,8.8901 0.1863,9.1387 -7.9174,0.2435 -5.5501,-8.6315 -0.1863,-9.1387z"/>
        <path id="_591609456" class="fil7" d="M257.006 208.323c1.9024,-0.0398 2.5788,0.6132 0.058,0.6303 -2.4684,0.0168 -1.7303,-0.5953 -0.058,-0.6303z"/>
       </g>
      </g>
      <path class="fil3 str3" d="M251.043 212.986c-0.2657,-3.4711 2.3037,-5.0804 5.6044,-5.3331 3.3006,-0.2527 6.0849,0.9468 6.3506,4.418 0.1139,1.4873 -0.0848,3.8188 -6.1394,3.9695 -6.0545,0.1506 -5.7021,-1.5722 -5.8156,-3.0544z"/>
     </g>
    </g>
    <g>
     <path id="_589079112" class="fil8" d="M248.102 187.844c-0.0596,1.2457 -3.7696,18.4368 -3.7696,18.4368 0,0 -2.4096,1.8423 -11.4121,-0.57 -3.1711,-9.5366 -0.9073,-32.747 -0.7276,-33.3156l15.1762 -0.0347 0.6977 -0.0016 0.6977 -0.0016 15.1762 -0.0347c0.1823,0.5677 2.5523,23.7675 -0.5751,33.3185 -8.9914,2.4535 -11.4093,0.6223 -11.4093,0.6223 0,0 -3.7887,-17.174 -3.8541,-18.4194z"/>
     <g style="clip-path:url(#id8)">
      <g>
       <path id="_4846330241" class="fil9" d="M244.423 176.175c0,0 -0.6112,4.4901 0.3632,7.8025 0.9743,3.3125 3.3203,5.6709 3.3203,5.6709l-0.024 -13.6889 -3.6595 0.2155z"/>
      </g>
     </g>
     <path class="fil3 str5" d="M248.102 187.844c-0.0596,1.2457 -3.7696,18.4368 -3.7696,18.4368 0,0 -2.4096,1.8423 -11.4121,-0.57 -3.1711,-9.5366 -0.9073,-32.747 -0.7276,-33.3156l15.1762 -0.0347 0.6977 -0.0016 0.6977 -0.0016 15.1762 -0.0347c0.1823,0.5677 2.5523,23.7675 -0.5751,33.3185 -8.9914,2.4535 -11.4093,0.6223 -11.4093,0.6223 0,0 -3.7887,-17.174 -3.8541,-18.4194z"/>
     <path id="_589079040" class="fil9" d="M238.54 178.031c0,0 -1.634,13.1741 -1.529,17.5006 0.105,4.3265 0.2578,8.748 0.2578,8.748 0,0 1.3413,-16.4067 1.2712,-26.2486zm19.0799 -0.0437c0,0 1.6942,13.1665 1.609,17.4935 -0.0851,4.3269 -0.2177,8.749 -0.2177,8.749 0,0 -1.4163,-16.4003 -1.3913,-26.2425z"/>
    </g>
   </g>
   <path id="_589078920" class="fil1" d="M226.858 195.93c1.025,1.612 10.9915,4.875 21.2486,4.875 10.2572,0 20.2237,-3.263 21.2487,-4.875 0.2103,-0.3309 -4.0845,-40.8632 -8.2453,-43.2879 -6.4833,-3.778 -19.5235,-3.778 -26.0067,0 -4.1605,2.4245 -8.4558,42.9567 -8.2453,43.2879z"/>
   <g style="clip-path:url(#id9)">
    <g>
     <g>
      <path id="_5914681361" class="fil1" d="M232.622 149.724c0,0 9.6921,10.4611 12.1743,16.1336 2.4822,5.6725 1.9105,35.3823 1.9105,35.3823l-6.8507 -0.3192c0,0 2.0011,-28.1129 -2.9859,-36.0711 -4.987,-7.9582 -8.6784,-11.3904 -8.6784,-11.3904l4.4302 -3.7352z"/>
     </g>
     <g style="clip-path:url(#id10)">
      <g>
       <path id="_5904165442" class="fil2" d="M231.771 150.124c0,0 9.4915,10.759 11.7743,15.7336 2.2828,4.9746 2.2105,35.4823 2.2105,35.4823l-2.2254 -0.1596c0,0 2.4839,-27.9526 -2.5627,-36.4943 -5.0466,-8.5417 -10.2016,-13.819 -10.2016,-13.819l1.0049 -0.743z"/>
       <path id="_590416760" class="fil2" d="M229.15 150.718c0,0 9.4915,10.759 11.7743,15.7336 2.2828,4.9746 2.2105,35.4823 2.2105,35.4823l-2.2254 -0.1596c0,0 2.4839,-27.9526 -2.5627,-36.4943 -5.0466,-8.5417 -10.2016,-13.819 -10.2016,-13.819l1.0049 -0.743z"/>
      </g>
     </g>
     <g style="clip-path:url(#id11)">
      <path class="fil3 str1" d="M232.622 149.724c0,0 9.6921,10.4611 12.1743,16.1336 2.4822,5.6725 1.9105,35.3823 1.9105,35.3823l-6.8507 -0.3192c0,0 2.0011,-28.1129 -2.9859,-36.0711 -4.987,-7.9582 -8.6784,-11.3904 -8.6784,-11.3904l4.4302 -3.7352z"/>
      <path id="_591468688" class="fil1" d="M263.591 149.724c0,0 -9.6921,10.4611 -12.1743,16.1336 -2.4822,5.6725 -1.9105,35.3823 -1.9105,35.3823l6.8507 -0.3192c0,0 -2.0011,-28.1129 2.9859,-36.0711 4.987,-7.9582 8.6784,-11.3904 8.6784,-11.3904l-4.4302 -3.7352z"/>
     </g>
     <g style="clip-path:url(#id12)">
      <g>
       <path id="_5904216321" class="fil2" d="M264.443 150.124c0,0 -9.4915,10.759 -11.7743,15.7336 -2.2828,4.9746 -2.2105,35.4823 -2.2105,35.4823l2.2254 -0.1596c0,0 -2.4839,-27.9526 2.5627,-36.4943 5.0466,-8.5417 10.2016,-13.819 10.2016,-13.819l-1.0049 -0.743z"/>
       <path id="_590422376" class="fil2" d="M267.064 150.718c0,0 -9.4915,10.759 -11.7743,15.7336 -2.2828,4.9746 -2.2105,35.4823 -2.2105,35.4823l2.2254 -0.1596c0,0 -2.4839,-27.9526 2.5627,-36.4943 5.0466,-8.5417 10.2016,-13.819 10.2016,-13.819l-1.0049 -0.743z"/>
      </g>
     </g>
     <g style="clip-path:url(#id13)">
      <path class="fil3 str1" d="M263.591 149.724c0,0 -9.6921,10.4611 -12.1743,16.1336 -2.4822,5.6725 -1.9105,35.3823 -1.9105,35.3823l6.8507 -0.3192c0,0 -2.0011,-28.1129 2.9859,-36.0711 4.987,-7.9582 8.6784,-11.3904 8.6784,-11.3904l-4.4302 -3.7352z"/>
     </g>
     <g>
      <path id="_591468592" class="fil1" d="M277.59 156.774c0,0 -9.6921,10.4611 -12.1743,16.1336 -2.4822,5.6725 -1.9105,35.3823 -1.9105,35.3823l6.8507 -0.3192c0,0 -2.0011,-28.1129 2.9859,-36.0711 4.987,-7.9582 8.6784,-11.3904 8.6784,-11.3904l-4.4302 -3.7352z"/>
     </g>
     <g style="clip-path:url(#id14)">
      <g>
       <path id="_5904271761" class="fil2" d="M278.442 157.174c0,0 -9.4915,10.759 -11.7743,15.7336 -2.2828,4.9746 -2.2105,35.4823 -2.2105,35.4823l2.2254 -0.1596c0,0 -2.4839,-27.9526 2.5627,-36.4943 5.0466,-8.5417 10.2016,-13.819 10.2016,-13.819l-1.0049 -0.743z"/>
       <path id="_590427272" class="fil2" d="M281.062 157.768c0,0 -9.4915,10.759 -11.7743,15.7336 -2.2828,4.9746 -2.2105,35.4823 -2.2105,35.4823l2.2254 -0.1596c0,0 -2.4839,-27.9526 2.5627,-36.4943 5.0466,-8.5417 10.2016,-13.819 10.2016,-13.819l-1.0049 -0.743z"/>
      </g>
     </g>
     <g style="clip-path:url(#id15)">
      <path class="fil3 str1" d="M277.59 156.774c0,0 -9.6921,10.4611 -12.1743,16.1336 -2.4822,5.6725 -1.9105,35.3823 -1.9105,35.3823l6.8507 -0.3192c0,0 -2.0011,-28.1129 2.9859,-36.0711 4.987,-7.9582 8.6784,-11.3904 8.6784,-11.3904l-4.4302 -3.7352z"/>
      <path id="_591468784" class="fil1" d="M218.624 156.774c0,0 9.6921,10.4611 12.1743,16.1336 2.4822,5.6725 1.9105,35.3823 1.9105,35.3823l-6.8507 -0.3192c0,0 2.0011,-28.1129 -2.9859,-36.0711 -4.987,-7.9582 -8.6784,-11.3904 -8.6784,-11.3904l4.4302 -3.7352z"/>
     </g>
     <g style="clip-path:url(#id16)">
      <g>
       <path id="_5904428961" class="fil2" d="M217.772 157.174c0,0 9.4915,10.759 11.7743,15.7336 2.2828,4.9746 2.2105,35.4823 2.2105,35.4823l-2.2254 -0.1596c0,0 2.4839,-27.9526 -2.5627,-36.4943 -5.0466,-8.5417 -10.2016,-13.819 -10.2016,-13.819l1.0049 -0.743z"/>
       <path id="_590443352" class="fil2" d="M215.151 157.768c0,0 9.4915,10.759 11.7743,15.7336 2.2828,4.9746 2.2105,35.4823 2.2105,35.4823l-2.2254 -0.1596c0,0 2.4839,-27.9526 -2.5627,-36.4943 -5.0466,-8.5417 -10.2016,-13.819 -10.2016,-13.819l1.0049 -0.743z"/>
      </g>
     </g>
     <g style="clip-path:url(#id17)">
      <path class="fil3 str1" d="M218.624 156.774c0,0 9.6921,10.4611 12.1743,16.1336 2.4822,5.6725 1.9105,35.3823 1.9105,35.3823l-6.8507 -0.3192c0,0 2.0011,-28.1129 -2.9859,-36.0711 -4.987,-7.9582 -8.6784,-11.3904 -8.6784,-11.3904l4.4302 -3.7352z"/>
     </g>
    </g>
   </g>
   <path class="fil3 str2" d="M226.858 195.93c1.025,1.612 10.9915,4.875 21.2486,4.875 10.2572,0 20.2237,-3.263 21.2487,-4.875 0.2103,-0.3309 -4.0845,-40.8632 -8.2453,-43.2879 -6.4833,-3.778 -19.5235,-3.778 -26.0067,0 -4.1605,2.4245 -8.4558,42.9567 -8.2453,43.2879z"/>
  </g>
  <path class="fil0 str0" d="M241.749 146.185l12.7151 0 0 5.5158c0,1.6001 -2.8469,2.898 -6.3575,2.898 -3.5105,0 -6.3576,-1.2979 -6.3576,-2.898l0 -5.5158z"/>
  <g id="_589078200">
   <path id="_589078752" class="fil10 str6" d="M140.652 133.39c0,0 7.4114,2.9233 8.1419,7.097 0.7132,4.076 2.2413,13.0917 8.2897,13.088 1.8382,-0.0014 -4.583,2.8068 -7.3473,0.2678 -4.2128,-3.8688 -3.2651,-7.0241 -9.5759,-7.7284 -6.3108,-0.7042 -7.2185,-1.932 -7.2185,-1.932l7.7101 -10.7924z"/>
   <path id="_589078680" class="fil10 str6" d="M103.324 138.105c0,0 -6.4515,4.6747 -6.1211,8.8988 0.3228,4.1254 1.0849,13.2379 -4.7744,14.7384 -1.7808,0.4558 5.137,1.5789 7.1831,-1.5678 3.1183,-4.7949 1.4156,-7.6154 7.3531,-9.867 5.9374,-2.2516 6.5112,-3.6665 6.5112,-3.6665l-10.1519 -8.5359z"/>
   <path id="_589078608" class="fil5 str6" d="M97.408 152.412c-0.034,1.0974 -0.132,2.2184 -0.3358,3.2887 1.2017,-0.2122 2.7864,-0.236 4.4557,0.4452 0.4869,-1.3662 0.8572,-2.5224 1.7485,-3.5397 -1.3109,-0.7955 -3.2431,-1.0981 -5.8684,-0.1942z"/>
   <path id="_589078536" class="fil11" d="M103.527 141.983c0,0 -3.8239,3.894 -3.2561,8.1865 0,0 1.3482,-4.0809 3.2561,-8.1865z"/>
   <path id="_589078464" class="fil5 str6" d="M149.94 145.775c0.3059,1.0545 0.6796,2.1159 1.1431,3.1019 -1.2167,0.0933 -2.7575,0.4644 -4.205,1.5393 -0.8114,-1.2022 -1.4575,-2.23 -2.5738,-2.9936 1.0719,-1.0966 2.8681,-1.8702 5.6357,-1.6476z"/>
   <g>
    <path id="_589078392" class="fil11" d="M141.42 137.196c0,0 4.6722,2.8208 5.1897,7.1196 0,0 -2.3206,-3.6175 -5.1897,-7.1196z"/>
    <path id="_589078320" class="fil11" d="M137.229 136.588c0,0 4.6722,2.8208 5.1897,7.1196 0,0 -2.3207,-3.6175 -5.1897,-7.1196z"/>
   </g>
   <path id="_589078224" class="fil11" d="M107.435 140.352c0,0 -3.8239,3.8941 -3.256,8.1866 0,0 1.3481,-4.081 3.256,-8.1866z"/>
  </g>
  <g id="_589077840">
   <g>
    <path id="_589078128" class="fil0 str0" d="M112.829 165.274c1.5775,-1.2169 2.8462,-4.1477 3.4129,-4.1444 0.5666,0.0032 0.835,0.2485 0.8304,2.7527 1.8963,0.1434 3.502,-3.4538 4.7154,-2.4042 0.7833,0.6777 -1.1802,2.7466 -1.8189,3.3433 1.448,0.9514 3.3321,-2.5438 4.2952,-1.1153 0.5972,0.8871 -2.1949,2.6127 -3.0372,3.0037 0.687,1.4754 2.8548,-1.2921 3.4706,0.1216 0.41,0.9418 -2.308,1.9902 -3.1078,2.2722 -0.1395,1.1619 1.9344,-0.1761 2.1277,0.7451 0.1577,0.7519 -0.3889,1.0365 -2.5288,1.3807 -1.1908,0.1914 -2.7457,0.9233 -4.364,1.2603l0.1235 -0.081 -0.1235 0.081c0,0 -8.6918,5.6289 -15.3106,3.9791 -4.6429,-1.1573 -5.1194,-8.3855 -3.5607,-13.3557 3.3026,-10.5314 8.1796,-13.7756 10.3445,-12.5258 2.165,1.2499 0.1131,9.9247 -1.4795,13.5469 -1.3958,3.174 0.4315,4.4532 6.0106,1.1398l0.0002 0z"/>
    <path id="_589078056" class="fil12 str7" d="M98.0321 162.865c3.301,-10.3332 8.1175,-13.5175 10.2653,-12.2776 2.165,1.2499 0.1131,9.9247 -1.4795,13.5469 -0.5325,1.211 -0.5953,2.1455 -0.1602,2.6551 -2.2892,-0.0893 -6.044,-1.905 -8.6256,-3.9244z"/>
   </g>
   <g>
    <path id="_589077960" class="fil0 str0" d="M128.851 165.274c-1.5775,-1.2169 -2.8462,-4.1477 -3.4129,-4.1444 -0.5666,0.0032 -0.835,0.2485 -0.8304,2.7527 -1.8963,0.1434 -3.502,-3.4538 -4.7154,-2.4042 -0.7833,0.6777 1.1802,2.7466 1.8189,3.3433 -1.448,0.9514 -3.3321,-2.5438 -4.2952,-1.1153 -0.5972,0.8871 2.1949,2.6127 3.0372,3.0037 -0.687,1.4754 -2.8548,-1.2921 -3.4706,0.1216 -0.41,0.9418 2.308,1.9902 3.1078,2.2722 0.1395,1.1619 -1.9344,-0.1761 -2.1277,0.7451 -0.1577,0.7519 0.3889,1.0365 2.5288,1.3807 1.1908,0.1914 2.7457,0.9233 4.364,1.2603l-0.1235 -0.081 0.1235 0.081c0,0 8.6918,5.6289 15.3106,3.9791 4.6429,-1.1573 5.1194,-8.3855 3.5607,-13.3557 -3.3026,-10.5314 -8.1796,-13.7756 -10.3445,-12.5258 -2.165,1.2499 -0.1131,9.9247 1.4795,13.5469 1.3958,3.174 -0.4315,4.4532 -6.0106,1.1398l-0.0002 0z"/>
    <path id="_589077888" class="fil12 str7" d="M143.648 162.865c-3.301,-10.3332 -8.1175,-13.5175 -10.2653,-12.2776 -2.165,1.2499 -0.1131,9.9247 1.4795,13.5469 0.5325,1.211 0.5953,2.1455 0.1602,2.6551 2.2892,-0.0893 6.044,-1.905 8.6256,-3.9244z"/>
   </g>
  </g>
  <g id="_589074528">
   <path id="_589077768" class="fil13 str8" d="M129.772 206.271c-3.5586,0.2888 -6.1551,4.0916 -5.9172,7.0233 0.2379,2.9317 3.2203,3.8835 6.779,3.5947 3.5586,-0.2888 6.3483,-1.7091 6.1104,-4.6407 -0.2379,-2.9317 -3.4135,-6.2661 -6.9722,-5.9773z"/>
   <path id="_589077696" class="fil13 str8" d="M111.953 206.312c3.5599,0.2725 6.1738,4.0634 5.9493,6.9961 -0.2245,2.9328 -3.2025,3.8983 -6.7624,3.6257 -3.56,-0.2725 -6.3561,-1.68 -6.1316,-4.6127 0.2245,-2.9328 3.3848,-6.2817 6.9447,-6.0091z"/>
   <path id="_589077624" class="fil0" d="M106.078 180.87c0,0 -1.3885,11.1414 -1.5391,15.1086 -0.1507,3.9673 1.9465,10.5551 1.766,12.9132 -0.1805,2.3582 -1.022,5.3544 1.6288,5.7103 2.6507,0.356 5.9803,0.8404 7.7823,0.2897 1.802,-0.5507 2.1056,-2.5168 1.081,-4.1256 -1.0246,-1.6087 -0.7892,-13.6801 -0.3921,-15.8686 0.3971,-2.1885 2.2187,-12.9907 2.2187,-12.9907l-12.5456 -1.0369z"/>
   <g style="clip-path:url(#id18)">
    <g>
     <path id="_5960907201" class="fil3 str9" d="M114.894 213.758c0,0 0.4986,-0.4987 1.3747,-0.2528m-8.399 -0.9743c0,0 -0.8797,2.0972 1.1708,2.2203m5.1001 -1.9773c0,0 -0.8797,2.097 1.1709,2.2202m-3.312 -2.0777c0,0 -0.8797,2.0971 1.171,2.2203m-3.2243 -2.3579c0,0 -0.8796,2.0971 1.171,2.22m-4.2485 -1.7345c0,0 0.1753,-0.1756 0.4836,-0.0889m1.0553 0.5902c0,0 0.3164,-0.3166 0.8725,-0.1606m1.1574 0.3671c0,0 0.3165,-0.3167 0.8725,-0.1605m1.1484 0.0878c0,0 0.3164,-0.3166 0.8724,-0.1604"/>
     <path id="_596090792" class="fil13" d="M105.708 204.176c0.0806,0.4062 0.1584,0.8022 0.2303,1.1834 1.966,0.3477 4.0949,0.5383 6.3185,0.5383 1.3405,0 2.6464,-0.0697 3.9033,-0.2008 -0.0139,-0.3711 -0.0252,-0.7513 -0.0339,-1.1378 -1.2464,0.1287 -2.541,0.1968 -3.8694,0.1968 -2.3108,0 -4.5192,-0.2058 -6.5488,-0.5799z"/>
    </g>
    <g style="clip-path:url(#id19)">
     <g>
      <path id="_5960941041" class="fil3 str9" d="M114.931 213.699c0,0 0.4986,-0.4987 1.3747,-0.2528m-8.399 -0.9743c0,0 -0.8797,2.0972 1.1708,2.2203m5.1001 -1.9773c0,0 -0.8797,2.097 1.1709,2.2202m-3.312 -2.0777c0,0 -0.8797,2.0971 1.171,2.2203m-3.2243 -2.3579c0,0 -0.8796,2.0971 1.171,2.22m-4.2485 -1.7345c0,0 0.1753,-0.1756 0.4836,-0.0889m1.0553 0.5902c0,0 0.3164,-0.3166 0.8725,-0.1606m1.1574 0.3671c0,0 0.3165,-0.3167 0.8725,-0.1605m1.1484 0.0878c0,0 0.3164,-0.3166 0.8724,-0.1604"/>
     </g>
    </g>
    <g style="clip-path:url(#id20)">
     <path class="fil3" d="M105.708 204.176c0.0806,0.4062 0.1584,0.8022 0.2303,1.1834 1.966,0.3477 4.0949,0.5383 6.3185,0.5383 1.3405,0 2.6464,-0.0697 3.9033,-0.2008 -0.0139,-0.3711 -0.0252,-0.7513 -0.0339,-1.1378 -1.2464,0.1287 -2.541,0.1968 -3.8694,0.1968 -2.3108,0 -4.5192,-0.2058 -6.5488,-0.5799z"/>
    </g>
   </g>
   <path class="fil3 str10" d="M106.078 180.87c0,0 -1.3885,11.1414 -1.5391,15.1086 -0.1507,3.9673 1.9465,10.5551 1.766,12.9132 -0.1805,2.3582 -1.022,5.3544 1.6288,5.7103 2.6507,0.356 5.9803,0.8404 7.7823,0.2897 1.802,-0.5507 2.1056,-2.5168 1.081,-4.1256 -1.0246,-1.6087 -0.7892,-13.6801 -0.3921,-15.8686 0.3971,-2.1885 2.2187,-12.9907 2.2187,-12.9907l-12.5456 -1.0369z"/>
   <path id="_589077552" class="fil13 str8" d="M117.555 214.212c0.1372,-0.5011 0.2282,-1.004 0.2659,-1.4965 0.276,-3.6054 -2.3928,-5.277 -5.8211,-5.5394 -3.4284,-0.2625 -6.3203,0.9834 -6.5963,4.5888 -0.0377,0.4925 -0.0243,1.0034 0.035,1.5195 0.8218,-2.5702 3.3817,-3.4683 6.3418,-3.2417 2.9602,0.2266 5.3537,1.5039 5.7747,4.1693z"/>
   <path id="_589077480" class="fil0" d="M135.531 180.803c0,0 1.4395,11.1349 1.6083,15.1014 0.1688,3.9666 -1.8982,10.5639 -1.7069,12.9212 0.1913,2.3573 1.0465,5.3496 -1.6026,5.7177 -2.6491,0.368 -5.9765,0.8677 -7.781,0.3253 -1.8045,-0.5425 -2.117,-2.5072 -1.0998,-4.1206 1.0172,-1.6134 0.7265,-13.6836 0.3194,-15.8703 -0.4071,-2.1867 -2.2781,-12.9804 -2.2781,-12.9804l12.5407 -1.0943z"/>
   <g style="clip-path:url(#id21)">
    <g>
     <path id="_4846167521" class="fil3 str9" d="M126.871 213.732c0,0 -0.4986,-0.4987 -1.3748,-0.2527m8.399 -0.9744c0,0 0.8798,2.0972 -1.1708,2.2203m-5.1001 -1.9773c0,0 0.8797,2.0969 -1.1708,2.2202m3.3119 -2.0778c0,0 0.8799,2.0972 -1.1709,2.2205m3.2244 -2.358c0,0 0.8797,2.0971 -1.1712,2.2201m4.2485 -1.7347c0,0 -0.1753,-0.1755 -0.4835,-0.0888m-1.0553 0.5903c0,0 -0.3164,-0.3167 -0.8724,-0.1607m-1.1575 0.3671c0,0 -0.3164,-0.3167 -0.8724,-0.1606m-1.1485 0.088c0,0 -0.3162,-0.3168 -0.8724,-0.1604"/>
    </g>
   </g>
   <path class="fil3 str10" d="M135.531 180.803c0,0 1.4395,11.1349 1.6083,15.1014 0.1688,3.9666 -1.8982,10.5639 -1.7069,12.9212 0.1913,2.3573 1.0465,5.3496 -1.6026,5.7177 -2.6491,0.368 -5.9765,0.8677 -7.781,0.3253 -1.8045,-0.5425 -2.117,-2.5072 -1.0998,-4.1206 1.0172,-1.6134 0.7265,-13.6836 0.3194,-15.8703 -0.4071,-2.1867 -2.2781,-12.9804 -2.2781,-12.9804l12.5407 -1.0943z"/>
   <path id="_589077408" class="fil13 str8" d="M124.206 214.196c-0.1394,-0.5005 -0.2328,-1.003 -0.2727,-1.4953 -0.2925,-3.6041 2.3686,-5.2878 5.7957,-5.566 3.4271,-0.2781 6.3248,0.9545 6.6173,4.5586 0.0399,0.4923 0.0288,1.0033 -0.0281,1.5197 -0.8336,-2.5664 -3.3975,-3.4529 -6.3566,-3.2127 -2.9591,0.2401 -5.3468,1.5284 -5.7556,4.1957z"/>
   <g>
    <path id="_589077336" class="fil12 str7" d="M99.5913 199.387c1.025,1.6121 10.9915,4.875 21.2486,4.875 10.2572,0 20.2237,-3.2629 21.2487,-4.875 0.2104,-0.3309 -4.0844,-46.9632 -8.2453,-49.3879 -6.4833,-3.7781 -19.5235,-3.7781 -26.0067,0 -4.1606,2.4245 -8.4559,49.0567 -8.2453,49.3879z"/>
    <g>
     <g>
      <circle id="_589077264" class="fil14" cx="113.099" cy="151.518" r="0.335961"/>
      <circle id="_589077192" class="fil13" transform="matrix(0.111534 -0.111534 0.223068 0.223068 113.686 152.085)" r="1.5224"/>
      <circle id="_589077120" class="fil14" cx="114.24" cy="152.683" r="0.335961"/>
      <circle id="_589077048" class="fil13" transform="matrix(0.111534 -0.111534 0.223068 0.223068 114.826 153.251)" r="1.5224"/>
      <circle id="_589076976" class="fil14" transform="matrix(0.213145 -0.0571695 0.0571695 0.213145 115.479 153.713)" r="1.5224"/>
      <circle id="_589076904" class="fil13" transform="matrix(0.0788319 -0.13662 0.273241 0.157664 116.192 154.109)" r="1.5224"/>
      <circle id="_589076832" class="fil14" transform="matrix(0.194964 -0.103383 0.103383 0.194964 116.903 154.51)" r="1.5224"/>
      <circle id="_589076760" class="fil13" transform="matrix(0.0462861 -0.150788 0.301577 0.0925723 117.687 154.737)" r="1.5224"/>
      <circle id="_589076688" class="fil14" transform="matrix(0.194964 -0.103383 0.103383 0.194964 118.447 155.028)" r="1.5224"/>
      <circle id="_589076616" class="fil13" transform="matrix(0.0462861 -0.150788 0.301577 0.0925723 119.231 155.255)" r="1.5224"/>
      <circle id="_589076544" class="fil14" transform="matrix(0.168388 -0.142634 0.142634 0.168388 120.026 155.396)" r="1.5224"/>
      <circle id="_589076472" class="fil13" transform="matrix(0.0130162 -0.157195 0.314389 0.0260323 120.84 155.45)" r="1.5224"/>
      <circle id="_589076400" class="fil14" transform="matrix(0.21365 0.0552499 -0.0552499 0.21365 112.218 150.147)" r="1.5224"/>
      <circle id="_589076328" class="fil13" transform="matrix(0.135906 -0.0800577 0.160115 0.271811 112.643 150.844)" r="1.5224"/>
      <circle id="_589076256" class="fil14" transform="matrix(0.158468 0.15358 -0.15358 0.158468 112.1 148.526)" r="1.5224"/>
      <circle id="_589076184" class="fil13" transform="matrix(0.157713 -0.00247052 0.00494104 0.315427 112.126 149.342)" r="1.5224"/>
     </g>
     <g>
      <circle id="_589076088" class="fil14" cx="128.581" cy="151.518" r="0.335961"/>
      <circle id="_589076016" class="fil13" transform="matrix(-0.111534 -0.111534 -0.223068 0.223068 127.994 152.085)" r="1.5224"/>
      <circle id="_589075944" class="fil14" cx="127.44" cy="152.683" r="0.335961"/>
      <circle id="_589075872" class="fil13" transform="matrix(-0.111534 -0.111534 -0.223068 0.223068 126.854 153.251)" r="1.5224"/>
      <circle id="_589075800" class="fil14" transform="matrix(-0.213145 -0.0571695 -0.0571695 0.213145 126.201 153.713)" r="1.5224"/>
      <circle id="_589075728" class="fil13" transform="matrix(-0.0788319 -0.13662 -0.273241 0.157664 125.488 154.11)" r="1.5224"/>
      <circle id="_589075656" class="fil14" transform="matrix(-0.194964 -0.103383 -0.103383 0.194964 124.777 154.51)" r="1.5224"/>
      <circle id="_589075584" class="fil13" transform="matrix(-0.0462861 -0.150788 -0.301577 0.0925723 123.993 154.737)" r="1.5224"/>
      <circle id="_589075512" class="fil14" transform="matrix(-0.194964 -0.103383 -0.103383 0.194964 123.233 155.028)" r="1.5224"/>
      <circle id="_589075440" class="fil13" transform="matrix(-0.0462861 -0.150788 -0.301577 0.0925723 122.449 155.255)" r="1.5224"/>
      <circle id="_589075368" class="fil14" transform="matrix(-0.168388 -0.142634 -0.142634 0.168388 121.654 155.396)" r="1.5224"/>
      <circle id="_589075296" class="fil14" transform="matrix(-0.21365 0.0552499 0.0552499 0.21365 129.462 150.147)" r="1.5224"/>
      <circle id="_589075224" class="fil13" transform="matrix(-0.135906 -0.0800577 -0.160115 0.271811 129.037 150.844)" r="1.5224"/>
      <circle id="_589075152" class="fil14" transform="matrix(-0.158468 0.15358 0.15358 0.158468 129.58 148.526)" r="1.5224"/>
      <circle id="_589075080" class="fil13" transform="matrix(-0.157713 -0.00247052 -0.00494104 0.315427 129.554 149.342)" r="1.5224"/>
     </g>
    </g>
   </g>
   <g>
    <path id="_589074936" class="fil13" d="M112.917 172.767c0,0 -2.5861,6.7352 -3.3716,13.8703 -0.7852,7.135 -0.064,12.8541 -0.064,12.8541 0,0 1.4953,-9.2164 3.4356,-26.7244z"/>
    <path id="_589074864" class="fil13" d="M118.396 174.967c0,0 -1.9744,7.8458 -2.1516,15.2154 -0.1769,7.369 1.0047,12.625 1.0047,12.625 0,0 0.6997,-9.7508 1.1469,-27.8404z"/>
    <path id="_589074792" class="fil13" d="M123.284 174.967c0,0 1.9743,7.8461 2.1514,15.2154 0.1772,7.369 -1.0046,12.625 -1.0046,12.625 0,0 -0.6997,-9.7512 -1.1468,-27.8404z"/>
    <path id="_589074720" class="fil13" d="M128.763 172.767c0,0 2.586,6.7352 3.3714,13.8702 0.7855,7.1348 0.0641,12.8542 0.0641,12.8542 0,0 -1.4953,-9.2166 -3.4355,-26.7244z"/>
    <path id="_589074648" class="fil13" d="M133.201 170.714c0,0 2.8348,6.1265 3.8923,13.0544 1.0575,6.9281 0.5603,12.784 0.5603,12.784 0,0 -1.8446,-8.8412 -4.4526,-25.8384z"/>
    <path id="_589074576" class="fil13" d="M108.479 170.714c0,0 -2.8348,6.1265 -3.8924,13.0544 -1.0575,6.9281 -0.5602,12.784 -0.5602,12.784 0,0 1.8446,-8.8412 4.4526,-25.8384z"/>
   </g>
  </g>
  <path class="fil0 str0" d="M114.328 143.455l13.0238 0 0 5.6497c0,1.639 -2.9159,2.9683 -6.5118,2.9683 -3.5957,0 -6.512,-1.3293 -6.512,-2.9683l0 -5.6497z"/>
  <path class="fil14 str11" d="M310.343 101.031c12.0503,0 21.8227,6.3272 21.8227,14.1292 0,7.8021 -9.7724,14.1293 -21.8227,14.1293 -5.935,0 -11.3167,-1.5354 -15.2508,-4.0254l-8.0449 4.01 4.0251 -7.4806c-1.628,-1.9781 -2.552,-4.2358 -2.552,-6.6333 0,-7.802 9.7724,-14.1292 21.8226,-14.1292z"/>
  <path class="fil14 str11" d="M180.857 101.124c12.0503,0 21.8227,6.3272 21.8227,14.1292 0,7.8021 -9.7724,14.1293 -21.8227,14.1293 -5.935,0 -11.3167,-1.5354 -15.2508,-4.0254l-8.0449 4.01 4.0251 -7.4806c-1.628,-1.9781 -2.552,-4.2358 -2.552,-6.6333 0,-7.802 9.7724,-14.1292 21.8226,-14.1292z"/>
  <path class="fil15" d="M164.293 116.854c0,-0.2032 0.0995,-0.4276 0.2985,-0.6731 0.2455,-0.2413 0.491,-0.4847 0.7366,-0.7303 0.0423,-0.1439 0.0783,-0.2582 0.1079,-0.3429 0.0593,-0.1651 0.1609,-0.2476 0.3048,-0.2476 0.0762,0 0.127,0.0212 0.1524,0.0635 0.0127,0.0339 0.0201,0.0995 0.0222,0.1968 0.0021,0.0974 0.0032,0.1948 0.0032,0.2921 0,0.1397 -0.1916,0.4033 -0.5747,0.7906 -0.3831,0.3874 -0.5619,0.6234 -0.5365,0.708 0.0592,0.2075 0.2328,0.3112 0.5207,0.3112 0.1312,0 0.3079,-0.0826 0.5302,-0.2477 0.2222,-0.1651 0.4477,-0.3365 0.6763,-0.5143 0.0381,0 0.0762,0.018 0.1143,0.054 0.0381,0.036 0.0571,0.0899 0.0571,0.1619 0,0.2074 -0.1651,0.436 -0.4953,0.6858 -0.3302,0.2498 -0.6413,0.3746 -0.9334,0.3746 -0.271,0 -0.4996,-0.0783 -0.6858,-0.2349 -0.199,-0.1693 -0.2985,-0.3852 -0.2985,-0.6477zm0.9589 -3.2766c0,-0.1016 0.0254,-0.1852 0.0762,-0.2508 0.0508,-0.0656 0.1291,-0.0985 0.2349,-0.0985 0.0974,0 0.1757,0.0297 0.235,0.0889 0.0592,0.0593 0.0889,0.1376 0.0889,0.235 0,0.0974 -0.0276,0.182 -0.0826,0.254 -0.055,0.072 -0.127,0.1122 -0.2159,0.1206 -0.1016,0 -0.1831,-0.0328 -0.2445,-0.0984 -0.0614,-0.0656 -0.092,-0.1492 -0.092,-0.2508zm3.9243 1.2573c0,0.5249 -0.1948,1.1314 -0.5842,1.8193 -0.3895,0.6879 -0.7176,1.0318 -0.9843,1.0318 -0.2117,0 -0.3598,-0.2582 -0.4445,-0.7747 -0.0847,-0.5164 -0.127,-1.325 -0.127,-2.4257l0 -0.8318c0.3006,-0.1439 0.599,-0.2159 0.8954,-0.2159 0.3767,0 0.6731,0.1122 0.889,0.3365 0.237,0.2456 0.3556,0.5991 0.3556,1.0605zm-0.5398 0.0571c0,-0.2921 -0.0339,-0.5058 -0.1016,-0.6413 -0.0889,-0.1778 -0.2455,-0.2667 -0.4699,-0.2667 -0.1397,0 -0.29,0.0402 -0.4508,0.1206 0,0.8001 0.0084,1.4669 0.0254,2.0003 0.0169,0.5334 0.0359,0.8001 0.0571,0.8001 0.3852,-0.5461 0.6382,-0.944 0.7588,-1.1938 0.1207,-0.2498 0.181,-0.5228 0.181,-0.8192zm3.537 0.9525c0,0.5715 -0.1079,1.0436 -0.3238,1.4161 -0.2329,0.4022 -0.5483,0.6033 -0.9462,0.6033 -0.453,0 -0.8107,-0.2181 -1.0731,-0.6541 -0.2625,-0.436 -0.3937,-0.9843 -0.3937,-1.6447 0,-0.5969 0.1068,-1.0964 0.3206,-1.4986 0.2138,-0.4021 0.5027,-0.6032 0.8668,-0.6032 0.4699,0 0.8488,0.2349 1.1367,0.7048 0.2751,0.4488 0.4127,1.0076 0.4127,1.6764zm-0.5334 -0.0063c0,-0.5207 -0.0804,-0.9504 -0.2413,-1.2891 -0.1736,-0.364 -0.4106,-0.5461 -0.7112,-0.5461 -0.199,0 -0.363,0.1524 -0.4921,0.4572 -0.1291,0.3048 -0.1937,0.6837 -0.1937,1.1367 0,0.5122 0.0783,0.9271 0.235,1.2446 0.1778,0.3598 0.4233,0.5397 0.7366,0.5397 0.1905,0 0.3492,-0.1471 0.4762,-0.4413 0.127,-0.2942 0.1905,-0.6614 0.1905,-1.1017zm-0.1968 -3.2068c0,0.0889 -0.0995,0.1948 -0.2985,0.3175 -0.0635,0.0381 -0.163,0.0911 -0.2984,0.1588l-0.5144 0c0.1651,-0.1778 0.29,-0.3112 0.3747,-0.4001 0.2667,-0.2709 0.4318,-0.4064 0.4953,-0.4064 0.1058,0 0.1756,0.0297 0.2095,0.0889 0.0212,0.0381 0.0318,0.1186 0.0318,0.2413zm3.7465 1.905l0 1.7018 0 0.2731c0,0.5715 -0.0265,0.9588 -0.0794,1.162 -0.0529,0.2033 -0.1301,0.3049 -0.2317,0.3049 -0.2075,0 -0.4107,-0.18 -0.6096,-0.5398 -0.1016,-0.1863 -0.2742,-0.5937 -0.5176,-1.2224 -0.2434,-0.6286 -0.4498,-1.089 -0.6191,-1.3811 0,0.1355 0.0042,0.4138 0.0127,0.835 0.0085,0.4212 0.0127,0.6678 0.0127,0.7398 0,0.4106 -0.0169,0.726 -0.0508,0.9461 -0.0339,0.2202 -0.0995,0.3302 -0.1968,0.3302 -0.1397,0 -0.2403,-0.1174 -0.3017,-0.3524 -0.0614,-0.2349 -0.092,-0.5577 -0.092,-0.9684l0 -1.7907c0,-0.3937 0.0201,-0.6953 0.0603,-0.9048 0.0402,-0.2096 0.1196,-0.3144 0.2381,-0.3144 0.1439,0 0.3408,0.2392 0.5906,0.7176 0.1651,0.3175 0.3862,0.8075 0.6635,1.47 0.2773,0.6625 0.4562,1.0763 0.5366,1.2414l-0.0444 -2.1145c0,-0.4995 0.0232,-0.8869 0.0698,-1.1621 0.0466,-0.2751 0.1291,-0.4127 0.2477,-0.4127 0.1164,0 0.1968,0.1249 0.2423,0.3746 0.0455,0.2498 0.0688,0.6054 0.0688,1.0668zm2.5147 0.2985c0,0.5249 -0.1948,1.1314 -0.5842,1.8193 -0.3895,0.6879 -0.7176,1.0318 -0.9843,1.0318 -0.2117,0 -0.3598,-0.2582 -0.4445,-0.7747 -0.0847,-0.5164 -0.127,-1.325 -0.127,-2.4257l0 -0.8318c0.3006,-0.1439 0.599,-0.2159 0.8954,-0.2159 0.3767,0 0.6731,0.1122 0.889,0.3365 0.237,0.2456 0.3556,0.5991 0.3556,1.0605zm-0.5398 0.0571c0,-0.2921 -0.0339,-0.5058 -0.1016,-0.6413 -0.0889,-0.1778 -0.2455,-0.2667 -0.4699,-0.2667 -0.1397,0 -0.29,0.0402 -0.4508,0.1206 0,0.8001 0.0084,1.4669 0.0254,2.0003 0.0169,0.5334 0.0359,0.8001 0.0571,0.8001 0.3852,-0.5461 0.6382,-0.944 0.7588,-1.1938 0.1207,-0.2498 0.181,-0.5228 0.181,-0.8192zm2.6353 2.2098c0,0.1609 -0.1482,0.29 -0.4445,0.3874 -0.254,0.0847 -0.5355,0.127 -0.8445,0.127 -0.1567,0 -0.2689,-0.0783 -0.3366,-0.235 -0.0508,-0.1185 -0.0762,-0.2783 -0.0762,-0.4773 -0.0042,-0.182 -0.0085,-0.3344 -0.0127,-0.4582 -0.0296,-0.8774 -0.0444,-1.5177 -0.0444,-1.9198 0,-0.4964 0.0127,-0.8964 0.0381,-1.2023l1.1239 -0.1397c0.0423,0 0.072,0 0.0889,0 0.1101,0 0.1969,0.0201 0.2604,0.0603 0.0635,0.0402 0.0952,0.1027 0.0952,0.1873 0,0.072 -0.0423,0.1376 -0.127,0.1969 -0.0847,0.0593 -0.1799,0.0995 -0.2857,0.1206l-0.5842 0.108 0 1.2509 0.5207 -0.0254c0.1651,0 0.2815,0.0297 0.3492,0.0889 0.0677,0.0593 0.1016,0.1397 0.1016,0.2413 0,0.0847 -0.0349,0.1535 -0.1048,0.2064 -0.0698,0.0529 -0.1534,0.0794 -0.2508,0.0794l-0.5778 0.0381 0.0381 1.1747c0.0846,0 0.1957,-0.0095 0.3333,-0.0285 0.1376,-0.0191 0.2657,-0.0371 0.3842,-0.054 0.1058,0 0.1916,0.0201 0.2572,0.0603 0.0656,0.0402 0.0984,0.1111 0.0984,0.2127zm5.1118 -3.7401c0,0.1609 -0.0741,0.5419 -0.2223,1.143 -0.127,0.508 -0.2646,1.0276 -0.4127,1.5589 -0.1482,0.5313 -0.2244,0.7969 -0.2286,0.7969 -0.0731,0.271 -0.145,0.4784 -0.217,0.6223 -0.0889,0.1821 -0.1842,0.2816 -0.2858,0.2985 -0.1651,0.0296 -0.3365,-0.3577 -0.5143,-1.1621l-0.4434 -2.0193c-0.0466,-0.2032 -0.0699,-0.3979 -0.0699,-0.5842 0,-0.11 0.0138,-0.1809 0.0413,-0.2127 0.0275,-0.0317 0.0688,-0.0434 0.1238,-0.0349 0.072,0.0085 0.1365,0.0508 0.1937,0.127 0.0571,0.0762 0.1005,0.1693 0.1302,0.2794l0.5715 2.3622c0.1481,-0.4868 0.3132,-1.1176 0.4953,-1.8923 0.1354,-0.5842 0.2413,-0.9694 0.3175,-1.1557 0.1058,-0.2625 0.2391,-0.3937 0.4,-0.3937 0.0804,0 0.1207,0.0889 0.1207,0.2667zm0.8127 3.7846c0,0.3471 -0.0212,0.599 -0.0624,0.7557 -0.053,0.2032 -0.1461,0.3048 -0.2784,0.3048 -0.0709,0 -0.1217,-0.0858 -0.1524,-0.2572 -0.0307,-0.1715 -0.0465,-0.4096 -0.0465,-0.7144l-0.0826 -2.8321c0,-0.1947 0.0222,-0.345 0.0667,-0.4509 0.0444,-0.1058 0.128,-0.1587 0.2508,-0.1587 0.1185,0 0.199,0.1037 0.2413,0.3111 0.0423,0.2075 0.0635,0.5631 0.0635,1.0668l0 1.9749zm2.8639 -3.7846c0,0.1609 -0.0741,0.5419 -0.2223,1.143 -0.127,0.508 -0.2646,1.0276 -0.4127,1.5589 -0.1482,0.5313 -0.2244,0.7969 -0.2286,0.7969 -0.0731,0.271 -0.145,0.4784 -0.217,0.6223 -0.0889,0.1821 -0.1842,0.2816 -0.2858,0.2985 -0.1651,0.0296 -0.3365,-0.3577 -0.5143,-1.1621l-0.4434 -2.0193c-0.0466,-0.2032 -0.0699,-0.3979 -0.0699,-0.5842 0,-0.11 0.0138,-0.1809 0.0413,-0.2127 0.0275,-0.0317 0.0688,-0.0434 0.1238,-0.0349 0.072,0.0085 0.1365,0.0508 0.1937,0.127 0.0571,0.0762 0.1005,0.1693 0.1302,0.2794l0.5715 2.3622c0.1481,-0.4868 0.3132,-1.1176 0.4953,-1.8923 0.1354,-0.5842 0.2413,-0.9694 0.3175,-1.1557 0.1058,-0.2625 0.2391,-0.3937 0.4,-0.3937 0.0804,0 0.1207,0.0889 0.1207,0.2667zm1.9811 3.7401c0,0.1609 -0.1482,0.29 -0.4445,0.3874 -0.254,0.0847 -0.5355,0.127 -0.8445,0.127 -0.1567,0 -0.2689,-0.0783 -0.3366,-0.235 -0.0508,-0.1185 -0.0762,-0.2783 -0.0762,-0.4773 -0.0042,-0.182 -0.0085,-0.3344 -0.0127,-0.4582 -0.0296,-0.8774 -0.0444,-1.5177 -0.0444,-1.9198 0,-0.4964 0.0127,-0.8964 0.0381,-1.2023l1.1239 -0.1397c0.0423,0 0.072,0 0.0889,0 0.1101,0 0.1969,0.0201 0.2604,0.0603 0.0635,0.0402 0.0952,0.1027 0.0952,0.1873 0,0.072 -0.0423,0.1376 -0.127,0.1969 -0.0847,0.0593 -0.1799,0.0995 -0.2857,0.1206l-0.5842 0.108 0 1.2509 0.5207 -0.0254c0.1651,0 0.2815,0.0297 0.3492,0.0889 0.0677,0.0593 0.1016,0.1397 0.1016,0.2413 0,0.0847 -0.0349,0.1535 -0.1048,0.2064 -0.0698,0.0529 -0.1534,0.0794 -0.2508,0.0794l-0.5778 0.0381 0.0381 1.1747c0.0846,0 0.1957,-0.0095 0.3333,-0.0285 0.1376,-0.0191 0.2657,-0.0371 0.3842,-0.054 0.1058,0 0.1916,0.0201 0.2572,0.0603 0.0656,0.0402 0.0984,0.1111 0.0984,0.2127zm2.7559 -0.6667c0,0.3514 -0.1418,0.6361 -0.4254,0.8541 -0.2837,0.218 -0.6329,0.327 -1.0478,0.327 -0.2286,0 -0.4635,-0.0614 -0.7048,-0.1842 -0.2413,-0.1227 -0.362,-0.2561 -0.362,-0.4 0,-0.0593 0.0286,-0.1154 0.0857,-0.1683 0.0572,-0.0529 0.1217,-0.0794 0.1937,-0.0794 0.0254,0 0.1503,0.0519 0.3747,0.1556 0.2243,0.1037 0.3725,0.1556 0.4445,0.1556 0.2286,0 0.4222,-0.055 0.581,-0.1651 0.1587,-0.1101 0.2381,-0.2625 0.2381,-0.4572 0,-0.2032 -0.1799,-0.3916 -0.5397,-0.5652 -0.3387,-0.1566 -0.6774,-0.3132 -1.016,-0.4699 -0.3641,-0.2116 -0.5461,-0.4572 -0.5461,-0.7366 0,-0.2963 0.1608,-0.5831 0.4826,-0.8604 0.3217,-0.2773 0.6752,-0.4159 1.0604,-0.4159 0.2709,0 0.4445,0.0042 0.5207,0.0127 0.2413,0.0254 0.362,0.1291 0.362,0.3111 0,0.1313 -0.2943,0.2202 -0.8827,0.2667 -0.5884,0.0466 -0.8826,0.2646 -0.8826,0.6541 0,0.2074 0.1778,0.3725 0.5334,0.4953 0.6011,0.2032 0.9313,0.3217 0.9906,0.3556 0.3598,0.2032 0.5397,0.508 0.5397,0.9144zm2.8639 -2.3241c0,0.2032 -0.0995,0.4276 -0.2984,0.6731 -0.2456,0.2455 -0.4911,0.4889 -0.7366,0.7302 -0.0424,0.144 -0.0784,0.2583 -0.108,0.3429 -0.0593,0.1651 -0.1609,0.2477 -0.3048,0.2477 -0.0762,0 -0.127,-0.0212 -0.1524,-0.0635 -0.0085,-0.0212 -0.0148,-0.0847 -0.019,-0.1905 -0.0043,-0.1058 -0.0064,-0.1842 -0.0064,-0.235 0,-0.0296 0,-0.0465 0,-0.0508 0,-0.0042 0,-0.0084 0,-0.0127 0,-0.1397 0.1916,-0.4032 0.5747,-0.7905 0.3831,-0.3874 0.562,-0.6234 0.5366,-0.7081 -0.0593,-0.2074 -0.2329,-0.3111 -0.5207,-0.3111 -0.1313,0 -0.3048,0.0783 -0.5207,0.2349 -0.2286,0.1778 -0.4572,0.3535 -0.6858,0.5271 -0.0381,0 -0.072,-0.0148 -0.1016,-0.0445 -0.0466,-0.0423 -0.0699,-0.0994 -0.0699,-0.1714 0,-0.2074 0.1651,-0.436 0.4953,-0.6858 0.3302,-0.2498 0.6414,-0.3747 0.9335,-0.3747 0.2709,0 0.5027,0.0815 0.6953,0.2445 0.1926,0.163 0.2889,0.3757 0.2889,0.6382zm-0.9588 3.2766c0,0.1016 -0.0254,0.1852 -0.0762,0.2508 -0.0508,0.0656 -0.1292,0.0984 -0.235,0.0984 -0.0974,0 -0.1757,-0.0296 -0.2349,-0.0889 -0.0593,-0.0592 -0.0889,-0.1375 -0.0889,-0.2349 0,-0.0974 0.0275,-0.182 0.0825,-0.254 0.055,-0.072 0.127,-0.1122 0.2159,-0.1207 0.1016,0 0.1831,0.0329 0.2445,0.0985 0.0614,0.0656 0.0921,0.1492 0.0921,0.2508z"/>
  <path class="fil0 str0" d="M114.215 143.567l13.0238 0 0 5.6497c0,1.639 -2.9159,2.9683 -6.5118,2.9683 -3.5957,0 -6.512,-1.3293 -6.512,-2.9683l0 -5.6497z"/>
  <path class="fil15" d="M290.693 116.827c0,-0.2032 0.0995,-0.4276 0.2985,-0.6731 0.2455,-0.2413 0.491,-0.4847 0.7366,-0.7303 0.0423,-0.1439 0.0783,-0.2582 0.1079,-0.3429 0.0593,-0.1651 0.1609,-0.2476 0.3048,-0.2476 0.0762,0 0.127,0.0212 0.1524,0.0635 0.0127,0.0339 0.0201,0.0995 0.0222,0.1968 0.0021,0.0974 0.0032,0.1948 0.0032,0.2921 0,0.1397 -0.1916,0.4033 -0.5747,0.7906 -0.3831,0.3874 -0.5619,0.6234 -0.5365,0.708 0.0592,0.2075 0.2328,0.3112 0.5207,0.3112 0.1312,0 0.3079,-0.0826 0.5302,-0.2477 0.2222,-0.1651 0.4477,-0.3365 0.6763,-0.5143 0.0381,0 0.0762,0.018 0.1143,0.054 0.0381,0.036 0.0571,0.0899 0.0571,0.1619 0,0.2074 -0.1651,0.436 -0.4953,0.6858 -0.3302,0.2498 -0.6413,0.3746 -0.9334,0.3746 -0.271,0 -0.4996,-0.0783 -0.6858,-0.2349 -0.199,-0.1693 -0.2985,-0.3852 -0.2985,-0.6477zm0.9589 -3.2766c0,-0.1016 0.0254,-0.1852 0.0762,-0.2508 0.0508,-0.0656 0.1291,-0.0985 0.2349,-0.0985 0.0974,0 0.1757,0.0297 0.235,0.0889 0.0592,0.0593 0.0889,0.1376 0.0889,0.235 0,0.0974 -0.0276,0.182 -0.0826,0.254 -0.055,0.072 -0.127,0.1122 -0.2159,0.1206 -0.1016,0 -0.1831,-0.0328 -0.2445,-0.0984 -0.0614,-0.0656 -0.092,-0.1492 -0.092,-0.2508zm3.9243 1.2573c0,0.5249 -0.1948,1.1314 -0.5842,1.8193 -0.3895,0.6879 -0.7176,1.0318 -0.9843,1.0318 -0.2117,0 -0.3598,-0.2582 -0.4445,-0.7747 -0.0847,-0.5164 -0.127,-1.325 -0.127,-2.4257l0 -0.8318c0.3006,-0.1439 0.599,-0.2159 0.8954,-0.2159 0.3767,0 0.6731,0.1122 0.889,0.3365 0.237,0.2456 0.3556,0.5991 0.3556,1.0605zm-0.5398 0.0571c0,-0.2921 -0.0339,-0.5058 -0.1016,-0.6413 -0.0889,-0.1778 -0.2455,-0.2667 -0.4699,-0.2667 -0.1397,0 -0.29,0.0402 -0.4508,0.1206 0,0.8001 0.0084,1.4669 0.0254,2.0003 0.0169,0.5334 0.0359,0.8001 0.0571,0.8001 0.3852,-0.5461 0.6382,-0.944 0.7588,-1.1938 0.1207,-0.2498 0.181,-0.5228 0.181,-0.8192zm2.6353 2.2098c0,0.1609 -0.1482,0.29 -0.4445,0.3874 -0.254,0.0847 -0.5355,0.127 -0.8445,0.127 -0.1567,0 -0.2689,-0.0783 -0.3366,-0.235 -0.0508,-0.1185 -0.0762,-0.2783 -0.0762,-0.4773 -0.0042,-0.182 -0.0085,-0.3344 -0.0127,-0.4582 -0.0296,-0.8774 -0.0444,-1.5177 -0.0444,-1.9198 0,-0.4964 0.0127,-0.8964 0.0381,-1.2023l1.1239 -0.1397c0.0423,0 0.072,0 0.0889,0 0.1101,0 0.1969,0.0201 0.2604,0.0603 0.0635,0.0402 0.0952,0.1027 0.0952,0.1873 0,0.072 -0.0423,0.1376 -0.127,0.1969 -0.0847,0.0593 -0.1799,0.0995 -0.2857,0.1206l-0.5842 0.108 0 1.2509 0.5207 -0.0254c0.1651,0 0.2815,0.0297 0.3492,0.0889 0.0677,0.0593 0.1016,0.1397 0.1016,0.2413 0,0.0847 -0.0349,0.1535 -0.1048,0.2064 -0.0698,0.0529 -0.1534,0.0794 -0.2508,0.0794l-0.5778 0.0381 0.0381 1.1747c0.0846,0 0.1957,-0.0095 0.3333,-0.0285 0.1376,-0.0191 0.2657,-0.0371 0.3842,-0.054 0.1058,0 0.1916,0.0201 0.2572,0.0603 0.0656,0.0402 0.0984,0.1111 0.0984,0.2127zm4.9721 -2.2669c0,0.5249 -0.1948,1.1314 -0.5842,1.8193 -0.3895,0.6879 -0.7176,1.0318 -0.9843,1.0318 -0.2117,0 -0.3598,-0.2582 -0.4445,-0.7747 -0.0847,-0.5164 -0.127,-1.325 -0.127,-2.4257l0 -0.8318c0.3006,-0.1439 0.599,-0.2159 0.8954,-0.2159 0.3767,0 0.6731,0.1122 0.889,0.3365 0.237,0.2456 0.3556,0.5991 0.3556,1.0605zm-0.5398 0.0571c0,-0.2921 -0.0339,-0.5058 -0.1016,-0.6413 -0.0889,-0.1778 -0.2455,-0.2667 -0.4699,-0.2667 -0.1397,0 -0.29,0.0402 -0.4508,0.1206 0,0.8001 0.0084,1.4669 0.0254,2.0003 0.0169,0.5334 0.0359,0.8001 0.0571,0.8001 0.3852,-0.5461 0.6382,-0.944 0.7588,-1.1938 0.1207,-0.2498 0.181,-0.5228 0.181,-0.8192zm3.537 0.9525c0,0.5715 -0.1079,1.0436 -0.3238,1.4161 -0.2329,0.4022 -0.5483,0.6033 -0.9462,0.6033 -0.453,0 -0.8107,-0.2181 -1.0731,-0.6541 -0.2625,-0.436 -0.3937,-0.9843 -0.3937,-1.6447 0,-0.5969 0.1068,-1.0964 0.3206,-1.4986 0.2138,-0.4021 0.5027,-0.6032 0.8668,-0.6032 0.4699,0 0.8488,0.2349 1.1367,0.7048 0.2751,0.4488 0.4127,1.0076 0.4127,1.6764zm-0.5334 -0.0063c0,-0.5207 -0.0804,-0.9504 -0.2413,-1.2891 -0.1736,-0.364 -0.4106,-0.5461 -0.7112,-0.5461 -0.199,0 -0.363,0.1524 -0.4921,0.4572 -0.1291,0.3048 -0.1937,0.6837 -0.1937,1.1367 0,0.5122 0.0783,0.9271 0.235,1.2446 0.1778,0.3598 0.4233,0.5397 0.7366,0.5397 0.1905,0 0.3492,-0.1471 0.4762,-0.4413 0.127,-0.2942 0.1905,-0.6614 0.1905,-1.1017zm-0.1968 -3.2068c0,0.0889 -0.0995,0.1948 -0.2985,0.3175 -0.0635,0.0381 -0.163,0.0911 -0.2984,0.1588l-0.5144 0c0.1651,-0.1778 0.29,-0.3112 0.3747,-0.4001 0.2667,-0.2709 0.4318,-0.4064 0.4953,-0.4064 0.1058,0 0.1756,0.0297 0.2095,0.0889 0.0212,0.0381 0.0318,0.1186 0.0318,0.2413zm3.7465 1.905l0 1.7018 0 0.2731c0,0.5715 -0.0265,0.9588 -0.0794,1.162 -0.0529,0.2033 -0.1301,0.3049 -0.2317,0.3049 -0.2075,0 -0.4107,-0.18 -0.6096,-0.5398 -0.1016,-0.1863 -0.2742,-0.5937 -0.5176,-1.2224 -0.2434,-0.6286 -0.4498,-1.089 -0.6191,-1.3811 0,0.1355 0.0042,0.4138 0.0127,0.835 0.0085,0.4212 0.0127,0.6678 0.0127,0.7398 0,0.4106 -0.0169,0.726 -0.0508,0.9461 -0.0339,0.2202 -0.0995,0.3302 -0.1968,0.3302 -0.1397,0 -0.2403,-0.1174 -0.3017,-0.3524 -0.0614,-0.2349 -0.092,-0.5577 -0.092,-0.9684l0 -1.7907c0,-0.3937 0.0201,-0.6953 0.0603,-0.9048 0.0402,-0.2096 0.1196,-0.3144 0.2381,-0.3144 0.1439,0 0.3408,0.2392 0.5906,0.7176 0.1651,0.3175 0.3862,0.8075 0.6635,1.47 0.2773,0.6625 0.4562,1.0763 0.5366,1.2414l-0.0444 -2.1145c0,-0.4995 0.0232,-0.8869 0.0698,-1.1621 0.0466,-0.2751 0.1291,-0.4127 0.2477,-0.4127 0.1164,0 0.1968,0.1249 0.2423,0.3746 0.0455,0.2498 0.0688,0.6054 0.0688,1.0668zm2.5147 0.2985c0,0.5249 -0.1948,1.1314 -0.5842,1.8193 -0.3895,0.6879 -0.7176,1.0318 -0.9843,1.0318 -0.2117,0 -0.3598,-0.2582 -0.4445,-0.7747 -0.0847,-0.5164 -0.127,-1.325 -0.127,-2.4257l0 -0.8318c0.3006,-0.1439 0.599,-0.2159 0.8954,-0.2159 0.3767,0 0.6731,0.1122 0.889,0.3365 0.237,0.2456 0.3556,0.5991 0.3556,1.0605zm-0.5398 0.0571c0,-0.2921 -0.0339,-0.5058 -0.1016,-0.6413 -0.0889,-0.1778 -0.2455,-0.2667 -0.4699,-0.2667 -0.1397,0 -0.29,0.0402 -0.4508,0.1206 0,0.8001 0.0084,1.4669 0.0254,2.0003 0.0169,0.5334 0.0359,0.8001 0.0571,0.8001 0.3852,-0.5461 0.6382,-0.944 0.7588,-1.1938 0.1207,-0.2498 0.181,-0.5228 0.181,-0.8192zm2.6353 2.2098c0,0.1609 -0.1482,0.29 -0.4445,0.3874 -0.254,0.0847 -0.5355,0.127 -0.8445,0.127 -0.1567,0 -0.2689,-0.0783 -0.3366,-0.235 -0.0508,-0.1185 -0.0762,-0.2783 -0.0762,-0.4773 -0.0042,-0.182 -0.0085,-0.3344 -0.0127,-0.4582 -0.0296,-0.8774 -0.0444,-1.5177 -0.0444,-1.9198 0,-0.4964 0.0127,-0.8964 0.0381,-1.2023l1.1239 -0.1397c0.0423,0 0.072,0 0.0889,0 0.1101,0 0.1969,0.0201 0.2604,0.0603 0.0635,0.0402 0.0952,0.1027 0.0952,0.1873 0,0.072 -0.0423,0.1376 -0.127,0.1969 -0.0847,0.0593 -0.1799,0.0995 -0.2857,0.1206l-0.5842 0.108 0 1.2509 0.5207 -0.0254c0.1651,0 0.2815,0.0297 0.3492,0.0889 0.0677,0.0593 0.1016,0.1397 0.1016,0.2413 0,0.0847 -0.0349,0.1535 -0.1048,0.2064 -0.0698,0.0529 -0.1534,0.0794 -0.2508,0.0794l-0.5778 0.0381 0.0381 1.1747c0.0846,0 0.1957,-0.0095 0.3333,-0.0285 0.1376,-0.0191 0.2657,-0.0371 0.3842,-0.054 0.1058,0 0.1916,0.0201 0.2572,0.0603 0.0656,0.0402 0.0984,0.1111 0.0984,0.2127zm4.6609 0c0,0.1609 -0.1482,0.29 -0.4445,0.3874 -0.254,0.0847 -0.5355,0.127 -0.8445,0.127 -0.1567,0 -0.2689,-0.0783 -0.3366,-0.235 -0.0508,-0.1185 -0.0762,-0.2783 -0.0762,-0.4773 -0.0042,-0.182 -0.0085,-0.3344 -0.0127,-0.4582 -0.0296,-0.8774 -0.0444,-1.5177 -0.0444,-1.9198 0,-0.4964 0.0127,-0.8964 0.0381,-1.2023l1.1239 -0.1397c0.0423,0 0.072,0 0.0889,0 0.1101,0 0.1969,0.0201 0.2604,0.0603 0.0635,0.0402 0.0952,0.1027 0.0952,0.1873 0,0.072 -0.0423,0.1376 -0.127,0.1969 -0.0847,0.0593 -0.1799,0.0995 -0.2857,0.1206l-0.5842 0.108 0 1.2509 0.5207 -0.0254c0.1651,0 0.2815,0.0297 0.3492,0.0889 0.0677,0.0593 0.1016,0.1397 0.1016,0.2413 0,0.0847 -0.0349,0.1535 -0.1048,0.2064 -0.0698,0.0529 -0.1534,0.0794 -0.2508,0.0794l-0.5778 0.0381 0.0381 1.1747c0.0846,0 0.1957,-0.0095 0.3333,-0.0285 0.1376,-0.0191 0.2657,-0.0371 0.3842,-0.054 0.1058,0 0.1916,0.0201 0.2572,0.0603 0.0656,0.0402 0.0984,0.1111 0.0984,0.2127zm3.0734 0.381c-0.0085,0.0551 -0.0212,0.0953 -0.0381,0.1207 -0.0508,0.0804 -0.1376,0.1206 -0.2603,0.1206 -0.3599,0 -0.7557,-0.1778 -1.1875,-0.5334 -0.4318,-0.3556 -0.6286,-0.6455 -0.5905,-0.8699 0,-0.0466 0.2349,-0.1863 0.7048,-0.4191 0.4699,-0.2328 0.7049,-0.4868 0.7049,-0.762 0,-0.2709 -0.1038,-0.5101 -0.3112,-0.7176 -0.2074,-0.2074 -0.453,-0.3111 -0.7366,-0.3111 -0.1778,0 -0.3492,0.0381 -0.5143,0.1143l0 2.4193c0,0.4742 -0.0223,0.8308 -0.0657,1.07 -0.0444,0.2392 -0.1164,0.3588 -0.2169,0.3588 -0.126,0 -0.2138,-0.1281 -0.2646,-0.3842 -0.0497,-0.2561 -0.0751,-0.6233 -0.0751,-1.1017l0 -1.7971c0,-0.5461 0.0582,-0.89 0.1746,-1.0318 0.1153,-0.1418 0.3958,-0.2128 0.8392,-0.2128 0.5112,0 0.9166,0.1016 1.2161,0.3048 0.346,0.2329 0.5196,0.5821 0.5196,1.0478 0,0.4149 -0.0868,0.7218 -0.2603,0.9207 -0.1567,0.1778 -0.4975,0.3874 -1.0224,0.6287 0.2244,0.2794 0.4741,0.4889 0.7493,0.6286 0.4233,0.2159 0.635,0.3514 0.635,0.4064zm2.14 -0.381c0,0.1609 -0.1482,0.29 -0.4445,0.3874 -0.254,0.0847 -0.5355,0.127 -0.8445,0.127 -0.1567,0 -0.2689,-0.0783 -0.3366,-0.235 -0.0508,-0.1185 -0.0762,-0.2783 -0.0762,-0.4773 -0.0042,-0.182 -0.0085,-0.3344 -0.0127,-0.4582 -0.0296,-0.8774 -0.0444,-1.5177 -0.0444,-1.9198 0,-0.4964 0.0127,-0.8964 0.0381,-1.2023l1.1239 -0.1397c0.0423,0 0.072,0 0.0889,0 0.1101,0 0.1969,0.0201 0.2604,0.0603 0.0635,0.0402 0.0952,0.1027 0.0952,0.1873 0,0.072 -0.0423,0.1376 -0.127,0.1969 -0.0847,0.0593 -0.1799,0.0995 -0.2857,0.1206l-0.5842 0.108 0 1.2509 0.5207 -0.0254c0.1651,0 0.2815,0.0297 0.3492,0.0889 0.0677,0.0593 0.1016,0.1397 0.1016,0.2413 0,0.0847 -0.0349,0.1535 -0.1048,0.2064 -0.0698,0.0529 -0.1534,0.0794 -0.2508,0.0794l-0.5778 0.0381 0.0381 1.1747c0.0846,0 0.1957,-0.0095 0.3333,-0.0285 0.1376,-0.0191 0.2657,-0.0371 0.3842,-0.054 0.1058,0 0.1916,0.0201 0.2572,0.0603 0.0656,0.0402 0.0984,0.1111 0.0984,0.2127zm2.7559 -0.6667c0,0.3514 -0.1418,0.6361 -0.4254,0.8541 -0.2837,0.218 -0.6329,0.327 -1.0478,0.327 -0.2286,0 -0.4635,-0.0614 -0.7048,-0.1842 -0.2413,-0.1227 -0.362,-0.2561 -0.362,-0.4 0,-0.0593 0.0286,-0.1154 0.0857,-0.1683 0.0572,-0.0529 0.1217,-0.0794 0.1937,-0.0794 0.0254,0 0.1503,0.0519 0.3747,0.1556 0.2243,0.1037 0.3725,0.1556 0.4445,0.1556 0.2286,0 0.4222,-0.055 0.581,-0.1651 0.1587,-0.1101 0.2381,-0.2625 0.2381,-0.4572 0,-0.2032 -0.1799,-0.3916 -0.5397,-0.5652 -0.3387,-0.1566 -0.6774,-0.3132 -1.016,-0.4699 -0.3641,-0.2116 -0.5461,-0.4572 -0.5461,-0.7366 0,-0.2963 0.1608,-0.5831 0.4826,-0.8604 0.3217,-0.2773 0.6752,-0.4159 1.0604,-0.4159 0.2709,0 0.4445,0.0042 0.5207,0.0127 0.2413,0.0254 0.362,0.1291 0.362,0.3111 0,0.1313 -0.2943,0.2202 -0.8827,0.2667 -0.5884,0.0466 -0.8826,0.2646 -0.8826,0.6541 0,0.2074 0.1778,0.3725 0.5334,0.4953 0.6011,0.2032 0.9313,0.3217 0.9906,0.3556 0.3598,0.2032 0.5397,0.508 0.5397,0.9144zm2.8639 -2.3241c0,0.2032 -0.0995,0.4276 -0.2984,0.6731 -0.2456,0.2455 -0.4911,0.4889 -0.7366,0.7302 -0.0424,0.144 -0.0784,0.2583 -0.108,0.3429 -0.0593,0.1651 -0.1609,0.2477 -0.3048,0.2477 -0.0762,0 -0.127,-0.0212 -0.1524,-0.0635 -0.0085,-0.0212 -0.0148,-0.0847 -0.019,-0.1905 -0.0043,-0.1058 -0.0064,-0.1842 -0.0064,-0.235 0,-0.0296 0,-0.0465 0,-0.0508 0,-0.0042 0,-0.0084 0,-0.0127 0,-0.1397 0.1916,-0.4032 0.5747,-0.7905 0.3831,-0.3874 0.562,-0.6234 0.5366,-0.7081 -0.0593,-0.2074 -0.2329,-0.3111 -0.5207,-0.3111 -0.1313,0 -0.3048,0.0783 -0.5207,0.2349 -0.2286,0.1778 -0.4572,0.3535 -0.6858,0.5271 -0.0381,0 -0.072,-0.0148 -0.1016,-0.0445 -0.0466,-0.0423 -0.0699,-0.0994 -0.0699,-0.1714 0,-0.2074 0.1651,-0.436 0.4953,-0.6858 0.3302,-0.2498 0.6414,-0.3747 0.9335,-0.3747 0.2709,0 0.5027,0.0815 0.6953,0.2445 0.1926,0.163 0.2889,0.3757 0.2889,0.6382zm-0.9588 3.2766c0,0.1016 -0.0254,0.1852 -0.0762,0.2508 -0.0508,0.0656 -0.1292,0.0984 -0.235,0.0984 -0.0974,0 -0.1757,-0.0296 -0.2349,-0.0889 -0.0593,-0.0592 -0.0889,-0.1375 -0.0889,-0.2349 0,-0.0974 0.0275,-0.182 0.0825,-0.254 0.055,-0.072 0.127,-0.1122 0.2159,-0.1207 0.1016,0 0.1831,0.0329 0.2445,0.0985 0.0614,0.0656 0.0921,0.1492 0.0921,0.2508z"/>
  <g id="_589073064">
   <path id="_589074024" class="fil0 str0" d="M92.2154 129.059c0.7087,-0.5381 2.1561,0.1748 3.2324,1.5921 1.0762,1.4173 1.3743,3.0031 0.6657,3.5412 -0.7087,0.5381 -2.1561,-0.1748 -3.2324,-1.5921 -1.0762,-1.4173 -1.3743,-3.0031 -0.6657,-3.5412zm54.5539 -6.9033c-0.8203,-0.3446 -2.0445,0.7064 -2.7338,2.3471 -0.6893,1.6407 -0.5831,3.2507 0.2373,3.5954 0.8204,0.3446 2.0446,-0.7064 2.7339,-2.3471 0.6893,-1.6407 0.583,-3.2507 -0.2374,-3.5954z"/>
   <path id="_589073952" class="fil0 str0" d="M115.848 96.8104c27.3575,-3.4618 27.326,14.1683 29.0819,28.0452 1.756,13.8768 -8.8449,20.4601 -22.7218,22.2161 -13.8768,1.756 -25.7835,-1.9792 -27.5395,-15.856 -1.7559,-13.8769 -6.1781,-30.9434 21.1794,-34.4053z"/>
   <path id="_589073880" class="fil3 str0" d="M118.052 130.786c0,0 2.1878,0.9872 4.1255,-0.522"/>
   <path id="_589073808" class="fil10 str6" d="M110.099 109.921c-0.4359,0.6194 -0.3125,2.8567 -5.323,3.6423 -5.0105,0.7856 -5.7607,1.8188 -7.178,7.378 -1.4173,5.5591 -1.4522,16.2314 -1.4522,16.2314 0,0 -2.3413,-6.5963 -4.5185,-10.8512 -2.1771,-4.2548 -3.7767,-16.1333 5.5165,-23.4441 8.2018,-6.4525 16.6365,-7.4939 18.5045,-7.6494 1.8478,-0.3147 10.276,-1.4071 19.8266,2.7989 10.8213,4.7655 12.231,16.668 11.1823,21.3311 -1.0487,4.663 -1.673,11.6347 -1.673,11.6347 0,0 -2.6922,-10.3273 -5.4496,-15.3581 -2.7574,-5.0309 -18.3248,-3.9993 -23.3731,-3.5121 -5.0483,0.4873 -5.4861,-1.7102 -6.0625,-2.2015z"/>
   <path id="_589073736" class="fil11" d="M133.433 100.428c0,0 4.3902,2.6492 4.8772,6.688 0,0 -2.181,-3.3983 -4.8772,-6.688z"/>
   <path id="_589073664" class="fil11" d="M126.025 99.03c0,0 4.3902,2.6493 4.8773,6.688 0,0 -2.1811,-3.3982 -4.8773,-6.688z"/>
   <path id="_589073592" class="fil11" d="M118.425 97.9353c0,0 4.3902,2.6492 4.8773,6.688 0,0 -2.1811,-3.3982 -4.8773,-6.688z"/>
   <path id="_589073520" class="fil11" d="M101.259 102.164c0,0 -3.5919,3.6593 -3.0575,7.6921 0,0 1.2657,-3.8344 3.0575,-7.6921z"/>
   <path id="_589073448" class="fil16 str12" d="M123.924 138.588c0.1918,1.5155 -0.8818,2.9002 -2.3973,3.0919 -1.5155,0.1918 -2.9001,-0.8818 -3.0919,-2.3973l5.4892 -0.6946z"/>
   <path id="_589073376" class="fil17" d="M103.646 134.234c1.6737,-0.2118 3.2029,0.9737 3.4147,2.6475 0.2118,1.6738 -0.9739,3.2028 -2.6476,3.4146 -1.6738,0.2118 -3.2029,-0.9737 -3.4147,-2.6474 -0.2119,-1.6739 0.9738,-3.2029 2.6476,-3.4147zm33.3426 -4.2192c1.6737,-0.2118 3.2029,0.9738 3.4147,2.6475 0.2118,1.6739 -0.9739,3.2029 -2.6476,3.4147 -1.6738,0.2118 -3.2029,-0.9737 -3.4148,-2.6475 -0.2117,-1.6737 0.9739,-3.2029 2.6477,-3.4147z"/>
   <path id="_589073304" class="fil14" d="M105.197 123.933c1.6948,0.2318 2.9522,1.2789 2.8073,2.3384 -0.1449,1.0594 -1.6373,1.7305 -3.3321,1.4987 -1.6948,-0.2318 -2.9522,-1.2789 -2.8073,-2.3384 0.1449,-1.0594 1.6373,-1.7305 3.3321,-1.4987z"/>
   <g style="clip-path:url(#id22)">
    <g>
     <circle id="_591627504" class="fil10" transform="matrix(2.89562 -0.366414 0.366414 2.89562 104.935 125.851)" r="0.682"/>
    </g>
   </g>
   <path class="fil3 str6" d="M105.197 123.933c1.6948,0.2318 2.9522,1.2789 2.8073,2.3384 -0.1449,1.0594 -1.6373,1.7305 -3.3321,1.4987 -1.6948,-0.2318 -2.9522,-1.2789 -2.8073,-2.3384 0.1449,-1.0594 1.6373,-1.7305 3.3321,-1.4987z"/>
   <path id="_589073232" class="fil10" d="M100.548 123.105c0,0 4.2126,-1.2426 8.6521,-0.693 0,0 -4.0487,-4.2092 -8.6521,0.693z"/>
   <path id="_589073160" class="fil14" d="M133.034 120.41c-1.5837,0.6467 -2.5406,1.974 -2.1364,2.964 0.4043,0.99 2.0168,1.2681 3.6004,0.6215 1.5837,-0.6467 2.5406,-1.9741 2.1364,-2.964 -0.4043,-0.99 -2.0168,-1.2682 -3.6004,-0.6215z"/>
   <g style="clip-path:url(#id23)">
    <g>
     <circle id="_591605136" class="fil10" transform="matrix(-2.89562 0.366414 0.366414 2.89562 133.767 122.203)" r="0.682"/>
    </g>
   </g>
   <path class="fil3 str6" d="M133.034 120.41c-1.5837,0.6467 -2.5406,1.974 -2.1364,2.964 0.4043,0.99 2.0168,1.2681 3.6004,0.6215 1.5837,-0.6467 2.5406,-1.9741 2.1364,-2.964 -0.4043,-0.99 -2.0168,-1.2682 -3.6004,-0.6215z"/>
   <path id="_589073088" class="fil10" d="M137.33 118.451c0,0 -4.3894,-0.1541 -8.552,1.484 0,0 2.8725,-5.085 8.552,-1.484z"/>
  </g>
  <g id="_589071864">
   <g>
    <path id="_589072992" class="fil18" d="M276.025 119.032c-1.6877,0.4163 -2.107,3.7489 0.6332,3.729 2.7402,-0.0199 2.0678,-4.3953 -0.6332,-3.729z"/>
    <path id="_589072920" class="fil7" d="M276.044 119.939c-0.9664,0.1454 -1.0413,1.9783 0.5611,2.1073 0.3846,0.0309 0.6411,-0.088 0.7878,-0.2831 -0.0517,0.0017 -0.106,0.0008 -0.1634,-0.0038 -1.2742,-0.1025 -1.4876,-1.2825 -1.0359,-1.8346 -0.0489,0.002 -0.0987,0.0065 -0.1496,0.0142z"/>
    <path id="_589072848" class="fil0 str10" d="M223.781 124.948c0.8072,-0.3212 1.9827,0.7275 2.6251,2.3418 0.6424,1.6143 0.5088,3.1839 -0.2983,3.5051 -0.8072,0.3212 -1.9827,-0.7274 -2.6251,-2.3418 -0.6424,-1.6143 -0.5088,-3.1839 0.2983,-3.5051zm53.1234 7.7499c-0.6818,-0.5384 -2.1079,0.1307 -3.1847,1.4942 -1.0769,1.3635 -1.3973,2.9058 -0.7155,3.4442 0.6818,0.5385 2.1079,-0.1306 3.1847,-1.4941 1.0768,-1.3635 1.3972,-2.9059 0.7155,-3.4443z"/>
    <path id="_589072776" class="fil0 str0" d="M254.433 100.782c26.6401,3.8863 22.0071,20.4634 20.0358,33.9764 -1.9713,13.5129 -13.6629,16.9382 -27.1759,14.9669 -13.5129,-1.9714 -23.7387,-8.594 -21.7674,-22.107 1.9714,-13.5129 2.2674,-30.7227 28.9075,-26.8363z"/>
    <path id="_589072704" class="fil3 str0" d="M247.483 134.359c0,0 1.8073,1.4529 4.0174,0.5861"/>
    <path id="_589072632" class="fil10 str13" d="M250.749 113.389c-0.5434,-0.4165 -3.3971,2.0756 -5.6331,1.6247 -3.4521,-0.6961 1.2772,-4.6401 -0.9202,-4.7615 -13.0421,-0.7207 -16.9913,12.3012 -18.5423,21.3449 0,0 -0.7734,-4.8066 -1.7106,-9.3778 -0.9372,-4.5711 0.6595,-16.1633 11.3107,-20.6144 9.4006,-3.9285 17.6073,-2.7059 19.4052,-2.3645 1.3653,0.1399 6.327,0.8349 12.0496,3.8945 1.0728,0.5736 0.7825,-2.9818 1.8901,-2.23 0.8615,0.5846 3.1189,5.44 3.9811,6.1453 0.8376,0.6848 5.5901,-1.5804 6.2479,-0.8301 0.447,0.5099 -3.154,4.0211 -2.7836,4.5536 4.8996,7.0423 3.3426,15.798 1.4858,19.2631 -2.2039,4.1128 -4.3184,8.4982 -4.3184,8.4982 1.1048,-7.9645 1.5165,-19.1956 -7.0575,-23.6359 -2.7341,-1.416 -3.0955,3.3636 -8.1523,2.6614 -0.9903,-0.1376 2.307,-3.6497 1.288,-3.7247 -4.2299,-0.3111 -4.6152,4.4015 -8.6698,3.6894 -2.9422,-0.5167 1.7862,-2.8661 0.1294,-4.1362z"/>
    <path id="_589072560" class="fil17" d="M233.183 132.801c1.6298,0.2378 2.7588,1.7522 2.521,3.3822 -0.2378,1.6299 -1.7524,2.7587 -3.3822,2.521 -1.6299,-0.2378 -2.7589,-1.7523 -2.5211,-3.3822 0.2378,-1.63 1.7524,-2.7588 3.3823,-2.521zm32.4682 4.7366c1.6298,0.2378 2.7588,1.7524 2.521,3.3822 -0.2377,1.63 -1.7524,2.7588 -3.3822,2.5211 -1.6299,-0.2378 -2.7589,-1.7523 -2.5211,-3.3823 0.2378,-1.6298 1.7524,-2.7588 3.3823,-2.521z"/>
    <path id="_589072488" class="fil10" d="M269.445 127.239c0,0 -4.2971,-1.3214 -8.6407,-0.8672 0,0 -0.4227,-1.7863 1.2347,-2.281 0.9928,-0.2961 4.8158,0.1706 5.9694,0.3534 1.1871,0.1881 1.4366,2.7948 1.4366,2.7948z"/>
    <path id="_589072416" class="fil10" d="M232.621 121.867c0,0 4.4955,-0.0387 8.5283,1.6375 0,0 0.9154,-1.5911 -0.5315,-2.5387 -0.8668,-0.5674 -4.6639,-1.2123 -5.8216,-1.3668 -1.1914,-0.1588 -2.1752,2.268 -2.1752,2.268z"/>
    <path id="_589072344" class="fil14" d="M264.934 127.608c-1.6927,-0.2469 -3.191,0.4108 -3.3453,1.4689 -0.1544,1.0581 1.0936,2.1165 2.7863,2.3634 1.6926,0.2469 3.191,-0.4108 3.3453,-1.4689 0.1544,-1.0581 -1.0936,-2.1165 -2.7863,-2.3634z"/>
    <g style="clip-path:url(#id24)">
     <g>
      <circle id="_591617352" class="fil10" transform="matrix(-2.68068 -1.15448 -1.15448 2.68068 264.654 129.524)" r="0.682"/>
     </g>
    </g>
    <path class="fil3 str6" d="M264.934 127.608c-1.6927,-0.2469 -3.191,0.4108 -3.3453,1.4689 -0.1544,1.0581 1.0936,2.1165 2.7863,2.3634 1.6926,0.2469 3.191,-0.4108 3.3453,-1.4689 0.1544,-1.0581 -1.0936,-2.1165 -2.7863,-2.3634z"/>
    <path id="_589072272" class="fil14" d="M236.838 123.509c1.6927,0.247 2.9407,1.3053 2.7863,2.3634 -0.1543,1.0582 -1.6527,1.7159 -3.3453,1.4689 -1.6927,-0.2469 -2.9407,-1.3053 -2.7863,-2.3634 0.1543,-1.0581 1.6527,-1.7158 3.3453,-1.4689z"/>
    <g style="clip-path:url(#id25)">
     <g>
      <circle id="_591604200" class="fil10" transform="matrix(2.89878 -0.340528 0.340528 2.89878 236.558 125.425)" r="0.682"/>
     </g>
    </g>
    <path class="fil3 str6" d="M236.838 123.509c1.6927,0.247 2.9407,1.3053 2.7863,2.3634 -0.1543,1.0582 -1.6527,1.7159 -3.3453,1.4689 -1.6927,-0.2469 -2.9407,-1.3053 -2.7863,-2.3634 0.1543,-1.0581 1.6527,-1.7158 3.3453,-1.4689z"/>
    <path id="_589072200" class="fil11" d="M235.478 105.691c0,0 -4.4397,2.5654 -5.0034,6.5942 0,0 2.2452,-3.3562 5.0034,-6.5942z"/>
    <path id="_589072128" class="fil11" d="M251.9 106.175c0,0 -4.4397,2.5654 -5.0033,6.5941 0,0 2.2451,-3.3562 5.0033,-6.5941z"/>
    <path id="_589072056" class="fil11" d="M259.416 106.12c0,0 -4.4396,2.5653 -5.0033,6.5941 0,0 2.2452,-3.3562 5.0033,-6.5941z"/>
    <path id="_589071984" class="fil11" d="M265.873 107.99c0,0 -4.4397,2.5654 -5.0034,6.5942 0,0 2.2452,-3.3562 5.0034,-6.5942z"/>
   </g>
   <path id="_589071888" class="fil16 str12" d="M251.339 141.614c-0.2196,1.5117 -1.6237,2.5597 -3.1354,2.3402 -1.5117,-0.2195 -2.5597,-1.6236 -2.3402,-3.1353l5.4756 0.7951z"/>
  </g>
 </g>
</svg>
