<?xml version="1.0" encoding="UTF-8"?>
<!DOCTYPE svg PUBLIC "-//W3C//DTD SVG 1.1//EN" "http://www.w3.org/Graphics/SVG/1.1/DTD/svg11.dtd">
<!-- Creator: CorelDRAW -->
<svg xmlns="http://www.w3.org/2000/svg" xml:space="preserve" width="420mm" height="297mm" style="shape-rendering:geometricPrecision; text-rendering:geometricPrecision; image-rendering:optimizeQuality; fill-rule:evenodd; clip-rule:evenodd"
viewBox="0 0 420 297"
 xmlns:xlink="http://www.w3.org/1999/xlink">
 <defs>
  <style type="text/css">
   <![CDATA[
    .str4 {stroke:#8F5444;stroke-width:0.5;stroke-linecap:round;stroke-linejoin:round}
    .str0 {stroke:#1F1A17;stroke-width:0.75;stroke-linecap:round;stroke-linejoin:round}
    .str9 {stroke:#383431;stroke-width:0.75;stroke-linecap:round;stroke-linejoin:round}
    .str10 {stroke:#4C4840;stroke-width:0.75;stroke-linecap:round;stroke-linejoin:round}
    .str1 {stroke:#8F5444;stroke-width:0.75;stroke-linecap:round;stroke-linejoin:round}
    .str15 {stroke:#969594;stroke-width:0.75;stroke-linecap:round;stroke-linejoin:round}
    .str7 {stroke:#8F6D5A;stroke-width:0.75}
    .str8 {stroke:#8F6D5A;stroke-width:0.75;stroke-linecap:round;stroke-linejoin:round}
    .str5 {stroke:#1E3D55;stroke-width:0.75;stroke-linecap:round;stroke-linejoin:round}
    .str3 {stroke:#213229;stroke-width:0.75;stroke-linecap:round;stroke-linejoin:round}
    .str11 {stroke:#453C35;stroke-width:0.75;stroke-linecap:round;stroke-linejoin:round}
    .str2 {stroke:#542829;stroke-width:0.75;stroke-linecap:round;stroke-linejoin:round}
    .str6 {stroke:#8A2C2F;stroke-width:0.75;stroke-linecap:round;stroke-linejoin:round}
    .str12 {stroke:#8F5444;stroke-linecap:round;stroke-linejoin:round}
    .str14 {stroke:#3D2A2A;stroke-linecap:round;stroke-linejoin:round}
    .str13 {stroke:#1F1A17;stroke-width:1.5;stroke-linecap:round;stroke-linejoin:round}
    .fil5 {fill:none}
    .fil0 {fill:#1F1A17}
    .fil14 {fill:#383431}
    .fil2 {fill:#4D4948}
    .fil16 {fill:#605D5C}
    .fil15 {fill:#716F61}
    .fil17 {fill:#969594}
    .fil9 {fill:#B76767}
    .fil20 {fill:#C2C1C1}
    .fil10 {fill:#DB214C}
    .fil4 {fill:#E77817}
    .fil11 {fill:white}
    .fil13 {fill:#8F6D5A}
    .fil3 {fill:#C3957D}
    .fil7 {fill:#0F6386}
    .fil8 {fill:#1E3D55}
    .fil6 {fill:#324633}
    .fil19 {fill:#453C35}
    .fil21 {fill:#542829}
    .fil18 {fill:#615649}
    .fil1 {fill:#C58C2D}
    .fil12 {fill:#E0CFBF}
    .fil22 {fill:#1F1A17;fill-rule:nonzero}
   ]]>
  </style>
    <clipPath id="id0">
     <path d="M298.635 180.983c0,0 -1.3885,11.1414 -1.5391,15.1086 -0.1507,3.9673 1.9465,10.5551 1.766,12.9132 -0.1805,2.3582 -1.022,5.3544 1.6288,5.7103 2.6507,0.356 5.9803,0.8404 7.7823,0.2897 1.802,-0.5507 2.1056,-2.5168 1.081,-4.1256 -1.0246,-1.6087 -0.7892,-13.6801 -0.3921,-15.8686 0.3971,-2.1885 2.2187,-12.9907 2.2187,-12.9907l-12.5456 -1.0369z"/>
    </clipPath>
    <clipPath id="id1">
     <path d="M328.089 180.915c0,0 1.4395,11.1349 1.6083,15.1014 0.1688,3.9666 -1.8982,10.5639 -1.7069,12.9212 0.1913,2.3573 1.0465,5.3496 -1.6026,5.7177 -2.6491,0.368 -5.9765,0.8677 -7.781,0.3253 -1.8045,-0.5425 -2.117,-2.5072 -1.0998,-4.1206 1.0172,-1.6134 0.7265,-13.6836 0.3194,-15.8703 -0.4071,-2.1867 -2.2781,-12.9804 -2.2781,-12.9804l12.5407 -1.0943z"/>
    </clipPath>
     <clipPath id="id2">
      <path d="M300.279 121.997c1.6386,0.5694 2.6792,1.8618 2.3233,2.8861 -0.3559,1.0243 -1.9737,1.393 -3.6123,0.8237 -1.6385,-0.5694 -2.6792,-1.8618 -2.3233,-2.8861 0.3559,-1.0243 1.9738,-1.393 3.6123,-0.8237z"/>
     </clipPath>
     <clipPath id="id3">
      <path d="M326.516 121.997c-1.6386,0.5694 -2.6792,1.8618 -2.3233,2.8861 0.3559,1.0243 1.9737,1.393 3.6123,0.8237 1.6386,-0.5694 2.6792,-1.8618 2.3233,-2.8861 -0.3559,-1.0243 -1.9738,-1.393 -3.6123,-0.8237z"/>
     </clipPath>
    <clipPath id="id4">
     <path d="M300.279 121.997c1.6386,0.5694 2.6792,1.8618 2.3233,2.8861 -0.3559,1.0243 -1.9737,1.393 -3.6123,0.8237 -1.6385,-0.5694 -2.6792,-1.8618 -2.3233,-2.8861 0.3559,-1.0243 1.9738,-1.393 3.6123,-0.8237z"/>
    </clipPath>
    <clipPath id="id5">
     <path d="M326.516 121.997c-1.6386,0.5694 -2.6792,1.8618 -2.3233,2.8861 0.3559,1.0243 1.9737,1.393 3.6123,0.8237 1.6386,-0.5694 2.6792,-1.8618 2.3233,-2.8861 -0.3559,-1.0243 -1.9738,-1.393 -3.6123,-0.8237z"/>
    </clipPath>
    <clipPath id="id6">
     <path d="M163.319 162.045c5.8629,-9.1268 11.3395,-10.956 13.0932,-9.2024 1.7677,1.7676 -2.4595,9.6157 -4.9353,12.7023 -0.8278,1.0319 -1.1303,1.9184 -0.8419,2.5232 -2.1881,-0.6787 -5.345,-3.4044 -7.316,-6.0231z"/>
    </clipPath>
     <clipPath id="id7">
      <path d="M175.582 158.594c-1.7216,-1.25 -3.762,-2.6156 -5.9237,-4.0003 -1.3996,1.1315 -2.9244,2.7089 -4.5052,4.8088 2.5559,1.6703 5.011,3.4225 7.0649,5.1503 1.129,-1.604 2.4313,-3.8438 3.364,-5.9588z"/>
     </clipPath>
     <clipPath id="id8">
      <path d="M163.319 162.045c5.8629,-9.1268 11.3395,-10.956 13.0932,-9.2024 1.7677,1.7676 -2.4595,9.6157 -4.9353,12.7023 -0.8278,1.0319 -1.1303,1.9184 -0.8419,2.5232 -2.1881,-0.6787 -5.345,-3.4044 -7.316,-6.0231z"/>
     </clipPath>
       <clipPath id="id9">
        <path d="M184.979 212.986c0.2657,-3.4711 -2.3037,-5.0804 -5.6044,-5.3331 -3.3006,-0.2527 -6.0849,0.9468 -6.3506,4.418 -0.1139,1.4873 0.0848,3.8188 6.1394,3.9695 6.0545,0.1506 5.7021,-1.5722 5.8156,-3.0544z"/>
       </clipPath>
       <clipPath id="id10">
        <path d="M190.852 212.986c-0.2657,-3.4711 2.3037,-5.0804 5.6044,-5.3331 3.3006,-0.2527 6.0849,0.9468 6.3506,4.418 0.1139,1.4873 -0.0848,3.8188 -6.1394,3.9695 -6.0545,0.1506 -5.7021,-1.5722 -5.8156,-3.0544z"/>
       </clipPath>
      <clipPath id="id11">
       <path d="M187.911 187.844c-0.0596,1.2457 -3.7696,18.4368 -3.7696,18.4368 0,0 -2.4096,1.8423 -11.4121,-0.57 -3.1711,-9.5366 -0.9073,-32.747 -0.7276,-33.3156l15.1762 -0.0347 0.6977 -0.0016 0.6977 -0.0016 15.1762 -0.0347c0.1823,0.5677 2.5523,23.7675 -0.5751,33.3185 -8.9914,2.4535 -11.4093,0.6223 -11.4093,0.6223 0,0 -3.7887,-17.174 -3.8541,-18.4194z"/>
      </clipPath>
    <clipPath id="id12">
     <path d="M166.667 195.93c1.025,1.612 10.9915,4.875 21.2486,4.875 10.2572,0 20.2237,-3.263 21.2487,-4.875 0.2103,-0.3309 -4.0845,-40.8632 -8.2453,-43.2879 -6.4833,-3.778 -19.5235,-3.778 -26.0067,0 -4.1605,2.4245 -8.4558,42.9567 -8.2453,43.2879z"/>
    </clipPath>
      <clipPath id="id13">
       <path d="M174.993 152.597c3.0528,3.5135 7.9502,9.4614 9.6129,13.2611 2.3017,5.26 1.9775,31.1843 1.9182,34.9274 -2.3407,-0.0655 -4.6451,-0.2908 -6.8099,-0.6165 0.2742,-4.5146 1.4689,-28.1326 -3.0344,-35.3189 -1.6186,-2.5829 -3.1005,-4.6886 -4.3642,-6.3553 0.843,-3.1475 1.723,-5.343 2.5971,-5.8524 0.0264,-0.0154 0.0537,-0.0302 0.0803,-0.0454z"/>
      </clipPath>
      <clipPath id="id14">
       <path d="M166.667 195.93c1.025,1.612 10.9915,4.875 21.2486,4.875 10.2572,0 20.2237,-3.263 21.2487,-4.875 0.2103,-0.3309 -4.0845,-40.8632 -8.2453,-43.2879 -6.4833,-3.778 -19.5235,-3.778 -26.0067,0 -4.1605,2.4245 -8.4558,42.9567 -8.2453,43.2879z"/>
      </clipPath>
      <clipPath id="id15">
       <path d="M200.839 152.597c-3.0528,3.5136 -7.9502,9.4614 -9.6129,13.2611 -2.3017,5.26 -1.9775,31.1843 -1.9182,34.9274 2.3407,-0.0655 4.645,-0.2908 6.8099,-0.6165 -0.2741,-4.5146 -1.4689,-28.1326 3.0344,-35.3189 1.6186,-2.583 3.1006,-4.6887 4.3643,-6.3555 -0.8429,-3.1474 -1.7229,-5.3428 -2.5971,-5.8522 -0.0264,-0.0154 -0.0538,-0.0302 -0.0804,-0.0454z"/>
      </clipPath>
      <clipPath id="id16">
       <path d="M166.667 195.93c1.025,1.612 10.9915,4.875 21.2486,4.875 10.2572,0 20.2237,-3.263 21.2487,-4.875 0.2103,-0.3309 -4.0845,-40.8632 -8.2453,-43.2879 -6.4833,-3.778 -19.5235,-3.778 -26.0067,0 -4.1605,2.4245 -8.4558,42.9567 -8.2453,43.2879z"/>
      </clipPath>
      <clipPath id="id17">
       <path d="M206.082 171.229c-0.3379,0.5921 -0.6282,1.1556 -0.8569,1.6782 -1.5533,3.5498 -1.9107,16.5125 -1.9607,25.7172 3.2251,-0.9369 5.4452,-1.9784 5.9005,-2.6944 0.118,-0.1857 -1.183,-13.0334 -3.0829,-24.701z"/>
      </clipPath>
      <clipPath id="id18">
       <path d="M166.667 195.93c1.025,1.612 10.9915,4.875 21.2486,4.875 10.2572,0 20.2237,-3.263 21.2487,-4.875 0.2103,-0.3309 -4.0845,-40.8632 -8.2453,-43.2879 -6.4833,-3.778 -19.5235,-3.778 -26.0067,0 -4.1605,2.4245 -8.4558,42.9567 -8.2453,43.2879z"/>
      </clipPath>
      <clipPath id="id19">
       <path d="M169.75 171.229c0.3379,0.592 0.6282,1.1556 0.8569,1.6783 1.5533,3.5498 1.9107,16.5125 1.9607,25.7172 -3.2251,-0.9369 -5.4452,-1.9784 -5.9005,-2.6944 -0.1181,-0.1859 1.183,-13.0336 3.0829,-24.7011z"/>
      </clipPath>
      <clipPath id="id20">
       <path d="M166.667 195.93c1.025,1.612 10.9915,4.875 21.2486,4.875 10.2572,0 20.2237,-3.263 21.2487,-4.875 0.2103,-0.3309 -4.0845,-40.8632 -8.2453,-43.2879 -6.4833,-3.778 -19.5235,-3.778 -26.0067,0 -4.1605,2.4245 -8.4558,42.9567 -8.2453,43.2879z"/>
      </clipPath>
     <clipPath id="id21">
      <path d="M202.179 125.562c-1.7106,0 -3.0982,0.8671 -3.0982,1.9365 0,1.0693 1.3876,1.9364 3.0982,1.9364 1.7106,0 3.0983,-0.8671 3.0983,-1.9364 0,-1.0694 -1.3877,-1.9365 -3.0983,-1.9365z"/>
     </clipPath>
     <clipPath id="id22">
      <path d="M173.785 125.562c1.7106,0 3.0982,0.8671 3.0982,1.9365 0,1.0693 -1.3876,1.9364 -3.0982,1.9364 -1.7106,0 -3.0983,-0.8671 -3.0983,-1.9364 0,-1.0694 1.3877,-1.9365 3.0983,-1.9365z"/>
     </clipPath>
    <clipPath id="id23">
     <path d="M221.527 145.853c-1.1333,1.2453 -2.3898,2.5224 -3.776,3.7965 -7.8422,7.2084 -13.3104,8.7974 -15.2215,5.6753 -1.9111,-3.122 3.4115,-7.2283 8.0548,-10.9921 1.3512,-1.0952 2.9427,-2.7801 4.5202,-4.6184 2.2524,1.5914 4.6217,3.8661 6.4225,6.1387z"/>
    </clipPath>
     <clipPath id="id24">
      <path d="M208.192 156.26c-0.5961,-1.7845 -0.997,-5.0591 -1.2641,-8.9142 1.1701,-1.012 2.4367,-2.0244 3.6565,-3.0132 0.7821,-0.6339 1.6447,-1.4654 2.5384,-2.4098 0.2023,3.7892 0.5899,7.5168 1.274,10.5853 -2.3653,1.8468 -4.4484,3.0868 -6.2048,3.7519z"/>
     </clipPath>
     <clipPath id="id25">
      <path d="M221.527 145.853c-1.1333,1.2453 -2.3898,2.5224 -3.776,3.7965 -7.8422,7.2084 -13.3104,8.7974 -15.2215,5.6753 -1.9111,-3.122 3.4115,-7.2283 8.0548,-10.9921 1.3512,-1.0952 2.9427,-2.7801 4.5202,-4.6184 2.2524,1.5914 4.6217,3.8661 6.4225,6.1387z"/>
     </clipPath>
    <clipPath id="id26">
     <path d="M45.7742 180.575c0,0 -1.3885,11.1414 -1.5391,15.1086 -0.1507,3.9673 1.9465,10.5551 1.766,12.9132 -0.1805,2.3582 -1.022,5.3544 1.6288,5.7103 2.6507,0.356 5.9803,0.8404 7.7823,0.2897 1.802,-0.5507 2.1056,-2.5168 1.081,-4.1256 -1.0246,-1.6087 -0.7892,-13.6801 -0.3921,-15.8686 0.3971,-2.1885 2.2187,-12.9907 2.2187,-12.9907l-12.5456 -1.0369z"/>
    </clipPath>
     <clipPath id="id27">
      <path d="M45.4045 203.881c0.0806,0.4062 0.1584,0.8022 0.2303,1.1834 1.966,0.3477 4.0949,0.5383 6.3185,0.5383 1.3266,0 2.6192,-0.0683 3.8641,-0.1967 -0.0136,-0.3712 -0.0246,-0.7518 -0.033,-1.138 -1.2347,0.1262 -2.5163,0.1929 -3.8311,0.1929 -2.3108,0 -4.5192,-0.2058 -6.5488,-0.5799z"/>
     </clipPath>
     <clipPath id="id28">
      <path d="M45.7742 180.575c0,0 -1.3885,11.1414 -1.5391,15.1086 -0.1507,3.9673 1.9465,10.5551 1.766,12.9132 -0.1805,2.3582 -1.022,5.3544 1.6288,5.7103 2.6507,0.356 5.9803,0.8404 7.7823,0.2897 1.802,-0.5507 2.1056,-2.5168 1.081,-4.1256 -1.0246,-1.6087 -0.7892,-13.6801 -0.3921,-15.8686 0.3971,-2.1885 2.2187,-12.9907 2.2187,-12.9907l-12.5456 -1.0369z"/>
     </clipPath>
    <clipPath id="id29">
     <path d="M75.2274 180.508c0,0 1.4395,11.1349 1.6083,15.1014 0.1688,3.9666 -1.8982,10.5639 -1.7069,12.9212 0.1913,2.3573 1.0465,5.3496 -1.6026,5.7177 -2.6491,0.368 -5.9765,0.8677 -7.781,0.3253 -1.8045,-0.5425 -2.117,-2.5072 -1.0998,-4.1206 1.0172,-1.6134 0.7265,-13.6836 0.3194,-15.8703 -0.4071,-2.1867 -2.2781,-12.9804 -2.2781,-12.9804l12.5407 -1.0943z"/>
    </clipPath>
    <clipPath id="id30">
     <path d="M46.5642 121.97c1.6523,0.4427 2.7683,1.6395 2.4915,2.6723 -0.2767,1.0329 -1.8416,1.5113 -3.4939,1.0686 -1.6523,-0.4427 -2.7683,-1.6395 -2.4915,-2.6723 0.2768,-1.0329 1.8416,-1.5113 3.4939,-1.0686z"/>
    </clipPath>
    <clipPath id="id31">
     <path d="M74.6236 121.97c-1.6523,0.4427 -2.7682,1.6395 -2.4915,2.6723 0.2768,1.0329 1.8416,1.5113 3.4939,1.0686 1.6523,-0.4427 2.7683,-1.6395 2.4915,-2.6723 -0.2767,-1.0329 -1.8415,-1.5113 -3.4939,-1.0686z"/>
    </clipPath>
 </defs>
 <g id="Capa_x0020_1">
  <metadata id="CorelCorpID_0Corel-Layer"/>
  <g id="_590281096">
   <g>
    <path id="_590281672" class="fil0 str0" d="M329.345 137.839c0,0 5.8384,5.5844 4.925,9.7829 -0.8921,4.1002 -2.9118,13.1505 2.7685,15.4644 1.7264,0.703 -5.3784,0.8793 -7.001,-2.5637 -2.473,-5.2465 -0.3742,-7.8459 -6.0296,-10.9251 -5.6553,-3.0793 -6.037,-4.5798 -6.037,-4.5798l11.3741 -7.1787z"/>
    <path id="_590281600" class="fil1 str0" d="M333.32 153.027c-0.1169,1.1073 -0.1727,2.247 -0.1153,3.3503 -1.1781,-0.3785 -2.7669,-0.6205 -4.5378,-0.1659 -0.3012,-1.4396 -0.514,-2.6522 -1.2695,-3.7968 1.4265,-0.6189 3.4094,-0.657 5.9226,0.6124z"/>
    <path id="_590281528" class="fil2" d="M328.607 141.708c0,0 3.3059,4.4385 2.1446,8.673 0,0 -0.7928,-4.2856 -2.1446,-8.673z"/>
    <path id="_590281456" class="fil2" d="M324.906 139.531c0,0 3.3059,4.4385 2.1446,8.673 0,0 -0.7928,-4.2856 -2.1446,-8.673z"/>
   </g>
   <g>
    <path id="_590281360" class="fil0 str0" d="M297.45 137.839c0,0 -5.8384,5.5844 -4.925,9.7829 0.8921,4.1002 2.9118,13.1505 -2.7685,15.4644 -1.7264,0.703 5.3784,0.8793 7.001,-2.5637 2.473,-5.2465 0.3742,-7.8459 6.0296,-10.9251 5.6553,-3.0793 6.037,-4.5798 6.037,-4.5798l-11.3741 -7.1787z"/>
    <path id="_590281288" class="fil1 str0" d="M293.475 153.027c0.1169,1.1073 0.1727,2.247 0.1153,3.3503 1.1781,-0.3785 2.7669,-0.6205 4.5378,-0.1659 0.3012,-1.4396 0.514,-2.6522 1.2695,-3.7968 -1.4265,-0.6189 -3.4094,-0.657 -5.9226,0.6124z"/>
    <path id="_590281216" class="fil2" d="M298.188 141.708c0,0 -3.3059,4.4385 -2.1446,8.673 0,0 0.7928,-4.2856 2.1446,-8.673z"/>
    <path id="_590281144" class="fil2" d="M301.889 139.531c0,0 -3.3059,4.4385 -2.1446,8.673 0,0 0.7928,-4.2856 2.1446,-8.673z"/>
   </g>
  </g>
  <g id="_590280592">
   <g>
    <path id="_590281024" class="fil3 str1" d="M348.071 130.412c0.4343,-1.9444 -0.4656,-5.009 -0.0279,-5.3689 0.4377,-0.36 0.8008,-0.3431 2.3993,1.5846 1.5492,-1.1028 0.4823,-4.8949 2.0864,-4.8644 1.0355,0.0198 0.8498,2.8661 0.7405,3.7333 1.7217,-0.195 0.934,-4.0868 2.5881,-3.6048 1.0265,0.2998 -0.0158,3.4121 -0.413,4.2516 1.4718,0.6946 1.3677,-2.8194 2.7454,-2.1267 0.9175,0.4616 -0.501,3.0061 -0.9353,3.7345 0.636,0.9824 1.3742,-1.3727 2.112,-0.7883 0.6022,0.477 0.3642,1.0454 -1.0603,2.6789 -0.7874,0.9026 -1.51,2.4447 -2.5269,3.7334 -0.2234,1.1228 -2.2616,10.2701 -10.4846,16.5472 -8.7733,6.6973 -14.2162,6.9848 -15.6757,4.264 -1.4593,-2.7208 7.4987,-9.1339 11.3519,-12.2944 3.8534,-3.1605 7.1002,-11.48 7.1002,-11.48l-0.0001 0z"/>
    <path id="_590280952" class="fil4 str2" d="M346.539 148.911c-0.3985,0.344 -0.8124,0.6821 -1.2444,1.0118 -8.7733,6.6973 -14.2162,6.9848 -15.6757,4.264 -1.4143,-2.6368 6.9553,-8.7412 10.9807,-11.9925 2.2758,1.9026 4.5279,4.4258 5.9394,6.7167z"/>
    <path id="_590280880" class="fil5 str1" d="M354.303 130.834c0,0 0.5521,-2.0073 -1.9109,-2.4032"/>
   </g>
   <g>
    <path id="_590280784" class="fil3 str1" d="M278.724 130.412c-0.4343,-1.9444 0.4656,-5.009 0.0279,-5.3689 -0.4377,-0.36 -0.8008,-0.3431 -2.3993,1.5846 -1.5492,-1.1028 -0.4822,-4.8949 -2.0864,-4.8644 -1.0355,0.0198 -0.8498,2.8661 -0.7405,3.7333 -1.7217,-0.195 -0.934,-4.0868 -2.5881,-3.6048 -1.0265,0.2998 0.0158,3.4121 0.4131,4.2516 -1.4719,0.6946 -1.3678,-2.8194 -2.7454,-2.1267 -0.9176,0.4616 0.5009,3.0061 0.9352,3.7346 -0.636,0.9823 -1.3742,-1.3728 -2.1119,-0.7884 -0.6023,0.477 -0.3643,1.0454 1.0602,2.6789 0.7874,0.9026 1.51,2.4447 2.5269,3.7334 0.2234,1.1228 2.2616,10.2701 10.4846,16.5473 8.7733,6.6972 14.2163,6.9847 15.6757,4.2639 1.4593,-2.7208 -7.4986,-9.1338 -11.3519,-12.2944 -3.8533,-3.1605 -7.1002,-11.48 -7.1002,-11.48l0.0001 0z"/>
    <path id="_590280712" class="fil4 str2" d="M280.256 148.911c0.3985,0.344 0.8124,0.6821 1.2443,1.0119 8.7733,6.6972 14.2163,6.9847 15.6757,4.2639 1.4143,-2.6368 -6.9552,-8.7412 -10.9807,-11.9925 -2.2758,1.9026 -4.5278,4.4258 -5.9393,6.7167z"/>
    <path id="_590280640" class="fil5 str1" d="M272.492 130.834c0,0 -0.5522,-2.0073 1.9108,-2.4032"/>
   </g>
  </g>
  <g id="_590280136">
   <path id="_590280520" class="fil6 str3" d="M304.51 206.424c3.5599,0.2725 6.1738,4.0634 5.9493,6.9961 -0.2245,2.9328 -3.2025,3.8983 -6.7624,3.6257 -3.56,-0.2725 -6.3561,-1.68 -6.1316,-4.6127 0.2245,-2.9328 3.3848,-6.2817 6.9447,-6.0091z"/>
   <path id="_590280448" class="fil3" d="M298.635 180.983c0,0 -1.3885,11.1414 -1.5391,15.1086 -0.1507,3.9673 1.9465,10.5551 1.766,12.9132 -0.1805,2.3582 -1.022,5.3544 1.6288,5.7103 2.6507,0.356 5.9803,0.8404 7.7823,0.2897 1.802,-0.5507 2.1056,-2.5168 1.081,-4.1256 -1.0246,-1.6087 -0.7892,-13.6801 -0.3921,-15.8686 0.3971,-2.1885 2.2187,-12.9907 2.2187,-12.9907l-12.5456 -1.0369z"/>
   <g style="clip-path:url(#id0)">
    <g>
     <path id="_5960857521" class="fil5 str4" d="M307.451 213.87c0,0 0.4986,-0.4987 1.3747,-0.2528m-8.399 -0.9743c0,0 -0.8797,2.0972 1.1708,2.2203m5.1001 -1.9773c0,0 -0.8797,2.097 1.1709,2.2202m-3.312 -2.0777c0,0 -0.8797,2.0971 1.171,2.2203m-3.2243 -2.3579c0,0 -0.8796,2.0971 1.171,2.22m-4.2485 -1.7345c0,0 0.1753,-0.1756 0.4836,-0.0889m1.0553 0.5902c0,0 0.3164,-0.3166 0.8725,-0.1606m1.1574 0.3671c0,0 0.3165,-0.3167 0.8725,-0.1605m1.1484 0.0878c0,0 0.3164,-0.3166 0.8724,-0.1604"/>
    </g>
   </g>
   <path class="fil5 str1" d="M298.635 180.983c0,0 -1.3885,11.1414 -1.5391,15.1086 -0.1507,3.9673 1.9465,10.5551 1.766,12.9132 -0.1805,2.3582 -1.022,5.3544 1.6288,5.7103 2.6507,0.356 5.9803,0.8404 7.7823,0.2897 1.802,-0.5507 2.1056,-2.5168 1.081,-4.1256 -1.0246,-1.6087 -0.7892,-13.6801 -0.3921,-15.8686 0.3971,-2.1885 2.2187,-12.9907 2.2187,-12.9907l-12.5456 -1.0369z"/>
   <path id="_590280376" class="fil6 str3" d="M310.113 214.324c0.1372,-0.5011 0.2282,-1.004 0.2659,-1.4965 0.276,-3.6054 -2.3928,-5.277 -5.8211,-5.5394 -3.4284,-0.2625 -6.3203,0.9834 -6.5963,4.5888 -0.0377,0.4925 -0.0243,1.0034 0.035,1.5195 0.8218,-2.5702 3.3817,-3.4683 6.3418,-3.2417 2.9602,0.2266 5.3537,1.5039 5.7747,4.1693z"/>
   <path id="_590280304" class="fil6 str3" d="M322.33 206.383c-3.5586,0.2888 -6.1551,4.0916 -5.9172,7.0233 0.2379,2.9317 3.2203,3.8835 6.779,3.5947 3.5586,-0.2888 6.3483,-1.7091 6.1104,-4.6407 -0.2379,-2.9317 -3.4135,-6.2661 -6.9722,-5.9773z"/>
   <path id="_590280232" class="fil3" d="M328.089 180.915c0,0 1.4395,11.1349 1.6083,15.1014 0.1688,3.9666 -1.8982,10.5639 -1.7069,12.9212 0.1913,2.3573 1.0465,5.3496 -1.6026,5.7177 -2.6491,0.368 -5.9765,0.8677 -7.781,0.3253 -1.8045,-0.5425 -2.117,-2.5072 -1.0998,-4.1206 1.0172,-1.6134 0.7265,-13.6836 0.3194,-15.8703 -0.4071,-2.1867 -2.2781,-12.9804 -2.2781,-12.9804l12.5407 -1.0943z"/>
   <g style="clip-path:url(#id1)">
    <g>
     <path id="_5960695521" class="fil5 str4" d="M319.429 213.845c0,0 -0.4986,-0.4987 -1.3748,-0.2527m8.399 -0.9744c0,0 0.8798,2.0972 -1.1708,2.2203m-5.1001 -1.9773c0,0 0.8797,2.0969 -1.1708,2.2202m3.3119 -2.0778c0,0 0.8799,2.0972 -1.1709,2.2205m3.2244 -2.358c0,0 0.8797,2.0971 -1.1712,2.2201m4.2485 -1.7347c0,0 -0.1753,-0.1755 -0.4835,-0.0888m-1.0553 0.5903c0,0 -0.3164,-0.3167 -0.8724,-0.1607m-1.1575 0.3671c0,0 -0.3164,-0.3167 -0.8724,-0.1606m-1.1485 0.088c0,0 -0.3162,-0.3168 -0.8724,-0.1604"/>
    </g>
   </g>
   <path class="fil5 str1" d="M328.089 180.915c0,0 1.4395,11.1349 1.6083,15.1014 0.1688,3.9666 -1.8982,10.5639 -1.7069,12.9212 0.1913,2.3573 1.0465,5.3496 -1.6026,5.7177 -2.6491,0.368 -5.9765,0.8677 -7.781,0.3253 -1.8045,-0.5425 -2.117,-2.5072 -1.0998,-4.1206 1.0172,-1.6134 0.7265,-13.6836 0.3194,-15.8703 -0.4071,-2.1867 -2.2781,-12.9804 -2.2781,-12.9804l12.5407 -1.0943z"/>
   <path id="_590280160" class="fil6 str3" d="M316.764 214.309c-0.1394,-0.5005 -0.2328,-1.003 -0.2727,-1.4953 -0.2925,-3.6041 2.3686,-5.2878 5.7957,-5.566 3.4271,-0.2781 6.3248,0.9545 6.6173,4.5586 0.0399,0.4923 0.0288,1.0033 -0.0281,1.5197 -0.8336,-2.5664 -3.3975,-3.4529 -6.3566,-3.2127 -2.9591,0.2401 -5.3468,1.5284 -5.7556,4.1957z"/>
  </g>
  <g id="_590279584">
   <path id="_590280064" class="fil7 str5" d="M297.591 174.875c-6.4115,8.0868 -6.7223,24.0029 -5.442,26.0161 1.025,1.6121 10.9915,4.875 21.2486,4.875 10.2572,0 20.2237,-3.2629 21.2487,-4.875 1.2802,-2.0132 0.9694,-17.9293 -5.4421,-26.0161l-15.8066 0 -15.8066 0z"/>
   <g>
    <path id="_590279992" class="fil8" d="M304.238 180.457c0,0 -2.9895,4.9015 -3.8975,10.0942 -0.9078,5.1925 -0.0741,9.3545 -0.0741,9.3545 0,0 1.7285,-6.7072 3.9716,-19.4487z"/>
    <path id="_590279920" class="fil8" d="M310.572 182.058c0,0 -2.2824,5.7098 -2.4872,11.073 -0.2045,5.3629 1.1614,9.1879 1.1614,9.1879 0,0 0.8088,-7.0962 1.3258,-20.2609z"/>
    <path id="_590279848" class="fil8" d="M316.223 182.058c0,0 2.2823,5.71 2.487,11.073 0.2048,5.3629 -1.1613,9.1879 -1.1613,9.1879 0,0 -0.8089,-7.0965 -1.3257,-20.2609z"/>
    <path id="_590279776" class="fil8" d="M322.557 180.457c0,0 2.9894,4.9015 3.8974,10.0941 0.908,5.1924 0.074,9.3546 0.074,9.3546 0,0 -1.7285,-6.7073 -3.9714,-19.4487z"/>
    <path id="_590279704" class="fil8" d="M327.687 178.963c0,0 3.2771,4.4586 4.4995,9.5004 1.2225,5.042 0.6477,9.3036 0.6477,9.3036 0,0 -2.1323,-6.4342 -5.1472,-18.804z"/>
    <path id="_590279632" class="fil8" d="M299.108 178.963c0,0 -3.277,4.4586 -4.4996,9.5004 -1.2224,5.042 -0.6475,9.3036 -0.6475,9.3036 0,0 2.1323,-6.4342 5.1471,-18.804z"/>
   </g>
  </g>
  <path class="fil4 str2" d="M300.211 150.08c-5.6267,3.2789 -2.8657,13.0599 -2.9459,15.9377 -0.0801,2.8777 -2.8657,9.2489 3.1463,10.5711 8.5207,1.8739 17.4508,1.8739 25.9716,0 6.0119,-1.3222 3.2264,-7.6934 3.1462,-10.5711 -0.0801,-2.8778 2.6809,-12.6588 -2.9458,-15.9377 -6.5744,-3.8312 -19.798,-3.8312 -26.3724,0z"/>
  <path class="fil3 str1" d="M306.794 143.443l13.207 0 0 5.7291c0,1.662 -2.957,3.01 -6.6034,3.01 -3.6463,0 -6.6036,-1.348 -6.6036,-3.01l0 -5.7291z"/>
  <g id="_590277304">
   <g>
    <path id="_590279368" class="fil3 str1" d="M285.516 125.459c0.7814,-0.4512 2.1468,0.4503 3.0492,2.0132 0.9023,1.5629 1.0003,3.1961 0.2189,3.6473 -0.7814,0.4512 -2.1469,-0.4504 -3.0492,-2.0132 -0.9023,-1.5629 -1.0004,-3.1962 -0.2189,-3.6473zm55.7622 0c-0.7815,-0.4512 -2.1469,0.4503 -3.0492,2.0132 -0.9023,1.5629 -1.0004,3.1961 -0.2189,3.6473 0.7814,0.4512 2.1468,-0.4504 3.0492,-2.0132 0.9023,-1.5629 1.0003,-3.1962 0.2189,-3.6473z"/>
    <path id="_590279296" class="fil3 str1" d="M313.398 96.0245c27.9634,0 25.6873,17.7326 25.6873,31.9168 0,14.1842 -11.5031,19.4577 -25.6873,19.4577 -14.1842,0 -25.6872,-5.2735 -25.6872,-19.4577 0,-14.1842 -2.2762,-31.9168 25.6872,-31.9168z"/>
    <path id="_590279224" class="fil5 str1" d="M311.289 129.788c0,0 2.0754,1.6113 4.2169,0"/>
    <path id="_590279152" class="fil0 str0" d="M313.398 110.943c-0.5174,0.5677 -0.6781,2.8344 -5.8189,2.9867 -0.9637,0.0285 1.2038,-3.075 0.0773,-3.0246 -4.8828,0.2183 -13.9577,4.1199 -15.6911,8.5172 -2.1334,5.4121 -3.5274,14.6994 -3.5274,14.6994 0,0 -1.5156,-6.9342 -3.1643,-11.4919 -1.6487,-4.5577 -1.7456,-16.7116 8.5343,-22.8835 9.0728,-5.4473 17.691,-5.4212 19.5901,-5.3398 1.899,-0.0814 10.5172,-0.1075 19.59,5.3398 10.28,6.1719 10.183,18.3258 8.5343,22.8835 -1.6487,4.5577 -3.1643,11.4919 -3.1643,11.4919 0,0 -1.3938,-9.2873 -3.5273,-14.6994 -1.6668,-4.2283 -10.8466,-8.7142 -15.6045,-8.9699 -1.3321,-0.0715 1.115,3.5105 -0.0094,3.4773 -5.1406,-0.1523 -5.3015,-2.419 -5.8188,-2.9867z"/>
    <path id="_590279080" class="fil9" d="M296.357 132.12c1.7108,0 3.0983,1.3873 3.0983,3.0983 0,1.7108 -1.3875,3.0981 -3.0983,3.0981 -1.7108,0 -3.0983,-1.3873 -3.0983,-3.0981 0,-1.711 1.3875,-3.0983 3.0983,-3.0983zm34.0811 0c1.7107,0 3.0982,1.3875 3.0982,3.0983 0,1.7109 -1.3875,3.0982 -3.0982,3.0982 -1.7109,0 -3.0983,-1.3873 -3.0983,-3.0982 0,-1.7108 1.3874,-3.0983 3.0983,-3.0983z"/>
    <path id="_590279008" class="fil2" d="M330.046 101.903c0,0 4.0794,3.2241 4.0553,7.3493 0,0 -1.7616,-3.6964 -4.0553,-7.3493z"/>
    <path id="_590278936" class="fil2" d="M322.772 99.5531c0,0 4.0794,3.2241 4.0553,7.3493 0,0 -1.7616,-3.6964 -4.0553,-7.3493z"/>
    <path id="_590278864" class="fil2" d="M296.749 101.903c0,0 -4.0794,3.2241 -4.0553,7.3493 0,0 1.7616,-3.6964 4.0553,-7.3493z"/>
    <path id="_590278792" class="fil2" d="M304.023 99.5531c0,0 -4.0794,3.2241 -4.0552,7.3493 0,0 1.7615,-3.6964 4.0552,-7.3493z"/>
    <path id="_590278720" class="fil10 str6" d="M317.178 137.715c0,2.0877 -1.6932,3.7809 -3.7809,3.7809 -2.0877,0 -3.7809,-1.6932 -3.7809,-3.7809l7.5618 0z"/>
    <path id="_590278648" class="fil11" d="M300.279 121.997c1.6386,0.5694 2.6792,1.8618 2.3233,2.8861 -0.3559,1.0243 -1.9737,1.393 -3.6123,0.8237 -1.6385,-0.5694 -2.6792,-1.8618 -2.3233,-2.8861 0.3559,-1.0243 1.9738,-1.393 3.6123,-0.8237z"/>
    <g style="clip-path:url(#id2)">
     <g>
      <circle id="_484621672" class="fil0" transform="matrix(2.95195 0.214734 -0.214734 2.95195 299.635 123.851)" r="0.682"/>
     </g>
    </g>
    <path class="fil5 str0" d="M300.279 121.997c1.6386,0.5694 2.6792,1.8618 2.3233,2.8861 -0.3559,1.0243 -1.9737,1.393 -3.6123,0.8237 -1.6385,-0.5694 -2.6792,-1.8618 -2.3233,-2.8861 0.3559,-1.0243 1.9738,-1.393 3.6123,-0.8237z"/>
    <path id="_590278576" class="fil0" d="M295.238 120.53c0,0 4.3963,-0.7138 8.7926,0.4043 0,0 -5.6339,-4.2006 -8.7926,-0.4043z"/>
    <path id="_590278504" class="fil11" d="M326.516 121.997c-1.6386,0.5694 -2.6792,1.8618 -2.3233,2.8861 0.3559,1.0243 1.9737,1.393 3.6123,0.8237 1.6386,-0.5694 2.6792,-1.8618 2.3233,-2.8861 -0.3559,-1.0243 -1.9738,-1.393 -3.6123,-0.8237z"/>
    <g style="clip-path:url(#id3)">
     <g>
      <circle id="_484629568" class="fil0" transform="matrix(-2.95195 0.214734 0.214734 2.95195 327.16 123.851)" r="0.682"/>
     </g>
    </g>
    <path class="fil5 str0" d="M326.516 121.997c-1.6386,0.5694 -2.6792,1.8618 -2.3233,2.8861 0.3559,1.0243 1.9737,1.393 3.6123,0.8237 1.6386,-0.5694 2.6792,-1.8618 2.3233,-2.8861 -0.3559,-1.0243 -1.9738,-1.393 -3.6123,-0.8237z"/>
    <path id="_590278432" class="fil0" d="M331.557 120.53c0,0 -4.3963,-0.7138 -8.7926,0.4043 0,0 5.6339,-4.2006 8.7926,-0.4043z"/>
   </g>
   <path id="_590278336" class="fil3 str1" d="M306.794 143.443l13.207 0 0 5.7291c0,1.662 -2.957,3.01 -6.6034,3.01 -3.6463,0 -6.6036,-1.348 -6.6036,-3.01l0 -5.7291z"/>
   <path id="_590278264" class="fil3 str1" d="M285.516 125.459c0.7814,-0.4512 2.1468,0.4503 3.0492,2.0132 0.9023,1.5629 1.0003,3.1961 0.2189,3.6473 -0.7814,0.4512 -2.1469,-0.4504 -3.0492,-2.0132 -0.9023,-1.5629 -1.0004,-3.1962 -0.2189,-3.6473zm55.7622 0c-0.7815,-0.4512 -2.1469,0.4503 -3.0492,2.0132 -0.9023,1.5629 -1.0004,3.1961 -0.2189,3.6473 0.7814,0.4512 2.1468,-0.4504 3.0492,-2.0132 0.9023,-1.5629 1.0003,-3.1962 0.2189,-3.6473z"/>
   <path id="_590278192" class="fil3 str1" d="M313.398 96.0245c27.9634,0 25.6873,17.7326 25.6873,31.9168 0,14.1842 -11.5031,19.4577 -25.6873,19.4577 -14.1842,0 -25.6872,-5.2735 -25.6872,-19.4577 0,-14.1842 -2.2762,-31.9168 25.6872,-31.9168z"/>
   <path id="_590278120" class="fil5 str1" d="M311.289 129.788c0,0 2.0754,1.6113 4.2169,0"/>
   <path id="_590278048" class="fil0 str0" d="M313.398 110.943c-0.5174,0.5677 -0.6781,2.8344 -5.8189,2.9867 -0.9637,0.0285 1.2038,-3.075 0.0773,-3.0246 -4.8828,0.2183 -13.9577,4.1199 -15.6911,8.5172 -2.1334,5.4121 -3.5274,14.6994 -3.5274,14.6994 0,0 -1.5156,-6.9342 -3.1643,-11.4919 -1.6487,-4.5577 -1.7456,-16.7116 8.5343,-22.8835 9.0728,-5.4473 17.691,-5.4212 19.5901,-5.3398 1.899,-0.0814 10.5172,-0.1075 19.59,5.3398 10.28,6.1719 10.183,18.3258 8.5343,22.8835 -1.6487,4.5577 -3.1643,11.4919 -3.1643,11.4919 0,0 -1.3938,-9.2873 -3.5273,-14.6994 -1.6668,-4.2283 -10.8466,-8.7142 -15.6045,-8.9699 -1.3321,-0.0715 1.115,3.5105 -0.0094,3.4773 -5.1406,-0.1523 -5.3015,-2.419 -5.8188,-2.9867z"/>
   <path id="_590277976" class="fil9" d="M296.357 132.12c1.7108,0 3.0983,1.3873 3.0983,3.0983 0,1.7108 -1.3875,3.0981 -3.0983,3.0981 -1.7108,0 -3.0983,-1.3873 -3.0983,-3.0981 0,-1.711 1.3875,-3.0983 3.0983,-3.0983zm34.0811 0c1.7107,0 3.0982,1.3875 3.0982,3.0983 0,1.7109 -1.3875,3.0982 -3.0982,3.0982 -1.7109,0 -3.0983,-1.3873 -3.0983,-3.0982 0,-1.7108 1.3874,-3.0983 3.0983,-3.0983z"/>
   <path id="_590277904" class="fil2" d="M330.046 101.903c0,0 4.0794,3.2241 4.0553,7.3493 0,0 -1.7616,-3.6964 -4.0553,-7.3493z"/>
   <path id="_590277832" class="fil2" d="M322.772 99.5531c0,0 4.0794,3.2241 4.0553,7.3493 0,0 -1.7616,-3.6964 -4.0553,-7.3493z"/>
   <path id="_590277760" class="fil2" d="M296.749 101.903c0,0 -4.0794,3.2241 -4.0553,7.3493 0,0 1.7616,-3.6964 4.0553,-7.3493z"/>
   <path id="_590277688" class="fil2" d="M304.023 99.5531c0,0 -4.0794,3.2241 -4.0552,7.3493 0,0 1.7615,-3.6964 4.0552,-7.3493z"/>
   <path id="_590277616" class="fil10 str6" d="M317.971 137.319c0,2.5252 -2.0481,4.5733 -4.5733,4.5733 -2.5252,0 -4.5733,-2.0481 -4.5733,-4.5733l9.1466 0z"/>
   <path id="_590277544" class="fil11" d="M300.279 121.997c1.6386,0.5694 2.6792,1.8618 2.3233,2.8861 -0.3559,1.0243 -1.9737,1.393 -3.6123,0.8237 -1.6385,-0.5694 -2.6792,-1.8618 -2.3233,-2.8861 0.3559,-1.0243 1.9738,-1.393 3.6123,-0.8237z"/>
   <g style="clip-path:url(#id4)">
    <g>
     <circle id="_484620352" class="fil0" transform="matrix(2.95195 0.214734 -0.214734 2.95195 299.635 123.851)" r="0.682"/>
    </g>
   </g>
   <path class="fil5 str0" d="M300.279 121.997c1.6386,0.5694 2.6792,1.8618 2.3233,2.8861 -0.3559,1.0243 -1.9737,1.393 -3.6123,0.8237 -1.6385,-0.5694 -2.6792,-1.8618 -2.3233,-2.8861 0.3559,-1.0243 1.9738,-1.393 3.6123,-0.8237z"/>
   <path id="_590277472" class="fil0" d="M295.238 120.53c0,0 4.3963,-0.7138 8.7926,0.4043 0,0 -5.6339,-4.2006 -8.7926,-0.4043z"/>
   <path id="_590277400" class="fil11" d="M326.516 121.997c-1.6386,0.5694 -2.6792,1.8618 -2.3233,2.8861 0.3559,1.0243 1.9737,1.393 3.6123,0.8237 1.6386,-0.5694 2.6792,-1.8618 2.3233,-2.8861 -0.3559,-1.0243 -1.9738,-1.393 -3.6123,-0.8237z"/>
   <g style="clip-path:url(#id5)">
    <g>
     <circle id="_591617160" class="fil0" transform="matrix(-2.95195 0.214734 0.214734 2.95195 327.16 123.851)" r="0.682"/>
    </g>
   </g>
   <path class="fil5 str0" d="M326.516 121.997c-1.6386,0.5694 -2.6792,1.8618 -2.3233,2.8861 0.3559,1.0243 1.9737,1.393 3.6123,0.8237 1.6386,-0.5694 2.6792,-1.8618 2.3233,-2.8861 -0.3559,-1.0243 -1.9738,-1.393 -3.6123,-0.8237z"/>
   <path id="_590277328" class="fil0" d="M331.557 120.53c0,0 -4.3963,-0.7138 -8.7926,0.4043 0,0 5.6339,-4.2006 8.7926,-0.4043z"/>
  </g>
  <g id="_590277136">
   <path id="_590277232" class="fil3 str1" d="M176.988 168.201c1.8387,-0.7671 3.8227,-3.2697 4.3692,-3.1199 0.5465,0.1498 0.7423,0.4562 0.0897,2.8739 1.7946,0.6293 4.2766,-2.4298 5.177,-1.1019 0.5812,0.8574 -1.8509,2.3476 -2.6223,2.7586 1.1525,1.2938 3.877,-1.5947 4.4375,0.0344 0.3473,1.0115 -2.7963,1.9556 -3.7111,2.1153 0.2818,1.6029 3.092,-0.5092 3.3209,1.0157 0.1523,1.0158 -2.7445,1.325 -3.59,1.3904 -0.4355,1.0862 1.9141,0.3306 1.8623,1.2704 -0.0422,0.7671 -0.6439,0.9005 -2.7999,0.6792 -1.1998,-0.1233 -2.8912,0.1812 -4.5415,0.0879l0.1402 -0.0463 -0.1402 0.0463c0,0 -9.8525,3.1874 -15.8188,-0.1192 -4.1852,-2.3196 -2.7746,-9.4248 0.0173,-13.8222 5.9158,-9.3178 11.4663,-11.1892 13.234,-9.4216 1.7677,1.7676 -2.4595,9.6157 -4.9353,12.7023 -2.1697,2.7046 -0.7358,4.4132 5.5108,2.6567l0.0002 0z"/>
   <path id="_590277160" class="fil12" d="M163.319 162.045c5.8629,-9.1268 11.3395,-10.956 13.0932,-9.2024 1.7677,1.7676 -2.4595,9.6157 -4.9353,12.7023 -0.8278,1.0319 -1.1303,1.9184 -0.8419,2.5232 -2.1881,-0.6787 -5.345,-3.4044 -7.316,-6.0231z"/>
   <g style="clip-path:url(#id6)">
    <g>
     <path id="_5914763201" class="fil12" d="M188.09 181.221c0,0 -4.2136,-13.6241 -7.885,-18.61 -3.6714,-4.9859 -29.6867,-19.3457 -29.6867,-19.3457l-3.1489 6.0924c0,0 25.347,12.3235 29.7455,20.6215 4.3985,8.2979 5.5252,13.2109 5.5252,13.2109l5.4499 -1.9691z"/>
    </g>
    <g style="clip-path:url(#id7)">
     <g>
      <path id="_5904348802" class="fil13" d="M187.318 181.759c0,0 -4.5718,-13.5994 -7.7385,-18.0636 -3.1667,-4.4643 -29.6233,-19.6555 -29.6233,-19.6555l-0.9745 2.007c0,0 25.4496,11.8252 30.3236,20.4665 4.8741,8.6414 6.8668,15.7444 6.8668,15.7444l1.1459 -0.4988z"/>
      <path id="_590435168" class="fil13" d="M185.493 183.732c0,0 -4.5718,-13.5994 -7.7386,-18.0637 -3.1667,-4.4642 -29.6233,-19.6555 -29.6233,-19.6555l-0.9745 2.0071c0,0 25.4496,11.8252 30.3237,20.4665 4.874,8.6413 6.8668,15.7443 6.8668,15.7443l1.1459 -0.4987z"/>
     </g>
    </g>
    <g style="clip-path:url(#id8)">
     <path class="fil5 str7" d="M188.09 181.221c0,0 -4.2136,-13.6241 -7.885,-18.61 -3.6714,-4.9859 -29.6867,-19.3457 -29.6867,-19.3457l-3.1489 6.0924c0,0 25.347,12.3235 29.7455,20.6215 4.3985,8.2979 5.5252,13.2109 5.5252,13.2109l5.4499 -1.9691z"/>
    </g>
   </g>
   <path class="fil5 str8" d="M163.319 162.045c5.8629,-9.1268 11.3395,-10.956 13.0932,-9.2024 1.7677,1.7676 -2.4595,9.6157 -4.9353,12.7023 -0.8278,1.0319 -1.1303,1.9184 -0.8419,2.5232 -2.1881,-0.6787 -5.345,-3.4044 -7.316,-6.0231z"/>
  </g>
  <g id="_590276344">
   <g>
    <g>
     <g>
      <path id="_590277064" class="fil14 str9" d="M179.43 206.821c3.4273,0.2623 5.9439,3.9121 5.7278,6.7356 -0.2162,2.8235 -3.0833,3.7531 -6.5106,3.4907 -3.4274,-0.2624 -6.1195,-1.6175 -5.9033,-4.441 0.2161,-2.8235 3.2587,-6.0477 6.6861,-5.7853z"/>
      <path id="_590276992" class="fil15 str10" d="M173.673 182.327c0,0 -1.3368,10.7265 -1.4818,14.546 -0.1451,3.8195 1.874,10.162 1.7002,12.4323 -0.1738,2.2704 -0.9839,5.155 1.5681,5.4977 2.5521,0.3427 5.7577,0.8091 7.4926,0.2789 1.7349,-0.5302 2.0271,-2.4231 1.0407,-3.972 -0.9864,-1.5488 -0.7597,-13.1706 -0.3775,-15.2777 0.3823,-2.107 2.1361,-12.5069 2.1361,-12.5069l-12.0784 -0.9983z"/>
      <path id="_590276920" class="fil16" d="M184.979 212.986c0.2657,-3.4711 -2.3037,-5.0804 -5.6044,-5.3331 -3.3006,-0.2527 -6.0849,0.9468 -6.3506,4.418 -0.1139,1.4873 0.0848,3.8188 6.1394,3.9695 6.0545,0.1506 5.7021,-1.5722 5.8156,-3.0544z"/>
      <g style="clip-path:url(#id9)">
       <g>
        <path id="_5916191521" class="fil17" d="M179.198 209.583c-6.1019,-0.5771 -8.2716,8.8901 -0.1863,9.1387 7.9174,0.2435 5.5501,-8.6315 0.1863,-9.1387z"/>
        <path id="_591618648" class="fil17" d="M179.016 208.323c-1.9024,-0.0398 -2.5788,0.6132 -0.058,0.6303 2.4684,0.0168 1.7303,-0.5953 0.058,-0.6303z"/>
       </g>
      </g>
      <path class="fil5 str9" d="M184.979 212.986c0.2657,-3.4711 -2.3037,-5.0804 -5.6044,-5.3331 -3.3006,-0.2527 -6.0849,0.9468 -6.3506,4.418 -0.1139,1.4873 0.0848,3.8188 6.1394,3.9695 6.0545,0.1506 5.7021,-1.5722 5.8156,-3.0544z"/>
     </g>
     <g>
      <path id="_590276824" class="fil14 str9" d="M196.402 206.821c-3.4273,0.2623 -5.9439,3.9121 -5.7278,6.7356 0.2162,2.8235 3.0833,3.7531 6.5106,3.4907 3.4274,-0.2624 6.1195,-1.6175 5.9033,-4.441 -0.2161,-2.8235 -3.2587,-6.0477 -6.6861,-5.7853z"/>
      <path id="_590276752" class="fil15 str10" d="M202.158 182.327c0,0 1.3368,10.7265 1.4818,14.546 0.1451,3.8195 -1.874,10.162 -1.7002,12.4323 0.1738,2.2704 0.9839,5.155 -1.5681,5.4977 -2.5521,0.3427 -5.7577,0.8091 -7.4926,0.2789 -1.7349,-0.5302 -2.0271,-2.4231 -1.0407,-3.972 0.9864,-1.5488 0.7597,-13.1706 0.3775,-15.2777 -0.3823,-2.107 -2.1361,-12.5069 -2.1361,-12.5069l12.0784 -0.9983z"/>
      <path id="_590276680" class="fil16" d="M190.852 212.986c-0.2657,-3.4711 2.3037,-5.0804 5.6044,-5.3331 3.3006,-0.2527 6.0849,0.9468 6.3506,4.418 0.1139,1.4873 -0.0848,3.8188 -6.1394,3.9695 -6.0545,0.1506 -5.7021,-1.5722 -5.8156,-3.0544z"/>
      <g style="clip-path:url(#id10)">
       <g>
        <path id="_5916077761" class="fil17" d="M196.633 209.583c6.1019,-0.5771 8.2716,8.8901 0.1863,9.1387 -7.9174,0.2435 -5.5501,-8.6315 -0.1863,-9.1387z"/>
        <path id="_591600768" class="fil17" d="M196.815 208.323c1.9024,-0.0398 2.5788,0.6132 0.058,0.6303 -2.4684,0.0168 -1.7303,-0.5953 -0.058,-0.6303z"/>
       </g>
      </g>
      <path class="fil5 str9" d="M190.852 212.986c-0.2657,-3.4711 2.3037,-5.0804 5.6044,-5.3331 3.3006,-0.2527 6.0849,0.9468 6.3506,4.418 0.1139,1.4873 -0.0848,3.8188 -6.1394,3.9695 -6.0545,0.1506 -5.7021,-1.5722 -5.8156,-3.0544z"/>
     </g>
    </g>
    <g>
     <path id="_590276560" class="fil18" d="M187.911 187.844c-0.0596,1.2457 -3.7696,18.4368 -3.7696,18.4368 0,0 -2.4096,1.8423 -11.4121,-0.57 -3.1711,-9.5366 -0.9073,-32.747 -0.7276,-33.3156l15.1762 -0.0347 0.6977 -0.0016 0.6977 -0.0016 15.1762 -0.0347c0.1823,0.5677 2.5523,23.7675 -0.5751,33.3185 -8.9914,2.4535 -11.4093,0.6223 -11.4093,0.6223 0,0 -3.7887,-17.174 -3.8541,-18.4194z"/>
     <g style="clip-path:url(#id11)">
      <g>
       <path id="_4846102961" class="fil19" d="M184.232 176.175c0,0 -0.6112,4.4901 0.3632,7.8025 0.9743,3.3125 3.3203,5.6709 3.3203,5.6709l-0.024 -13.6889 -3.6595 0.2155z"/>
      </g>
     </g>
     <path class="fil5 str11" d="M187.911 187.844c-0.0596,1.2457 -3.7696,18.4368 -3.7696,18.4368 0,0 -2.4096,1.8423 -11.4121,-0.57 -3.1711,-9.5366 -0.9073,-32.747 -0.7276,-33.3156l15.1762 -0.0347 0.6977 -0.0016 0.6977 -0.0016 15.1762 -0.0347c0.1823,0.5677 2.5523,23.7675 -0.5751,33.3185 -8.9914,2.4535 -11.4093,0.6223 -11.4093,0.6223 0,0 -3.7887,-17.174 -3.8541,-18.4194z"/>
     <path id="_590276488" class="fil19" d="M178.349 178.031c0,0 -1.634,13.1741 -1.529,17.5006 0.105,4.3265 0.2578,8.748 0.2578,8.748 0,0 1.3413,-16.4067 1.2712,-26.2486zm19.0799 -0.0437c0,0 1.6942,13.1665 1.609,17.4935 -0.0851,4.3269 -0.2177,8.749 -0.2177,8.749 0,0 -1.4163,-16.4003 -1.3913,-26.2425z"/>
    </g>
   </g>
   <path id="_590276368" class="fil12" d="M166.667 195.93c1.025,1.612 10.9915,4.875 21.2486,4.875 10.2572,0 20.2237,-3.263 21.2487,-4.875 0.2103,-0.3309 -4.0845,-40.8632 -8.2453,-43.2879 -6.4833,-3.778 -19.5235,-3.778 -26.0067,0 -4.1605,2.4245 -8.4558,42.9567 -8.2453,43.2879z"/>
   <g style="clip-path:url(#id12)">
    <g>
     <g>
      <path id="_5914663841" class="fil12" d="M172.431 149.724c0,0 9.6921,10.4611 12.1743,16.1336 2.4822,5.6725 1.9105,35.3823 1.9105,35.3823l-6.8507 -0.3192c0,0 2.0011,-28.1129 -2.9859,-36.0711 -4.987,-7.9582 -8.6784,-11.3904 -8.6784,-11.3904l4.4302 -3.7352z"/>
     </g>
     <g style="clip-path:url(#id13)">
      <g>
       <path id="_5904371602" class="fil13" d="M171.58 150.124c0,0 9.4915,10.759 11.7743,15.7336 2.2828,4.9746 2.2105,35.4823 2.2105,35.4823l-2.2254 -0.1596c0,0 2.4839,-27.9526 -2.5627,-36.4943 -5.0466,-8.5417 -10.2016,-13.819 -10.2016,-13.819l1.0049 -0.743z"/>
       <path id="_590427728" class="fil13" d="M168.959 150.718c0,0 9.4915,10.759 11.7743,15.7336 2.2828,4.9746 2.2105,35.4823 2.2105,35.4823l-2.2254 -0.1596c0,0 2.4839,-27.9526 -2.5627,-36.4943 -5.0466,-8.5417 -10.2016,-13.819 -10.2016,-13.819l1.0049 -0.743z"/>
      </g>
     </g>
     <g style="clip-path:url(#id14)">
      <path class="fil5 str7" d="M172.431 149.724c0,0 9.6921,10.4611 12.1743,16.1336 2.4822,5.6725 1.9105,35.3823 1.9105,35.3823l-6.8507 -0.3192c0,0 2.0011,-28.1129 -2.9859,-36.0711 -4.987,-7.9582 -8.6784,-11.3904 -8.6784,-11.3904l4.4302 -3.7352z"/>
      <path id="_591466648" class="fil12" d="M203.4 149.724c0,0 -9.6921,10.4611 -12.1743,16.1336 -2.4822,5.6725 -1.9105,35.3823 -1.9105,35.3823l6.8507 -0.3192c0,0 -2.0011,-28.1129 2.9859,-36.0711 4.987,-7.9582 8.6784,-11.3904 8.6784,-11.3904l-4.4302 -3.7352z"/>
     </g>
     <g style="clip-path:url(#id15)">
      <g>
       <path id="_5904209601" class="fil13" d="M204.252 150.124c0,0 -9.4915,10.759 -11.7743,15.7336 -2.2828,4.9746 -2.2105,35.4823 -2.2105,35.4823l2.2254 -0.1596c0,0 -2.4839,-27.9526 2.5627,-36.4943 5.0466,-8.5417 10.2016,-13.819 10.2016,-13.819l-1.0049 -0.743z"/>
       <path id="_590421056" class="fil13" d="M206.873 150.718c0,0 -9.4915,10.759 -11.7743,15.7336 -2.2828,4.9746 -2.2105,35.4823 -2.2105,35.4823l2.2254 -0.1596c0,0 -2.4839,-27.9526 2.5627,-36.4943 5.0466,-8.5417 10.2016,-13.819 10.2016,-13.819l-1.0049 -0.743z"/>
      </g>
     </g>
     <g style="clip-path:url(#id16)">
      <path class="fil5 str7" d="M203.4 149.724c0,0 -9.6921,10.4611 -12.1743,16.1336 -2.4822,5.6725 -1.9105,35.3823 -1.9105,35.3823l6.8507 -0.3192c0,0 -2.0011,-28.1129 2.9859,-36.0711 4.987,-7.9582 8.6784,-11.3904 8.6784,-11.3904l-4.4302 -3.7352z"/>
     </g>
     <g>
      <path id="_591466768" class="fil12" d="M217.399 156.774c0,0 -9.6921,10.4611 -12.1743,16.1336 -2.4822,5.6725 -1.9105,35.3823 -1.9105,35.3823l6.8507 -0.3192c0,0 -2.0011,-28.1129 2.9859,-36.0711 4.987,-7.9582 8.6784,-11.3904 8.6784,-11.3904l-4.4302 -3.7352z"/>
     </g>
     <g style="clip-path:url(#id17)">
      <g>
       <path id="_5904264081" class="fil13" d="M218.25 157.174c0,0 -9.4915,10.759 -11.7743,15.7336 -2.2828,4.9746 -2.2105,35.4823 -2.2105,35.4823l2.2254 -0.1596c0,0 -2.4839,-27.9526 2.5627,-36.4943 5.0466,-8.5417 10.2016,-13.819 10.2016,-13.819l-1.0049 -0.743z"/>
       <path id="_590426504" class="fil13" d="M220.871 157.768c0,0 -9.4915,10.759 -11.7743,15.7336 -2.2828,4.9746 -2.2105,35.4823 -2.2105,35.4823l2.2254 -0.1596c0,0 -2.4839,-27.9526 2.5627,-36.4943 5.0466,-8.5417 10.2016,-13.819 10.2016,-13.819l-1.0049 -0.743z"/>
      </g>
     </g>
     <g style="clip-path:url(#id18)">
      <path class="fil5 str7" d="M217.399 156.774c0,0 -9.6921,10.4611 -12.1743,16.1336 -2.4822,5.6725 -1.9105,35.3823 -1.9105,35.3823l6.8507 -0.3192c0,0 -2.0011,-28.1129 2.9859,-36.0711 4.987,-7.9582 8.6784,-11.3904 8.6784,-11.3904l-4.4302 -3.7352z"/>
      <path id="_591466960" class="fil12" d="M158.433 156.774c0,0 9.6921,10.4611 12.1743,16.1336 2.4822,5.6725 1.9105,35.3823 1.9105,35.3823l-6.8507 -0.3192c0,0 2.0011,-28.1129 -2.9859,-36.0711 -4.987,-7.9582 -8.6784,-11.3904 -8.6784,-11.3904l4.4302 -3.7352z"/>
     </g>
     <g style="clip-path:url(#id19)">
      <g>
       <path id="_5904361521" class="fil13" d="M157.581 157.174c0,0 9.4915,10.759 11.7743,15.7336 2.2828,4.9746 2.2105,35.4823 2.2105,35.4823l-2.2254 -0.1596c0,0 2.4839,-27.9526 -2.5627,-36.4943 -5.0466,-8.5417 -10.2016,-13.819 -10.2016,-13.819l1.0049 -0.743z"/>
       <path id="_590444024" class="fil13" d="M154.96 157.768c0,0 9.4915,10.759 11.7743,15.7336 2.2828,4.9746 2.2105,35.4823 2.2105,35.4823l-2.2254 -0.1596c0,0 2.4839,-27.9526 -2.5627,-36.4943 -5.0466,-8.5417 -10.2016,-13.819 -10.2016,-13.819l1.0049 -0.743z"/>
      </g>
     </g>
     <g style="clip-path:url(#id20)">
      <path class="fil5 str7" d="M158.433 156.774c0,0 9.6921,10.4611 12.1743,16.1336 2.4822,5.6725 1.9105,35.3823 1.9105,35.3823l-6.8507 -0.3192c0,0 2.0011,-28.1129 -2.9859,-36.0711 -4.987,-7.9582 -8.6784,-11.3904 -8.6784,-11.3904l4.4302 -3.7352z"/>
     </g>
    </g>
   </g>
   <path class="fil5 str8" d="M166.667 195.93c1.025,1.612 10.9915,4.875 21.2486,4.875 10.2572,0 20.2237,-3.263 21.2487,-4.875 0.2103,-0.3309 -4.0845,-40.8632 -8.2453,-43.2879 -6.4833,-3.778 -19.5235,-3.778 -26.0067,0 -4.1605,2.4245 -8.4558,42.9567 -8.2453,43.2879z"/>
  </g>
  <path class="fil3 str1" d="M181.558 146.185l12.7151 0 0 5.5158c0,1.6001 -2.8469,2.898 -6.3575,2.898 -3.5105,0 -6.3576,-1.2979 -6.3576,-2.898l0 -5.5158z"/>
  <g id="_590275072">
   <g>
    <path id="_590276200" class="fil20" d="M211.916 115.475c-1.61,0.6556 -1.5438,4.0138 1.1649,3.5986 2.7086,-0.4153 1.4116,-4.6478 -1.1649,-3.5986z"/>
    <path id="_590276128" class="fil17" d="M212.065 116.37c-0.9353,0.2833 -0.7449,2.1079 0.8594,2.0042 0.3851,-0.0249 0.6217,-0.1796 0.7387,-0.3939 -0.0509,0.0092 -0.1048,0.0162 -0.1622,0.0199 -1.2757,0.0824 -1.6572,-1.0543 -1.2899,-1.6659 -0.0481,0.009 -0.0967,0.0207 -0.146,0.0357z"/>
    <path id="_590276056" class="fil3 str12" d="M161.073 128.872c0.7523,-0.4343 2.0669,0.4336 2.9356,1.9383 0.8687,1.5047 0.9631,3.0771 0.2108,3.5115 -0.7523,0.4343 -2.0669,-0.4336 -2.9356,-1.9383 -0.8688,-1.5047 -0.9631,-3.0771 -0.2108,-3.5115zm53.6856 0c-0.7523,-0.4343 -2.0669,0.4336 -2.9356,1.9383 -0.8687,1.5047 -0.9631,3.0771 -0.2108,3.5115 0.7524,0.4343 2.0669,-0.4336 2.9357,-1.9383 0.8687,-1.5047 0.9631,-3.0771 0.2107,-3.5115z"/>
    <path id="_590275984" class="fil3 str1" d="M187.916 100.533c26.922,0 24.7306,17.0723 24.7306,30.7282 0,13.656 -11.0747,18.7332 -24.7306,18.7332 -13.656,0 -24.7307,-5.0772 -24.7307,-18.7332 0,-13.6559 -2.1914,-30.7282 24.7307,-30.7282z"/>
    <path id="_590275912" class="fil0 str13" d="M186.089 113.54c-0.5978,-0.3337 -3.0619,2.5442 -5.3395,2.4208 -3.5165,-0.1904 0.594,-4.7758 -1.598,-4.5787 -13.0095,1.1695 -15.0375,14.6251 -15.2668,23.798 0,0 -1.4592,-4.6446 -3.0464,-9.0326 -1.5873,-4.388 -1.6807,-16.0893 8.2165,-22.0313 8.7349,-5.2444 17.0322,-5.2193 18.8605,-5.141 1.3712,-0.0587 6.3813,-0.0872 12.4856,2.1143 1.1444,0.4128 0.3439,-3.0636 1.5484,-2.4795 0.9369,0.4541 3.8715,4.9327 4.8265,5.5062 0.9277,0.5568 5.3034,-2.3707 6.0627,-1.7233 0.5159,0.44 -2.5406,4.4343 -2.0972,4.9077 5.8649,6.2613 5.5881,15.15 4.251,18.8469 -1.5871,4.3878 -3.0464,9.0326 -3.0464,9.0326 -0.0564,-8.0406 -1.2704,-19.2135 -10.3955,-22.3695 -2.9099,-1.0066 -2.5776,3.7752 -7.6827,3.8103 -0.9999,0.0068 1.756,-3.9445 0.7367,-3.8716 -4.2304,0.3027 -3.9314,5.0216 -8.0463,4.9023 -2.9861,-0.0866 1.3537,-3.094 -0.4691,-4.1116z"/>
    <path id="_590275840" class="fil9" d="M171.51 135.285c1.6471,0 2.9829,1.3357 2.9829,2.9829 0,1.6471 -1.3358,2.9828 -2.9829,2.9828 -1.6471,0 -2.9829,-1.3357 -2.9829,-2.9828 0,-1.6472 1.3358,-2.9829 2.9829,-2.9829zm32.812 0c1.647,0 2.9828,1.3359 2.9828,2.9829 0,1.6472 -1.3358,2.9829 -2.9828,2.9829 -1.6472,0 -2.983,-1.3357 -2.983,-2.9829 0,-1.647 1.3358,-2.9829 2.983,-2.9829z"/>
    <path id="_590275768" class="fil0" d="M206.589 124.546c0,0 -4.4428,-0.6873 -8.6754,0.3892 0,0 -0.6761,-1.7066 0.8925,-2.4354 0.9397,-0.4363 4.79,-0.5263 5.9579,-0.512 1.2019,0.0147 1.825,2.5582 1.825,2.5582z"/>
    <path id="_590275696" class="fil0" d="M169.375 124.546c0,0 4.4427,-0.6873 8.6753,0.3892 0,0 0.6762,-1.7066 -0.8924,-2.4354 -0.9397,-0.4363 -4.79,-0.5263 -5.958,-0.512 -1.2018,0.0147 -1.8249,2.5582 -1.8249,2.5582z"/>
    <path id="_590275624" class="fil11" d="M202.179 125.562c-1.7106,0 -3.0982,0.8671 -3.0982,1.9365 0,1.0693 1.3876,1.9364 3.0982,1.9364 1.7106,0 3.0983,-0.8671 3.0983,-1.9364 0,-1.0694 -1.3877,-1.9365 -3.0983,-1.9365z"/>
    <g style="clip-path:url(#id21)">
     <g>
      <circle id="_591615072" class="fil0" transform="matrix(-2.81926 -0.755418 -0.755418 2.81926 202.179 127.499)" r="0.682"/>
     </g>
    </g>
    <path class="fil5 str0" d="M202.179 125.562c-1.7106,0 -3.0982,0.8671 -3.0982,1.9365 0,1.0693 1.3876,1.9364 3.0982,1.9364 1.7106,0 3.0983,-0.8671 3.0983,-1.9364 0,-1.0694 -1.3877,-1.9365 -3.0983,-1.9365z"/>
    <path id="_590275552" class="fil11" d="M173.785 125.562c1.7106,0 3.0982,0.8671 3.0982,1.9365 0,1.0693 -1.3876,1.9364 -3.0982,1.9364 -1.7106,0 -3.0983,-0.8671 -3.0983,-1.9364 0,-1.0694 1.3877,-1.9365 3.0983,-1.9365z"/>
    <g style="clip-path:url(#id22)">
     <g>
      <circle id="_591599736" class="fil0" transform="matrix(2.81926 -0.755418 0.755418 2.81926 173.785 127.499)" r="0.682"/>
     </g>
    </g>
    <path class="fil5 str0" d="M173.785 125.562c1.7106,0 3.0982,0.8671 3.0982,1.9365 0,1.0693 -1.3876,1.9364 -3.0982,1.9364 -1.7106,0 -3.0983,-0.8671 -3.0983,-1.9364 0,-1.0694 1.3877,-1.9365 3.0983,-1.9365z"/>
    <path id="_590275480" class="fil2" d="M169.867 108.128c0,0 -4.0228,3.1794 -3.999,7.2473 0,0 1.7372,-3.6451 3.999,-7.2473z"/>
    <path id="_590275408" class="fil2" d="M186.187 106.235c0,0 -4.0228,3.1794 -3.999,7.2473 0,0 1.7372,-3.6451 3.999,-7.2473z"/>
    <path id="_590275336" class="fil2" d="M193.617 105.096c0,0 -4.0228,3.1794 -3.999,7.2473 0,0 1.7372,-3.6451 3.999,-7.2473z"/>
    <path id="_590275264" class="fil2" d="M200.276 106.015c0,0 -4.0228,3.1794 -3.999,7.2473 0,0 1.7372,-3.6451 3.999,-7.2473z"/>
    <path id="_590275192" class="fil5 str1" d="M185.886 134.762c0,0 1.9981,1.1768 4.0599,0"/>
   </g>
   <path id="_590275096" class="fil10 str6" d="M192.698 140.817c0,2.6406 -2.1416,4.7822 -4.7822,4.7822 -2.6406,0 -4.7822,-2.1416 -4.7822,-4.7822l9.5644 0z"/>
  </g>
  <g id="_590274904">
   <path id="_590275000" class="fil3 str1" d="M222.752 129.87c0.758,-1.8426 0.3912,-5.0153 0.8835,-5.2958 0.4924,-0.2805 0.8475,-0.2022 2.0956,1.9688 1.7139,-0.8241 1.3059,-4.7422 2.8816,-4.4399 1.0172,0.1953 0.3511,2.9688 0.0963,3.8049 1.7298,0.1 1.6139,-3.8691 3.1622,-3.1135 0.9608,0.4698 -0.5945,3.36 -1.1284,4.1199 1.3327,0.9342 1.8263,-2.5464 3.0664,-1.63 0.8259,0.6106 -1.0037,2.8776 -1.5554,3.5216 0.4602,1.0761 1.5873,-1.1195 2.2151,-0.4185 0.5127,0.5723 0.1815,1.0921 -1.4994,2.4602 -0.9357,0.7612 -1.9164,2.1725 -3.1493,3.2734l0.007 -0.0138c-0.5215,1.0239 -4.2339,8.3336 -12.0761,15.542 -7.8423,7.2084 -13.3104,8.7973 -15.2216,5.6753 -1.9111,-3.122 3.4114,-7.2283 8.0548,-10.9921 4.6434,-3.7637 12.1246,-14.4874 12.1246,-14.4874l0.0431 0.0249z"/>
   <path id="_590274928" class="fil12" d="M221.527 145.853c-1.1333,1.2453 -2.3898,2.5224 -3.776,3.7965 -7.8422,7.2084 -13.3104,8.7974 -15.2215,5.6753 -1.9111,-3.122 3.4115,-7.2283 8.0548,-10.9921 1.3512,-1.0952 2.9427,-2.7801 4.5202,-4.6184 2.2524,1.5914 4.6217,3.8661 6.4225,6.1387z"/>
   <g style="clip-path:url(#id23)">
    <g>
     <path id="_5914785281" class="fil12" d="M220.562 172.912c0,0 -9.6921,-10.4611 -12.1743,-16.1336 -2.4822,-5.6725 -1.9105,-35.3823 -1.9105,-35.3823l6.8507 0.3192c0,0 -2.0011,28.1129 2.9859,36.0711 4.987,7.9582 8.6784,11.3904 8.6784,11.3904l-4.4302 3.7352z"/>
    </g>
    <g style="clip-path:url(#id24)">
     <g>
      <path id="_5904409042" class="fil13" d="M221.414 172.512c0,0 -9.4915,-10.759 -11.7743,-15.7336 -2.2828,-4.9746 -2.2105,-35.4823 -2.2105,-35.4823l2.2254 0.1596c0,0 -2.4839,27.9526 2.5627,36.4943 5.0466,8.5417 10.2016,13.819 10.2016,13.819l-1.0049 0.743z"/>
      <path id="_590439536" class="fil13" d="M224.034 171.918c0,0 -9.4915,-10.759 -11.7743,-15.7336 -2.2828,-4.9746 -2.2105,-35.4823 -2.2105,-35.4823l2.2254 0.1596c0,0 -2.4839,27.9526 2.5627,36.4943 5.0466,8.5417 10.2016,13.819 10.2016,13.819l-1.0049 0.743z"/>
     </g>
    </g>
    <g style="clip-path:url(#id25)">
     <path class="fil5 str7" d="M220.562 172.912c0,0 -9.6921,-10.4611 -12.1743,-16.1336 -2.4822,-5.6725 -1.9105,-35.3823 -1.9105,-35.3823l6.8507 0.3192c0,0 -2.0011,28.1129 2.9859,36.0711 4.987,7.9582 8.6784,11.3904 8.6784,11.3904l-4.4302 3.7352z"/>
    </g>
   </g>
   <path class="fil5 str8" d="M221.527 145.853c-1.1333,1.2453 -2.3898,2.5224 -3.776,3.7965 -7.8422,7.2084 -13.3104,8.7974 -15.2215,5.6753 -1.9111,-3.122 3.4115,-7.2283 8.0548,-10.9921 1.3512,-1.0952 2.9427,-2.7801 4.5202,-4.6184 2.2524,1.5914 4.6217,3.8661 6.4225,6.1387z"/>
  </g>
  <g id="_590274544">
   <g>
    <path id="_590274832" class="fil3 str1" d="M52.5251 164.979c1.5775,-1.2169 2.8462,-4.1477 3.4129,-4.1444 0.5666,0.0032 0.835,0.2485 0.8304,2.7527 1.8963,0.1434 3.502,-3.4538 4.7154,-2.4042 0.7833,0.6777 -1.1802,2.7466 -1.8189,3.3433 1.448,0.9514 3.3321,-2.5438 4.2952,-1.1153 0.5972,0.8871 -2.1949,2.6127 -3.0372,3.0037 0.687,1.4754 2.8548,-1.2921 3.4706,0.1216 0.41,0.9418 -2.308,1.9902 -3.1078,2.2722 -0.1395,1.1619 1.9344,-0.1761 2.1277,0.7451 0.1577,0.7519 -0.3889,1.0365 -2.5288,1.3807 -1.1908,0.1914 -2.7457,0.9233 -4.364,1.2603l0.1235 -0.081 -0.1235 0.081c0,0 -8.6918,5.6289 -15.3106,3.9791 -4.6429,-1.1573 -5.1194,-8.3855 -3.5607,-13.3557 3.3026,-10.5314 8.1796,-13.7756 10.3445,-12.5258 2.165,1.2499 0.1131,9.9247 -1.4795,13.5469 -1.3958,3.174 0.4315,4.4532 6.0106,1.1398l0.0002 0z"/>
    <path id="_590274760" class="fil4 str2" d="M37.7285 162.57c3.301,-10.3332 8.1175,-13.5175 10.2653,-12.2776 2.165,1.2499 0.1131,9.9247 -1.4795,13.5469 -0.5325,1.211 -0.5953,2.1455 -0.1602,2.6551 -2.2892,-0.0893 -6.044,-1.905 -8.6256,-3.9244z"/>
   </g>
   <g>
    <path id="_590274664" class="fil3 str1" d="M68.5475 164.979c-1.5775,-1.2169 -2.8462,-4.1477 -3.4129,-4.1444 -0.5666,0.0032 -0.835,0.2485 -0.8304,2.7527 -1.8963,0.1434 -3.502,-3.4538 -4.7154,-2.4042 -0.7833,0.6777 1.1802,2.7466 1.8189,3.3433 -1.448,0.9514 -3.3321,-2.5438 -4.2952,-1.1153 -0.5972,0.8871 2.1949,2.6127 3.0372,3.0037 -0.687,1.4754 -2.8548,-1.2921 -3.4706,0.1216 -0.41,0.9418 2.308,1.9902 3.1078,2.2722 0.1395,1.1619 -1.9344,-0.1761 -2.1277,0.7451 -0.1577,0.7519 0.3889,1.0365 2.5288,1.3807 1.1908,0.1914 2.7457,0.9233 4.364,1.2603l-0.1235 -0.081 0.1235 0.081c0,0 8.6918,5.6289 15.3106,3.9791 4.6429,-1.1573 5.1194,-8.3855 3.5607,-13.3557 -3.3026,-10.5314 -8.1796,-13.7756 -10.3445,-12.5258 -2.165,1.2499 -0.1131,9.9247 1.4795,13.5469 1.3958,3.174 -0.4315,4.4532 -6.0106,1.1398l-0.0002 0z"/>
    <path id="_590274592" class="fil4 str2" d="M83.3441 162.57c-3.301,-10.3332 -8.1175,-13.5175 -10.2653,-12.2776 -2.165,1.2499 -0.1131,9.9247 1.4795,13.5469 0.5325,1.211 0.5953,2.1455 0.1602,2.6551 2.2892,-0.0893 6.044,-1.905 8.6256,-3.9244z"/>
   </g>
  </g>
  <g id="_590271232">
   <path id="_590274472" class="fil21 str14" d="M69.4688 205.976c-3.5586,0.2888 -6.1551,4.0916 -5.9172,7.0233 0.2379,2.9317 3.2203,3.8835 6.779,3.5947 3.5586,-0.2888 6.3483,-1.7091 6.1104,-4.6407 -0.2379,-2.9317 -3.4135,-6.2661 -6.9722,-5.9773z"/>
   <path id="_590274400" class="fil21 str14" d="M51.6493 206.016c3.5599,0.2725 6.1738,4.0634 5.9493,6.9961 -0.2245,2.9328 -3.2025,3.8983 -6.7624,3.6257 -3.56,-0.2725 -6.3561,-1.68 -6.1316,-4.6127 0.2245,-2.9328 3.3848,-6.2817 6.9447,-6.0091z"/>
   <path id="_590274328" class="fil3" d="M45.7742 180.575c0,0 -1.3885,11.1414 -1.5391,15.1086 -0.1507,3.9673 1.9465,10.5551 1.766,12.9132 -0.1805,2.3582 -1.022,5.3544 1.6288,5.7103 2.6507,0.356 5.9803,0.8404 7.7823,0.2897 1.802,-0.5507 2.1056,-2.5168 1.081,-4.1256 -1.0246,-1.6087 -0.7892,-13.6801 -0.3921,-15.8686 0.3971,-2.1885 2.2187,-12.9907 2.2187,-12.9907l-12.5456 -1.0369z"/>
   <g style="clip-path:url(#id26)">
    <g>
     <path id="_5960901201" class="fil5 str4" d="M54.5901 213.463c0,0 0.4986,-0.4987 1.3747,-0.2528m-8.399 -0.9743c0,0 -0.8797,2.0972 1.1708,2.2203m5.1001 -1.9773c0,0 -0.8797,2.097 1.1709,2.2202m-3.312 -2.0777c0,0 -0.8797,2.0971 1.171,2.2203m-3.2243 -2.3579c0,0 -0.8796,2.0971 1.171,2.22m-4.2485 -1.7345c0,0 0.1753,-0.1756 0.4836,-0.0889m1.0553 0.5902c0,0 0.3164,-0.3166 0.8725,-0.1606m1.1574 0.3671c0,0 0.3165,-0.3167 0.8725,-0.1605m1.1484 0.0878c0,0 0.3164,-0.3166 0.8724,-0.1604"/>
     <path id="_596090192" class="fil21" d="M45.4045 203.881c0.0806,0.4062 0.1584,0.8022 0.2303,1.1834 1.966,0.3477 4.0949,0.5383 6.3185,0.5383 1.3405,0 2.6464,-0.0697 3.9033,-0.2008 -0.0139,-0.3711 -0.0252,-0.7513 -0.0339,-1.1378 -1.2464,0.1287 -2.541,0.1968 -3.8694,0.1968 -2.3108,0 -4.5192,-0.2058 -6.5488,-0.5799z"/>
    </g>
    <g style="clip-path:url(#id27)">
     <g>
      <path id="_5960935761" class="fil5 str4" d="M54.6272 213.404c0,0 0.4986,-0.4987 1.3747,-0.2528m-8.399 -0.9743c0,0 -0.8797,2.0972 1.1708,2.2203m5.1001 -1.9773c0,0 -0.8797,2.097 1.1709,2.2202m-3.312 -2.0777c0,0 -0.8797,2.0971 1.171,2.2203m-3.2243 -2.3579c0,0 -0.8796,2.0971 1.171,2.22m-4.2485 -1.7345c0,0 0.1753,-0.1756 0.4836,-0.0889m1.0553 0.5902c0,0 0.3164,-0.3166 0.8725,-0.1606m1.1574 0.3671c0,0 0.3165,-0.3167 0.8725,-0.1605m1.1484 0.0878c0,0 0.3164,-0.3166 0.8724,-0.1604"/>
     </g>
    </g>
    <g style="clip-path:url(#id28)">
     <path class="fil5" d="M45.4045 203.881c0.0806,0.4062 0.1584,0.8022 0.2303,1.1834 1.966,0.3477 4.0949,0.5383 6.3185,0.5383 1.3405,0 2.6464,-0.0697 3.9033,-0.2008 -0.0139,-0.3711 -0.0252,-0.7513 -0.0339,-1.1378 -1.2464,0.1287 -2.541,0.1968 -3.8694,0.1968 -2.3108,0 -4.5192,-0.2058 -6.5488,-0.5799z"/>
    </g>
   </g>
   <path class="fil5 str12" d="M45.7742 180.575c0,0 -1.3885,11.1414 -1.5391,15.1086 -0.1507,3.9673 1.9465,10.5551 1.766,12.9132 -0.1805,2.3582 -1.022,5.3544 1.6288,5.7103 2.6507,0.356 5.9803,0.8404 7.7823,0.2897 1.802,-0.5507 2.1056,-2.5168 1.081,-4.1256 -1.0246,-1.6087 -0.7892,-13.6801 -0.3921,-15.8686 0.3971,-2.1885 2.2187,-12.9907 2.2187,-12.9907l-12.5456 -1.0369z"/>
   <path id="_590274256" class="fil21 str14" d="M57.2515 213.916c0.1372,-0.5011 0.2282,-1.004 0.2659,-1.4965 0.276,-3.6054 -2.3928,-5.277 -5.8211,-5.5394 -3.4284,-0.2625 -6.3203,0.9834 -6.5963,4.5888 -0.0377,0.4925 -0.0243,1.0034 0.035,1.5195 0.8218,-2.5702 3.3817,-3.4683 6.3418,-3.2417 2.9602,0.2266 5.3537,1.5039 5.7747,4.1693z"/>
   <path id="_590274184" class="fil3" d="M75.2274 180.508c0,0 1.4395,11.1349 1.6083,15.1014 0.1688,3.9666 -1.8982,10.5639 -1.7069,12.9212 0.1913,2.3573 1.0465,5.3496 -1.6026,5.7177 -2.6491,0.368 -5.9765,0.8677 -7.781,0.3253 -1.8045,-0.5425 -2.117,-2.5072 -1.0998,-4.1206 1.0172,-1.6134 0.7265,-13.6836 0.3194,-15.8703 -0.4071,-2.1867 -2.2781,-12.9804 -2.2781,-12.9804l12.5407 -1.0943z"/>
   <g style="clip-path:url(#id29)">
    <g>
     <path id="_4846207361" class="fil5 str4" d="M66.5678 213.437c0,0 -0.4986,-0.4987 -1.3748,-0.2527m8.399 -0.9744c0,0 0.8798,2.0972 -1.1708,2.2203m-5.1001 -1.9773c0,0 0.8797,2.0969 -1.1708,2.2202m3.3119 -2.0778c0,0 0.8799,2.0972 -1.1709,2.2205m3.2244 -2.358c0,0 0.8797,2.0971 -1.1712,2.2201m4.2485 -1.7347c0,0 -0.1753,-0.1755 -0.4835,-0.0888m-1.0553 0.5903c0,0 -0.3164,-0.3167 -0.8724,-0.1607m-1.1575 0.3671c0,0 -0.3164,-0.3167 -0.8724,-0.1606m-1.1485 0.088c0,0 -0.3162,-0.3168 -0.8724,-0.1604"/>
    </g>
   </g>
   <path class="fil5 str12" d="M75.2274 180.508c0,0 1.4395,11.1349 1.6083,15.1014 0.1688,3.9666 -1.8982,10.5639 -1.7069,12.9212 0.1913,2.3573 1.0465,5.3496 -1.6026,5.7177 -2.6491,0.368 -5.9765,0.8677 -7.781,0.3253 -1.8045,-0.5425 -2.117,-2.5072 -1.0998,-4.1206 1.0172,-1.6134 0.7265,-13.6836 0.3194,-15.8703 -0.4071,-2.1867 -2.2781,-12.9804 -2.2781,-12.9804l12.5407 -1.0943z"/>
   <path id="_590274112" class="fil21 str14" d="M63.9028 213.901c-0.1394,-0.5005 -0.2328,-1.003 -0.2727,-1.4953 -0.2925,-3.6041 2.3686,-5.2878 5.7957,-5.566 3.4271,-0.2781 6.3248,0.9545 6.6173,4.5586 0.0399,0.4923 0.0288,1.0033 -0.0281,1.5197 -0.8336,-2.5664 -3.3975,-3.4529 -6.3566,-3.2127 -2.9591,0.2401 -5.3468,1.5284 -5.7556,4.1957z"/>
   <g>
    <path id="_590274040" class="fil4 str2" d="M39.2877 199.092c1.025,1.6121 10.9915,4.875 21.2486,4.875 10.2572,0 20.2237,-3.2629 21.2487,-4.875 0.2104,-0.3309 -4.0844,-46.9632 -8.2453,-49.3879 -6.4833,-3.7781 -19.5235,-3.7781 -26.0067,0 -4.1606,2.4245 -8.4559,49.0567 -8.2453,49.3879z"/>
    <g>
     <g>
      <circle id="_590273968" class="fil11" cx="52.7955" cy="151.223" r="0.335961"/>
      <circle id="_590273896" class="fil21" transform="matrix(0.111534 -0.111534 0.223068 0.223068 53.382 151.79)" r="1.5224"/>
      <circle id="_590273824" class="fil11" cx="53.9363" cy="152.388" r="0.335961"/>
      <circle id="_590273752" class="fil21" transform="matrix(0.111534 -0.111534 0.223068 0.223068 54.5227 152.956)" r="1.5224"/>
      <circle id="_590273680" class="fil11" transform="matrix(0.213145 -0.0571695 0.0571695 0.213145 55.175 153.418)" r="1.5224"/>
      <circle id="_590273608" class="fil21" transform="matrix(0.0788319 -0.13662 0.273241 0.157664 55.8884 153.814)" r="1.5224"/>
      <circle id="_590273536" class="fil11" transform="matrix(0.194964 -0.103383 0.103383 0.194964 56.5995 154.215)" r="1.5224"/>
      <circle id="_590273464" class="fil21" transform="matrix(0.0462861 -0.150788 0.301577 0.0925723 57.3834 154.442)" r="1.5224"/>
      <circle id="_590273392" class="fil11" transform="matrix(0.194964 -0.103383 0.103383 0.194964 58.143 154.733)" r="1.5224"/>
      <circle id="_590273320" class="fil21" transform="matrix(0.0462861 -0.150788 0.301577 0.0925723 58.9269 154.96)" r="1.5224"/>
      <circle id="_590273248" class="fil11" transform="matrix(0.168388 -0.142634 0.142634 0.168388 59.7219 155.1)" r="1.5224"/>
      <circle id="_590273176" class="fil21" transform="matrix(0.0130162 -0.157195 0.314389 0.0260323 60.5362 155.154)" r="1.5224"/>
      <circle id="_590273104" class="fil11" transform="matrix(0.21365 0.0552499 -0.0552499 0.21365 51.9139 149.852)" r="1.5224"/>
      <circle id="_590273032" class="fil21" transform="matrix(0.135906 -0.0800577 0.160115 0.271811 52.3396 150.548)" r="1.5224"/>
      <circle id="_590272960" class="fil11" transform="matrix(0.158468 0.15358 -0.15358 0.158468 51.796 148.231)" r="1.5224"/>
      <circle id="_590272888" class="fil21" transform="matrix(0.157713 -0.00247052 0.00494104 0.315427 51.8222 149.047)" r="1.5224"/>
     </g>
     <g>
      <circle id="_590272792" class="fil11" cx="68.2772" cy="151.223" r="0.335961"/>
      <circle id="_590272720" class="fil21" transform="matrix(-0.111534 -0.111534 -0.223068 0.223068 67.6908 151.79)" r="1.5224"/>
      <circle id="_590272648" class="fil11" cx="67.1364" cy="152.388" r="0.335961"/>
      <circle id="_590272576" class="fil21" transform="matrix(-0.111534 -0.111534 -0.223068 0.223068 66.55 152.956)" r="1.5224"/>
      <circle id="_590272504" class="fil11" transform="matrix(-0.213145 -0.0571695 -0.0571695 0.213145 65.8977 153.418)" r="1.5224"/>
      <circle id="_590272432" class="fil21" transform="matrix(-0.0788319 -0.13662 -0.273241 0.157664 65.1843 153.814)" r="1.5224"/>
      <circle id="_590272360" class="fil11" transform="matrix(-0.194964 -0.103383 -0.103383 0.194964 64.4733 154.215)" r="1.5224"/>
      <circle id="_590272288" class="fil21" transform="matrix(-0.0462861 -0.150788 -0.301577 0.0925723 63.6893 154.442)" r="1.5224"/>
      <circle id="_590272216" class="fil11" transform="matrix(-0.194964 -0.103383 -0.103383 0.194964 62.9298 154.733)" r="1.5224"/>
      <circle id="_590272144" class="fil21" transform="matrix(-0.0462861 -0.150788 -0.301577 0.0925723 62.1458 154.96)" r="1.5224"/>
      <circle id="_590272072" class="fil11" transform="matrix(-0.168388 -0.142634 -0.142634 0.168388 61.3508 155.101)" r="1.5224"/>
      <circle id="_590272000" class="fil11" transform="matrix(-0.21365 0.0552499 0.0552499 0.21365 69.1588 149.852)" r="1.5224"/>
      <circle id="_590271928" class="fil21" transform="matrix(-0.135906 -0.0800577 -0.160115 0.271811 68.7331 150.549)" r="1.5224"/>
      <circle id="_590271856" class="fil11" transform="matrix(-0.158468 0.15358 0.15358 0.158468 69.2767 148.231)" r="1.5224"/>
      <circle id="_590271784" class="fil21" transform="matrix(-0.157713 -0.00247052 -0.00494104 0.315427 69.2505 149.047)" r="1.5224"/>
     </g>
    </g>
   </g>
   <g>
    <path id="_590271640" class="fil21" d="M52.6129 172.472c0,0 -2.5861,6.7352 -3.3716,13.8703 -0.7852,7.135 -0.064,12.8541 -0.064,12.8541 0,0 1.4953,-9.2164 3.4356,-26.7244z"/>
    <path id="_590271568" class="fil21" d="M58.092 174.672c0,0 -1.9744,7.8458 -2.1516,15.2154 -0.1769,7.369 1.0047,12.625 1.0047,12.625 0,0 0.6997,-9.7508 1.1469,-27.8404z"/>
    <path id="_590271496" class="fil21" d="M62.9808 174.672c0,0 1.9743,7.8461 2.1514,15.2154 0.1772,7.369 -1.0046,12.625 -1.0046,12.625 0,0 -0.6997,-9.7512 -1.1468,-27.8404z"/>
    <path id="_590271424" class="fil21" d="M68.4599 172.472c0,0 2.586,6.7352 3.3714,13.8702 0.7855,7.1348 0.0641,12.8542 0.0641,12.8542 0,0 -1.4953,-9.2166 -3.4355,-26.7244z"/>
    <path id="_590271352" class="fil21" d="M72.8977 170.419c0,0 2.8348,6.1265 3.8923,13.0544 1.0575,6.9281 0.5603,12.784 0.5603,12.784 0,0 -1.8446,-8.8412 -4.4526,-25.8384z"/>
    <path id="_590271280" class="fil21" d="M48.1751 170.419c0,0 -2.8348,6.1265 -3.8924,13.0544 -1.0575,6.9281 -0.5602,12.784 -0.5602,12.784 0,0 1.8446,-8.8412 4.4526,-25.8384z"/>
   </g>
  </g>
  <g id="_590270584">
   <path id="_590271160" class="fil0 str0" d="M79.3486 136.449c0,0 6.9866,3.8292 7.1882,8.0614 0.1967,4.1333 0.5828,13.2695 6.584,14.0238 1.8239,0.229 -4.8986,2.2102 -7.323,-0.6551 -3.6947,-4.3664 -2.3589,-7.378 -8.5318,-8.8677 -6.1727,-1.4896 -6.9193,-2.8215 -6.9193,-2.8215l9.0019 -9.7409z"/>
   <g>
    <path id="_590271088" class="fil0 str0" d="M41.724 136.449c0,0 -6.9866,3.8292 -7.1881,8.0614 -0.1968,4.1333 -0.5829,13.2695 -6.5841,14.0238 -1.8238,0.229 4.8987,2.2102 7.323,-0.6551 3.6947,-4.3664 2.359,-7.378 8.5318,-8.8677 6.1728,-1.4896 6.9194,-2.8215 6.9194,-2.8215l-9.002 -9.7409z"/>
    <path id="_590271016" class="fil15 str0" d="M34.0614 149.901c-0.1713,1.0846 -0.409,2.1844 -0.7453,3.2207 1.2188,-0.0599 2.794,0.1151 4.3648,1.0002 0.6543,-1.2944 1.1665,-2.3952 2.1783,-3.2926 -1.2009,-0.9536 -3.0799,-1.496 -5.7978,-0.9283z"/>
    <path id="_590270944" class="fil2" d="M41.4394 140.322c0,0 -4.2818,3.3841 -4.2565,7.7139 0,0 1.849,-3.8798 4.2565,-7.7139z"/>
    <path id="_590270872" class="fil15 str0" d="M87.0113 149.901c0.1712,1.0846 0.409,2.1844 0.7452,3.2207 -1.2187,-0.0599 -2.7939,0.1151 -4.3647,1.0002 -0.6543,-1.2944 -1.1666,-2.3952 -2.1783,-3.2926 1.2008,-0.9536 3.0798,-1.496 5.7978,-0.9283z"/>
    <g>
     <path id="_590270800" class="fil2" d="M79.6333 140.322c0,0 4.2818,3.3841 4.2564,7.7139 0,0 -1.849,-3.8798 -4.2564,-7.7139z"/>
     <path id="_590270728" class="fil2" d="M75.5519 139.194c0,0 4.2818,3.3841 4.2565,7.7139 0,0 -1.849,-3.8798 -4.2565,-7.7139z"/>
    </g>
   </g>
   <path id="_590270608" class="fil2" d="M45.5207 139.194c0,0 -4.2818,3.3841 -4.2564,7.7139 0,0 1.8489,-3.8798 4.2564,-7.7139z"/>
  </g>
  <path class="fil3 str1" d="M54.0244 143.16l13.0238 0 0 5.6497c0,1.639 -2.9159,2.9683 -6.5118,2.9683 -3.5957,0 -6.512,-1.3293 -6.512,-2.9683l0 -5.6497z"/>
  <path class="fil11 str15" d="M242.797 91.738c12.0503,0 21.8227,6.3272 21.8227,14.1292 0,7.8021 -9.7724,14.1293 -21.8227,14.1293 -5.935,0 -11.3167,-1.5354 -15.2508,-4.0254l-8.0449 4.01 4.0251 -7.4806c-1.628,-1.9781 -2.552,-4.2358 -2.552,-6.6333 0,-7.802 9.7724,-14.1292 21.8226,-14.1292z"/>
  <path class="fil22" d="M231.608 107.829c0,0.1609 -0.1482,0.29 -0.4445,0.3874 -0.254,0.0847 -0.5355,0.127 -0.8445,0.127 -0.1567,0 -0.2689,-0.0783 -0.3366,-0.235 -0.0508,-0.1185 -0.0762,-0.2783 -0.0762,-0.4773 -0.0042,-0.182 -0.0085,-0.3344 -0.0127,-0.4582 -0.0296,-0.8774 -0.0444,-1.5177 -0.0444,-1.9198 0,-0.4964 0.0127,-0.8964 0.0381,-1.2023l1.1239 -0.1397c0.0423,0 0.072,0 0.0889,0 0.1101,0 0.1969,0.0201 0.2604,0.0603 0.0635,0.0402 0.0952,0.1027 0.0952,0.1873 0,0.072 -0.0423,0.1376 -0.127,0.1969 -0.0847,0.0593 -0.1799,0.0995 -0.2857,0.1206l-0.5842 0.108 0 1.2509 0.5207 -0.0254c0.1651,0 0.2815,0.0297 0.3492,0.0889 0.0677,0.0593 0.1016,0.1397 0.1016,0.2413 0,0.0847 -0.0349,0.1535 -0.1048,0.2064 -0.0698,0.0529 -0.1534,0.0794 -0.2508,0.0794l-0.5778 0.0381 0.0381 1.1747c0.0846,0 0.1957,-0.0095 0.3333,-0.0285 0.1376,-0.0191 0.2657,-0.0371 0.3842,-0.054 0.1058,0 0.1916,0.0201 0.2572,0.0603 0.0656,0.0402 0.0984,0.1111 0.0984,0.2127zm1.886 0.2286c0.0127,0.1101 -0.1313,0.2234 -0.4318,0.3398 -0.3006,0.1164 -0.5864,0.1746 -0.8562,0.1746 -0.1884,0 -0.3154,-0.1291 -0.3832,-0.3874 -0.0497,-0.1989 -0.0751,-0.5588 -0.0751,-1.0795 0,-0.1693 0,-0.3429 0,-0.5207 0,-0.1778 0,-0.3619 0,-0.5524 0,-1.1726 0.1228,-1.759 0.3683,-1.759 0.0931,0 0.1598,0.0826 0.2,0.2477 0.0402,0.1651 0.0604,0.3958 0.0604,0.6921 0,0.1228 -0.0053,0.3715 -0.0159,0.7462 -0.0106,0.3746 -0.0159,0.6233 -0.0159,0.7461 0,0.2752 0.0053,0.4974 0.0159,0.6667 0.0106,0.1694 0.0307,0.3345 0.0603,0.4953 0.0847,0 0.1958,-0.0095 0.3334,-0.0285 0.1376,-0.0191 0.2656,-0.0371 0.3842,-0.054 0.1016,0 0.182,0.019 0.2413,0.0571 0.0592,0.0381 0.0973,0.1101 0.1143,0.2159zm1.9304 0c0.0127,0.1101 -0.1313,0.2234 -0.4318,0.3398 -0.3006,0.1164 -0.5864,0.1746 -0.8562,0.1746 -0.1884,0 -0.3154,-0.1291 -0.3832,-0.3874 -0.0497,-0.1989 -0.0751,-0.5588 -0.0751,-1.0795 0,-0.1693 0,-0.3429 0,-0.5207 0,-0.1778 0,-0.3619 0,-0.5524 0,-1.1726 0.1228,-1.759 0.3683,-1.759 0.0931,0 0.1598,0.0826 0.2,0.2477 0.0402,0.1651 0.0604,0.3958 0.0604,0.6921 0,0.1228 -0.0053,0.3715 -0.0159,0.7462 -0.0106,0.3746 -0.0159,0.6233 -0.0159,0.7461 0,0.2752 0.0053,0.4974 0.0159,0.6667 0.0106,0.1694 0.0307,0.3345 0.0603,0.4953 0.0847,0 0.1958,-0.0095 0.3334,-0.0285 0.1376,-0.0191 0.2656,-0.0371 0.3842,-0.054 0.1016,0 0.182,0.019 0.2413,0.0571 0.0592,0.0381 0.0973,0.1101 0.1143,0.2159zm2.5527 -0.0635c0,0.1651 -0.0159,0.2921 -0.0477,0.381 -0.0317,0.0889 -0.0899,0.1334 -0.1746,0.1334 -0.1185,0 -0.2265,-0.1799 -0.3238,-0.5398 -0.0551,-0.2328 -0.108,-0.4677 -0.1588,-0.7048l-1.0795 0c-0.0593,0.2286 -0.1185,0.4572 -0.1778,0.6858 -0.0804,0.2752 -0.1968,0.4127 -0.3492,0.4127 -0.0889,0 -0.1419,-0.0127 -0.1588,-0.0381 -0.0339,-0.0508 -0.0508,-0.1375 -0.0508,-0.2603 0,-0.1016 0.0074,-0.217 0.0222,-0.3461 0.0148,-0.1291 0.0519,-0.3058 0.1112,-0.5302 0.0592,-0.2244 0.1185,-0.4456 0.1778,-0.6636 0.0592,-0.218 0.1735,-0.6276 0.3429,-1.2287 0.127,-0.4487 0.201,-0.6858 0.2222,-0.7112 0.1185,-0.4149 0.2942,-0.6223 0.5271,-0.6223 0.1143,0 0.2307,0.091 0.3492,0.273 0.1185,0.1821 0.2032,0.4128 0.254,0.6922 0.0169,0.0296 0.0582,0.2191 0.1238,0.5683 0.0656,0.3493 0.126,0.6763 0.181,0.9811 0.0296,0.1736 0.0593,0.3429 0.0889,0.508 0.0296,0.1651 0.0572,0.3556 0.0826,0.5715 0.0254,0.2159 0.0381,0.3619 0.0381,0.4381zm-0.7811 -1.2763l-0.3302 -2.0511 -0.5651 2.0511 0.8953 0zm6.3437 1.1493c0,0.0889 -0.0593,0.162 -0.1778,0.2191 -0.1186,0.0572 -0.2794,0.0857 -0.4826,0.0857 -0.5292,0 -0.9843,-0.1566 -1.3653,-0.4699 -0.4318,-0.3556 -0.6477,-0.8382 -0.6477,-1.4478 0,-0.5037 0.2286,-1.016 0.6858,-1.5367 0.436,-0.4953 0.834,-0.7429 1.1938,-0.7429 0.0889,0 0.1545,0.0212 0.1969,0.0635 0.0423,0.0423 0.0635,0.0889 0.0635,0.1397 -0.4107,0.3133 -0.7705,0.6392 -1.0795,0.9779 -0.3387,0.3725 -0.508,0.7853 -0.508,1.2382 0,0.381 0.182,0.6668 0.5461,0.8573 0.1693,0.0889 0.5101,0.1926 1.0223,0.3111 0.3683,0.0847 0.5525,0.1863 0.5525,0.3048zm2.3749 0.127c0,0.1651 -0.0159,0.2921 -0.0477,0.381 -0.0317,0.0889 -0.0899,0.1334 -0.1746,0.1334 -0.1185,0 -0.2265,-0.1799 -0.3238,-0.5398 -0.0551,-0.2328 -0.108,-0.4677 -0.1588,-0.7048l-1.0795 0c-0.0593,0.2286 -0.1185,0.4572 -0.1778,0.6858 -0.0804,0.2752 -0.1968,0.4127 -0.3492,0.4127 -0.0889,0 -0.1419,-0.0127 -0.1588,-0.0381 -0.0339,-0.0508 -0.0508,-0.1375 -0.0508,-0.2603 0,-0.1016 0.0074,-0.217 0.0222,-0.3461 0.0148,-0.1291 0.0519,-0.3058 0.1112,-0.5302 0.0592,-0.2244 0.1185,-0.4456 0.1778,-0.6636 0.0592,-0.218 0.1735,-0.6276 0.3429,-1.2287 0.127,-0.4487 0.201,-0.6858 0.2222,-0.7112 0.1185,-0.4149 0.2942,-0.6223 0.5271,-0.6223 0.1143,0 0.2307,0.091 0.3492,0.273 0.1185,0.1821 0.2032,0.4128 0.254,0.6922 0.0169,0.0296 0.0582,0.2191 0.1238,0.5683 0.0656,0.3493 0.126,0.6763 0.181,0.9811 0.0296,0.1736 0.0593,0.3429 0.0889,0.508 0.0296,0.1651 0.0572,0.3556 0.0826,0.5715 0.0254,0.2159 0.0381,0.3619 0.0381,0.4381zm-0.7811 -1.2763l-0.3302 -2.0511 -0.5651 2.0511 0.8953 0zm3.8735 -1.4542l0 1.7018 0 0.2731c0,0.5715 -0.0265,0.9588 -0.0794,1.162 -0.0529,0.2033 -0.1301,0.3049 -0.2317,0.3049 -0.2075,0 -0.4107,-0.18 -0.6096,-0.5398 -0.1016,-0.1863 -0.2742,-0.5937 -0.5176,-1.2224 -0.2434,-0.6286 -0.4498,-1.089 -0.6191,-1.3811 0,0.1355 0.0042,0.4138 0.0127,0.835 0.0085,0.4212 0.0127,0.6678 0.0127,0.7398 0,0.4106 -0.0169,0.726 -0.0508,0.9461 -0.0339,0.2202 -0.0995,0.3302 -0.1968,0.3302 -0.1397,0 -0.2403,-0.1174 -0.3017,-0.3524 -0.0614,-0.2349 -0.092,-0.5577 -0.092,-0.9684l0 -1.7907c0,-0.3937 0.0201,-0.6953 0.0603,-0.9048 0.0402,-0.2096 0.1196,-0.3144 0.2381,-0.3144 0.1439,0 0.3408,0.2392 0.5906,0.7176 0.1651,0.3175 0.3862,0.8075 0.6635,1.47 0.2773,0.6625 0.4562,1.0763 0.5366,1.2414l-0.0444 -2.1145c0,-0.4995 0.0232,-0.8869 0.0698,-1.1621 0.0466,-0.2751 0.1291,-0.4127 0.2477,-0.4127 0.1164,0 0.1968,0.1249 0.2423,0.3746 0.0455,0.2498 0.0688,0.6054 0.0688,1.0668zm3.029 -1.1112c0,0.2498 -0.1746,0.3948 -0.5239,0.435 -0.3492,0.0402 -0.5683,0.0688 -0.6572,0.0857l0.0381 2.9972c0,0.2244 -0.0148,0.3926 -0.0444,0.5048 -0.0297,0.1122 -0.0932,0.1683 -0.1905,0.1683 -0.1143,0 -0.2043,-0.0826 -0.2699,-0.2477 -0.0656,-0.1651 -0.0984,-0.381 -0.0984,-0.6477 -0.0043,-0.1735 -0.0085,-0.437 -0.0127,-0.7905 -0.0043,-0.3535 -0.0096,-0.7345 -0.0159,-1.143 -0.0064,-0.4085 -0.0095,-0.6657 -0.0095,-0.7716 -0.072,-0.0169 -0.1609,-0.0254 -0.2667,-0.0254 -0.1101,0 -0.2181,0.0075 -0.3239,0.0223 -0.1058,0.0148 -0.199,0.0264 -0.2794,0.0349 -0.0974,0 -0.1715,-0.0148 -0.2223,-0.0445 -0.0719,-0.0423 -0.1079,-0.1164 -0.1079,-0.2222 0,-0.1609 0.1206,-0.2688 0.362,-0.3239 0.1651,-0.0381 0.4402,-0.0571 0.8255,-0.0571l0.3556 0c0.0592,-0.0085 0.273,-0.0423 0.6413,-0.1016 0.2625,-0.0423 0.4212,-0.0635 0.4763,-0.0635 0.0846,0 0.1598,0.0148 0.2254,0.0444 0.0656,0.0297 0.0984,0.0784 0.0984,0.1461zm2.4702 2.4193c0,0.5715 -0.1079,1.0436 -0.3238,1.4161 -0.2329,0.4022 -0.5483,0.6033 -0.9462,0.6033 -0.453,0 -0.8107,-0.2181 -1.0731,-0.6541 -0.2625,-0.436 -0.3937,-0.9843 -0.3937,-1.6447 0,-0.5969 0.1068,-1.0964 0.3206,-1.4986 0.2138,-0.4021 0.5027,-0.6032 0.8668,-0.6032 0.4699,0 0.8488,0.2349 1.1367,0.7048 0.2751,0.4488 0.4127,1.0076 0.4127,1.6764zm-0.5334 -0.0063c0,-0.5207 -0.0804,-0.9504 -0.2413,-1.2891 -0.1736,-0.364 -0.4106,-0.5461 -0.7112,-0.5461 -0.199,0 -0.363,0.1524 -0.4921,0.4572 -0.1291,0.3048 -0.1937,0.6837 -0.1937,1.1367 0,0.5122 0.0783,0.9271 0.235,1.2446 0.1778,0.3598 0.4233,0.5397 0.7366,0.5397 0.1905,0 0.3492,-0.1471 0.4762,-0.4413 0.127,-0.2942 0.1905,-0.6614 0.1905,-1.1017zm-0.1968 -3.2068c0,0.0889 -0.0995,0.1948 -0.2985,0.3175 -0.0635,0.0381 -0.163,0.0911 -0.2984,0.1588l-0.5144 0c0.1651,-0.1778 0.29,-0.3112 0.3747,-0.4001 0.2667,-0.2709 0.4318,-0.4064 0.4953,-0.4064 0.1058,0 0.1756,0.0297 0.2095,0.0889 0.0212,0.0381 0.0318,0.1186 0.0318,0.2413z"/>
  <path class="fil11 str15" d="M118.667 101.124c12.0503,0 21.8227,6.3272 21.8227,14.1292 0,7.8021 -9.7724,14.1293 -21.8227,14.1293 -5.935,0 -11.3167,-1.5354 -15.2508,-4.0254l-8.0449 4.01 4.0251 -7.4806c-1.628,-1.9781 -2.552,-4.2358 -2.552,-6.6333 0,-7.802 9.7724,-14.1292 21.8226,-14.1292z"/>
  <path class="fil22" d="M107.726 116.819c0,0.1609 -0.1482,0.29 -0.4445,0.3874 -0.254,0.0847 -0.5355,0.127 -0.8445,0.127 -0.1567,0 -0.2689,-0.0783 -0.3366,-0.235 -0.0508,-0.1185 -0.0762,-0.2783 -0.0762,-0.4773 -0.0042,-0.182 -0.0085,-0.3344 -0.0127,-0.4582 -0.0296,-0.8774 -0.0444,-1.5177 -0.0444,-1.9198 0,-0.4964 0.0127,-0.8964 0.0381,-1.2023l1.1239 -0.1397c0.0423,0 0.072,0 0.0889,0 0.1101,0 0.1969,0.0201 0.2604,0.0603 0.0635,0.0402 0.0952,0.1027 0.0952,0.1873 0,0.072 -0.0423,0.1376 -0.127,0.1969 -0.0847,0.0593 -0.1799,0.0995 -0.2857,0.1206l-0.5842 0.108 0 1.2509 0.5207 -0.0254c0.1651,0 0.2815,0.0297 0.3492,0.0889 0.0677,0.0593 0.1016,0.1397 0.1016,0.2413 0,0.0847 -0.0349,0.1535 -0.1048,0.2064 -0.0698,0.0529 -0.1534,0.0794 -0.2508,0.0794l-0.5778 0.0381 0.0381 1.1747c0.0846,0 0.1957,-0.0095 0.3333,-0.0285 0.1376,-0.0191 0.2657,-0.0371 0.3842,-0.054 0.1058,0 0.1916,0.0201 0.2572,0.0603 0.0656,0.0402 0.0984,0.1111 0.0984,0.2127zm1.886 0.2286c0.0127,0.1101 -0.1313,0.2234 -0.4318,0.3398 -0.3006,0.1164 -0.5864,0.1746 -0.8562,0.1746 -0.1884,0 -0.3154,-0.1291 -0.3832,-0.3874 -0.0497,-0.1989 -0.0751,-0.5588 -0.0751,-1.0795 0,-0.1693 0,-0.3429 0,-0.5207 0,-0.1778 0,-0.3619 0,-0.5524 0,-1.1726 0.1228,-1.759 0.3683,-1.759 0.0931,0 0.1598,0.0826 0.2,0.2477 0.0402,0.1651 0.0604,0.3958 0.0604,0.6921 0,0.1228 -0.0053,0.3715 -0.0159,0.7462 -0.0106,0.3746 -0.0159,0.6233 -0.0159,0.7461 0,0.2752 0.0053,0.4974 0.0159,0.6667 0.0106,0.1694 0.0307,0.3345 0.0603,0.4953 0.0847,0 0.1958,-0.0095 0.3334,-0.0285 0.1376,-0.0191 0.2656,-0.0371 0.3842,-0.054 0.1016,0 0.182,0.019 0.2413,0.0571 0.0592,0.0381 0.0973,0.1101 0.1143,0.2159zm1.9304 0c0.0127,0.1101 -0.1313,0.2234 -0.4318,0.3398 -0.3006,0.1164 -0.5864,0.1746 -0.8562,0.1746 -0.1884,0 -0.3154,-0.1291 -0.3832,-0.3874 -0.0497,-0.1989 -0.0751,-0.5588 -0.0751,-1.0795 0,-0.1693 0,-0.3429 0,-0.5207 0,-0.1778 0,-0.3619 0,-0.5524 0,-1.1726 0.1228,-1.759 0.3683,-1.759 0.0931,0 0.1598,0.0826 0.2,0.2477 0.0402,0.1651 0.0604,0.3958 0.0604,0.6921 0,0.1228 -0.0053,0.3715 -0.0159,0.7462 -0.0106,0.3746 -0.0159,0.6233 -0.0159,0.7461 0,0.2752 0.0053,0.4974 0.0159,0.6667 0.0106,0.1694 0.0307,0.3345 0.0603,0.4953 0.0847,0 0.1958,-0.0095 0.3334,-0.0285 0.1376,-0.0191 0.2656,-0.0371 0.3842,-0.054 0.1016,0 0.182,0.019 0.2413,0.0571 0.0592,0.0381 0.0973,0.1101 0.1143,0.2159zm2.5527 -0.0635c0,0.1651 -0.0159,0.2921 -0.0477,0.381 -0.0317,0.0889 -0.0899,0.1334 -0.1746,0.1334 -0.1185,0 -0.2265,-0.1799 -0.3238,-0.5398 -0.0551,-0.2328 -0.108,-0.4677 -0.1588,-0.7048l-1.0795 0c-0.0593,0.2286 -0.1185,0.4572 -0.1778,0.6858 -0.0804,0.2752 -0.1968,0.4127 -0.3492,0.4127 -0.0889,0 -0.1419,-0.0127 -0.1588,-0.0381 -0.0339,-0.0508 -0.0508,-0.1375 -0.0508,-0.2603 0,-0.1016 0.0074,-0.217 0.0222,-0.3461 0.0148,-0.1291 0.0519,-0.3058 0.1112,-0.5302 0.0592,-0.2244 0.1185,-0.4456 0.1778,-0.6636 0.0592,-0.218 0.1735,-0.6276 0.3429,-1.2287 0.127,-0.4487 0.201,-0.6858 0.2222,-0.7112 0.1185,-0.4149 0.2942,-0.6223 0.5271,-0.6223 0.1143,0 0.2307,0.091 0.3492,0.273 0.1185,0.1821 0.2032,0.4128 0.254,0.6922 0.0169,0.0296 0.0582,0.2191 0.1238,0.5683 0.0656,0.3493 0.126,0.6763 0.181,0.9811 0.0296,0.1736 0.0593,0.3429 0.0889,0.508 0.0296,0.1651 0.0572,0.3556 0.0826,0.5715 0.0254,0.2159 0.0381,0.3619 0.0381,0.4381zm-0.7811 -1.2763l-0.3302 -2.0511 -0.5651 2.0511 0.8953 0zm6.3437 1.1493c0,0.0889 -0.0593,0.162 -0.1778,0.2191 -0.1186,0.0572 -0.2794,0.0857 -0.4826,0.0857 -0.5292,0 -0.9843,-0.1566 -1.3653,-0.4699 -0.4318,-0.3556 -0.6477,-0.8382 -0.6477,-1.4478 0,-0.5037 0.2286,-1.016 0.6858,-1.5367 0.436,-0.4953 0.834,-0.7429 1.1938,-0.7429 0.0889,0 0.1545,0.0212 0.1969,0.0635 0.0423,0.0423 0.0635,0.0889 0.0635,0.1397 -0.4107,0.3133 -0.7705,0.6392 -1.0795,0.9779 -0.3387,0.3725 -0.508,0.7853 -0.508,1.2382 0,0.381 0.182,0.6668 0.5461,0.8573 0.1693,0.0889 0.5101,0.1926 1.0223,0.3111 0.3683,0.0847 0.5525,0.1863 0.5525,0.3048zm2.3749 0.127c0,0.1651 -0.0159,0.2921 -0.0477,0.381 -0.0317,0.0889 -0.0899,0.1334 -0.1746,0.1334 -0.1185,0 -0.2265,-0.1799 -0.3238,-0.5398 -0.0551,-0.2328 -0.108,-0.4677 -0.1588,-0.7048l-1.0795 0c-0.0593,0.2286 -0.1185,0.4572 -0.1778,0.6858 -0.0804,0.2752 -0.1968,0.4127 -0.3492,0.4127 -0.0889,0 -0.1419,-0.0127 -0.1588,-0.0381 -0.0339,-0.0508 -0.0508,-0.1375 -0.0508,-0.2603 0,-0.1016 0.0074,-0.217 0.0222,-0.3461 0.0148,-0.1291 0.0519,-0.3058 0.1112,-0.5302 0.0592,-0.2244 0.1185,-0.4456 0.1778,-0.6636 0.0592,-0.218 0.1735,-0.6276 0.3429,-1.2287 0.127,-0.4487 0.201,-0.6858 0.2222,-0.7112 0.1185,-0.4149 0.2942,-0.6223 0.5271,-0.6223 0.1143,0 0.2307,0.091 0.3492,0.273 0.1185,0.1821 0.2032,0.4128 0.254,0.6922 0.0169,0.0296 0.0582,0.2191 0.1238,0.5683 0.0656,0.3493 0.126,0.6763 0.181,0.9811 0.0296,0.1736 0.0593,0.3429 0.0889,0.508 0.0296,0.1651 0.0572,0.3556 0.0826,0.5715 0.0254,0.2159 0.0381,0.3619 0.0381,0.4381zm-0.7811 -1.2763l-0.3302 -2.0511 -0.5651 2.0511 0.8953 0zm3.8735 -1.4542l0 1.7018 0 0.2731c0,0.5715 -0.0265,0.9588 -0.0794,1.162 -0.0529,0.2033 -0.1301,0.3049 -0.2317,0.3049 -0.2075,0 -0.4107,-0.18 -0.6096,-0.5398 -0.1016,-0.1863 -0.2742,-0.5937 -0.5176,-1.2224 -0.2434,-0.6286 -0.4498,-1.089 -0.6191,-1.3811 0,0.1355 0.0042,0.4138 0.0127,0.835 0.0085,0.4212 0.0127,0.6678 0.0127,0.7398 0,0.4106 -0.0169,0.726 -0.0508,0.9461 -0.0339,0.2202 -0.0995,0.3302 -0.1968,0.3302 -0.1397,0 -0.2403,-0.1174 -0.3017,-0.3524 -0.0614,-0.2349 -0.092,-0.5577 -0.092,-0.9684l0 -1.7907c0,-0.3937 0.0201,-0.6953 0.0603,-0.9048 0.0402,-0.2096 0.1196,-0.3144 0.2381,-0.3144 0.1439,0 0.3408,0.2392 0.5906,0.7176 0.1651,0.3175 0.3862,0.8075 0.6635,1.47 0.2773,0.6625 0.4562,1.0763 0.5366,1.2414l-0.0444 -2.1145c0,-0.4995 0.0232,-0.8869 0.0698,-1.1621 0.0466,-0.2751 0.1291,-0.4127 0.2477,-0.4127 0.1164,0 0.1968,0.1249 0.2423,0.3746 0.0455,0.2498 0.0688,0.6054 0.0688,1.0668zm3.029 -1.1112c0,0.2498 -0.1746,0.3948 -0.5239,0.435 -0.3492,0.0402 -0.5683,0.0688 -0.6572,0.0857l0.0381 2.9972c0,0.2244 -0.0148,0.3926 -0.0444,0.5048 -0.0297,0.1122 -0.0932,0.1683 -0.1905,0.1683 -0.1143,0 -0.2043,-0.0826 -0.2699,-0.2477 -0.0656,-0.1651 -0.0984,-0.381 -0.0984,-0.6477 -0.0043,-0.1735 -0.0085,-0.437 -0.0127,-0.7905 -0.0043,-0.3535 -0.0096,-0.7345 -0.0159,-1.143 -0.0064,-0.4085 -0.0095,-0.6657 -0.0095,-0.7716 -0.072,-0.0169 -0.1609,-0.0254 -0.2667,-0.0254 -0.1101,0 -0.2181,0.0075 -0.3239,0.0223 -0.1058,0.0148 -0.199,0.0264 -0.2794,0.0349 -0.0974,0 -0.1715,-0.0148 -0.2223,-0.0445 -0.0719,-0.0423 -0.1079,-0.1164 -0.1079,-0.2222 0,-0.1609 0.1206,-0.2688 0.362,-0.3239 0.1651,-0.0381 0.4402,-0.0571 0.8255,-0.0571l0.3556 0c0.0592,-0.0085 0.273,-0.0423 0.6413,-0.1016 0.2625,-0.0423 0.4212,-0.0635 0.4763,-0.0635 0.0846,0 0.1598,0.0148 0.2254,0.0444 0.0656,0.0297 0.0984,0.0784 0.0984,0.1461zm1.9749 3.8417c0,0.1651 -0.0159,0.2921 -0.0477,0.381 -0.0317,0.0889 -0.0899,0.1334 -0.1746,0.1334 -0.1185,0 -0.2265,-0.1799 -0.3238,-0.5398 -0.0551,-0.2328 -0.108,-0.4677 -0.1588,-0.7048l-1.0795 0c-0.0593,0.2286 -0.1185,0.4572 -0.1778,0.6858 -0.0804,0.2752 -0.1968,0.4127 -0.3492,0.4127 -0.0889,0 -0.1419,-0.0127 -0.1588,-0.0381 -0.0339,-0.0508 -0.0508,-0.1375 -0.0508,-0.2603 0,-0.1016 0.0074,-0.217 0.0222,-0.3461 0.0148,-0.1291 0.0519,-0.3058 0.1112,-0.5302 0.0592,-0.2244 0.1185,-0.4456 0.1778,-0.6636 0.0592,-0.218 0.1735,-0.6276 0.3429,-1.2287 0.127,-0.4487 0.201,-0.6858 0.2222,-0.7112 0.1185,-0.4149 0.2942,-0.6223 0.5271,-0.6223 0.1143,0 0.2307,0.091 0.3492,0.273 0.1185,0.1821 0.2032,0.4128 0.254,0.6922 0.0169,0.0296 0.0582,0.2191 0.1238,0.5683 0.0656,0.3493 0.126,0.6763 0.181,0.9811 0.0296,0.1736 0.0593,0.3429 0.0889,0.508 0.0296,0.1651 0.0572,0.3556 0.0826,0.5715 0.0254,0.2159 0.0381,0.3619 0.0381,0.4381zm-0.7811 -1.2763l-0.3302 -2.0511 -0.5651 2.0511 0.8953 0z"/>
  <g id="_590269192">
   <path id="_590270152" class="fil3 str1" d="M33.0417 125.426c0.7706,-0.4449 2.1171,0.4441 3.0069,1.9853 0.8898,1.5412 0.9865,3.1518 0.2159,3.5967 -0.7706,0.4449 -2.1171,-0.4441 -3.0069,-1.9853 -0.8898,-1.5412 -0.9865,-3.1518 -0.2159,-3.5967zm54.989 0c-0.7706,-0.4449 -2.1171,0.4441 -3.0069,1.9853 -0.8898,1.5412 -0.9865,3.1518 -0.2159,3.5967 0.7706,0.4449 2.1171,-0.4441 3.0069,-1.9853 0.8898,-1.5412 0.9865,-3.1518 0.2159,-3.5967z"/>
   <path id="_590270080" class="fil3 str1" d="M60.5363 96.399c27.5756,0 25.331,17.4867 25.331,31.4742 0,13.9875 -11.3435,19.1879 -25.331,19.1879 -13.9875,0 -25.3311,-5.2004 -25.3311,-19.1879 0,-13.9875 -2.2446,-31.4742 25.3311,-31.4742z"/>
   <path id="_590270008" class="fil5 str1" d="M58.4571 130.383c0,0 2.0466,1.2541 4.1584,0"/>
   <path id="_590269936" class="fil0 str0" d="M53.1864 108.684c-0.5102,0.5597 -0.6686,2.7948 -5.7382,2.9452 -5.0695,0.1503 -5.9434,1.0812 -8.0474,6.4185 -2.104,5.3372 -3.4785,15.9207 -3.4785,15.9207 0,0 -1.4946,-6.8381 -3.1204,-11.3326 -1.6258,-4.4945 -1.7214,-16.4798 8.416,-22.5661 8.947,-5.3718 17.4457,-5.3461 19.3184,-5.2658 1.8727,-0.0803 10.3714,-0.106 19.3184,5.2658 10.1374,6.0863 10.0418,18.0716 8.416,22.5661 -1.6258,4.4945 -3.1204,11.3326 -3.1204,11.3326 0,0 -1.3745,-10.5835 -3.4785,-15.9207 -2.104,-5.3373 -17.6778,-6.2682 -22.7473,-6.4185 -5.0695,-0.1504 -5.2279,-2.3855 -5.7381,-2.9452z"/>
   <path id="_590269864" class="fil2" d="M77.5275 102.196c0,0 4.0228,3.1794 3.999,7.2473 0,0 -1.7372,-3.6451 -3.999,-7.2473z"/>
   <path id="_590269792" class="fil2" d="M70.3539 99.8786c0,0 4.0229,3.1794 3.999,7.2474 0,0 -1.7371,-3.6452 -3.999,-7.2474z"/>
   <path id="_590269720" class="fil2" d="M62.951 97.8384c0,0 4.0228,3.1794 3.999,7.2474 0,0 -1.7372,-3.6452 -3.999,-7.2474z"/>
   <path id="_590269648" class="fil2" d="M45.3897 99.8786c0,0 -4.0229,3.1794 -3.999,7.2474 0,0 1.7371,-3.6452 3.999,-7.2474z"/>
   <path id="_590269576" class="fil9" d="M43.7321 131.994c1.687,0 3.0552,1.368 3.0552,3.0552 0,1.6872 -1.3682,3.0552 -3.0552,3.0552 -1.6872,0 -3.0554,-1.368 -3.0554,-3.0552 0,-1.6872 1.3682,-3.0552 3.0554,-3.0552zm33.6084 0c1.6871,0 3.0553,1.3682 3.0553,3.0552 0,1.6873 -1.3682,3.0553 -3.0553,3.0553 -1.6871,0 -3.0553,-1.368 -3.0553,-3.0553 0,-1.687 1.3682,-3.0552 3.0553,-3.0552z"/>
   <path id="_590269504" class="fil11" d="M46.5642 121.97c1.6523,0.4427 2.7683,1.6395 2.4915,2.6723 -0.2767,1.0329 -1.8416,1.5113 -3.4939,1.0686 -1.6523,-0.4427 -2.7683,-1.6395 -2.4915,-2.6723 0.2768,-1.0329 1.8416,-1.5113 3.4939,-1.0686z"/>
   <g style="clip-path:url(#id30)">
    <g>
     <circle id="_591625080" class="fil0" cx="46.0629" cy="123.84" r="1.99056"/>
    </g>
   </g>
   <path class="fil5 str0" d="M46.5642 121.97c1.6523,0.4427 2.7683,1.6395 2.4915,2.6723 -0.2767,1.0329 -1.8416,1.5113 -3.4939,1.0686 -1.6523,-0.4427 -2.7683,-1.6395 -2.4915,-2.6723 0.2768,-1.0329 1.8416,-1.5113 3.4939,-1.0686z"/>
   <path id="_590269432" class="fil0" d="M42.0564 120.565c0,0 4.3353,-0.7039 8.6706,0.3986 0,0 -3.4882,-4.6841 -8.6706,-0.3986z"/>
   <path id="_590269360" class="fil11" d="M74.6236 121.97c-1.6523,0.4427 -2.7682,1.6395 -2.4915,2.6723 0.2768,1.0329 1.8416,1.5113 3.4939,1.0686 1.6523,-0.4427 2.7683,-1.6395 2.4915,-2.6723 -0.2767,-1.0329 -1.8415,-1.5113 -3.4939,-1.0686z"/>
   <g style="clip-path:url(#id31)">
    <g>
     <circle id="_591624552" class="fil0" cx="75.1249" cy="123.84" r="1.99056"/>
    </g>
   </g>
   <path class="fil5 str0" d="M74.6236 121.97c-1.6523,0.4427 -2.7682,1.6395 -2.4915,2.6723 0.2768,1.0329 1.8416,1.5113 3.4939,1.0686 1.6523,-0.4427 2.7683,-1.6395 2.4915,-2.6723 -0.2767,-1.0329 -1.8415,-1.5113 -3.4939,-1.0686z"/>
   <path id="_590269288" class="fil0" d="M79.1315 120.565c0,0 -4.3353,-0.7039 -8.6707,0.3986 0,0 3.4882,-4.6841 8.6707,-0.3986z"/>
   <path id="_590269216" class="fil10 str6" d="M65.3185 138.26c0,2.6406 -2.1416,4.7822 -4.7822,4.7822 -2.6406,0 -4.7822,-2.1416 -4.7822,-4.7822l9.5644 0z"/>
  </g>
  <path class="fil11 str15" d="M370.322 91.738c12.0503,0 21.8227,6.3272 21.8227,14.1292 0,7.8021 -9.7724,14.1293 -21.8227,14.1293 -5.935,0 -11.3167,-1.5354 -15.2508,-4.0254l-8.0449 4.01 4.0251 -7.4806c-1.628,-1.9781 -2.552,-4.2358 -2.552,-6.6333 0,-7.802 9.7724,-14.1292 21.8226,-14.1292z"/>
  <path class="fil22" d="M356.804 107.788c0,0.1609 -0.1482,0.29 -0.4445,0.3874 -0.254,0.0847 -0.5355,0.127 -0.8445,0.127 -0.1567,0 -0.2689,-0.0783 -0.3366,-0.235 -0.0508,-0.1185 -0.0762,-0.2783 -0.0762,-0.4773 -0.0042,-0.182 -0.0085,-0.3344 -0.0127,-0.4582 -0.0296,-0.8774 -0.0444,-1.5177 -0.0444,-1.9198 0,-0.4964 0.0127,-0.8964 0.0381,-1.2023l1.1239 -0.1397c0.0423,0 0.072,0 0.0889,0 0.1101,0 0.1969,0.0201 0.2604,0.0603 0.0635,0.0402 0.0952,0.1027 0.0952,0.1873 0,0.072 -0.0423,0.1376 -0.127,0.1969 -0.0847,0.0593 -0.1799,0.0995 -0.2857,0.1206l-0.5842 0.108 0 1.2509 0.5207 -0.0254c0.1651,0 0.2815,0.0297 0.3492,0.0889 0.0677,0.0593 0.1016,0.1397 0.1016,0.2413 0,0.0847 -0.0349,0.1535 -0.1048,0.2064 -0.0698,0.0529 -0.1534,0.0794 -0.2508,0.0794l-0.5778 0.0381 0.0381 1.1747c0.0846,0 0.1957,-0.0095 0.3333,-0.0285 0.1376,-0.0191 0.2657,-0.0371 0.3842,-0.054 0.1058,0 0.1916,0.0201 0.2572,0.0603 0.0656,0.0402 0.0984,0.1111 0.0984,0.2127zm1.886 0.2286c0.0127,0.1101 -0.1313,0.2234 -0.4318,0.3398 -0.3006,0.1164 -0.5864,0.1746 -0.8562,0.1746 -0.1884,0 -0.3154,-0.1291 -0.3832,-0.3874 -0.0497,-0.1989 -0.0751,-0.5588 -0.0751,-1.0795 0,-0.1693 0,-0.3429 0,-0.5207 0,-0.1778 0,-0.3619 0,-0.5524 0,-1.1726 0.1228,-1.759 0.3683,-1.759 0.0931,0 0.1598,0.0826 0.2,0.2477 0.0402,0.1651 0.0604,0.3958 0.0604,0.6921 0,0.1228 -0.0053,0.3715 -0.0159,0.7462 -0.0106,0.3746 -0.0159,0.6233 -0.0159,0.7461 0,0.2752 0.0053,0.4974 0.0159,0.6667 0.0106,0.1694 0.0307,0.3345 0.0603,0.4953 0.0847,0 0.1958,-0.0095 0.3334,-0.0285 0.1376,-0.0191 0.2656,-0.0371 0.3842,-0.054 0.1016,0 0.182,0.019 0.2413,0.0571 0.0592,0.0381 0.0973,0.1101 0.1143,0.2159zm1.9304 0c0.0127,0.1101 -0.1313,0.2234 -0.4318,0.3398 -0.3006,0.1164 -0.5864,0.1746 -0.8562,0.1746 -0.1884,0 -0.3154,-0.1291 -0.3832,-0.3874 -0.0497,-0.1989 -0.0751,-0.5588 -0.0751,-1.0795 0,-0.1693 0,-0.3429 0,-0.5207 0,-0.1778 0,-0.3619 0,-0.5524 0,-1.1726 0.1228,-1.759 0.3683,-1.759 0.0931,0 0.1598,0.0826 0.2,0.2477 0.0402,0.1651 0.0604,0.3958 0.0604,0.6921 0,0.1228 -0.0053,0.3715 -0.0159,0.7462 -0.0106,0.3746 -0.0159,0.6233 -0.0159,0.7461 0,0.2752 0.0053,0.4974 0.0159,0.6667 0.0106,0.1694 0.0307,0.3345 0.0603,0.4953 0.0847,0 0.1958,-0.0095 0.3334,-0.0285 0.1376,-0.0191 0.2656,-0.0371 0.3842,-0.054 0.1016,0 0.182,0.019 0.2413,0.0571 0.0592,0.0381 0.0973,0.1101 0.1143,0.2159zm2.5527 -0.0635c0,0.1651 -0.0159,0.2921 -0.0477,0.381 -0.0317,0.0889 -0.0899,0.1334 -0.1746,0.1334 -0.1185,0 -0.2265,-0.1799 -0.3238,-0.5398 -0.0551,-0.2328 -0.108,-0.4677 -0.1588,-0.7048l-1.0795 0c-0.0593,0.2286 -0.1185,0.4572 -0.1778,0.6858 -0.0804,0.2752 -0.1968,0.4127 -0.3492,0.4127 -0.0889,0 -0.1419,-0.0127 -0.1588,-0.0381 -0.0339,-0.0508 -0.0508,-0.1375 -0.0508,-0.2603 0,-0.1016 0.0074,-0.217 0.0222,-0.3461 0.0148,-0.1291 0.0519,-0.3058 0.1112,-0.5302 0.0592,-0.2244 0.1185,-0.4456 0.1778,-0.6636 0.0592,-0.218 0.1735,-0.6276 0.3429,-1.2287 0.127,-0.4487 0.201,-0.6858 0.2222,-0.7112 0.1185,-0.4149 0.2942,-0.6223 0.5271,-0.6223 0.1143,0 0.2307,0.091 0.3492,0.273 0.1185,0.1821 0.2032,0.4128 0.254,0.6922 0.0169,0.0296 0.0582,0.2191 0.1238,0.5683 0.0656,0.3493 0.126,0.6763 0.181,0.9811 0.0296,0.1736 0.0593,0.3429 0.0889,0.508 0.0296,0.1651 0.0572,0.3556 0.0826,0.5715 0.0254,0.2159 0.0381,0.3619 0.0381,0.4381zm-0.7811 -1.2763l-0.3302 -2.0511 -0.5651 2.0511 0.8953 0zm6.3437 1.1493c0,0.0889 -0.0593,0.162 -0.1778,0.2191 -0.1186,0.0572 -0.2794,0.0857 -0.4826,0.0857 -0.5292,0 -0.9843,-0.1566 -1.3653,-0.4699 -0.4318,-0.3556 -0.6477,-0.8382 -0.6477,-1.4478 0,-0.5037 0.2286,-1.016 0.6858,-1.5367 0.436,-0.4953 0.834,-0.7429 1.1938,-0.7429 0.0889,0 0.1545,0.0212 0.1969,0.0635 0.0423,0.0423 0.0635,0.0889 0.0635,0.1397 -0.4107,0.3133 -0.7705,0.6392 -1.0795,0.9779 -0.3387,0.3725 -0.508,0.7853 -0.508,1.2382 0,0.381 0.182,0.6668 0.5461,0.8573 0.1693,0.0889 0.5101,0.1926 1.0223,0.3111 0.3683,0.0847 0.5525,0.1863 0.5525,0.3048zm2.3749 0.127c0,0.1651 -0.0159,0.2921 -0.0477,0.381 -0.0317,0.0889 -0.0899,0.1334 -0.1746,0.1334 -0.1185,0 -0.2265,-0.1799 -0.3238,-0.5398 -0.0551,-0.2328 -0.108,-0.4677 -0.1588,-0.7048l-1.0795 0c-0.0593,0.2286 -0.1185,0.4572 -0.1778,0.6858 -0.0804,0.2752 -0.1968,0.4127 -0.3492,0.4127 -0.0889,0 -0.1419,-0.0127 -0.1588,-0.0381 -0.0339,-0.0508 -0.0508,-0.1375 -0.0508,-0.2603 0,-0.1016 0.0074,-0.217 0.0222,-0.3461 0.0148,-0.1291 0.0519,-0.3058 0.1112,-0.5302 0.0592,-0.2244 0.1185,-0.4456 0.1778,-0.6636 0.0592,-0.218 0.1735,-0.6276 0.3429,-1.2287 0.127,-0.4487 0.201,-0.6858 0.2222,-0.7112 0.1185,-0.4149 0.2942,-0.6223 0.5271,-0.6223 0.1143,0 0.2307,0.091 0.3492,0.273 0.1185,0.1821 0.2032,0.4128 0.254,0.6922 0.0169,0.0296 0.0582,0.2191 0.1238,0.5683 0.0656,0.3493 0.126,0.6763 0.181,0.9811 0.0296,0.1736 0.0593,0.3429 0.0889,0.508 0.0296,0.1651 0.0572,0.3556 0.0826,0.5715 0.0254,0.2159 0.0381,0.3619 0.0381,0.4381zm-0.7811 -1.2763l-0.3302 -2.0511 -0.5651 2.0511 0.8953 0zm3.8735 -1.4542l0 1.7018 0 0.2731c0,0.5715 -0.0265,0.9588 -0.0794,1.162 -0.0529,0.2033 -0.1301,0.3049 -0.2317,0.3049 -0.2075,0 -0.4107,-0.18 -0.6096,-0.5398 -0.1016,-0.1863 -0.2742,-0.5937 -0.5176,-1.2224 -0.2434,-0.6286 -0.4498,-1.089 -0.6191,-1.3811 0,0.1355 0.0042,0.4138 0.0127,0.835 0.0085,0.4212 0.0127,0.6678 0.0127,0.7398 0,0.4106 -0.0169,0.726 -0.0508,0.9461 -0.0339,0.2202 -0.0995,0.3302 -0.1968,0.3302 -0.1397,0 -0.2403,-0.1174 -0.3017,-0.3524 -0.0614,-0.2349 -0.092,-0.5577 -0.092,-0.9684l0 -1.7907c0,-0.3937 0.0201,-0.6953 0.0603,-0.9048 0.0402,-0.2096 0.1196,-0.3144 0.2381,-0.3144 0.1439,0 0.3408,0.2392 0.5906,0.7176 0.1651,0.3175 0.3862,0.8075 0.6635,1.47 0.2773,0.6625 0.4562,1.0763 0.5366,1.2414l-0.0444 -2.1145c0,-0.4995 0.0232,-0.8869 0.0698,-1.1621 0.0466,-0.2751 0.1291,-0.4127 0.2477,-0.4127 0.1164,0 0.1968,0.1249 0.2423,0.3746 0.0455,0.2498 0.0688,0.6054 0.0688,1.0668zm3.029 -1.1112c0,0.2498 -0.1746,0.3948 -0.5239,0.435 -0.3492,0.0402 -0.5683,0.0688 -0.6572,0.0857l0.0381 2.9972c0,0.2244 -0.0148,0.3926 -0.0444,0.5048 -0.0297,0.1122 -0.0932,0.1683 -0.1905,0.1683 -0.1143,0 -0.2043,-0.0826 -0.2699,-0.2477 -0.0656,-0.1651 -0.0984,-0.381 -0.0984,-0.6477 -0.0043,-0.1735 -0.0085,-0.437 -0.0127,-0.7905 -0.0043,-0.3535 -0.0096,-0.7345 -0.0159,-1.143 -0.0064,-0.4085 -0.0095,-0.6657 -0.0095,-0.7716 -0.072,-0.0169 -0.1609,-0.0254 -0.2667,-0.0254 -0.1101,0 -0.2181,0.0075 -0.3239,0.0223 -0.1058,0.0148 -0.199,0.0264 -0.2794,0.0349 -0.0974,0 -0.1715,-0.0148 -0.2223,-0.0445 -0.0719,-0.0423 -0.1079,-0.1164 -0.1079,-0.2222 0,-0.1609 0.1206,-0.2688 0.362,-0.3239 0.1651,-0.0381 0.4402,-0.0571 0.8255,-0.0571l0.3556 0c0.0592,-0.0085 0.273,-0.0423 0.6413,-0.1016 0.2625,-0.0423 0.4212,-0.0635 0.4763,-0.0635 0.0846,0 0.1598,0.0148 0.2254,0.0444 0.0656,0.0297 0.0984,0.0784 0.0984,0.1461zm1.9749 3.8417c0,0.1651 -0.0159,0.2921 -0.0477,0.381 -0.0317,0.0889 -0.0899,0.1334 -0.1746,0.1334 -0.1185,0 -0.2265,-0.1799 -0.3238,-0.5398 -0.0551,-0.2328 -0.108,-0.4677 -0.1588,-0.7048l-1.0795 0c-0.0593,0.2286 -0.1185,0.4572 -0.1778,0.6858 -0.0804,0.2752 -0.1968,0.4127 -0.3492,0.4127 -0.0889,0 -0.1419,-0.0127 -0.1588,-0.0381 -0.0339,-0.0508 -0.0508,-0.1375 -0.0508,-0.2603 0,-0.1016 0.0074,-0.217 0.0222,-0.3461 0.0148,-0.1291 0.0519,-0.3058 0.1112,-0.5302 0.0592,-0.2244 0.1185,-0.4456 0.1778,-0.6636 0.0592,-0.218 0.1735,-0.6276 0.3429,-1.2287 0.127,-0.4487 0.201,-0.6858 0.2222,-0.7112 0.1185,-0.4149 0.2942,-0.6223 0.5271,-0.6223 0.1143,0 0.2307,0.091 0.3492,0.273 0.1185,0.1821 0.2032,0.4128 0.254,0.6922 0.0169,0.0296 0.0582,0.2191 0.1238,0.5683 0.0656,0.3493 0.126,0.6763 0.181,0.9811 0.0296,0.1736 0.0593,0.3429 0.0889,0.508 0.0296,0.1651 0.0572,0.3556 0.0826,0.5715 0.0254,0.2159 0.0381,0.3619 0.0381,0.4381zm-0.7811 -1.2763l-0.3302 -2.0511 -0.5651 2.0511 0.8953 0zm4.0767 1.4922c-0.0085,0.0551 -0.0212,0.0953 -0.0381,0.1207 -0.0508,0.0804 -0.1376,0.1206 -0.2603,0.1206 -0.3599,0 -0.7557,-0.1778 -1.1875,-0.5334 -0.4318,-0.3556 -0.6286,-0.6455 -0.5905,-0.8699 0,-0.0466 0.2349,-0.1863 0.7048,-0.4191 0.4699,-0.2328 0.7049,-0.4868 0.7049,-0.762 0,-0.2709 -0.1038,-0.5101 -0.3112,-0.7176 -0.2074,-0.2074 -0.453,-0.3111 -0.7366,-0.3111 -0.1778,0 -0.3492,0.0381 -0.5143,0.1143l0 2.4193c0,0.4742 -0.0223,0.8308 -0.0657,1.07 -0.0444,0.2392 -0.1164,0.3588 -0.2169,0.3588 -0.126,0 -0.2138,-0.1281 -0.2646,-0.3842 -0.0497,-0.2561 -0.0751,-0.6233 -0.0751,-1.1017l0 -1.7971c0,-0.5461 0.0582,-0.89 0.1746,-1.0318 0.1153,-0.1418 0.3958,-0.2128 0.8392,-0.2128 0.5112,0 0.9166,0.1016 1.2161,0.3048 0.346,0.2329 0.5196,0.5821 0.5196,1.0478 0,0.4149 -0.0868,0.7218 -0.2603,0.9207 -0.1567,0.1778 -0.4975,0.3874 -1.0224,0.6287 0.2244,0.2794 0.4741,0.4889 0.7493,0.6286 0.4233,0.2159 0.635,0.3514 0.635,0.4064zm2.7179 -0.2159c0,0.1651 -0.0159,0.2921 -0.0477,0.381 -0.0317,0.0889 -0.0899,0.1334 -0.1746,0.1334 -0.1185,0 -0.2265,-0.1799 -0.3238,-0.5398 -0.0551,-0.2328 -0.108,-0.4677 -0.1588,-0.7048l-1.0795 0c-0.0593,0.2286 -0.1185,0.4572 -0.1778,0.6858 -0.0804,0.2752 -0.1968,0.4127 -0.3492,0.4127 -0.0889,0 -0.1419,-0.0127 -0.1588,-0.0381 -0.0339,-0.0508 -0.0508,-0.1375 -0.0508,-0.2603 0,-0.1016 0.0074,-0.217 0.0222,-0.3461 0.0148,-0.1291 0.0519,-0.3058 0.1112,-0.5302 0.0592,-0.2244 0.1185,-0.4456 0.1778,-0.6636 0.0592,-0.218 0.1735,-0.6276 0.3429,-1.2287 0.127,-0.4487 0.201,-0.6858 0.2222,-0.7112 0.1185,-0.4149 0.2942,-0.6223 0.5271,-0.6223 0.1143,0 0.2307,0.091 0.3492,0.273 0.1185,0.1821 0.2032,0.4128 0.254,0.6922 0.0169,0.0296 0.0582,0.2191 0.1238,0.5683 0.0656,0.3493 0.126,0.6763 0.181,0.9811 0.0296,0.1736 0.0593,0.3429 0.0889,0.508 0.0296,0.1651 0.0572,0.3556 0.0826,0.5715 0.0254,0.2159 0.0381,0.3619 0.0381,0.4381zm-0.7811 -1.2763l-0.3302 -2.0511 -0.5651 2.0511 0.8953 0zm0.5906 -3.3782c0,0.0931 -0.0995,0.2011 -0.2985,0.3238 -0.0635,0.0381 -0.163,0.0889 -0.2984,0.1524l-0.5144 0c0.1651,-0.1778 0.29,-0.3111 0.3747,-0.4 0.2624,-0.2667 0.4275,-0.4001 0.4953,-0.4001 0.11,0 0.1778,0.0233 0.2032,0.0699 0.0254,0.0466 0.0381,0.1312 0.0381,0.254zm1.8478 1.1366l-0.3207 2.032c-0.0381,0.199 -0.0857,0.3451 -0.1407,0.4382 -0.072,0.1185 -0.1641,0.1693 -0.2741,0.1524 -0.0381,-0.0042 -0.0752,-0.0635 -0.109,-0.1778 -0.0339,-0.1143 -0.0445,-0.2096 -0.0318,-0.2858l0.3175 -2.0955c0.0169,-0.1185 0.054,-0.2307 0.1111,-0.3365 0.0572,-0.1058 0.1175,-0.1588 0.181,-0.1588 0.1863,0 0.2794,0.1038 0.2794,0.3112 0,0.0212 -0.0042,0.0614 -0.0127,0.1206zm-0.6223 3.6576c0,0.0847 -0.019,0.1588 -0.0571,0.2223 -0.0593,0.0974 -0.1503,0.146 -0.2731,0.146 -0.0593,0 -0.1058,-0.0127 -0.1397,-0.0381 -0.055,-0.0423 -0.0889,-0.1248 -0.1016,-0.2476 0,-0.0889 0.0296,-0.1757 0.0889,-0.2604 0.0593,-0.0846 0.1355,-0.127 0.2286,-0.127 0.072,0 0.1302,0.0265 0.1746,0.0794 0.0445,0.0529 0.0709,0.1281 0.0794,0.2254z"/>
 </g>
</svg>
