<?xml version="1.0" encoding="UTF-8"?>
<!DOCTYPE svg PUBLIC "-//W3C//DTD SVG 1.1//EN" "http://www.w3.org/Graphics/SVG/1.1/DTD/svg11.dtd">
<!-- Creator: CorelDRAW -->
<svg xmlns="http://www.w3.org/2000/svg" xml:space="preserve" width="420mm" height="297mm" style="shape-rendering:geometricPrecision; text-rendering:geometricPrecision; image-rendering:optimizeQuality; fill-rule:evenodd; clip-rule:evenodd"
viewBox="0 0 420 297"
 xmlns:xlink="http://www.w3.org/1999/xlink">
 <defs>
  <style type="text/css">
   <![CDATA[
    .str4 {stroke:#8F5444;stroke-width:0.5;stroke-linecap:round;stroke-linejoin:round}
    .str0 {stroke:#1F1A17;stroke-width:0.75;stroke-linecap:round;stroke-linejoin:round}
    .str9 {stroke:#383431;stroke-width:0.75;stroke-linecap:round;stroke-linejoin:round}
    .str10 {stroke:#4C4840;stroke-width:0.75;stroke-linecap:round;stroke-linejoin:round}
    .str1 {stroke:#8F5444;stroke-width:0.75;stroke-linecap:round;stroke-linejoin:round}
    .str14 {stroke:#969594;stroke-width:0.75;stroke-linecap:round;stroke-linejoin:round}
    .str7 {stroke:#8F6D5A;stroke-width:0.75}
    .str8 {stroke:#8F6D5A;stroke-width:0.75;stroke-linecap:round;stroke-linejoin:round}
    .str5 {stroke:#1E3D55;stroke-width:0.75;stroke-linecap:round;stroke-linejoin:round}
    .str3 {stroke:#213229;stroke-width:0.75;stroke-linecap:round;stroke-linejoin:round}
    .str11 {stroke:#453C35;stroke-width:0.75;stroke-linecap:round;stroke-linejoin:round}
    .str2 {stroke:#542829;stroke-width:0.75;stroke-linecap:round;stroke-linejoin:round}
    .str6 {stroke:#8A2C2F;stroke-width:0.75;stroke-linecap:round;stroke-linejoin:round}
    .str13 {stroke:#8F5444;stroke-linecap:round;stroke-linejoin:round}
    .str12 {stroke:#3D2A2A;stroke-linecap:round;stroke-linejoin:round}
    .str15 {stroke:#1F1A17;stroke-width:1.5;stroke-linecap:round;stroke-linejoin:round}
    .fil5 {fill:none}
    .fil0 {fill:#1F1A17}
    .fil14 {fill:#383431}
    .fil2 {fill:#4D4948}
    .fil16 {fill:#605D5C}
    .fil15 {fill:#716F61}
    .fil17 {fill:#969594}
    .fil9 {fill:#B76767}
    .fil22 {fill:#C2C1C1}
    .fil10 {fill:#DB214C}
    .fil4 {fill:#E77817}
    .fil11 {fill:white}
    .fil13 {fill:#8F6D5A}
    .fil3 {fill:#C3957D}
    .fil7 {fill:#0F6386}
    .fil8 {fill:#1E3D55}
    .fil6 {fill:#324633}
    .fil19 {fill:#453C35}
    .fil20 {fill:#542829}
    .fil18 {fill:#615649}
    .fil1 {fill:#C58C2D}
    .fil12 {fill:#E0CFBF}
    .fil21 {fill:#1F1A17;fill-rule:nonzero}
   ]]>
  </style>
    <clipPath id="id0">
     <path d="M298.613 180.983c0,0 -1.3885,11.1414 -1.5391,15.1086 -0.1507,3.9673 1.9465,10.5551 1.766,12.9132 -0.1805,2.3582 -1.022,5.3544 1.6288,5.7103 2.6507,0.356 5.9803,0.8404 7.7823,0.2897 1.802,-0.5507 2.1056,-2.5168 1.081,-4.1256 -1.0246,-1.6087 -0.7892,-13.6801 -0.3921,-15.8686 0.3971,-2.1885 2.2187,-12.9907 2.2187,-12.9907l-12.5456 -1.0369z"/>
    </clipPath>
    <clipPath id="id1">
     <path d="M328.067 180.915c0,0 1.4395,11.1349 1.6083,15.1014 0.1688,3.9666 -1.8982,10.5639 -1.7069,12.9212 0.1913,2.3573 1.0465,5.3496 -1.6026,5.7177 -2.6491,0.368 -5.9765,0.8677 -7.781,0.3253 -1.8045,-0.5425 -2.117,-2.5072 -1.0998,-4.1206 1.0172,-1.6134 0.7265,-13.6836 0.3194,-15.8703 -0.4071,-2.1867 -2.2781,-12.9804 -2.2781,-12.9804l12.5407 -1.0943z"/>
    </clipPath>
    <clipPath id="id2">
     <path d="M300.257 121.997c1.6386,0.5694 2.6792,1.8618 2.3233,2.8861 -0.3559,1.0243 -1.9737,1.393 -3.6123,0.8237 -1.6385,-0.5694 -2.6792,-1.8618 -2.3233,-2.8861 0.3559,-1.0243 1.9738,-1.393 3.6123,-0.8237z"/>
    </clipPath>
    <clipPath id="id3">
     <path d="M326.494 121.997c-1.6386,0.5694 -2.6792,1.8618 -2.3233,2.8861 0.3559,1.0243 1.9737,1.393 3.6123,0.8237 1.6386,-0.5694 2.6792,-1.8618 2.3233,-2.8861 -0.3559,-1.0243 -1.9738,-1.393 -3.6123,-0.8237z"/>
    </clipPath>
     <clipPath id="id4">
      <path d="M212.889 161.736c-5.8629,-9.1268 -11.3395,-10.956 -13.0932,-9.2024 -1.7677,1.7676 2.4595,9.6157 4.9353,12.7023 0.8278,1.0319 1.1303,1.9184 0.8419,2.5232 2.1881,-0.6787 5.345,-3.4044 7.316,-6.0231z"/>
     </clipPath>
      <clipPath id="id5">
       <path d="M200.626 158.285c1.7216,-1.25 3.762,-2.6156 5.9237,-4.0003 1.3996,1.1315 2.9244,2.7089 4.5052,4.8088 -2.5559,1.6703 -5.011,3.4225 -7.0649,5.1503 -1.129,-1.604 -2.4313,-3.8438 -3.364,-5.9588z"/>
      </clipPath>
      <clipPath id="id6">
       <path d="M212.889 161.736c-5.8629,-9.1268 -11.3395,-10.956 -13.0932,-9.2024 -1.7677,1.7676 2.4595,9.6157 4.9353,12.7023 0.8278,1.0319 1.1303,1.9184 0.8419,2.5232 2.1881,-0.6787 5.345,-3.4044 7.316,-6.0231z"/>
      </clipPath>
     <clipPath id="id7">
      <path d="M162.898 161.736c5.8629,-9.1268 11.3395,-10.956 13.0932,-9.2024 1.7677,1.7676 -2.4595,9.6157 -4.9353,12.7023 -0.8278,1.0319 -1.1303,1.9184 -0.8419,2.5232 -2.1881,-0.6787 -5.345,-3.4044 -7.316,-6.0231z"/>
     </clipPath>
      <clipPath id="id8">
       <path d="M175.161 158.285c-1.7216,-1.25 -3.762,-2.6156 -5.9237,-4.0003 -1.3996,1.1315 -2.9244,2.7089 -4.5052,4.8088 2.5559,1.6703 5.011,3.4225 7.0649,5.1503 1.129,-1.604 2.4313,-3.8438 3.364,-5.9588z"/>
      </clipPath>
      <clipPath id="id9">
       <path d="M162.898 161.736c5.8629,-9.1268 11.3395,-10.956 13.0932,-9.2024 1.7677,1.7676 -2.4595,9.6157 -4.9353,12.7023 -0.8278,1.0319 -1.1303,1.9184 -0.8419,2.5232 -2.1881,-0.6787 -5.345,-3.4044 -7.316,-6.0231z"/>
      </clipPath>
       <clipPath id="id10">
        <path d="M184.957 212.986c0.2657,-3.4711 -2.3037,-5.0804 -5.6044,-5.3331 -3.3006,-0.2527 -6.0849,0.9468 -6.3506,4.418 -0.1139,1.4873 0.0848,3.8188 6.1394,3.9695 6.0545,0.1506 5.7021,-1.5722 5.8156,-3.0544z"/>
       </clipPath>
       <clipPath id="id11">
        <path d="M190.83 212.986c-0.2657,-3.4711 2.3037,-5.0804 5.6044,-5.3331 3.3006,-0.2527 6.0849,0.9468 6.3506,4.418 0.1139,1.4873 -0.0848,3.8188 -6.1394,3.9695 -6.0545,0.1506 -5.7021,-1.5722 -5.8156,-3.0544z"/>
       </clipPath>
      <clipPath id="id12">
       <path d="M187.889 187.844c-0.0596,1.2457 -3.7696,18.4368 -3.7696,18.4368 0,0 -2.4096,1.8423 -11.4121,-0.57 -3.1711,-9.5366 -0.9073,-32.747 -0.7276,-33.3156l15.1762 -0.0347 0.6977 -0.0016 0.6977 -0.0016 15.1762 -0.0347c0.1823,0.5677 2.5523,23.7675 -0.5751,33.3185 -8.9914,2.4535 -11.4093,0.6223 -11.4093,0.6223 0,0 -3.7887,-17.174 -3.8541,-18.4194z"/>
      </clipPath>
    <clipPath id="id13">
     <path d="M166.645 195.93c1.025,1.612 10.9915,4.875 21.2486,4.875 10.2572,0 20.2237,-3.263 21.2487,-4.875 0.2103,-0.3309 -4.0845,-40.8632 -8.2453,-43.2879 -6.4833,-3.778 -19.5235,-3.778 -26.0067,0 -4.1605,2.4245 -8.4558,42.9567 -8.2453,43.2879z"/>
    </clipPath>
      <clipPath id="id14">
       <path d="M174.971 152.597c3.0528,3.5135 7.9502,9.4614 9.6129,13.2611 2.3017,5.26 1.9775,31.1843 1.9182,34.9274 -2.3407,-0.0655 -4.6451,-0.2908 -6.8099,-0.6165 0.2742,-4.5146 1.4689,-28.1326 -3.0344,-35.3189 -1.6186,-2.5829 -3.1005,-4.6886 -4.3642,-6.3553 0.843,-3.1475 1.723,-5.343 2.5971,-5.8524 0.0264,-0.0154 0.0537,-0.0302 0.0803,-0.0454z"/>
      </clipPath>
      <clipPath id="id15">
       <path d="M166.645 195.93c1.025,1.612 10.9915,4.875 21.2486,4.875 10.2572,0 20.2237,-3.263 21.2487,-4.875 0.2103,-0.3309 -4.0845,-40.8632 -8.2453,-43.2879 -6.4833,-3.778 -19.5235,-3.778 -26.0067,0 -4.1605,2.4245 -8.4558,42.9567 -8.2453,43.2879z"/>
      </clipPath>
      <clipPath id="id16">
       <path d="M200.817 152.597c-3.0528,3.5136 -7.9502,9.4614 -9.6129,13.2611 -2.3017,5.26 -1.9775,31.1843 -1.9182,34.9274 2.3407,-0.0655 4.645,-0.2908 6.8099,-0.6165 -0.2741,-4.5146 -1.4689,-28.1326 3.0344,-35.3189 1.6186,-2.583 3.1006,-4.6887 4.3643,-6.3555 -0.8429,-3.1474 -1.7229,-5.3428 -2.5971,-5.8522 -0.0264,-0.0154 -0.0538,-0.0302 -0.0804,-0.0454z"/>
      </clipPath>
      <clipPath id="id17">
       <path d="M166.645 195.93c1.025,1.612 10.9915,4.875 21.2486,4.875 10.2572,0 20.2237,-3.263 21.2487,-4.875 0.2103,-0.3309 -4.0845,-40.8632 -8.2453,-43.2879 -6.4833,-3.778 -19.5235,-3.778 -26.0067,0 -4.1605,2.4245 -8.4558,42.9567 -8.2453,43.2879z"/>
      </clipPath>
      <clipPath id="id18">
       <path d="M206.06 171.229c-0.3379,0.5921 -0.6282,1.1556 -0.8569,1.6782 -1.5533,3.5498 -1.9107,16.5125 -1.9607,25.7172 3.2251,-0.9369 5.4452,-1.9784 5.9005,-2.6944 0.118,-0.1857 -1.183,-13.0334 -3.0829,-24.701z"/>
      </clipPath>
      <clipPath id="id19">
       <path d="M166.645 195.93c1.025,1.612 10.9915,4.875 21.2486,4.875 10.2572,0 20.2237,-3.263 21.2487,-4.875 0.2103,-0.3309 -4.0845,-40.8632 -8.2453,-43.2879 -6.4833,-3.778 -19.5235,-3.778 -26.0067,0 -4.1605,2.4245 -8.4558,42.9567 -8.2453,43.2879z"/>
      </clipPath>
      <clipPath id="id20">
       <path d="M169.728 171.229c0.3379,0.592 0.6282,1.1556 0.8569,1.6783 1.5533,3.5498 1.9107,16.5125 1.9607,25.7172 -3.2251,-0.9369 -5.4452,-1.9784 -5.9005,-2.6944 -0.1181,-0.1859 1.183,-13.0336 3.0829,-24.7011z"/>
      </clipPath>
      <clipPath id="id21">
       <path d="M166.645 195.93c1.025,1.612 10.9915,4.875 21.2486,4.875 10.2572,0 20.2237,-3.263 21.2487,-4.875 0.2103,-0.3309 -4.0845,-40.8632 -8.2453,-43.2879 -6.4833,-3.778 -19.5235,-3.778 -26.0067,0 -4.1605,2.4245 -8.4558,42.9567 -8.2453,43.2879z"/>
      </clipPath>
    <clipPath id="id22">
     <path d="M45.76 180.575c0,0 -1.3885,11.1414 -1.5391,15.1086 -0.1507,3.9673 1.9465,10.5551 1.766,12.9132 -0.1805,2.3582 -1.022,5.3544 1.6288,5.7103 2.6507,0.356 5.9803,0.8404 7.7823,0.2897 1.802,-0.5507 2.1056,-2.5168 1.081,-4.1256 -1.0246,-1.6087 -0.7892,-13.6801 -0.3921,-15.8686 0.3971,-2.1885 2.2187,-12.9907 2.2187,-12.9907l-12.5456 -1.0369z"/>
    </clipPath>
     <clipPath id="id23">
      <path d="M45.3903 203.881c0.0806,0.4062 0.1584,0.8022 0.2303,1.1834 1.966,0.3477 4.0949,0.5383 6.3185,0.5383 1.3266,0 2.6192,-0.0683 3.8641,-0.1967 -0.0136,-0.3712 -0.0246,-0.7518 -0.033,-1.138 -1.2347,0.1262 -2.5163,0.1929 -3.8311,0.1929 -2.3108,0 -4.5192,-0.2058 -6.5488,-0.5799z"/>
     </clipPath>
     <clipPath id="id24">
      <path d="M45.76 180.575c0,0 -1.3885,11.1414 -1.5391,15.1086 -0.1507,3.9673 1.9465,10.5551 1.766,12.9132 -0.1805,2.3582 -1.022,5.3544 1.6288,5.7103 2.6507,0.356 5.9803,0.8404 7.7823,0.2897 1.802,-0.5507 2.1056,-2.5168 1.081,-4.1256 -1.0246,-1.6087 -0.7892,-13.6801 -0.3921,-15.8686 0.3971,-2.1885 2.2187,-12.9907 2.2187,-12.9907l-12.5456 -1.0369z"/>
     </clipPath>
    <clipPath id="id25">
     <path d="M75.2132 180.508c0,0 1.4395,11.1349 1.6083,15.1014 0.1688,3.9666 -1.8982,10.5639 -1.7069,12.9212 0.1913,2.3573 1.0465,5.3496 -1.6026,5.7177 -2.6491,0.368 -5.9765,0.8677 -7.781,0.3253 -1.8045,-0.5425 -2.117,-2.5072 -1.0998,-4.1206 1.0172,-1.6134 0.7265,-13.6836 0.3194,-15.8703 -0.4071,-2.1867 -2.2781,-12.9804 -2.2781,-12.9804l12.5407 -1.0943z"/>
    </clipPath>
    <clipPath id="id26">
     <path d="M46.55 121.969c1.6523,0.4427 2.7683,1.6395 2.4915,2.6723 -0.2767,1.0329 -1.8416,1.5113 -3.4939,1.0686 -1.6523,-0.4427 -2.7683,-1.6395 -2.4915,-2.6723 0.2768,-1.0329 1.8416,-1.5113 3.4939,-1.0686z"/>
    </clipPath>
    <clipPath id="id27">
     <path d="M74.6094 121.969c-1.6523,0.4427 -2.7682,1.6395 -2.4915,2.6723 0.2768,1.0329 1.8416,1.5113 3.4939,1.0686 1.6523,-0.4427 2.7683,-1.6395 2.4915,-2.6723 -0.2767,-1.0329 -1.8415,-1.5113 -3.4939,-1.0686z"/>
    </clipPath>
    <clipPath id="id28">
     <path d="M300.257 121.997c1.6386,0.5694 2.6792,1.8618 2.3233,2.8861 -0.3559,1.0243 -1.9737,1.393 -3.6123,0.8237 -1.6385,-0.5694 -2.6792,-1.8618 -2.3233,-2.8861 0.3559,-1.0243 1.9738,-1.393 3.6123,-0.8237z"/>
    </clipPath>
    <clipPath id="id29">
     <path d="M326.494 121.997c-1.6386,0.5694 -2.6792,1.8618 -2.3233,2.8861 0.3559,1.0243 1.9737,1.393 3.6123,0.8237 1.6386,-0.5694 2.6792,-1.8618 2.3233,-2.8861 -0.3559,-1.0243 -1.9738,-1.393 -3.6123,-0.8237z"/>
    </clipPath>
    <clipPath id="id30">
     <path d="M202.157 125.562c-1.7106,0 -3.0982,0.8671 -3.0982,1.9365 0,1.0693 1.3876,1.9364 3.0982,1.9364 1.7106,0 3.0983,-0.8671 3.0983,-1.9364 0,-1.0694 -1.3877,-1.9365 -3.0983,-1.9365z"/>
    </clipPath>
    <clipPath id="id31">
     <path d="M173.763 125.562c1.7106,0 3.0982,0.8671 3.0982,1.9365 0,1.0693 -1.3876,1.9364 -3.0982,1.9364 -1.7106,0 -3.0983,-0.8671 -3.0983,-1.9364 0,-1.0694 1.3877,-1.9365 3.0983,-1.9365z"/>
    </clipPath>
 </defs>
 <g id="Capa_x0020_1">
  <metadata id="CorelCorpID_0Corel-Layer"/>
  <g id="_590255368">
   <g>
    <path id="_590255944" class="fil0 str0" d="M329.323 137.839c0,0 5.8384,5.5844 4.925,9.7829 -0.8921,4.1002 -2.9118,13.1505 2.7685,15.4644 1.7264,0.703 -5.3784,0.8793 -7.001,-2.5637 -2.473,-5.2465 -0.3742,-7.8459 -6.0296,-10.9251 -5.6553,-3.0793 -6.037,-4.5798 -6.037,-4.5798l11.3741 -7.1787z"/>
    <path id="_590255872" class="fil1 str0" d="M333.298 153.027c-0.1169,1.1073 -0.1727,2.247 -0.1153,3.3503 -1.1781,-0.3785 -2.7669,-0.6205 -4.5378,-0.1659 -0.3012,-1.4396 -0.514,-2.6522 -1.2695,-3.7968 1.4265,-0.6189 3.4094,-0.657 5.9226,0.6124z"/>
    <path id="_590255800" class="fil2" d="M328.585 141.708c0,0 3.3059,4.4385 2.1446,8.673 0,0 -0.7928,-4.2856 -2.1446,-8.673z"/>
    <path id="_590255728" class="fil2" d="M324.884 139.531c0,0 3.3059,4.4385 2.1446,8.673 0,0 -0.7928,-4.2856 -2.1446,-8.673z"/>
   </g>
   <g>
    <path id="_590255632" class="fil0 str0" d="M297.428 137.839c0,0 -5.8384,5.5844 -4.925,9.7829 0.8921,4.1002 2.9118,13.1505 -2.7685,15.4644 -1.7264,0.703 5.3784,0.8793 7.001,-2.5637 2.473,-5.2465 0.3742,-7.8459 6.0296,-10.9251 5.6553,-3.0793 6.037,-4.5798 6.037,-4.5798l-11.3741 -7.1787z"/>
    <path id="_590255560" class="fil1 str0" d="M293.453 153.027c0.1169,1.1073 0.1727,2.247 0.1153,3.3503 1.1781,-0.3785 2.7669,-0.6205 4.5378,-0.1659 0.3012,-1.4396 0.514,-2.6522 1.2695,-3.7968 -1.4265,-0.6189 -3.4094,-0.657 -5.9226,0.6124z"/>
    <path id="_590255488" class="fil2" d="M298.166 141.708c0,0 -3.3059,4.4385 -2.1446,8.673 0,0 0.7928,-4.2856 2.1446,-8.673z"/>
    <path id="_590255416" class="fil2" d="M301.867 139.531c0,0 -3.3059,4.4385 -2.1446,8.673 0,0 0.7928,-4.2856 2.1446,-8.673z"/>
   </g>
  </g>
  <g id="_590254864">
   <g>
    <path id="_590255296" class="fil3 str1" d="M351.988 170.272c1.9444,0.4343 5.009,-0.4656 5.3689,-0.0279 0.36,0.4377 0.3431,0.8008 -1.5846,2.3993 1.1029,1.5492 4.8949,0.4822 4.8644,2.0864 -0.0198,1.0355 -2.8661,0.8498 -3.7333,0.7405 0.195,1.7217 4.0868,0.934 3.6048,2.5881 -0.2998,1.0265 -3.4121,-0.0158 -4.2515,-0.4131 -0.6947,1.4719 2.8193,1.3678 2.1266,2.7454 -0.4616,0.9176 -3.0061,-0.5009 -3.7345,-0.9352 -0.9823,0.636 1.3727,1.3742 0.7883,2.1119 -0.477,0.6023 -1.0454,0.3643 -2.6789,-1.0602 -0.9026,-0.7874 -2.4447,-1.51 -3.7334,-2.5269 -1.1227,-0.2234 -10.2701,-2.2616 -16.5472,-10.4846 -6.6973,-8.7733 -6.9848,-14.2163 -4.264,-15.6757 2.7208,-1.4593 9.1339,7.4986 12.2944,11.3519 3.1605,3.8533 11.48,7.1002 11.48,7.1002l0 -0.0001z"/>
    <path id="_590255224" class="fil4 str2" d="M333.489 168.74c-0.344,-0.3985 -0.6821,-0.8123 -1.0118,-1.2443 -6.6973,-8.7733 -6.9848,-14.2163 -4.264,-15.6757 2.6368,-1.4143 8.7412,6.9552 11.9925,10.9807 -1.9026,2.2758 -4.4258,4.5278 -6.7167,5.9393z"/>
    <path id="_590255152" class="fil5 str1" d="M351.566 176.503c0,0 2.0072,0.5522 2.4031,-1.9108"/>
   </g>
   <g>
    <path id="_590255056" class="fil3 str1" d="M274.764 170.272c-1.9444,0.4343 -5.009,-0.4656 -5.3689,-0.0279 -0.36,0.4377 -0.3431,0.8008 1.5846,2.3993 -1.1029,1.5492 -4.8949,0.4822 -4.8644,2.0864 0.0198,1.0355 2.8661,0.8498 3.7333,0.7405 -0.195,1.7217 -4.0868,0.934 -3.6048,2.5881 0.2998,1.0265 3.4121,-0.0158 4.2515,-0.4131 0.6947,1.4719 -2.8193,1.3678 -2.1266,2.7454 0.4616,0.9176 3.0061,-0.5009 3.7345,-0.9352 0.9823,0.636 -1.3727,1.3742 -0.7883,2.1119 0.477,0.6023 1.0454,0.3643 2.6789,-1.0602 0.9026,-0.7874 2.4447,-1.51 3.7334,-2.5269 1.1227,-0.2234 10.2701,-2.2616 16.5472,-10.4846 6.6973,-8.7733 6.9848,-14.2163 4.264,-15.6757 -2.7208,-1.4593 -9.1339,7.4986 -12.2944,11.3519 -3.1605,3.8533 -11.48,7.1002 -11.48,7.1002l0 -0.0001z"/>
    <path id="_590254984" class="fil4 str2" d="M293.262 168.74c0.344,-0.3985 0.6821,-0.8123 1.0118,-1.2443 6.6973,-8.7733 6.9848,-14.2163 4.264,-15.6757 -2.6368,-1.4143 -8.7412,6.9552 -11.9925,10.9807 1.9026,2.2758 4.4258,4.5278 6.7167,5.9393z"/>
    <path id="_590254912" class="fil5 str1" d="M275.185 176.503c0,0 -2.0072,0.5522 -2.4031,-1.9108"/>
   </g>
  </g>
  <g id="_590254408">
   <path id="_590254792" class="fil6 str3" d="M304.488 206.424c3.5599,0.2725 6.1738,4.0634 5.9493,6.9961 -0.2245,2.9328 -3.2025,3.8983 -6.7624,3.6257 -3.56,-0.2725 -6.3561,-1.68 -6.1316,-4.6127 0.2245,-2.9328 3.3848,-6.2817 6.9447,-6.0091z"/>
   <path id="_590254720" class="fil3" d="M298.613 180.983c0,0 -1.3885,11.1414 -1.5391,15.1086 -0.1507,3.9673 1.9465,10.5551 1.766,12.9132 -0.1805,2.3582 -1.022,5.3544 1.6288,5.7103 2.6507,0.356 5.9803,0.8404 7.7823,0.2897 1.802,-0.5507 2.1056,-2.5168 1.081,-4.1256 -1.0246,-1.6087 -0.7892,-13.6801 -0.3921,-15.8686 0.3971,-2.1885 2.2187,-12.9907 2.2187,-12.9907l-12.5456 -1.0369z"/>
   <g style="clip-path:url(#id0)">
    <g>
     <path id="_5960855841" class="fil5 str4" d="M307.429 213.87c0,0 0.4986,-0.4987 1.3747,-0.2528m-8.399 -0.9743c0,0 -0.8797,2.0972 1.1708,2.2203m5.1001 -1.9773c0,0 -0.8797,2.097 1.1709,2.2202m-3.312 -2.0777c0,0 -0.8797,2.0971 1.171,2.2203m-3.2243 -2.3579c0,0 -0.8796,2.0971 1.171,2.22m-4.2485 -1.7345c0,0 0.1753,-0.1756 0.4836,-0.0889m1.0553 0.5902c0,0 0.3164,-0.3166 0.8725,-0.1606m1.1574 0.3671c0,0 0.3165,-0.3167 0.8725,-0.1605m1.1484 0.0878c0,0 0.3164,-0.3166 0.8724,-0.1604"/>
    </g>
   </g>
   <path class="fil5 str1" d="M298.613 180.983c0,0 -1.3885,11.1414 -1.5391,15.1086 -0.1507,3.9673 1.9465,10.5551 1.766,12.9132 -0.1805,2.3582 -1.022,5.3544 1.6288,5.7103 2.6507,0.356 5.9803,0.8404 7.7823,0.2897 1.802,-0.5507 2.1056,-2.5168 1.081,-4.1256 -1.0246,-1.6087 -0.7892,-13.6801 -0.3921,-15.8686 0.3971,-2.1885 2.2187,-12.9907 2.2187,-12.9907l-12.5456 -1.0369z"/>
   <path id="_590254648" class="fil6 str3" d="M310.091 214.324c0.1372,-0.5011 0.2282,-1.004 0.2659,-1.4965 0.276,-3.6054 -2.3928,-5.277 -5.8211,-5.5394 -3.4284,-0.2625 -6.3203,0.9834 -6.5963,4.5888 -0.0377,0.4925 -0.0243,1.0034 0.035,1.5195 0.8218,-2.5702 3.3817,-3.4683 6.3418,-3.2417 2.9602,0.2266 5.3537,1.5039 5.7747,4.1693z"/>
   <path id="_590254576" class="fil6 str3" d="M322.308 206.383c-3.5586,0.2888 -6.1551,4.0916 -5.9172,7.0233 0.2379,2.9317 3.2203,3.8835 6.779,3.5947 3.5586,-0.2888 6.3483,-1.7091 6.1104,-4.6407 -0.2379,-2.9317 -3.4135,-6.2661 -6.9722,-5.9773z"/>
   <path id="_590254504" class="fil3" d="M328.067 180.915c0,0 1.4395,11.1349 1.6083,15.1014 0.1688,3.9666 -1.8982,10.5639 -1.7069,12.9212 0.1913,2.3573 1.0465,5.3496 -1.6026,5.7177 -2.6491,0.368 -5.9765,0.8677 -7.781,0.3253 -1.8045,-0.5425 -2.117,-2.5072 -1.0998,-4.1206 1.0172,-1.6134 0.7265,-13.6836 0.3194,-15.8703 -0.4071,-2.1867 -2.2781,-12.9804 -2.2781,-12.9804l12.5407 -1.0943z"/>
   <g style="clip-path:url(#id1)">
    <g>
     <path id="_5960705841" class="fil5 str4" d="M319.407 213.845c0,0 -0.4986,-0.4987 -1.3748,-0.2527m8.399 -0.9744c0,0 0.8798,2.0972 -1.1708,2.2203m-5.1001 -1.9773c0,0 0.8797,2.0969 -1.1708,2.2202m3.3119 -2.0778c0,0 0.8799,2.0972 -1.1709,2.2205m3.2244 -2.358c0,0 0.8797,2.0971 -1.1712,2.2201m4.2485 -1.7347c0,0 -0.1753,-0.1755 -0.4835,-0.0888m-1.0553 0.5903c0,0 -0.3164,-0.3167 -0.8724,-0.1607m-1.1575 0.3671c0,0 -0.3164,-0.3167 -0.8724,-0.1606m-1.1485 0.088c0,0 -0.3162,-0.3168 -0.8724,-0.1604"/>
    </g>
   </g>
   <path class="fil5 str1" d="M328.067 180.915c0,0 1.4395,11.1349 1.6083,15.1014 0.1688,3.9666 -1.8982,10.5639 -1.7069,12.9212 0.1913,2.3573 1.0465,5.3496 -1.6026,5.7177 -2.6491,0.368 -5.9765,0.8677 -7.781,0.3253 -1.8045,-0.5425 -2.117,-2.5072 -1.0998,-4.1206 1.0172,-1.6134 0.7265,-13.6836 0.3194,-15.8703 -0.4071,-2.1867 -2.2781,-12.9804 -2.2781,-12.9804l12.5407 -1.0943z"/>
   <path id="_590254432" class="fil6 str3" d="M316.742 214.309c-0.1394,-0.5005 -0.2328,-1.003 -0.2727,-1.4953 -0.2925,-3.6041 2.3686,-5.2878 5.7957,-5.566 3.4271,-0.2781 6.3248,0.9545 6.6173,4.5586 0.0399,0.4923 0.0288,1.0033 -0.0281,1.5197 -0.8336,-2.5664 -3.3975,-3.4529 -6.3566,-3.2127 -2.9591,0.2401 -5.3468,1.5284 -5.7556,4.1957z"/>
  </g>
  <g id="_590253856">
   <path id="_590254336" class="fil7 str5" d="M297.569 174.875c-6.4115,8.0868 -6.7223,24.0029 -5.442,26.0161 1.025,1.6121 10.9915,4.875 21.2486,4.875 10.2572,0 20.2237,-3.2629 21.2487,-4.875 1.2802,-2.0132 0.9694,-17.9293 -5.4421,-26.0161l-15.8066 0 -15.8066 0z"/>
   <g>
    <path id="_590254264" class="fil8" d="M304.216 180.457c0,0 -2.9895,4.9015 -3.8975,10.0942 -0.9078,5.1925 -0.0741,9.3545 -0.0741,9.3545 0,0 1.7285,-6.7072 3.9716,-19.4487z"/>
    <path id="_590254192" class="fil8" d="M310.55 182.058c0,0 -2.2824,5.7098 -2.4872,11.073 -0.2045,5.3629 1.1614,9.1879 1.1614,9.1879 0,0 0.8088,-7.0962 1.3258,-20.2609z"/>
    <path id="_590254120" class="fil8" d="M316.201 182.058c0,0 2.2823,5.71 2.487,11.073 0.2048,5.3629 -1.1613,9.1879 -1.1613,9.1879 0,0 -0.8089,-7.0965 -1.3257,-20.2609z"/>
    <path id="_590254048" class="fil8" d="M322.535 180.457c0,0 2.9894,4.9015 3.8974,10.0941 0.908,5.1924 0.074,9.3546 0.074,9.3546 0,0 -1.7285,-6.7073 -3.9714,-19.4487z"/>
    <path id="_590253976" class="fil8" d="M327.665 178.963c0,0 3.2771,4.4586 4.4995,9.5004 1.2225,5.042 0.6477,9.3036 0.6477,9.3036 0,0 -2.1323,-6.4342 -5.1472,-18.804z"/>
    <path id="_590253904" class="fil8" d="M299.086 178.963c0,0 -3.277,4.4586 -4.4996,9.5004 -1.2224,5.042 -0.6475,9.3036 -0.6475,9.3036 0,0 2.1323,-6.4342 5.1471,-18.804z"/>
   </g>
  </g>
  <path class="fil4 str2" d="M300.189 150.08c-5.6267,3.2789 -2.8657,13.0599 -2.9459,15.9377 -0.0801,2.8777 -2.8657,9.2489 3.1463,10.5711 8.5207,1.8739 17.4508,1.8739 25.9716,0 6.0119,-1.3222 3.2264,-7.6934 3.1462,-10.5711 -0.0801,-2.8778 2.6809,-12.6588 -2.9458,-15.9377 -6.5744,-3.8312 -19.798,-3.8312 -26.3724,0z"/>
  <path class="fil3 str1" d="M306.772 143.443l13.207 0 0 5.7291c0,1.662 -2.957,3.01 -6.6034,3.01 -3.6463,0 -6.6036,-1.348 -6.6036,-3.01l0 -5.7291z"/>
  <g id="_590252680">
   <path id="_590253640" class="fil3 str1" d="M285.494 125.459c0.7814,-0.4512 2.1468,0.4503 3.0492,2.0132 0.9023,1.5629 1.0003,3.1961 0.2189,3.6473 -0.7814,0.4512 -2.1469,-0.4504 -3.0492,-2.0132 -0.9023,-1.5629 -1.0004,-3.1962 -0.2189,-3.6473zm55.7622 0c-0.7815,-0.4512 -2.1469,0.4503 -3.0492,2.0132 -0.9023,1.5629 -1.0004,3.1961 -0.2189,3.6473 0.7814,0.4512 2.1468,-0.4504 3.0492,-2.0132 0.9023,-1.5629 1.0003,-3.1962 0.2189,-3.6473z"/>
   <path id="_590253568" class="fil3 str1" d="M313.375 96.0245c27.9634,0 25.6873,17.7326 25.6873,31.9168 0,14.1842 -11.5031,19.4577 -25.6873,19.4577 -14.1842,0 -25.6872,-5.2735 -25.6872,-19.4577 0,-14.1842 -2.2762,-31.9168 25.6872,-31.9168z"/>
   <path id="_590253496" class="fil5 str1" d="M311.267 129.788c0,0 2.0754,1.6113 4.2169,0"/>
   <path id="_590253424" class="fil0 str0" d="M313.376 110.943c-0.5174,0.5677 -0.6781,2.8344 -5.8189,2.9867 -0.9637,0.0285 1.2038,-3.075 0.0773,-3.0246 -4.8828,0.2183 -13.9577,4.1199 -15.6911,8.5172 -2.1334,5.4121 -3.5274,14.6994 -3.5274,14.6994 0,0 -1.5156,-6.9342 -3.1643,-11.4919 -1.6487,-4.5577 -1.7456,-16.7116 8.5343,-22.8835 9.0728,-5.4473 17.691,-5.4212 19.5901,-5.3398 1.899,-0.0814 10.5172,-0.1075 19.59,5.3398 10.28,6.1719 10.183,18.3258 8.5343,22.8835 -1.6487,4.5577 -3.1643,11.4919 -3.1643,11.4919 0,0 -1.3938,-9.2873 -3.5273,-14.6994 -1.6668,-4.2283 -10.8466,-8.7142 -15.6045,-8.9699 -1.3321,-0.0715 1.115,3.5105 -0.0094,3.4773 -5.1406,-0.1523 -5.3015,-2.419 -5.8188,-2.9867z"/>
   <path id="_590253352" class="fil9" d="M296.335 132.12c1.7108,0 3.0983,1.3873 3.0983,3.0983 0,1.7108 -1.3875,3.0981 -3.0983,3.0981 -1.7108,0 -3.0983,-1.3873 -3.0983,-3.0981 0,-1.711 1.3875,-3.0983 3.0983,-3.0983zm34.0811 0c1.7107,0 3.0982,1.3875 3.0982,3.0983 0,1.7109 -1.3875,3.0982 -3.0982,3.0982 -1.7109,0 -3.0983,-1.3873 -3.0983,-3.0982 0,-1.7108 1.3874,-3.0983 3.0983,-3.0983z"/>
   <path id="_590253280" class="fil2" d="M330.024 101.903c0,0 4.0794,3.2241 4.0553,7.3493 0,0 -1.7616,-3.6964 -4.0553,-7.3493z"/>
   <path id="_590253208" class="fil2" d="M322.75 99.5531c0,0 4.0794,3.2241 4.0553,7.3493 0,0 -1.7616,-3.6964 -4.0553,-7.3493z"/>
   <path id="_590253136" class="fil2" d="M296.726 101.903c0,0 -4.0794,3.2241 -4.0553,7.3493 0,0 1.7616,-3.6964 4.0553,-7.3493z"/>
   <path id="_590253064" class="fil2" d="M304.001 99.5531c0,0 -4.0794,3.2241 -4.0552,7.3493 0,0 1.7615,-3.6964 4.0552,-7.3493z"/>
   <path id="_590252992" class="fil10 str6" d="M317.156 137.715c0,2.0877 -1.6932,3.7809 -3.7809,3.7809 -2.0877,0 -3.7809,-1.6932 -3.7809,-3.7809l7.5618 0z"/>
   <path id="_590252920" class="fil11" d="M300.257 121.997c1.6386,0.5694 2.6792,1.8618 2.3233,2.8861 -0.3559,1.0243 -1.9737,1.393 -3.6123,0.8237 -1.6385,-0.5694 -2.6792,-1.8618 -2.3233,-2.8861 0.3559,-1.0243 1.9738,-1.393 3.6123,-0.8237z"/>
   <g style="clip-path:url(#id2)">
    <g>
     <circle id="_484612696" class="fil0" transform="matrix(2.95195 0.214734 -0.214734 2.95195 299.613 123.851)" r="0.682"/>
    </g>
   </g>
   <path class="fil5 str0" d="M300.257 121.997c1.6386,0.5694 2.6792,1.8618 2.3233,2.8861 -0.3559,1.0243 -1.9737,1.393 -3.6123,0.8237 -1.6385,-0.5694 -2.6792,-1.8618 -2.3233,-2.8861 0.3559,-1.0243 1.9738,-1.393 3.6123,-0.8237z"/>
   <path id="_590252848" class="fil0" d="M295.216 120.53c0,0 4.3963,-0.7138 8.7926,0.4043 0,0 -5.6339,-4.2006 -8.7926,-0.4043z"/>
   <path id="_590252776" class="fil11" d="M326.494 121.997c-1.6386,0.5694 -2.6792,1.8618 -2.3233,2.8861 0.3559,1.0243 1.9737,1.393 3.6123,0.8237 1.6386,-0.5694 2.6792,-1.8618 2.3233,-2.8861 -0.3559,-1.0243 -1.9738,-1.393 -3.6123,-0.8237z"/>
   <g style="clip-path:url(#id3)">
    <g>
     <circle id="_484613392" class="fil0" transform="matrix(-2.95195 0.214734 0.214734 2.95195 327.138 123.851)" r="0.682"/>
    </g>
   </g>
   <path class="fil5 str0" d="M326.494 121.997c-1.6386,0.5694 -2.6792,1.8618 -2.3233,2.8861 0.3559,1.0243 1.9737,1.393 3.6123,0.8237 1.6386,-0.5694 2.6792,-1.8618 2.3233,-2.8861 -0.3559,-1.0243 -1.9738,-1.393 -3.6123,-0.8237z"/>
   <path id="_590252704" class="fil0" d="M331.534 120.53c0,0 -4.3963,-0.7138 -8.7926,0.4043 0,0 5.6339,-4.2006 8.7926,-0.4043z"/>
  </g>
  <g id="_590252320">
   <g>
    <path id="_590252608" class="fil3 str1" d="M199.22 167.892c-1.8387,-0.7671 -3.8227,-3.2697 -4.3692,-3.1199 -0.5465,0.1498 -0.7423,0.4562 -0.0897,2.8739 -1.7946,0.6293 -4.2766,-2.4298 -5.177,-1.1019 -0.5812,0.8574 1.8509,2.3476 2.6223,2.7586 -1.1525,1.2938 -3.877,-1.5947 -4.4375,0.0344 -0.3473,1.0115 2.7963,1.9556 3.7111,2.1153 -0.2818,1.6029 -3.092,-0.5092 -3.3209,1.0157 -0.1523,1.0158 2.7445,1.325 3.59,1.3904 0.4355,1.0862 -1.9141,0.3306 -1.8623,1.2704 0.0422,0.7671 0.6439,0.9005 2.7999,0.6792 1.1998,-0.1233 2.8912,0.1812 4.5415,0.0879l-0.1402 -0.0463 0.1402 0.0463c0,0 9.8525,3.1874 15.8188,-0.1192 4.1852,-2.3196 2.7746,-9.4248 -0.0173,-13.8222 -5.9158,-9.3178 -11.4663,-11.1892 -13.234,-9.4216 -1.7677,1.7676 2.4595,9.6157 4.9353,12.7023 2.1697,2.7046 0.7358,4.4132 -5.5108,2.6567l-0.0002 0z"/>
    <path id="_590252536" class="fil12" d="M212.889 161.736c-5.8629,-9.1268 -11.3395,-10.956 -13.0932,-9.2024 -1.7677,1.7676 2.4595,9.6157 4.9353,12.7023 0.8278,1.0319 1.1303,1.9184 0.8419,2.5232 2.1881,-0.6787 5.345,-3.4044 7.316,-6.0231z"/>
    <g style="clip-path:url(#id4)">
     <g>
      <path id="_5914744241" class="fil12" d="M188.118 180.912c0,0 4.2136,-13.6241 7.885,-18.61 3.6714,-4.9859 29.6867,-19.3457 29.6867,-19.3457l3.1489 6.0924c0,0 -25.347,12.3235 -29.7455,20.6215 -4.3985,8.2979 -5.5252,13.2109 -5.5252,13.2109l-5.4499 -1.9691z"/>
     </g>
     <g style="clip-path:url(#id5)">
      <g>
       <path id="_5904320482" class="fil13" d="M188.891 181.45c0,0 4.5718,-13.5994 7.7385,-18.0636 3.1667,-4.4643 29.6233,-19.6555 29.6233,-19.6555l0.9745 2.007c0,0 -25.4496,11.8252 -30.3236,20.4665 -4.8741,8.6414 -6.8668,15.7444 -6.8668,15.7444l-1.1459 -0.4988z"/>
       <path id="_590432408" class="fil13" d="M190.715 183.423c0,0 4.5718,-13.5994 7.7386,-18.0637 3.1667,-4.4642 29.6233,-19.6555 29.6233,-19.6555l0.9745 2.0071c0,0 -25.4496,11.8252 -30.3237,20.4665 -4.874,8.6413 -6.8668,15.7443 -6.8668,15.7443l-1.1459 -0.4987z"/>
      </g>
     </g>
     <g style="clip-path:url(#id6)">
      <path class="fil5 str7" d="M188.118 180.912c0,0 4.2136,-13.6241 7.885,-18.61 3.6714,-4.9859 29.6867,-19.3457 29.6867,-19.3457l3.1489 6.0924c0,0 -25.347,12.3235 -29.7455,20.6215 -4.3985,8.2979 -5.5252,13.2109 -5.5252,13.2109l-5.4499 -1.9691z"/>
     </g>
    </g>
    <path class="fil5 str8" d="M212.889 161.736c-5.8629,-9.1268 -11.3395,-10.956 -13.0932,-9.2024 -1.7677,1.7676 2.4595,9.6157 4.9353,12.7023 0.8278,1.0319 1.1303,1.9184 0.8419,2.5232 2.1881,-0.6787 5.345,-3.4044 7.316,-6.0231z"/>
   </g>
   <g>
    <path id="_590252440" class="fil3 str1" d="M176.567 167.892c1.8387,-0.7671 3.8227,-3.2697 4.3692,-3.1199 0.5465,0.1498 0.7423,0.4562 0.0897,2.8739 1.7946,0.6293 4.2766,-2.4298 5.177,-1.1019 0.5812,0.8574 -1.8509,2.3476 -2.6223,2.7586 1.1525,1.2938 3.877,-1.5947 4.4375,0.0344 0.3473,1.0115 -2.7963,1.9556 -3.7111,2.1153 0.2818,1.6029 3.092,-0.5092 3.3209,1.0157 0.1523,1.0158 -2.7445,1.325 -3.59,1.3904 -0.4355,1.0862 1.9141,0.3306 1.8623,1.2704 -0.0422,0.7671 -0.6439,0.9005 -2.7999,0.6792 -1.1998,-0.1233 -2.8912,0.1812 -4.5415,0.0879l0.1402 -0.0463 -0.1402 0.0463c0,0 -9.8525,3.1874 -15.8188,-0.1192 -4.1852,-2.3196 -2.7746,-9.4248 0.0173,-13.8222 5.9158,-9.3178 11.4663,-11.1892 13.234,-9.4216 1.7677,1.7676 -2.4595,9.6157 -4.9353,12.7023 -2.1697,2.7046 -0.7358,4.4132 5.5108,2.6567l0.0002 0z"/>
    <path id="_590252368" class="fil12" d="M162.898 161.736c5.8629,-9.1268 11.3395,-10.956 13.0932,-9.2024 1.7677,1.7676 -2.4595,9.6157 -4.9353,12.7023 -0.8278,1.0319 -1.1303,1.9184 -0.8419,2.5232 -2.1881,-0.6787 -5.345,-3.4044 -7.316,-6.0231z"/>
    <g style="clip-path:url(#id7)">
     <g>
      <path id="_5914758401" class="fil12" d="M187.669 180.912c0,0 -4.2136,-13.6241 -7.885,-18.61 -3.6714,-4.9859 -29.6867,-19.3457 -29.6867,-19.3457l-3.1489 6.0924c0,0 25.347,12.3235 29.7455,20.6215 4.3985,8.2979 5.5252,13.2109 5.5252,13.2109l5.4499 -1.9691z"/>
     </g>
     <g style="clip-path:url(#id8)">
      <g>
       <path id="_5904344962" class="fil13" d="M186.897 181.45c0,0 -4.5718,-13.5994 -7.7385,-18.0636 -3.1667,-4.4643 -29.6233,-19.6555 -29.6233,-19.6555l-0.9745 2.007c0,0 25.4496,11.8252 30.3236,20.4665 4.8741,8.6414 6.8668,15.7444 6.8668,15.7444l1.1459 -0.4988z"/>
       <path id="_590433824" class="fil13" d="M185.072 183.423c0,0 -4.5718,-13.5994 -7.7386,-18.0637 -3.1667,-4.4642 -29.6233,-19.6555 -29.6233,-19.6555l-0.9745 2.0071c0,0 25.4496,11.8252 30.3237,20.4665 4.874,8.6413 6.8668,15.7443 6.8668,15.7443l1.1459 -0.4987z"/>
      </g>
     </g>
     <g style="clip-path:url(#id9)">
      <path class="fil5 str7" d="M187.669 180.912c0,0 -4.2136,-13.6241 -7.885,-18.61 -3.6714,-4.9859 -29.6867,-19.3457 -29.6867,-19.3457l-3.1489 6.0924c0,0 25.347,12.3235 29.7455,20.6215 4.3985,8.2979 5.5252,13.2109 5.5252,13.2109l5.4499 -1.9691z"/>
     </g>
    </g>
    <path class="fil5 str8" d="M162.898 161.736c5.8629,-9.1268 11.3395,-10.956 13.0932,-9.2024 1.7677,1.7676 -2.4595,9.6157 -4.9353,12.7023 -0.8278,1.0319 -1.1303,1.9184 -0.8419,2.5232 -2.1881,-0.6787 -5.345,-3.4044 -7.316,-6.0231z"/>
   </g>
  </g>
  <g id="_589100520">
   <g>
    <g>
     <g>
      <path id="_590252248" class="fil14 str9" d="M179.408 206.821c3.4273,0.2623 5.9439,3.9121 5.7278,6.7356 -0.2162,2.8235 -3.0833,3.7531 -6.5106,3.4907 -3.4274,-0.2624 -6.1195,-1.6175 -5.9033,-4.441 0.2161,-2.8235 3.2587,-6.0477 6.6861,-5.7853z"/>
      <path id="_590252176" class="fil15 str10" d="M173.652 182.327c0,0 -1.3368,10.7265 -1.4818,14.546 -0.1451,3.8195 1.874,10.162 1.7002,12.4323 -0.1738,2.2704 -0.9839,5.155 1.5681,5.4977 2.5521,0.3427 5.7577,0.8091 7.4926,0.2789 1.7349,-0.5302 2.0271,-2.4231 1.0407,-3.972 -0.9864,-1.5488 -0.7597,-13.1706 -0.3775,-15.2777 0.3823,-2.107 2.1361,-12.5069 2.1361,-12.5069l-12.0784 -0.9983z"/>
      <path id="_589101096" class="fil16" d="M184.957 212.986c0.2657,-3.4711 -2.3037,-5.0804 -5.6044,-5.3331 -3.3006,-0.2527 -6.0849,0.9468 -6.3506,4.418 -0.1139,1.4873 0.0848,3.8188 6.1394,3.9695 6.0545,0.1506 5.7021,-1.5722 5.8156,-3.0544z"/>
      <g style="clip-path:url(#id10)">
       <g>
        <path id="_5916229201" class="fil17" d="M179.176 209.583c-6.1019,-0.5771 -8.2716,8.8901 -0.1863,9.1387 7.9174,0.2435 5.5501,-8.6315 0.1863,-9.1387z"/>
        <path id="_591623832" class="fil17" d="M178.994 208.323c-1.9024,-0.0398 -2.5788,0.6132 -0.058,0.6303 2.4684,0.0168 1.7303,-0.5953 0.058,-0.6303z"/>
       </g>
      </g>
      <path class="fil5 str9" d="M184.957 212.986c0.2657,-3.4711 -2.3037,-5.0804 -5.6044,-5.3331 -3.3006,-0.2527 -6.0849,0.9468 -6.3506,4.418 -0.1139,1.4873 0.0848,3.8188 6.1394,3.9695 6.0545,0.1506 5.7021,-1.5722 5.8156,-3.0544z"/>
     </g>
     <g>
      <path id="_589101000" class="fil14 str9" d="M196.38 206.821c-3.4273,0.2623 -5.9439,3.9121 -5.7278,6.7356 0.2162,2.8235 3.0833,3.7531 6.5106,3.4907 3.4274,-0.2624 6.1195,-1.6175 5.9033,-4.441 -0.2161,-2.8235 -3.2587,-6.0477 -6.6861,-5.7853z"/>
      <path id="_589100928" class="fil15 str10" d="M202.136 182.327c0,0 1.3368,10.7265 1.4818,14.546 0.1451,3.8195 -1.874,10.162 -1.7002,12.4323 0.1738,2.2704 0.9839,5.155 -1.5681,5.4977 -2.5521,0.3427 -5.7577,0.8091 -7.4926,0.2789 -1.7349,-0.5302 -2.0271,-2.4231 -1.0407,-3.972 0.9864,-1.5488 0.7597,-13.1706 0.3775,-15.2777 -0.3823,-2.107 -2.1361,-12.5069 -2.1361,-12.5069l12.0784 -0.9983z"/>
      <path id="_589100856" class="fil16" d="M190.83 212.986c-0.2657,-3.4711 2.3037,-5.0804 5.6044,-5.3331 3.3006,-0.2527 6.0849,0.9468 6.3506,4.418 0.1139,1.4873 -0.0848,3.8188 -6.1394,3.9695 -6.0545,0.1506 -5.7021,-1.5722 -5.8156,-3.0544z"/>
      <g style="clip-path:url(#id11)">
       <g>
        <path id="_5916130321" class="fil17" d="M196.611 209.583c6.1019,-0.5771 8.2716,8.8901 0.1863,9.1387 -7.9174,0.2435 -5.5501,-8.6315 -0.1863,-9.1387z"/>
        <path id="_591612408" class="fil17" d="M196.793 208.323c1.9024,-0.0398 2.5788,0.6132 0.058,0.6303 -2.4684,0.0168 -1.7303,-0.5953 -0.058,-0.6303z"/>
       </g>
      </g>
      <path class="fil5 str9" d="M190.83 212.986c-0.2657,-3.4711 2.3037,-5.0804 5.6044,-5.3331 3.3006,-0.2527 6.0849,0.9468 6.3506,4.418 0.1139,1.4873 -0.0848,3.8188 -6.1394,3.9695 -6.0545,0.1506 -5.7021,-1.5722 -5.8156,-3.0544z"/>
     </g>
    </g>
    <g>
     <path id="_589100736" class="fil18" d="M187.889 187.844c-0.0596,1.2457 -3.7696,18.4368 -3.7696,18.4368 0,0 -2.4096,1.8423 -11.4121,-0.57 -3.1711,-9.5366 -0.9073,-32.747 -0.7276,-33.3156l15.1762 -0.0347 0.6977 -0.0016 0.6977 -0.0016 15.1762 -0.0347c0.1823,0.5677 2.5523,23.7675 -0.5751,33.3185 -8.9914,2.4535 -11.4093,0.6223 -11.4093,0.6223 0,0 -3.7887,-17.174 -3.8541,-18.4194z"/>
     <g style="clip-path:url(#id12)">
      <g>
       <path id="_4846091441" class="fil19" d="M184.21 176.175c0,0 -0.6112,4.4901 0.3632,7.8025 0.9743,3.3125 3.3203,5.6709 3.3203,5.6709l-0.024 -13.6889 -3.6595 0.2155z"/>
      </g>
     </g>
     <path class="fil5 str11" d="M187.889 187.844c-0.0596,1.2457 -3.7696,18.4368 -3.7696,18.4368 0,0 -2.4096,1.8423 -11.4121,-0.57 -3.1711,-9.5366 -0.9073,-32.747 -0.7276,-33.3156l15.1762 -0.0347 0.6977 -0.0016 0.6977 -0.0016 15.1762 -0.0347c0.1823,0.5677 2.5523,23.7675 -0.5751,33.3185 -8.9914,2.4535 -11.4093,0.6223 -11.4093,0.6223 0,0 -3.7887,-17.174 -3.8541,-18.4194z"/>
     <path id="_589100664" class="fil19" d="M178.327 178.031c0,0 -1.634,13.1741 -1.529,17.5006 0.105,4.3265 0.2578,8.748 0.2578,8.748 0,0 1.3413,-16.4067 1.2712,-26.2486zm19.0799 -0.0437c0,0 1.6942,13.1665 1.609,17.4935 -0.0851,4.3269 -0.2177,8.749 -0.2177,8.749 0,0 -1.4163,-16.4003 -1.3913,-26.2425z"/>
    </g>
   </g>
   <path id="_589100544" class="fil12" d="M166.645 195.93c1.025,1.612 10.9915,4.875 21.2486,4.875 10.2572,0 20.2237,-3.263 21.2487,-4.875 0.2103,-0.3309 -4.0845,-40.8632 -8.2453,-43.2879 -6.4833,-3.778 -19.5235,-3.778 -26.0067,0 -4.1605,2.4245 -8.4558,42.9567 -8.2453,43.2879z"/>
   <g style="clip-path:url(#id13)">
    <g>
     <g>
      <path id="_5914711361" class="fil12" d="M172.409 149.724c0,0 9.6921,10.4611 12.1743,16.1336 2.4822,5.6725 1.9105,35.3823 1.9105,35.3823l-6.8507 -0.3192c0,0 2.0011,-28.1129 -2.9859,-36.0711 -4.987,-7.9582 -8.6784,-11.3904 -8.6784,-11.3904l4.4302 -3.7352z"/>
     </g>
     <g style="clip-path:url(#id14)">
      <g>
       <path id="_5904176962" class="fil13" d="M171.558 150.124c0,0 9.4915,10.759 11.7743,15.7336 2.2828,4.9746 2.2105,35.4823 2.2105,35.4823l-2.2254 -0.1596c0,0 2.4839,-27.9526 -2.5627,-36.4943 -5.0466,-8.5417 -10.2016,-13.819 -10.2016,-13.819l1.0049 -0.743z"/>
       <path id="_590417912" class="fil13" d="M168.937 150.718c0,0 9.4915,10.759 11.7743,15.7336 2.2828,4.9746 2.2105,35.4823 2.2105,35.4823l-2.2254 -0.1596c0,0 2.4839,-27.9526 -2.5627,-36.4943 -5.0466,-8.5417 -10.2016,-13.819 -10.2016,-13.819l1.0049 -0.743z"/>
      </g>
     </g>
     <g style="clip-path:url(#id15)">
      <path class="fil5 str7" d="M172.409 149.724c0,0 9.6921,10.4611 12.1743,16.1336 2.4822,5.6725 1.9105,35.3823 1.9105,35.3823l-6.8507 -0.3192c0,0 2.0011,-28.1129 -2.9859,-36.0711 -4.987,-7.9582 -8.6784,-11.3904 -8.6784,-11.3904l4.4302 -3.7352z"/>
      <path id="_591470872" class="fil12" d="M203.378 149.724c0,0 -9.6921,10.4611 -12.1743,16.1336 -2.4822,5.6725 -1.9105,35.3823 -1.9105,35.3823l6.8507 -0.3192c0,0 -2.0011,-28.1129 2.9859,-36.0711 4.987,-7.9582 8.6784,-11.3904 8.6784,-11.3904l-4.4302 -3.7352z"/>
     </g>
     <g style="clip-path:url(#id16)">
      <g>
       <path id="_5904234801" class="fil13" d="M204.23 150.124c0,0 -9.4915,10.759 -11.7743,15.7336 -2.2828,4.9746 -2.2105,35.4823 -2.2105,35.4823l2.2254 -0.1596c0,0 -2.4839,-27.9526 2.5627,-36.4943 5.0466,-8.5417 10.2016,-13.819 10.2016,-13.819l-1.0049 -0.743z"/>
       <path id="_590423216" class="fil13" d="M206.851 150.718c0,0 -9.4915,10.759 -11.7743,15.7336 -2.2828,4.9746 -2.2105,35.4823 -2.2105,35.4823l2.2254 -0.1596c0,0 -2.4839,-27.9526 2.5627,-36.4943 5.0466,-8.5417 10.2016,-13.819 10.2016,-13.819l-1.0049 -0.743z"/>
      </g>
     </g>
     <g style="clip-path:url(#id17)">
      <path class="fil5 str7" d="M203.378 149.724c0,0 -9.6921,10.4611 -12.1743,16.1336 -2.4822,5.6725 -1.9105,35.3823 -1.9105,35.3823l6.8507 -0.3192c0,0 -2.0011,-28.1129 2.9859,-36.0711 4.987,-7.9582 8.6784,-11.3904 8.6784,-11.3904l-4.4302 -3.7352z"/>
     </g>
     <g>
      <path id="_591471232" class="fil12" d="M217.377 156.774c0,0 -9.6921,10.4611 -12.1743,16.1336 -2.4822,5.6725 -1.9105,35.3823 -1.9105,35.3823l6.8507 -0.3192c0,0 -2.0011,-28.1129 2.9859,-36.0711 4.987,-7.9582 8.6784,-11.3904 8.6784,-11.3904l-4.4302 -3.7352z"/>
     </g>
     <g style="clip-path:url(#id18)">
      <g>
       <path id="_5904285681" class="fil13" d="M218.229 157.174c0,0 -9.4915,10.759 -11.7743,15.7336 -2.2828,4.9746 -2.2105,35.4823 -2.2105,35.4823l2.2254 -0.1596c0,0 -2.4839,-27.9526 2.5627,-36.4943 5.0466,-8.5417 10.2016,-13.819 10.2016,-13.819l-1.0049 -0.743z"/>
       <path id="_590428856" class="fil13" d="M220.849 157.768c0,0 -9.4915,10.759 -11.7743,15.7336 -2.2828,4.9746 -2.2105,35.4823 -2.2105,35.4823l2.2254 -0.1596c0,0 -2.4839,-27.9526 2.5627,-36.4943 5.0466,-8.5417 10.2016,-13.819 10.2016,-13.819l-1.0049 -0.743z"/>
      </g>
     </g>
     <g style="clip-path:url(#id19)">
      <path class="fil5 str7" d="M217.377 156.774c0,0 -9.6921,10.4611 -12.1743,16.1336 -2.4822,5.6725 -1.9105,35.3823 -1.9105,35.3823l6.8507 -0.3192c0,0 -2.0011,-28.1129 2.9859,-36.0711 4.987,-7.9582 8.6784,-11.3904 8.6784,-11.3904l-4.4302 -3.7352z"/>
      <path id="_591471712" class="fil12" d="M158.411 156.774c0,0 9.6921,10.4611 12.1743,16.1336 2.4822,5.6725 1.9105,35.3823 1.9105,35.3823l-6.8507 -0.3192c0,0 2.0011,-28.1129 -2.9859,-36.0711 -4.987,-7.9582 -8.6784,-11.3904 -8.6784,-11.3904l4.4302 -3.7352z"/>
     </g>
     <g style="clip-path:url(#id20)">
      <g>
       <path id="_5904447201" class="fil13" d="M157.559 157.174c0,0 9.4915,10.759 11.7743,15.7336 2.2828,4.9746 2.2105,35.4823 2.2105,35.4823l-2.2254 -0.1596c0,0 2.4839,-27.9526 -2.5627,-36.4943 -5.0466,-8.5417 -10.2016,-13.819 -10.2016,-13.819l1.0049 -0.743z"/>
       <path id="_590444456" class="fil13" d="M154.938 157.768c0,0 9.4915,10.759 11.7743,15.7336 2.2828,4.9746 2.2105,35.4823 2.2105,35.4823l-2.2254 -0.1596c0,0 2.4839,-27.9526 -2.5627,-36.4943 -5.0466,-8.5417 -10.2016,-13.819 -10.2016,-13.819l1.0049 -0.743z"/>
      </g>
     </g>
     <g style="clip-path:url(#id21)">
      <path class="fil5 str7" d="M158.411 156.774c0,0 9.6921,10.4611 12.1743,16.1336 2.4822,5.6725 1.9105,35.3823 1.9105,35.3823l-6.8507 -0.3192c0,0 2.0011,-28.1129 -2.9859,-36.0711 -4.987,-7.9582 -8.6784,-11.3904 -8.6784,-11.3904l4.4302 -3.7352z"/>
     </g>
    </g>
   </g>
   <path class="fil5 str8" d="M166.645 195.93c1.025,1.612 10.9915,4.875 21.2486,4.875 10.2572,0 20.2237,-3.263 21.2487,-4.875 0.2103,-0.3309 -4.0845,-40.8632 -8.2453,-43.2879 -6.4833,-3.778 -19.5235,-3.778 -26.0067,0 -4.1605,2.4245 -8.4558,42.9567 -8.2453,43.2879z"/>
  </g>
  <path class="fil3 str1" d="M181.536 146.185l12.7151 0 0 5.5158c0,1.6001 -2.8469,2.898 -6.3575,2.898 -3.5105,0 -6.3576,-1.2979 -6.3576,-2.898l0 -5.5158z"/>
  <g id="_589100208">
   <path id="_589100376" class="fil3 str1" d="M97.7561 169.437c1.9444,0.4343 5.009,-0.4656 5.3689,-0.0279 0.36,0.4377 0.3431,0.8008 -1.5846,2.3993 1.1029,1.5492 4.8949,0.4822 4.8644,2.0864 -0.0198,1.0355 -2.8661,0.8498 -3.7333,0.7405 0.195,1.7217 4.0868,0.934 3.6048,2.5881 -0.2998,1.0265 -3.4121,-0.0158 -4.2515,-0.4131 -0.6947,1.4719 2.8193,1.3678 2.1266,2.7454 -0.4616,0.9176 -3.0061,-0.5009 -3.7345,-0.9352 -0.9823,0.636 1.3727,1.3742 0.7883,2.1119 -0.477,0.6023 -1.0454,0.3643 -2.6789,-1.0602 -0.9026,-0.7874 -2.4447,-1.51 -3.7334,-2.5269 -1.1227,-0.2234 -10.2701,-2.2616 -16.5472,-10.4846 -6.6973,-8.7733 -6.9848,-14.2163 -4.264,-15.6757 2.7208,-1.4593 9.1339,7.4986 12.2944,11.3519 3.1605,3.8533 11.48,7.1002 11.48,7.1002l0 -0.0001z"/>
   <path id="_589100304" class="fil4 str2" d="M79.2575 167.905c-0.344,-0.3985 -0.6821,-0.8123 -1.0118,-1.2443 -6.6973,-8.7733 -6.9848,-14.2163 -4.264,-15.6757 2.6368,-1.4143 8.7412,6.9552 11.9925,10.9807 -1.9026,2.2758 -4.4258,4.5278 -6.7167,5.9393z"/>
   <path id="_589100232" class="fil5 str1" d="M97.3344 175.668c0,0 2.0072,0.5522 2.4031,-1.9108"/>
  </g>
  <g id="_589099560">
   <path id="_589100136" class="fil0 str0" d="M79.3344 136.449c0,0 6.9866,3.8292 7.1882,8.0614 0.1967,4.1333 0.5828,13.2695 6.584,14.0238 1.8239,0.229 -4.8986,2.2102 -7.323,-0.6551 -3.6947,-4.3664 -2.3589,-7.378 -8.5318,-8.8677 -6.1727,-1.4896 -6.9193,-2.8215 -6.9193,-2.8215l9.0019 -9.7409z"/>
   <g>
    <path id="_589100064" class="fil0 str0" d="M41.7098 136.449c0,0 -6.9866,3.8292 -7.1881,8.0614 -0.1968,4.1333 -0.5829,13.2695 -6.5841,14.0238 -1.8238,0.229 4.8987,2.2102 7.323,-0.6551 3.6947,-4.3664 2.359,-7.378 8.5318,-8.8677 6.1728,-1.4896 6.9194,-2.8215 6.9194,-2.8215l-9.002 -9.7409z"/>
    <path id="_589099992" class="fil15 str0" d="M34.0472 149.901c-0.1713,1.0846 -0.409,2.1844 -0.7453,3.2207 1.2188,-0.0599 2.794,0.1151 4.3648,1.0002 0.6543,-1.2944 1.1665,-2.3952 2.1783,-3.2926 -1.2009,-0.9536 -3.0799,-1.496 -5.7978,-0.9283z"/>
    <path id="_589099920" class="fil2" d="M41.4252 140.322c0,0 -4.2818,3.3841 -4.2565,7.7139 0,0 1.849,-3.8798 4.2565,-7.7139z"/>
    <path id="_589099848" class="fil15 str0" d="M86.9971 149.901c0.1712,1.0846 0.409,2.1844 0.7452,3.2207 -1.2187,-0.0599 -2.7939,0.1151 -4.3647,1.0002 -0.6543,-1.2944 -1.1666,-2.3952 -2.1783,-3.2926 1.2008,-0.9536 3.0798,-1.496 5.7978,-0.9283z"/>
    <g>
     <path id="_589099776" class="fil2" d="M79.6191 140.322c0,0 4.2818,3.3841 4.2564,7.7139 0,0 -1.849,-3.8798 -4.2564,-7.7139z"/>
     <path id="_589099704" class="fil2" d="M75.5377 139.194c0,0 4.2818,3.3841 4.2565,7.7139 0,0 -1.849,-3.8798 -4.2565,-7.7139z"/>
    </g>
   </g>
   <path id="_589099584" class="fil2" d="M45.5065 139.194c0,0 -4.2818,3.3841 -4.2564,7.7139 0,0 1.8489,-3.8798 4.2564,-7.7139z"/>
  </g>
  <g id="_589096248">
   <path id="_589099488" class="fil20 str12" d="M69.4546 205.976c-3.5586,0.2888 -6.1551,4.0916 -5.9172,7.0233 0.2379,2.9317 3.2203,3.8835 6.779,3.5947 3.5586,-0.2888 6.3483,-1.7091 6.1104,-4.6407 -0.2379,-2.9317 -3.4135,-6.2661 -6.9722,-5.9773z"/>
   <path id="_589099416" class="fil20 str12" d="M51.6351 206.016c3.5599,0.2725 6.1738,4.0634 5.9493,6.9961 -0.2245,2.9328 -3.2025,3.8983 -6.7624,3.6257 -3.56,-0.2725 -6.3561,-1.68 -6.1316,-4.6127 0.2245,-2.9328 3.3848,-6.2817 6.9447,-6.0091z"/>
   <path id="_589099344" class="fil3" d="M45.76 180.575c0,0 -1.3885,11.1414 -1.5391,15.1086 -0.1507,3.9673 1.9465,10.5551 1.766,12.9132 -0.1805,2.3582 -1.022,5.3544 1.6288,5.7103 2.6507,0.356 5.9803,0.8404 7.7823,0.2897 1.802,-0.5507 2.1056,-2.5168 1.081,-4.1256 -1.0246,-1.6087 -0.7892,-13.6801 -0.3921,-15.8686 0.3971,-2.1885 2.2187,-12.9907 2.2187,-12.9907l-12.5456 -1.0369z"/>
   <g style="clip-path:url(#id22)">
    <g>
     <path id="_5960882721" class="fil5 str4" d="M54.5759 213.463c0,0 0.4986,-0.4987 1.3747,-0.2528m-8.399 -0.9743c0,0 -0.8797,2.0972 1.1708,2.2203m5.1001 -1.9773c0,0 -0.8797,2.097 1.1709,2.2202m-3.312 -2.0777c0,0 -0.8797,2.0971 1.171,2.2203m-3.2243 -2.3579c0,0 -0.8796,2.0971 1.171,2.22m-4.2485 -1.7345c0,0 0.1753,-0.1756 0.4836,-0.0889m1.0553 0.5902c0,0 0.3164,-0.3166 0.8725,-0.1606m1.1574 0.3671c0,0 0.3165,-0.3167 0.8725,-0.1605m1.1484 0.0878c0,0 0.3164,-0.3166 0.8724,-0.1604"/>
     <path id="_596088680" class="fil20" d="M45.3903 203.881c0.0806,0.4062 0.1584,0.8022 0.2303,1.1834 1.966,0.3477 4.0949,0.5383 6.3185,0.5383 1.3405,0 2.6464,-0.0697 3.9033,-0.2008 -0.0139,-0.3711 -0.0252,-0.7513 -0.0339,-1.1378 -1.2464,0.1287 -2.541,0.1968 -3.8694,0.1968 -2.3108,0 -4.5192,-0.2058 -6.5488,-0.5799z"/>
    </g>
    <g style="clip-path:url(#id23)">
     <g>
      <path id="_5960925681" class="fil5 str4" d="M54.613 213.403c0,0 0.4986,-0.4987 1.3747,-0.2528m-8.399 -0.9743c0,0 -0.8797,2.0972 1.1708,2.2203m5.1001 -1.9773c0,0 -0.8797,2.097 1.1709,2.2202m-3.312 -2.0777c0,0 -0.8797,2.0971 1.171,2.2203m-3.2243 -2.3579c0,0 -0.8796,2.0971 1.171,2.22m-4.2485 -1.7345c0,0 0.1753,-0.1756 0.4836,-0.0889m1.0553 0.5902c0,0 0.3164,-0.3166 0.8725,-0.1606m1.1574 0.3671c0,0 0.3165,-0.3167 0.8725,-0.1605m1.1484 0.0878c0,0 0.3164,-0.3166 0.8724,-0.1604"/>
     </g>
    </g>
    <g style="clip-path:url(#id24)">
     <path class="fil5" d="M45.3903 203.881c0.0806,0.4062 0.1584,0.8022 0.2303,1.1834 1.966,0.3477 4.0949,0.5383 6.3185,0.5383 1.3405,0 2.6464,-0.0697 3.9033,-0.2008 -0.0139,-0.3711 -0.0252,-0.7513 -0.0339,-1.1378 -1.2464,0.1287 -2.541,0.1968 -3.8694,0.1968 -2.3108,0 -4.5192,-0.2058 -6.5488,-0.5799z"/>
    </g>
   </g>
   <path class="fil5 str13" d="M45.76 180.575c0,0 -1.3885,11.1414 -1.5391,15.1086 -0.1507,3.9673 1.9465,10.5551 1.766,12.9132 -0.1805,2.3582 -1.022,5.3544 1.6288,5.7103 2.6507,0.356 5.9803,0.8404 7.7823,0.2897 1.802,-0.5507 2.1056,-2.5168 1.081,-4.1256 -1.0246,-1.6087 -0.7892,-13.6801 -0.3921,-15.8686 0.3971,-2.1885 2.2187,-12.9907 2.2187,-12.9907l-12.5456 -1.0369z"/>
   <path id="_589099272" class="fil20 str12" d="M57.2373 213.916c0.1372,-0.5011 0.2282,-1.004 0.2659,-1.4965 0.276,-3.6054 -2.3928,-5.277 -5.8211,-5.5394 -3.4284,-0.2625 -6.3203,0.9834 -6.5963,4.5888 -0.0377,0.4925 -0.0243,1.0034 0.035,1.5195 0.8218,-2.5702 3.3817,-3.4683 6.3418,-3.2417 2.9602,0.2266 5.3537,1.5039 5.7747,4.1693z"/>
   <path id="_589099200" class="fil3" d="M75.2132 180.508c0,0 1.4395,11.1349 1.6083,15.1014 0.1688,3.9666 -1.8982,10.5639 -1.7069,12.9212 0.1913,2.3573 1.0465,5.3496 -1.6026,5.7177 -2.6491,0.368 -5.9765,0.8677 -7.781,0.3253 -1.8045,-0.5425 -2.117,-2.5072 -1.0998,-4.1206 1.0172,-1.6134 0.7265,-13.6836 0.3194,-15.8703 -0.4071,-2.1867 -2.2781,-12.9804 -2.2781,-12.9804l12.5407 -1.0943z"/>
   <g style="clip-path:url(#id25)">
    <g>
     <path id="_4846279121" class="fil5 str4" d="M66.5536 213.437c0,0 -0.4986,-0.4987 -1.3748,-0.2527m8.399 -0.9744c0,0 0.8798,2.0972 -1.1708,2.2203m-5.1001 -1.9773c0,0 0.8797,2.0969 -1.1708,2.2202m3.3119 -2.0778c0,0 0.8799,2.0972 -1.1709,2.2205m3.2244 -2.358c0,0 0.8797,2.0971 -1.1712,2.2201m4.2485 -1.7347c0,0 -0.1753,-0.1755 -0.4835,-0.0888m-1.0553 0.5903c0,0 -0.3164,-0.3167 -0.8724,-0.1607m-1.1575 0.3671c0,0 -0.3164,-0.3167 -0.8724,-0.1606m-1.1485 0.088c0,0 -0.3162,-0.3168 -0.8724,-0.1604"/>
    </g>
   </g>
   <path class="fil5 str13" d="M75.2132 180.508c0,0 1.4395,11.1349 1.6083,15.1014 0.1688,3.9666 -1.8982,10.5639 -1.7069,12.9212 0.1913,2.3573 1.0465,5.3496 -1.6026,5.7177 -2.6491,0.368 -5.9765,0.8677 -7.781,0.3253 -1.8045,-0.5425 -2.117,-2.5072 -1.0998,-4.1206 1.0172,-1.6134 0.7265,-13.6836 0.3194,-15.8703 -0.4071,-2.1867 -2.2781,-12.9804 -2.2781,-12.9804l12.5407 -1.0943z"/>
   <path id="_589099128" class="fil20 str12" d="M63.8886 213.901c-0.1394,-0.5005 -0.2328,-1.003 -0.2727,-1.4953 -0.2925,-3.6041 2.3686,-5.2878 5.7957,-5.566 3.4271,-0.2781 6.3248,0.9545 6.6173,4.5586 0.0399,0.4923 0.0288,1.0033 -0.0281,1.5197 -0.8336,-2.5664 -3.3975,-3.4529 -6.3566,-3.2127 -2.9591,0.2401 -5.3468,1.5284 -5.7556,4.1957z"/>
   <g>
    <path id="_589099056" class="fil4 str2" d="M39.2735 199.092c1.025,1.6121 10.9915,4.875 21.2486,4.875 10.2572,0 20.2237,-3.2629 21.2487,-4.875 0.2104,-0.3309 -4.0844,-46.9632 -8.2453,-49.3879 -6.4833,-3.7781 -19.5235,-3.7781 -26.0067,0 -4.1606,2.4245 -8.4559,49.0567 -8.2453,49.3879z"/>
    <g>
     <g>
      <circle id="_589098984" class="fil11" cx="52.7813" cy="151.223" r="0.335961"/>
      <circle id="_589098912" class="fil20" transform="matrix(0.111534 -0.111534 0.223068 0.223068 53.3678 151.79)" r="1.5224"/>
      <circle id="_589098840" class="fil11" cx="53.9221" cy="152.388" r="0.335961"/>
      <circle id="_589098768" class="fil20" transform="matrix(0.111534 -0.111534 0.223068 0.223068 54.5085 152.956)" r="1.5224"/>
      <circle id="_589098696" class="fil11" transform="matrix(0.213145 -0.0571695 0.0571695 0.213145 55.1608 153.418)" r="1.5224"/>
      <circle id="_589098624" class="fil20" transform="matrix(0.0788319 -0.13662 0.273241 0.157664 55.8742 153.814)" r="1.5224"/>
      <circle id="_589098552" class="fil11" transform="matrix(0.194964 -0.103383 0.103383 0.194964 56.5853 154.215)" r="1.5224"/>
      <circle id="_589098480" class="fil20" transform="matrix(0.0462861 -0.150788 0.301577 0.0925723 57.3692 154.442)" r="1.5224"/>
      <circle id="_589098408" class="fil11" transform="matrix(0.194964 -0.103383 0.103383 0.194964 58.1288 154.733)" r="1.5224"/>
      <circle id="_589098336" class="fil20" transform="matrix(0.0462861 -0.150788 0.301577 0.0925723 58.9127 154.959)" r="1.5224"/>
      <circle id="_589098264" class="fil11" transform="matrix(0.168388 -0.142634 0.142634 0.168388 59.7077 155.1)" r="1.5224"/>
      <circle id="_589098192" class="fil20" transform="matrix(0.0130162 -0.157195 0.314389 0.0260323 60.522 155.154)" r="1.5224"/>
      <circle id="_589098120" class="fil11" transform="matrix(0.21365 0.0552499 -0.0552499 0.21365 51.8997 149.852)" r="1.5224"/>
      <circle id="_589098048" class="fil20" transform="matrix(0.135906 -0.0800577 0.160115 0.271811 52.3254 150.548)" r="1.5224"/>
      <circle id="_589097976" class="fil11" transform="matrix(0.158468 0.15358 -0.15358 0.158468 51.7818 148.231)" r="1.5224"/>
      <circle id="_589097904" class="fil20" transform="matrix(0.157713 -0.00247052 0.00494104 0.315427 51.808 149.047)" r="1.5224"/>
     </g>
     <g>
      <circle id="_589097808" class="fil11" cx="68.263" cy="151.223" r="0.335961"/>
      <circle id="_589097736" class="fil20" transform="matrix(-0.111534 -0.111534 -0.223068 0.223068 67.6766 151.79)" r="1.5224"/>
      <circle id="_589097664" class="fil11" cx="67.1222" cy="152.388" r="0.335961"/>
      <circle id="_589097592" class="fil20" transform="matrix(-0.111534 -0.111534 -0.223068 0.223068 66.5358 152.956)" r="1.5224"/>
      <circle id="_589097520" class="fil11" transform="matrix(-0.213145 -0.0571695 -0.0571695 0.213145 65.8835 153.418)" r="1.5224"/>
      <circle id="_589097448" class="fil20" transform="matrix(-0.0788319 -0.13662 -0.273241 0.157664 65.1701 153.814)" r="1.5224"/>
      <circle id="_589097376" class="fil11" transform="matrix(-0.194964 -0.103383 -0.103383 0.194964 64.4591 154.215)" r="1.5224"/>
      <circle id="_589097304" class="fil20" transform="matrix(-0.0462861 -0.150788 -0.301577 0.0925723 63.6751 154.442)" r="1.5224"/>
      <circle id="_589097232" class="fil11" transform="matrix(-0.194964 -0.103383 -0.103383 0.194964 62.9156 154.733)" r="1.5224"/>
      <circle id="_589097160" class="fil20" transform="matrix(-0.0462861 -0.150788 -0.301577 0.0925723 62.1316 154.96)" r="1.5224"/>
      <circle id="_589097088" class="fil11" transform="matrix(-0.168388 -0.142634 -0.142634 0.168388 61.3366 155.1)" r="1.5224"/>
      <circle id="_589097016" class="fil11" transform="matrix(-0.21365 0.0552499 0.0552499 0.21365 69.1446 149.852)" r="1.5224"/>
      <circle id="_589096944" class="fil20" transform="matrix(-0.135906 -0.0800577 -0.160115 0.271811 68.7189 150.548)" r="1.5224"/>
      <circle id="_589096872" class="fil11" transform="matrix(-0.158468 0.15358 0.15358 0.158468 69.2625 148.231)" r="1.5224"/>
      <circle id="_589096800" class="fil20" transform="matrix(-0.157713 -0.00247052 -0.00494104 0.315427 69.2363 149.047)" r="1.5224"/>
     </g>
    </g>
   </g>
   <g>
    <path id="_589096656" class="fil20" d="M52.5987 172.472c0,0 -2.5861,6.7352 -3.3716,13.8703 -0.7852,7.135 -0.064,12.8541 -0.064,12.8541 0,0 1.4953,-9.2164 3.4356,-26.7244z"/>
    <path id="_589096584" class="fil20" d="M58.0778 174.672c0,0 -1.9744,7.8458 -2.1516,15.2154 -0.1769,7.369 1.0047,12.625 1.0047,12.625 0,0 0.6997,-9.7508 1.1469,-27.8404z"/>
    <path id="_589096512" class="fil20" d="M62.9666 174.672c0,0 1.9743,7.8461 2.1514,15.2154 0.1772,7.369 -1.0046,12.625 -1.0046,12.625 0,0 -0.6997,-9.7512 -1.1468,-27.8404z"/>
    <path id="_589096440" class="fil20" d="M68.4457 172.472c0,0 2.586,6.7352 3.3714,13.8702 0.7855,7.1348 0.0641,12.8542 0.0641,12.8542 0,0 -1.4953,-9.2166 -3.4355,-26.7244z"/>
    <path id="_589096368" class="fil20" d="M72.8835 170.419c0,0 2.8348,6.1265 3.8923,13.0544 1.0575,6.9281 0.5603,12.784 0.5603,12.784 0,0 -1.8446,-8.8412 -4.4526,-25.8384z"/>
    <path id="_589096296" class="fil20" d="M48.1609 170.419c0,0 -2.8348,6.1265 -3.8924,13.0544 -1.0575,6.9281 -0.5602,12.784 -0.5602,12.784 0,0 1.8446,-8.8412 4.4526,-25.8384z"/>
   </g>
  </g>
  <path class="fil3 str1" d="M54.0102 143.16l13.0238 0 0 5.6497c0,1.639 -2.9159,2.9683 -6.5118,2.9683 -3.5957,0 -6.512,-1.3293 -6.512,-2.9683l0 -5.6497z"/>
  <g id="_589096008">
   <path id="_589096104" class="fil3 str1" d="M54.2138 163.905c1.2088,-1.5837 1.6757,-4.743 2.2239,-4.8866 0.5482,-0.1435 0.871,0.024 1.5146,2.4441 1.8689,-0.3523 2.4888,-4.2426 3.9325,-3.5428 0.932,0.4519 -0.4291,2.9585 -0.8917,3.7002 1.645,0.5442 2.5603,-3.3196 3.8602,-2.189 0.8065,0.7023 -1.4439,3.0918 -2.1562,3.6875 1.0454,1.2472 2.4231,-1.987 3.3838,-0.7809 0.6398,0.8036 -1.7143,2.5198 -2.4138,2.9992 0.1659,1.1584 1.8229,-0.6708 2.248,0.169 0.347,0.6854 -0.1074,1.1018 -2.0852,1.9882 -1.1007,0.4931 -2.4133,1.6025 -3.8891,2.3468l0.0982 -0.1102 -0.0982 0.1102c0,0 -6.9389,7.6866 -13.7591,7.8062 -4.7843,0.0838 -7.1153,-6.7748 -6.8961,-11.979 0.4643,-11.0274 4.3355,-15.4233 6.7501,-14.7764 2.4147,0.647 2.6779,9.5572 2.0771,13.4682 -0.5267,3.4271 1.5694,4.1898 6.1008,-0.4546l0.0002 -0.0001z"/>
   <path id="_589096032" class="fil4 str2" d="M39.2979 165.407c0.514,-10.8355 4.3423,-15.1579 6.7378,-14.5161 2.4147,0.647 2.6779,9.5572 2.0771,13.4682 -0.2009,1.3075 -0.0197,2.2265 0.5325,2.6061 -2.2343,0.5063 -6.3311,-0.2758 -9.3474,-1.5582z"/>
  </g>
  <g id="_589094976">
   <path id="_589095936" class="fil3 str1" d="M33.0275 125.426c0.7706,-0.4449 2.1171,0.4441 3.0069,1.9853 0.8898,1.5412 0.9865,3.1518 0.2159,3.5967 -0.7706,0.4449 -2.1171,-0.4441 -3.0069,-1.9853 -0.8898,-1.5412 -0.9865,-3.1518 -0.2159,-3.5967zm54.989 0c-0.7706,-0.4449 -2.1171,0.4441 -3.0069,1.9853 -0.8898,1.5412 -0.9865,3.1518 -0.2159,3.5967 0.7706,0.4449 2.1171,-0.4441 3.0069,-1.9853 0.8898,-1.5412 0.9865,-3.1518 0.2159,-3.5967z"/>
   <path id="_589095864" class="fil3 str1" d="M60.5221 96.3989c27.5756,0 25.331,17.4867 25.331,31.4742 0,13.9875 -11.3435,19.1879 -25.331,19.1879 -13.9875,0 -25.3311,-5.2004 -25.3311,-19.1879 0,-13.9875 -2.2446,-31.4742 25.3311,-31.4742z"/>
   <path id="_589095792" class="fil5 str1" d="M58.4429 130.382c0,0 2.0466,1.2541 4.1584,0"/>
   <path id="_589095720" class="fil0 str0" d="M53.1722 108.684c-0.5102,0.5597 -0.6686,2.7948 -5.7382,2.9452 -5.0695,0.1503 -5.9434,1.0812 -8.0474,6.4185 -2.104,5.3372 -3.4785,15.9207 -3.4785,15.9207 0,0 -1.4946,-6.8381 -3.1204,-11.3326 -1.6258,-4.4945 -1.7214,-16.4798 8.416,-22.5661 8.947,-5.3718 17.4457,-5.3461 19.3184,-5.2658 1.8727,-0.0803 10.3714,-0.106 19.3184,5.2658 10.1374,6.0863 10.0418,18.0716 8.416,22.5661 -1.6258,4.4945 -3.1204,11.3326 -3.1204,11.3326 0,0 -1.3745,-10.5835 -3.4785,-15.9207 -2.104,-5.3373 -17.6778,-6.2682 -22.7473,-6.4185 -5.0695,-0.1504 -5.2279,-2.3855 -5.7381,-2.9452z"/>
   <path id="_589095648" class="fil2" d="M77.5133 102.196c0,0 4.0228,3.1794 3.999,7.2473 0,0 -1.7372,-3.6451 -3.999,-7.2473z"/>
   <path id="_589095576" class="fil2" d="M70.3397 99.8785c0,0 4.0229,3.1794 3.999,7.2474 0,0 -1.7371,-3.6452 -3.999,-7.2474z"/>
   <path id="_589095504" class="fil2" d="M62.9368 97.8383c0,0 4.0228,3.1794 3.999,7.2474 0,0 -1.7372,-3.6452 -3.999,-7.2474z"/>
   <path id="_589095432" class="fil2" d="M45.3755 99.8785c0,0 -4.0229,3.1794 -3.999,7.2474 0,0 1.7371,-3.6452 3.999,-7.2474z"/>
   <path id="_589095360" class="fil9" d="M43.7179 131.994c1.687,0 3.0552,1.368 3.0552,3.0552 0,1.6872 -1.3682,3.0552 -3.0552,3.0552 -1.6872,0 -3.0554,-1.368 -3.0554,-3.0552 0,-1.6872 1.3682,-3.0552 3.0554,-3.0552zm33.6084 0c1.6871,0 3.0553,1.3682 3.0553,3.0552 0,1.6873 -1.3682,3.0553 -3.0553,3.0553 -1.6871,0 -3.0553,-1.368 -3.0553,-3.0553 0,-1.687 1.3682,-3.0552 3.0553,-3.0552z"/>
   <path id="_589095288" class="fil11" d="M46.55 121.969c1.6523,0.4427 2.7683,1.6395 2.4915,2.6723 -0.2767,1.0329 -1.8416,1.5113 -3.4939,1.0686 -1.6523,-0.4427 -2.7683,-1.6395 -2.4915,-2.6723 0.2768,-1.0329 1.8416,-1.5113 3.4939,-1.0686z"/>
   <g style="clip-path:url(#id26)">
    <g>
     <circle id="_591608808" class="fil0" cx="46.0487" cy="123.84" r="1.99056"/>
    </g>
   </g>
   <path class="fil5 str0" d="M46.55 121.969c1.6523,0.4427 2.7683,1.6395 2.4915,2.6723 -0.2767,1.0329 -1.8416,1.5113 -3.4939,1.0686 -1.6523,-0.4427 -2.7683,-1.6395 -2.4915,-2.6723 0.2768,-1.0329 1.8416,-1.5113 3.4939,-1.0686z"/>
   <path id="_589095216" class="fil0" d="M42.0422 120.565c0,0 4.3353,-0.7039 8.6706,0.3986 0,0 -3.4882,-4.6841 -8.6706,-0.3986z"/>
   <path id="_589095144" class="fil11" d="M74.6094 121.969c-1.6523,0.4427 -2.7682,1.6395 -2.4915,2.6723 0.2768,1.0329 1.8416,1.5113 3.4939,1.0686 1.6523,-0.4427 2.7683,-1.6395 2.4915,-2.6723 -0.2767,-1.0329 -1.8415,-1.5113 -3.4939,-1.0686z"/>
   <g style="clip-path:url(#id27)">
    <g>
     <circle id="_591628872" class="fil0" cx="75.1107" cy="123.84" r="1.99056"/>
    </g>
   </g>
   <path class="fil5 str0" d="M74.6094 121.969c-1.6523,0.4427 -2.7682,1.6395 -2.4915,2.6723 0.2768,1.0329 1.8416,1.5113 3.4939,1.0686 1.6523,-0.4427 2.7683,-1.6395 2.4915,-2.6723 -0.2767,-1.0329 -1.8415,-1.5113 -3.4939,-1.0686z"/>
   <path id="_589095072" class="fil0" d="M79.1173 120.565c0,0 -4.3353,-0.7039 -8.6707,0.3986 0,0 3.4882,-4.6841 8.6707,-0.3986z"/>
   <path id="_589095000" class="fil10 str6" d="M65.3043 138.042c0,2.6406 -2.1416,4.7822 -4.7822,4.7822 -2.6406,0 -4.7822,-2.1416 -4.7822,-4.7822l9.5644 0z"/>
  </g>
  <path class="fil11 str14" d="M246.697 101.124c12.0503,0 21.8227,6.3272 21.8227,14.1292 0,7.8021 -9.7724,14.1293 -21.8227,14.1293 -5.935,0 -11.3167,-1.5354 -15.2508,-4.0254l-8.0449 4.01 4.0251 -7.4806c-1.628,-1.9781 -2.552,-4.2358 -2.552,-6.6333 0,-7.802 9.7724,-14.1292 21.8226,-14.1292z"/>
  <path class="fil21" d="M234.004 113.142c0,0.2498 -0.1746,0.3948 -0.5239,0.435 -0.3492,0.0402 -0.5683,0.0688 -0.6572,0.0857l0.0381 2.9972c0,0.2244 -0.0148,0.3926 -0.0444,0.5048 -0.0297,0.1122 -0.0932,0.1683 -0.1905,0.1683 -0.1143,0 -0.2043,-0.0826 -0.2699,-0.2477 -0.0656,-0.1651 -0.0984,-0.381 -0.0984,-0.6477 -0.0043,-0.1735 -0.0085,-0.437 -0.0127,-0.7905 -0.0043,-0.3535 -0.0096,-0.7345 -0.0159,-1.143 -0.0064,-0.4085 -0.0095,-0.6657 -0.0095,-0.7716 -0.072,-0.0169 -0.1609,-0.0254 -0.2667,-0.0254 -0.1101,0 -0.2181,0.0075 -0.3239,0.0223 -0.1058,0.0148 -0.199,0.0264 -0.2794,0.0349 -0.0974,0 -0.1715,-0.0148 -0.2223,-0.0445 -0.0719,-0.0423 -0.1079,-0.1164 -0.1079,-0.2222 0,-0.1609 0.1206,-0.2688 0.362,-0.3239 0.1651,-0.0381 0.4402,-0.0571 0.8255,-0.0571l0.3556 0c0.0592,-0.0085 0.273,-0.0423 0.6413,-0.1016 0.2625,-0.0423 0.4212,-0.0635 0.4763,-0.0635 0.0846,0 0.1598,0.0148 0.2254,0.0444 0.0656,0.0297 0.0984,0.0784 0.0984,0.1461zm2.5909 2.1272c0,0.5588 -0.1355,1.0393 -0.4064,1.4415 -0.2837,0.4191 -0.635,0.6286 -1.0541,0.6286 -0.398,0 -0.7197,-0.1418 -0.9652,-0.4254 -0.3048,-0.3514 -0.4572,-0.889 -0.4572,-1.6129 0,-0.5038 0.091,-1.0255 0.273,-1.5653 0.182,-0.5397 0.3683,-0.8096 0.5588,-0.8096 0.1651,0 0.2477,0.1037 0.2477,0.3111 0,0.1143 -0.0889,0.4361 -0.2667,0.9652 -0.1778,0.5292 -0.2667,0.8996 -0.2667,1.1113 0,0.5334 0.0889,0.9144 0.2667,1.143 0.1439,0.1863 0.3513,0.2794 0.6223,0.2794 0.2836,0 0.5016,-0.1588 0.654,-0.4763 0.1355,-0.2794 0.2032,-0.6392 0.2032,-1.0795 0,-0.127 -0.0307,-0.4243 -0.0921,-0.8921 -0.0614,-0.4678 -0.092,-0.744 -0.092,-0.8287 0,-0.326 0.091,-0.5017 0.273,-0.5271 0.1524,-0.0169 0.2773,0.2286 0.3747,0.7366 0.0846,0.4488 0.127,0.9822 0.127,1.6002zm-0.508 -2.9083c0,0.0932 -0.0995,0.2011 -0.2985,0.3239 -0.0635,0.0381 -0.163,0.0889 -0.2984,0.1524l-0.5144 0c0.1651,-0.1778 0.29,-0.3112 0.3747,-0.4001 0.2624,-0.2667 0.4275,-0.4 0.4953,-0.4 0.1058,0 0.1756,0.0296 0.2095,0.0889 0.0212,0.0381 0.0318,0.1164 0.0318,0.2349zm6.1722 4.4958c0,0.0889 -0.0593,0.162 -0.1778,0.2191 -0.1186,0.0572 -0.2794,0.0857 -0.4826,0.0857 -0.5292,0 -0.9843,-0.1566 -1.3653,-0.4699 -0.4318,-0.3556 -0.6477,-0.8382 -0.6477,-1.4478 0,-0.5037 0.2286,-1.016 0.6858,-1.5367 0.436,-0.4953 0.834,-0.7429 1.1938,-0.7429 0.0889,0 0.1545,0.0212 0.1969,0.0635 0.0423,0.0423 0.0635,0.0889 0.0635,0.1397 -0.4107,0.3133 -0.7705,0.6392 -1.0795,0.9779 -0.3387,0.3725 -0.508,0.7853 -0.508,1.2382 0,0.381 0.182,0.6668 0.5461,0.8573 0.1693,0.0889 0.5101,0.1926 1.0223,0.3111 0.3683,0.0847 0.5525,0.1863 0.5525,0.3048zm2.3749 0.127c0,0.1651 -0.0159,0.2921 -0.0477,0.381 -0.0317,0.0889 -0.0899,0.1334 -0.1746,0.1334 -0.1185,0 -0.2265,-0.1799 -0.3238,-0.5398 -0.0551,-0.2328 -0.108,-0.4677 -0.1588,-0.7048l-1.0795 0c-0.0593,0.2286 -0.1185,0.4572 -0.1778,0.6858 -0.0804,0.2752 -0.1968,0.4127 -0.3492,0.4127 -0.0889,0 -0.1419,-0.0127 -0.1588,-0.0381 -0.0339,-0.0508 -0.0508,-0.1375 -0.0508,-0.2603 0,-0.1016 0.0074,-0.217 0.0222,-0.3461 0.0148,-0.1291 0.0519,-0.3058 0.1112,-0.5302 0.0592,-0.2244 0.1185,-0.4456 0.1778,-0.6636 0.0592,-0.218 0.1735,-0.6276 0.3429,-1.2287 0.127,-0.4487 0.201,-0.6858 0.2222,-0.7112 0.1185,-0.4149 0.2942,-0.6223 0.5271,-0.6223 0.1143,0 0.2307,0.091 0.3492,0.273 0.1185,0.1821 0.2032,0.4128 0.254,0.6922 0.0169,0.0296 0.0582,0.2191 0.1238,0.5683 0.0656,0.3493 0.126,0.6763 0.181,0.9811 0.0296,0.1736 0.0593,0.3429 0.0889,0.508 0.0296,0.1651 0.0572,0.3556 0.0826,0.5715 0.0254,0.2159 0.0381,0.3619 0.0381,0.4381zm-0.7811 -1.2763l-0.3302 -2.0511 -0.5651 2.0511 0.8953 0zm3.8735 -1.4542l0 1.7018 0 0.2731c0,0.5715 -0.0265,0.9588 -0.0794,1.162 -0.0529,0.2033 -0.1301,0.3049 -0.2317,0.3049 -0.2075,0 -0.4107,-0.18 -0.6096,-0.5398 -0.1016,-0.1863 -0.2742,-0.5937 -0.5176,-1.2224 -0.2434,-0.6286 -0.4498,-1.089 -0.6191,-1.3811 0,0.1355 0.0042,0.4138 0.0127,0.835 0.0085,0.4212 0.0127,0.6678 0.0127,0.7398 0,0.4106 -0.0169,0.726 -0.0508,0.9461 -0.0339,0.2202 -0.0995,0.3302 -0.1968,0.3302 -0.1397,0 -0.2403,-0.1174 -0.3017,-0.3524 -0.0614,-0.2349 -0.092,-0.5577 -0.092,-0.9684l0 -1.7907c0,-0.3937 0.0201,-0.6953 0.0603,-0.9048 0.0402,-0.2096 0.1196,-0.3144 0.2381,-0.3144 0.1439,0 0.3408,0.2392 0.5906,0.7176 0.1651,0.3175 0.3862,0.8075 0.6635,1.47 0.2773,0.6625 0.4562,1.0763 0.5366,1.2414l-0.0444 -2.1145c0,-0.4995 0.0232,-0.8869 0.0698,-1.1621 0.0466,-0.2751 0.1291,-0.4127 0.2477,-0.4127 0.1164,0 0.1968,0.1249 0.2423,0.3746 0.0455,0.2498 0.0688,0.6054 0.0688,1.0668zm3.029 -1.1112c0,0.2498 -0.1746,0.3948 -0.5239,0.435 -0.3492,0.0402 -0.5683,0.0688 -0.6572,0.0857l0.0381 2.9972c0,0.2244 -0.0148,0.3926 -0.0444,0.5048 -0.0297,0.1122 -0.0932,0.1683 -0.1905,0.1683 -0.1143,0 -0.2043,-0.0826 -0.2699,-0.2477 -0.0656,-0.1651 -0.0984,-0.381 -0.0984,-0.6477 -0.0043,-0.1735 -0.0085,-0.437 -0.0127,-0.7905 -0.0043,-0.3535 -0.0096,-0.7345 -0.0159,-1.143 -0.0064,-0.4085 -0.0095,-0.6657 -0.0095,-0.7716 -0.072,-0.0169 -0.1609,-0.0254 -0.2667,-0.0254 -0.1101,0 -0.2181,0.0075 -0.3239,0.0223 -0.1058,0.0148 -0.199,0.0264 -0.2794,0.0349 -0.0974,0 -0.1715,-0.0148 -0.2223,-0.0445 -0.0719,-0.0423 -0.1079,-0.1164 -0.1079,-0.2222 0,-0.1609 0.1206,-0.2688 0.362,-0.3239 0.1651,-0.0381 0.4402,-0.0571 0.8255,-0.0571l0.3556 0c0.0592,-0.0085 0.273,-0.0423 0.6413,-0.1016 0.2625,-0.0423 0.4212,-0.0635 0.4763,-0.0635 0.0846,0 0.1598,0.0148 0.2254,0.0444 0.0656,0.0297 0.0984,0.0784 0.0984,0.1461zm1.9749 3.8417c0,0.1651 -0.0159,0.2921 -0.0477,0.381 -0.0317,0.0889 -0.0899,0.1334 -0.1746,0.1334 -0.1185,0 -0.2265,-0.1799 -0.3238,-0.5398 -0.0551,-0.2328 -0.108,-0.4677 -0.1588,-0.7048l-1.0795 0c-0.0593,0.2286 -0.1185,0.4572 -0.1778,0.6858 -0.0804,0.2752 -0.1968,0.4127 -0.3492,0.4127 -0.0889,0 -0.1419,-0.0127 -0.1588,-0.0381 -0.0339,-0.0508 -0.0508,-0.1375 -0.0508,-0.2603 0,-0.1016 0.0074,-0.217 0.0222,-0.3461 0.0148,-0.1291 0.0519,-0.3058 0.1112,-0.5302 0.0592,-0.2244 0.1185,-0.4456 0.1778,-0.6636 0.0592,-0.218 0.1735,-0.6276 0.3429,-1.2287 0.127,-0.4487 0.201,-0.6858 0.2222,-0.7112 0.1185,-0.4149 0.2942,-0.6223 0.5271,-0.6223 0.1143,0 0.2307,0.091 0.3492,0.273 0.1185,0.1821 0.2032,0.4128 0.254,0.6922 0.0169,0.0296 0.0582,0.2191 0.1238,0.5683 0.0656,0.3493 0.126,0.6763 0.181,0.9811 0.0296,0.1736 0.0593,0.3429 0.0889,0.508 0.0296,0.1651 0.0572,0.3556 0.0826,0.5715 0.0254,0.2159 0.0381,0.3619 0.0381,0.4381zm-0.7811 -1.2763l-0.3302 -2.0511 -0.5651 2.0511 0.8953 0zm3.7592 0.4445c0,0.3514 -0.1418,0.6361 -0.4254,0.8541 -0.2837,0.218 -0.6329,0.327 -1.0478,0.327 -0.2286,0 -0.4635,-0.0614 -0.7048,-0.1842 -0.2413,-0.1227 -0.362,-0.2561 -0.362,-0.4 0,-0.0593 0.0286,-0.1154 0.0857,-0.1683 0.0572,-0.0529 0.1217,-0.0794 0.1937,-0.0794 0.0254,0 0.1503,0.0519 0.3747,0.1556 0.2243,0.1037 0.3725,0.1556 0.4445,0.1556 0.2286,0 0.4222,-0.055 0.581,-0.1651 0.1587,-0.1101 0.2381,-0.2625 0.2381,-0.4572 0,-0.2032 -0.1799,-0.3916 -0.5397,-0.5652 -0.3387,-0.1566 -0.6774,-0.3132 -1.016,-0.4699 -0.3641,-0.2116 -0.5461,-0.4572 -0.5461,-0.7366 0,-0.2963 0.1608,-0.5831 0.4826,-0.8604 0.3217,-0.2773 0.6752,-0.4159 1.0604,-0.4159 0.2709,0 0.4445,0.0042 0.5207,0.0127 0.2413,0.0254 0.362,0.1291 0.362,0.3111 0,0.1313 -0.2943,0.2202 -0.8827,0.2667 -0.5884,0.0466 -0.8826,0.2646 -0.8826,0.6541 0,0.2074 0.1778,0.3725 0.5334,0.4953 0.6011,0.2032 0.9313,0.3217 0.9906,0.3556 0.3598,0.2032 0.5397,0.508 0.5397,0.9144zm3.029 -3.0099c0,0.2498 -0.1746,0.3948 -0.5239,0.435 -0.3492,0.0402 -0.5683,0.0688 -0.6572,0.0857l0.0381 2.9972c0,0.2244 -0.0148,0.3926 -0.0444,0.5048 -0.0297,0.1122 -0.0932,0.1683 -0.1905,0.1683 -0.1143,0 -0.2043,-0.0826 -0.2699,-0.2477 -0.0656,-0.1651 -0.0984,-0.381 -0.0984,-0.6477 -0.0043,-0.1735 -0.0085,-0.437 -0.0127,-0.7905 -0.0043,-0.3535 -0.0096,-0.7345 -0.0159,-1.143 -0.0064,-0.4085 -0.0095,-0.6657 -0.0095,-0.7716 -0.072,-0.0169 -0.1609,-0.0254 -0.2667,-0.0254 -0.1101,0 -0.2181,0.0075 -0.3239,0.0223 -0.1058,0.0148 -0.199,0.0264 -0.2794,0.0349 -0.0974,0 -0.1715,-0.0148 -0.2223,-0.0445 -0.0719,-0.0423 -0.1079,-0.1164 -0.1079,-0.2222 0,-0.1609 0.1206,-0.2688 0.362,-0.3239 0.1651,-0.0381 0.4402,-0.0571 0.8255,-0.0571l0.3556 0c0.0592,-0.0085 0.273,-0.0423 0.6413,-0.1016 0.2625,-0.0423 0.4212,-0.0635 0.4763,-0.0635 0.0846,0 0.1598,0.0148 0.2254,0.0444 0.0656,0.0297 0.0984,0.0784 0.0984,0.1461zm2.0194 3.6766c0,0.1609 -0.1482,0.29 -0.4445,0.3874 -0.254,0.0847 -0.5355,0.127 -0.8445,0.127 -0.1567,0 -0.2689,-0.0783 -0.3366,-0.235 -0.0508,-0.1185 -0.0762,-0.2783 -0.0762,-0.4773 -0.0042,-0.182 -0.0085,-0.3344 -0.0127,-0.4582 -0.0296,-0.8774 -0.0444,-1.5177 -0.0444,-1.9198 0,-0.4964 0.0127,-0.8964 0.0381,-1.2023l1.1239 -0.1397c0.0423,0 0.072,0 0.0889,0 0.1101,0 0.1969,0.0201 0.2604,0.0603 0.0635,0.0402 0.0952,0.1027 0.0952,0.1873 0,0.072 -0.0423,0.1376 -0.127,0.1969 -0.0847,0.0593 -0.1799,0.0995 -0.2857,0.1206l-0.5842 0.108 0 1.2509 0.5207 -0.0254c0.1651,0 0.2815,0.0297 0.3492,0.0889 0.0677,0.0593 0.1016,0.1397 0.1016,0.2413 0,0.0847 -0.0349,0.1535 -0.1048,0.2064 -0.0698,0.0529 -0.1534,0.0794 -0.2508,0.0794l-0.5778 0.0381 0.0381 1.1747c0.0846,0 0.1957,-0.0095 0.3333,-0.0285 0.1376,-0.0191 0.2657,-0.0371 0.3842,-0.054 0.1058,0 0.1916,0.0201 0.2572,0.0603 0.0656,0.0402 0.0984,0.1111 0.0984,0.2127z"/>
  <path class="fil11 str14" d="M118.644 101.124c12.0503,0 21.8227,6.3272 21.8227,14.1292 0,7.8021 -9.7724,14.1293 -21.8227,14.1293 -5.935,0 -11.3167,-1.5354 -15.2508,-4.0254l-8.0449 4.01 4.0251 -7.4806c-1.628,-1.9781 -2.552,-4.2358 -2.552,-6.6333 0,-7.802 9.7724,-14.1292 21.8226,-14.1292z"/>
  <path class="fil21" d="M108.475 113.142c0,0.2498 -0.1746,0.3948 -0.5239,0.435 -0.3492,0.0402 -0.5683,0.0688 -0.6572,0.0857l0.0381 2.9972c0,0.2244 -0.0148,0.3926 -0.0444,0.5048 -0.0297,0.1122 -0.0932,0.1683 -0.1905,0.1683 -0.1143,0 -0.2043,-0.0826 -0.2699,-0.2477 -0.0656,-0.1651 -0.0984,-0.381 -0.0984,-0.6477 -0.0043,-0.1735 -0.0085,-0.437 -0.0127,-0.7905 -0.0043,-0.3535 -0.0096,-0.7345 -0.0159,-1.143 -0.0064,-0.4085 -0.0095,-0.6657 -0.0095,-0.7716 -0.072,-0.0169 -0.1609,-0.0254 -0.2667,-0.0254 -0.1101,0 -0.2181,0.0075 -0.3239,0.0223 -0.1058,0.0148 -0.199,0.0264 -0.2794,0.0349 -0.0974,0 -0.1715,-0.0148 -0.2223,-0.0445 -0.0719,-0.0423 -0.1079,-0.1164 -0.1079,-0.2222 0,-0.1609 0.1206,-0.2688 0.362,-0.3239 0.1651,-0.0381 0.4402,-0.0571 0.8255,-0.0571l0.3556 0c0.0592,-0.0085 0.273,-0.0423 0.6413,-0.1016 0.2625,-0.0423 0.4212,-0.0635 0.4763,-0.0635 0.0846,0 0.1598,0.0148 0.2254,0.0444 0.0656,0.0297 0.0984,0.0784 0.0984,0.1461zm2.5909 2.1272c0,0.5588 -0.1355,1.0393 -0.4064,1.4415 -0.2837,0.4191 -0.635,0.6286 -1.0541,0.6286 -0.398,0 -0.7197,-0.1418 -0.9652,-0.4254 -0.3048,-0.3514 -0.4572,-0.889 -0.4572,-1.6129 0,-0.5038 0.091,-1.0255 0.273,-1.5653 0.182,-0.5397 0.3683,-0.8096 0.5588,-0.8096 0.1651,0 0.2477,0.1037 0.2477,0.3111 0,0.1143 -0.0889,0.4361 -0.2667,0.9652 -0.1778,0.5292 -0.2667,0.8996 -0.2667,1.1113 0,0.5334 0.0889,0.9144 0.2667,1.143 0.1439,0.1863 0.3513,0.2794 0.6223,0.2794 0.2836,0 0.5016,-0.1588 0.654,-0.4763 0.1355,-0.2794 0.2032,-0.6392 0.2032,-1.0795 0,-0.127 -0.0307,-0.4243 -0.0921,-0.8921 -0.0614,-0.4678 -0.092,-0.744 -0.092,-0.8287 0,-0.326 0.091,-0.5017 0.273,-0.5271 0.1524,-0.0169 0.2773,0.2286 0.3747,0.7366 0.0846,0.4488 0.127,0.9822 0.127,1.6002zm-0.508 -2.9083c0,0.0932 -0.0995,0.2011 -0.2985,0.3239 -0.0635,0.0381 -0.163,0.0889 -0.2984,0.1524l-0.5144 0c0.1651,-0.1778 0.29,-0.3112 0.3747,-0.4001 0.2624,-0.2667 0.4275,-0.4 0.4953,-0.4 0.1058,0 0.1756,0.0296 0.2095,0.0889 0.0212,0.0381 0.0318,0.1164 0.0318,0.2349zm6.1722 4.4958c0,0.0889 -0.0593,0.162 -0.1778,0.2191 -0.1186,0.0572 -0.2794,0.0857 -0.4826,0.0857 -0.5292,0 -0.9843,-0.1566 -1.3653,-0.4699 -0.4318,-0.3556 -0.6477,-0.8382 -0.6477,-1.4478 0,-0.5037 0.2286,-1.016 0.6858,-1.5367 0.436,-0.4953 0.834,-0.7429 1.1938,-0.7429 0.0889,0 0.1545,0.0212 0.1969,0.0635 0.0423,0.0423 0.0635,0.0889 0.0635,0.1397 -0.4107,0.3133 -0.7705,0.6392 -1.0795,0.9779 -0.3387,0.3725 -0.508,0.7853 -0.508,1.2382 0,0.381 0.182,0.6668 0.5461,0.8573 0.1693,0.0889 0.5101,0.1926 1.0223,0.3111 0.3683,0.0847 0.5525,0.1863 0.5525,0.3048zm2.3749 0.127c0,0.1651 -0.0159,0.2921 -0.0477,0.381 -0.0317,0.0889 -0.0899,0.1334 -0.1746,0.1334 -0.1185,0 -0.2265,-0.1799 -0.3238,-0.5398 -0.0551,-0.2328 -0.108,-0.4677 -0.1588,-0.7048l-1.0795 0c-0.0593,0.2286 -0.1185,0.4572 -0.1778,0.6858 -0.0804,0.2752 -0.1968,0.4127 -0.3492,0.4127 -0.0889,0 -0.1419,-0.0127 -0.1588,-0.0381 -0.0339,-0.0508 -0.0508,-0.1375 -0.0508,-0.2603 0,-0.1016 0.0074,-0.217 0.0222,-0.3461 0.0148,-0.1291 0.0519,-0.3058 0.1112,-0.5302 0.0592,-0.2244 0.1185,-0.4456 0.1778,-0.6636 0.0592,-0.218 0.1735,-0.6276 0.3429,-1.2287 0.127,-0.4487 0.201,-0.6858 0.2222,-0.7112 0.1185,-0.4149 0.2942,-0.6223 0.5271,-0.6223 0.1143,0 0.2307,0.091 0.3492,0.273 0.1185,0.1821 0.2032,0.4128 0.254,0.6922 0.0169,0.0296 0.0582,0.2191 0.1238,0.5683 0.0656,0.3493 0.126,0.6763 0.181,0.9811 0.0296,0.1736 0.0593,0.3429 0.0889,0.508 0.0296,0.1651 0.0572,0.3556 0.0826,0.5715 0.0254,0.2159 0.0381,0.3619 0.0381,0.4381zm-0.7811 -1.2763l-0.3302 -2.0511 -0.5651 2.0511 0.8953 0zm3.8735 -1.4542l0 1.7018 0 0.2731c0,0.5715 -0.0265,0.9588 -0.0794,1.162 -0.0529,0.2033 -0.1301,0.3049 -0.2317,0.3049 -0.2075,0 -0.4107,-0.18 -0.6096,-0.5398 -0.1016,-0.1863 -0.2742,-0.5937 -0.5176,-1.2224 -0.2434,-0.6286 -0.4498,-1.089 -0.6191,-1.3811 0,0.1355 0.0042,0.4138 0.0127,0.835 0.0085,0.4212 0.0127,0.6678 0.0127,0.7398 0,0.4106 -0.0169,0.726 -0.0508,0.9461 -0.0339,0.2202 -0.0995,0.3302 -0.1968,0.3302 -0.1397,0 -0.2403,-0.1174 -0.3017,-0.3524 -0.0614,-0.2349 -0.092,-0.5577 -0.092,-0.9684l0 -1.7907c0,-0.3937 0.0201,-0.6953 0.0603,-0.9048 0.0402,-0.2096 0.1196,-0.3144 0.2381,-0.3144 0.1439,0 0.3408,0.2392 0.5906,0.7176 0.1651,0.3175 0.3862,0.8075 0.6635,1.47 0.2773,0.6625 0.4562,1.0763 0.5366,1.2414l-0.0444 -2.1145c0,-0.4995 0.0232,-0.8869 0.0698,-1.1621 0.0466,-0.2751 0.1291,-0.4127 0.2477,-0.4127 0.1164,0 0.1968,0.1249 0.2423,0.3746 0.0455,0.2498 0.0688,0.6054 0.0688,1.0668zm3.029 -1.1112c0,0.2498 -0.1746,0.3948 -0.5239,0.435 -0.3492,0.0402 -0.5683,0.0688 -0.6572,0.0857l0.0381 2.9972c0,0.2244 -0.0148,0.3926 -0.0444,0.5048 -0.0297,0.1122 -0.0932,0.1683 -0.1905,0.1683 -0.1143,0 -0.2043,-0.0826 -0.2699,-0.2477 -0.0656,-0.1651 -0.0984,-0.381 -0.0984,-0.6477 -0.0043,-0.1735 -0.0085,-0.437 -0.0127,-0.7905 -0.0043,-0.3535 -0.0096,-0.7345 -0.0159,-1.143 -0.0064,-0.4085 -0.0095,-0.6657 -0.0095,-0.7716 -0.072,-0.0169 -0.1609,-0.0254 -0.2667,-0.0254 -0.1101,0 -0.2181,0.0075 -0.3239,0.0223 -0.1058,0.0148 -0.199,0.0264 -0.2794,0.0349 -0.0974,0 -0.1715,-0.0148 -0.2223,-0.0445 -0.0719,-0.0423 -0.1079,-0.1164 -0.1079,-0.2222 0,-0.1609 0.1206,-0.2688 0.362,-0.3239 0.1651,-0.0381 0.4402,-0.0571 0.8255,-0.0571l0.3556 0c0.0592,-0.0085 0.273,-0.0423 0.6413,-0.1016 0.2625,-0.0423 0.4212,-0.0635 0.4763,-0.0635 0.0846,0 0.1598,0.0148 0.2254,0.0444 0.0656,0.0297 0.0984,0.0784 0.0984,0.1461zm1.9749 3.8417c0,0.1651 -0.0159,0.2921 -0.0477,0.381 -0.0317,0.0889 -0.0899,0.1334 -0.1746,0.1334 -0.1185,0 -0.2265,-0.1799 -0.3238,-0.5398 -0.0551,-0.2328 -0.108,-0.4677 -0.1588,-0.7048l-1.0795 0c-0.0593,0.2286 -0.1185,0.4572 -0.1778,0.6858 -0.0804,0.2752 -0.1968,0.4127 -0.3492,0.4127 -0.0889,0 -0.1419,-0.0127 -0.1588,-0.0381 -0.0339,-0.0508 -0.0508,-0.1375 -0.0508,-0.2603 0,-0.1016 0.0074,-0.217 0.0222,-0.3461 0.0148,-0.1291 0.0519,-0.3058 0.1112,-0.5302 0.0592,-0.2244 0.1185,-0.4456 0.1778,-0.6636 0.0592,-0.218 0.1735,-0.6276 0.3429,-1.2287 0.127,-0.4487 0.201,-0.6858 0.2222,-0.7112 0.1185,-0.4149 0.2942,-0.6223 0.5271,-0.6223 0.1143,0 0.2307,0.091 0.3492,0.273 0.1185,0.1821 0.2032,0.4128 0.254,0.6922 0.0169,0.0296 0.0582,0.2191 0.1238,0.5683 0.0656,0.3493 0.126,0.6763 0.181,0.9811 0.0296,0.1736 0.0593,0.3429 0.0889,0.508 0.0296,0.1651 0.0572,0.3556 0.0826,0.5715 0.0254,0.2159 0.0381,0.3619 0.0381,0.4381zm-0.7811 -1.2763l-0.3302 -2.0511 -0.5651 2.0511 0.8953 0zm3.7592 0.4445c0,0.3514 -0.1418,0.6361 -0.4254,0.8541 -0.2837,0.218 -0.6329,0.327 -1.0478,0.327 -0.2286,0 -0.4635,-0.0614 -0.7048,-0.1842 -0.2413,-0.1227 -0.362,-0.2561 -0.362,-0.4 0,-0.0593 0.0286,-0.1154 0.0857,-0.1683 0.0572,-0.0529 0.1217,-0.0794 0.1937,-0.0794 0.0254,0 0.1503,0.0519 0.3747,0.1556 0.2243,0.1037 0.3725,0.1556 0.4445,0.1556 0.2286,0 0.4222,-0.055 0.581,-0.1651 0.1587,-0.1101 0.2381,-0.2625 0.2381,-0.4572 0,-0.2032 -0.1799,-0.3916 -0.5397,-0.5652 -0.3387,-0.1566 -0.6774,-0.3132 -1.016,-0.4699 -0.3641,-0.2116 -0.5461,-0.4572 -0.5461,-0.7366 0,-0.2963 0.1608,-0.5831 0.4826,-0.8604 0.3217,-0.2773 0.6752,-0.4159 1.0604,-0.4159 0.2709,0 0.4445,0.0042 0.5207,0.0127 0.2413,0.0254 0.362,0.1291 0.362,0.3111 0,0.1313 -0.2943,0.2202 -0.8827,0.2667 -0.5884,0.0466 -0.8826,0.2646 -0.8826,0.6541 0,0.2074 0.1778,0.3725 0.5334,0.4953 0.6011,0.2032 0.9313,0.3217 0.9906,0.3556 0.3598,0.2032 0.5397,0.508 0.5397,0.9144z"/>
  <path class="fil3 str1" d="M306.772 143.443l13.207 0 0 5.7291c0,1.662 -2.957,3.01 -6.6034,3.01 -3.6463,0 -6.6036,-1.348 -6.6036,-3.01l0 -5.7291z"/>
  <g id="_589093584">
   <path id="_589094544" class="fil3 str1" d="M285.494 125.459c0.7814,-0.4512 2.1468,0.4503 3.0492,2.0132 0.9023,1.5629 1.0003,3.1961 0.2189,3.6473 -0.7814,0.4512 -2.1469,-0.4504 -3.0492,-2.0132 -0.9023,-1.5629 -1.0004,-3.1962 -0.2189,-3.6473zm55.7622 0c-0.7815,-0.4512 -2.1469,0.4503 -3.0492,2.0132 -0.9023,1.5629 -1.0004,3.1961 -0.2189,3.6473 0.7814,0.4512 2.1468,-0.4504 3.0492,-2.0132 0.9023,-1.5629 1.0003,-3.1962 0.2189,-3.6473z"/>
   <path id="_589094472" class="fil3 str1" d="M313.375 96.0245c27.9634,0 25.6873,17.7326 25.6873,31.9168 0,14.1842 -11.5031,19.4577 -25.6873,19.4577 -14.1842,0 -25.6872,-5.2735 -25.6872,-19.4577 0,-14.1842 -2.2762,-31.9168 25.6872,-31.9168z"/>
   <path id="_589094400" class="fil5 str1" d="M311.267 129.788c0,0 2.0754,1.6113 4.2169,0"/>
   <path id="_589094328" class="fil0 str0" d="M313.376 110.943c-0.5174,0.5677 -0.6781,2.8344 -5.8189,2.9867 -0.9637,0.0285 1.2038,-3.075 0.0773,-3.0246 -4.8828,0.2183 -13.9577,4.1199 -15.6911,8.5172 -2.1334,5.4121 -3.5274,14.6994 -3.5274,14.6994 0,0 -1.5156,-6.9342 -3.1643,-11.4919 -1.6487,-4.5577 -1.7456,-16.7116 8.5343,-22.8835 9.0728,-5.4473 17.691,-5.4212 19.5901,-5.3398 1.899,-0.0814 10.5172,-0.1075 19.59,5.3398 10.28,6.1719 10.183,18.3258 8.5343,22.8835 -1.6487,4.5577 -3.1643,11.4919 -3.1643,11.4919 0,0 -1.3938,-9.2873 -3.5273,-14.6994 -1.6668,-4.2283 -10.8466,-8.7142 -15.6045,-8.9699 -1.3321,-0.0715 1.115,3.5105 -0.0094,3.4773 -5.1406,-0.1523 -5.3015,-2.419 -5.8188,-2.9867z"/>
   <path id="_589094256" class="fil9" d="M296.335 132.12c1.7108,0 3.0983,1.3873 3.0983,3.0983 0,1.7108 -1.3875,3.0981 -3.0983,3.0981 -1.7108,0 -3.0983,-1.3873 -3.0983,-3.0981 0,-1.711 1.3875,-3.0983 3.0983,-3.0983zm34.0811 0c1.7107,0 3.0982,1.3875 3.0982,3.0983 0,1.7109 -1.3875,3.0982 -3.0982,3.0982 -1.7109,0 -3.0983,-1.3873 -3.0983,-3.0982 0,-1.7108 1.3874,-3.0983 3.0983,-3.0983z"/>
   <path id="_589094184" class="fil2" d="M330.024 101.903c0,0 4.0794,3.2241 4.0553,7.3493 0,0 -1.7616,-3.6964 -4.0553,-7.3493z"/>
   <path id="_589094112" class="fil2" d="M322.75 99.5531c0,0 4.0794,3.2241 4.0553,7.3493 0,0 -1.7616,-3.6964 -4.0553,-7.3493z"/>
   <path id="_589094040" class="fil2" d="M296.726 101.903c0,0 -4.0794,3.2241 -4.0553,7.3493 0,0 1.7616,-3.6964 4.0553,-7.3493z"/>
   <path id="_589093968" class="fil2" d="M304.001 99.5531c0,0 -4.0794,3.2241 -4.0552,7.3493 0,0 1.7615,-3.6964 4.0552,-7.3493z"/>
   <path id="_589093896" class="fil10 str6" d="M317.156 137.715c0,2.0877 -1.6932,3.7809 -3.7809,3.7809 -2.0877,0 -3.7809,-1.6932 -3.7809,-3.7809l7.5618 0z"/>
   <path id="_589093824" class="fil11" d="M300.257 121.997c1.6386,0.5694 2.6792,1.8618 2.3233,2.8861 -0.3559,1.0243 -1.9737,1.393 -3.6123,0.8237 -1.6385,-0.5694 -2.6792,-1.8618 -2.3233,-2.8861 0.3559,-1.0243 1.9738,-1.393 3.6123,-0.8237z"/>
   <g style="clip-path:url(#id28)">
    <g>
     <circle id="_484631104" class="fil0" transform="matrix(2.95195 0.214734 -0.214734 2.95195 299.613 123.851)" r="0.682"/>
    </g>
   </g>
   <path class="fil5 str0" d="M300.257 121.997c1.6386,0.5694 2.6792,1.8618 2.3233,2.8861 -0.3559,1.0243 -1.9737,1.393 -3.6123,0.8237 -1.6385,-0.5694 -2.6792,-1.8618 -2.3233,-2.8861 0.3559,-1.0243 1.9738,-1.393 3.6123,-0.8237z"/>
   <path id="_589093752" class="fil0" d="M295.216 120.53c0,0 4.3963,-0.7138 8.7926,0.4043 0,0 -5.6339,-4.2006 -8.7926,-0.4043z"/>
   <path id="_589093680" class="fil11" d="M326.494 121.997c-1.6386,0.5694 -2.6792,1.8618 -2.3233,2.8861 0.3559,1.0243 1.9737,1.393 3.6123,0.8237 1.6386,-0.5694 2.6792,-1.8618 2.3233,-2.8861 -0.3559,-1.0243 -1.9738,-1.393 -3.6123,-0.8237z"/>
   <g style="clip-path:url(#id29)">
    <g>
     <circle id="_484623256" class="fil0" transform="matrix(-2.95195 0.214734 0.214734 2.95195 327.138 123.851)" r="0.682"/>
    </g>
   </g>
   <path class="fil5 str0" d="M326.494 121.997c-1.6386,0.5694 -2.6792,1.8618 -2.3233,2.8861 0.3559,1.0243 1.9737,1.393 3.6123,0.8237 1.6386,-0.5694 2.6792,-1.8618 2.3233,-2.8861 -0.3559,-1.0243 -1.9738,-1.393 -3.6123,-0.8237z"/>
   <path id="_589093608" class="fil0" d="M331.534 120.53c0,0 -4.3963,-0.7138 -8.7926,0.4043 0,0 5.6339,-4.2006 8.7926,-0.4043z"/>
  </g>
  <path class="fil11 str14" d="M370.556 101.124c12.0503,0 21.8227,6.3272 21.8227,14.1292 0,7.8021 -9.7724,14.1293 -21.8227,14.1293 -5.935,0 -11.3167,-1.5354 -15.2508,-4.0254l-8.0449 4.01 4.0251 -7.4806c-1.628,-1.9781 -2.552,-4.2358 -2.552,-6.6333 0,-7.802 9.7724,-14.1292 21.8226,-14.1292z"/>
  <path class="fil21" d="M358.428 113.095c0,0.2498 -0.1746,0.3948 -0.5239,0.435 -0.3492,0.0402 -0.5683,0.0688 -0.6572,0.0857l0.0381 2.9972c0,0.2244 -0.0148,0.3926 -0.0444,0.5048 -0.0297,0.1122 -0.0932,0.1683 -0.1905,0.1683 -0.1143,0 -0.2043,-0.0826 -0.2699,-0.2477 -0.0656,-0.1651 -0.0984,-0.381 -0.0984,-0.6477 -0.0043,-0.1735 -0.0085,-0.437 -0.0127,-0.7905 -0.0043,-0.3535 -0.0096,-0.7345 -0.0159,-1.143 -0.0064,-0.4085 -0.0095,-0.6657 -0.0095,-0.7716 -0.072,-0.0169 -0.1609,-0.0254 -0.2667,-0.0254 -0.1101,0 -0.2181,0.0075 -0.3239,0.0223 -0.1058,0.0148 -0.199,0.0264 -0.2794,0.0349 -0.0974,0 -0.1715,-0.0148 -0.2223,-0.0445 -0.0719,-0.0423 -0.1079,-0.1164 -0.1079,-0.2222 0,-0.1609 0.1206,-0.2688 0.362,-0.3239 0.1651,-0.0381 0.4402,-0.0571 0.8255,-0.0571l0.3556 0c0.0592,-0.0085 0.273,-0.0423 0.6413,-0.1016 0.2625,-0.0423 0.4212,-0.0635 0.4763,-0.0635 0.0846,0 0.1598,0.0148 0.2254,0.0444 0.0656,0.0297 0.0984,0.0784 0.0984,0.1461zm2.5909 2.1272c0,0.5588 -0.1355,1.0393 -0.4064,1.4415 -0.2837,0.4191 -0.635,0.6286 -1.0541,0.6286 -0.398,0 -0.7197,-0.1418 -0.9652,-0.4254 -0.3048,-0.3514 -0.4572,-0.889 -0.4572,-1.6129 0,-0.5038 0.091,-1.0255 0.273,-1.5653 0.182,-0.5397 0.3683,-0.8096 0.5588,-0.8096 0.1651,0 0.2477,0.1037 0.2477,0.3111 0,0.1143 -0.0889,0.4361 -0.2667,0.9652 -0.1778,0.5292 -0.2667,0.8996 -0.2667,1.1113 0,0.5334 0.0889,0.9144 0.2667,1.143 0.1439,0.1863 0.3513,0.2794 0.6223,0.2794 0.2836,0 0.5016,-0.1588 0.654,-0.4763 0.1355,-0.2794 0.2032,-0.6392 0.2032,-1.0795 0,-0.127 -0.0307,-0.4243 -0.0921,-0.8921 -0.0614,-0.4678 -0.092,-0.744 -0.092,-0.8287 0,-0.326 0.091,-0.5017 0.273,-0.5271 0.1524,-0.0169 0.2773,0.2286 0.3747,0.7366 0.0846,0.4488 0.127,0.9822 0.127,1.6002zm-0.508 -2.9083c0,0.0932 -0.0995,0.2011 -0.2985,0.3239 -0.0635,0.0381 -0.163,0.0889 -0.2984,0.1524l-0.5144 0c0.1651,-0.1778 0.29,-0.3112 0.3747,-0.4001 0.2624,-0.2667 0.4275,-0.4 0.4953,-0.4 0.1058,0 0.1756,0.0296 0.2095,0.0889 0.0212,0.0381 0.0318,0.1164 0.0318,0.2349zm6.1722 4.4958c0,0.0889 -0.0593,0.162 -0.1778,0.2191 -0.1186,0.0572 -0.2794,0.0857 -0.4826,0.0857 -0.5292,0 -0.9843,-0.1566 -1.3653,-0.4699 -0.4318,-0.3556 -0.6477,-0.8382 -0.6477,-1.4478 0,-0.5037 0.2286,-1.016 0.6858,-1.5367 0.436,-0.4953 0.834,-0.7429 1.1938,-0.7429 0.0889,0 0.1545,0.0212 0.1969,0.0635 0.0423,0.0423 0.0635,0.0889 0.0635,0.1397 -0.4107,0.3133 -0.7705,0.6392 -1.0795,0.9779 -0.3387,0.3725 -0.508,0.7853 -0.508,1.2382 0,0.381 0.182,0.6668 0.5461,0.8573 0.1693,0.0889 0.5101,0.1926 1.0223,0.3111 0.3683,0.0847 0.5525,0.1863 0.5525,0.3048zm2.3749 0.127c0,0.1651 -0.0159,0.2921 -0.0477,0.381 -0.0317,0.0889 -0.0899,0.1334 -0.1746,0.1334 -0.1185,0 -0.2265,-0.1799 -0.3238,-0.5398 -0.0551,-0.2328 -0.108,-0.4677 -0.1588,-0.7048l-1.0795 0c-0.0593,0.2286 -0.1185,0.4572 -0.1778,0.6858 -0.0804,0.2752 -0.1968,0.4127 -0.3492,0.4127 -0.0889,0 -0.1419,-0.0127 -0.1588,-0.0381 -0.0339,-0.0508 -0.0508,-0.1375 -0.0508,-0.2603 0,-0.1016 0.0074,-0.217 0.0222,-0.3461 0.0148,-0.1291 0.0519,-0.3058 0.1112,-0.5302 0.0592,-0.2244 0.1185,-0.4456 0.1778,-0.6636 0.0592,-0.218 0.1735,-0.6276 0.3429,-1.2287 0.127,-0.4487 0.201,-0.6858 0.2222,-0.7112 0.1185,-0.4149 0.2942,-0.6223 0.5271,-0.6223 0.1143,0 0.2307,0.091 0.3492,0.273 0.1185,0.1821 0.2032,0.4128 0.254,0.6922 0.0169,0.0296 0.0582,0.2191 0.1238,0.5683 0.0656,0.3493 0.126,0.6763 0.181,0.9811 0.0296,0.1736 0.0593,0.3429 0.0889,0.508 0.0296,0.1651 0.0572,0.3556 0.0826,0.5715 0.0254,0.2159 0.0381,0.3619 0.0381,0.4381zm-0.7811 -1.2763l-0.3302 -2.0511 -0.5651 2.0511 0.8953 0zm3.8735 -1.4542l0 1.7018 0 0.2731c0,0.5715 -0.0265,0.9588 -0.0794,1.162 -0.0529,0.2033 -0.1301,0.3049 -0.2317,0.3049 -0.2075,0 -0.4107,-0.18 -0.6096,-0.5398 -0.1016,-0.1863 -0.2742,-0.5937 -0.5176,-1.2224 -0.2434,-0.6286 -0.4498,-1.089 -0.6191,-1.3811 0,0.1355 0.0042,0.4138 0.0127,0.835 0.0085,0.4212 0.0127,0.6678 0.0127,0.7398 0,0.4106 -0.0169,0.726 -0.0508,0.9461 -0.0339,0.2202 -0.0995,0.3302 -0.1968,0.3302 -0.1397,0 -0.2403,-0.1174 -0.3017,-0.3524 -0.0614,-0.2349 -0.092,-0.5577 -0.092,-0.9684l0 -1.7907c0,-0.3937 0.0201,-0.6953 0.0603,-0.9048 0.0402,-0.2096 0.1196,-0.3144 0.2381,-0.3144 0.1439,0 0.3408,0.2392 0.5906,0.7176 0.1651,0.3175 0.3862,0.8075 0.6635,1.47 0.2773,0.6625 0.4562,1.0763 0.5366,1.2414l-0.0444 -2.1145c0,-0.4995 0.0232,-0.8869 0.0698,-1.1621 0.0466,-0.2751 0.1291,-0.4127 0.2477,-0.4127 0.1164,0 0.1968,0.1249 0.2423,0.3746 0.0455,0.2498 0.0688,0.6054 0.0688,1.0668zm3.029 -1.1112c0,0.2498 -0.1746,0.3948 -0.5239,0.435 -0.3492,0.0402 -0.5683,0.0688 -0.6572,0.0857l0.0381 2.9972c0,0.2244 -0.0148,0.3926 -0.0444,0.5048 -0.0297,0.1122 -0.0932,0.1683 -0.1905,0.1683 -0.1143,0 -0.2043,-0.0826 -0.2699,-0.2477 -0.0656,-0.1651 -0.0984,-0.381 -0.0984,-0.6477 -0.0043,-0.1735 -0.0085,-0.437 -0.0127,-0.7905 -0.0043,-0.3535 -0.0096,-0.7345 -0.0159,-1.143 -0.0064,-0.4085 -0.0095,-0.6657 -0.0095,-0.7716 -0.072,-0.0169 -0.1609,-0.0254 -0.2667,-0.0254 -0.1101,0 -0.2181,0.0075 -0.3239,0.0223 -0.1058,0.0148 -0.199,0.0264 -0.2794,0.0349 -0.0974,0 -0.1715,-0.0148 -0.2223,-0.0445 -0.0719,-0.0423 -0.1079,-0.1164 -0.1079,-0.2222 0,-0.1609 0.1206,-0.2688 0.362,-0.3239 0.1651,-0.0381 0.4402,-0.0571 0.8255,-0.0571l0.3556 0c0.0592,-0.0085 0.273,-0.0423 0.6413,-0.1016 0.2625,-0.0423 0.4212,-0.0635 0.4763,-0.0635 0.0846,0 0.1598,0.0148 0.2254,0.0444 0.0656,0.0297 0.0984,0.0784 0.0984,0.1461zm1.9749 3.8417c0,0.1651 -0.0159,0.2921 -0.0477,0.381 -0.0317,0.0889 -0.0899,0.1334 -0.1746,0.1334 -0.1185,0 -0.2265,-0.1799 -0.3238,-0.5398 -0.0551,-0.2328 -0.108,-0.4677 -0.1588,-0.7048l-1.0795 0c-0.0593,0.2286 -0.1185,0.4572 -0.1778,0.6858 -0.0804,0.2752 -0.1968,0.4127 -0.3492,0.4127 -0.0889,0 -0.1419,-0.0127 -0.1588,-0.0381 -0.0339,-0.0508 -0.0508,-0.1375 -0.0508,-0.2603 0,-0.1016 0.0074,-0.217 0.0222,-0.3461 0.0148,-0.1291 0.0519,-0.3058 0.1112,-0.5302 0.0592,-0.2244 0.1185,-0.4456 0.1778,-0.6636 0.0592,-0.218 0.1735,-0.6276 0.3429,-1.2287 0.127,-0.4487 0.201,-0.6858 0.2222,-0.7112 0.1185,-0.4149 0.2942,-0.6223 0.5271,-0.6223 0.1143,0 0.2307,0.091 0.3492,0.273 0.1185,0.1821 0.2032,0.4128 0.254,0.6922 0.0169,0.0296 0.0582,0.2191 0.1238,0.5683 0.0656,0.3493 0.126,0.6763 0.181,0.9811 0.0296,0.1736 0.0593,0.3429 0.0889,0.508 0.0296,0.1651 0.0572,0.3556 0.0826,0.5715 0.0254,0.2159 0.0381,0.3619 0.0381,0.4381zm-0.7811 -1.2763l-0.3302 -2.0511 -0.5651 2.0511 0.8953 0zm4.0767 1.4922c-0.0085,0.0551 -0.0212,0.0953 -0.0381,0.1207 -0.0508,0.0804 -0.1376,0.1206 -0.2603,0.1206 -0.3599,0 -0.7557,-0.1778 -1.1875,-0.5334 -0.4318,-0.3556 -0.6286,-0.6455 -0.5905,-0.8699 0,-0.0466 0.2349,-0.1863 0.7048,-0.4191 0.4699,-0.2328 0.7049,-0.4868 0.7049,-0.762 0,-0.2709 -0.1038,-0.5101 -0.3112,-0.7176 -0.2074,-0.2074 -0.453,-0.3111 -0.7366,-0.3111 -0.1778,0 -0.3492,0.0381 -0.5143,0.1143l0 2.4193c0,0.4742 -0.0223,0.8308 -0.0657,1.07 -0.0444,0.2392 -0.1164,0.3588 -0.2169,0.3588 -0.126,0 -0.2138,-0.1281 -0.2646,-0.3842 -0.0497,-0.2561 -0.0751,-0.6233 -0.0751,-1.1017l0 -1.7971c0,-0.5461 0.0582,-0.89 0.1746,-1.0318 0.1153,-0.1418 0.3958,-0.2128 0.8392,-0.2128 0.5112,0 0.9166,0.1016 1.2161,0.3048 0.346,0.2329 0.5196,0.5821 0.5196,1.0478 0,0.4149 -0.0868,0.7218 -0.2603,0.9207 -0.1567,0.1778 -0.4975,0.3874 -1.0224,0.6287 0.2244,0.2794 0.4741,0.4889 0.7493,0.6286 0.4233,0.2159 0.635,0.3514 0.635,0.4064zm2.7179 -0.2159c0,0.1651 -0.0159,0.2921 -0.0477,0.381 -0.0317,0.0889 -0.0899,0.1334 -0.1746,0.1334 -0.1185,0 -0.2265,-0.1799 -0.3238,-0.5398 -0.0551,-0.2328 -0.108,-0.4677 -0.1588,-0.7048l-1.0795 0c-0.0593,0.2286 -0.1185,0.4572 -0.1778,0.6858 -0.0804,0.2752 -0.1968,0.4127 -0.3492,0.4127 -0.0889,0 -0.1419,-0.0127 -0.1588,-0.0381 -0.0339,-0.0508 -0.0508,-0.1375 -0.0508,-0.2603 0,-0.1016 0.0074,-0.217 0.0222,-0.3461 0.0148,-0.1291 0.0519,-0.3058 0.1112,-0.5302 0.0592,-0.2244 0.1185,-0.4456 0.1778,-0.6636 0.0592,-0.218 0.1735,-0.6276 0.3429,-1.2287 0.127,-0.4487 0.201,-0.6858 0.2222,-0.7112 0.1185,-0.4149 0.2942,-0.6223 0.5271,-0.6223 0.1143,0 0.2307,0.091 0.3492,0.273 0.1185,0.1821 0.2032,0.4128 0.254,0.6922 0.0169,0.0296 0.0582,0.2191 0.1238,0.5683 0.0656,0.3493 0.126,0.6763 0.181,0.9811 0.0296,0.1736 0.0593,0.3429 0.0889,0.508 0.0296,0.1651 0.0572,0.3556 0.0826,0.5715 0.0254,0.2159 0.0381,0.3619 0.0381,0.4381zm-0.7811 -1.2763l-0.3302 -2.0511 -0.5651 2.0511 0.8953 0zm3.7592 0.4445c0,0.3514 -0.1418,0.6361 -0.4254,0.8541 -0.2837,0.218 -0.6329,0.327 -1.0478,0.327 -0.2286,0 -0.4635,-0.0614 -0.7048,-0.1842 -0.2413,-0.1227 -0.362,-0.2561 -0.362,-0.4 0,-0.0593 0.0286,-0.1154 0.0857,-0.1683 0.0572,-0.0529 0.1217,-0.0794 0.1937,-0.0794 0.0254,0 0.1503,0.0519 0.3747,0.1556 0.2243,0.1037 0.3725,0.1556 0.4445,0.1556 0.2286,0 0.4222,-0.055 0.581,-0.1651 0.1587,-0.1101 0.2381,-0.2625 0.2381,-0.4572 0,-0.2032 -0.1799,-0.3916 -0.5397,-0.5652 -0.3387,-0.1566 -0.6774,-0.3132 -1.016,-0.4699 -0.3641,-0.2116 -0.5461,-0.4572 -0.5461,-0.7366 0,-0.2963 0.1608,-0.5831 0.4826,-0.8604 0.3217,-0.2773 0.6752,-0.4159 1.0604,-0.4159 0.2709,0 0.4445,0.0042 0.5207,0.0127 0.2413,0.0254 0.362,0.1291 0.362,0.3111 0,0.1313 -0.2943,0.2202 -0.8827,0.2667 -0.5884,0.0466 -0.8826,0.2646 -0.8826,0.6541 0,0.2074 0.1778,0.3725 0.5334,0.4953 0.6011,0.2032 0.9313,0.3217 0.9906,0.3556 0.3598,0.2032 0.5397,0.508 0.5397,0.9144z"/>
  <g id="_589092264">
   <path id="_589093368" class="fil22" d="M211.893 115.475c-1.61,0.6556 -1.5438,4.0138 1.1649,3.5986 2.7086,-0.4153 1.4116,-4.6478 -1.1649,-3.5986z"/>
   <path id="_589093296" class="fil17" d="M212.043 116.37c-0.9353,0.2833 -0.7449,2.1079 0.8594,2.0042 0.3851,-0.0249 0.6217,-0.1796 0.7387,-0.3939 -0.0509,0.0092 -0.1048,0.0162 -0.1622,0.0199 -1.2757,0.0824 -1.6572,-1.0543 -1.2899,-1.6659 -0.0481,0.009 -0.0967,0.0207 -0.146,0.0357z"/>
   <path id="_589093224" class="fil3 str13" d="M161.051 128.872c0.7523,-0.4343 2.0669,0.4336 2.9356,1.9383 0.8687,1.5047 0.9631,3.0771 0.2108,3.5115 -0.7523,0.4343 -2.0669,-0.4336 -2.9356,-1.9383 -0.8688,-1.5047 -0.9631,-3.0771 -0.2108,-3.5115zm53.6856 0c-0.7523,-0.4343 -2.0669,0.4336 -2.9356,1.9383 -0.8687,1.5047 -0.9631,3.0771 -0.2108,3.5115 0.7524,0.4343 2.0669,-0.4336 2.9357,-1.9383 0.8687,-1.5047 0.9631,-3.0771 0.2107,-3.5115z"/>
   <path id="_589093152" class="fil3 str1" d="M187.894 100.533c26.922,0 24.7306,17.0723 24.7306,30.7282 0,13.656 -11.0747,18.7332 -24.7306,18.7332 -13.656,0 -24.7307,-5.0772 -24.7307,-18.7332 0,-13.6559 -2.1914,-30.7282 24.7307,-30.7282z"/>
   <path id="_589093080" class="fil5 str1" d="M185.864 134.762c0,0 1.9981,1.1768 4.0599,0"/>
   <path id="_589093008" class="fil0 str15" d="M186.067 113.54c-0.5978,-0.3337 -3.0619,2.5442 -5.3395,2.4208 -3.5165,-0.1904 0.594,-4.7758 -1.598,-4.5787 -13.0095,1.1695 -15.0375,14.6251 -15.2668,23.798 0,0 -1.4592,-4.6446 -3.0464,-9.0326 -1.5873,-4.388 -1.6807,-16.0893 8.2165,-22.0313 8.7349,-5.2444 17.0322,-5.2193 18.8605,-5.141 1.3712,-0.0587 6.3813,-0.0872 12.4856,2.1143 1.1444,0.4128 0.3439,-3.0636 1.5484,-2.4795 0.9369,0.4541 3.8715,4.9327 4.8265,5.5062 0.9277,0.5568 5.3034,-2.3707 6.0627,-1.7233 0.5159,0.44 -2.5406,4.4343 -2.0972,4.9077 5.8649,6.2613 5.5881,15.15 4.251,18.8469 -1.5871,4.3878 -3.0464,9.0326 -3.0464,9.0326 -0.0564,-8.0406 -1.2704,-19.2135 -10.3955,-22.3695 -2.9099,-1.0066 -2.5776,3.7752 -7.6827,3.8103 -0.9999,0.0068 1.756,-3.9445 0.7367,-3.8716 -4.2304,0.3027 -3.9314,5.0216 -8.0463,4.9023 -2.9861,-0.0866 1.3537,-3.094 -0.4691,-4.1116z"/>
   <path id="_589092936" class="fil9" d="M171.488 135.285c1.6471,0 2.9829,1.3357 2.9829,2.9829 0,1.6471 -1.3358,2.9828 -2.9829,2.9828 -1.6471,0 -2.9829,-1.3357 -2.9829,-2.9828 0,-1.6472 1.3358,-2.9829 2.9829,-2.9829zm32.812 0c1.647,0 2.9828,1.3359 2.9828,2.9829 0,1.6472 -1.3358,2.9829 -2.9828,2.9829 -1.6472,0 -2.983,-1.3357 -2.983,-2.9829 0,-1.647 1.3358,-2.9829 2.983,-2.9829z"/>
   <path id="_589092864" class="fil0" d="M206.567 124.546c0,0 -4.4428,-0.6873 -8.6754,0.3892 0,0 -0.6761,-1.7066 0.8925,-2.4354 0.9397,-0.4363 4.79,-0.5263 5.9579,-0.512 1.2019,0.0147 1.825,2.5582 1.825,2.5582z"/>
   <path id="_589092792" class="fil0" d="M169.353 124.546c0,0 4.4427,-0.6873 8.6753,0.3892 0,0 0.6762,-1.7066 -0.8924,-2.4354 -0.9397,-0.4363 -4.79,-0.5263 -5.958,-0.512 -1.2018,0.0147 -1.8249,2.5582 -1.8249,2.5582z"/>
   <path id="_589092720" class="fil11" d="M202.157 125.562c-1.7106,0 -3.0982,0.8671 -3.0982,1.9365 0,1.0693 1.3876,1.9364 3.0982,1.9364 1.7106,0 3.0983,-0.8671 3.0983,-1.9364 0,-1.0694 -1.3877,-1.9365 -3.0983,-1.9365z"/>
   <g style="clip-path:url(#id30)">
    <g>
     <circle id="_591620808" class="fil0" transform="matrix(-2.81926 -0.755418 -0.755418 2.81926 202.157 127.499)" r="0.682"/>
    </g>
   </g>
   <path class="fil5 str0" d="M202.157 125.562c-1.7106,0 -3.0982,0.8671 -3.0982,1.9365 0,1.0693 1.3876,1.9364 3.0982,1.9364 1.7106,0 3.0983,-0.8671 3.0983,-1.9364 0,-1.0694 -1.3877,-1.9365 -3.0983,-1.9365z"/>
   <path id="_589092648" class="fil11" d="M173.763 125.562c1.7106,0 3.0982,0.8671 3.0982,1.9365 0,1.0693 -1.3876,1.9364 -3.0982,1.9364 -1.7106,0 -3.0983,-0.8671 -3.0983,-1.9364 0,-1.0694 1.3877,-1.9365 3.0983,-1.9365z"/>
   <g style="clip-path:url(#id31)">
    <g>
     <circle id="_591602472" class="fil0" transform="matrix(2.81926 -0.755418 0.755418 2.81926 173.763 127.499)" r="0.682"/>
    </g>
   </g>
   <path class="fil5 str0" d="M173.763 125.562c1.7106,0 3.0982,0.8671 3.0982,1.9365 0,1.0693 -1.3876,1.9364 -3.0982,1.9364 -1.7106,0 -3.0983,-0.8671 -3.0983,-1.9364 0,-1.0694 1.3877,-1.9365 3.0983,-1.9365z"/>
   <path id="_589092576" class="fil2" d="M169.845 108.128c0,0 -4.0228,3.1794 -3.999,7.2473 0,0 1.7372,-3.6451 3.999,-7.2473z"/>
   <path id="_589092504" class="fil2" d="M186.165 106.235c0,0 -4.0228,3.1794 -3.999,7.2473 0,0 1.7372,-3.6451 3.999,-7.2473z"/>
   <path id="_589092432" class="fil2" d="M193.595 105.096c0,0 -4.0228,3.1794 -3.999,7.2473 0,0 1.7372,-3.6451 3.999,-7.2473z"/>
   <path id="_589092360" class="fil2" d="M200.254 106.015c0,0 -4.0228,3.1794 -3.999,7.2473 0,0 1.7372,-3.6451 3.999,-7.2473z"/>
   <path id="_589092288" class="fil10 str6" d="M191.674 141.516c0,2.0877 -1.6932,3.7809 -3.7809,3.7809 -2.0877,0 -3.7809,-1.6932 -3.7809,-3.7809l7.5618 0z"/>
  </g>
 </g>
</svg>
