<?xml version="1.0" encoding="UTF-8"?>
<!DOCTYPE svg PUBLIC "-//W3C//DTD SVG 1.1//EN" "http://www.w3.org/Graphics/SVG/1.1/DTD/svg11.dtd">
<!-- Creator: CorelDRAW -->
<svg xmlns="http://www.w3.org/2000/svg" xml:space="preserve" width="420mm" height="297mm" style="shape-rendering:geometricPrecision; text-rendering:geometricPrecision; image-rendering:optimizeQuality; fill-rule:evenodd; clip-rule:evenodd"
viewBox="0 0 420 297"
 xmlns:xlink="http://www.w3.org/1999/xlink">
 <defs>
  <style type="text/css">
   <![CDATA[
    .str7 {stroke:#8F5444;stroke-width:0.5;stroke-linecap:round;stroke-linejoin:round}
    .str10 {stroke:#1F1A17;stroke-width:0.75;stroke-linecap:round;stroke-linejoin:round}
    .str0 {stroke:#383431;stroke-width:0.75;stroke-linecap:round;stroke-linejoin:round}
    .str1 {stroke:#4C4840;stroke-width:0.75;stroke-linecap:round;stroke-linejoin:round}
    .str5 {stroke:#8F5444;stroke-width:0.75;stroke-linecap:round;stroke-linejoin:round}
    .str12 {stroke:#969594;stroke-width:0.75;stroke-linecap:round;stroke-linejoin:round}
    .str3 {stroke:#8F6D5A;stroke-width:0.75}
    .str4 {stroke:#8F6D5A;stroke-width:0.75;stroke-linecap:round;stroke-linejoin:round}
    .str2 {stroke:#453C35;stroke-width:0.75;stroke-linecap:round;stroke-linejoin:round}
    .str9 {stroke:#542829;stroke-width:0.75;stroke-linecap:round;stroke-linejoin:round}
    .str11 {stroke:#8A2C2F;stroke-width:0.75;stroke-linecap:round;stroke-linejoin:round}
    .str8 {stroke:#8F5444;stroke-linecap:round;stroke-linejoin:round}
    .str6 {stroke:#3D2A2A;stroke-linecap:round;stroke-linejoin:round}
    .str13 {stroke:#1F1A17;stroke-width:1.5;stroke-linecap:round;stroke-linejoin:round}
    .fil4 {fill:none}
    .fil13 {fill:#1F1A17}
    .fil0 {fill:#383431}
    .fil14 {fill:#4D4948}
    .fil2 {fill:#605D5C}
    .fil1 {fill:#716F61}
    .fil3 {fill:#969594}
    .fil16 {fill:#B76767}
    .fil18 {fill:#C2C1C1}
    .fil15 {fill:#DB214C}
    .fil11 {fill:#E77817}
    .fil12 {fill:white}
    .fil8 {fill:#8F6D5A}
    .fil9 {fill:#C3957D}
    .fil6 {fill:#453C35}
    .fil10 {fill:#542829}
    .fil5 {fill:#615649}
    .fil7 {fill:#E0CFBF}
    .fil17 {fill:#1F1A17;fill-rule:nonzero}
   ]]>
  </style>
       <clipPath id="id0">
        <path d="M245.17 212.801c0.2657,-3.4711 -2.3037,-5.0804 -5.6044,-5.3331 -3.3006,-0.2527 -6.0849,0.9468 -6.3506,4.418 -0.1139,1.4873 0.0848,3.8188 6.1394,3.9695 6.0545,0.1506 5.7021,-1.5722 5.8156,-3.0544z"/>
       </clipPath>
       <clipPath id="id1">
        <path d="M251.043 212.801c-0.2657,-3.4711 2.3037,-5.0804 5.6044,-5.3331 3.3006,-0.2527 6.0849,0.9468 6.3506,4.418 0.1139,1.4873 -0.0848,3.8188 -6.1394,3.9695 -6.0545,0.1506 -5.7021,-1.5722 -5.8156,-3.0544z"/>
       </clipPath>
      <clipPath id="id2">
       <path d="M248.102 187.659c-0.0596,1.2457 -3.7696,18.4368 -3.7696,18.4368 0,0 -2.4096,1.8423 -11.4121,-0.57 -3.1711,-9.5366 -0.9073,-32.747 -0.7276,-33.3156l15.1762 -0.0347 0.6977 -0.0016 0.6977 -0.0016 15.1762 -0.0347c0.1823,0.5677 2.5523,23.7675 -0.5751,33.3185 -8.9914,2.4535 -11.4093,0.6223 -11.4093,0.6223 0,0 -3.7887,-17.174 -3.8541,-18.4194z"/>
      </clipPath>
    <clipPath id="id3">
     <path d="M226.858 195.745c1.025,1.612 10.9915,4.875 21.2486,4.875 10.2572,0 20.2237,-3.263 21.2487,-4.875 0.2103,-0.3309 -4.0845,-40.8632 -8.2453,-43.2879 -6.4833,-3.778 -19.5235,-3.778 -26.0067,0 -4.1605,2.4245 -8.4558,42.9567 -8.2453,43.2879z"/>
    </clipPath>
      <clipPath id="id4">
       <path d="M235.184 152.411c3.0528,3.5135 7.9502,9.4614 9.6129,13.2611 2.3017,5.26 1.9775,31.1843 1.9182,34.9274 -2.3407,-0.0655 -4.6451,-0.2908 -6.8099,-0.6165 0.2742,-4.5146 1.4689,-28.1326 -3.0344,-35.3189 -1.6186,-2.5829 -3.1005,-4.6886 -4.3642,-6.3553 0.843,-3.1475 1.723,-5.343 2.5971,-5.8524 0.0264,-0.0154 0.0537,-0.0302 0.0803,-0.0454z"/>
      </clipPath>
      <clipPath id="id5">
       <path d="M226.858 195.745c1.025,1.612 10.9915,4.875 21.2486,4.875 10.2572,0 20.2237,-3.263 21.2487,-4.875 0.2103,-0.3309 -4.0845,-40.8632 -8.2453,-43.2879 -6.4833,-3.778 -19.5235,-3.778 -26.0067,0 -4.1605,2.4245 -8.4558,42.9567 -8.2453,43.2879z"/>
      </clipPath>
      <clipPath id="id6">
       <path d="M261.03 152.411c-3.0528,3.5136 -7.9502,9.4614 -9.6129,13.2611 -2.3017,5.26 -1.9775,31.1843 -1.9182,34.9274 2.3407,-0.0655 4.645,-0.2908 6.8099,-0.6165 -0.2741,-4.5146 -1.4689,-28.1326 3.0344,-35.3189 1.6186,-2.583 3.1006,-4.6887 4.3643,-6.3555 -0.8429,-3.1474 -1.7229,-5.3428 -2.5971,-5.8522 -0.0264,-0.0154 -0.0538,-0.0302 -0.0804,-0.0454z"/>
      </clipPath>
      <clipPath id="id7">
       <path d="M226.858 195.745c1.025,1.612 10.9915,4.875 21.2486,4.875 10.2572,0 20.2237,-3.263 21.2487,-4.875 0.2103,-0.3309 -4.0845,-40.8632 -8.2453,-43.2879 -6.4833,-3.778 -19.5235,-3.778 -26.0067,0 -4.1605,2.4245 -8.4558,42.9567 -8.2453,43.2879z"/>
      </clipPath>
      <clipPath id="id8">
       <path d="M266.272 171.043c-0.3379,0.5921 -0.6282,1.1556 -0.8569,1.6782 -1.5533,3.5498 -1.9107,16.5125 -1.9607,25.7172 3.2251,-0.9369 5.4452,-1.9784 5.9005,-2.6944 0.118,-0.1857 -1.183,-13.0334 -3.0829,-24.701z"/>
      </clipPath>
      <clipPath id="id9">
       <path d="M226.858 195.745c1.025,1.612 10.9915,4.875 21.2486,4.875 10.2572,0 20.2237,-3.263 21.2487,-4.875 0.2103,-0.3309 -4.0845,-40.8632 -8.2453,-43.2879 -6.4833,-3.778 -19.5235,-3.778 -26.0067,0 -4.1605,2.4245 -8.4558,42.9567 -8.2453,43.2879z"/>
      </clipPath>
      <clipPath id="id10">
       <path d="M229.941 171.043c0.3379,0.592 0.6282,1.1556 0.8569,1.6783 1.5533,3.5498 1.9107,16.5125 1.9607,25.7172 -3.2251,-0.9369 -5.4452,-1.9784 -5.9005,-2.6944 -0.1181,-0.1859 1.183,-13.0336 3.0829,-24.7011z"/>
      </clipPath>
      <clipPath id="id11">
       <path d="M226.858 195.745c1.025,1.612 10.9915,4.875 21.2486,4.875 10.2572,0 20.2237,-3.263 21.2487,-4.875 0.2103,-0.3309 -4.0845,-40.8632 -8.2453,-43.2879 -6.4833,-3.778 -19.5235,-3.778 -26.0067,0 -4.1605,2.4245 -8.4558,42.9567 -8.2453,43.2879z"/>
      </clipPath>
    <clipPath id="id12">
     <path d="M273.857 171.459c-0.3775,-1.8686 -0.8679,-3.845 -1.5045,-5.8751 -3.3028,-10.5316 -7.3534,-12.0895 -10.3446,-12.5257 0,0 -0.2653,9.9947 1.4796,13.5468 0.5976,1.2164 1.1677,3.7823 1.6592,6.6305 2.3851,0.1967 6.0216,-0.5916 8.7103,-1.7765z"/>
    </clipPath>
     <clipPath id="id13">
      <path d="M268.039 156.617c-1.5501,1.917 -3.403,4.6084 -5.3067,7.5605 0.1964,0.9522 0.4437,1.7932 0.7555,2.4279 0.5555,1.1308 1.0872,3.4277 1.5542,6.0336 2.0213,-3.3171 4.2551,-6.6897 6.4782,-9.4835 -1.1174,-2.9793 -2.2989,-5.0675 -3.4812,-6.5385z"/>
     </clipPath>
     <clipPath id="id14">
      <path d="M273.857 171.459c-0.3775,-1.8686 -0.8679,-3.845 -1.5045,-5.8751 -3.3028,-10.5316 -7.3534,-12.0895 -10.3446,-12.5257 0,0 -0.2653,9.9947 1.4796,13.5468 0.5976,1.2164 1.1677,3.7823 1.6592,6.6305 2.3851,0.1967 6.0216,-0.5916 8.7103,-1.7765z"/>
     </clipPath>
    <clipPath id="id15">
     <path d="M224.121 166.791c9.1268,-5.8629 10.956,-11.3395 9.2024,-13.0932 -1.7676,-1.7677 -9.6157,2.4595 -12.7023,4.9353 -1.0319,0.8278 -1.9184,1.1303 -2.5232,0.8419 0.6787,2.1881 3.4044,5.345 6.0231,7.316z"/>
    </clipPath>
     <clipPath id="id16">
      <path d="M227.572 154.528c1.25,1.7216 2.6156,3.762 4.0003,5.9237 -1.1315,1.3996 -2.7089,2.9244 -4.8088,4.5052 -1.6703,-2.5559 -3.4225,-5.011 -5.1503,-7.0649 1.604,-1.129 3.8438,-2.4313 5.9588,-3.364z"/>
     </clipPath>
     <clipPath id="id17">
      <path d="M224.121 166.791c9.1268,-5.8629 10.956,-11.3395 9.2024,-13.0932 -1.7676,-1.7677 -9.6157,2.4595 -12.7023,4.9353 -1.0319,0.8278 -1.9184,1.1303 -2.5232,0.8419 0.6787,2.1881 3.4044,5.345 6.0231,7.316z"/>
     </clipPath>
    <clipPath id="id18">
     <path d="M105.965 180.983c0,0 -1.3885,11.1414 -1.5391,15.1086 -0.1507,3.9673 1.9465,10.5551 1.766,12.9132 -0.1805,2.3582 -1.022,5.3544 1.6288,5.7103 2.6507,0.356 5.9803,0.8404 7.7823,0.2897 1.802,-0.5507 2.1056,-2.5168 1.081,-4.1256 -1.0246,-1.6087 -0.7892,-13.6801 -0.3921,-15.8686 0.3971,-2.1885 2.2187,-12.9907 2.2187,-12.9907l-12.5456 -1.0369z"/>
    </clipPath>
     <clipPath id="id19">
      <path d="M105.596 204.288c0.0806,0.4062 0.1584,0.8022 0.2303,1.1834 1.966,0.3477 4.0949,0.5383 6.3185,0.5383 1.3266,0 2.6192,-0.0683 3.8641,-0.1967 -0.0136,-0.3712 -0.0246,-0.7518 -0.033,-1.138 -1.2347,0.1262 -2.5163,0.1929 -3.8311,0.1929 -2.3108,0 -4.5192,-0.2058 -6.5488,-0.5799z"/>
     </clipPath>
     <clipPath id="id20">
      <path d="M105.965 180.983c0,0 -1.3885,11.1414 -1.5391,15.1086 -0.1507,3.9673 1.9465,10.5551 1.766,12.9132 -0.1805,2.3582 -1.022,5.3544 1.6288,5.7103 2.6507,0.356 5.9803,0.8404 7.7823,0.2897 1.802,-0.5507 2.1056,-2.5168 1.081,-4.1256 -1.0246,-1.6087 -0.7892,-13.6801 -0.3921,-15.8686 0.3971,-2.1885 2.2187,-12.9907 2.2187,-12.9907l-12.5456 -1.0369z"/>
     </clipPath>
    <clipPath id="id21">
     <path d="M135.418 180.915c0,0 1.4395,11.1349 1.6083,15.1014 0.1688,3.9666 -1.8982,10.5639 -1.7069,12.9212 0.1913,2.3573 1.0465,5.3496 -1.6026,5.7177 -2.6491,0.368 -5.9765,0.8677 -7.781,0.3253 -1.8045,-0.5425 -2.117,-2.5072 -1.0998,-4.1206 1.0172,-1.6134 0.7265,-13.6836 0.3194,-15.8703 -0.4071,-2.1867 -2.2781,-12.9804 -2.2781,-12.9804l12.5407 -1.0943z"/>
    </clipPath>
    <clipPath id="id22">
     <path d="M106.755 122.377c1.6523,0.4427 2.7683,1.6395 2.4915,2.6723 -0.2767,1.0329 -1.8416,1.5113 -3.4939,1.0686 -1.6523,-0.4427 -2.7683,-1.6395 -2.4915,-2.6723 0.2768,-1.0329 1.8416,-1.5113 3.4939,-1.0686z"/>
    </clipPath>
    <clipPath id="id23">
     <path d="M134.815 122.377c-1.6523,0.4427 -2.7682,1.6395 -2.4915,2.6723 0.2768,1.0329 1.8416,1.5113 3.4939,1.0686 1.6523,-0.4427 2.7683,-1.6395 2.4915,-2.6723 -0.2767,-1.0329 -1.8415,-1.5113 -3.4939,-1.0686z"/>
    </clipPath>
     <clipPath id="id24">
      <path d="M262.37 125.377c-1.7106,0 -3.0982,0.8671 -3.0982,1.9365 0,1.0693 1.3876,1.9364 3.0982,1.9364 1.7106,0 3.0983,-0.8671 3.0983,-1.9364 0,-1.0694 -1.3877,-1.9365 -3.0983,-1.9365z"/>
     </clipPath>
     <clipPath id="id25">
      <path d="M233.976 125.377c1.7106,0 3.0982,0.8671 3.0982,1.9365 0,1.0693 -1.3876,1.9364 -3.0982,1.9364 -1.7106,0 -3.0983,-0.8671 -3.0983,-1.9364 0,-1.0694 1.3877,-1.9365 3.0983,-1.9365z"/>
     </clipPath>
 </defs>
 <g id="Capa_x0020_1">
  <metadata id="CorelCorpID_0Corel-Layer"/>
  <g id="_591149960">
   <g>
    <g>
     <g>
      <path id="_591148880" class="fil0 str0" d="M239.621 206.636c3.4273,0.2623 5.9439,3.9121 5.7278,6.7356 -0.2162,2.8235 -3.0833,3.7531 -6.5106,3.4907 -3.4274,-0.2624 -6.1195,-1.6175 -5.9033,-4.441 0.2161,-2.8235 3.2587,-6.0477 6.6861,-5.7853z"/>
      <path id="_591149096" class="fil1 str1" d="M233.864 182.142c0,0 -1.3368,10.7265 -1.4818,14.546 -0.1451,3.8195 1.874,10.162 1.7002,12.4323 -0.1738,2.2704 -0.9839,5.155 1.5681,5.4977 2.5521,0.3427 5.7577,0.8091 7.4926,0.2789 1.7349,-0.5302 2.0271,-2.4231 1.0407,-3.972 -0.9864,-1.5488 -0.7597,-13.1706 -0.3775,-15.2777 0.3823,-2.107 2.1361,-12.5069 2.1361,-12.5069l-12.0784 -0.9983z"/>
      <path id="_591149288" class="fil2" d="M245.17 212.801c0.2657,-3.4711 -2.3037,-5.0804 -5.6044,-5.3331 -3.3006,-0.2527 -6.0849,0.9468 -6.3506,4.418 -0.1139,1.4873 0.0848,3.8188 6.1394,3.9695 6.0545,0.1506 5.7021,-1.5722 5.8156,-3.0544z"/>
      <g style="clip-path:url(#id0)">
       <g>
        <path id="_5916141361" class="fil3" d="M239.389 209.398c-6.1019,-0.5771 -8.2716,8.8901 -0.1863,9.1387 7.9174,0.2435 5.5501,-8.6315 0.1863,-9.1387z"/>
        <path id="_591615048" class="fil3" d="M239.207 208.137c-1.9024,-0.0398 -2.5788,0.6132 -0.058,0.6303 2.4684,0.0168 1.7303,-0.5953 0.058,-0.6303z"/>
       </g>
      </g>
      <path class="fil4 str0" d="M245.17 212.801c0.2657,-3.4711 -2.3037,-5.0804 -5.6044,-5.3331 -3.3006,-0.2527 -6.0849,0.9468 -6.3506,4.418 -0.1139,1.4873 0.0848,3.8188 6.1394,3.9695 6.0545,0.1506 5.7021,-1.5722 5.8156,-3.0544z"/>
     </g>
     <g>
      <path id="_591149744" class="fil0 str0" d="M256.593 206.636c-3.4273,0.2623 -5.9439,3.9121 -5.7278,6.7356 0.2162,2.8235 3.0833,3.7531 6.5106,3.4907 3.4274,-0.2624 6.1195,-1.6175 5.9033,-4.441 -0.2161,-2.8235 -3.2587,-6.0477 -6.6861,-5.7853z"/>
      <path id="_591149480" class="fil1 str1" d="M262.349 182.142c0,0 1.3368,10.7265 1.4818,14.546 0.1451,3.8195 -1.874,10.162 -1.7002,12.4323 0.1738,2.2704 0.9839,5.155 -1.5681,5.4977 -2.5521,0.3427 -5.7577,0.8091 -7.4926,0.2789 -1.7349,-0.5302 -2.0271,-2.4231 -1.0407,-3.972 0.9864,-1.5488 0.7597,-13.1706 0.3775,-15.2777 -0.3823,-2.107 -2.1361,-12.5069 -2.1361,-12.5069l12.0784 -0.9983z"/>
      <path id="_591149576" class="fil2" d="M251.043 212.801c-0.2657,-3.4711 2.3037,-5.0804 5.6044,-5.3331 3.3006,-0.2527 6.0849,0.9468 6.3506,4.418 0.1139,1.4873 -0.0848,3.8188 -6.1394,3.9695 -6.0545,0.1506 -5.7021,-1.5722 -5.8156,-3.0544z"/>
      <g style="clip-path:url(#id1)">
       <g>
        <path id="_5916044161" class="fil3" d="M256.824 209.398c6.1019,-0.5771 8.2716,8.8901 0.1863,9.1387 -7.9174,0.2435 -5.5501,-8.6315 -0.1863,-9.1387z"/>
        <path id="_591600120" class="fil3" d="M257.006 208.137c1.9024,-0.0398 2.5788,0.6132 0.058,0.6303 -2.4684,0.0168 -1.7303,-0.5953 -0.058,-0.6303z"/>
       </g>
      </g>
      <path class="fil4 str0" d="M251.043 212.801c-0.2657,-3.4711 2.3037,-5.0804 5.6044,-5.3331 3.3006,-0.2527 6.0849,0.9468 6.3506,4.418 0.1139,1.4873 -0.0848,3.8188 -6.1394,3.9695 -6.0545,0.1506 -5.7021,-1.5722 -5.8156,-3.0544z"/>
     </g>
    </g>
    <g>
     <path id="_591150128" class="fil5" d="M248.102 187.659c-0.0596,1.2457 -3.7696,18.4368 -3.7696,18.4368 0,0 -2.4096,1.8423 -11.4121,-0.57 -3.1711,-9.5366 -0.9073,-32.747 -0.7276,-33.3156l15.1762 -0.0347 0.6977 -0.0016 0.6977 -0.0016 15.1762 -0.0347c0.1823,0.5677 2.5523,23.7675 -0.5751,33.3185 -8.9914,2.4535 -11.4093,0.6223 -11.4093,0.6223 0,0 -3.7887,-17.174 -3.8541,-18.4194z"/>
     <g style="clip-path:url(#id2)">
      <g>
       <path id="_4846281521" class="fil6" d="M244.423 175.989c0,0 -0.6112,4.4901 0.3632,7.8025 0.9743,3.3125 3.3203,5.6709 3.3203,5.6709l-0.024 -13.6889 -3.6595 0.2155z"/>
      </g>
     </g>
     <path class="fil4 str2" d="M248.102 187.659c-0.0596,1.2457 -3.7696,18.4368 -3.7696,18.4368 0,0 -2.4096,1.8423 -11.4121,-0.57 -3.1711,-9.5366 -0.9073,-32.747 -0.7276,-33.3156l15.1762 -0.0347 0.6977 -0.0016 0.6977 -0.0016 15.1762 -0.0347c0.1823,0.5677 2.5523,23.7675 -0.5751,33.3185 -8.9914,2.4535 -11.4093,0.6223 -11.4093,0.6223 0,0 -3.7887,-17.174 -3.8541,-18.4194z"/>
     <path id="_591150224" class="fil6" d="M238.54 177.845c0,0 -1.634,13.1741 -1.529,17.5006 0.105,4.3265 0.2578,8.748 0.2578,8.748 0,0 1.3413,-16.4067 1.2712,-26.2486zm19.0799 -0.0437c0,0 1.6942,13.1665 1.609,17.4935 -0.0851,4.3269 -0.2177,8.749 -0.2177,8.749 0,0 -1.4163,-16.4003 -1.3913,-26.2425z"/>
    </g>
   </g>
   <path id="_591150344" class="fil7" d="M226.858 195.745c1.025,1.612 10.9915,4.875 21.2486,4.875 10.2572,0 20.2237,-3.263 21.2487,-4.875 0.2103,-0.3309 -4.0845,-40.8632 -8.2453,-43.2879 -6.4833,-3.778 -19.5235,-3.778 -26.0067,0 -4.1605,2.4245 -8.4558,42.9567 -8.2453,43.2879z"/>
   <g style="clip-path:url(#id3)">
    <g>
     <g>
      <path id="_5904458721" class="fil7" d="M232.622 149.539c0,0 9.6921,10.4611 12.1743,16.1336 2.4822,5.6725 1.9105,35.3823 1.9105,35.3823l-6.8507 -0.3192c0,0 2.0011,-28.1129 -2.9859,-36.0711 -4.987,-7.9582 -8.6784,-11.3904 -8.6784,-11.3904l4.4302 -3.7352z"/>
     </g>
     <g style="clip-path:url(#id4)">
      <g>
       <path id="_5916251522" class="fil8" d="M231.771 149.939c0,0 9.4915,10.759 11.7743,15.7336 2.2828,4.9746 2.2105,35.4823 2.2105,35.4823l-2.2254 -0.1596c0,0 2.4839,-27.9526 -2.5627,-36.4943 -5.0466,-8.5417 -10.2016,-13.819 -10.2016,-13.819l1.0049 -0.743z"/>
       <path id="_591626448" class="fil8" d="M229.15 150.533c0,0 9.4915,10.759 11.7743,15.7336 2.2828,4.9746 2.2105,35.4823 2.2105,35.4823l-2.2254 -0.1596c0,0 2.4839,-27.9526 -2.5627,-36.4943 -5.0466,-8.5417 -10.2016,-13.819 -10.2016,-13.819l1.0049 -0.743z"/>
      </g>
     </g>
     <g style="clip-path:url(#id5)">
      <path class="fil4 str3" d="M232.622 149.539c0,0 9.6921,10.4611 12.1743,16.1336 2.4822,5.6725 1.9105,35.3823 1.9105,35.3823l-6.8507 -0.3192c0,0 2.0011,-28.1129 -2.9859,-36.0711 -4.987,-7.9582 -8.6784,-11.3904 -8.6784,-11.3904l4.4302 -3.7352z"/>
      <path id="_590446160" class="fil7" d="M263.591 149.539c0,0 -9.6921,10.4611 -12.1743,16.1336 -2.4822,5.6725 -1.9105,35.3823 -1.9105,35.3823l6.8507 -0.3192c0,0 -2.0011,-28.1129 2.9859,-36.0711 4.987,-7.9582 8.6784,-11.3904 8.6784,-11.3904l-4.4302 -3.7352z"/>
     </g>
     <g style="clip-path:url(#id6)">
      <g>
       <path id="_5904187281" class="fil8" d="M264.443 149.939c0,0 -9.4915,10.759 -11.7743,15.7336 -2.2828,4.9746 -2.2105,35.4823 -2.2105,35.4823l2.2254 -0.1596c0,0 -2.4839,-27.9526 2.5627,-36.4943 5.0466,-8.5417 10.2016,-13.819 10.2016,-13.819l-1.0049 -0.743z"/>
       <path id="_590419664" class="fil8" d="M267.064 150.533c0,0 -9.4915,10.759 -11.7743,15.7336 -2.2828,4.9746 -2.2105,35.4823 -2.2105,35.4823l2.2254 -0.1596c0,0 -2.4839,-27.9526 2.5627,-36.4943 5.0466,-8.5417 10.2016,-13.819 10.2016,-13.819l-1.0049 -0.743z"/>
      </g>
     </g>
     <g style="clip-path:url(#id7)">
      <path class="fil4 str3" d="M263.591 149.539c0,0 -9.6921,10.4611 -12.1743,16.1336 -2.4822,5.6725 -1.9105,35.3823 -1.9105,35.3823l6.8507 -0.3192c0,0 -2.0011,-28.1129 2.9859,-36.0711 4.987,-7.9582 8.6784,-11.3904 8.6784,-11.3904l-4.4302 -3.7352z"/>
     </g>
     <g>
      <path id="_590446280" class="fil7" d="M277.59 156.588c0,0 -9.6921,10.4611 -12.1743,16.1336 -2.4822,5.6725 -1.9105,35.3823 -1.9105,35.3823l6.8507 -0.3192c0,0 -2.0011,-28.1129 2.9859,-36.0711 4.987,-7.9582 8.6784,-11.3904 8.6784,-11.3904l-4.4302 -3.7352z"/>
     </g>
     <g style="clip-path:url(#id8)">
      <g>
       <path id="_5904240561" class="fil8" d="M278.442 156.988c0,0 -9.4915,10.759 -11.7743,15.7336 -2.2828,4.9746 -2.2105,35.4823 -2.2105,35.4823l2.2254 -0.1596c0,0 -2.4839,-27.9526 2.5627,-36.4943 5.0466,-8.5417 10.2016,-13.819 10.2016,-13.819l-1.0049 -0.743z"/>
       <path id="_590424272" class="fil8" d="M281.062 157.582c0,0 -9.4915,10.759 -11.7743,15.7336 -2.2828,4.9746 -2.2105,35.4823 -2.2105,35.4823l2.2254 -0.1596c0,0 -2.4839,-27.9526 2.5627,-36.4943 5.0466,-8.5417 10.2016,-13.819 10.2016,-13.819l-1.0049 -0.743z"/>
      </g>
     </g>
     <g style="clip-path:url(#id9)">
      <path class="fil4 str3" d="M277.59 156.588c0,0 -9.6921,10.4611 -12.1743,16.1336 -2.4822,5.6725 -1.9105,35.3823 -1.9105,35.3823l6.8507 -0.3192c0,0 -2.0011,-28.1129 2.9859,-36.0711 4.987,-7.9582 8.6784,-11.3904 8.6784,-11.3904l-4.4302 -3.7352z"/>
      <path id="_590446880" class="fil7" d="M218.624 156.588c0,0 9.6921,10.4611 12.1743,16.1336 2.4822,5.6725 1.9105,35.3823 1.9105,35.3823l-6.8507 -0.3192c0,0 2.0011,-28.1129 -2.9859,-36.0711 -4.987,-7.9582 -8.6784,-11.3904 -8.6784,-11.3904l4.4302 -3.7352z"/>
     </g>
     <g style="clip-path:url(#id10)">
      <g>
       <path id="_5904402321" class="fil8" d="M217.772 156.988c0,0 9.4915,10.759 11.7743,15.7336 2.2828,4.9746 2.2105,35.4823 2.2105,35.4823l-2.2254 -0.1596c0,0 2.4839,-27.9526 -2.5627,-36.4943 -5.0466,-8.5417 -10.2016,-13.819 -10.2016,-13.819l1.0049 -0.743z"/>
       <path id="_590440448" class="fil8" d="M215.151 157.582c0,0 9.4915,10.759 11.7743,15.7336 2.2828,4.9746 2.2105,35.4823 2.2105,35.4823l-2.2254 -0.1596c0,0 2.4839,-27.9526 -2.5627,-36.4943 -5.0466,-8.5417 -10.2016,-13.819 -10.2016,-13.819l1.0049 -0.743z"/>
      </g>
     </g>
     <g style="clip-path:url(#id11)">
      <path class="fil4 str3" d="M218.624 156.588c0,0 9.6921,10.4611 12.1743,16.1336 2.4822,5.6725 1.9105,35.3823 1.9105,35.3823l-6.8507 -0.3192c0,0 2.0011,-28.1129 -2.9859,-36.0711 -4.987,-7.9582 -8.6784,-11.3904 -8.6784,-11.3904l4.4302 -3.7352z"/>
     </g>
    </g>
   </g>
   <path class="fil4 str4" d="M226.858 195.745c1.025,1.612 10.9915,4.875 21.2486,4.875 10.2572,0 20.2237,-3.263 21.2487,-4.875 0.2103,-0.3309 -4.0845,-40.8632 -8.2453,-43.2879 -6.4833,-3.778 -19.5235,-3.778 -26.0067,0 -4.1605,2.4245 -8.4558,42.9567 -8.2453,43.2879z"/>
  </g>
  <path class="fil9 str5" d="M241.749 146l12.7151 0 0 5.5158c0,1.6001 -2.8469,2.898 -6.3575,2.898 -3.5105,0 -6.3576,-1.2979 -6.3576,-2.898l0 -5.5158z"/>
  <g id="_591150920">
   <path id="_591151232" class="fil6" d="M268.05 171.82c0,0 0.1422,-0.2279 0.2094,-0.6483 0.0797,0.0458 0.1599,0.0926 0.2406,0.1406 -0.1149,0.1813 -0.2626,0.3519 -0.45,0.5077z"/>
   <path id="_591150608" class="fil6" d="M270.748 176.188c0,0 -0.2048,-0.8842 -1.4128,-1.5442 -1.2082,-0.6601 -2.9933,-1.7578 -2.9933,-1.7578 0,0 4.6608,0.5389 4.4061,3.302zm-5.6225 -3.6584c0,0 0.2047,0.8842 1.4128,1.5442 1.2082,0.6601 2.9933,1.7578 2.9933,1.7578 0,0 -4.6607,-0.5389 -4.4061,-3.302z"/>
   <path id="_591150824" class="fil9 str5" d="M266.794 185.214c-0.2649,1.9747 -2.1689,4.5389 -1.8828,5.028 0.2862,0.4891 0.6328,0.5989 2.7992,-0.6572 1.0723,1.5706 -1.2401,4.7598 0.2756,5.2858 0.9786,0.3395 1.7885,-2.3954 1.9859,-3.2469 1.548,0.7783 -0.5369,4.1577 1.1818,4.2774 1.0669,0.0736 1.1651,-3.2071 1.0827,-4.1321 1.6212,-0.1427 0.3084,3.1184 1.8406,2.9448 1.0205,-0.1158 0.5695,-2.9939 0.4138,-3.8275 0.9365,-0.7018 0.8148,1.7632 1.7091,1.47 0.7301,-0.2393 0.7032,-0.855 -0.0685,-2.8803 -0.4297,-1.127 -0.5734,-2.8396 -1.0906,-4.4095l-0.0009 0.0154c0.0603,-1.1474 0.3849,-9.7018 -2.6872,-19.4978 -3.3028,-10.5316 -7.3534,-12.0895 -10.3446,-12.5257 0,0 -0.2653,9.9947 1.4796,13.5468 1.7449,3.552 3.2565,18.6088 3.2565,18.6088l0.0498 0z"/>
   <path id="_591151016" class="fil7" d="M273.857 171.459c-0.3775,-1.8686 -0.8679,-3.845 -1.5045,-5.8751 -3.3028,-10.5316 -7.3534,-12.0895 -10.3446,-12.5257 0,0 -0.2653,9.9947 1.4796,13.5468 0.5976,1.2164 1.1677,3.7823 1.6592,6.6305 2.3851,0.1967 6.0216,-0.5916 8.7103,-1.7765z"/>
   <g style="clip-path:url(#id12)">
    <g>
     <path id="_5914725041" class="fil7" d="M289.044 146.238c0,0 -13.6241,4.2135 -18.61,7.8849 -4.9859,3.6714 -19.3457,29.6867 -19.3457,29.6867l6.0924 3.1489c0,0 12.3235,-25.347 20.6215,-29.7455 8.2979,-4.3985 13.2109,-5.5252 13.2109,-5.5252l-1.9691 -5.4498z"/>
    </g>
    <g style="clip-path:url(#id13)">
     <g>
      <path id="_5904358402" class="fil8" d="M289.581 147.01c0,0 -13.5994,4.5718 -18.0636,7.7385 -4.4643,3.1667 -19.6555,29.6233 -19.6555,29.6233l2.007 0.9745c0,0 11.8252,-25.4496 20.4665,-30.3236 8.6414,-4.8741 15.7444,-6.8668 15.7444,-6.8668l-0.4988 -1.1459z"/>
      <path id="_590436056" class="fil8" d="M291.554 148.835c0,0 -13.5994,4.5719 -18.0637,7.7386 -4.4642,3.1667 -19.6555,29.6233 -19.6555,29.6233l2.0071 0.9745c0,0 11.8252,-25.4496 20.4665,-30.3237 8.6413,-4.874 15.7444,-6.8668 15.7444,-6.8668l-0.4988 -1.1459z"/>
     </g>
    </g>
    <g style="clip-path:url(#id14)">
     <path class="fil4 str3" d="M289.044 146.238c0,0 -13.6241,4.2135 -18.61,7.8849 -4.9859,3.6714 -19.3457,29.6867 -19.3457,29.6867l6.0924 3.1489c0,0 12.3235,-25.347 20.6215,-29.7455 8.2979,-4.3985 13.2109,-5.5252 13.2109,-5.5252l-1.9691 -5.4498z"/>
    </g>
   </g>
   <path class="fil4 str4" d="M273.857 171.459c-0.3775,-1.8686 -0.8679,-3.845 -1.5045,-5.8751 -3.3028,-10.5316 -7.3534,-12.0895 -10.3446,-12.5257 0,0 -0.2653,9.9947 1.4796,13.5468 0.5976,1.2164 1.1677,3.7823 1.6592,6.6305 2.3851,0.1967 6.0216,-0.5916 8.7103,-1.7765z"/>
  </g>
  <g id="_591151640">
   <path id="_591151328" class="fil9 str5" d="M217.965 153.122c0.7671,-1.8387 3.2697,-3.8227 3.1199,-4.3692 -0.1498,-0.5465 -0.4562,-0.7423 -2.8739,-0.0897 -0.6293,-1.7946 2.4298,-4.2766 1.1019,-5.177 -0.8574,-0.5812 -2.3476,1.8509 -2.7586,2.6223 -1.2938,-1.1525 1.5947,-3.877 -0.0344,-4.4375 -1.0115,-0.3473 -1.9556,2.7963 -2.1153,3.7111 -1.6029,-0.2818 0.5092,-3.092 -1.0157,-3.3209 -1.0158,-0.1523 -1.325,2.7445 -1.3904,3.59 -1.0862,0.4355 -0.3306,-1.9141 -1.2704,-1.8623 -0.7671,0.0422 -0.9005,0.6439 -0.6792,2.7999 0.1233,1.1998 -0.1812,2.8912 -0.0879,4.5415l0.0463 -0.1402 -0.0463 0.1402c0,0 -3.1874,9.8525 0.1192,15.8188 2.3196,4.1852 9.4248,2.7746 13.8222,-0.0173 9.3178,-5.9158 11.1892,-11.4663 9.4216,-13.234 -1.7676,-1.7677 -9.6157,2.4595 -12.7023,4.9353 -2.7046,2.1697 -4.4132,0.7358 -2.6567,-5.5108l0 -0.0002z"/>
   <path id="_591151544" class="fil7" d="M224.121 166.791c9.1268,-5.8629 10.956,-11.3395 9.2024,-13.0932 -1.7676,-1.7677 -9.6157,2.4595 -12.7023,4.9353 -1.0319,0.8278 -1.9184,1.1303 -2.5232,0.8419 0.6787,2.1881 3.4044,5.345 6.0231,7.316z"/>
   <g style="clip-path:url(#id15)">
    <g>
     <path id="_5914729841" class="fil7" d="M204.945 142.02c0,0 13.6241,4.2135 18.61,7.8849 4.9859,3.6714 19.3457,29.6867 19.3457,29.6867l-6.0924 3.1489c0,0 -12.3235,-25.347 -20.6215,-29.7455 -8.2979,-4.3985 -13.2109,-5.5252 -13.2109,-5.5252l1.9691 -5.4498z"/>
    </g>
    <g style="clip-path:url(#id16)">
     <g>
      <path id="_5904297922" class="fil8" d="M204.407 142.792c0,0 13.5994,4.5718 18.0636,7.7385 4.4643,3.1667 19.6555,29.6233 19.6555,29.6233l-2.007 0.9745c0,0 -11.8252,-25.4496 -20.4665,-30.3236 -8.6414,-4.8741 -15.7444,-6.8668 -15.7444,-6.8668l0.4988 -1.1459z"/>
      <path id="_590429528" class="fil8" d="M202.434 144.617c0,0 13.5994,4.5719 18.0637,7.7386 4.4642,3.1667 19.6555,29.6233 19.6555,29.6233l-2.0071 0.9745c0,0 -11.8252,-25.4496 -20.4665,-30.3237 -8.6413,-4.874 -15.7444,-6.8668 -15.7444,-6.8668l0.4988 -1.1459z"/>
     </g>
    </g>
    <g style="clip-path:url(#id17)">
     <path class="fil4 str3" d="M204.945 142.02c0,0 13.6241,4.2135 18.61,7.8849 4.9859,3.6714 19.3457,29.6867 19.3457,29.6867l-6.0924 3.1489c0,0 -12.3235,-25.347 -20.6215,-29.7455 -8.2979,-4.3985 -13.2109,-5.5252 -13.2109,-5.5252l1.9691 -5.4498z"/>
    </g>
   </g>
   <path class="fil4 str4" d="M224.121 166.791c9.1268,-5.8629 10.956,-11.3395 9.2024,-13.0932 -1.7676,-1.7677 -9.6157,2.4595 -12.7023,4.9353 -1.0319,0.8278 -1.9184,1.1303 -2.5232,0.8419 0.6787,2.1881 3.4044,5.345 6.0231,7.316z"/>
   <path id="_591151736" class="fil4 str5" d="M213.589 150.819c0,0 0.3167,-2.0576 2.7263,-1.412"/>
  </g>
  <g id="_591158336">
   <path id="_591152192" class="fil10 str6" d="M129.66 206.383c-3.5586,0.2888 -6.1551,4.0916 -5.9172,7.0233 0.2379,2.9317 3.2203,3.8835 6.779,3.5947 3.5586,-0.2888 6.3483,-1.7091 6.1104,-4.6407 -0.2379,-2.9317 -3.4135,-6.2661 -6.9722,-5.9773z"/>
   <path id="_591151928" class="fil10 str6" d="M111.84 206.424c3.5599,0.2725 6.1738,4.0634 5.9493,6.9961 -0.2245,2.9328 -3.2025,3.8983 -6.7624,3.6257 -3.56,-0.2725 -6.3561,-1.68 -6.1316,-4.6127 0.2245,-2.9328 3.3848,-6.2817 6.9447,-6.0091z"/>
   <path id="_591152024" class="fil9" d="M105.965 180.983c0,0 -1.3885,11.1414 -1.5391,15.1086 -0.1507,3.9673 1.9465,10.5551 1.766,12.9132 -0.1805,2.3582 -1.022,5.3544 1.6288,5.7103 2.6507,0.356 5.9803,0.8404 7.7823,0.2897 1.802,-0.5507 2.1056,-2.5168 1.081,-4.1256 -1.0246,-1.6087 -0.7892,-13.6801 -0.3921,-15.8686 0.3971,-2.1885 2.2187,-12.9907 2.2187,-12.9907l-12.5456 -1.0369z"/>
   <g style="clip-path:url(#id18)">
    <g>
     <path id="_5960870961" class="fil4 str7" d="M114.781 213.87c0,0 0.4986,-0.4987 1.3747,-0.2528m-8.399 -0.9743c0,0 -0.8797,2.0972 1.1708,2.2203m5.1001 -1.9773c0,0 -0.8797,2.097 1.1709,2.2202m-3.312 -2.0777c0,0 -0.8797,2.0971 1.171,2.2203m-3.2243 -2.3579c0,0 -0.8796,2.0971 1.171,2.22m-4.2485 -1.7345c0,0 0.1753,-0.1756 0.4836,-0.0889m1.0553 0.5902c0,0 0.3164,-0.3166 0.8725,-0.1606m1.1574 0.3671c0,0 0.3165,-0.3167 0.8725,-0.1605m1.1484 0.0878c0,0 0.3164,-0.3166 0.8724,-0.1604"/>
     <path id="_596087168" class="fil10" d="M105.596 204.288c0.0806,0.4062 0.1584,0.8022 0.2303,1.1834 1.966,0.3477 4.0949,0.5383 6.3185,0.5383 1.3405,0 2.6464,-0.0697 3.9033,-0.2008 -0.0139,-0.3711 -0.0252,-0.7513 -0.0339,-1.1378 -1.2464,0.1287 -2.541,0.1968 -3.8694,0.1968 -2.3108,0 -4.5192,-0.2058 -6.5488,-0.5799z"/>
    </g>
    <g style="clip-path:url(#id19)">
     <g>
      <path id="_5960915601" class="fil4 str7" d="M114.818 213.811c0,0 0.4986,-0.4987 1.3747,-0.2528m-8.399 -0.9743c0,0 -0.8797,2.0972 1.1708,2.2203m5.1001 -1.9773c0,0 -0.8797,2.097 1.1709,2.2202m-3.312 -2.0777c0,0 -0.8797,2.0971 1.171,2.2203m-3.2243 -2.3579c0,0 -0.8796,2.0971 1.171,2.22m-4.2485 -1.7345c0,0 0.1753,-0.1756 0.4836,-0.0889m1.0553 0.5902c0,0 0.3164,-0.3166 0.8725,-0.1606m1.1574 0.3671c0,0 0.3165,-0.3167 0.8725,-0.1605m1.1484 0.0878c0,0 0.3164,-0.3166 0.8724,-0.1604"/>
     </g>
    </g>
    <g style="clip-path:url(#id20)">
     <path class="fil4" d="M105.596 204.288c0.0806,0.4062 0.1584,0.8022 0.2303,1.1834 1.966,0.3477 4.0949,0.5383 6.3185,0.5383 1.3405,0 2.6464,-0.0697 3.9033,-0.2008 -0.0139,-0.3711 -0.0252,-0.7513 -0.0339,-1.1378 -1.2464,0.1287 -2.541,0.1968 -3.8694,0.1968 -2.3108,0 -4.5192,-0.2058 -6.5488,-0.5799z"/>
    </g>
   </g>
   <path class="fil4 str8" d="M105.965 180.983c0,0 -1.3885,11.1414 -1.5391,15.1086 -0.1507,3.9673 1.9465,10.5551 1.766,12.9132 -0.1805,2.3582 -1.022,5.3544 1.6288,5.7103 2.6507,0.356 5.9803,0.8404 7.7823,0.2897 1.802,-0.5507 2.1056,-2.5168 1.081,-4.1256 -1.0246,-1.6087 -0.7892,-13.6801 -0.3921,-15.8686 0.3971,-2.1885 2.2187,-12.9907 2.2187,-12.9907l-12.5456 -1.0369z"/>
   <path id="_591152216" class="fil10 str6" d="M117.443 214.324c0.1372,-0.5011 0.2282,-1.004 0.2659,-1.4965 0.276,-3.6054 -2.3928,-5.277 -5.8211,-5.5394 -3.4284,-0.2625 -6.3203,0.9834 -6.5963,4.5888 -0.0377,0.4925 -0.0243,1.0034 0.035,1.5195 0.8218,-2.5702 3.3817,-3.4683 6.3418,-3.2417 2.9602,0.2266 5.3537,1.5039 5.7747,4.1693z"/>
   <path id="_591152480" class="fil9" d="M135.418 180.915c0,0 1.4395,11.1349 1.6083,15.1014 0.1688,3.9666 -1.8982,10.5639 -1.7069,12.9212 0.1913,2.3573 1.0465,5.3496 -1.6026,5.7177 -2.6491,0.368 -5.9765,0.8677 -7.781,0.3253 -1.8045,-0.5425 -2.117,-2.5072 -1.0998,-4.1206 1.0172,-1.6134 0.7265,-13.6836 0.3194,-15.8703 -0.4071,-2.1867 -2.2781,-12.9804 -2.2781,-12.9804l12.5407 -1.0943z"/>
   <g style="clip-path:url(#id21)">
    <g>
     <path id="_4846316801" class="fil4 str7" d="M126.759 213.845c0,0 -0.4986,-0.4987 -1.3748,-0.2527m8.399 -0.9744c0,0 0.8798,2.0972 -1.1708,2.2203m-5.1001 -1.9773c0,0 0.8797,2.0969 -1.1708,2.2202m3.3119 -2.0778c0,0 0.8799,2.0972 -1.1709,2.2205m3.2244 -2.358c0,0 0.8797,2.0971 -1.1712,2.2201m4.2485 -1.7347c0,0 -0.1753,-0.1755 -0.4835,-0.0888m-1.0553 0.5903c0,0 -0.3164,-0.3167 -0.8724,-0.1607m-1.1575 0.3671c0,0 -0.3164,-0.3167 -0.8724,-0.1606m-1.1485 0.088c0,0 -0.3162,-0.3168 -0.8724,-0.1604"/>
    </g>
   </g>
   <path class="fil4 str8" d="M135.418 180.915c0,0 1.4395,11.1349 1.6083,15.1014 0.1688,3.9666 -1.8982,10.5639 -1.7069,12.9212 0.1913,2.3573 1.0465,5.3496 -1.6026,5.7177 -2.6491,0.368 -5.9765,0.8677 -7.781,0.3253 -1.8045,-0.5425 -2.117,-2.5072 -1.0998,-4.1206 1.0172,-1.6134 0.7265,-13.6836 0.3194,-15.8703 -0.4071,-2.1867 -2.2781,-12.9804 -2.2781,-12.9804l12.5407 -1.0943z"/>
   <path id="_591152696" class="fil10 str6" d="M124.094 214.309c-0.1394,-0.5005 -0.2328,-1.003 -0.2727,-1.4953 -0.2925,-3.6041 2.3686,-5.2878 5.7957,-5.566 3.4271,-0.2781 6.3248,0.9545 6.6173,4.5586 0.0399,0.4923 0.0288,1.0033 -0.0281,1.5197 -0.8336,-2.5664 -3.3975,-3.4529 -6.3566,-3.2127 -2.9591,0.2401 -5.3468,1.5284 -5.7556,4.1957z"/>
   <g>
    <path id="_591152888" class="fil11 str9" d="M99.4787 199.5c1.025,1.6121 10.9915,4.875 21.2486,4.875 10.2572,0 20.2237,-3.2629 21.2487,-4.875 0.2104,-0.3309 -4.0844,-46.9632 -8.2453,-49.3879 -6.4833,-3.7781 -19.5235,-3.7781 -26.0067,0 -4.1606,2.4245 -8.4559,49.0567 -8.2453,49.3879z"/>
    <g>
     <g>
      <circle id="_591151832" class="fil12" cx="112.987" cy="151.63" r="0.335961"/>
      <circle id="_591153344" class="fil10" transform="matrix(0.111534 -0.111534 0.223068 0.223068 113.573 152.198)" r="1.5224"/>
      <circle id="_591153080" class="fil12" cx="114.127" cy="152.796" r="0.335961"/>
      <circle id="_591153176" class="fil10" transform="matrix(0.111534 -0.111534 0.223068 0.223068 114.714 153.363)" r="1.5224"/>
      <circle id="_591153368" class="fil12" transform="matrix(0.213145 -0.0571695 0.0571695 0.213145 115.366 153.826)" r="1.5224"/>
      <circle id="_591153656" class="fil10" transform="matrix(0.0788319 -0.13662 0.273241 0.157664 116.079 154.222)" r="1.5224"/>
      <circle id="_591153872" class="fil12" transform="matrix(0.194964 -0.103383 0.103383 0.194964 116.79 154.623)" r="1.5224"/>
      <circle id="_591154064" class="fil10" transform="matrix(0.0462861 -0.150788 0.301577 0.0925723 117.574 154.849)" r="1.5224"/>
      <circle id="_591154712" class="fil12" transform="matrix(0.194964 -0.103383 0.103383 0.194964 118.334 155.141)" r="1.5224"/>
      <circle id="_591154232" class="fil10" transform="matrix(0.0462861 -0.150788 0.301577 0.0925723 119.118 155.367)" r="1.5224"/>
      <circle id="_591154448" class="fil12" transform="matrix(0.168388 -0.142634 0.142634 0.168388 119.913 155.508)" r="1.5224"/>
      <circle id="_591154640" class="fil10" transform="matrix(0.0130162 -0.157195 0.314389 0.0260323 120.727 155.562)" r="1.5224"/>
      <circle id="_591154904" class="fil12" transform="matrix(0.21365 0.0552499 -0.0552499 0.21365 112.105 150.26)" r="1.5224"/>
      <circle id="_591155000" class="fil10" transform="matrix(0.135906 -0.0800577 0.160115 0.271811 112.531 150.956)" r="1.5224"/>
      <circle id="_591155192" class="fil12" transform="matrix(0.158468 0.15358 -0.15358 0.158468 111.987 148.639)" r="1.5224"/>
      <circle id="_591154736" class="fil10" transform="matrix(0.157713 -0.00247052 0.00494104 0.315427 112.013 149.454)" r="1.5224"/>
     </g>
     <g>
      <circle id="_591141080" class="fil12" cx="128.468" cy="151.63" r="0.335961"/>
      <circle id="_591159968" class="fil10" transform="matrix(-0.111534 -0.111534 -0.223068 0.223068 127.882 152.198)" r="1.5224"/>
      <circle id="_591155912" class="fil12" cx="127.327" cy="152.796" r="0.335961"/>
      <circle id="_591155384" class="fil10" transform="matrix(-0.111534 -0.111534 -0.223068 0.223068 126.741 153.363)" r="1.5224"/>
      <circle id="_591155600" class="fil12" transform="matrix(-0.213145 -0.0571695 -0.0571695 0.213145 126.089 153.826)" r="1.5224"/>
      <circle id="_591155792" class="fil10" transform="matrix(-0.0788319 -0.13662 -0.273241 0.157664 125.375 154.222)" r="1.5224"/>
      <circle id="_591156104" class="fil12" transform="matrix(-0.194964 -0.103383 -0.103383 0.194964 124.664 154.623)" r="1.5224"/>
      <circle id="_591156200" class="fil10" transform="matrix(-0.0462861 -0.150788 -0.301577 0.0925723 123.88 154.849)" r="1.5224"/>
      <circle id="_591156392" class="fil12" transform="matrix(-0.194964 -0.103383 -0.103383 0.194964 123.121 155.141)" r="1.5224"/>
      <circle id="_591155936" class="fil10" transform="matrix(-0.0462861 -0.150788 -0.301577 0.0925723 122.337 155.367)" r="1.5224"/>
      <circle id="_591156680" class="fil12" transform="matrix(-0.168388 -0.142634 -0.142634 0.168388 121.542 155.508)" r="1.5224"/>
      <circle id="_591156776" class="fil12" transform="matrix(-0.21365 0.0552499 0.0552499 0.21365 129.35 150.26)" r="1.5224"/>
      <circle id="_591156968" class="fil10" transform="matrix(-0.135906 -0.0800577 -0.160115 0.271811 128.924 150.956)" r="1.5224"/>
      <circle id="_591157448" class="fil12" transform="matrix(-0.158468 0.15358 0.15358 0.158468 129.468 148.639)" r="1.5224"/>
      <circle id="_591157184" class="fil10" transform="matrix(-0.157713 -0.00247052 -0.00494104 0.315427 129.442 149.455)" r="1.5224"/>
     </g>
    </g>
   </g>
   <g>
    <path id="_591157472" class="fil10" d="M112.804 172.88c0,0 -2.5861,6.7352 -3.3716,13.8703 -0.7852,7.135 -0.064,12.8541 -0.064,12.8541 0,0 1.4953,-9.2164 3.4356,-26.7244z"/>
    <path id="_591158816" class="fil10" d="M118.283 175.079c0,0 -1.9744,7.8458 -2.1516,15.2154 -0.1769,7.369 1.0047,12.625 1.0047,12.625 0,0 0.6997,-9.7508 1.1469,-27.8404z"/>
    <path id="_591157832" class="fil10" d="M123.172 175.079c0,0 1.9743,7.8461 2.1514,15.2154 0.1772,7.369 -1.0046,12.625 -1.0046,12.625 0,0 -0.6997,-9.7512 -1.1468,-27.8404z"/>
    <path id="_591157928" class="fil10" d="M128.651 172.88c0,0 2.586,6.7352 3.3714,13.8702 0.7855,7.1348 0.0641,12.8542 0.0641,12.8542 0,0 -1.4953,-9.2166 -3.4355,-26.7244z"/>
    <path id="_591158120" class="fil10" d="M133.089 170.827c0,0 2.8348,6.1265 3.8923,13.0544 1.0575,6.9281 0.5603,12.784 0.5603,12.784 0,0 -1.8446,-8.8412 -4.4526,-25.8384z"/>
    <path id="_591158624" class="fil10" d="M108.366 170.827c0,0 -2.8348,6.1265 -3.8924,13.0544 -1.0575,6.9281 -0.5602,12.784 -0.5602,12.784 0,0 1.8446,-8.8412 4.4526,-25.8384z"/>
   </g>
  </g>
  <g id="_591159872">
   <path id="_591158552" class="fil13 str10" d="M139.54 136.857c0,0 6.9866,3.8292 7.1882,8.0614 0.1967,4.1333 0.5828,13.2695 6.584,14.0238 1.8239,0.229 -4.8986,2.2102 -7.323,-0.6551 -3.6947,-4.3664 -2.3589,-7.378 -8.5318,-8.8677 -6.1727,-1.4896 -6.9193,-2.8215 -6.9193,-2.8215l9.0019 -9.7409z"/>
   <g>
    <path id="_591158744" class="fil13 str10" d="M101.915 136.857c0,0 -6.9866,3.8292 -7.1881,8.0614 -0.1968,4.1333 -0.5829,13.2695 -6.5841,14.0238 -1.8238,0.229 4.8987,2.2102 7.323,-0.6551 3.6947,-4.3664 2.359,-7.378 8.5318,-8.8677 6.1728,-1.4896 6.9194,-2.8215 6.9194,-2.8215l-9.002 -9.7409z"/>
    <path id="_591159392" class="fil1 str10" d="M94.2524 150.309c-0.1713,1.0846 -0.409,2.1844 -0.7453,3.2207 1.2188,-0.0599 2.794,0.1151 4.3648,1.0002 0.6543,-1.2944 1.1665,-2.3952 2.1783,-3.2926 -1.2009,-0.9536 -3.0799,-1.496 -5.7978,-0.9283z"/>
    <path id="_591158912" class="fil14" d="M101.63 140.73c0,0 -4.2818,3.3841 -4.2565,7.7139 0,0 1.849,-3.8798 4.2565,-7.7139z"/>
    <path id="_591159128" class="fil1 str10" d="M147.202 150.309c0.1712,1.0846 0.409,2.1844 0.7452,3.2207 -1.2187,-0.0599 -2.7939,0.1151 -4.3647,1.0002 -0.6543,-1.2944 -1.1666,-2.3952 -2.1783,-3.2926 1.2008,-0.9536 3.0798,-1.496 5.7978,-0.9283z"/>
    <g>
     <path id="_591159320" class="fil14" d="M139.824 140.73c0,0 4.2818,3.3841 4.2564,7.7139 0,0 -1.849,-3.8798 -4.2564,-7.7139z"/>
     <path id="_591159584" class="fil14" d="M135.743 139.601c0,0 4.2818,3.3841 4.2565,7.7139 0,0 -1.849,-3.8798 -4.2565,-7.7139z"/>
    </g>
   </g>
   <path id="_591159608" class="fil14" d="M105.712 139.601c0,0 -4.2818,3.3841 -4.2564,7.7139 0,0 1.8489,-3.8798 4.2564,-7.7139z"/>
  </g>
  <path class="fil9 str5" d="M114.215 143.567l13.0238 0 0 5.6497c0,1.639 -2.9159,2.9683 -6.5118,2.9683 -3.5957,0 -6.512,-1.3293 -6.512,-2.9683l0 -5.6497z"/>
  <g id="_591160256">
   <path id="_591162416" class="fil9 str5" d="M91.5146 151.213c0.7671,-1.8387 3.2697,-3.8227 3.1199,-4.3692 -0.1498,-0.5465 -0.4562,-0.7423 -2.8739,-0.0897 -0.6293,-1.7946 2.4298,-4.2766 1.1019,-5.177 -0.8574,-0.5812 -2.3476,1.8509 -2.7586,2.6223 -1.2938,-1.1525 1.5947,-3.877 -0.0344,-4.4375 -1.0115,-0.3473 -1.9556,2.7963 -2.1153,3.7111 -1.6029,-0.2818 0.5092,-3.092 -1.0157,-3.3209 -1.0158,-0.1523 -1.325,2.7445 -1.3904,3.59 -1.0862,0.4355 -0.3306,-1.9141 -1.2704,-1.8623 -0.7671,0.0422 -0.9005,0.6439 -0.6792,2.7999 0.1233,1.1998 -0.1812,2.8912 -0.0879,4.5415l0.0463 -0.1402 -0.0463 0.1402c0,0 -3.1874,9.8525 0.1192,15.8188 2.3196,4.1852 9.4248,2.7746 13.8222,-0.0173 9.3178,-5.9158 11.1892,-11.4663 9.4216,-13.234 -1.7676,-1.7677 -9.6157,2.4595 -12.7023,4.9353 -2.7046,2.1697 -4.4132,0.7358 -2.6567,-5.5108l0 -0.0002z"/>
   <path id="_591160352" class="fil11 str9" d="M97.6712 164.882c9.1268,-5.8629 10.956,-11.3395 9.2024,-13.0932 -1.7676,-1.7677 -9.6157,2.4595 -12.7023,4.9353 -1.0319,0.8278 -1.9184,1.1303 -2.5232,0.8419 0.6787,2.1881 3.4044,5.345 6.0231,7.316z"/>
   <path id="_591160088" class="fil4 str5" d="M87.1386 148.91c0,0 0.3167,-2.0576 2.7263,-1.412"/>
  </g>
  <g id="_591162608">
   <path id="_591160448" class="fil9 str5" d="M93.2327 125.833c0.7706,-0.4449 2.1171,0.4441 3.0069,1.9853 0.8898,1.5412 0.9865,3.1518 0.2159,3.5967 -0.7706,0.4449 -2.1171,-0.4441 -3.0069,-1.9853 -0.8898,-1.5412 -0.9865,-3.1518 -0.2159,-3.5967zm54.989 0c-0.7706,-0.4449 -2.1171,0.4441 -3.0069,1.9853 -0.8898,1.5412 -0.9865,3.1518 -0.2159,3.5967 0.7706,0.4449 2.1171,-0.4441 3.0069,-1.9853 0.8898,-1.5412 0.9865,-3.1518 0.2159,-3.5967z"/>
   <path id="_591161072" class="fil9 str5" d="M120.727 96.8066c27.5756,0 25.331,17.4867 25.331,31.4742 0,13.9875 -11.3435,19.1879 -25.331,19.1879 -13.9875,0 -25.3311,-5.2004 -25.3311,-19.1879 0,-13.9875 -2.2446,-31.4742 25.3311,-31.4742z"/>
   <path id="_591160808" class="fil4 str5" d="M118.648 130.79c0,0 2.0466,1.2541 4.1584,0"/>
   <path id="_591160904" class="fil13 str10" d="M113.377 109.091c-0.5102,0.5597 -0.6686,2.7948 -5.7382,2.9452 -5.0695,0.1503 -5.9434,1.0812 -8.0474,6.4185 -2.104,5.3372 -3.4785,15.9207 -3.4785,15.9207 0,0 -1.4946,-6.8381 -3.1204,-11.3326 -1.6258,-4.4945 -1.7214,-16.4798 8.416,-22.5661 8.947,-5.3718 17.4457,-5.3461 19.3184,-5.2658 1.8727,-0.0803 10.3714,-0.106 19.3184,5.2658 10.1374,6.0863 10.0418,18.0716 8.416,22.5661 -1.6258,4.4945 -3.1204,11.3326 -3.1204,11.3326 0,0 -1.3745,-10.5835 -3.4785,-15.9207 -2.104,-5.3373 -17.6778,-6.2682 -22.7473,-6.4185 -5.0695,-0.1504 -5.2279,-2.3855 -5.7381,-2.9452z"/>
   <path id="_591161096" class="fil14" d="M137.719 102.603c0,0 4.0228,3.1794 3.999,7.2473 0,0 -1.7372,-3.6451 -3.999,-7.2473z"/>
   <path id="_591161648" class="fil14" d="M130.545 100.286c0,0 4.0229,3.1794 3.999,7.2474 0,0 -1.7371,-3.6452 -3.999,-7.2474z"/>
   <path id="_591161384" class="fil14" d="M123.142 98.246c0,0 4.0228,3.1794 3.999,7.2474 0,0 -1.7372,-3.6452 -3.999,-7.2474z"/>
   <path id="_591161480" class="fil14" d="M105.581 100.286c0,0 -4.0229,3.1794 -3.999,7.2474 0,0 1.7371,-3.6452 3.999,-7.2474z"/>
   <path id="_591161672" class="fil15 str11" d="M125.51 138.26c0,2.6406 -2.1416,4.7822 -4.7822,4.7822 -2.6406,0 -4.7822,-2.1416 -4.7822,-4.7822l9.5644 0z"/>
   <path id="_591161936" class="fil16" d="M103.923 132.402c1.687,0 3.0552,1.368 3.0552,3.0552 0,1.6872 -1.3682,3.0552 -3.0552,3.0552 -1.6872,0 -3.0554,-1.368 -3.0554,-3.0552 0,-1.6872 1.3682,-3.0552 3.0554,-3.0552zm33.6084 0c1.6871,0 3.0553,1.3682 3.0553,3.0552 0,1.6873 -1.3682,3.0553 -3.0553,3.0553 -1.6871,0 -3.0553,-1.368 -3.0553,-3.0553 0,-1.687 1.3682,-3.0552 3.0553,-3.0552z"/>
   <path id="_591162152" class="fil12" d="M106.755 122.377c1.6523,0.4427 2.7683,1.6395 2.4915,2.6723 -0.2767,1.0329 -1.8416,1.5113 -3.4939,1.0686 -1.6523,-0.4427 -2.7683,-1.6395 -2.4915,-2.6723 0.2768,-1.0329 1.8416,-1.5113 3.4939,-1.0686z"/>
   <g style="clip-path:url(#id22)">
    <g>
     <circle id="_591619176" class="fil13" cx="106.254" cy="124.248" r="1.99056"/>
    </g>
   </g>
   <path class="fil4 str10" d="M106.755 122.377c1.6523,0.4427 2.7683,1.6395 2.4915,2.6723 -0.2767,1.0329 -1.8416,1.5113 -3.4939,1.0686 -1.6523,-0.4427 -2.7683,-1.6395 -2.4915,-2.6723 0.2768,-1.0329 1.8416,-1.5113 3.4939,-1.0686z"/>
   <path id="_591162344" class="fil13" d="M102.247 120.972c0,0 4.3353,-0.7039 8.6706,0.3986 0,0 -3.4882,-4.6841 -8.6706,-0.3986z"/>
   <path id="_591161288" class="fil12" d="M134.815 122.377c-1.6523,0.4427 -2.7682,1.6395 -2.4915,2.6723 0.2768,1.0329 1.8416,1.5113 3.4939,1.0686 1.6523,-0.4427 2.7683,-1.6395 2.4915,-2.6723 -0.2767,-1.0329 -1.8415,-1.5113 -3.4939,-1.0686z"/>
   <g style="clip-path:url(#id23)">
    <g>
     <circle id="_591601728" class="fil13" cx="135.316" cy="124.248" r="1.99056"/>
    </g>
   </g>
   <path class="fil4 str10" d="M134.815 122.377c-1.6523,0.4427 -2.7682,1.6395 -2.4915,2.6723 0.2768,1.0329 1.8416,1.5113 3.4939,1.0686 1.6523,-0.4427 2.7683,-1.6395 2.4915,-2.6723 -0.2767,-1.0329 -1.8415,-1.5113 -3.4939,-1.0686z"/>
   <path id="_591162800" class="fil13" d="M139.322 120.972c0,0 -4.3353,-0.7039 -8.6707,0.3986 0,0 3.4882,-4.6841 8.6707,-0.3986z"/>
  </g>
  <g id="_591162920">
   <path id="_591162704" class="fil9 str5" d="M139.389 183.393c-0.2649,1.9747 -2.1689,4.5389 -1.8828,5.028 0.2862,0.4891 0.6328,0.5989 2.7992,-0.6572 1.0723,1.5706 -1.2401,4.7598 0.2756,5.2858 0.9786,0.3395 1.7885,-2.3954 1.9859,-3.2469 1.548,0.7783 -0.5369,4.1577 1.1818,4.2774 1.0669,0.0736 1.1651,-3.2071 1.0827,-4.1321 1.6212,-0.1427 0.3084,3.1184 1.8406,2.9448 1.0205,-0.1158 0.5695,-2.9939 0.4138,-3.8275 0.9365,-0.7018 0.8148,1.7632 1.7091,1.47 0.7301,-0.2393 0.7032,-0.855 -0.0685,-2.8803 -0.4297,-1.127 -0.5734,-2.8396 -1.0906,-4.4095l-0.0009 0.0154c0.0603,-1.1474 0.3849,-9.7018 -2.6872,-19.4978 -3.3028,-10.5316 -7.3534,-12.0895 -10.3446,-12.5257 0,0 -0.2653,9.9947 1.4796,13.5468 1.7449,3.552 3.2565,18.6088 3.2565,18.6088l0.0498 0z"/>
   <path id="_591162896" class="fil11 str9" d="M146.452 169.638c-0.3775,-1.8686 -0.8679,-3.845 -1.5045,-5.8751 -3.3028,-10.5316 -7.3534,-12.0895 -10.3446,-12.5257 0,0 -0.2653,9.9947 1.4796,13.5468 0.5976,1.2164 1.1677,3.7823 1.6592,6.6305 2.3851,0.1967 6.0216,-0.5916 8.7103,-1.7765z"/>
  </g>
  <path class="fil12 str12" d="M310.343 101.031c12.0503,0 21.8227,6.3272 21.8227,14.1292 0,7.8021 -9.7724,14.1293 -21.8227,14.1293 -5.935,0 -11.3167,-1.5354 -15.2508,-4.0254l-8.0449 4.01 4.0251 -7.4806c-1.628,-1.9781 -2.552,-4.2358 -2.552,-6.6333 0,-7.802 9.7724,-14.1292 21.8226,-14.1292z"/>
  <path class="fil17" d="M303.892 118.348c0,0.1778 -0.1185,0.3238 -0.3556,0.4381 -0.2371,0.1143 -0.5588,0.1715 -0.9652,0.1715 -1.0583,0 -1.9685,-0.3133 -2.7305,-0.9398 -0.8636,-0.7112 -1.2954,-1.6764 -1.2954,-2.8956 0,-1.0075 0.4572,-2.032 1.3716,-3.0734 0.8721,-0.9906 1.6679,-1.4859 2.3876,-1.4859 0.1778,0 0.309,0.0423 0.3937,0.127 0.0847,0.0847 0.127,0.1778 0.127,0.2794 -0.8213,0.6265 -1.5409,1.2785 -2.159,1.9558 -0.6773,0.7451 -1.016,1.5706 -1.016,2.4765 0,0.762 0.3641,1.3335 1.0922,1.7145 0.3387,0.1778 1.0202,0.3852 2.0447,0.6223 0.7366,0.1693 1.1049,0.3725 1.1049,0.6096zm4.6355 0.4318c0,0.3556 -0.0233,0.6371 -0.0698,0.8445 -0.0466,0.2075 -0.1249,0.3112 -0.235,0.3112 -0.3979,0 -0.6477,-0.326 -0.7493,-0.9779 -0.0593,-0.3725 -0.0889,-1.2446 -0.0889,-2.6162l-2.0701 0.381 0 1.7145c0,0.127 0,0.2201 0,0.2794 0,0.4657 -0.0296,0.7916 -0.0868,0.9779 -0.0995,0.3133 -0.2942,0.4699 -0.5842,0.4699 -0.1651,0 -0.2794,-0.1503 -0.3408,-0.4508 -0.0613,-0.3006 -0.0931,-0.7303 -0.0931,-1.2891l0 -4.2164c0,-0.9398 0.0339,-1.6468 0.0995,-2.1209 0.0677,-0.4741 0.2011,-0.7112 0.4022,-0.7112 0.2264,0 0.3831,0.2328 0.472,0.6985 0.0868,0.4657 0.1312,1.1705 0.1312,2.1188l0 1.3335 2.0701 -0.2519c0,-0.6689 -0.0021,-1.1832 -0.0063,-1.5431 -0.0043,-0.3598 -0.0149,-0.709 -0.0318,-1.0477 0,-0.8297 0.0381,-1.4584 0.1143,-1.886 0.0762,-0.4275 0.2286,-0.6413 0.4572,-0.6413 0.1947,0 0.3323,0.254 0.4128,0.762 0.0804,0.508 0.1206,1.215 0.1206,2.1209l0.0762 5.7404zm5.7912 -0.1778c0,0.3302 -0.0317,0.5842 -0.0952,0.762 -0.0635,0.1778 -0.18,0.2667 -0.3493,0.2667 -0.2371,0 -0.453,-0.3598 -0.6477,-1.0795 -0.1101,-0.4657 -0.2159,-0.9356 -0.3175,-1.4097l-2.159 0c-0.1185,0.4572 -0.2371,0.9144 -0.3556,1.3716 -0.1609,0.5503 -0.3937,0.8255 -0.6985,0.8255 -0.1778,0 -0.2836,-0.0254 -0.3175,-0.0762 -0.0677,-0.1016 -0.1016,-0.2752 -0.1016,-0.5207 0,-0.2032 0.0148,-0.4339 0.0445,-0.6922 0.0296,-0.2582 0.1037,-0.6117 0.2222,-1.0604 0.1185,-0.4487 0.2371,-0.8911 0.3556,-1.3272 0.1185,-0.436 0.3471,-1.2551 0.6858,-2.4574 0.254,-0.8975 0.4022,-1.3716 0.4445,-1.4224 0.2371,-0.8297 0.5884,-1.2446 1.0541,-1.2446 0.2286,0 0.4614,0.182 0.6985,0.5461 0.2371,0.3641 0.4064,0.8255 0.508,1.3843 0.0339,0.0593 0.1164,0.4381 0.2477,1.1366 0.1312,0.6985 0.2518,1.3526 0.3619,1.9622 0.0593,0.3471 0.1185,0.6858 0.1778,1.016 0.0593,0.3302 0.1143,0.7112 0.1651,1.143 0.0508,0.4318 0.0762,0.7239 0.0762,0.8763zm-1.5621 -2.5527l-0.6604 -4.1021 -1.1303 4.1021 1.7907 0zm7.9121 -0.8763c0,1.1176 -0.2709,2.0786 -0.8128,2.8829 -0.5673,0.8382 -1.27,1.2573 -2.1082,1.2573 -0.7959,0 -1.4393,-0.2836 -1.9304,-0.8509 -0.6096,-0.7027 -0.9144,-1.778 -0.9144,-3.2258 0,-1.0075 0.182,-2.0511 0.5461,-3.1306 0.3641,-1.0795 0.7366,-1.6192 1.1176,-1.6192 0.3302,0 0.4953,0.2074 0.4953,0.6223 0,0.2286 -0.1778,0.8721 -0.5334,1.9304 -0.3556,1.0583 -0.5334,1.7992 -0.5334,2.2225 0,1.0668 0.1778,1.8288 0.5334,2.286 0.2879,0.3725 0.7027,0.5588 1.2446,0.5588 0.5673,0 1.0033,-0.3175 1.3081,-0.9525 0.2709,-0.5588 0.4064,-1.2785 0.4064,-2.159 0,-0.254 -0.0614,-0.8488 -0.1841,-1.7844 -0.1228,-0.9355 -0.1842,-1.488 -0.1842,-1.6573 0,-0.6519 0.182,-1.0033 0.5461,-1.0541 0.3048,-0.0339 0.5546,0.4572 0.7493,1.4732 0.1693,0.8975 0.254,1.9643 0.254,3.2004z"/>
  <path class="fil12 str12" d="M180.857 101.124c12.0503,0 21.8227,6.3272 21.8227,14.1292 0,7.8021 -9.7724,14.1293 -21.8227,14.1293 -5.935,0 -11.3167,-1.5354 -15.2508,-4.0254l-8.0449 4.01 4.0251 -7.4806c-1.628,-1.9781 -2.552,-4.2358 -2.552,-6.6333 0,-7.802 9.7724,-14.1292 21.8226,-14.1292z"/>
  <path class="fil17" d="M174.406 118.441c0,0.1778 -0.1185,0.3238 -0.3556,0.4381 -0.2371,0.1143 -0.5588,0.1715 -0.9652,0.1715 -1.0583,0 -1.9685,-0.3133 -2.7305,-0.9398 -0.8636,-0.7112 -1.2954,-1.6764 -1.2954,-2.8956 0,-1.0075 0.4572,-2.032 1.3716,-3.0734 0.8721,-0.9906 1.6679,-1.4859 2.3876,-1.4859 0.1778,0 0.309,0.0423 0.3937,0.127 0.0847,0.0847 0.127,0.1778 0.127,0.2794 -0.8213,0.6265 -1.5409,1.2785 -2.159,1.9558 -0.6773,0.7451 -1.016,1.5706 -1.016,2.4765 0,0.762 0.3641,1.3335 1.0922,1.7145 0.3387,0.1778 1.0202,0.3852 2.0447,0.6223 0.7366,0.1693 1.1049,0.3725 1.1049,0.6096zm4.6355 0.4318c0,0.3556 -0.0233,0.6371 -0.0698,0.8445 -0.0466,0.2075 -0.1249,0.3112 -0.235,0.3112 -0.3979,0 -0.6477,-0.326 -0.7493,-0.9779 -0.0593,-0.3725 -0.0889,-1.2446 -0.0889,-2.6162l-2.0701 0.381 0 1.7145c0,0.127 0,0.2201 0,0.2794 0,0.4657 -0.0296,0.7916 -0.0868,0.9779 -0.0995,0.3133 -0.2942,0.4699 -0.5842,0.4699 -0.1651,0 -0.2794,-0.1503 -0.3408,-0.4508 -0.0613,-0.3006 -0.0931,-0.7303 -0.0931,-1.2891l0 -4.2164c0,-0.9398 0.0339,-1.6468 0.0995,-2.1209 0.0677,-0.4741 0.2011,-0.7112 0.4022,-0.7112 0.2264,0 0.3831,0.2328 0.472,0.6985 0.0868,0.4657 0.1312,1.1705 0.1312,2.1188l0 1.3335 2.0701 -0.2519c0,-0.6689 -0.0021,-1.1832 -0.0063,-1.5431 -0.0043,-0.3598 -0.0149,-0.709 -0.0318,-1.0477 0,-0.8297 0.0381,-1.4584 0.1143,-1.886 0.0762,-0.4275 0.2286,-0.6413 0.4572,-0.6413 0.1947,0 0.3323,0.254 0.4128,0.762 0.0804,0.508 0.1206,1.215 0.1206,2.1209l0.0762 5.7404zm5.7912 -0.1778c0,0.3302 -0.0317,0.5842 -0.0952,0.762 -0.0635,0.1778 -0.18,0.2667 -0.3493,0.2667 -0.2371,0 -0.453,-0.3598 -0.6477,-1.0795 -0.1101,-0.4657 -0.2159,-0.9356 -0.3175,-1.4097l-2.159 0c-0.1185,0.4572 -0.2371,0.9144 -0.3556,1.3716 -0.1609,0.5503 -0.3937,0.8255 -0.6985,0.8255 -0.1778,0 -0.2836,-0.0254 -0.3175,-0.0762 -0.0677,-0.1016 -0.1016,-0.2752 -0.1016,-0.5207 0,-0.2032 0.0148,-0.4339 0.0445,-0.6922 0.0296,-0.2582 0.1037,-0.6117 0.2222,-1.0604 0.1185,-0.4487 0.2371,-0.8911 0.3556,-1.3272 0.1185,-0.436 0.3471,-1.2551 0.6858,-2.4574 0.254,-0.8975 0.4022,-1.3716 0.4445,-1.4224 0.2371,-0.8297 0.5884,-1.2446 1.0541,-1.2446 0.2286,0 0.4614,0.182 0.6985,0.5461 0.2371,0.3641 0.4064,0.8255 0.508,1.3843 0.0339,0.0593 0.1164,0.4381 0.2477,1.1366 0.1312,0.6985 0.2518,1.3526 0.3619,1.9622 0.0593,0.3471 0.1185,0.6858 0.1778,1.016 0.0593,0.3302 0.1143,0.7112 0.1651,1.143 0.0508,0.4318 0.0762,0.7239 0.0762,0.8763zm-1.5621 -2.5527l-0.6604 -4.1021 -1.1303 4.1021 1.7907 0zm7.9121 -0.8763c0,1.1176 -0.2709,2.0786 -0.8128,2.8829 -0.5673,0.8382 -1.27,1.2573 -2.1082,1.2573 -0.7959,0 -1.4393,-0.2836 -1.9304,-0.8509 -0.6096,-0.7027 -0.9144,-1.778 -0.9144,-3.2258 0,-1.0075 0.182,-2.0511 0.5461,-3.1306 0.3641,-1.0795 0.7366,-1.6192 1.1176,-1.6192 0.3302,0 0.4953,0.2074 0.4953,0.6223 0,0.2286 -0.1778,0.8721 -0.5334,1.9304 -0.3556,1.0583 -0.5334,1.7992 -0.5334,2.2225 0,1.0668 0.1778,1.8288 0.5334,2.286 0.2879,0.3725 0.7027,0.5588 1.2446,0.5588 0.5673,0 1.0033,-0.3175 1.3081,-0.9525 0.2709,-0.5588 0.4064,-1.2785 0.4064,-2.159 0,-0.254 -0.0614,-0.8488 -0.1841,-1.7844 -0.1228,-0.9355 -0.1842,-1.488 -0.1842,-1.6573 0,-0.6519 0.182,-1.0033 0.5461,-1.0541 0.3048,-0.0339 0.5546,0.4572 0.7493,1.4732 0.1693,0.8975 0.254,1.9643 0.254,3.2004z"/>
  <g id="_591166520">
   <g>
    <path id="_591163784" class="fil18" d="M272.106 115.29c-1.61,0.6556 -1.5438,4.0138 1.1649,3.5986 2.7086,-0.4153 1.4116,-4.6478 -1.1649,-3.5986z"/>
    <path id="_591163880" class="fil3" d="M272.256 116.184c-0.9353,0.2833 -0.7449,2.1079 0.8594,2.0042 0.3851,-0.0249 0.6217,-0.1796 0.7387,-0.3939 -0.0509,0.0092 -0.1048,0.0162 -0.1622,0.0199 -1.2757,0.0824 -1.6572,-1.0543 -1.2899,-1.6659 -0.0481,0.009 -0.0967,0.0207 -0.146,0.0357z"/>
    <path id="_591164072" class="fil9 str8" d="M221.264 128.686c0.7523,-0.4343 2.0669,0.4336 2.9356,1.9383 0.8687,1.5047 0.9631,3.0771 0.2108,3.5115 -0.7523,0.4343 -2.0669,-0.4336 -2.9356,-1.9383 -0.8688,-1.5047 -0.9631,-3.0771 -0.2108,-3.5115zm53.6856 0c-0.7523,-0.4343 -2.0669,0.4336 -2.9356,1.9383 -0.8687,1.5047 -0.9631,3.0771 -0.2108,3.5115 0.7524,0.4343 2.0669,-0.4336 2.9357,-1.9383 0.8687,-1.5047 0.9631,-3.0771 0.2107,-3.5115z"/>
    <path id="_591164552" class="fil9 str5" d="M248.107 100.347c26.922,0 24.7306,17.0723 24.7306,30.7282 0,13.656 -11.0747,18.7332 -24.7306,18.7332 -13.656,0 -24.7307,-5.0772 -24.7307,-18.7332 0,-13.6559 -2.1914,-30.7282 24.7307,-30.7282z"/>
    <path id="_591164288" class="fil13 str13" d="M246.28 113.355c-0.5978,-0.3337 -3.0619,2.5442 -5.3395,2.4208 -3.5165,-0.1904 0.594,-4.7758 -1.598,-4.5787 -13.0095,1.1695 -15.0375,14.6251 -15.2668,23.798 0,0 -1.4592,-4.6446 -3.0464,-9.0326 -1.5873,-4.388 -1.6807,-16.0893 8.2165,-22.0313 8.7349,-5.2444 17.0322,-5.2193 18.8605,-5.141 1.3712,-0.0587 6.3813,-0.0872 12.4856,2.1143 1.1444,0.4128 0.3439,-3.0636 1.5484,-2.4795 0.9369,0.4541 3.8715,4.9327 4.8265,5.5062 0.9277,0.5568 5.3034,-2.3707 6.0627,-1.7233 0.5159,0.44 -2.5406,4.4343 -2.0972,4.9077 5.8649,6.2613 5.5881,15.15 4.251,18.8469 -1.5871,4.3878 -3.0464,9.0326 -3.0464,9.0326 -0.0564,-8.0406 -1.2704,-19.2135 -10.3955,-22.3695 -2.9099,-1.0066 -2.5776,3.7752 -7.6827,3.8103 -0.9999,0.0068 1.756,-3.9445 0.7367,-3.8716 -4.2304,0.3027 -3.9314,5.0216 -8.0463,4.9023 -2.9861,-0.0866 1.3537,-3.094 -0.4691,-4.1116z"/>
    <path id="_591164384" class="fil16" d="M231.701 135.099c1.6471,0 2.9829,1.3357 2.9829,2.9829 0,1.6471 -1.3358,2.9828 -2.9829,2.9828 -1.6471,0 -2.9829,-1.3357 -2.9829,-2.9828 0,-1.6472 1.3358,-2.9829 2.9829,-2.9829zm32.812 0c1.647,0 2.9828,1.3359 2.9828,2.9829 0,1.6472 -1.3358,2.9829 -2.9828,2.9829 -1.6472,0 -2.983,-1.3357 -2.983,-2.9829 0,-1.647 1.3358,-2.9829 2.983,-2.9829z"/>
    <path id="_591164576" class="fil13" d="M266.78 124.361c0,0 -4.4428,-0.6873 -8.6754,0.3892 0,0 -0.6761,-1.7066 0.8925,-2.4354 0.9397,-0.4363 4.79,-0.5263 5.9579,-0.512 1.2019,0.0147 1.825,2.5582 1.825,2.5582z"/>
    <path id="_591162440" class="fil13" d="M229.566 124.361c0,0 4.4427,-0.6873 8.6753,0.3892 0,0 0.6762,-1.7066 -0.8924,-2.4354 -0.9397,-0.4363 -4.79,-0.5263 -5.958,-0.512 -1.2018,0.0147 -1.8249,2.5582 -1.8249,2.5582z"/>
    <path id="_591165944" class="fil15 str11" d="M252.889 140.631c0,2.6406 -2.1416,4.7822 -4.7822,4.7822 -2.6406,0 -4.7822,-2.1416 -4.7822,-4.7822l9.5644 0z"/>
    <path id="_591164936" class="fil12" d="M262.37 125.377c-1.7106,0 -3.0982,0.8671 -3.0982,1.9365 0,1.0693 1.3876,1.9364 3.0982,1.9364 1.7106,0 3.0983,-0.8671 3.0983,-1.9364 0,-1.0694 -1.3877,-1.9365 -3.0983,-1.9365z"/>
    <g style="clip-path:url(#id24)">
     <g>
      <circle id="_591607416" class="fil13" transform="matrix(-2.81926 -0.755418 -0.755418 2.81926 262.37 127.313)" r="0.682"/>
     </g>
    </g>
    <path class="fil4 str10" d="M262.37 125.377c-1.7106,0 -3.0982,0.8671 -3.0982,1.9365 0,1.0693 1.3876,1.9364 3.0982,1.9364 1.7106,0 3.0983,-0.8671 3.0983,-1.9364 0,-1.0694 -1.3877,-1.9365 -3.0983,-1.9365z"/>
    <path id="_591165032" class="fil12" d="M233.976 125.377c1.7106,0 3.0982,0.8671 3.0982,1.9365 0,1.0693 -1.3876,1.9364 -3.0982,1.9364 -1.7106,0 -3.0983,-0.8671 -3.0983,-1.9364 0,-1.0694 1.3877,-1.9365 3.0983,-1.9365z"/>
    <g style="clip-path:url(#id25)">
     <g>
      <circle id="_591618528" class="fil13" transform="matrix(2.81926 -0.755418 0.755418 2.81926 233.976 127.313)" r="0.682"/>
     </g>
    </g>
    <path class="fil4 str10" d="M233.976 125.377c1.7106,0 3.0982,0.8671 3.0982,1.9365 0,1.0693 -1.3876,1.9364 -3.0982,1.9364 -1.7106,0 -3.0983,-0.8671 -3.0983,-1.9364 0,-1.0694 1.3877,-1.9365 3.0983,-1.9365z"/>
    <path id="_591165224" class="fil14" d="M230.058 107.942c0,0 -4.0228,3.1794 -3.999,7.2473 0,0 1.7372,-3.6451 3.999,-7.2473z"/>
    <path id="_591165752" class="fil14" d="M246.378 106.05c0,0 -4.0228,3.1794 -3.999,7.2473 0,0 1.7372,-3.6451 3.999,-7.2473z"/>
    <path id="_591165488" class="fil14" d="M253.808 104.911c0,0 -4.0228,3.1794 -3.999,7.2473 0,0 1.7372,-3.6451 3.999,-7.2473z"/>
    <path id="_591165584" class="fil14" d="M260.467 105.829c0,0 -4.0228,3.1794 -3.999,7.2473 0,0 1.7372,-3.6451 3.999,-7.2473z"/>
   </g>
   <path id="_591165392" class="fil4 str5" d="M246.077 134.576c0,0 1.9981,1.1768 4.0599,0"/>
  </g>
 </g>
</svg>
