<?xml version="1.0" encoding="UTF-8"?>
<!DOCTYPE svg PUBLIC "-//W3C//DTD SVG 1.1//EN" "http://www.w3.org/Graphics/SVG/1.1/DTD/svg11.dtd">
<!-- Creator: CorelDRAW -->
<svg xmlns="http://www.w3.org/2000/svg" xml:space="preserve" width="420mm" height="297mm" style="shape-rendering:geometricPrecision; text-rendering:geometricPrecision; image-rendering:optimizeQuality; fill-rule:evenodd; clip-rule:evenodd"
viewBox="0 0 420 297"
 xmlns:xlink="http://www.w3.org/1999/xlink">
 <defs>
  <style type="text/css">
   <![CDATA[
    .str8 {stroke:#8F5444;stroke-width:0.5;stroke-linecap:round;stroke-linejoin:round}
    .str4 {stroke:#1F1A17;stroke-width:0.75;stroke-linecap:round;stroke-linejoin:round}
    .str2 {stroke:#383431;stroke-width:0.75;stroke-linecap:round;stroke-linejoin:round}
    .str3 {stroke:#4C4840;stroke-width:0.75;stroke-linecap:round;stroke-linejoin:round}
    .str0 {stroke:#8F5444;stroke-width:0.75;stroke-linecap:round;stroke-linejoin:round}
    .str10 {stroke:#969594;stroke-width:0.75;stroke-linecap:round;stroke-linejoin:round}
    .str16 {stroke:#432B13;stroke-width:0.75;stroke-linecap:round;stroke-linejoin:round}
    .str13 {stroke:#213229;stroke-width:0.75;stroke-linecap:round;stroke-linejoin:round}
    .str9 {stroke:#333C4B;stroke-width:0.75;stroke-linecap:round;stroke-linejoin:round}
    .str7 {stroke:#3D2A2A;stroke-width:0.75;stroke-linecap:round;stroke-linejoin:round}
    .str1 {stroke:#453C35;stroke-width:0.75;stroke-linecap:round;stroke-linejoin:round}
    .str6 {stroke:#542829;stroke-width:0.75;stroke-linecap:round;stroke-linejoin:round}
    .str5 {stroke:#546B4B;stroke-width:0.75;stroke-linecap:round;stroke-linejoin:round}
    .str14 {stroke:#8A2C2F;stroke-width:0.75;stroke-linecap:round;stroke-linejoin:round}
    .str12 {stroke:#8F5444;stroke-linecap:round;stroke-linejoin:round}
    .str11 {stroke:#3D2A2A;stroke-linecap:round;stroke-linejoin:round}
    .str15 {stroke:#1F1A17;stroke-width:1.5;stroke-linecap:round;stroke-linejoin:round}
    .fil3 {fill:none}
    .fil10 {fill:#1F1A17}
    .fil5 {fill:#383431}
    .fil12 {fill:#4D4948}
    .fil7 {fill:#605D5C}
    .fil6 {fill:#716F61}
    .fil2 {fill:#957F66}
    .fil8 {fill:#969594}
    .fil14 {fill:#97AFA0}
    .fil27 {fill:#B76767}
    .fil1 {fill:#C0A062}
    .fil28 {fill:#C2C1C1}
    .fil26 {fill:#DB214C}
    .fil17 {fill:#E7785F}
    .fil21 {fill:white}
    .fil29 {fill:#432B13}
    .fil32 {fill:#5E412F}
    .fil31 {fill:#876553}
    .fil0 {fill:#C3957D}
    .fil24 {fill:#213229}
    .fil20 {fill:#333C4B}
    .fil4 {fill:#453C35}
    .fil23 {fill:#474832}
    .fil19 {fill:#494F53}
    .fil18 {fill:#542829}
    .fil15 {fill:#546B4B}
    .fil9 {fill:#615649}
    .fil13 {fill:#879E69}
    .fil30 {fill:#98562C}
    .fil16 {fill:#A5292E}
    .fil11 {fill:#C58C2D}
    .fil25 {fill:#C6907B}
    .fil22 {fill:#1F1A17;fill-rule:nonzero}
   ]]>
  </style>
      <clipPath id="id0">
       <path d="M200.589 152.575c2.165,-1.2499 7.042,1.9943 10.3446,12.5257 1.5586,4.9702 1.0823,12.1984 -3.5607,13.3557 -6.6188,1.6498 -15.3106,-3.979 -15.3106,-3.979l3.9956 -7.2157c5.5792,3.3133 7.4065,2.0341 6.0107,-1.1399 -1.5926,-3.6223 -3.6446,-12.297 -1.4796,-13.5468z"/>
      </clipPath>
      <clipPath id="id1">
       <path d="M175.199 152.575c-2.165,-1.2499 -7.042,1.9943 -10.3446,12.5257 -1.5586,4.9702 -1.0823,12.1983 3.5607,13.3557 6.6188,1.6498 15.3106,-3.9791 15.3106,-3.9791l-3.9956 -7.2156c-5.5792,3.3133 -7.4065,2.0341 -6.0107,-1.14 1.5926,-3.6222 3.6446,-12.2969 1.4796,-13.5467z"/>
      </clipPath>
      <clipPath id="id2">
       <path d="M184.957 212.986c0.2657,-3.4711 -2.3037,-5.0804 -5.6044,-5.3331 -3.3006,-0.2527 -6.0849,0.9468 -6.3506,4.418 -0.1139,1.4873 0.0848,3.8188 6.1394,3.9695 6.0545,0.1506 5.7021,-1.5722 5.8156,-3.0544z"/>
      </clipPath>
      <clipPath id="id3">
       <path d="M190.83 212.986c-0.2657,-3.4711 2.3037,-5.0804 5.6044,-5.3331 3.3006,-0.2527 6.0849,0.9468 6.3506,4.418 0.1139,1.4873 -0.0848,3.8188 -6.1394,3.9695 -6.0545,0.1506 -5.7021,-1.5722 -5.8156,-3.0544z"/>
      </clipPath>
     <clipPath id="id4">
      <path d="M187.889 187.844c-0.0596,1.2457 -3.7696,18.4368 -3.7696,18.4368 0,0 -2.4096,1.8423 -11.4121,-0.57 -3.1711,-9.5366 -0.9073,-32.747 -0.7276,-33.3156l15.1762 -0.0347 0.6977 -0.0016 0.6977 -0.0016 15.1762 -0.0347c0.1823,0.5677 2.5523,23.7675 -0.5751,33.3185 -8.9914,2.4535 -11.4093,0.6223 -11.4093,0.6223 0,0 -3.7887,-17.174 -3.8541,-18.4194z"/>
     </clipPath>
     <clipPath id="id5">
      <path d="M328.891 152.029c-2.8558,1.1735 -3.1265,6.6173 2.6383,16.0296 5.7648,9.4122 15.4997,12.1554 15.4997,12.1554l3.6245 -7.3981c0,0 -7.9438,-4.0807 -10.6936,-8.2371 -2.7499,-4.1563 -8.2131,-13.7232 -11.0689,-12.5498z"/>
     </clipPath>
     <clipPath id="id6">
      <path d="M297.86 152.029c2.8558,1.1735 3.1265,6.6173 -2.6383,16.0296 -5.7648,9.4122 -15.4997,12.1554 -15.4997,12.1554l-3.6245 -7.3981c0,0 7.9438,-4.0807 10.6936,-8.2371 2.7499,-4.1563 8.2131,-13.7232 11.0689,-12.5498z"/>
     </clipPath>
    <clipPath id="id7">
     <path d="M47.4806 152.227c-2.1649,-1.2499 -7.042,1.9943 -10.3446,12.5257 -1.5586,4.9702 -1.0823,12.1984 3.5607,13.3557 6.6189,1.6498 15.3107,-3.979 15.3107,-3.979l-3.9957 -7.2157c-5.5791,3.3133 -7.4065,2.0341 -6.0107,-1.1399 1.5926,-3.6223 3.6446,-12.297 1.4796,-13.5468z"/>
    </clipPath>
    <clipPath id="id8">
     <path d="M75.5721 152.073c-2.8558,1.1735 -3.1265,6.6173 2.6383,16.0296 5.7648,9.4122 15.4997,12.1554 15.4997,12.1554l3.6245 -7.3981c0,0 -7.9438,-4.0807 -10.6936,-8.2371 -2.7499,-4.1563 -8.2131,-13.7232 -11.0689,-12.5498z"/>
    </clipPath>
    <clipPath id="id9">
     <path d="M298.613 180.983c0,0 -1.3885,11.1414 -1.5391,15.1086 -0.1507,3.9673 1.9465,10.5551 1.766,12.9132 -0.1805,2.3582 -1.022,5.3544 1.6288,5.7103 2.6507,0.356 5.9803,0.8404 7.7823,0.2897 1.802,-0.5507 2.1056,-2.5168 1.081,-4.1256 -1.0246,-1.6087 -0.7892,-13.6801 -0.3921,-15.8686 0.3971,-2.1885 2.2187,-12.9907 2.2187,-12.9907l-12.5456 -1.0369z"/>
    </clipPath>
    <clipPath id="id10">
     <path d="M328.067 180.915c0,0 1.4395,11.1349 1.6083,15.1014 0.1688,3.9666 -1.8982,10.5639 -1.7069,12.9212 0.1913,2.3573 1.0465,5.3496 -1.6026,5.7177 -2.6491,0.368 -5.9765,0.8677 -7.781,0.3253 -1.8045,-0.5425 -2.117,-2.5072 -1.0998,-4.1206 1.0172,-1.6134 0.7265,-13.6836 0.3194,-15.8703 -0.4071,-2.1867 -2.2781,-12.9804 -2.2781,-12.9804l12.5407 -1.0943z"/>
    </clipPath>
    <clipPath id="id11">
     <path d="M45.7522 180.983c0,0 -1.3885,11.1414 -1.5391,15.1086 -0.1507,3.9673 1.9465,10.5551 1.766,12.9132 -0.1805,2.3582 -1.022,5.3544 1.6288,5.7103 2.6507,0.356 5.9803,0.8404 7.7823,0.2897 1.802,-0.5507 2.1056,-2.5168 1.081,-4.1256 -1.0246,-1.6087 -0.7892,-13.6801 -0.3921,-15.8686 0.3971,-2.1885 2.2187,-12.9907 2.2187,-12.9907l-12.5456 -1.0369z"/>
    </clipPath>
    <clipPath id="id12">
     <path d="M75.2054 180.915c0,0 1.4395,11.1349 1.6083,15.1014 0.1688,3.9666 -1.8982,10.5639 -1.7069,12.9212 0.1913,2.3573 1.0465,5.3496 -1.6026,5.7177 -2.6491,0.368 -5.9765,0.8677 -7.781,0.3253 -1.8045,-0.5425 -2.117,-2.5072 -1.0998,-4.1206 1.0172,-1.6134 0.7265,-13.6836 0.3194,-15.8703 -0.4071,-2.1867 -2.2781,-12.9804 -2.2781,-12.9804l12.5407 -1.0943z"/>
    </clipPath>
    <clipPath id="id13">
     <path d="M46.5422 122.377c1.6523,0.4427 2.7683,1.6395 2.4915,2.6723 -0.2767,1.0329 -1.8416,1.5113 -3.4939,1.0686 -1.6523,-0.4427 -2.7683,-1.6395 -2.4915,-2.6723 0.2768,-1.0329 1.8416,-1.5113 3.4939,-1.0686z"/>
    </clipPath>
    <clipPath id="id14">
     <path d="M74.6016 122.377c-1.6523,0.4427 -2.7682,1.6395 -2.4915,2.6723 0.2768,1.0329 1.8416,1.5113 3.4939,1.0686 1.6523,-0.4427 2.7683,-1.6395 2.4915,-2.6723 -0.2767,-1.0329 -1.8415,-1.5113 -3.4939,-1.0686z"/>
    </clipPath>
    <clipPath id="id15">
     <path d="M300.257 121.997c1.6386,0.5694 2.6792,1.8618 2.3233,2.8861 -0.3559,1.0243 -1.9737,1.393 -3.6123,0.8237 -1.6385,-0.5694 -2.6792,-1.8618 -2.3233,-2.8861 0.3559,-1.0243 1.9738,-1.393 3.6123,-0.8237z"/>
    </clipPath>
    <clipPath id="id16">
     <path d="M326.494 121.997c-1.6386,0.5694 -2.6792,1.8618 -2.3233,2.8861 0.3559,1.0243 1.9737,1.393 3.6123,0.8237 1.6386,-0.5694 2.6792,-1.8618 2.3233,-2.8861 -0.3559,-1.0243 -1.9738,-1.393 -3.6123,-0.8237z"/>
    </clipPath>
    <clipPath id="id17">
     <path d="M187.894 88.5834c15.4848,5.2255 28.2975,17.0369 28.2975,31.1578 0,6.0001 -1.2273,10.8266 -3.3881,14.63 0.1433,-9.9497 0.4694,-21.3081 -24.9094,-21.3081 -25.3787,0 -25.0527,11.3584 -24.9093,21.3081 -2.1608,-3.8034 -3.3882,-8.6299 -3.3882,-14.63 0,-14.1209 12.8128,-25.9323 28.2975,-31.1578z"/>
    </clipPath>
    <clipPath id="id18">
     <path d="M185.679 88.2856c1.2538,1.1302 3.6347,0.7957 3.7189,-2.1654 0.0842,-2.961 2.8198,-3.4997 2.03,-4.3548 -0.7897,-0.8551 -2.2604,-0.9887 -3.2343,0.253 -0.6329,0.8069 -0.88,-0.7482 -0.531,-1.9992 0.1279,-0.4592 -2.2388,0.5423 -3.1356,2.9402 -0.7362,1.9686 -0.1019,4.1961 1.152,5.3262z"/>
    </clipPath>
    <clipPath id="id19">
     <path d="M202.157 125.562c-1.7106,0 -3.0982,0.8671 -3.0982,1.9365 0,1.0693 1.3876,1.9364 3.0982,1.9364 1.7106,0 3.0983,-0.8671 3.0983,-1.9364 0,-1.0694 -1.3877,-1.9365 -3.0983,-1.9365z"/>
    </clipPath>
    <clipPath id="id20">
     <path d="M173.763 125.562c1.7106,0 3.0982,0.8671 3.0982,1.9365 0,1.0693 -1.3876,1.9364 -3.0982,1.9364 -1.7106,0 -3.0983,-0.8671 -3.0983,-1.9364 0,-1.0694 1.3877,-1.9365 3.0983,-1.9365z"/>
    </clipPath>
 </defs>
 <g id="Capa_x0020_1">
  <metadata id="CorelCorpID_0Corel-Layer"/>
  <g id="_636147952">
   <g>
    <path id="_636149200" class="fil0 str0" d="M196.058 167.262c-1.5776,-1.2167 -2.8463,-4.1478 -3.413,-4.1445 -0.5666,0.0032 -0.835,0.2485 -0.8304,2.7527 -1.8963,0.1434 -3.502,-3.4538 -4.7154,-2.4042 -0.7833,0.6777 1.1802,2.7466 1.8189,3.3433 -1.448,0.9514 -3.3322,-2.5438 -4.2951,-1.1153 -0.5973,0.8872 2.1948,2.6127 3.0371,3.0038 -0.687,1.4753 -2.8548,-1.2922 -3.4706,0.1215 -0.41,0.9418 2.308,1.9902 3.1078,2.2722 0.1395,1.1619 -1.9344,-0.176 -2.1276,0.7451 -0.1578,0.7519 0.3888,1.0365 2.5287,1.3808 1.1908,0.1914 2.7458,0.9233 4.364,1.2603l-0.1235 -0.0811 4.1191 -7.1346z"/>
    <g>
     <path id="_636149128" class="fil1" d="M200.589 152.575c2.165,-1.2499 7.042,1.9943 10.3446,12.5257 1.5586,4.9702 1.0823,12.1984 -3.5607,13.3557 -6.6188,1.6498 -15.3106,-3.979 -15.3106,-3.979l3.9956 -7.2157c5.5792,3.3133 7.4065,2.0341 6.0107,-1.1399 -1.5926,-3.6223 -3.6446,-12.297 -1.4796,-13.5468z"/>
     <g style="clip-path:url(#id0)">
      <g>
       <rect id="_590433152" class="fil2" transform="matrix(0.51321 -0.888905 0.888905 0.51321 191.157 175.897)" width="11.3104" height="3.158"/>
      </g>
     </g>
     <path class="fil3 str1" d="M200.589 152.575c2.165,-1.2499 7.042,1.9943 10.3446,12.5257 1.5586,4.9702 1.0823,12.1984 -3.5607,13.3557 -6.6188,1.6498 -15.3106,-3.979 -15.3106,-3.979l3.9956 -7.2157c5.5792,3.3133 7.4065,2.0341 6.0107,-1.1399 -1.5926,-3.6223 -3.6446,-12.297 -1.4796,-13.5468z"/>
     <g>
      <path id="_636149056" class="fil4" d="M203.633 155.977c0,0 -0.4921,0.7887 -0.0951,2.1417 0.3969,1.3531 0.8948,3.4411 0.8948,3.4411 0,0 -2.9853,-3.766 -0.7997,-5.5828z"/>
      <path id="_636148984" class="fil4" d="M205.056 162.699c0,0 0.4921,-0.7887 0.0951,-2.1418 -0.3969,-1.353 -0.8948,-3.441 -0.8948,-3.441 0,0 2.9853,3.766 0.7997,5.5828z"/>
      <path id="_636148912" class="fil4" d="M204.715 164.446c0,0 -0.4921,0.7887 -0.0952,2.1418 0.397,1.3531 0.8948,3.4411 0.8948,3.4411 0,0 -2.9853,-3.7661 -0.7996,-5.5829zm1.4225 6.7219c0,0 0.4921,-0.7886 0.0952,-2.1417 -0.397,-1.3531 -0.8948,-3.4411 -0.8948,-3.4411 0,0 2.9853,3.7661 0.7996,5.5828z"/>
      <path id="_636148840" class="fil4" d="M209.656 169.88c0,0 0.4921,-0.7887 0.0952,-2.1417 -0.397,-1.3531 -0.8949,-3.4411 -0.8949,-3.4411 0,0 2.9854,3.766 0.7997,5.5828zm-1.4225 -6.7219c0,0 -0.4921,0.7887 -0.0952,2.1417 0.3969,1.3531 0.8948,3.4411 0.8948,3.4411 0,0 -2.9853,-3.766 -0.7996,-5.5828z"/>
      <path id="_636148768" class="fil4" d="M208.901 175.642c0,0 -0.2097,-0.9057 -1.4471,-1.5818 -1.2375,-0.6761 -3.066,-1.8004 -3.066,-1.8004 0,0 4.7739,0.552 4.5131,3.3822zm-5.759 -3.7473c0,0 0.2097,0.9057 1.4472,1.5818 1.2375,0.6761 3.0659,1.8005 3.0659,1.8005 0,0 -4.7739,-0.5521 -4.5131,-3.3823z"/>
      <path id="_636148696" class="fil4" d="M197.64 173.363c0,0 0.2097,0.9056 1.4472,1.5817 1.2374,0.6761 3.0659,1.8005 3.0659,1.8005 0,0 -4.7739,-0.5521 -4.5131,-3.3822zm5.759 3.7472c0,0 -0.2097,-0.9056 -1.4471,-1.5817 -1.2375,-0.6762 -3.066,-1.8005 -3.066,-1.8005 0,0 4.774,0.5521 4.5131,3.3822z"/>
     </g>
    </g>
   </g>
   <g>
    <path id="_636148552" class="fil0 str0" d="M179.73 167.262c1.5776,-1.2168 2.8463,-4.1478 3.413,-4.1446 0.5666,0.0033 0.835,0.2486 0.8304,2.7528 1.8963,0.1434 3.502,-3.4539 4.7154,-2.4042 0.7833,0.6777 -1.1802,2.7466 -1.8189,3.3432 1.448,0.9515 3.3322,-2.5438 4.2951,-1.1152 0.5973,0.8871 -2.1948,2.6126 -3.0371,3.0037 0.687,1.4754 2.8548,-1.2921 3.4706,0.1216 0.41,0.9417 -2.308,1.9901 -3.1078,2.2722 -0.1395,1.1619 1.9344,-0.1761 2.1276,0.7451 0.1578,0.7519 -0.3888,1.0365 -2.5287,1.3808 -1.1908,0.1913 -2.7458,0.9232 -4.364,1.2603l0.1235 -0.0811 -4.1191 -7.1346z"/>
    <g>
     <path id="_636148480" class="fil1" d="M175.199 152.575c-2.165,-1.2499 -7.042,1.9943 -10.3446,12.5257 -1.5586,4.9702 -1.0823,12.1983 3.5607,13.3557 6.6188,1.6498 15.3106,-3.9791 15.3106,-3.9791l-3.9956 -7.2156c-5.5792,3.3133 -7.4065,2.0341 -6.0107,-1.14 1.5926,-3.6222 3.6446,-12.2969 1.4796,-13.5467z"/>
     <g style="clip-path:url(#id1)">
      <g>
       <rect id="_590422184" class="fil2" transform="matrix(-0.51321 -0.888905 -0.888905 0.51321 184.63 175.897)" width="11.3104" height="3.158"/>
      </g>
     </g>
     <path class="fil3 str1" d="M175.199 152.575c-2.165,-1.2499 -7.042,1.9943 -10.3446,12.5257 -1.5586,4.9702 -1.0823,12.1983 3.5607,13.3557 6.6188,1.6498 15.3106,-3.9791 15.3106,-3.9791l-3.9956 -7.2156c-5.5792,3.3133 -7.4065,2.0341 -6.0107,-1.14 1.5926,-3.6222 3.6446,-12.2969 1.4796,-13.5467z"/>
     <g>
      <path id="_636148408" class="fil4" d="M172.154 155.977c0,0 0.4921,0.7888 0.0951,2.1418 -0.3969,1.3531 -0.8948,3.4411 -0.8948,3.4411 0,0 2.9853,-3.766 0.7997,-5.5829z"/>
      <path id="_636148336" class="fil4" d="M170.731 162.7c0,0 -0.4921,-0.7887 -0.0951,-2.1418 0.3969,-1.3531 0.8948,-3.4411 0.8948,-3.4411 0,0 -2.9853,3.7661 -0.7997,5.5829z"/>
      <path id="_636148264" class="fil4" d="M171.072 164.447c0,0 0.4921,0.7887 0.0952,2.1418 -0.397,1.3531 -0.8948,3.441 -0.8948,3.441 0,0 2.9853,-3.766 0.7996,-5.5828zm-1.4225 6.7219c0,0 -0.4921,-0.7887 -0.0952,-2.1417 0.397,-1.3531 0.8948,-3.4411 0.8948,-3.4411 0,0 -2.9853,3.766 -0.7996,5.5828z"/>
      <path id="_636148192" class="fil4" d="M166.132 169.88c0,0 -0.4921,-0.7887 -0.0952,-2.1418 0.397,-1.3531 0.8949,-3.4411 0.8949,-3.4411 0,0 -2.9854,3.7661 -0.7997,5.5829zm1.4225 -6.722c0,0 0.4921,0.7887 0.0951,2.1418 -0.3968,1.3531 -0.8947,3.4411 -0.8947,3.4411 0,0 2.9853,-3.766 0.7996,-5.5829z"/>
      <path id="_636148120" class="fil4" d="M166.886 175.642c0,0 0.2097,-0.9057 1.4471,-1.5818 1.2375,-0.6761 3.066,-1.8005 3.066,-1.8005 0,0 -4.7739,0.5521 -4.5131,3.3823zm5.759 -3.7473c0,0 -0.2097,0.9057 -1.4472,1.5818 -1.2375,0.6761 -3.0659,1.8004 -3.0659,1.8004 0,0 4.7739,-0.552 4.5131,-3.3822z"/>
      <path id="_636148048" class="fil4" d="M178.148 173.363c0,0 -0.2097,0.9057 -1.4472,1.5818 -1.2374,0.6761 -3.0659,1.8005 -3.0659,1.8005 0,0 4.7739,-0.5521 4.5131,-3.3823zm-5.759 3.7473c0,0 0.2097,-0.9057 1.4471,-1.5818 1.2375,-0.6761 3.066,-1.8005 3.066,-1.8005 0,0 -4.774,0.5521 -4.5131,3.3823z"/>
     </g>
    </g>
   </g>
  </g>
  <g id="_636147256">
   <g>
    <g>
     <path id="_636147880" class="fil5 str2" d="M179.408 206.821c3.4273,0.2623 5.9439,3.9121 5.7278,6.7356 -0.2162,2.8235 -3.0833,3.7531 -6.5106,3.4907 -3.4274,-0.2624 -6.1195,-1.6175 -5.9033,-4.441 0.2161,-2.8235 3.2587,-6.0477 6.6861,-5.7853z"/>
     <path id="_636147808" class="fil6 str3" d="M173.652 182.327c0,0 -1.3368,10.7265 -1.4818,14.546 -0.1451,3.8195 1.874,10.162 1.7002,12.4323 -0.1738,2.2704 -0.9839,5.155 1.5681,5.4977 2.5521,0.3427 5.7577,0.8091 7.4926,0.2789 1.7349,-0.5302 2.0271,-2.4231 1.0407,-3.972 -0.9864,-1.5488 -0.7597,-13.1706 -0.3775,-15.2777 0.3823,-2.107 2.1361,-12.5069 2.1361,-12.5069l-12.0784 -0.9983z"/>
     <path id="_636147736" class="fil7" d="M184.957 212.986c0.2657,-3.4711 -2.3037,-5.0804 -5.6044,-5.3331 -3.3006,-0.2527 -6.0849,0.9468 -6.3506,4.418 -0.1139,1.4873 0.0848,3.8188 6.1394,3.9695 6.0545,0.1506 5.7021,-1.5722 5.8156,-3.0544z"/>
     <g style="clip-path:url(#id2)">
      <g>
       <path id="_5905106641" class="fil8" d="M179.176 209.583c-6.1019,-0.5771 -8.2716,8.8901 -0.1863,9.1387 7.9174,0.2435 5.5501,-8.6315 0.1863,-9.1387z"/>
       <path id="_590510592" class="fil8" d="M178.994 208.323c-1.9024,-0.0398 -2.5788,0.6132 -0.058,0.6303 2.4684,0.0168 1.7303,-0.5953 0.058,-0.6303z"/>
      </g>
     </g>
     <path class="fil3 str2" d="M184.957 212.986c0.2657,-3.4711 -2.3037,-5.0804 -5.6044,-5.3331 -3.3006,-0.2527 -6.0849,0.9468 -6.3506,4.418 -0.1139,1.4873 0.0848,3.8188 6.1394,3.9695 6.0545,0.1506 5.7021,-1.5722 5.8156,-3.0544z"/>
    </g>
    <g>
     <path id="_636147640" class="fil5 str2" d="M196.38 206.821c-3.4273,0.2623 -5.9439,3.9121 -5.7278,6.7356 0.2162,2.8235 3.0833,3.7531 6.5106,3.4907 3.4274,-0.2624 6.1195,-1.6175 5.9033,-4.441 -0.2161,-2.8235 -3.2587,-6.0477 -6.6861,-5.7853z"/>
     <path id="_636147568" class="fil6 str3" d="M202.136 182.327c0,0 1.3368,10.7265 1.4818,14.546 0.1451,3.8195 -1.874,10.162 -1.7002,12.4323 0.1738,2.2704 0.9839,5.155 -1.5681,5.4977 -2.5521,0.3427 -5.7577,0.8091 -7.4926,0.2789 -1.7349,-0.5302 -2.0271,-2.4231 -1.0407,-3.972 0.9864,-1.5488 0.7597,-13.1706 0.3775,-15.2777 -0.3823,-2.107 -2.1361,-12.5069 -2.1361,-12.5069l12.0784 -0.9983z"/>
     <path id="_636147496" class="fil7" d="M190.83 212.986c-0.2657,-3.4711 2.3037,-5.0804 5.6044,-5.3331 3.3006,-0.2527 6.0849,0.9468 6.3506,4.418 0.1139,1.4873 -0.0848,3.8188 -6.1394,3.9695 -6.0545,0.1506 -5.7021,-1.5722 -5.8156,-3.0544z"/>
     <g style="clip-path:url(#id3)">
      <g>
       <path id="_5905132561" class="fil8" d="M196.611 209.583c6.1019,-0.5771 8.2716,8.8901 0.1863,9.1387 -7.9174,0.2435 -5.5501,-8.6315 -0.1863,-9.1387z"/>
       <path id="_590513184" class="fil8" d="M196.793 208.323c1.9024,-0.0398 2.5788,0.6132 0.058,0.6303 -2.4684,0.0168 -1.7303,-0.5953 -0.058,-0.6303z"/>
      </g>
     </g>
     <path class="fil3 str2" d="M190.83 212.986c-0.2657,-3.4711 2.3037,-5.0804 5.6044,-5.3331 3.3006,-0.2527 6.0849,0.9468 6.3506,4.418 0.1139,1.4873 -0.0848,3.8188 -6.1394,3.9695 -6.0545,0.1506 -5.7021,-1.5722 -5.8156,-3.0544z"/>
    </g>
   </g>
   <g>
    <path id="_636147376" class="fil9" d="M187.889 187.844c-0.0596,1.2457 -3.7696,18.4368 -3.7696,18.4368 0,0 -2.4096,1.8423 -11.4121,-0.57 -3.1711,-9.5366 -0.9073,-32.747 -0.7276,-33.3156l15.1762 -0.0347 0.6977 -0.0016 0.6977 -0.0016 15.1762 -0.0347c0.1823,0.5677 2.5523,23.7675 -0.5751,33.3185 -8.9914,2.4535 -11.4093,0.6223 -11.4093,0.6223 0,0 -3.7887,-17.174 -3.8541,-18.4194z"/>
    <g style="clip-path:url(#id4)">
     <g>
      <path id="_5914706561" class="fil4" d="M184.21 176.175c0,0 -0.6112,4.4901 0.3632,7.8025 0.9743,3.3125 3.3203,5.6709 3.3203,5.6709l-0.024 -13.6889 -3.6595 0.2155z"/>
     </g>
    </g>
    <path class="fil3 str1" d="M187.889 187.844c-0.0596,1.2457 -3.7696,18.4368 -3.7696,18.4368 0,0 -2.4096,1.8423 -11.4121,-0.57 -3.1711,-9.5366 -0.9073,-32.747 -0.7276,-33.3156l15.1762 -0.0347 0.6977 -0.0016 0.6977 -0.0016 15.1762 -0.0347c0.1823,0.5677 2.5523,23.7675 -0.5751,33.3185 -8.9914,2.4535 -11.4093,0.6223 -11.4093,0.6223 0,0 -3.7887,-17.174 -3.8541,-18.4194z"/>
    <path id="_636147304" class="fil4" d="M178.327 178.031c0,0 -1.634,13.1741 -1.529,17.5006 0.105,4.3265 0.2578,8.748 0.2578,8.748 0,0 1.3413,-16.4067 1.2712,-26.2486zm19.0799 -0.0437c0,0 1.6942,13.1665 1.609,17.4935 -0.0851,4.3269 -0.2177,8.749 -0.2177,8.749 0,0 -1.4163,-16.4003 -1.3913,-26.2425z"/>
   </g>
  </g>
  <g id="_636146608">
   <g>
    <path id="_636147184" class="fil10 str4" d="M329.323 137.839c0,0 5.8384,5.5844 4.925,9.7829 -0.8921,4.1002 -2.9118,13.1505 2.7685,15.4644 1.7264,0.703 -5.3784,0.8793 -7.001,-2.5637 -2.473,-5.2465 -0.3742,-7.8459 -6.0296,-10.9251 -5.6553,-3.0793 -6.037,-4.5798 -6.037,-4.5798l11.3741 -7.1787z"/>
    <path id="_636147112" class="fil11 str4" d="M333.298 153.027c-0.1169,1.1073 -0.1727,2.247 -0.1153,3.3503 -1.1781,-0.3785 -2.7669,-0.6205 -4.5378,-0.1659 -0.3012,-1.4396 -0.514,-2.6522 -1.2695,-3.7968 1.4265,-0.6189 3.4094,-0.657 5.9226,0.6124z"/>
    <path id="_636147040" class="fil12" d="M328.585 141.708c0,0 3.3059,4.4385 2.1446,8.673 0,0 -0.7928,-4.2856 -2.1446,-8.673z"/>
    <path id="_636146968" class="fil12" d="M324.884 139.531c0,0 3.3059,4.4385 2.1446,8.673 0,0 -0.7928,-4.2856 -2.1446,-8.673z"/>
   </g>
   <g>
    <path id="_636146872" class="fil10 str4" d="M297.428 137.839c0,0 -5.8384,5.5844 -4.925,9.7829 0.8921,4.1002 2.9118,13.1505 -2.7685,15.4644 -1.7264,0.703 5.3784,0.8793 7.001,-2.5637 2.473,-5.2465 0.3742,-7.8459 6.0296,-10.9251 5.6553,-3.0793 6.037,-4.5798 6.037,-4.5798l-11.3741 -7.1787z"/>
    <path id="_636146800" class="fil11 str4" d="M293.453 153.027c0.1169,1.1073 0.1727,2.247 0.1153,3.3503 1.1781,-0.3785 2.7669,-0.6205 4.5378,-0.1659 0.3012,-1.4396 0.514,-2.6522 1.2695,-3.7968 -1.4265,-0.6189 -3.4094,-0.657 -5.9226,0.6124z"/>
    <path id="_636146728" class="fil12" d="M298.166 141.708c0,0 -3.3059,4.4385 -2.1446,8.673 0,0 0.7928,-4.2856 2.1446,-8.673z"/>
    <path id="_636146656" class="fil12" d="M301.867 139.531c0,0 -3.3059,4.4385 -2.1446,8.673 0,0 0.7928,-4.2856 2.1446,-8.673z"/>
   </g>
  </g>
  <g id="_636144712">
   <g>
    <path id="_636146536" class="fil0 str0" d="M350.653 172.816c1.8898,0.6309 5.0303,0.0492 5.3436,0.5214 0.3133,0.4722 0.2594,0.8317 -1.8217,2.2246 0.9386,1.6539 4.8199,0.9804 4.6255,2.573 -0.1256,1.0281 -2.938,0.5522 -3.7895,0.3548 0.0179,1.7326 3.9699,1.3471 3.3212,2.9432 -0.4032,0.9905 -3.3926,-0.3647 -4.187,-0.8457 -0.8415,1.3931 2.6647,1.6489 1.8347,2.9485 -0.553,0.8655 -2.9391,-0.8058 -3.6193,-1.3123 -1.0422,0.5322 1.225,1.5074 0.5682,2.1815 -0.5361,0.5503 -1.0772,0.2554 -2.5564,-1.3287 -0.823,-0.8817 -2.2978,-1.7642 -3.48,-2.9194l0.1362 0.0573 3.6245 -7.3982z"/>
    <path id="_636146464" class="fil13" d="M328.891 152.029c-2.8558,1.1735 -3.1265,6.6173 2.6383,16.0296 5.7648,9.4122 15.4997,12.1554 15.4997,12.1554l3.6245 -7.3981c0,0 -7.9438,-4.0807 -10.6936,-8.2371 -2.7499,-4.1563 -8.2131,-13.7232 -11.0689,-12.5498z"/>
    <g style="clip-path:url(#id5)">
     <g>
      <rect id="_591604056" class="fil14" transform="matrix(0.451583 -0.921742 0.921742 0.451583 343.598 179.849)" width="11.3104" height="3.158"/>
     </g>
    </g>
    <path class="fil3 str5" d="M328.891 152.029c-2.8558,1.1735 -3.1265,6.6173 2.6383,16.0296 5.7648,9.4122 15.4997,12.1554 15.4997,12.1554l3.6245 -7.3981c0,0 -7.9438,-4.0807 -10.6936,-8.2371 -2.7499,-4.1563 -8.2131,-13.7232 -11.0689,-12.5498z"/>
    <g>
     <g>
      <path id="_636146392" class="fil15" d="M329.534 158.688c0,0 0.9178,0.1477 1.6765,1.3363 0.7586,1.1886 2.0047,2.9364 2.0047,2.9364 0,0 -0.8754,-4.7253 -3.6812,-4.2727z"/>
      <path id="_636146320" class="fil15" d="M333.664 164.179c0,0 -0.9178,-0.1476 -1.6765,-1.3363 -0.7586,-1.1886 -2.0047,-2.9364 -2.0047,-2.9364 0,0 0.8753,4.7254 3.6812,4.2727z"/>
     </g>
     <g>
      <path id="_636146224" class="fil15" d="M334.537 161.867c0,0 0.9178,0.1476 1.6765,1.3362 0.7587,1.1887 2.0048,2.9365 2.0048,2.9365 0,0 -0.8754,-4.7254 -3.6813,-4.2727z"/>
      <path id="_636146152" class="fil15" d="M338.667 167.358c0,0 -0.9178,-0.1477 -1.6764,-1.3363 -0.7587,-1.1886 -2.0048,-2.9364 -2.0048,-2.9364 0,0 0.8754,4.7253 3.6812,4.2727z"/>
     </g>
     <g>
      <path id="_636146056" class="fil15" d="M334.567 167.091c0,0 0.9178,0.1477 1.6765,1.3363 0.7586,1.1886 2.0047,2.9364 2.0047,2.9364 0,0 -0.8753,-4.7254 -3.6812,-4.2727z"/>
      <path id="_636145984" class="fil15" d="M338.697 172.582c0,0 -0.9178,-0.1477 -1.6765,-1.3363 -0.7586,-1.1886 -2.0047,-2.9364 -2.0047,-2.9364 0,0 0.8753,4.7253 3.6812,4.2727z"/>
     </g>
     <g>
      <path id="_636145888" class="fil15" d="M339.693 168.303c0,0 0.9178,0.1477 1.6764,1.3363 0.7587,1.1886 2.0048,2.9364 2.0048,2.9364 0,0 -0.8754,-4.7253 -3.6812,-4.2727z"/>
      <path id="_636145816" class="fil15" d="M343.823 173.794c0,0 -0.9178,-0.1476 -1.6765,-1.3362 -0.7587,-1.1887 -2.0048,-2.9365 -2.0048,-2.9365 0,0 0.8754,4.7254 3.6813,4.2727z"/>
     </g>
    </g>
    <path id="_636145696" class="fil3 str0" d="M349.596 177.826c0,0 1.9403,0.7546 2.586,-1.655"/>
   </g>
   <g>
    <path id="_636145600" class="fil0 str0" d="M276.098 172.816c-1.8898,0.6309 -5.0303,0.0492 -5.3436,0.5214 -0.3133,0.4722 -0.2594,0.8317 1.8217,2.2246 -0.9386,1.6539 -4.8199,0.9804 -4.6255,2.573 0.1256,1.0281 2.938,0.5522 3.7895,0.3548 -0.0179,1.7326 -3.9699,1.3471 -3.3212,2.9432 0.4032,0.9905 3.3926,-0.3647 4.187,-0.8457 0.8415,1.3931 -2.6647,1.6489 -1.8347,2.9485 0.553,0.8655 2.9391,-0.8058 3.6193,-1.3123 1.0422,0.5322 -1.225,1.5074 -0.5682,2.1815 0.5361,0.5503 1.0772,0.2554 2.5564,-1.3287 0.823,-0.8817 2.2978,-1.7642 3.48,-2.9194l-0.1362 0.0573 -3.6245 -7.3982z"/>
    <path id="_636145528" class="fil13" d="M297.86 152.029c2.8558,1.1735 3.1265,6.6173 -2.6383,16.0296 -5.7648,9.4122 -15.4997,12.1554 -15.4997,12.1554l-3.6245 -7.3981c0,0 7.9438,-4.0807 10.6936,-8.2371 2.7499,-4.1563 8.2131,-13.7232 11.0689,-12.5498z"/>
    <g style="clip-path:url(#id6)">
     <g>
      <rect id="_591611400" class="fil14" transform="matrix(-0.451583 -0.921742 -0.921742 0.451583 283.153 179.849)" width="11.3104" height="3.158"/>
     </g>
    </g>
    <path class="fil3 str5" d="M297.86 152.029c2.8558,1.1735 3.1265,6.6173 -2.6383,16.0296 -5.7648,9.4122 -15.4997,12.1554 -15.4997,12.1554l-3.6245 -7.3981c0,0 7.9438,-4.0807 10.6936,-8.2371 2.7499,-4.1563 8.2131,-13.7232 11.0689,-12.5498z"/>
    <g>
     <g>
      <path id="_636145456" class="fil15" d="M297.217 158.688c0,0 -0.9178,0.1477 -1.6765,1.3363 -0.7586,1.1886 -2.0047,2.9364 -2.0047,2.9364 0,0 0.8754,-4.7253 3.6812,-4.2727z"/>
      <path id="_636145384" class="fil15" d="M293.087 164.179c0,0 0.9178,-0.1476 1.6765,-1.3363 0.7586,-1.1886 2.0047,-2.9364 2.0047,-2.9364 0,0 -0.8753,4.7254 -3.6812,4.2727z"/>
     </g>
     <g>
      <path id="_636145288" class="fil15" d="M292.215 161.867c0,0 -0.9178,0.1476 -1.6765,1.3362 -0.7587,1.1887 -2.0048,2.9365 -2.0048,2.9365 0,0 0.8754,-4.7254 3.6813,-4.2727z"/>
      <path id="_636145216" class="fil15" d="M288.085 167.358c0,0 0.9178,-0.1477 1.6764,-1.3363 0.7587,-1.1886 2.0048,-2.9364 2.0048,-2.9364 0,0 -0.8754,4.7253 -3.6812,4.2727z"/>
     </g>
     <g>
      <path id="_636145120" class="fil15" d="M292.184 167.091c0,0 -0.9178,0.1477 -1.6765,1.3363 -0.7586,1.1886 -2.0047,2.9364 -2.0047,2.9364 0,0 0.8753,-4.7254 3.6812,-4.2727z"/>
      <path id="_636145048" class="fil15" d="M288.054 172.582c0,0 0.9178,-0.1477 1.6765,-1.3363 0.7586,-1.1886 2.0047,-2.9364 2.0047,-2.9364 0,0 -0.8753,4.7253 -3.6812,4.2727z"/>
     </g>
     <g>
      <path id="_636144952" class="fil15" d="M287.058 168.303c0,0 -0.9178,0.1477 -1.6764,1.3363 -0.7587,1.1886 -2.0048,2.9364 -2.0048,2.9364 0,0 0.8754,-4.7253 3.6812,-4.2727z"/>
      <path id="_636144880" class="fil15" d="M282.928 173.794c0,0 0.9178,-0.1476 1.6765,-1.3362 0.7587,-1.1887 2.0048,-2.9365 2.0048,-2.9365 0,0 -0.8754,4.7254 -3.6813,4.2727z"/>
     </g>
    </g>
    <path id="_636144760" class="fil3 str0" d="M277.155 177.826c0,0 -1.9403,0.7546 -2.586,-1.655"/>
   </g>
  </g>
  <g id="_636144544">
   <path id="_636144640" class="fil1 str1" d="M175.199 152.575c-5.4172,3.1568 -2.759,12.5736 -2.8362,15.3442 -0.0772,2.7705 -2.759,8.9045 3.0291,10.1774 4.1018,0.902 8.302,1.3532 12.5022,1.3532 4.2002,0 8.4006,-0.4512 12.5022,-1.3532 5.7881,-1.2728 3.1063,-7.4069 3.0291,-10.1774 -0.0772,-2.7706 2.581,-12.1874 -2.8361,-15.3442 -6.3296,-3.6885 -19.0608,-3.6885 -25.3903,0z"/>
   <path id="_636144568" class="fil4" d="M188.072 156.246c0,0 -0.6633,0.6194 -0.6309,1.9957 0.0324,1.3763 -0.0257,3.4712 -0.0257,3.4712 0,0 -1.8636,-4.3059 0.6566,-5.4669zm-0.357 6.6985c0,0 0.6633,-0.6195 0.6309,-1.9957 -0.0324,-1.3764 0.0257,-3.4712 0.0257,-3.4712 0,0 1.8636,4.3058 -0.6566,5.4669zm-12.8363 7.363c0,0 -0.4804,-0.77 -0.0929,-2.091 0.3876,-1.321 0.8736,-3.3595 0.8736,-3.3595 0,0 -2.9145,3.6768 -0.7807,5.4505zm8.8573 0c0,0 -0.4804,-0.77 -0.0929,-2.091 0.3875,-1.321 0.8736,-3.3595 0.8736,-3.3595 0,0 -2.9145,3.6768 -0.7807,5.4505zm-5.2977 -9.2554c0,0 -0.4804,-0.7699 -0.0929,-2.0909 0.3875,-1.3211 0.8736,-3.3596 0.8736,-3.3596 0,0 -2.9146,3.6768 -0.7807,5.4505zm3.1129 4.4495c0,0 -0.4804,-0.77 -0.0929,-2.091 0.3875,-1.321 0.8736,-3.3595 0.8736,-3.3595 0,0 -2.9145,3.6767 -0.7807,5.4505zm-2.9685 9.0628c0,0 -0.4804,-0.77 -0.0929,-2.091 0.3875,-1.321 0.8736,-3.3595 0.8736,-3.3595 0,0 -2.9145,3.6767 -0.7807,5.4505zm22.3255 -4.2569c0,0 0.4805,-0.77 0.0929,-2.091 -0.3875,-1.321 -0.8736,-3.3595 -0.8736,-3.3595 0,0 2.9146,3.6768 0.7807,5.4505zm-8.8572 0c0,0 0.4804,-0.77 0.0929,-2.091 -0.3876,-1.321 -0.8736,-3.3595 -0.8736,-3.3595 0,0 2.9145,3.6768 0.7807,5.4505zm5.2977 -9.2554c0,0 0.4804,-0.7699 0.0929,-2.0909 -0.3875,-1.3211 -0.8736,-3.3596 -0.8736,-3.3596 0,0 2.9145,3.6768 0.7807,5.4505zm-3.113 4.4495c0,0 0.4805,-0.77 0.0929,-2.091 -0.3875,-1.321 -0.8736,-3.3595 -0.8736,-3.3595 0,0 2.9146,3.6767 0.7807,5.4505zm2.9685 9.0628c0,0 0.4805,-0.77 0.0929,-2.091 -0.3875,-1.321 -0.8736,-3.3595 -0.8736,-3.3595 0,0 2.9146,3.6767 0.7807,5.4505zm-11.138 -3.4181c0,0 -0.8011,0.4266 -1.1259,1.7644 -0.3249,1.3378 -0.9232,3.3462 -0.9232,3.3462 0,0 -0.6858,-4.6414 2.0491,-5.1106zm3.6546 0c0,0 0.801,0.4266 1.126,1.7644 0.3248,1.3378 0.9231,3.3463 0.9231,3.3463 0,0 0.6857,-4.6415 -2.0491,-5.1107zm-5.7332 6.3778c0,0 0.8011,-0.4266 1.126,-1.7644 0.3249,-1.3378 0.9232,-3.3462 0.9232,-3.3462 0,0 0.6857,4.6414 -2.0492,5.1106zm7.8118 0c0,0 -0.8011,-0.4266 -1.126,-1.7644 -0.3249,-1.3378 -0.9232,-3.3462 -0.9232,-3.3462 0,0 -0.6857,4.6414 2.0492,5.1106zm4.016 -9.5223c0,0 -0.4804,0.77 -0.0929,2.091 0.3875,1.321 0.8736,3.3595 0.8736,3.3595 0,0 -2.9146,-3.6768 -0.7807,-5.4505zm-2.9685 -9.0628c0,0 -0.4804,0.77 -0.0929,2.091 0.3875,1.321 0.8736,3.3595 0.8736,3.3595 0,0 -2.9146,-3.6768 -0.7807,-5.4505zm3.1129 -4.4495c0,0 -0.4804,0.77 -0.0929,2.0911 0.3876,1.321 0.8736,3.3595 0.8736,3.3595 0,0 -2.9145,-3.6768 -0.7807,-5.4506zm-5.2977 9.2554c0,0 -0.4804,0.77 -0.0929,2.091 0.3876,1.321 0.8736,3.3595 0.8736,3.3595 0,0 -2.9145,-3.6768 -0.7807,-5.4505zm8.8573 0c0,0 -0.4804,0.77 -0.0929,2.091 0.3875,1.321 0.8736,3.3595 0.8736,3.3595 0,0 -2.9146,-3.6768 -0.7807,-5.4505zm-19.5478 4.2569c0,0 0.4804,0.77 0.0929,2.091 -0.3876,1.321 -0.8736,3.3595 -0.8736,3.3595 0,0 2.9145,-3.6768 0.7807,-5.4505zm2.9685 -9.0628c0,0 0.4804,0.77 0.0929,2.091 -0.3876,1.321 -0.8736,3.3595 -0.8736,3.3595 0,0 2.9145,-3.6768 0.7807,-5.4505zm-3.113 -4.4495c0,0 0.4804,0.77 0.0929,2.0911 -0.3875,1.321 -0.8736,3.3595 -0.8736,3.3595 0,0 2.9146,-3.6768 0.7807,-5.4506zm5.2977 9.2554c0,0 0.4804,0.77 0.0929,2.091 -0.3875,1.321 -0.8736,3.3595 -0.8736,3.3595 0,0 2.9146,-3.6768 0.7807,-5.4505zm-8.8572 0c0,0 0.4804,0.77 0.0929,2.091 -0.3876,1.321 -0.8736,3.3595 -0.8736,3.3595 0,0 2.9145,-3.6768 0.7807,-5.4505z"/>
  </g>
  <path class="fil0 str0" d="M181.536 146.185l12.7151 0 0 5.5158c0,1.6001 -2.8469,2.898 -6.3575,2.898 -3.5105,0 -6.3576,-1.2979 -6.3576,-2.898l0 -5.5158z"/>
  <g id="_636143848">
   <path id="_636144400" class="fil0 str0" d="M52.0117 166.914c1.5776,-1.2168 2.8463,-4.1478 3.413,-4.1445 0.5667,0.0032 0.835,0.2485 0.8304,2.7527 1.8963,0.1434 3.502,-3.4538 4.7154,-2.4042 0.7834,0.6777 -1.1802,2.7466 -1.8189,3.3433 1.448,0.9514 3.3322,-2.5438 4.2952,-1.1153 0.5972,0.8872 -2.1949,2.6126 -3.0372,3.0037 0.687,1.4754 2.8548,-1.2921 3.4707,0.1216 0.4099,0.9418 -2.3081,1.9902 -3.1079,2.2722 -0.1395,1.1619 1.9344,-0.176 2.1277,0.7451 0.1577,0.7519 -0.3889,1.0365 -2.5287,1.3808 -1.1909,0.1914 -2.7459,0.9233 -4.3641,1.2603l0.1235 -0.0811 -4.1191 -7.1346z"/>
   <path id="_636144328" class="fil16" d="M47.4806 152.227c-2.1649,-1.2499 -7.042,1.9943 -10.3446,12.5257 -1.5586,4.9702 -1.0823,12.1984 3.5607,13.3557 6.6189,1.6498 15.3107,-3.979 15.3107,-3.979l-3.9957 -7.2157c-5.5791,3.3133 -7.4065,2.0341 -6.0107,-1.1399 1.5926,-3.6223 3.6446,-12.297 1.4796,-13.5468z"/>
   <g style="clip-path:url(#id7)">
    <g>
     <rect id="_591628584" class="fil17" transform="matrix(-0.51321 -0.888905 -0.888905 0.51321 56.9118 175.549)" width="11.3104" height="3.158"/>
    </g>
   </g>
   <path class="fil3 str6" d="M47.4806 152.227c-2.1649,-1.2499 -7.042,1.9943 -10.3446,12.5257 -1.5586,4.9702 -1.0823,12.1984 3.5607,13.3557 6.6189,1.6498 15.3107,-3.979 15.3107,-3.979l-3.9957 -7.2157c-5.5791,3.3133 -7.4065,2.0341 -6.0107,-1.1399 1.5926,-3.6223 3.6446,-12.297 1.4796,-13.5468z"/>
   <g>
    <path id="_636144256" class="fil18" d="M44.436 155.63c0,0 0.4921,0.7887 0.0952,2.1417 -0.397,1.3531 -0.8949,3.4411 -0.8949,3.4411 0,0 2.9853,-3.766 0.7997,-5.5828z"/>
    <path id="_636144184" class="fil18" d="M43.0135 162.352c0,0 -0.4921,-0.7887 -0.0952,-2.1418 0.3969,-1.353 0.8948,-3.4411 0.8948,-3.4411 0,0 -2.9853,3.7661 -0.7996,5.5829z"/>
    <path id="_636144112" class="fil18" d="M43.3539 164.099c0,0 0.4921,0.7887 0.0952,2.1418 -0.397,1.3531 -0.8948,3.4411 -0.8948,3.4411 0,0 2.9853,-3.7661 0.7996,-5.5829zm-1.4225 6.7219c0,0 -0.4921,-0.7886 -0.0952,-2.1417 0.397,-1.3531 0.8949,-3.4411 0.8949,-3.4411 0,0 -2.9853,3.7661 -0.7997,5.5828z"/>
    <path id="_636144040" class="fil18" d="M38.4136 169.532c0,0 -0.4921,-0.7887 -0.0952,-2.1417 0.397,-1.3531 0.8949,-3.4411 0.8949,-3.4411 0,0 -2.9854,3.766 -0.7997,5.5828zm1.4225 -6.7219c0,0 0.4921,0.7886 0.0952,2.1417 -0.3969,1.3531 -0.8948,3.4411 -0.8948,3.4411 0,0 2.9853,-3.766 0.7996,-5.5828z"/>
    <path id="_636143968" class="fil18" d="M39.1681 175.295c0,0 0.2097,-0.9057 1.4472,-1.5818 1.2374,-0.6761 3.0659,-1.8004 3.0659,-1.8004 0,0 -4.7739,0.552 -4.5131,3.3822zm5.759 -3.7473c0,0 -0.2097,0.9057 -1.4471,1.5818 -1.2375,0.6761 -3.066,1.8005 -3.066,1.8005 0,0 4.7739,-0.5521 4.5131,-3.3823z"/>
    <path id="_636143896" class="fil18" d="M50.4297 173.015c0,0 -0.2097,0.9056 -1.4472,1.5817 -1.2374,0.6761 -3.0659,1.8005 -3.0659,1.8005 0,0 4.7739,-0.5521 4.5131,-3.3822zm-5.759 3.7472c0,0 0.2097,-0.9056 1.4472,-1.5817 1.2374,-0.6762 3.0659,-1.8005 3.0659,-1.8005 0,0 -4.7739,0.552 -4.5131,3.3822z"/>
   </g>
  </g>
  <g id="_636142912">
   <path id="_636143776" class="fil0 str0" d="M97.3346 172.86c1.8898,0.6309 5.0303,0.0492 5.3436,0.5214 0.3133,0.4722 0.2594,0.8317 -1.8217,2.2246 0.9386,1.6539 4.8199,0.9804 4.6255,2.573 -0.1256,1.0281 -2.938,0.5522 -3.7895,0.3548 0.0179,1.7326 3.9699,1.3471 3.3212,2.9432 -0.4032,0.9905 -3.3926,-0.3647 -4.187,-0.8457 -0.8415,1.3931 2.6647,1.6489 1.8347,2.9485 -0.553,0.8655 -2.9391,-0.8058 -3.6193,-1.3123 -1.0422,0.5322 1.225,1.5074 0.5682,2.1815 -0.5361,0.5503 -1.0772,0.2554 -2.5564,-1.3287 -0.823,-0.8817 -2.2978,-1.7642 -3.48,-2.9194l0.1362 0.0573 3.6245 -7.3982z"/>
   <path id="_636143704" class="fil16" d="M75.5721 152.073c-2.8558,1.1735 -3.1265,6.6173 2.6383,16.0296 5.7648,9.4122 15.4997,12.1554 15.4997,12.1554l3.6245 -7.3981c0,0 -7.9438,-4.0807 -10.6936,-8.2371 -2.7499,-4.1563 -8.2131,-13.7232 -11.0689,-12.5498z"/>
   <g style="clip-path:url(#id8)">
    <g>
     <rect id="_591601896" class="fil17" transform="matrix(0.451583 -0.921742 0.921742 0.451583 90.2792 179.893)" width="11.3104" height="3.158"/>
    </g>
   </g>
   <path class="fil3 str6" d="M75.5721 152.073c-2.8558,1.1735 -3.1265,6.6173 2.6383,16.0296 5.7648,9.4122 15.4997,12.1554 15.4997,12.1554l3.6245 -7.3981c0,0 -7.9438,-4.0807 -10.6936,-8.2371 -2.7499,-4.1563 -8.2131,-13.7232 -11.0689,-12.5498z"/>
   <g>
    <g>
     <path id="_636143632" class="fil18" d="M76.215 158.732c0,0 0.9178,0.1477 1.6765,1.3363 0.7586,1.1886 2.0047,2.9364 2.0047,2.9364 0,0 -0.8754,-4.7253 -3.6812,-4.2727z"/>
     <path id="_636143560" class="fil18" d="M80.3451 164.223c0,0 -0.9178,-0.1476 -1.6765,-1.3363 -0.7586,-1.1886 -2.0047,-2.9364 -2.0047,-2.9364 0,0 0.8753,4.7254 3.6812,4.2727z"/>
    </g>
    <g>
     <path id="_636143464" class="fil18" d="M81.2178 161.911c0,0 0.9178,0.1476 1.6765,1.3362 0.7587,1.1887 2.0048,2.9365 2.0048,2.9365 0,0 -0.8754,-4.7254 -3.6813,-4.2727z"/>
     <path id="_636143392" class="fil18" d="M85.3479 167.402c0,0 -0.9178,-0.1477 -1.6764,-1.3363 -0.7587,-1.1886 -2.0048,-2.9364 -2.0048,-2.9364 0,0 0.8754,4.7253 3.6812,4.2727z"/>
    </g>
    <g>
     <path id="_636143296" class="fil18" d="M81.2485 167.135c0,0 0.9178,0.1477 1.6765,1.3363 0.7586,1.1886 2.0047,2.9364 2.0047,2.9364 0,0 -0.8753,-4.7254 -3.6812,-4.2727z"/>
     <path id="_636143224" class="fil18" d="M85.3786 172.625c0,0 -0.9178,-0.1477 -1.6765,-1.3363 -0.7586,-1.1886 -2.0047,-2.9364 -2.0047,-2.9364 0,0 0.8753,4.7253 3.6812,4.2727z"/>
    </g>
    <g>
     <path id="_636143128" class="fil18" d="M86.3741 168.347c0,0 0.9178,0.1477 1.6764,1.3363 0.7587,1.1886 2.0048,2.9364 2.0048,2.9364 0,0 -0.8754,-4.7253 -3.6812,-4.2727z"/>
     <path id="_636143056" class="fil18" d="M90.5042 173.838c0,0 -0.9178,-0.1476 -1.6765,-1.3362 -0.7587,-1.1887 -2.0048,-2.9365 -2.0048,-2.9365 0,0 0.8754,4.7254 3.6813,4.2727z"/>
    </g>
   </g>
   <path id="_636142936" class="fil3 str0" d="M96.2777 177.87c0,0 1.9403,0.7546 2.586,-1.655"/>
  </g>
  <g id="_636142672">
   <path id="_636142840" class="fil18 str7" d="M304.488 206.424c3.5599,0.2725 6.1738,4.0634 5.9493,6.9961 -0.2245,2.9328 -3.2025,3.8983 -6.7624,3.6257 -3.56,-0.2725 -6.3561,-1.68 -6.1316,-4.6127 0.2245,-2.9328 3.3848,-6.2817 6.9447,-6.0091z"/>
   <path id="_636142768" class="fil0" d="M298.613 180.983c0,0 -1.3885,11.1414 -1.5391,15.1086 -0.1507,3.9673 1.9465,10.5551 1.766,12.9132 -0.1805,2.3582 -1.022,5.3544 1.6288,5.7103 2.6507,0.356 5.9803,0.8404 7.7823,0.2897 1.802,-0.5507 2.1056,-2.5168 1.081,-4.1256 -1.0246,-1.6087 -0.7892,-13.6801 -0.3921,-15.8686 0.3971,-2.1885 2.2187,-12.9907 2.2187,-12.9907l-12.5456 -1.0369z"/>
   <g style="clip-path:url(#id9)">
    <g>
     <path id="_5960906481" class="fil3 str8" d="M307.429 213.87c0,0 0.4986,-0.4987 1.3747,-0.2528m-8.399 -0.9743c0,0 -0.8797,2.0972 1.1708,2.2203m5.1001 -1.9773c0,0 -0.8797,2.097 1.1709,2.2202m-3.312 -2.0777c0,0 -0.8797,2.0971 1.171,2.2203m-3.2243 -2.3579c0,0 -0.8796,2.0971 1.171,2.22m-4.2485 -1.7345c0,0 0.1753,-0.1756 0.4836,-0.0889m1.0553 0.5902c0,0 0.3164,-0.3166 0.8725,-0.1606m1.1574 0.3671c0,0 0.3165,-0.3167 0.8725,-0.1605m1.1484 0.0878c0,0 0.3164,-0.3166 0.8724,-0.1604"/>
    </g>
   </g>
   <path class="fil3 str0" d="M298.613 180.983c0,0 -1.3885,11.1414 -1.5391,15.1086 -0.1507,3.9673 1.9465,10.5551 1.766,12.9132 -0.1805,2.3582 -1.022,5.3544 1.6288,5.7103 2.6507,0.356 5.9803,0.8404 7.7823,0.2897 1.802,-0.5507 2.1056,-2.5168 1.081,-4.1256 -1.0246,-1.6087 -0.7892,-13.6801 -0.3921,-15.8686 0.3971,-2.1885 2.2187,-12.9907 2.2187,-12.9907l-12.5456 -1.0369z"/>
   <path id="_636142696" class="fil18 str7" d="M310.091 214.324c0.1372,-0.5011 0.2282,-1.004 0.2659,-1.4965 0.276,-3.6054 -2.3928,-5.277 -5.8211,-5.5394 -3.4284,-0.2625 -6.3203,0.9834 -6.5963,4.5888 -0.0377,0.4925 -0.0243,1.0034 0.035,1.5195 0.8218,-2.5702 3.3817,-3.4683 6.3418,-3.2417 2.9602,0.2266 5.3537,1.5039 5.7747,4.1693z"/>
  </g>
  <g id="_636142432">
   <path id="_636142600" class="fil18 str7" d="M322.308 206.383c-3.5586,0.2888 -6.1551,4.0916 -5.9172,7.0233 0.2379,2.9317 3.2203,3.8835 6.779,3.5947 3.5586,-0.2888 6.3483,-1.7091 6.1104,-4.6407 -0.2379,-2.9317 -3.4135,-6.2661 -6.9722,-5.9773z"/>
   <path id="_636142528" class="fil0" d="M328.067 180.915c0,0 1.4395,11.1349 1.6083,15.1014 0.1688,3.9666 -1.8982,10.5639 -1.7069,12.9212 0.1913,2.3573 1.0465,5.3496 -1.6026,5.7177 -2.6491,0.368 -5.9765,0.8677 -7.781,0.3253 -1.8045,-0.5425 -2.117,-2.5072 -1.0998,-4.1206 1.0172,-1.6134 0.7265,-13.6836 0.3194,-15.8703 -0.4071,-2.1867 -2.2781,-12.9804 -2.2781,-12.9804l12.5407 -1.0943z"/>
   <g style="clip-path:url(#id10)">
    <g>
     <path id="_4846095041" class="fil3 str8" d="M319.407 213.845c0,0 -0.4986,-0.4987 -1.3748,-0.2527m8.399 -0.9744c0,0 0.8798,2.0972 -1.1708,2.2203m-5.1001 -1.9773c0,0 0.8797,2.0969 -1.1708,2.2202m3.3119 -2.0778c0,0 0.8799,2.0972 -1.1709,2.2205m3.2244 -2.358c0,0 0.8797,2.0971 -1.1712,2.2201m4.2485 -1.7347c0,0 -0.1753,-0.1755 -0.4835,-0.0888m-1.0553 0.5903c0,0 -0.3164,-0.3167 -0.8724,-0.1607m-1.1575 0.3671c0,0 -0.3164,-0.3167 -0.8724,-0.1606m-1.1485 0.088c0,0 -0.3162,-0.3168 -0.8724,-0.1604"/>
    </g>
   </g>
   <path class="fil3 str0" d="M328.067 180.915c0,0 1.4395,11.1349 1.6083,15.1014 0.1688,3.9666 -1.8982,10.5639 -1.7069,12.9212 0.1913,2.3573 1.0465,5.3496 -1.6026,5.7177 -2.6491,0.368 -5.9765,0.8677 -7.781,0.3253 -1.8045,-0.5425 -2.117,-2.5072 -1.0998,-4.1206 1.0172,-1.6134 0.7265,-13.6836 0.3194,-15.8703 -0.4071,-2.1867 -2.2781,-12.9804 -2.2781,-12.9804l12.5407 -1.0943z"/>
   <path id="_636142456" class="fil18 str7" d="M316.742 214.309c-0.1394,-0.5005 -0.2328,-1.003 -0.2727,-1.4953 -0.2925,-3.6041 2.3686,-5.2878 5.7957,-5.566 3.4271,-0.2781 6.3248,0.9545 6.6173,4.5586 0.0399,0.4923 0.0288,1.0033 -0.0281,1.5197 -0.8336,-2.5664 -3.3975,-3.4529 -6.3566,-3.2127 -2.9591,0.2401 -5.3468,1.5284 -5.7556,4.1957z"/>
  </g>
  <g id="_636141880">
   <path id="_636142360" class="fil19 str9" d="M297.569 174.875c-6.4115,8.0868 -6.7223,24.0029 -5.442,26.0161 1.025,1.6121 10.9915,4.875 21.2486,4.875 10.2572,0 20.2237,-3.2629 21.2487,-4.875 1.2802,-2.0132 0.9694,-17.9293 -5.4421,-26.0161l-15.8066 0 -15.8066 0z"/>
   <g>
    <path id="_636142288" class="fil20" d="M304.216 180.457c0,0 -2.9895,4.9015 -3.8975,10.0942 -0.9078,5.1925 -0.0741,9.3545 -0.0741,9.3545 0,0 1.7285,-6.7072 3.9716,-19.4487z"/>
    <path id="_636142216" class="fil20" d="M310.55 182.058c0,0 -2.2824,5.7098 -2.4872,11.073 -0.2045,5.3629 1.1614,9.1879 1.1614,9.1879 0,0 0.8088,-7.0962 1.3258,-20.2609z"/>
    <path id="_636142144" class="fil20" d="M316.201 182.058c0,0 2.2823,5.71 2.487,11.073 0.2048,5.3629 -1.1613,9.1879 -1.1613,9.1879 0,0 -0.8089,-7.0965 -1.3257,-20.2609z"/>
    <path id="_636142072" class="fil20" d="M322.535 180.457c0,0 2.9894,4.9015 3.8974,10.0941 0.908,5.1924 0.074,9.3546 0.074,9.3546 0,0 -1.7285,-6.7073 -3.9714,-19.4487z"/>
    <path id="_636142000" class="fil20" d="M327.665 178.963c0,0 3.2771,4.4586 4.4995,9.5004 1.2225,5.042 0.6477,9.3036 0.6477,9.3036 0,0 -2.1323,-6.4342 -5.1472,-18.804z"/>
    <path id="_636141928" class="fil20" d="M299.086 178.963c0,0 -3.277,4.4586 -4.4996,9.5004 -1.2224,5.042 -0.6475,9.3036 -0.6475,9.3036 0,0 2.1323,-6.4342 5.1471,-18.804z"/>
   </g>
  </g>
  <g id="_636141232">
   <path id="_636141808" class="fil10 str4" d="M79.3266 136.857c0,0 6.9866,3.8292 7.1882,8.0614 0.1967,4.1333 0.5828,13.2695 6.584,14.0238 1.8239,0.229 -4.8986,2.2102 -7.323,-0.6551 -3.6947,-4.3664 -2.3589,-7.378 -8.5318,-8.8677 -6.1727,-1.4896 -6.9193,-2.8215 -6.9193,-2.8215l9.0019 -9.7409z"/>
   <g>
    <path id="_636141736" class="fil10 str4" d="M41.702 136.857c0,0 -6.9866,3.8292 -7.1881,8.0614 -0.1968,4.1333 -0.5829,13.2695 -6.5841,14.0238 -1.8238,0.229 4.8987,2.2102 7.323,-0.6551 3.6947,-4.3664 2.359,-7.378 8.5318,-8.8677 6.1728,-1.4896 6.9194,-2.8215 6.9194,-2.8215l-9.002 -9.7409z"/>
    <path id="_636141664" class="fil6 str4" d="M34.0394 150.309c-0.1713,1.0846 -0.409,2.1844 -0.7453,3.2207 1.2188,-0.0599 2.794,0.1151 4.3648,1.0002 0.6543,-1.2944 1.1665,-2.3952 2.1783,-3.2926 -1.2009,-0.9536 -3.0799,-1.496 -5.7978,-0.9283z"/>
    <path id="_636141592" class="fil12" d="M41.4174 140.73c0,0 -4.2818,3.3841 -4.2565,7.7139 0,0 1.849,-3.8798 4.2565,-7.7139z"/>
    <path id="_636141520" class="fil6 str4" d="M86.9893 150.309c0.1712,1.0846 0.409,2.1844 0.7452,3.2207 -1.2187,-0.0599 -2.7939,0.1151 -4.3647,1.0002 -0.6543,-1.2944 -1.1666,-2.3952 -2.1783,-3.2926 1.2008,-0.9536 3.0798,-1.496 5.7978,-0.9283z"/>
    <g>
     <path id="_636141448" class="fil12" d="M79.6113 140.73c0,0 4.2818,3.3841 4.2564,7.7139 0,0 -1.849,-3.8798 -4.2564,-7.7139z"/>
     <path id="_636141376" class="fil12" d="M75.5299 139.601c0,0 4.2818,3.3841 4.2565,7.7139 0,0 -1.849,-3.8798 -4.2565,-7.7139z"/>
    </g>
   </g>
   <path id="_636141256" class="fil12" d="M45.4987 139.601c0,0 -4.2818,3.3841 -4.2564,7.7139 0,0 1.8489,-3.8798 4.2564,-7.7139z"/>
  </g>
  <path class="fil21 str10" d="M246.697 101.124c12.0503,0 21.8227,6.3272 21.8227,14.1292 0,7.8021 -9.7724,14.1293 -21.8227,14.1293 -5.935,0 -11.3167,-1.5354 -15.2508,-4.0254l-8.0449 4.01 4.0251 -7.4806c-1.628,-1.9781 -2.552,-4.2358 -2.552,-6.6333 0,-7.802 9.7724,-14.1292 21.8226,-14.1292z"/>
  <path class="fil22" d="M234.004 113.142c0,0.2498 -0.1746,0.3948 -0.5239,0.435 -0.3492,0.0402 -0.5683,0.0688 -0.6572,0.0857l0.0381 2.9972c0,0.2244 -0.0148,0.3926 -0.0444,0.5048 -0.0297,0.1122 -0.0932,0.1683 -0.1905,0.1683 -0.1143,0 -0.2043,-0.0826 -0.2699,-0.2477 -0.0656,-0.1651 -0.0984,-0.381 -0.0984,-0.6477 -0.0043,-0.1735 -0.0085,-0.437 -0.0127,-0.7905 -0.0043,-0.3535 -0.0096,-0.7345 -0.0159,-1.143 -0.0064,-0.4085 -0.0095,-0.6657 -0.0095,-0.7716 -0.072,-0.0169 -0.1609,-0.0254 -0.2667,-0.0254 -0.1101,0 -0.2181,0.0075 -0.3239,0.0223 -0.1058,0.0148 -0.199,0.0264 -0.2794,0.0349 -0.0974,0 -0.1715,-0.0148 -0.2223,-0.0445 -0.0719,-0.0423 -0.1079,-0.1164 -0.1079,-0.2222 0,-0.1609 0.1206,-0.2688 0.362,-0.3239 0.1651,-0.0381 0.4402,-0.0571 0.8255,-0.0571l0.3556 0c0.0592,-0.0085 0.273,-0.0423 0.6413,-0.1016 0.2625,-0.0423 0.4212,-0.0635 0.4763,-0.0635 0.0846,0 0.1598,0.0148 0.2254,0.0444 0.0656,0.0297 0.0984,0.0784 0.0984,0.1461zm2.5909 2.1272c0,0.5588 -0.1355,1.0393 -0.4064,1.4415 -0.2837,0.4191 -0.635,0.6286 -1.0541,0.6286 -0.398,0 -0.7197,-0.1418 -0.9652,-0.4254 -0.3048,-0.3514 -0.4572,-0.889 -0.4572,-1.6129 0,-0.5038 0.091,-1.0255 0.273,-1.5653 0.182,-0.5397 0.3683,-0.8096 0.5588,-0.8096 0.1651,0 0.2477,0.1037 0.2477,0.3111 0,0.1143 -0.0889,0.4361 -0.2667,0.9652 -0.1778,0.5292 -0.2667,0.8996 -0.2667,1.1113 0,0.5334 0.0889,0.9144 0.2667,1.143 0.1439,0.1863 0.3513,0.2794 0.6223,0.2794 0.2836,0 0.5016,-0.1588 0.654,-0.4763 0.1355,-0.2794 0.2032,-0.6392 0.2032,-1.0795 0,-0.127 -0.0307,-0.4243 -0.0921,-0.8921 -0.0614,-0.4678 -0.092,-0.744 -0.092,-0.8287 0,-0.326 0.091,-0.5017 0.273,-0.5271 0.1524,-0.0169 0.2773,0.2286 0.3747,0.7366 0.0846,0.4488 0.127,0.9822 0.127,1.6002zm-0.508 -2.9083c0,0.0932 -0.0995,0.2011 -0.2985,0.3239 -0.0635,0.0381 -0.163,0.0889 -0.2984,0.1524l-0.5144 0c0.1651,-0.1778 0.29,-0.3112 0.3747,-0.4001 0.2624,-0.2667 0.4275,-0.4 0.4953,-0.4 0.1058,0 0.1756,0.0296 0.2095,0.0889 0.0212,0.0381 0.0318,0.1164 0.0318,0.2349zm6.1722 4.4958c0,0.0889 -0.0593,0.162 -0.1778,0.2191 -0.1186,0.0572 -0.2794,0.0857 -0.4826,0.0857 -0.5292,0 -0.9843,-0.1566 -1.3653,-0.4699 -0.4318,-0.3556 -0.6477,-0.8382 -0.6477,-1.4478 0,-0.5037 0.2286,-1.016 0.6858,-1.5367 0.436,-0.4953 0.834,-0.7429 1.1938,-0.7429 0.0889,0 0.1545,0.0212 0.1969,0.0635 0.0423,0.0423 0.0635,0.0889 0.0635,0.1397 -0.4107,0.3133 -0.7705,0.6392 -1.0795,0.9779 -0.3387,0.3725 -0.508,0.7853 -0.508,1.2382 0,0.381 0.182,0.6668 0.5461,0.8573 0.1693,0.0889 0.5101,0.1926 1.0223,0.3111 0.3683,0.0847 0.5525,0.1863 0.5525,0.3048zm2.3749 0.127c0,0.1651 -0.0159,0.2921 -0.0477,0.381 -0.0317,0.0889 -0.0899,0.1334 -0.1746,0.1334 -0.1185,0 -0.2265,-0.1799 -0.3238,-0.5398 -0.0551,-0.2328 -0.108,-0.4677 -0.1588,-0.7048l-1.0795 0c-0.0593,0.2286 -0.1185,0.4572 -0.1778,0.6858 -0.0804,0.2752 -0.1968,0.4127 -0.3492,0.4127 -0.0889,0 -0.1419,-0.0127 -0.1588,-0.0381 -0.0339,-0.0508 -0.0508,-0.1375 -0.0508,-0.2603 0,-0.1016 0.0074,-0.217 0.0222,-0.3461 0.0148,-0.1291 0.0519,-0.3058 0.1112,-0.5302 0.0592,-0.2244 0.1185,-0.4456 0.1778,-0.6636 0.0592,-0.218 0.1735,-0.6276 0.3429,-1.2287 0.127,-0.4487 0.201,-0.6858 0.2222,-0.7112 0.1185,-0.4149 0.2942,-0.6223 0.5271,-0.6223 0.1143,0 0.2307,0.091 0.3492,0.273 0.1185,0.1821 0.2032,0.4128 0.254,0.6922 0.0169,0.0296 0.0582,0.2191 0.1238,0.5683 0.0656,0.3493 0.126,0.6763 0.181,0.9811 0.0296,0.1736 0.0593,0.3429 0.0889,0.508 0.0296,0.1651 0.0572,0.3556 0.0826,0.5715 0.0254,0.2159 0.0381,0.3619 0.0381,0.4381zm-0.7811 -1.2763l-0.3302 -2.0511 -0.5651 2.0511 0.8953 0zm3.8735 -1.4542l0 1.7018 0 0.2731c0,0.5715 -0.0265,0.9588 -0.0794,1.162 -0.0529,0.2033 -0.1301,0.3049 -0.2317,0.3049 -0.2075,0 -0.4107,-0.18 -0.6096,-0.5398 -0.1016,-0.1863 -0.2742,-0.5937 -0.5176,-1.2224 -0.2434,-0.6286 -0.4498,-1.089 -0.6191,-1.3811 0,0.1355 0.0042,0.4138 0.0127,0.835 0.0085,0.4212 0.0127,0.6678 0.0127,0.7398 0,0.4106 -0.0169,0.726 -0.0508,0.9461 -0.0339,0.2202 -0.0995,0.3302 -0.1968,0.3302 -0.1397,0 -0.2403,-0.1174 -0.3017,-0.3524 -0.0614,-0.2349 -0.092,-0.5577 -0.092,-0.9684l0 -1.7907c0,-0.3937 0.0201,-0.6953 0.0603,-0.9048 0.0402,-0.2096 0.1196,-0.3144 0.2381,-0.3144 0.1439,0 0.3408,0.2392 0.5906,0.7176 0.1651,0.3175 0.3862,0.8075 0.6635,1.47 0.2773,0.6625 0.4562,1.0763 0.5366,1.2414l-0.0444 -2.1145c0,-0.4995 0.0232,-0.8869 0.0698,-1.1621 0.0466,-0.2751 0.1291,-0.4127 0.2477,-0.4127 0.1164,0 0.1968,0.1249 0.2423,0.3746 0.0455,0.2498 0.0688,0.6054 0.0688,1.0668zm3.029 -1.1112c0,0.2498 -0.1746,0.3948 -0.5239,0.435 -0.3492,0.0402 -0.5683,0.0688 -0.6572,0.0857l0.0381 2.9972c0,0.2244 -0.0148,0.3926 -0.0444,0.5048 -0.0297,0.1122 -0.0932,0.1683 -0.1905,0.1683 -0.1143,0 -0.2043,-0.0826 -0.2699,-0.2477 -0.0656,-0.1651 -0.0984,-0.381 -0.0984,-0.6477 -0.0043,-0.1735 -0.0085,-0.437 -0.0127,-0.7905 -0.0043,-0.3535 -0.0096,-0.7345 -0.0159,-1.143 -0.0064,-0.4085 -0.0095,-0.6657 -0.0095,-0.7716 -0.072,-0.0169 -0.1609,-0.0254 -0.2667,-0.0254 -0.1101,0 -0.2181,0.0075 -0.3239,0.0223 -0.1058,0.0148 -0.199,0.0264 -0.2794,0.0349 -0.0974,0 -0.1715,-0.0148 -0.2223,-0.0445 -0.0719,-0.0423 -0.1079,-0.1164 -0.1079,-0.2222 0,-0.1609 0.1206,-0.2688 0.362,-0.3239 0.1651,-0.0381 0.4402,-0.0571 0.8255,-0.0571l0.3556 0c0.0592,-0.0085 0.273,-0.0423 0.6413,-0.1016 0.2625,-0.0423 0.4212,-0.0635 0.4763,-0.0635 0.0846,0 0.1598,0.0148 0.2254,0.0444 0.0656,0.0297 0.0984,0.0784 0.0984,0.1461zm1.9749 3.8417c0,0.1651 -0.0159,0.2921 -0.0477,0.381 -0.0317,0.0889 -0.0899,0.1334 -0.1746,0.1334 -0.1185,0 -0.2265,-0.1799 -0.3238,-0.5398 -0.0551,-0.2328 -0.108,-0.4677 -0.1588,-0.7048l-1.0795 0c-0.0593,0.2286 -0.1185,0.4572 -0.1778,0.6858 -0.0804,0.2752 -0.1968,0.4127 -0.3492,0.4127 -0.0889,0 -0.1419,-0.0127 -0.1588,-0.0381 -0.0339,-0.0508 -0.0508,-0.1375 -0.0508,-0.2603 0,-0.1016 0.0074,-0.217 0.0222,-0.3461 0.0148,-0.1291 0.0519,-0.3058 0.1112,-0.5302 0.0592,-0.2244 0.1185,-0.4456 0.1778,-0.6636 0.0592,-0.218 0.1735,-0.6276 0.3429,-1.2287 0.127,-0.4487 0.201,-0.6858 0.2222,-0.7112 0.1185,-0.4149 0.2942,-0.6223 0.5271,-0.6223 0.1143,0 0.2307,0.091 0.3492,0.273 0.1185,0.1821 0.2032,0.4128 0.254,0.6922 0.0169,0.0296 0.0582,0.2191 0.1238,0.5683 0.0656,0.3493 0.126,0.6763 0.181,0.9811 0.0296,0.1736 0.0593,0.3429 0.0889,0.508 0.0296,0.1651 0.0572,0.3556 0.0826,0.5715 0.0254,0.2159 0.0381,0.3619 0.0381,0.4381zm-0.7811 -1.2763l-0.3302 -2.0511 -0.5651 2.0511 0.8953 0zm3.7592 0.4445c0,0.3514 -0.1418,0.6361 -0.4254,0.8541 -0.2837,0.218 -0.6329,0.327 -1.0478,0.327 -0.2286,0 -0.4635,-0.0614 -0.7048,-0.1842 -0.2413,-0.1227 -0.362,-0.2561 -0.362,-0.4 0,-0.0593 0.0286,-0.1154 0.0857,-0.1683 0.0572,-0.0529 0.1217,-0.0794 0.1937,-0.0794 0.0254,0 0.1503,0.0519 0.3747,0.1556 0.2243,0.1037 0.3725,0.1556 0.4445,0.1556 0.2286,0 0.4222,-0.055 0.581,-0.1651 0.1587,-0.1101 0.2381,-0.2625 0.2381,-0.4572 0,-0.2032 -0.1799,-0.3916 -0.5397,-0.5652 -0.3387,-0.1566 -0.6774,-0.3132 -1.016,-0.4699 -0.3641,-0.2116 -0.5461,-0.4572 -0.5461,-0.7366 0,-0.2963 0.1608,-0.5831 0.4826,-0.8604 0.3217,-0.2773 0.6752,-0.4159 1.0604,-0.4159 0.2709,0 0.4445,0.0042 0.5207,0.0127 0.2413,0.0254 0.362,0.1291 0.362,0.3111 0,0.1313 -0.2943,0.2202 -0.8827,0.2667 -0.5884,0.0466 -0.8826,0.2646 -0.8826,0.6541 0,0.2074 0.1778,0.3725 0.5334,0.4953 0.6011,0.2032 0.9313,0.3217 0.9906,0.3556 0.3598,0.2032 0.5397,0.508 0.5397,0.9144zm3.029 -3.0099c0,0.2498 -0.1746,0.3948 -0.5239,0.435 -0.3492,0.0402 -0.5683,0.0688 -0.6572,0.0857l0.0381 2.9972c0,0.2244 -0.0148,0.3926 -0.0444,0.5048 -0.0297,0.1122 -0.0932,0.1683 -0.1905,0.1683 -0.1143,0 -0.2043,-0.0826 -0.2699,-0.2477 -0.0656,-0.1651 -0.0984,-0.381 -0.0984,-0.6477 -0.0043,-0.1735 -0.0085,-0.437 -0.0127,-0.7905 -0.0043,-0.3535 -0.0096,-0.7345 -0.0159,-1.143 -0.0064,-0.4085 -0.0095,-0.6657 -0.0095,-0.7716 -0.072,-0.0169 -0.1609,-0.0254 -0.2667,-0.0254 -0.1101,0 -0.2181,0.0075 -0.3239,0.0223 -0.1058,0.0148 -0.199,0.0264 -0.2794,0.0349 -0.0974,0 -0.1715,-0.0148 -0.2223,-0.0445 -0.0719,-0.0423 -0.1079,-0.1164 -0.1079,-0.2222 0,-0.1609 0.1206,-0.2688 0.362,-0.3239 0.1651,-0.0381 0.4402,-0.0571 0.8255,-0.0571l0.3556 0c0.0592,-0.0085 0.273,-0.0423 0.6413,-0.1016 0.2625,-0.0423 0.4212,-0.0635 0.4763,-0.0635 0.0846,0 0.1598,0.0148 0.2254,0.0444 0.0656,0.0297 0.0984,0.0784 0.0984,0.1461zm2.0194 3.6766c0,0.1609 -0.1482,0.29 -0.4445,0.3874 -0.254,0.0847 -0.5355,0.127 -0.8445,0.127 -0.1567,0 -0.2689,-0.0783 -0.3366,-0.235 -0.0508,-0.1185 -0.0762,-0.2783 -0.0762,-0.4773 -0.0042,-0.182 -0.0085,-0.3344 -0.0127,-0.4582 -0.0296,-0.8774 -0.0444,-1.5177 -0.0444,-1.9198 0,-0.4964 0.0127,-0.8964 0.0381,-1.2023l1.1239 -0.1397c0.0423,0 0.072,0 0.0889,0 0.1101,0 0.1969,0.0201 0.2604,0.0603 0.0635,0.0402 0.0952,0.1027 0.0952,0.1873 0,0.072 -0.0423,0.1376 -0.127,0.1969 -0.0847,0.0593 -0.1799,0.0995 -0.2857,0.1206l-0.5842 0.108 0 1.2509 0.5207 -0.0254c0.1651,0 0.2815,0.0297 0.3492,0.0889 0.0677,0.0593 0.1016,0.1397 0.1016,0.2413 0,0.0847 -0.0349,0.1535 -0.1048,0.2064 -0.0698,0.0529 -0.1534,0.0794 -0.2508,0.0794l-0.5778 0.0381 0.0381 1.1747c0.0846,0 0.1957,-0.0095 0.3333,-0.0285 0.1376,-0.0191 0.2657,-0.0371 0.3842,-0.054 0.1058,0 0.1916,0.0201 0.2572,0.0603 0.0656,0.0402 0.0984,0.1111 0.0984,0.2127z"/>
  <g id="_636140632">
   <path id="_636141016" class="fil18 str11" d="M69.4468 206.383c-3.5586,0.2888 -6.1551,4.0916 -5.9172,7.0233 0.2379,2.9317 3.2203,3.8835 6.779,3.5947 3.5586,-0.2888 6.3483,-1.7091 6.1104,-4.6407 -0.2379,-2.9317 -3.4135,-6.2661 -6.9722,-5.9773z"/>
   <path id="_636140944" class="fil18 str11" d="M51.6273 206.424c3.5599,0.2725 6.1738,4.0634 5.9493,6.9961 -0.2245,2.9328 -3.2025,3.8983 -6.7624,3.6257 -3.56,-0.2725 -6.3561,-1.68 -6.1316,-4.6127 0.2245,-2.9328 3.3848,-6.2817 6.9447,-6.0091z"/>
   <path id="_636140872" class="fil0" d="M45.7522 180.983c0,0 -1.3885,11.1414 -1.5391,15.1086 -0.1507,3.9673 1.9465,10.5551 1.766,12.9132 -0.1805,2.3582 -1.022,5.3544 1.6288,5.7103 2.6507,0.356 5.9803,0.8404 7.7823,0.2897 1.802,-0.5507 2.1056,-2.5168 1.081,-4.1256 -1.0246,-1.6087 -0.7892,-13.6801 -0.3921,-15.8686 0.3971,-2.1885 2.2187,-12.9907 2.2187,-12.9907l-12.5456 -1.0369z"/>
   <g style="clip-path:url(#id11)">
    <g>
     <path id="_4846384961" class="fil3 str8" d="M54.5681 213.87c0,0 0.4986,-0.4987 1.3747,-0.2528m-8.399 -0.9743c0,0 -0.8797,2.0972 1.1708,2.2203m5.1001 -1.9773c0,0 -0.8797,2.097 1.1709,2.2202m-3.312 -2.0777c0,0 -0.8797,2.0971 1.171,2.2203m-3.2243 -2.3579c0,0 -0.8796,2.0971 1.171,2.22m-4.2485 -1.7345c0,0 0.1753,-0.1756 0.4836,-0.0889m1.0553 0.5902c0,0 0.3164,-0.3166 0.8725,-0.1606m1.1574 0.3671c0,0 0.3165,-0.3167 0.8725,-0.1605m1.1484 0.0878c0,0 0.3164,-0.3166 0.8724,-0.1604"/>
    </g>
   </g>
   <path class="fil3 str12" d="M45.7522 180.983c0,0 -1.3885,11.1414 -1.5391,15.1086 -0.1507,3.9673 1.9465,10.5551 1.766,12.9132 -0.1805,2.3582 -1.022,5.3544 1.6288,5.7103 2.6507,0.356 5.9803,0.8404 7.7823,0.2897 1.802,-0.5507 2.1056,-2.5168 1.081,-4.1256 -1.0246,-1.6087 -0.7892,-13.6801 -0.3921,-15.8686 0.3971,-2.1885 2.2187,-12.9907 2.2187,-12.9907l-12.5456 -1.0369z"/>
   <path id="_636140800" class="fil18 str11" d="M57.2295 214.324c0.1372,-0.5011 0.2282,-1.004 0.2659,-1.4965 0.276,-3.6054 -2.3928,-5.277 -5.8211,-5.5394 -3.4284,-0.2625 -6.3203,0.9834 -6.5963,4.5888 -0.0377,0.4925 -0.0243,1.0034 0.035,1.5195 0.8218,-2.5702 3.3817,-3.4683 6.3418,-3.2417 2.9602,0.2266 5.3537,1.5039 5.7747,4.1693z"/>
   <path id="_636140728" class="fil0" d="M75.2054 180.915c0,0 1.4395,11.1349 1.6083,15.1014 0.1688,3.9666 -1.8982,10.5639 -1.7069,12.9212 0.1913,2.3573 1.0465,5.3496 -1.6026,5.7177 -2.6491,0.368 -5.9765,0.8677 -7.781,0.3253 -1.8045,-0.5425 -2.117,-2.5072 -1.0998,-4.1206 1.0172,-1.6134 0.7265,-13.6836 0.3194,-15.8703 -0.4071,-2.1867 -2.2781,-12.9804 -2.2781,-12.9804l12.5407 -1.0943z"/>
   <g style="clip-path:url(#id12)">
    <g>
     <path id="_4846280561" class="fil3 str8" d="M66.5458 213.845c0,0 -0.4986,-0.4987 -1.3748,-0.2527m8.399 -0.9744c0,0 0.8798,2.0972 -1.1708,2.2203m-5.1001 -1.9773c0,0 0.8797,2.0969 -1.1708,2.2202m3.3119 -2.0778c0,0 0.8799,2.0972 -1.1709,2.2205m3.2244 -2.358c0,0 0.8797,2.0971 -1.1712,2.2201m4.2485 -1.7347c0,0 -0.1753,-0.1755 -0.4835,-0.0888m-1.0553 0.5903c0,0 -0.3164,-0.3167 -0.8724,-0.1607m-1.1575 0.3671c0,0 -0.3164,-0.3167 -0.8724,-0.1606m-1.1485 0.088c0,0 -0.3162,-0.3168 -0.8724,-0.1604"/>
    </g>
   </g>
   <path class="fil3 str12" d="M75.2054 180.915c0,0 1.4395,11.1349 1.6083,15.1014 0.1688,3.9666 -1.8982,10.5639 -1.7069,12.9212 0.1913,2.3573 1.0465,5.3496 -1.6026,5.7177 -2.6491,0.368 -5.9765,0.8677 -7.781,0.3253 -1.8045,-0.5425 -2.117,-2.5072 -1.0998,-4.1206 1.0172,-1.6134 0.7265,-13.6836 0.3194,-15.8703 -0.4071,-2.1867 -2.2781,-12.9804 -2.2781,-12.9804l12.5407 -1.0943z"/>
   <path id="_636140656" class="fil18 str11" d="M63.8808 214.309c-0.1394,-0.5005 -0.2328,-1.003 -0.2727,-1.4953 -0.2925,-3.6041 2.3686,-5.2878 5.7957,-5.566 3.4271,-0.2781 6.3248,0.9545 6.6173,4.5586 0.0399,0.4923 0.0288,1.0033 -0.0281,1.5197 -0.8336,-2.5664 -3.3975,-3.4529 -6.3566,-3.2127 -2.9591,0.2401 -5.3468,1.5284 -5.7556,4.1957z"/>
  </g>
  <g id="_636140080">
   <path id="_636140560" class="fil23 str13" d="M44.7077 173.484c-6.4115,8.0868 -6.7223,24.0029 -5.442,26.0161 1.025,1.6121 10.9915,4.875 21.2486,4.875 10.2572,0 20.2237,-3.2629 21.2487,-4.875 1.2802,-2.0132 0.9694,-17.9293 -5.4421,-26.0161l-15.8066 0 -15.8066 0z"/>
   <g>
    <path id="_636140488" class="fil24" d="M51.355 179.066c0,0 -2.9895,4.9015 -3.8975,10.0942 -0.9078,5.1925 -0.0741,9.3545 -0.0741,9.3545 0,0 1.7285,-6.7072 3.9716,-19.4487z"/>
    <path id="_636140416" class="fil24" d="M57.6887 180.666c0,0 -2.2824,5.7098 -2.4872,11.073 -0.2045,5.3629 1.1614,9.1879 1.1614,9.1879 0,0 0.8088,-7.0962 1.3258,-20.2609z"/>
    <path id="_636140344" class="fil24" d="M63.3401 180.666c0,0 2.2823,5.71 2.487,11.073 0.2048,5.3629 -1.1613,9.1879 -1.1613,9.1879 0,0 -0.8089,-7.0965 -1.3257,-20.2609z"/>
    <path id="_636140272" class="fil24" d="M69.6738 179.066c0,0 2.9894,4.9015 3.8974,10.0941 0.908,5.1924 0.074,9.3546 0.074,9.3546 0,0 -1.7285,-6.7073 -3.9714,-19.4487z"/>
    <path id="_636140200" class="fil24" d="M74.8038 177.572c0,0 3.2771,4.4586 4.4995,9.5004 1.2225,5.042 0.6477,9.3036 0.6477,9.3036 0,0 -2.1323,-6.4342 -5.1472,-18.804z"/>
    <path id="_636140128" class="fil24" d="M46.2249 177.572c0,0 -3.277,4.4586 -4.4996,9.5004 -1.2224,5.042 -0.6475,9.3036 -0.6475,9.3036 0,0 2.1323,-6.4342 5.1471,-18.804z"/>
   </g>
  </g>
  <g id="_636139912">
   <path id="_636140008" class="fil16 str6" d="M47.511 150.112c-5.5487,3.2334 -2.826,12.8788 -2.905,15.7167 -0.0791,2.8378 -2.826,9.1206 3.1026,10.4245 8.4026,1.8479 17.2088,1.8479 25.6114,0 5.9286,-1.3039 3.1817,-7.5867 3.1027,-10.4245 -0.0791,-2.8379 2.6436,-12.4833 -2.905,-15.7167 -6.4833,-3.7781 -19.5235,-3.7781 -26.0067,0z"/>
   <path id="_636139936" class="fil18" d="M60.6971 153.872c0,0 -0.6794,0.6345 -0.6462,2.0442 0.0332,1.4097 -0.0263,3.5554 -0.0263,3.5554 0,0 -1.9089,-4.4104 0.6725,-5.5996zm-0.3656 6.8611c0,0 0.6794,-0.6345 0.6462,-2.0442 -0.0332,-1.4097 0.0263,-3.5554 0.0263,-3.5554 0,0 1.9089,4.4104 -0.6725,5.5996zm-13.1479 7.5418c0,0 -0.4921,-0.7887 -0.0952,-2.1418 0.397,-1.353 0.8949,-3.441 0.8949,-3.441 0,0 -2.9854,3.766 -0.7997,5.5828zm9.0723 0c0,0 -0.4921,-0.7887 -0.0952,-2.1418 0.3969,-1.3531 0.8948,-3.4411 0.8948,-3.4411 0,0 -2.9853,3.7661 -0.7996,5.5829zm-5.4263 -9.4801c0,0 -0.4921,-0.7886 -0.0952,-2.1417 0.3969,-1.3531 0.8948,-3.4411 0.8948,-3.4411 0,0 -2.9853,3.766 -0.7996,5.5828zm3.1885 4.5575c0,0 -0.4921,-0.7887 -0.0952,-2.1418 0.3969,-1.3531 0.8948,-3.4411 0.8948,-3.4411 0,0 -2.9853,3.7661 -0.7996,5.5829zm-3.0406 9.2828c0,0 -0.4921,-0.7887 -0.0951,-2.1418 0.3969,-1.3531 0.8948,-3.4411 0.8948,-3.4411 0,0 -2.9853,3.7661 -0.7997,5.5829zm22.8675 -4.3602c0,0 0.4921,-0.7887 0.0952,-2.1418 -0.397,-1.353 -0.8949,-3.441 -0.8949,-3.441 0,0 2.9854,3.766 0.7997,5.5828zm-9.0723 0c0,0 0.4921,-0.7887 0.0951,-2.1418 -0.3969,-1.3531 -0.8948,-3.4411 -0.8948,-3.4411 0,0 2.9853,3.7661 0.7997,5.5829zm5.4263 -9.4801c0,0 0.4921,-0.7886 0.0952,-2.1417 -0.3969,-1.3531 -0.8948,-3.4411 -0.8948,-3.4411 0,0 2.9853,3.766 0.7996,5.5828zm-3.1885 4.5575c0,0 0.4921,-0.7887 0.0952,-2.1418 -0.397,-1.3531 -0.8949,-3.4411 -0.8949,-3.4411 0,0 2.9854,3.7661 0.7997,5.5829zm3.0406 9.2828c0,0 0.4921,-0.7887 0.0951,-2.1418 -0.3969,-1.3531 -0.8948,-3.4411 -0.8948,-3.4411 0,0 2.9853,3.7661 0.7997,5.5829zm-11.4085 -3.5011c0,0 -0.8205,0.437 -1.1532,1.8073 -0.3328,1.3702 -0.9456,3.4274 -0.9456,3.4274 0,0 -0.7024,-4.7541 2.0988,-5.2347zm3.7434 0c0,0 0.8205,0.437 1.1533,1.8073 0.3327,1.3702 0.9455,3.4274 0.9455,3.4274 0,0 0.7024,-4.7541 -2.0988,-5.2347zm-5.8724 6.5327c0,0 0.8206,-0.437 1.1533,-1.8073 0.3328,-1.3703 0.9456,-3.4275 0.9456,-3.4275 0,0 0.7024,4.7542 -2.0989,5.2348zm8.0014 0c0,0 -0.8205,-0.437 -1.1533,-1.8073 -0.3328,-1.3703 -0.9456,-3.4275 -0.9456,-3.4275 0,0 -0.7023,4.7542 2.0989,5.2348zm4.1135 -9.7536c0,0 -0.4921,0.7888 -0.0951,2.1418 0.3969,1.3531 0.8948,3.4411 0.8948,3.4411 0,0 -2.9854,-3.7661 -0.7997,-5.5829zm-3.0406 -9.2828c0,0 -0.492,0.7887 -0.0951,2.1418 0.3969,1.3531 0.8948,3.4411 0.8948,3.4411 0,0 -2.9853,-3.7661 -0.7997,-5.5829zm3.1886 -4.5574c0,0 -0.4921,0.7887 -0.0952,2.1418 0.397,1.3531 0.8948,3.4411 0.8948,3.4411 0,0 -2.9853,-3.7661 -0.7996,-5.5829zm-5.4264 9.4801c0,0 -0.492,0.7886 -0.0951,2.1417 0.3969,1.3531 0.8948,3.4411 0.8948,3.4411 0,0 -2.9853,-3.7661 -0.7997,-5.5828zm9.0723 0c0,0 -0.492,0.7887 -0.0951,2.1417 0.3969,1.3531 0.8948,3.4411 0.8948,3.4411 0,0 -2.9853,-3.7661 -0.7997,-5.5828zm-20.0223 4.3601c0,0 0.4921,0.7888 0.0951,2.1418 -0.3969,1.3531 -0.8948,3.4411 -0.8948,3.4411 0,0 2.9853,-3.7661 0.7997,-5.5829zm3.0405 -9.2828c0,0 0.4921,0.7887 0.0952,2.1418 -0.397,1.3531 -0.8948,3.4411 -0.8948,3.4411 0,0 2.9853,-3.7661 0.7996,-5.5829zm-3.1885 -4.5574c0,0 0.4921,0.7887 0.0952,2.1418 -0.397,1.3531 -0.8949,3.4411 -0.8949,3.4411 0,0 2.9854,-3.7661 0.7997,-5.5829zm5.4263 9.4801c0,0 0.4921,0.7886 0.0952,2.1417 -0.397,1.3531 -0.8948,3.4411 -0.8948,3.4411 0,0 2.9853,-3.7661 0.7996,-5.5828zm-9.0723 0c0,0 0.4921,0.7887 0.0952,2.1417 -0.397,1.3531 -0.8948,3.4411 -0.8948,3.4411 0,0 2.9853,-3.7661 0.7996,-5.5828z"/>
  </g>
  <path class="fil21 str10" d="M118.644 101.124c12.0503,0 21.8227,6.3272 21.8227,14.1292 0,7.8021 -9.7724,14.1293 -21.8227,14.1293 -5.935,0 -11.3167,-1.5354 -15.2508,-4.0254l-8.0449 4.01 4.0251 -7.4806c-1.628,-1.9781 -2.552,-4.2358 -2.552,-6.6333 0,-7.802 9.7724,-14.1292 21.8226,-14.1292z"/>
  <path class="fil22" d="M108.475 113.142c0,0.2498 -0.1746,0.3948 -0.5239,0.435 -0.3492,0.0402 -0.5683,0.0688 -0.6572,0.0857l0.0381 2.9972c0,0.2244 -0.0148,0.3926 -0.0444,0.5048 -0.0297,0.1122 -0.0932,0.1683 -0.1905,0.1683 -0.1143,0 -0.2043,-0.0826 -0.2699,-0.2477 -0.0656,-0.1651 -0.0984,-0.381 -0.0984,-0.6477 -0.0043,-0.1735 -0.0085,-0.437 -0.0127,-0.7905 -0.0043,-0.3535 -0.0096,-0.7345 -0.0159,-1.143 -0.0064,-0.4085 -0.0095,-0.6657 -0.0095,-0.7716 -0.072,-0.0169 -0.1609,-0.0254 -0.2667,-0.0254 -0.1101,0 -0.2181,0.0075 -0.3239,0.0223 -0.1058,0.0148 -0.199,0.0264 -0.2794,0.0349 -0.0974,0 -0.1715,-0.0148 -0.2223,-0.0445 -0.0719,-0.0423 -0.1079,-0.1164 -0.1079,-0.2222 0,-0.1609 0.1206,-0.2688 0.362,-0.3239 0.1651,-0.0381 0.4402,-0.0571 0.8255,-0.0571l0.3556 0c0.0592,-0.0085 0.273,-0.0423 0.6413,-0.1016 0.2625,-0.0423 0.4212,-0.0635 0.4763,-0.0635 0.0846,0 0.1598,0.0148 0.2254,0.0444 0.0656,0.0297 0.0984,0.0784 0.0984,0.1461zm2.5909 2.1272c0,0.5588 -0.1355,1.0393 -0.4064,1.4415 -0.2837,0.4191 -0.635,0.6286 -1.0541,0.6286 -0.398,0 -0.7197,-0.1418 -0.9652,-0.4254 -0.3048,-0.3514 -0.4572,-0.889 -0.4572,-1.6129 0,-0.5038 0.091,-1.0255 0.273,-1.5653 0.182,-0.5397 0.3683,-0.8096 0.5588,-0.8096 0.1651,0 0.2477,0.1037 0.2477,0.3111 0,0.1143 -0.0889,0.4361 -0.2667,0.9652 -0.1778,0.5292 -0.2667,0.8996 -0.2667,1.1113 0,0.5334 0.0889,0.9144 0.2667,1.143 0.1439,0.1863 0.3513,0.2794 0.6223,0.2794 0.2836,0 0.5016,-0.1588 0.654,-0.4763 0.1355,-0.2794 0.2032,-0.6392 0.2032,-1.0795 0,-0.127 -0.0307,-0.4243 -0.0921,-0.8921 -0.0614,-0.4678 -0.092,-0.744 -0.092,-0.8287 0,-0.326 0.091,-0.5017 0.273,-0.5271 0.1524,-0.0169 0.2773,0.2286 0.3747,0.7366 0.0846,0.4488 0.127,0.9822 0.127,1.6002zm-0.508 -2.9083c0,0.0932 -0.0995,0.2011 -0.2985,0.3239 -0.0635,0.0381 -0.163,0.0889 -0.2984,0.1524l-0.5144 0c0.1651,-0.1778 0.29,-0.3112 0.3747,-0.4001 0.2624,-0.2667 0.4275,-0.4 0.4953,-0.4 0.1058,0 0.1756,0.0296 0.2095,0.0889 0.0212,0.0381 0.0318,0.1164 0.0318,0.2349zm6.1722 4.4958c0,0.0889 -0.0593,0.162 -0.1778,0.2191 -0.1186,0.0572 -0.2794,0.0857 -0.4826,0.0857 -0.5292,0 -0.9843,-0.1566 -1.3653,-0.4699 -0.4318,-0.3556 -0.6477,-0.8382 -0.6477,-1.4478 0,-0.5037 0.2286,-1.016 0.6858,-1.5367 0.436,-0.4953 0.834,-0.7429 1.1938,-0.7429 0.0889,0 0.1545,0.0212 0.1969,0.0635 0.0423,0.0423 0.0635,0.0889 0.0635,0.1397 -0.4107,0.3133 -0.7705,0.6392 -1.0795,0.9779 -0.3387,0.3725 -0.508,0.7853 -0.508,1.2382 0,0.381 0.182,0.6668 0.5461,0.8573 0.1693,0.0889 0.5101,0.1926 1.0223,0.3111 0.3683,0.0847 0.5525,0.1863 0.5525,0.3048zm2.3749 0.127c0,0.1651 -0.0159,0.2921 -0.0477,0.381 -0.0317,0.0889 -0.0899,0.1334 -0.1746,0.1334 -0.1185,0 -0.2265,-0.1799 -0.3238,-0.5398 -0.0551,-0.2328 -0.108,-0.4677 -0.1588,-0.7048l-1.0795 0c-0.0593,0.2286 -0.1185,0.4572 -0.1778,0.6858 -0.0804,0.2752 -0.1968,0.4127 -0.3492,0.4127 -0.0889,0 -0.1419,-0.0127 -0.1588,-0.0381 -0.0339,-0.0508 -0.0508,-0.1375 -0.0508,-0.2603 0,-0.1016 0.0074,-0.217 0.0222,-0.3461 0.0148,-0.1291 0.0519,-0.3058 0.1112,-0.5302 0.0592,-0.2244 0.1185,-0.4456 0.1778,-0.6636 0.0592,-0.218 0.1735,-0.6276 0.3429,-1.2287 0.127,-0.4487 0.201,-0.6858 0.2222,-0.7112 0.1185,-0.4149 0.2942,-0.6223 0.5271,-0.6223 0.1143,0 0.2307,0.091 0.3492,0.273 0.1185,0.1821 0.2032,0.4128 0.254,0.6922 0.0169,0.0296 0.0582,0.2191 0.1238,0.5683 0.0656,0.3493 0.126,0.6763 0.181,0.9811 0.0296,0.1736 0.0593,0.3429 0.0889,0.508 0.0296,0.1651 0.0572,0.3556 0.0826,0.5715 0.0254,0.2159 0.0381,0.3619 0.0381,0.4381zm-0.7811 -1.2763l-0.3302 -2.0511 -0.5651 2.0511 0.8953 0zm3.8735 -1.4542l0 1.7018 0 0.2731c0,0.5715 -0.0265,0.9588 -0.0794,1.162 -0.0529,0.2033 -0.1301,0.3049 -0.2317,0.3049 -0.2075,0 -0.4107,-0.18 -0.6096,-0.5398 -0.1016,-0.1863 -0.2742,-0.5937 -0.5176,-1.2224 -0.2434,-0.6286 -0.4498,-1.089 -0.6191,-1.3811 0,0.1355 0.0042,0.4138 0.0127,0.835 0.0085,0.4212 0.0127,0.6678 0.0127,0.7398 0,0.4106 -0.0169,0.726 -0.0508,0.9461 -0.0339,0.2202 -0.0995,0.3302 -0.1968,0.3302 -0.1397,0 -0.2403,-0.1174 -0.3017,-0.3524 -0.0614,-0.2349 -0.092,-0.5577 -0.092,-0.9684l0 -1.7907c0,-0.3937 0.0201,-0.6953 0.0603,-0.9048 0.0402,-0.2096 0.1196,-0.3144 0.2381,-0.3144 0.1439,0 0.3408,0.2392 0.5906,0.7176 0.1651,0.3175 0.3862,0.8075 0.6635,1.47 0.2773,0.6625 0.4562,1.0763 0.5366,1.2414l-0.0444 -2.1145c0,-0.4995 0.0232,-0.8869 0.0698,-1.1621 0.0466,-0.2751 0.1291,-0.4127 0.2477,-0.4127 0.1164,0 0.1968,0.1249 0.2423,0.3746 0.0455,0.2498 0.0688,0.6054 0.0688,1.0668zm3.029 -1.1112c0,0.2498 -0.1746,0.3948 -0.5239,0.435 -0.3492,0.0402 -0.5683,0.0688 -0.6572,0.0857l0.0381 2.9972c0,0.2244 -0.0148,0.3926 -0.0444,0.5048 -0.0297,0.1122 -0.0932,0.1683 -0.1905,0.1683 -0.1143,0 -0.2043,-0.0826 -0.2699,-0.2477 -0.0656,-0.1651 -0.0984,-0.381 -0.0984,-0.6477 -0.0043,-0.1735 -0.0085,-0.437 -0.0127,-0.7905 -0.0043,-0.3535 -0.0096,-0.7345 -0.0159,-1.143 -0.0064,-0.4085 -0.0095,-0.6657 -0.0095,-0.7716 -0.072,-0.0169 -0.1609,-0.0254 -0.2667,-0.0254 -0.1101,0 -0.2181,0.0075 -0.3239,0.0223 -0.1058,0.0148 -0.199,0.0264 -0.2794,0.0349 -0.0974,0 -0.1715,-0.0148 -0.2223,-0.0445 -0.0719,-0.0423 -0.1079,-0.1164 -0.1079,-0.2222 0,-0.1609 0.1206,-0.2688 0.362,-0.3239 0.1651,-0.0381 0.4402,-0.0571 0.8255,-0.0571l0.3556 0c0.0592,-0.0085 0.273,-0.0423 0.6413,-0.1016 0.2625,-0.0423 0.4212,-0.0635 0.4763,-0.0635 0.0846,0 0.1598,0.0148 0.2254,0.0444 0.0656,0.0297 0.0984,0.0784 0.0984,0.1461zm1.9749 3.8417c0,0.1651 -0.0159,0.2921 -0.0477,0.381 -0.0317,0.0889 -0.0899,0.1334 -0.1746,0.1334 -0.1185,0 -0.2265,-0.1799 -0.3238,-0.5398 -0.0551,-0.2328 -0.108,-0.4677 -0.1588,-0.7048l-1.0795 0c-0.0593,0.2286 -0.1185,0.4572 -0.1778,0.6858 -0.0804,0.2752 -0.1968,0.4127 -0.3492,0.4127 -0.0889,0 -0.1419,-0.0127 -0.1588,-0.0381 -0.0339,-0.0508 -0.0508,-0.1375 -0.0508,-0.2603 0,-0.1016 0.0074,-0.217 0.0222,-0.3461 0.0148,-0.1291 0.0519,-0.3058 0.1112,-0.5302 0.0592,-0.2244 0.1185,-0.4456 0.1778,-0.6636 0.0592,-0.218 0.1735,-0.6276 0.3429,-1.2287 0.127,-0.4487 0.201,-0.6858 0.2222,-0.7112 0.1185,-0.4149 0.2942,-0.6223 0.5271,-0.6223 0.1143,0 0.2307,0.091 0.3492,0.273 0.1185,0.1821 0.2032,0.4128 0.254,0.6922 0.0169,0.0296 0.0582,0.2191 0.1238,0.5683 0.0656,0.3493 0.126,0.6763 0.181,0.9811 0.0296,0.1736 0.0593,0.3429 0.0889,0.508 0.0296,0.1651 0.0572,0.3556 0.0826,0.5715 0.0254,0.2159 0.0381,0.3619 0.0381,0.4381zm-0.7811 -1.2763l-0.3302 -2.0511 -0.5651 2.0511 0.8953 0zm3.7592 0.4445c0,0.3514 -0.1418,0.6361 -0.4254,0.8541 -0.2837,0.218 -0.6329,0.327 -1.0478,0.327 -0.2286,0 -0.4635,-0.0614 -0.7048,-0.1842 -0.2413,-0.1227 -0.362,-0.2561 -0.362,-0.4 0,-0.0593 0.0286,-0.1154 0.0857,-0.1683 0.0572,-0.0529 0.1217,-0.0794 0.1937,-0.0794 0.0254,0 0.1503,0.0519 0.3747,0.1556 0.2243,0.1037 0.3725,0.1556 0.4445,0.1556 0.2286,0 0.4222,-0.055 0.581,-0.1651 0.1587,-0.1101 0.2381,-0.2625 0.2381,-0.4572 0,-0.2032 -0.1799,-0.3916 -0.5397,-0.5652 -0.3387,-0.1566 -0.6774,-0.3132 -1.016,-0.4699 -0.3641,-0.2116 -0.5461,-0.4572 -0.5461,-0.7366 0,-0.2963 0.1608,-0.5831 0.4826,-0.8604 0.3217,-0.2773 0.6752,-0.4159 1.0604,-0.4159 0.2709,0 0.4445,0.0042 0.5207,0.0127 0.2413,0.0254 0.362,0.1291 0.362,0.3111 0,0.1313 -0.2943,0.2202 -0.8827,0.2667 -0.5884,0.0466 -0.8826,0.2646 -0.8826,0.6541 0,0.2074 0.1778,0.3725 0.5334,0.4953 0.6011,0.2032 0.9313,0.3217 0.9906,0.3556 0.3598,0.2032 0.5397,0.508 0.5397,0.9144z"/>
  <path class="fil0 str0" d="M54.0024 143.567l13.0238 0 0 5.6497c0,1.639 -2.9159,2.9683 -6.5118,2.9683 -3.5957,0 -6.512,-1.3293 -6.512,-2.9683l0 -5.6497z"/>
  <g id="_636138520">
   <path id="_636139624" class="fil0 str0" d="M33.0197 125.833c0.7706,-0.4449 2.1171,0.4441 3.0069,1.9853 0.8898,1.5412 0.9865,3.1518 0.2159,3.5967 -0.7706,0.4449 -2.1171,-0.4441 -3.0069,-1.9853 -0.8898,-1.5412 -0.9865,-3.1518 -0.2159,-3.5967zm54.989 0c-0.7706,-0.4449 -2.1171,0.4441 -3.0069,1.9853 -0.8898,1.5412 -0.9865,3.1518 -0.2159,3.5967 0.7706,0.4449 2.1171,-0.4441 3.0069,-1.9853 0.8898,-1.5412 0.9865,-3.1518 0.2159,-3.5967z"/>
   <path id="_636139552" class="fil0 str0" d="M60.5143 96.8066c27.5756,0 25.331,17.4867 25.331,31.4742 0,13.9875 -11.3435,19.1879 -25.331,19.1879 -13.9875,0 -25.3311,-5.2004 -25.3311,-19.1879 0,-13.9875 -2.2446,-31.4742 25.3311,-31.4742z"/>
   <path id="_636139480" class="fil3 str0" d="M58.4351 130.79c0,0 2.0466,1.2541 4.1584,0"/>
   <path id="_636139408" class="fil10 str4" d="M53.1644 109.091c-0.5102,0.5597 -0.6686,2.7948 -5.7382,2.9452 -5.0695,0.1503 -5.9434,1.0812 -8.0474,6.4185 -2.104,5.3372 -3.4785,15.9207 -3.4785,15.9207 0,0 -1.4946,-6.8381 -3.1204,-11.3326 -1.6258,-4.4945 -1.7214,-16.4798 8.416,-22.5661 8.947,-5.3718 17.4457,-5.3461 19.3184,-5.2658 1.8727,-0.0803 10.3714,-0.106 19.3184,5.2658 10.1374,6.0863 10.0418,18.0716 8.416,22.5661 -1.6258,4.4945 -3.1204,11.3326 -3.1204,11.3326 0,0 -1.3745,-10.5835 -3.4785,-15.9207 -2.104,-5.3373 -17.6778,-6.2682 -22.7473,-6.4185 -5.0695,-0.1504 -5.2279,-2.3855 -5.7381,-2.9452z"/>
   <path id="_636139336" class="fil25" d="M34.6302 108.275c0,0 5.5945,3.1032 3.4251,4.999 -2.1694,1.8957 -3.4251,-4.999 -3.4251,-4.999z"/>
   <ellipse id="_636139264" class="fil21 str4" transform="matrix(-0.477224 0.477224 0.477224 0.477224 37.2291 112.155)" rx="1.04" ry="0.3536"/>
   <path id="_636139192" class="fil12" d="M77.5055 102.603c0,0 4.0228,3.1794 3.999,7.2473 0,0 -1.7372,-3.6451 -3.999,-7.2473z"/>
   <path id="_636139120" class="fil12" d="M70.3319 100.286c0,0 4.0229,3.1794 3.999,7.2474 0,0 -1.7371,-3.6452 -3.999,-7.2474z"/>
   <path id="_636139048" class="fil12" d="M62.929 98.246c0,0 4.0228,3.1794 3.999,7.2474 0,0 -1.7372,-3.6452 -3.999,-7.2474z"/>
   <path id="_636138976" class="fil12" d="M45.3677 100.286c0,0 -4.0229,3.1794 -3.999,7.2474 0,0 1.7371,-3.6452 3.999,-7.2474z"/>
   <path id="_636138904" class="fil26 str14" d="M65.2965 138.26c0,2.6406 -2.1416,4.7822 -4.7822,4.7822 -2.6406,0 -4.7822,-2.1416 -4.7822,-4.7822l9.5644 0z"/>
   <path id="_636138832" class="fil27" d="M43.7101 132.402c1.687,0 3.0552,1.368 3.0552,3.0552 0,1.6872 -1.3682,3.0552 -3.0552,3.0552 -1.6872,0 -3.0554,-1.368 -3.0554,-3.0552 0,-1.6872 1.3682,-3.0552 3.0554,-3.0552zm33.6084 0c1.6871,0 3.0553,1.3682 3.0553,3.0552 0,1.6873 -1.3682,3.0553 -3.0553,3.0553 -1.6871,0 -3.0553,-1.368 -3.0553,-3.0553 0,-1.687 1.3682,-3.0552 3.0553,-3.0552z"/>
   <path id="_636138760" class="fil21" d="M46.5422 122.377c1.6523,0.4427 2.7683,1.6395 2.4915,2.6723 -0.2767,1.0329 -1.8416,1.5113 -3.4939,1.0686 -1.6523,-0.4427 -2.7683,-1.6395 -2.4915,-2.6723 0.2768,-1.0329 1.8416,-1.5113 3.4939,-1.0686z"/>
   <g style="clip-path:url(#id13)">
    <g>
     <circle id="_590416640" class="fil10" cx="46.0409" cy="124.248" r="1.99056"/>
    </g>
   </g>
   <path class="fil3 str4" d="M46.5422 122.377c1.6523,0.4427 2.7683,1.6395 2.4915,2.6723 -0.2767,1.0329 -1.8416,1.5113 -3.4939,1.0686 -1.6523,-0.4427 -2.7683,-1.6395 -2.4915,-2.6723 0.2768,-1.0329 1.8416,-1.5113 3.4939,-1.0686z"/>
   <path id="_636138688" class="fil10" d="M42.0344 120.972c0,0 4.3353,-0.7039 8.6706,0.3986 0,0 -3.4882,-4.6841 -8.6706,-0.3986z"/>
   <path id="_636138616" class="fil21" d="M74.6016 122.377c-1.6523,0.4427 -2.7682,1.6395 -2.4915,2.6723 0.2768,1.0329 1.8416,1.5113 3.4939,1.0686 1.6523,-0.4427 2.7683,-1.6395 2.4915,-2.6723 -0.2767,-1.0329 -1.8415,-1.5113 -3.4939,-1.0686z"/>
   <g style="clip-path:url(#id14)">
    <g>
     <circle id="_590421320" class="fil10" cx="75.1029" cy="124.248" r="1.99056"/>
    </g>
   </g>
   <path class="fil3 str4" d="M74.6016 122.377c-1.6523,0.4427 -2.7682,1.6395 -2.4915,2.6723 0.2768,1.0329 1.8416,1.5113 3.4939,1.0686 1.6523,-0.4427 2.7683,-1.6395 2.4915,-2.6723 -0.2767,-1.0329 -1.8415,-1.5113 -3.4939,-1.0686z"/>
   <path id="_636138544" class="fil10" d="M79.1095 120.972c0,0 -4.3353,-0.7039 -8.6707,0.3986 0,0 3.4882,-4.6841 8.6707,-0.3986z"/>
  </g>
  <g id="_636138352">
   <path id="_636138448" class="fil13 str5" d="M300.189 150.08c-5.6267,3.2789 -2.8657,13.0599 -2.9459,15.9377 -0.0801,2.8777 -2.8657,9.2489 3.1463,10.5711 8.5207,1.8739 17.4508,1.8739 25.9716,0 6.0119,-1.3222 3.2264,-7.6934 3.1462,-10.5711 -0.0801,-2.8778 2.6809,-12.6588 -2.9458,-15.9377 -6.5744,-3.8312 -19.798,-3.8312 -26.3724,0z"/>
   <path id="_636138376" class="fil15" d="M313.561 153.892c0,0 -0.689,0.6434 -0.6553,2.0729 0.0336,1.4295 -0.0267,3.6054 -0.0267,3.6054 0,0 -1.9357,-4.4724 0.682,-5.6783zm-0.3709 6.9575c0,0 0.6891,-0.6434 0.6554,-2.0729 -0.0337,-1.4295 0.0266,-3.6054 0.0266,-3.6054 0,0 1.9357,4.4724 -0.682,5.6783zm-13.3327 7.6479c0,0 -0.499,-0.7998 -0.0965,-2.1719 0.4025,-1.3721 0.9074,-3.4894 0.9074,-3.4894 0,0 -3.0273,3.819 -0.8109,5.6613zm9.1999 0c0,0 -0.4991,-0.7998 -0.0965,-2.1719 0.4025,-1.3721 0.9074,-3.4895 0.9074,-3.4895 0,0 -3.0273,3.819 -0.8109,5.6614zm-5.5027 -9.6134c0,0 -0.499,-0.7997 -0.0965,-2.1719 0.4025,-1.3721 0.9074,-3.4894 0.9074,-3.4894 0,0 -3.0273,3.819 -0.8109,5.6613zm3.2334 4.6216c0,0 -0.499,-0.7998 -0.0965,-2.1719 0.4025,-1.3721 0.9074,-3.4895 0.9074,-3.4895 0,0 -3.0273,3.819 -0.8109,5.6614zm-3.0833 9.4133c0,0 -0.4991,-0.7998 -0.0965,-2.1719 0.4025,-1.3721 0.9074,-3.4895 0.9074,-3.4895 0,0 -3.0273,3.819 -0.8109,5.6614zm23.189 -4.4215c0,0 0.499,-0.7998 0.0965,-2.1719 -0.4025,-1.3721 -0.9074,-3.4894 -0.9074,-3.4894 0,0 3.0273,3.819 0.8109,5.6613zm-9.1999 0c0,0 0.499,-0.7998 0.0965,-2.1719 -0.4025,-1.3721 -0.9074,-3.4895 -0.9074,-3.4895 0,0 3.0273,3.819 0.8109,5.6614zm5.5027 -9.6134c0,0 0.499,-0.7997 0.0964,-2.1719 -0.4024,-1.3721 -0.9073,-3.4894 -0.9073,-3.4894 0,0 3.0272,3.819 0.8109,5.6613zm-3.2334 4.6216c0,0 0.499,-0.7998 0.0965,-2.1719 -0.4025,-1.3721 -0.9074,-3.4895 -0.9074,-3.4895 0,0 3.0273,3.819 0.8109,5.6614zm3.0833 9.4133c0,0 0.499,-0.7998 0.0965,-2.1719 -0.4025,-1.3721 -0.9074,-3.4895 -0.9074,-3.4895 0,0 3.0273,3.819 0.8109,5.6614zm-11.5688 -3.5503c0,0 -0.8321,0.4431 -1.1695,1.8327 -0.3375,1.3895 -0.9589,3.4756 -0.9589,3.4756 0,0 -0.7123,-4.821 2.1284,-5.3083zm3.7959 0c0,0 0.8321,0.4431 1.1696,1.8327 0.3374,1.3895 0.9588,3.4756 0.9588,3.4756 0,0 0.7122,-4.821 -2.1284,-5.3083zm-5.9549 6.6245c0,0 0.8321,-0.4431 1.1695,-1.8326 0.3375,-1.3896 0.9589,-3.4757 0.9589,-3.4757 0,0 0.7123,4.821 -2.1284,5.3083zm8.1139 0c0,0 -0.8321,-0.4431 -1.1695,-1.8326 -0.3375,-1.3896 -0.9589,-3.4757 -0.9589,-3.4757 0,0 -0.7122,4.821 2.1284,5.3083zm4.1713 -9.8907c0,0 -0.4989,0.7998 -0.0964,2.1719 0.4025,1.3722 0.9074,3.4895 0.9074,3.4895 0,0 -3.0273,-3.819 -0.811,-5.6614zm-3.0833 -9.4133c0,0 -0.499,0.7998 -0.0964,2.1719 0.4025,1.3721 0.9074,3.4895 0.9074,3.4895 0,0 -3.0274,-3.8191 -0.811,-5.6614zm3.2334 -4.6215c0,0 -0.499,0.7997 -0.0965,2.1719 0.4025,1.3721 0.9074,3.4894 0.9074,3.4894 0,0 -3.0273,-3.819 -0.8109,-5.6613zm-5.5026 9.6133c0,0 -0.499,0.7998 -0.0965,2.1719 0.4025,1.3721 0.9074,3.4895 0.9074,3.4895 0,0 -3.0273,-3.819 -0.8109,-5.6614zm9.1998 0c0,0 -0.499,0.7998 -0.0965,2.1719 0.4026,1.3721 0.9074,3.4895 0.9074,3.4895 0,0 -3.0273,-3.819 -0.8109,-5.6614zm-20.3039 4.4215c0,0 0.499,0.7998 0.0965,2.1719 -0.4025,1.3722 -0.9074,3.4895 -0.9074,3.4895 0,0 3.0273,-3.819 0.8109,-5.6614zm3.0834 -9.4133c0,0 0.4989,0.7998 0.0964,2.1719 -0.4025,1.3721 -0.9074,3.4895 -0.9074,3.4895 0,0 3.0273,-3.8191 0.811,-5.6614zm-3.2334 -4.6215c0,0 0.499,0.7997 0.0965,2.1719 -0.4026,1.3721 -0.9074,3.4894 -0.9074,3.4894 0,0 3.0273,-3.819 0.8109,-5.6613zm5.5026 9.6133c0,0 0.499,0.7998 0.0965,2.1719 -0.4025,1.3721 -0.9074,3.4895 -0.9074,3.4895 0,0 3.0273,-3.819 0.8109,-5.6614zm-9.1999 0c0,0 0.499,0.7998 0.0965,2.1719 -0.4025,1.3721 -0.9074,3.4895 -0.9074,3.4895 0,0 3.0273,-3.819 0.8109,-5.6614z"/>
  </g>
  <path class="fil0 str0" d="M306.772 143.443l13.207 0 0 5.7291c0,1.662 -2.957,3.01 -6.6034,3.01 -3.6463,0 -6.6036,-1.348 -6.6036,-3.01l0 -5.7291z"/>
  <g id="_636137248">
   <path id="_636138208" class="fil0 str0" d="M285.494 125.459c0.7814,-0.4512 2.1468,0.4503 3.0492,2.0132 0.9023,1.5629 1.0003,3.1961 0.2189,3.6473 -0.7814,0.4512 -2.1469,-0.4504 -3.0492,-2.0132 -0.9023,-1.5629 -1.0004,-3.1962 -0.2189,-3.6473zm55.7622 0c-0.7815,-0.4512 -2.1469,0.4503 -3.0492,2.0132 -0.9023,1.5629 -1.0004,3.1961 -0.2189,3.6473 0.7814,0.4512 2.1468,-0.4504 3.0492,-2.0132 0.9023,-1.5629 1.0003,-3.1962 0.2189,-3.6473z"/>
   <path id="_636138136" class="fil0 str0" d="M313.375 96.0245c27.9634,0 25.6873,17.7326 25.6873,31.9168 0,14.1842 -11.5031,19.4577 -25.6873,19.4577 -14.1842,0 -25.6872,-5.2735 -25.6872,-19.4577 0,-14.1842 -2.2762,-31.9168 25.6872,-31.9168z"/>
   <path id="_636138064" class="fil3 str0" d="M311.267 129.788c0,0 2.0754,1.6113 4.2169,0"/>
   <path id="_636137992" class="fil10 str4" d="M313.376 110.943c-0.5174,0.5677 -0.6781,2.8344 -5.8189,2.9867 -0.9637,0.0285 1.2038,-3.075 0.0773,-3.0246 -4.8828,0.2183 -13.9577,4.1199 -15.6911,8.5172 -2.1334,5.4121 -3.5274,14.6994 -3.5274,14.6994 0,0 -1.5156,-6.9342 -3.1643,-11.4919 -1.6487,-4.5577 -1.7456,-16.7116 8.5343,-22.8835 9.0728,-5.4473 17.691,-5.4212 19.5901,-5.3398 1.899,-0.0814 10.5172,-0.1075 19.59,5.3398 10.28,6.1719 10.183,18.3258 8.5343,22.8835 -1.6487,4.5577 -3.1643,11.4919 -3.1643,11.4919 0,0 -1.3938,-9.2873 -3.5273,-14.6994 -1.6668,-4.2283 -10.8466,-8.7142 -15.6045,-8.9699 -1.3321,-0.0715 1.115,3.5105 -0.0094,3.4773 -5.1406,-0.1523 -5.3015,-2.419 -5.8188,-2.9867z"/>
   <path id="_636137920" class="fil27" d="M296.335 132.12c1.7108,0 3.0983,1.3873 3.0983,3.0983 0,1.7108 -1.3875,3.0981 -3.0983,3.0981 -1.7108,0 -3.0983,-1.3873 -3.0983,-3.0981 0,-1.711 1.3875,-3.0983 3.0983,-3.0983zm34.0811 0c1.7107,0 3.0982,1.3875 3.0982,3.0983 0,1.7109 -1.3875,3.0982 -3.0982,3.0982 -1.7109,0 -3.0983,-1.3873 -3.0983,-3.0982 0,-1.7108 1.3874,-3.0983 3.0983,-3.0983z"/>
   <path id="_636137848" class="fil12" d="M330.024 101.903c0,0 4.0794,3.2241 4.0553,7.3493 0,0 -1.7616,-3.6964 -4.0553,-7.3493z"/>
   <path id="_636137776" class="fil12" d="M322.75 99.5531c0,0 4.0794,3.2241 4.0553,7.3493 0,0 -1.7616,-3.6964 -4.0553,-7.3493z"/>
   <path id="_636137704" class="fil12" d="M296.726 101.903c0,0 -4.0794,3.2241 -4.0553,7.3493 0,0 1.7616,-3.6964 4.0553,-7.3493z"/>
   <path id="_636137632" class="fil12" d="M304.001 99.5531c0,0 -4.0794,3.2241 -4.0552,7.3493 0,0 1.7615,-3.6964 4.0552,-7.3493z"/>
   <path id="_636137560" class="fil26 str14" d="M317.156 137.715c0,2.0877 -1.6932,3.7809 -3.7809,3.7809 -2.0877,0 -3.7809,-1.6932 -3.7809,-3.7809l7.5618 0z"/>
   <path id="_636137488" class="fil21" d="M300.257 121.997c1.6386,0.5694 2.6792,1.8618 2.3233,2.8861 -0.3559,1.0243 -1.9737,1.393 -3.6123,0.8237 -1.6385,-0.5694 -2.6792,-1.8618 -2.3233,-2.8861 0.3559,-1.0243 1.9738,-1.393 3.6123,-0.8237z"/>
   <g style="clip-path:url(#id15)">
    <g>
     <circle id="_591468424" class="fil10" transform="matrix(2.95195 0.214734 -0.214734 2.95195 299.613 123.851)" r="0.682"/>
    </g>
   </g>
   <path class="fil3 str4" d="M300.257 121.997c1.6386,0.5694 2.6792,1.8618 2.3233,2.8861 -0.3559,1.0243 -1.9737,1.393 -3.6123,0.8237 -1.6385,-0.5694 -2.6792,-1.8618 -2.3233,-2.8861 0.3559,-1.0243 1.9738,-1.393 3.6123,-0.8237z"/>
   <path id="_636137416" class="fil10" d="M295.216 120.53c0,0 4.3963,-0.7138 8.7926,0.4043 0,0 -5.6339,-4.2006 -8.7926,-0.4043z"/>
   <path id="_636137344" class="fil21" d="M326.494 121.997c-1.6386,0.5694 -2.6792,1.8618 -2.3233,2.8861 0.3559,1.0243 1.9737,1.393 3.6123,0.8237 1.6386,-0.5694 2.6792,-1.8618 2.3233,-2.8861 -0.3559,-1.0243 -1.9738,-1.393 -3.6123,-0.8237z"/>
   <g style="clip-path:url(#id16)">
    <g>
     <circle id="_591468616" class="fil10" transform="matrix(-2.95195 0.214734 0.214734 2.95195 327.138 123.851)" r="0.682"/>
    </g>
   </g>
   <path class="fil3 str4" d="M326.494 121.997c-1.6386,0.5694 -2.6792,1.8618 -2.3233,2.8861 0.3559,1.0243 1.9737,1.393 3.6123,0.8237 1.6386,-0.5694 2.6792,-1.8618 2.3233,-2.8861 -0.3559,-1.0243 -1.9738,-1.393 -3.6123,-0.8237z"/>
   <path id="_636137272" class="fil10" d="M331.534 120.53c0,0 -4.3963,-0.7138 -8.7926,0.4043 0,0 5.6339,-4.2006 8.7926,-0.4043z"/>
  </g>
  <path class="fil21 str10" d="M370.556 101.124c12.0503,0 21.8227,6.3272 21.8227,14.1292 0,7.8021 -9.7724,14.1293 -21.8227,14.1293 -5.935,0 -11.3167,-1.5354 -15.2508,-4.0254l-8.0449 4.01 4.0251 -7.4806c-1.628,-1.9781 -2.552,-4.2358 -2.552,-6.6333 0,-7.802 9.7724,-14.1292 21.8226,-14.1292z"/>
  <path class="fil22" d="M358.428 113.095c0,0.2498 -0.1746,0.3948 -0.5239,0.435 -0.3492,0.0402 -0.5683,0.0688 -0.6572,0.0857l0.0381 2.9972c0,0.2244 -0.0148,0.3926 -0.0444,0.5048 -0.0297,0.1122 -0.0932,0.1683 -0.1905,0.1683 -0.1143,0 -0.2043,-0.0826 -0.2699,-0.2477 -0.0656,-0.1651 -0.0984,-0.381 -0.0984,-0.6477 -0.0043,-0.1735 -0.0085,-0.437 -0.0127,-0.7905 -0.0043,-0.3535 -0.0096,-0.7345 -0.0159,-1.143 -0.0064,-0.4085 -0.0095,-0.6657 -0.0095,-0.7716 -0.072,-0.0169 -0.1609,-0.0254 -0.2667,-0.0254 -0.1101,0 -0.2181,0.0075 -0.3239,0.0223 -0.1058,0.0148 -0.199,0.0264 -0.2794,0.0349 -0.0974,0 -0.1715,-0.0148 -0.2223,-0.0445 -0.0719,-0.0423 -0.1079,-0.1164 -0.1079,-0.2222 0,-0.1609 0.1206,-0.2688 0.362,-0.3239 0.1651,-0.0381 0.4402,-0.0571 0.8255,-0.0571l0.3556 0c0.0592,-0.0085 0.273,-0.0423 0.6413,-0.1016 0.2625,-0.0423 0.4212,-0.0635 0.4763,-0.0635 0.0846,0 0.1598,0.0148 0.2254,0.0444 0.0656,0.0297 0.0984,0.0784 0.0984,0.1461zm2.5909 2.1272c0,0.5588 -0.1355,1.0393 -0.4064,1.4415 -0.2837,0.4191 -0.635,0.6286 -1.0541,0.6286 -0.398,0 -0.7197,-0.1418 -0.9652,-0.4254 -0.3048,-0.3514 -0.4572,-0.889 -0.4572,-1.6129 0,-0.5038 0.091,-1.0255 0.273,-1.5653 0.182,-0.5397 0.3683,-0.8096 0.5588,-0.8096 0.1651,0 0.2477,0.1037 0.2477,0.3111 0,0.1143 -0.0889,0.4361 -0.2667,0.9652 -0.1778,0.5292 -0.2667,0.8996 -0.2667,1.1113 0,0.5334 0.0889,0.9144 0.2667,1.143 0.1439,0.1863 0.3513,0.2794 0.6223,0.2794 0.2836,0 0.5016,-0.1588 0.654,-0.4763 0.1355,-0.2794 0.2032,-0.6392 0.2032,-1.0795 0,-0.127 -0.0307,-0.4243 -0.0921,-0.8921 -0.0614,-0.4678 -0.092,-0.744 -0.092,-0.8287 0,-0.326 0.091,-0.5017 0.273,-0.5271 0.1524,-0.0169 0.2773,0.2286 0.3747,0.7366 0.0846,0.4488 0.127,0.9822 0.127,1.6002zm-0.508 -2.9083c0,0.0932 -0.0995,0.2011 -0.2985,0.3239 -0.0635,0.0381 -0.163,0.0889 -0.2984,0.1524l-0.5144 0c0.1651,-0.1778 0.29,-0.3112 0.3747,-0.4001 0.2624,-0.2667 0.4275,-0.4 0.4953,-0.4 0.1058,0 0.1756,0.0296 0.2095,0.0889 0.0212,0.0381 0.0318,0.1164 0.0318,0.2349zm6.1722 4.4958c0,0.0889 -0.0593,0.162 -0.1778,0.2191 -0.1186,0.0572 -0.2794,0.0857 -0.4826,0.0857 -0.5292,0 -0.9843,-0.1566 -1.3653,-0.4699 -0.4318,-0.3556 -0.6477,-0.8382 -0.6477,-1.4478 0,-0.5037 0.2286,-1.016 0.6858,-1.5367 0.436,-0.4953 0.834,-0.7429 1.1938,-0.7429 0.0889,0 0.1545,0.0212 0.1969,0.0635 0.0423,0.0423 0.0635,0.0889 0.0635,0.1397 -0.4107,0.3133 -0.7705,0.6392 -1.0795,0.9779 -0.3387,0.3725 -0.508,0.7853 -0.508,1.2382 0,0.381 0.182,0.6668 0.5461,0.8573 0.1693,0.0889 0.5101,0.1926 1.0223,0.3111 0.3683,0.0847 0.5525,0.1863 0.5525,0.3048zm2.3749 0.127c0,0.1651 -0.0159,0.2921 -0.0477,0.381 -0.0317,0.0889 -0.0899,0.1334 -0.1746,0.1334 -0.1185,0 -0.2265,-0.1799 -0.3238,-0.5398 -0.0551,-0.2328 -0.108,-0.4677 -0.1588,-0.7048l-1.0795 0c-0.0593,0.2286 -0.1185,0.4572 -0.1778,0.6858 -0.0804,0.2752 -0.1968,0.4127 -0.3492,0.4127 -0.0889,0 -0.1419,-0.0127 -0.1588,-0.0381 -0.0339,-0.0508 -0.0508,-0.1375 -0.0508,-0.2603 0,-0.1016 0.0074,-0.217 0.0222,-0.3461 0.0148,-0.1291 0.0519,-0.3058 0.1112,-0.5302 0.0592,-0.2244 0.1185,-0.4456 0.1778,-0.6636 0.0592,-0.218 0.1735,-0.6276 0.3429,-1.2287 0.127,-0.4487 0.201,-0.6858 0.2222,-0.7112 0.1185,-0.4149 0.2942,-0.6223 0.5271,-0.6223 0.1143,0 0.2307,0.091 0.3492,0.273 0.1185,0.1821 0.2032,0.4128 0.254,0.6922 0.0169,0.0296 0.0582,0.2191 0.1238,0.5683 0.0656,0.3493 0.126,0.6763 0.181,0.9811 0.0296,0.1736 0.0593,0.3429 0.0889,0.508 0.0296,0.1651 0.0572,0.3556 0.0826,0.5715 0.0254,0.2159 0.0381,0.3619 0.0381,0.4381zm-0.7811 -1.2763l-0.3302 -2.0511 -0.5651 2.0511 0.8953 0zm3.8735 -1.4542l0 1.7018 0 0.2731c0,0.5715 -0.0265,0.9588 -0.0794,1.162 -0.0529,0.2033 -0.1301,0.3049 -0.2317,0.3049 -0.2075,0 -0.4107,-0.18 -0.6096,-0.5398 -0.1016,-0.1863 -0.2742,-0.5937 -0.5176,-1.2224 -0.2434,-0.6286 -0.4498,-1.089 -0.6191,-1.3811 0,0.1355 0.0042,0.4138 0.0127,0.835 0.0085,0.4212 0.0127,0.6678 0.0127,0.7398 0,0.4106 -0.0169,0.726 -0.0508,0.9461 -0.0339,0.2202 -0.0995,0.3302 -0.1968,0.3302 -0.1397,0 -0.2403,-0.1174 -0.3017,-0.3524 -0.0614,-0.2349 -0.092,-0.5577 -0.092,-0.9684l0 -1.7907c0,-0.3937 0.0201,-0.6953 0.0603,-0.9048 0.0402,-0.2096 0.1196,-0.3144 0.2381,-0.3144 0.1439,0 0.3408,0.2392 0.5906,0.7176 0.1651,0.3175 0.3862,0.8075 0.6635,1.47 0.2773,0.6625 0.4562,1.0763 0.5366,1.2414l-0.0444 -2.1145c0,-0.4995 0.0232,-0.8869 0.0698,-1.1621 0.0466,-0.2751 0.1291,-0.4127 0.2477,-0.4127 0.1164,0 0.1968,0.1249 0.2423,0.3746 0.0455,0.2498 0.0688,0.6054 0.0688,1.0668zm3.029 -1.1112c0,0.2498 -0.1746,0.3948 -0.5239,0.435 -0.3492,0.0402 -0.5683,0.0688 -0.6572,0.0857l0.0381 2.9972c0,0.2244 -0.0148,0.3926 -0.0444,0.5048 -0.0297,0.1122 -0.0932,0.1683 -0.1905,0.1683 -0.1143,0 -0.2043,-0.0826 -0.2699,-0.2477 -0.0656,-0.1651 -0.0984,-0.381 -0.0984,-0.6477 -0.0043,-0.1735 -0.0085,-0.437 -0.0127,-0.7905 -0.0043,-0.3535 -0.0096,-0.7345 -0.0159,-1.143 -0.0064,-0.4085 -0.0095,-0.6657 -0.0095,-0.7716 -0.072,-0.0169 -0.1609,-0.0254 -0.2667,-0.0254 -0.1101,0 -0.2181,0.0075 -0.3239,0.0223 -0.1058,0.0148 -0.199,0.0264 -0.2794,0.0349 -0.0974,0 -0.1715,-0.0148 -0.2223,-0.0445 -0.0719,-0.0423 -0.1079,-0.1164 -0.1079,-0.2222 0,-0.1609 0.1206,-0.2688 0.362,-0.3239 0.1651,-0.0381 0.4402,-0.0571 0.8255,-0.0571l0.3556 0c0.0592,-0.0085 0.273,-0.0423 0.6413,-0.1016 0.2625,-0.0423 0.4212,-0.0635 0.4763,-0.0635 0.0846,0 0.1598,0.0148 0.2254,0.0444 0.0656,0.0297 0.0984,0.0784 0.0984,0.1461zm1.9749 3.8417c0,0.1651 -0.0159,0.2921 -0.0477,0.381 -0.0317,0.0889 -0.0899,0.1334 -0.1746,0.1334 -0.1185,0 -0.2265,-0.1799 -0.3238,-0.5398 -0.0551,-0.2328 -0.108,-0.4677 -0.1588,-0.7048l-1.0795 0c-0.0593,0.2286 -0.1185,0.4572 -0.1778,0.6858 -0.0804,0.2752 -0.1968,0.4127 -0.3492,0.4127 -0.0889,0 -0.1419,-0.0127 -0.1588,-0.0381 -0.0339,-0.0508 -0.0508,-0.1375 -0.0508,-0.2603 0,-0.1016 0.0074,-0.217 0.0222,-0.3461 0.0148,-0.1291 0.0519,-0.3058 0.1112,-0.5302 0.0592,-0.2244 0.1185,-0.4456 0.1778,-0.6636 0.0592,-0.218 0.1735,-0.6276 0.3429,-1.2287 0.127,-0.4487 0.201,-0.6858 0.2222,-0.7112 0.1185,-0.4149 0.2942,-0.6223 0.5271,-0.6223 0.1143,0 0.2307,0.091 0.3492,0.273 0.1185,0.1821 0.2032,0.4128 0.254,0.6922 0.0169,0.0296 0.0582,0.2191 0.1238,0.5683 0.0656,0.3493 0.126,0.6763 0.181,0.9811 0.0296,0.1736 0.0593,0.3429 0.0889,0.508 0.0296,0.1651 0.0572,0.3556 0.0826,0.5715 0.0254,0.2159 0.0381,0.3619 0.0381,0.4381zm-0.7811 -1.2763l-0.3302 -2.0511 -0.5651 2.0511 0.8953 0zm4.0767 1.4922c-0.0085,0.0551 -0.0212,0.0953 -0.0381,0.1207 -0.0508,0.0804 -0.1376,0.1206 -0.2603,0.1206 -0.3599,0 -0.7557,-0.1778 -1.1875,-0.5334 -0.4318,-0.3556 -0.6286,-0.6455 -0.5905,-0.8699 0,-0.0466 0.2349,-0.1863 0.7048,-0.4191 0.4699,-0.2328 0.7049,-0.4868 0.7049,-0.762 0,-0.2709 -0.1038,-0.5101 -0.3112,-0.7176 -0.2074,-0.2074 -0.453,-0.3111 -0.7366,-0.3111 -0.1778,0 -0.3492,0.0381 -0.5143,0.1143l0 2.4193c0,0.4742 -0.0223,0.8308 -0.0657,1.07 -0.0444,0.2392 -0.1164,0.3588 -0.2169,0.3588 -0.126,0 -0.2138,-0.1281 -0.2646,-0.3842 -0.0497,-0.2561 -0.0751,-0.6233 -0.0751,-1.1017l0 -1.7971c0,-0.5461 0.0582,-0.89 0.1746,-1.0318 0.1153,-0.1418 0.3958,-0.2128 0.8392,-0.2128 0.5112,0 0.9166,0.1016 1.2161,0.3048 0.346,0.2329 0.5196,0.5821 0.5196,1.0478 0,0.4149 -0.0868,0.7218 -0.2603,0.9207 -0.1567,0.1778 -0.4975,0.3874 -1.0224,0.6287 0.2244,0.2794 0.4741,0.4889 0.7493,0.6286 0.4233,0.2159 0.635,0.3514 0.635,0.4064zm2.7179 -0.2159c0,0.1651 -0.0159,0.2921 -0.0477,0.381 -0.0317,0.0889 -0.0899,0.1334 -0.1746,0.1334 -0.1185,0 -0.2265,-0.1799 -0.3238,-0.5398 -0.0551,-0.2328 -0.108,-0.4677 -0.1588,-0.7048l-1.0795 0c-0.0593,0.2286 -0.1185,0.4572 -0.1778,0.6858 -0.0804,0.2752 -0.1968,0.4127 -0.3492,0.4127 -0.0889,0 -0.1419,-0.0127 -0.1588,-0.0381 -0.0339,-0.0508 -0.0508,-0.1375 -0.0508,-0.2603 0,-0.1016 0.0074,-0.217 0.0222,-0.3461 0.0148,-0.1291 0.0519,-0.3058 0.1112,-0.5302 0.0592,-0.2244 0.1185,-0.4456 0.1778,-0.6636 0.0592,-0.218 0.1735,-0.6276 0.3429,-1.2287 0.127,-0.4487 0.201,-0.6858 0.2222,-0.7112 0.1185,-0.4149 0.2942,-0.6223 0.5271,-0.6223 0.1143,0 0.2307,0.091 0.3492,0.273 0.1185,0.1821 0.2032,0.4128 0.254,0.6922 0.0169,0.0296 0.0582,0.2191 0.1238,0.5683 0.0656,0.3493 0.126,0.6763 0.181,0.9811 0.0296,0.1736 0.0593,0.3429 0.0889,0.508 0.0296,0.1651 0.0572,0.3556 0.0826,0.5715 0.0254,0.2159 0.0381,0.3619 0.0381,0.4381zm-0.7811 -1.2763l-0.3302 -2.0511 -0.5651 2.0511 0.8953 0zm3.7592 0.4445c0,0.3514 -0.1418,0.6361 -0.4254,0.8541 -0.2837,0.218 -0.6329,0.327 -1.0478,0.327 -0.2286,0 -0.4635,-0.0614 -0.7048,-0.1842 -0.2413,-0.1227 -0.362,-0.2561 -0.362,-0.4 0,-0.0593 0.0286,-0.1154 0.0857,-0.1683 0.0572,-0.0529 0.1217,-0.0794 0.1937,-0.0794 0.0254,0 0.1503,0.0519 0.3747,0.1556 0.2243,0.1037 0.3725,0.1556 0.4445,0.1556 0.2286,0 0.4222,-0.055 0.581,-0.1651 0.1587,-0.1101 0.2381,-0.2625 0.2381,-0.4572 0,-0.2032 -0.1799,-0.3916 -0.5397,-0.5652 -0.3387,-0.1566 -0.6774,-0.3132 -1.016,-0.4699 -0.3641,-0.2116 -0.5461,-0.4572 -0.5461,-0.7366 0,-0.2963 0.1608,-0.5831 0.4826,-0.8604 0.3217,-0.2773 0.6752,-0.4159 1.0604,-0.4159 0.2709,0 0.4445,0.0042 0.5207,0.0127 0.2413,0.0254 0.362,0.1291 0.362,0.3111 0,0.1313 -0.2943,0.2202 -0.8827,0.2667 -0.5884,0.0466 -0.8826,0.2646 -0.8826,0.6541 0,0.2074 0.1778,0.3725 0.5334,0.4953 0.6011,0.2032 0.9313,0.3217 0.9906,0.3556 0.3598,0.2032 0.5397,0.508 0.5397,0.9144z"/>
  <g id="_636136072">
   <path id="_636137032" class="fil28" d="M211.893 115.475c-1.61,0.6556 -1.5438,4.0138 1.1649,3.5986 2.7086,-0.4153 1.4116,-4.6478 -1.1649,-3.5986z"/>
   <path id="_636136960" class="fil8" d="M212.043 116.37c-0.9353,0.2833 -0.7449,2.1079 0.8594,2.0042 0.3851,-0.0249 0.6217,-0.1796 0.7387,-0.3939 -0.0509,0.0092 -0.1048,0.0162 -0.1622,0.0199 -1.2757,0.0824 -1.6572,-1.0543 -1.2899,-1.6659 -0.0481,0.009 -0.0967,0.0207 -0.146,0.0357z"/>
   <path id="_636136888" class="fil0 str12" d="M161.051 128.872c0.7523,-0.4343 2.0669,0.4336 2.9356,1.9383 0.8687,1.5047 0.9631,3.0771 0.2108,3.5115 -0.7523,0.4343 -2.0669,-0.4336 -2.9356,-1.9383 -0.8688,-1.5047 -0.9631,-3.0771 -0.2108,-3.5115zm53.6856 0c-0.7523,-0.4343 -2.0669,0.4336 -2.9356,1.9383 -0.8687,1.5047 -0.9631,3.0771 -0.2108,3.5115 0.7524,0.4343 2.0669,-0.4336 2.9357,-1.9383 0.8687,-1.5047 0.9631,-3.0771 0.2107,-3.5115z"/>
   <path id="_636136816" class="fil0 str0" d="M187.894 100.533c26.922,0 24.7306,17.0723 24.7306,30.7282 0,13.656 -11.0747,18.7332 -24.7306,18.7332 -13.656,0 -24.7307,-5.0772 -24.7307,-18.7332 0,-13.6559 -2.1914,-30.7282 24.7307,-30.7282z"/>
   <path id="_636136744" class="fil3 str0" d="M185.864 134.762c0,0 1.9981,1.1768 4.0599,0"/>
   <path id="_636136672" class="fil10 str15" d="M186.067 113.54c-0.5978,-0.3337 -3.0619,2.5442 -5.3395,2.4208 -3.5165,-0.1904 0.594,-4.7758 -1.598,-4.5787 -13.0095,1.1695 -15.0375,14.6251 -15.2668,23.798 0,0 -1.4592,-4.6446 -3.0464,-9.0326 -1.5873,-4.388 -1.6807,-16.0893 8.2165,-22.0313 8.7349,-5.2444 17.0322,-5.2193 18.8605,-5.141 1.8283,-0.0783 10.1256,-0.1034 18.8605,5.141 9.8972,5.942 9.8038,17.6433 8.2165,22.0313 -1.5873,4.388 -3.0464,9.0326 -3.0464,9.0326 -0.0564,-8.0406 -1.2704,-19.2135 -10.3955,-22.3695 -2.9099,-1.0066 -2.5776,3.7752 -7.6827,3.8103 -0.9999,0.0068 1.756,-3.9445 0.7367,-3.8716 -4.2304,0.3027 -3.9314,5.0216 -8.0463,4.9023 -2.9861,-0.0866 1.3537,-3.094 -0.4691,-4.1116z"/>
   <path id="_636136600" class="fil27" d="M171.488 135.285c1.6471,0 2.9829,1.3357 2.9829,2.9829 0,1.6471 -1.3358,2.9828 -2.9829,2.9828 -1.6471,0 -2.9829,-1.3357 -2.9829,-2.9828 0,-1.6472 1.3358,-2.9829 2.9829,-2.9829zm32.812 0c1.647,0 2.9828,1.3359 2.9828,2.9829 0,1.6472 -1.3358,2.9829 -2.9828,2.9829 -1.6472,0 -2.983,-1.3357 -2.983,-2.9829 0,-1.647 1.3358,-2.9829 2.983,-2.9829z"/>
   <path id="_636136528" class="fil10" d="M206.567 124.546c0,0 -4.4428,-0.6873 -8.6754,0.3892 0,0 -0.6761,-1.7066 0.8925,-2.4354 0.9397,-0.4363 4.79,-0.5263 5.9579,-0.512 1.2019,0.0147 1.825,2.5582 1.825,2.5582z"/>
   <path id="_636136456" class="fil29" d="M187.894 88.5834c15.4848,5.2255 28.2975,17.0369 28.2975,31.1578 0,6.0001 -1.2273,10.8266 -3.3881,14.63 0.1433,-9.9497 0.4694,-21.3081 -24.9094,-21.3081 -25.3787,0 -25.0527,11.3584 -24.9093,21.3081 -2.1608,-3.8034 -3.3882,-8.6299 -3.3882,-14.63 0,-14.1209 12.8128,-25.9323 28.2975,-31.1578z"/>
   <g style="clip-path:url(#id17)">
    <g>
     <path id="_5914844081" class="fil30" d="M215.075 112.589c0.7257,2.2988 1.1157,4.6904 1.1157,7.1525 0,6.0001 -1.2273,10.8266 -3.388,14.63 0.1432,-9.9497 0.4693,-21.3082 -24.9094,-21.3082 -25.3788,0 -25.0527,11.3585 -24.9094,21.3082 -2.1608,-3.8034 -3.3882,-8.6299 -3.3882,-14.63 0,-1.6267 0.172,-3.2224 0.4966,-4.7813l0 0.0001 0.0346 -0.1629c0.0332,-0.1543 0.0679,-0.3083 0.1042,-0.4619 -0.0362,0.1535 -0.071,0.3076 -0.1042,0.4619 -0.0117,0.0542 -0.0233,0.1085 -0.0346,0.1628l3.5503 -4.7166 -0.1656 6.8728 9.1913 -12.5035 3.2293 6.0447 5.962 -6.2932 6.6158 6.4801 6.6158 -6.4801 5.9619 6.2932 3.2295 -6.0447 9.1913 12.5035 -0.1657 -6.8728 1.7678 2.3487 -0.001 -0.0033z"/>
     <path id="_591484096" class="fil31" d="M201.638 95.5078c4.5435,3.2173 8.3306,7.0992 10.902,11.4508l-0.0058 -0.0098 -0.7994 5.1162 -7.7008 -10.7646 -3.809 6.2931 -5.4651 -5.2995 -6.2846 5.8765 -6.2846 -5.8765 -5.4651 5.2995 -3.809 -6.2931 -7.7009 10.7646 -0.828 -5.2995 -3.133 4.2791c2.3302,-6.0124 6.9591,-11.3289 12.8697,-15.52l1.1746 2.1987 5.9619 -6.2933 6.6158 6.4801 6.6158 -6.4801 5.9619 6.2933 1.1836 -2.2155z"/>
     <path id="_591483904" class="fil32" d="M187.894 88.5834c1.705,0.5754 3.3776,1.2308 5.0043,1.9602l-0.0014 -0.0006 -5.0194 4.6934 -5.0087 -4.6833c1.6332,-0.7332 3.3128,-1.3919 5.0252,-1.9697z"/>
    </g>
   </g>
   <path class="fil3 str16" d="M187.894 88.5834c15.4848,5.2255 28.2975,17.0369 28.2975,31.1578 0,6.0001 -1.2273,10.8266 -3.3881,14.63 0.1433,-9.9497 0.4694,-21.3081 -24.9094,-21.3081 -25.3787,0 -25.0527,11.3584 -24.9093,21.3081 -2.1608,-3.8034 -3.3882,-8.6299 -3.3882,-14.63 0,-14.1209 12.8128,-25.9323 28.2975,-31.1578z"/>
   <path id="_636136384" class="fil1" d="M185.679 88.2856c1.2538,1.1302 3.6347,0.7957 3.7189,-2.1654 0.0842,-2.961 2.8198,-3.4997 2.03,-4.3548 -0.7897,-0.8551 -2.2604,-0.9887 -3.2343,0.253 -0.6329,0.8069 -0.88,-0.7482 -0.531,-1.9992 0.1279,-0.4592 -2.2388,0.5423 -3.1356,2.9402 -0.7362,1.9686 -0.1019,4.1961 1.152,5.3262z"/>
   <g style="clip-path:url(#id18)">
    <g>
     <path id="_5916047761" class="fil29" d="M186.58 88.7243c0.9243,0.483 2.2972,-0.084 1.8914,-1.8685 -0.4058,-1.7846 0.5437,-2.9183 0.5436,-2.9182 0,0 -1.5189,0.2626 -1.9103,2.217 -0.1244,0.6212 -1.6274,-0.7276 -0.6115,-2.6817 0,-0.0001 -1.2559,0.6694 -1.423,2.2422 -0.1372,1.2912 0.5855,2.5262 1.5098,3.0092z"/>
    </g>
   </g>
   <path class="fil3 str16" d="M185.679 88.2856c1.2538,1.1302 3.6347,0.7957 3.7189,-2.1654 0.0842,-2.961 2.8198,-3.4997 2.03,-4.3548 -0.7897,-0.8551 -2.2604,-0.9887 -3.2343,0.253 -0.6329,0.8069 -0.88,-0.7482 -0.531,-1.9992 0.1279,-0.4592 -2.2388,0.5423 -3.1356,2.9402 -0.7362,1.9686 -0.1019,4.1961 1.152,5.3262z"/>
   <path id="_636136312" class="fil10" d="M169.353 124.546c0,0 4.4427,-0.6873 8.6753,0.3892 0,0 0.6762,-1.7066 -0.8924,-2.4354 -0.9397,-0.4363 -4.79,-0.5263 -5.958,-0.512 -1.2018,0.0147 -1.8249,2.5582 -1.8249,2.5582z"/>
   <path id="_636136240" class="fil21" d="M202.157 125.562c-1.7106,0 -3.0982,0.8671 -3.0982,1.9365 0,1.0693 1.3876,1.9364 3.0982,1.9364 1.7106,0 3.0983,-0.8671 3.0983,-1.9364 0,-1.0694 -1.3877,-1.9365 -3.0983,-1.9365z"/>
   <g style="clip-path:url(#id19)">
    <g>
     <circle id="_590433344" class="fil10" transform="matrix(-2.81926 -0.755418 -0.755418 2.81926 202.157 127.499)" r="0.682"/>
    </g>
   </g>
   <path class="fil3 str4" d="M202.157 125.562c-1.7106,0 -3.0982,0.8671 -3.0982,1.9365 0,1.0693 1.3876,1.9364 3.0982,1.9364 1.7106,0 3.0983,-0.8671 3.0983,-1.9364 0,-1.0694 -1.3877,-1.9365 -3.0983,-1.9365z"/>
   <path id="_636136168" class="fil21" d="M173.763 125.562c1.7106,0 3.0982,0.8671 3.0982,1.9365 0,1.0693 -1.3876,1.9364 -3.0982,1.9364 -1.7106,0 -3.0983,-0.8671 -3.0983,-1.9364 0,-1.0694 1.3877,-1.9365 3.0983,-1.9365z"/>
   <g style="clip-path:url(#id20)">
    <g>
     <circle id="_590440640" class="fil10" transform="matrix(2.81926 -0.755418 0.755418 2.81926 173.763 127.499)" r="0.682"/>
    </g>
   </g>
   <path class="fil3 str4" d="M173.763 125.562c1.7106,0 3.0982,0.8671 3.0982,1.9365 0,1.0693 -1.3876,1.9364 -3.0982,1.9364 -1.7106,0 -3.0983,-0.8671 -3.0983,-1.9364 0,-1.0694 1.3877,-1.9365 3.0983,-1.9365z"/>
   <path id="_636136096" class="fil26 str14" d="M191.674 141.516c0,2.0877 -1.6932,3.7809 -3.7809,3.7809 -2.0877,0 -3.7809,-1.6932 -3.7809,-3.7809l7.5618 0z"/>
  </g>
 </g>
</svg>
