<?xml version="1.0" encoding="UTF-8"?>
<!DOCTYPE svg PUBLIC "-//W3C//DTD SVG 1.1//EN" "http://www.w3.org/Graphics/SVG/1.1/DTD/svg11.dtd">
<!-- Creator: CorelDRAW -->
<svg xmlns="http://www.w3.org/2000/svg" xml:space="preserve" width="420mm" height="297mm" style="shape-rendering:geometricPrecision; text-rendering:geometricPrecision; image-rendering:optimizeQuality; fill-rule:evenodd; clip-rule:evenodd"
viewBox="0 0 420 297"
 xmlns:xlink="http://www.w3.org/1999/xlink">
 <defs>
  <style type="text/css">
   <![CDATA[
    .str8 {stroke:#8F5444;stroke-width:0.5;stroke-linecap:round;stroke-linejoin:round}
    .str4 {stroke:#1F1A17;stroke-width:0.75;stroke-linecap:round;stroke-linejoin:round}
    .str2 {stroke:#383431;stroke-width:0.75;stroke-linecap:round;stroke-linejoin:round}
    .str3 {stroke:#4C4840;stroke-width:0.75;stroke-linecap:round;stroke-linejoin:round}
    .str0 {stroke:#8F5444;stroke-width:0.75;stroke-linecap:round;stroke-linejoin:round}
    .str6 {stroke:#969594;stroke-width:0.75;stroke-linecap:round;stroke-linejoin:round}
    .str13 {stroke:#432B13;stroke-width:0.75;stroke-linecap:round;stroke-linejoin:round}
    .str10 {stroke:#213229;stroke-width:0.75;stroke-linecap:round;stroke-linejoin:round}
    .str1 {stroke:#453C35;stroke-width:0.75;stroke-linecap:round;stroke-linejoin:round}
    .str5 {stroke:#542829;stroke-width:0.75;stroke-linecap:round;stroke-linejoin:round}
    .str11 {stroke:#8A2C2F;stroke-width:0.75;stroke-linecap:round;stroke-linejoin:round}
    .str9 {stroke:#8F5444;stroke-linecap:round;stroke-linejoin:round}
    .str7 {stroke:#3D2A2A;stroke-linecap:round;stroke-linejoin:round}
    .str12 {stroke:#1F1A17;stroke-width:1.5;stroke-linecap:round;stroke-linejoin:round}
    .fil3 {fill:none}
    .fil10 {fill:#1F1A17}
    .fil5 {fill:#383431}
    .fil11 {fill:#4D4948}
    .fil7 {fill:#605D5C}
    .fil6 {fill:#716F61}
    .fil2 {fill:#957F66}
    .fil8 {fill:#969594}
    .fil21 {fill:#B76767}
    .fil1 {fill:#C0A062}
    .fil22 {fill:#C2C1C1}
    .fil20 {fill:#DB214C}
    .fil13 {fill:#E7785F}
    .fil15 {fill:white}
    .fil23 {fill:#432B13}
    .fil26 {fill:#5E412F}
    .fil25 {fill:#876553}
    .fil0 {fill:#C3957D}
    .fil17 {fill:#213229}
    .fil4 {fill:#453C35}
    .fil16 {fill:#474832}
    .fil14 {fill:#542829}
    .fil9 {fill:#615649}
    .fil24 {fill:#98562C}
    .fil12 {fill:#A5292E}
    .fil19 {fill:#C6907B}
    .fil18 {fill:#1F1A17;fill-rule:nonzero}
   ]]>
  </style>
      <clipPath id="id0">
       <path d="M261.319 152.847c2.165,-1.2499 7.042,1.9943 10.3447,12.5257 1.5585,4.9702 1.0822,12.1984 -3.5607,13.3557 -6.6189,1.6498 -15.3107,-3.979 -15.3107,-3.979l3.9956 -7.2157c5.5792,3.3134 7.4065,2.0341 6.0108,-1.1399 -1.5926,-3.6222 -3.6446,-12.2969 -1.4797,-13.5468z"/>
      </clipPath>
      <clipPath id="id1">
       <path d="M234.894 152.847c-2.165,-1.2499 -7.042,1.9943 -10.3447,12.5257 -1.5585,4.9702 -1.0822,12.1983 3.5607,13.3557 6.6189,1.6498 15.3107,-3.979 15.3107,-3.979l-3.9956 -7.2157c-5.5792,3.3133 -7.4065,2.0341 -6.0108,-1.1399 1.5926,-3.6223 3.6446,-12.297 1.4797,-13.5468z"/>
      </clipPath>
      <clipPath id="id2">
       <path d="M245.17 212.986c0.2657,-3.4711 -2.3037,-5.0804 -5.6044,-5.3331 -3.3006,-0.2527 -6.0849,0.9468 -6.3506,4.418 -0.1139,1.4873 0.0848,3.8188 6.1394,3.9695 6.0545,0.1506 5.7021,-1.5722 5.8156,-3.0544z"/>
      </clipPath>
      <clipPath id="id3">
       <path d="M251.043 212.986c-0.2657,-3.4711 2.3037,-5.0804 5.6044,-5.3331 3.3006,-0.2527 6.0849,0.9468 6.3506,4.418 0.1139,1.4873 -0.0848,3.8188 -6.1394,3.9695 -6.0545,0.1506 -5.7021,-1.5722 -5.8156,-3.0544z"/>
      </clipPath>
     <clipPath id="id4">
      <path d="M248.102 187.844c-0.0596,1.2457 -3.7696,18.4368 -3.7696,18.4368 0,0 -2.4096,1.8423 -11.4121,-0.57 -3.1711,-9.5366 -0.9073,-32.747 -0.7276,-33.3156l15.1762 -0.0347 0.6977 -0.0016 0.6977 -0.0016 15.1762 -0.0347c0.1823,0.5677 2.5523,23.7675 -0.5751,33.3185 -8.9914,2.4535 -11.4093,0.6223 -11.4093,0.6223 0,0 -3.7887,-17.174 -3.8541,-18.4194z"/>
     </clipPath>
     <clipPath id="id5">
      <path d="M105.763 152.073c-2.165,-1.2499 -7.042,1.9943 -10.3446,12.5257 -1.5586,4.9702 -1.0823,12.1984 3.5607,13.3557 6.6188,1.6498 15.3106,-3.979 15.3106,-3.979l-3.9956 -7.2157c-5.5791,3.3134 -7.4065,2.0341 -6.0107,-1.1399 1.5926,-3.6222 3.6446,-12.2969 1.4796,-13.5468z"/>
     </clipPath>
     <clipPath id="id6">
      <path d="M135.288 152.073c2.165,-1.2499 7.042,1.9943 10.3446,12.5257 1.5586,4.9702 1.0823,12.1984 -3.5607,13.3557 -6.6188,1.6498 -15.3106,-3.979 -15.3106,-3.979l3.9956 -7.2157c5.5791,3.3134 7.4065,2.0341 6.0107,-1.1399 -1.5926,-3.6222 -3.6446,-12.2969 -1.4796,-13.5468z"/>
     </clipPath>
    <clipPath id="id7">
     <path d="M105.965 180.983c0,0 -1.3885,11.1414 -1.5391,15.1086 -0.1507,3.9673 1.9465,10.5551 1.766,12.9132 -0.1805,2.3582 -1.022,5.3544 1.6288,5.7103 2.6507,0.356 5.9803,0.8404 7.7823,0.2897 1.802,-0.5507 2.1056,-2.5168 1.081,-4.1256 -1.0246,-1.6087 -0.7892,-13.6801 -0.3921,-15.8686 0.3971,-2.1885 2.2187,-12.9907 2.2187,-12.9907l-12.5456 -1.0369z"/>
    </clipPath>
    <clipPath id="id8">
     <path d="M135.418 180.915c0,0 1.4395,11.1349 1.6083,15.1014 0.1688,3.9666 -1.8982,10.5639 -1.7069,12.9212 0.1913,2.3573 1.0465,5.3496 -1.6026,5.7177 -2.6491,0.368 -5.9765,0.8677 -7.781,0.3253 -1.8045,-0.5425 -2.117,-2.5072 -1.0998,-4.1206 1.0172,-1.6134 0.7265,-13.6836 0.3194,-15.8703 -0.4071,-2.1867 -2.2781,-12.9804 -2.2781,-12.9804l12.5407 -1.0943z"/>
    </clipPath>
    <clipPath id="id9">
     <path d="M105.197 123.933c1.6948,0.2318 2.9522,1.2789 2.8073,2.3384 -0.1449,1.0594 -1.6373,1.7305 -3.3321,1.4987 -1.6948,-0.2318 -2.9522,-1.2789 -2.8073,-2.3384 0.1449,-1.0594 1.6373,-1.7305 3.3321,-1.4987z"/>
    </clipPath>
    <clipPath id="id10">
     <path d="M133.034 120.41c-1.5837,0.6467 -2.5406,1.974 -2.1364,2.964 0.4043,0.99 2.0168,1.2681 3.6004,0.6215 1.5837,-0.6467 2.5406,-1.9741 2.1364,-2.964 -0.4043,-0.99 -2.0168,-1.2682 -3.6004,-0.6215z"/>
    </clipPath>
    <clipPath id="id11">
     <path d="M256.218 88.7632c14.5731,7.3965 25.5556,20.9265 23.5264,34.9008 -0.8622,5.9378 -2.7704,10.5379 -5.4553,13.9913 1.5716,-9.8258 3.5265,-21.0195 -21.5888,-24.6665 -25.1154,-3.6469 -26.4249,7.6405 -27.7129,17.5075 -1.5918,-4.0744 -2.1128,-9.0272 -1.2506,-14.965 2.0292,-13.9743 16.4062,-23.822 32.4812,-26.7681z"/>
    </clipPath>
    <clipPath id="id12">
     <path d="M254.069 88.1503c1.0784,1.2986 3.4826,1.3097 3.9915,-1.6085 0.5088,-2.9182 3.2934,-3.0582 2.6347,-4.0179 -0.6586,-0.9597 -2.0948,-1.3032 -3.237,-0.2144 -0.7424,0.7076 -0.7634,-0.867 -0.2383,-2.0548 0.1926,-0.436 -2.2934,0.215 -3.5255,2.4591 -1.0115,1.8424 -0.7038,4.1379 0.3746,5.4365z"/>
    </clipPath>
    <clipPath id="id13">
     <path d="M265.019 127.408c-1.6929,-0.2458 -3.1908,0.4129 -3.3444,1.4711 -0.1537,1.0582 1.095,2.1157 2.7878,2.3615 1.6929,0.2459 3.1908,-0.4128 3.3444,-1.4711 0.1537,-1.0582 -1.095,-2.1157 -2.7878,-2.3615z"/>
    </clipPath>
    <clipPath id="id14">
     <path d="M236.92 123.328c1.6928,0.2458 2.9415,1.3034 2.7878,2.3616 -0.1536,1.0582 -1.6515,1.7169 -3.3444,1.4711 -1.6928,-0.2458 -2.9415,-1.3034 -2.7878,-2.3616 0.1536,-1.0582 1.6515,-1.7169 3.3444,-1.4711z"/>
    </clipPath>
 </defs>
 <g id="Capa_x0020_1">
  <metadata id="CorelCorpID_0Corel-Layer"/>
  <g id="_606801448">
   <g>
    <path id="_606802696" class="fil0 str0" d="M256.788 167.534c-1.5777,-1.2167 -2.8464,-4.1478 -3.413,-4.1445 -0.5667,0.0033 -0.8351,0.2485 -0.8305,2.7527 -1.8963,0.1434 -3.502,-3.4538 -4.7154,-2.4042 -0.7833,0.6777 1.1802,2.7466 1.819,3.3433 -1.4481,0.9514 -3.3322,-2.5438 -4.2952,-1.1152 -0.5973,0.8871 2.1948,2.6126 3.0371,3.0037 -0.687,1.4753 -2.8548,-1.2922 -3.4706,0.1215 -0.41,0.9418 2.3081,1.9902 3.1078,2.2722 0.1395,1.1619 -1.9344,-0.176 -2.1276,0.7451 -0.1578,0.7519 0.3888,1.0365 2.5287,1.3808 1.1908,0.1914 2.7458,0.9233 4.364,1.2603l-0.1235 -0.0811 4.1192 -7.1346z"/>
    <g>
     <path id="_606802624" class="fil1" d="M261.319 152.847c2.165,-1.2499 7.042,1.9943 10.3447,12.5257 1.5585,4.9702 1.0822,12.1984 -3.5607,13.3557 -6.6189,1.6498 -15.3107,-3.979 -15.3107,-3.979l3.9956 -7.2157c5.5792,3.3134 7.4065,2.0341 6.0108,-1.1399 -1.5926,-3.6222 -3.6446,-12.2969 -1.4797,-13.5468z"/>
     <g style="clip-path:url(#id0)">
      <g>
       <rect id="_590433728" class="fil2" transform="matrix(0.51321 -0.888905 0.888905 0.51321 251.888 176.168)" width="11.3104" height="3.158"/>
      </g>
     </g>
     <path class="fil3 str1" d="M261.319 152.847c2.165,-1.2499 7.042,1.9943 10.3447,12.5257 1.5585,4.9702 1.0822,12.1984 -3.5607,13.3557 -6.6189,1.6498 -15.3107,-3.979 -15.3107,-3.979l3.9956 -7.2157c5.5792,3.3134 7.4065,2.0341 6.0108,-1.1399 -1.5926,-3.6222 -3.6446,-12.2969 -1.4797,-13.5468z"/>
     <g>
      <path id="_606802552" class="fil4" d="M264.363 156.249c0,0 -0.4921,0.7887 -0.0952,2.1418 0.3969,1.3531 0.8948,3.441 0.8948,3.441 0,0 -2.9853,-3.766 -0.7996,-5.5828z"/>
      <path id="_606802480" class="fil4" d="M265.786 162.971c0,0 0.4921,-0.7887 0.0952,-2.1418 -0.397,-1.353 -0.8949,-3.441 -0.8949,-3.441 0,0 2.9853,3.766 0.7997,5.5828z"/>
      <path id="_606802408" class="fil4" d="M265.445 164.718c0,0 -0.4921,0.7887 -0.0952,2.1418 0.397,1.3531 0.8949,3.4411 0.8949,3.4411 0,0 -2.9853,-3.7661 -0.7997,-5.5829zm1.4226 6.722c0,0 0.492,-0.7887 0.0951,-2.1418 -0.3969,-1.3531 -0.8948,-3.4411 -0.8948,-3.4411 0,0 2.9853,3.7661 0.7997,5.5829z"/>
      <path id="_606802336" class="fil4" d="M270.386 170.152c0,0 0.492,-0.7887 0.0951,-2.1417 -0.3969,-1.3531 -0.8948,-3.4411 -0.8948,-3.4411 0,0 2.9853,3.766 0.7997,5.5828zm-1.4226 -6.7219c0,0 -0.4921,0.7887 -0.0951,2.1417 0.3969,1.3531 0.8948,3.4411 0.8948,3.4411 0,0 -2.9853,-3.766 -0.7997,-5.5828z"/>
      <path id="_606802264" class="fil4" d="M269.631 175.914c0,0 -0.2098,-0.9057 -1.4472,-1.5817 -1.2375,-0.6761 -3.066,-1.8005 -3.066,-1.8005 0,0 4.774,0.5521 4.5132,3.3822zm-5.7591 -3.7472c0,0 0.2097,0.9056 1.4472,1.5817 1.2375,0.6761 3.0659,1.8005 3.0659,1.8005 0,0 -4.7739,-0.5521 -4.5131,-3.3822z"/>
      <path id="_606802192" class="fil4" d="M258.37 173.635c0,0 0.2098,0.9056 1.4472,1.5817 1.2375,0.6761 3.066,1.8005 3.066,1.8005 0,0 -4.774,-0.552 -4.5132,-3.3822zm5.7591 3.7472c0,0 -0.2098,-0.9056 -1.4472,-1.5817 -1.2374,-0.6761 -3.0659,-1.8005 -3.0659,-1.8005 0,0 4.7739,0.5521 4.5131,3.3822z"/>
     </g>
    </g>
   </g>
   <g>
    <path id="_606802048" class="fil0 str0" d="M239.426 167.534c1.5777,-1.2168 2.8464,-4.1478 3.413,-4.1445 0.5667,0.0032 0.8351,0.2485 0.8305,2.7527 1.8963,0.1434 3.502,-3.4538 4.7154,-2.4042 0.7833,0.6777 -1.1802,2.7466 -1.819,3.3432 1.4481,0.9515 3.3322,-2.5437 4.2952,-1.1152 0.5973,0.8872 -2.1948,2.6126 -3.0371,3.0037 0.687,1.4754 2.8548,-1.2921 3.4706,0.1216 0.41,0.9418 -2.3081,1.9902 -3.1078,2.2722 -0.1395,1.1619 1.9344,-0.176 2.1276,0.7451 0.1578,0.7519 -0.3888,1.0365 -2.5287,1.3808 -1.1908,0.1914 -2.7458,0.9233 -4.364,1.2603l0.1235 -0.0811 -4.1192 -7.1346z"/>
    <g>
     <path id="_606801976" class="fil1" d="M234.894 152.847c-2.165,-1.2499 -7.042,1.9943 -10.3447,12.5257 -1.5585,4.9702 -1.0822,12.1983 3.5607,13.3557 6.6189,1.6498 15.3107,-3.979 15.3107,-3.979l-3.9956 -7.2157c-5.5792,3.3133 -7.4065,2.0341 -6.0108,-1.1399 1.5926,-3.6223 3.6446,-12.297 1.4797,-13.5468z"/>
     <g style="clip-path:url(#id1)">
      <g>
       <rect id="_590419280" class="fil2" transform="matrix(-0.51321 -0.888905 -0.888905 0.51321 244.326 176.169)" width="11.3104" height="3.158"/>
      </g>
     </g>
     <path class="fil3 str1" d="M234.894 152.847c-2.165,-1.2499 -7.042,1.9943 -10.3447,12.5257 -1.5585,4.9702 -1.0822,12.1983 3.5607,13.3557 6.6189,1.6498 15.3107,-3.979 15.3107,-3.979l-3.9956 -7.2157c-5.5792,3.3133 -7.4065,2.0341 -6.0108,-1.1399 1.5926,-3.6223 3.6446,-12.297 1.4797,-13.5468z"/>
     <g>
      <path id="_606801904" class="fil4" d="M231.85 156.25c0,0 0.4921,0.7887 0.0952,2.1417 -0.397,1.3531 -0.8948,3.4411 -0.8948,3.4411 0,0 2.9853,-3.766 0.7996,-5.5828z"/>
      <path id="_606801832" class="fil4" d="M230.427 162.971c0,0 -0.4921,-0.7887 -0.0952,-2.1418 0.397,-1.3531 0.8948,-3.4411 0.8948,-3.4411 0,0 -2.9852,3.7661 -0.7996,5.5829z"/>
      <path id="_606801760" class="fil4" d="M230.768 164.718c0,0 0.4921,0.7887 0.0952,2.1418 -0.397,1.3531 -0.8949,3.441 -0.8949,3.441 0,0 2.9853,-3.766 0.7997,-5.5828zm-1.4226 6.7219c0,0 -0.492,-0.7887 -0.0951,-2.1417 0.3969,-1.3531 0.8948,-3.4411 0.8948,-3.4411 0,0 -2.9853,3.766 -0.7997,5.5828z"/>
      <path id="_606801688" class="fil4" d="M225.827 170.152c0,0 -0.492,-0.7887 -0.0951,-2.1418 0.3969,-1.353 0.8948,-3.4411 0.8948,-3.4411 0,0 -2.9853,3.7661 -0.7997,5.5829zm1.4226 -6.7219c0,0 0.4921,0.7886 0.0951,2.1417 -0.3969,1.3531 -0.8948,3.4411 -0.8948,3.4411 0,0 2.9853,-3.766 0.7997,-5.5828z"/>
      <path id="_606801616" class="fil4" d="M226.582 175.914c0,0 0.2098,-0.9057 1.4472,-1.5818 1.2375,-0.6761 3.066,-1.8004 3.066,-1.8004 0,0 -4.774,0.552 -4.5132,3.3822zm5.7591 -3.7473c0,0 -0.2098,0.9057 -1.4472,1.5818 -1.2375,0.6761 -3.0659,1.8005 -3.0659,1.8005 0,0 4.7739,-0.5521 4.5131,-3.3823z"/>
      <path id="_606801544" class="fil4" d="M237.844 173.635c0,0 -0.2097,0.9056 -1.4471,1.5817 -1.2375,0.6761 -3.066,1.8005 -3.066,1.8005 0,0 4.7739,-0.5521 4.5131,-3.3822zm-5.759 3.7472c0,0 0.2098,-0.9056 1.4472,-1.5817 1.2374,-0.6762 3.0659,-1.8005 3.0659,-1.8005 0,0 -4.7739,0.552 -4.5131,3.3822z"/>
     </g>
    </g>
   </g>
  </g>
  <g id="_606800752">
   <g>
    <g>
     <path id="_606801376" class="fil5 str2" d="M239.621 206.821c3.4273,0.2623 5.9439,3.9121 5.7278,6.7356 -0.2162,2.8235 -3.0833,3.7531 -6.5106,3.4907 -3.4274,-0.2624 -6.1195,-1.6175 -5.9033,-4.441 0.2161,-2.8235 3.2587,-6.0477 6.6861,-5.7853z"/>
     <path id="_606801304" class="fil6 str3" d="M233.864 182.327c0,0 -1.3368,10.7265 -1.4818,14.546 -0.1451,3.8195 1.874,10.162 1.7002,12.4323 -0.1738,2.2704 -0.9839,5.155 1.5681,5.4977 2.5521,0.3427 5.7577,0.8091 7.4926,0.2789 1.7349,-0.5302 2.0271,-2.4231 1.0407,-3.972 -0.9864,-1.5488 -0.7597,-13.1706 -0.3775,-15.2777 0.3823,-2.107 2.1361,-12.5069 2.1361,-12.5069l-12.0784 -0.9983z"/>
     <path id="_606801232" class="fil7" d="M245.17 212.986c0.2657,-3.4711 -2.3037,-5.0804 -5.6044,-5.3331 -3.3006,-0.2527 -6.0849,0.9468 -6.3506,4.418 -0.1139,1.4873 0.0848,3.8188 6.1394,3.9695 6.0545,0.1506 5.7021,-1.5722 5.8156,-3.0544z"/>
     <g style="clip-path:url(#id2)">
      <g>
       <path id="_5905110961" class="fil8" d="M239.389 209.583c-6.1019,-0.5771 -8.2716,8.8901 -0.1863,9.1387 7.9174,0.2435 5.5501,-8.6315 0.1863,-9.1387z"/>
       <path id="_590511024" class="fil8" d="M239.207 208.323c-1.9024,-0.0398 -2.5788,0.6132 -0.058,0.6303 2.4684,0.0168 1.7303,-0.5953 0.058,-0.6303z"/>
      </g>
     </g>
     <path class="fil3 str2" d="M245.17 212.986c0.2657,-3.4711 -2.3037,-5.0804 -5.6044,-5.3331 -3.3006,-0.2527 -6.0849,0.9468 -6.3506,4.418 -0.1139,1.4873 0.0848,3.8188 6.1394,3.9695 6.0545,0.1506 5.7021,-1.5722 5.8156,-3.0544z"/>
    </g>
    <g>
     <path id="_606801136" class="fil5 str2" d="M256.593 206.821c-3.4273,0.2623 -5.9439,3.9121 -5.7278,6.7356 0.2162,2.8235 3.0833,3.7531 6.5106,3.4907 3.4274,-0.2624 6.1195,-1.6175 5.9033,-4.441 -0.2161,-2.8235 -3.2587,-6.0477 -6.6861,-5.7853z"/>
     <path id="_606801064" class="fil6 str3" d="M262.349 182.327c0,0 1.3368,10.7265 1.4818,14.546 0.1451,3.8195 -1.874,10.162 -1.7002,12.4323 0.1738,2.2704 0.9839,5.155 -1.5681,5.4977 -2.5521,0.3427 -5.7577,0.8091 -7.4926,0.2789 -1.7349,-0.5302 -2.0271,-2.4231 -1.0407,-3.972 0.9864,-1.5488 0.7597,-13.1706 0.3775,-15.2777 -0.3823,-2.107 -2.1361,-12.5069 -2.1361,-12.5069l12.0784 -0.9983z"/>
     <path id="_606800992" class="fil7" d="M251.043 212.986c-0.2657,-3.4711 2.3037,-5.0804 5.6044,-5.3331 3.3006,-0.2527 6.0849,0.9468 6.3506,4.418 0.1139,1.4873 -0.0848,3.8188 -6.1394,3.9695 -6.0545,0.1506 -5.7021,-1.5722 -5.8156,-3.0544z"/>
     <g style="clip-path:url(#id3)">
      <g>
       <path id="_5905136881" class="fil8" d="M256.824 209.583c6.1019,-0.5771 8.2716,8.8901 0.1863,9.1387 -7.9174,0.2435 -5.5501,-8.6315 -0.1863,-9.1387z"/>
       <path id="_590513616" class="fil8" d="M257.006 208.323c1.9024,-0.0398 2.5788,0.6132 0.058,0.6303 -2.4684,0.0168 -1.7303,-0.5953 -0.058,-0.6303z"/>
      </g>
     </g>
     <path class="fil3 str2" d="M251.043 212.986c-0.2657,-3.4711 2.3037,-5.0804 5.6044,-5.3331 3.3006,-0.2527 6.0849,0.9468 6.3506,4.418 0.1139,1.4873 -0.0848,3.8188 -6.1394,3.9695 -6.0545,0.1506 -5.7021,-1.5722 -5.8156,-3.0544z"/>
    </g>
   </g>
   <g>
    <path id="_606800872" class="fil9" d="M248.102 187.844c-0.0596,1.2457 -3.7696,18.4368 -3.7696,18.4368 0,0 -2.4096,1.8423 -11.4121,-0.57 -3.1711,-9.5366 -0.9073,-32.747 -0.7276,-33.3156l15.1762 -0.0347 0.6977 -0.0016 0.6977 -0.0016 15.1762 -0.0347c0.1823,0.5677 2.5523,23.7675 -0.5751,33.3185 -8.9914,2.4535 -11.4093,0.6223 -11.4093,0.6223 0,0 -3.7887,-17.174 -3.8541,-18.4194z"/>
    <g style="clip-path:url(#id4)">
     <g>
      <path id="_5914774001" class="fil4" d="M244.423 176.175c0,0 -0.6112,4.4901 0.3632,7.8025 0.9743,3.3125 3.3203,5.6709 3.3203,5.6709l-0.024 -13.6889 -3.6595 0.2155z"/>
     </g>
    </g>
    <path class="fil3 str1" d="M248.102 187.844c-0.0596,1.2457 -3.7696,18.4368 -3.7696,18.4368 0,0 -2.4096,1.8423 -11.4121,-0.57 -3.1711,-9.5366 -0.9073,-32.747 -0.7276,-33.3156l15.1762 -0.0347 0.6977 -0.0016 0.6977 -0.0016 15.1762 -0.0347c0.1823,0.5677 2.5523,23.7675 -0.5751,33.3185 -8.9914,2.4535 -11.4093,0.6223 -11.4093,0.6223 0,0 -3.7887,-17.174 -3.8541,-18.4194z"/>
    <path id="_606800800" class="fil4" d="M238.54 178.031c0,0 -1.634,13.1741 -1.529,17.5006 0.105,4.3265 0.2578,8.748 0.2578,8.748 0,0 1.3413,-16.4067 1.2712,-26.2486zm19.0799 -0.0437c0,0 1.6942,13.1665 1.609,17.4935 -0.0851,4.3269 -0.2177,8.749 -0.2177,8.749 0,0 -1.4163,-16.4003 -1.3913,-26.2425z"/>
   </g>
  </g>
  <g id="_606800128">
   <path id="_606800680" class="fil10 str4" d="M140.652 133.39c0,0 7.4114,2.9233 8.1419,7.097 0.7132,4.076 2.2413,13.0917 8.2897,13.088 1.8382,-0.0014 -4.583,2.8068 -7.3473,0.2678 -4.2128,-3.8688 -3.2651,-7.0241 -9.5759,-7.7284 -6.3108,-0.7042 -7.2185,-1.932 -7.2185,-1.932l7.7101 -10.7924z"/>
   <path id="_606800608" class="fil10 str4" d="M103.324 138.105c0,0 -6.4515,4.6747 -6.1211,8.8988 0.3228,4.1254 1.0849,13.2379 -4.7744,14.7384 -1.7808,0.4558 5.137,1.5789 7.1831,-1.5678 3.1183,-4.7949 1.4156,-7.6154 7.3531,-9.867 5.9374,-2.2516 6.5112,-3.6665 6.5112,-3.6665l-10.1519 -8.5359z"/>
   <path id="_606800536" class="fil6 str4" d="M97.408 152.412c-0.034,1.0974 -0.132,2.2184 -0.3358,3.2887 1.2017,-0.2122 2.7864,-0.236 4.4557,0.4452 0.4869,-1.3662 0.8572,-2.5224 1.7485,-3.5397 -1.3109,-0.7955 -3.2431,-1.0981 -5.8684,-0.1942z"/>
   <path id="_606800464" class="fil11" d="M103.527 141.983c0,0 -3.8239,3.894 -3.2561,8.1865 0,0 1.3482,-4.0809 3.2561,-8.1865z"/>
   <path id="_606800392" class="fil6 str4" d="M149.94 145.775c0.3059,1.0545 0.6796,2.1159 1.1431,3.1019 -1.2167,0.0933 -2.7575,0.4644 -4.205,1.5393 -0.8114,-1.2022 -1.4575,-2.23 -2.5738,-2.9936 1.0719,-1.0966 2.8681,-1.8702 5.6357,-1.6476z"/>
   <g>
    <path id="_606800320" class="fil11" d="M141.42 137.196c0,0 4.6722,2.8208 5.1897,7.1196 0,0 -2.3206,-3.6175 -5.1897,-7.1196z"/>
    <path id="_606800248" class="fil11" d="M137.229 136.588c0,0 4.6722,2.8208 5.1897,7.1196 0,0 -2.3207,-3.6175 -5.1897,-7.1196z"/>
   </g>
   <path id="_606800152" class="fil11" d="M107.435 140.352c0,0 -3.8239,3.8941 -3.256,8.1866 0,0 1.3481,-4.081 3.256,-8.1866z"/>
  </g>
  <g id="_606798856">
   <g>
    <path id="_606800056" class="fil0 str0" d="M110.294 166.76c1.5776,-1.2167 2.8463,-4.1478 3.413,-4.1445 0.5667,0.0033 0.835,0.2485 0.8304,2.7527 1.8963,0.1434 3.502,-3.4538 4.7154,-2.4042 0.7834,0.6777 -1.1802,2.7466 -1.8189,3.3433 1.448,0.9514 3.3322,-2.5438 4.2952,-1.1152 0.5972,0.8871 -2.1949,2.6126 -3.0372,3.0037 0.687,1.4753 2.8548,-1.2922 3.4707,0.1215 0.4099,0.9418 -2.3081,1.9902 -3.1079,2.2722 -0.1395,1.1619 1.9344,-0.176 2.1277,0.7451 0.1577,0.7519 -0.3889,1.0365 -2.5287,1.3808 -1.1909,0.1914 -2.7459,0.9233 -4.3641,1.2603l0.1235 -0.0811 -4.1191 -7.1346z"/>
    <path id="_606799984" class="fil12" d="M105.763 152.073c-2.165,-1.2499 -7.042,1.9943 -10.3446,12.5257 -1.5586,4.9702 -1.0823,12.1984 3.5607,13.3557 6.6188,1.6498 15.3106,-3.979 15.3106,-3.979l-3.9956 -7.2157c-5.5791,3.3134 -7.4065,2.0341 -6.0107,-1.1399 1.5926,-3.6222 3.6446,-12.2969 1.4796,-13.5468z"/>
    <g style="clip-path:url(#id5)">
     <g>
      <rect id="_591625848" class="fil13" transform="matrix(-0.51321 -0.888905 -0.888905 0.51321 115.194 175.394)" width="11.3104" height="3.158"/>
     </g>
    </g>
    <path class="fil3 str5" d="M105.763 152.073c-2.165,-1.2499 -7.042,1.9943 -10.3446,12.5257 -1.5586,4.9702 -1.0823,12.1984 3.5607,13.3557 6.6188,1.6498 15.3106,-3.979 15.3106,-3.979l-3.9956 -7.2157c-5.5791,3.3134 -7.4065,2.0341 -6.0107,-1.1399 1.5926,-3.6222 3.6446,-12.2969 1.4796,-13.5468z"/>
    <g>
     <path id="_606799912" class="fil14" d="M102.719 155.475c0,0 0.4921,0.7887 0.0952,2.1418 -0.397,1.3531 -0.8949,3.441 -0.8949,3.441 0,0 2.9853,-3.766 0.7997,-5.5828z"/>
     <path id="_606799840" class="fil14" d="M101.296 162.197c0,0 -0.492,-0.7887 -0.0951,-2.1418 0.3969,-1.353 0.8948,-3.441 0.8948,-3.441 0,0 -2.9853,3.766 -0.7997,5.5828z"/>
     <path id="_606799768" class="fil14" d="M101.637 163.944c0,0 0.4921,0.7886 0.0952,2.1417 -0.397,1.3531 -0.8948,3.4411 -0.8948,3.4411 0,0 2.9853,-3.7661 0.7996,-5.5828zm-1.4225 6.7219c0,0 -0.4921,-0.7887 -0.0952,-2.1418 0.397,-1.3531 0.8948,-3.4411 0.8948,-3.4411 0,0 -2.9853,3.7661 -0.7996,5.5829z"/>
     <path id="_606799696" class="fil14" d="M96.6962 169.378c0,0 -0.4921,-0.7887 -0.0952,-2.1417 0.397,-1.3531 0.8949,-3.4411 0.8949,-3.4411 0,0 -2.9854,3.766 -0.7997,5.5828zm1.4225 -6.7219c0,0 0.4921,0.7887 0.0952,2.1417 -0.3969,1.3531 -0.8948,3.4411 -0.8948,3.4411 0,0 2.9853,-3.766 0.7996,-5.5828z"/>
     <path id="_606799624" class="fil14" d="M97.4507 175.14c0,0 0.2097,-0.9056 1.4471,-1.5817 1.2375,-0.6761 3.066,-1.8005 3.066,-1.8005 0,0 -4.7739,0.5521 -4.5131,3.3822zm5.759 -3.7472c0,0 -0.2097,0.9056 -1.4472,1.5817 -1.2374,0.6761 -3.0659,1.8005 -3.0659,1.8005 0,0 4.7739,-0.5521 4.5131,-3.3822z"/>
     <path id="_606799552" class="fil14" d="M108.712 172.861c0,0 -0.2097,0.9056 -1.4472,1.5817 -1.2374,0.6761 -3.0659,1.8005 -3.0659,1.8005 0,0 4.7739,-0.552 4.5131,-3.3822zm-5.759 3.7472c0,0 0.2097,-0.9056 1.4472,-1.5817 1.2374,-0.6761 3.0659,-1.8005 3.0659,-1.8005 0,0 -4.7739,0.5521 -4.5131,3.3822z"/>
    </g>
   </g>
   <g>
    <path id="_606799432" class="fil0 str0" d="M130.757 166.76c-1.5776,-1.2167 -2.8463,-4.1478 -3.413,-4.1445 -0.5667,0.0033 -0.835,0.2485 -0.8304,2.7527 -1.8963,0.1434 -3.502,-3.4538 -4.7154,-2.4042 -0.7834,0.6777 1.1802,2.7466 1.8189,3.3433 -1.448,0.9514 -3.3322,-2.5438 -4.2952,-1.1152 -0.5972,0.8871 2.1949,2.6126 3.0372,3.0037 -0.687,1.4753 -2.8548,-1.2922 -3.4707,0.1215 -0.4099,0.9418 2.3081,1.9902 3.1079,2.2722 0.1395,1.1619 -1.9344,-0.176 -2.1277,0.7451 -0.1577,0.7519 0.3889,1.0365 2.5287,1.3808 1.1909,0.1914 2.7459,0.9233 4.3641,1.2603l-0.1235 -0.0811 4.1191 -7.1346z"/>
    <path id="_606799360" class="fil12" d="M135.288 152.073c2.165,-1.2499 7.042,1.9943 10.3446,12.5257 1.5586,4.9702 1.0823,12.1984 -3.5607,13.3557 -6.6188,1.6498 -15.3106,-3.979 -15.3106,-3.979l3.9956 -7.2157c5.5791,3.3134 7.4065,2.0341 6.0107,-1.1399 -1.5926,-3.6222 -3.6446,-12.2969 -1.4796,-13.5468z"/>
    <g style="clip-path:url(#id6)">
     <g>
      <rect id="_591605784" class="fil13" transform="matrix(0.51321 -0.888905 0.888905 0.51321 125.857 175.394)" width="11.3104" height="3.158"/>
     </g>
    </g>
    <path class="fil3 str5" d="M135.288 152.073c2.165,-1.2499 7.042,1.9943 10.3446,12.5257 1.5586,4.9702 1.0823,12.1984 -3.5607,13.3557 -6.6188,1.6498 -15.3106,-3.979 -15.3106,-3.979l3.9956 -7.2157c5.5791,3.3134 7.4065,2.0341 6.0107,-1.1399 -1.5926,-3.6222 -3.6446,-12.2969 -1.4796,-13.5468z"/>
    <g>
     <path id="_606799288" class="fil14" d="M138.333 155.475c0,0 -0.4921,0.7887 -0.0952,2.1418 0.397,1.3531 0.8949,3.441 0.8949,3.441 0,0 -2.9853,-3.766 -0.7997,-5.5828z"/>
     <path id="_606799216" class="fil14" d="M139.755 162.197c0,0 0.492,-0.7887 0.0951,-2.1418 -0.3969,-1.353 -0.8948,-3.441 -0.8948,-3.441 0,0 2.9853,3.766 0.7997,5.5828z"/>
     <path id="_606799144" class="fil14" d="M139.415 163.944c0,0 -0.4921,0.7886 -0.0952,2.1417 0.397,1.3531 0.8948,3.4411 0.8948,3.4411 0,0 -2.9853,-3.7661 -0.7996,-5.5828zm1.4225 6.7219c0,0 0.4921,-0.7887 0.0952,-2.1418 -0.397,-1.3531 -0.8948,-3.4411 -0.8948,-3.4411 0,0 2.9853,3.7661 0.7996,5.5829z"/>
     <path id="_606799072" class="fil14" d="M144.355 169.378c0,0 0.4921,-0.7887 0.0952,-2.1417 -0.397,-1.3531 -0.8949,-3.4411 -0.8949,-3.4411 0,0 2.9854,3.766 0.7997,5.5828zm-1.4225 -6.7219c0,0 -0.4921,0.7887 -0.0952,2.1417 0.3969,1.3531 0.8948,3.4411 0.8948,3.4411 0,0 -2.9853,-3.766 -0.7996,-5.5828z"/>
     <path id="_606799000" class="fil14" d="M143.601 175.14c0,0 -0.2097,-0.9056 -1.4471,-1.5817 -1.2375,-0.6761 -3.066,-1.8005 -3.066,-1.8005 0,0 4.7739,0.5521 4.5131,3.3822zm-5.759 -3.7472c0,0 0.2097,0.9056 1.4472,1.5817 1.2374,0.6761 3.0659,1.8005 3.0659,1.8005 0,0 -4.7739,-0.5521 -4.5131,-3.3822z"/>
     <path id="_606798928" class="fil14" d="M132.339 172.861c0,0 0.2097,0.9056 1.4472,1.5817 1.2374,0.6761 3.0659,1.8005 3.0659,1.8005 0,0 -4.7739,-0.552 -4.5131,-3.3822zm5.759 3.7472c0,0 -0.2097,-0.9056 -1.4472,-1.5817 -1.2374,-0.6761 -3.0659,-1.8005 -3.0659,-1.8005 0,0 4.7739,0.5521 4.5131,3.3822z"/>
    </g>
   </g>
  </g>
  <g id="_606798688">
   <path id="_606798784" class="fil1 str1" d="M235.412 152.575c-5.4172,3.1568 -2.759,12.5736 -2.8362,15.3442 -0.0772,2.7705 -2.759,8.9045 3.0291,10.1774 4.1018,0.902 8.302,1.3532 12.5022,1.3532 4.2002,0 8.4006,-0.4512 12.5022,-1.3532 5.7881,-1.2728 3.1063,-7.4069 3.0291,-10.1774 -0.0772,-2.7706 2.581,-12.1874 -2.8361,-15.3442 -6.3296,-3.6885 -19.0608,-3.6885 -25.3903,0z"/>
   <path id="_606798712" class="fil4" d="M248.285 156.246c0,0 -0.6633,0.6194 -0.6309,1.9957 0.0324,1.3763 -0.0257,3.4712 -0.0257,3.4712 0,0 -1.8636,-4.3059 0.6566,-5.4669zm-0.357 6.6985c0,0 0.6633,-0.6195 0.6309,-1.9957 -0.0324,-1.3764 0.0257,-3.4712 0.0257,-3.4712 0,0 1.8636,4.3058 -0.6566,5.4669zm-12.8363 7.363c0,0 -0.4804,-0.77 -0.0929,-2.091 0.3876,-1.321 0.8736,-3.3595 0.8736,-3.3595 0,0 -2.9145,3.6768 -0.7807,5.4505zm8.8573 0c0,0 -0.4804,-0.77 -0.0929,-2.091 0.3875,-1.321 0.8736,-3.3595 0.8736,-3.3595 0,0 -2.9145,3.6768 -0.7807,5.4505zm-5.2977 -9.2554c0,0 -0.4804,-0.7699 -0.0929,-2.0909 0.3875,-1.3211 0.8736,-3.3596 0.8736,-3.3596 0,0 -2.9146,3.6768 -0.7807,5.4505zm3.1129 4.4495c0,0 -0.4804,-0.77 -0.0929,-2.091 0.3875,-1.321 0.8736,-3.3595 0.8736,-3.3595 0,0 -2.9145,3.6767 -0.7807,5.4505zm-2.9685 9.0628c0,0 -0.4804,-0.77 -0.0929,-2.091 0.3875,-1.321 0.8736,-3.3595 0.8736,-3.3595 0,0 -2.9145,3.6767 -0.7807,5.4505zm22.3255 -4.2569c0,0 0.4805,-0.77 0.0929,-2.091 -0.3875,-1.321 -0.8736,-3.3595 -0.8736,-3.3595 0,0 2.9146,3.6768 0.7807,5.4505zm-8.8572 0c0,0 0.4804,-0.77 0.0929,-2.091 -0.3876,-1.321 -0.8736,-3.3595 -0.8736,-3.3595 0,0 2.9145,3.6768 0.7807,5.4505zm5.2977 -9.2554c0,0 0.4804,-0.7699 0.0929,-2.0909 -0.3875,-1.3211 -0.8736,-3.3596 -0.8736,-3.3596 0,0 2.9145,3.6768 0.7807,5.4505zm-3.113 4.4495c0,0 0.4805,-0.77 0.0929,-2.091 -0.3875,-1.321 -0.8736,-3.3595 -0.8736,-3.3595 0,0 2.9146,3.6767 0.7807,5.4505zm2.9685 9.0628c0,0 0.4805,-0.77 0.0929,-2.091 -0.3875,-1.321 -0.8736,-3.3595 -0.8736,-3.3595 0,0 2.9146,3.6767 0.7807,5.4505zm-11.138 -3.4181c0,0 -0.8011,0.4266 -1.1259,1.7644 -0.3249,1.3378 -0.9232,3.3462 -0.9232,3.3462 0,0 -0.6858,-4.6414 2.0491,-5.1106zm3.6546 0c0,0 0.801,0.4266 1.126,1.7644 0.3248,1.3378 0.9231,3.3463 0.9231,3.3463 0,0 0.6857,-4.6415 -2.0491,-5.1107zm-5.7332 6.3778c0,0 0.8011,-0.4266 1.126,-1.7644 0.3249,-1.3378 0.9232,-3.3462 0.9232,-3.3462 0,0 0.6857,4.6414 -2.0492,5.1106zm7.8118 0c0,0 -0.8011,-0.4266 -1.126,-1.7644 -0.3249,-1.3378 -0.9232,-3.3462 -0.9232,-3.3462 0,0 -0.6857,4.6414 2.0492,5.1106zm4.016 -9.5223c0,0 -0.4804,0.77 -0.0929,2.091 0.3875,1.321 0.8736,3.3595 0.8736,3.3595 0,0 -2.9146,-3.6768 -0.7807,-5.4505zm-2.9685 -9.0628c0,0 -0.4804,0.77 -0.0929,2.091 0.3875,1.321 0.8736,3.3595 0.8736,3.3595 0,0 -2.9146,-3.6768 -0.7807,-5.4505zm3.1129 -4.4495c0,0 -0.4804,0.77 -0.0929,2.0911 0.3876,1.321 0.8736,3.3595 0.8736,3.3595 0,0 -2.9145,-3.6768 -0.7807,-5.4506zm-5.2977 9.2554c0,0 -0.4804,0.77 -0.0929,2.091 0.3876,1.321 0.8736,3.3595 0.8736,3.3595 0,0 -2.9145,-3.6768 -0.7807,-5.4505zm8.8573 0c0,0 -0.4804,0.77 -0.0929,2.091 0.3875,1.321 0.8736,3.3595 0.8736,3.3595 0,0 -2.9146,-3.6768 -0.7807,-5.4505zm-19.5478 4.2569c0,0 0.4804,0.77 0.0929,2.091 -0.3876,1.321 -0.8736,3.3595 -0.8736,3.3595 0,0 2.9145,-3.6768 0.7807,-5.4505zm2.9685 -9.0628c0,0 0.4804,0.77 0.0929,2.091 -0.3876,1.321 -0.8736,3.3595 -0.8736,3.3595 0,0 2.9145,-3.6768 0.7807,-5.4505zm-3.113 -4.4495c0,0 0.4804,0.77 0.0929,2.0911 -0.3875,1.321 -0.8736,3.3595 -0.8736,3.3595 0,0 2.9146,-3.6768 0.7807,-5.4506zm5.2977 9.2554c0,0 0.4804,0.77 0.0929,2.091 -0.3875,1.321 -0.8736,3.3595 -0.8736,3.3595 0,0 2.9146,-3.6768 0.7807,-5.4505zm-8.8572 0c0,0 0.4804,0.77 0.0929,2.091 -0.3876,1.321 -0.8736,3.3595 -0.8736,3.3595 0,0 2.9145,-3.6768 0.7807,-5.4505z"/>
  </g>
  <path class="fil15 str6" d="M310.343 101.031c12.0503,0 21.8227,6.3272 21.8227,14.1292 0,7.8021 -9.7724,14.1293 -21.8227,14.1293 -5.935,0 -11.3167,-1.5354 -15.2508,-4.0254l-8.0449 4.01 4.0251 -7.4806c-1.628,-1.9781 -2.552,-4.2358 -2.552,-6.6333 0,-7.802 9.7724,-14.1292 21.8226,-14.1292z"/>
  <path class="fil0 str0" d="M241.749 146.185l12.7151 0 0 5.5158c0,1.6001 -2.8469,2.898 -6.3575,2.898 -3.5105,0 -6.3576,-1.2979 -6.3576,-2.898l0 -5.5158z"/>
  <g id="_606798304">
   <path id="_606798472" class="fil14 str7" d="M111.84 206.424c3.5599,0.2725 6.1738,4.0634 5.9493,6.9961 -0.2245,2.9328 -3.2025,3.8983 -6.7624,3.6257 -3.56,-0.2725 -6.3561,-1.68 -6.1316,-4.6127 0.2245,-2.9328 3.3848,-6.2817 6.9447,-6.0091z"/>
   <path id="_606798400" class="fil0" d="M105.965 180.983c0,0 -1.3885,11.1414 -1.5391,15.1086 -0.1507,3.9673 1.9465,10.5551 1.766,12.9132 -0.1805,2.3582 -1.022,5.3544 1.6288,5.7103 2.6507,0.356 5.9803,0.8404 7.7823,0.2897 1.802,-0.5507 2.1056,-2.5168 1.081,-4.1256 -1.0246,-1.6087 -0.7892,-13.6801 -0.3921,-15.8686 0.3971,-2.1885 2.2187,-12.9907 2.2187,-12.9907l-12.5456 -1.0369z"/>
   <g style="clip-path:url(#id7)">
    <g>
     <path id="_4846310801" class="fil3 str8" d="M114.781 213.87c0,0 0.4986,-0.4987 1.3747,-0.2528m-8.399 -0.9743c0,0 -0.8797,2.0972 1.1708,2.2203m5.1001 -1.9773c0,0 -0.8797,2.097 1.1709,2.2202m-3.312 -2.0777c0,0 -0.8797,2.0971 1.171,2.2203m-3.2243 -2.3579c0,0 -0.8796,2.0971 1.171,2.22m-4.2485 -1.7345c0,0 0.1753,-0.1756 0.4836,-0.0889m1.0553 0.5902c0,0 0.3164,-0.3166 0.8725,-0.1606m1.1574 0.3671c0,0 0.3165,-0.3167 0.8725,-0.1605m1.1484 0.0878c0,0 0.3164,-0.3166 0.8724,-0.1604"/>
    </g>
   </g>
   <path class="fil3 str9" d="M105.965 180.983c0,0 -1.3885,11.1414 -1.5391,15.1086 -0.1507,3.9673 1.9465,10.5551 1.766,12.9132 -0.1805,2.3582 -1.022,5.3544 1.6288,5.7103 2.6507,0.356 5.9803,0.8404 7.7823,0.2897 1.802,-0.5507 2.1056,-2.5168 1.081,-4.1256 -1.0246,-1.6087 -0.7892,-13.6801 -0.3921,-15.8686 0.3971,-2.1885 2.2187,-12.9907 2.2187,-12.9907l-12.5456 -1.0369z"/>
   <path id="_606798328" class="fil14 str7" d="M117.443 214.324c0.1372,-0.5011 0.2282,-1.004 0.2659,-1.4965 0.276,-3.6054 -2.3928,-5.277 -5.8211,-5.5394 -3.4284,-0.2625 -6.3203,0.9834 -6.5963,4.5888 -0.0377,0.4925 -0.0243,1.0034 0.035,1.5195 0.8218,-2.5702 3.3817,-3.4683 6.3418,-3.2417 2.9602,0.2266 5.3537,1.5039 5.7747,4.1693z"/>
  </g>
  <g id="_606798064">
   <path id="_606798232" class="fil14 str7" d="M129.66 206.383c-3.5586,0.2888 -6.1551,4.0916 -5.9172,7.0233 0.2379,2.9317 3.2203,3.8835 6.779,3.5947 3.5586,-0.2888 6.3483,-1.7091 6.1104,-4.6407 -0.2379,-2.9317 -3.4135,-6.2661 -6.9722,-5.9773z"/>
   <path id="_606798160" class="fil0" d="M135.418 180.915c0,0 1.4395,11.1349 1.6083,15.1014 0.1688,3.9666 -1.8982,10.5639 -1.7069,12.9212 0.1913,2.3573 1.0465,5.3496 -1.6026,5.7177 -2.6491,0.368 -5.9765,0.8677 -7.781,0.3253 -1.8045,-0.5425 -2.117,-2.5072 -1.0998,-4.1206 1.0172,-1.6134 0.7265,-13.6836 0.3194,-15.8703 -0.4071,-2.1867 -2.2781,-12.9804 -2.2781,-12.9804l12.5407 -1.0943z"/>
   <g style="clip-path:url(#id8)">
    <g>
     <path id="_5914734881" class="fil3 str8" d="M126.759 213.845c0,0 -0.4986,-0.4987 -1.3748,-0.2527m8.399 -0.9744c0,0 0.8798,2.0972 -1.1708,2.2203m-5.1001 -1.9773c0,0 0.8797,2.0969 -1.1708,2.2202m3.3119 -2.0778c0,0 0.8799,2.0972 -1.1709,2.2205m3.2244 -2.358c0,0 0.8797,2.0971 -1.1712,2.2201m4.2485 -1.7347c0,0 -0.1753,-0.1755 -0.4835,-0.0888m-1.0553 0.5903c0,0 -0.3164,-0.3167 -0.8724,-0.1607m-1.1575 0.3671c0,0 -0.3164,-0.3167 -0.8724,-0.1606m-1.1485 0.088c0,0 -0.3162,-0.3168 -0.8724,-0.1604"/>
    </g>
   </g>
   <path class="fil3 str9" d="M135.418 180.915c0,0 1.4395,11.1349 1.6083,15.1014 0.1688,3.9666 -1.8982,10.5639 -1.7069,12.9212 0.1913,2.3573 1.0465,5.3496 -1.6026,5.7177 -2.6491,0.368 -5.9765,0.8677 -7.781,0.3253 -1.8045,-0.5425 -2.117,-2.5072 -1.0998,-4.1206 1.0172,-1.6134 0.7265,-13.6836 0.3194,-15.8703 -0.4071,-2.1867 -2.2781,-12.9804 -2.2781,-12.9804l12.5407 -1.0943z"/>
   <path id="_606798088" class="fil14 str7" d="M124.094 214.309c-0.1394,-0.5005 -0.2328,-1.003 -0.2727,-1.4953 -0.2925,-3.6041 2.3686,-5.2878 5.7957,-5.566 3.4271,-0.2781 6.3248,0.9545 6.6173,4.5586 0.0399,0.4923 0.0288,1.0033 -0.0281,1.5197 -0.8336,-2.5664 -3.3975,-3.4529 -6.3566,-3.2127 -2.9591,0.2401 -5.3468,1.5284 -5.7556,4.1957z"/>
  </g>
  <g id="_606797512">
   <path id="_606797992" class="fil16 str10" d="M104.921 173.484c-6.4115,8.0868 -6.7223,24.0029 -5.442,26.0161 1.025,1.6121 10.9915,4.875 21.2486,4.875 10.2572,0 20.2237,-3.2629 21.2487,-4.875 1.2802,-2.0132 0.9694,-17.9293 -5.4421,-26.0161l-15.8066 0 -15.8066 0z"/>
   <g>
    <path id="_606797920" class="fil17" d="M111.568 179.066c0,0 -2.9895,4.9015 -3.8975,10.0942 -0.9078,5.1925 -0.0741,9.3545 -0.0741,9.3545 0,0 1.7285,-6.7072 3.9716,-19.4487z"/>
    <path id="_606797848" class="fil17" d="M117.902 180.666c0,0 -2.2824,5.7098 -2.4872,11.073 -0.2045,5.3629 1.1614,9.1879 1.1614,9.1879 0,0 0.8088,-7.0962 1.3258,-20.2609z"/>
    <path id="_606797776" class="fil17" d="M123.553 180.666c0,0 2.2823,5.71 2.487,11.073 0.2048,5.3629 -1.1613,9.1879 -1.1613,9.1879 0,0 -0.8089,-7.0965 -1.3257,-20.2609z"/>
    <path id="_606797704" class="fil17" d="M129.887 179.066c0,0 2.9894,4.9015 3.8974,10.0941 0.908,5.1924 0.074,9.3546 0.074,9.3546 0,0 -1.7285,-6.7073 -3.9714,-19.4487z"/>
    <path id="_606797632" class="fil17" d="M135.017 177.572c0,0 3.2771,4.4586 4.4995,9.5004 1.2225,5.042 0.6477,9.3036 0.6477,9.3036 0,0 -2.1323,-6.4342 -5.1472,-18.804z"/>
    <path id="_606797560" class="fil17" d="M106.438 177.572c0,0 -3.277,4.4586 -4.4996,9.5004 -1.2224,5.042 -0.6475,9.3036 -0.6475,9.3036 0,0 2.1323,-6.4342 5.1471,-18.804z"/>
   </g>
  </g>
  <g id="_606797344">
   <path id="_606797440" class="fil12 str5" d="M107.724 150.112c-5.5487,3.2334 -2.826,12.8788 -2.905,15.7167 -0.0791,2.8378 -2.826,9.1206 3.1026,10.4245 8.4026,1.8479 17.2088,1.8479 25.6114,0 5.9286,-1.3039 3.1817,-7.5867 3.1027,-10.4245 -0.0791,-2.8379 2.6436,-12.4833 -2.905,-15.7167 -6.4833,-3.7781 -19.5235,-3.7781 -26.0067,0z"/>
   <path id="_606797368" class="fil14" d="M120.91 153.872c0,0 -0.6794,0.6345 -0.6462,2.0442 0.0332,1.4097 -0.0263,3.5554 -0.0263,3.5554 0,0 -1.9089,-4.4104 0.6725,-5.5996zm-0.3656 6.8611c0,0 0.6794,-0.6345 0.6462,-2.0442 -0.0332,-1.4097 0.0263,-3.5554 0.0263,-3.5554 0,0 1.9089,4.4104 -0.6725,5.5996zm-13.1479 7.5418c0,0 -0.4921,-0.7887 -0.0952,-2.1418 0.397,-1.353 0.8949,-3.441 0.8949,-3.441 0,0 -2.9854,3.766 -0.7997,5.5828zm9.0723 0c0,0 -0.4921,-0.7887 -0.0952,-2.1418 0.3969,-1.3531 0.8948,-3.4411 0.8948,-3.4411 0,0 -2.9853,3.7661 -0.7996,5.5829zm-5.4263 -9.4801c0,0 -0.4921,-0.7886 -0.0952,-2.1417 0.3969,-1.3531 0.8948,-3.4411 0.8948,-3.4411 0,0 -2.9853,3.766 -0.7996,5.5828zm3.1885 4.5575c0,0 -0.4921,-0.7887 -0.0952,-2.1418 0.3969,-1.3531 0.8948,-3.4411 0.8948,-3.4411 0,0 -2.9853,3.7661 -0.7996,5.5829zm-3.0406 9.2828c0,0 -0.4921,-0.7887 -0.0951,-2.1418 0.3969,-1.3531 0.8948,-3.4411 0.8948,-3.4411 0,0 -2.9853,3.7661 -0.7997,5.5829zm22.8675 -4.3602c0,0 0.4921,-0.7887 0.0952,-2.1418 -0.397,-1.353 -0.8949,-3.441 -0.8949,-3.441 0,0 2.9854,3.766 0.7997,5.5828zm-9.0723 0c0,0 0.4921,-0.7887 0.0951,-2.1418 -0.3969,-1.3531 -0.8948,-3.4411 -0.8948,-3.4411 0,0 2.9853,3.7661 0.7997,5.5829zm5.4263 -9.4801c0,0 0.4921,-0.7886 0.0952,-2.1417 -0.3969,-1.3531 -0.8948,-3.4411 -0.8948,-3.4411 0,0 2.9853,3.766 0.7996,5.5828zm-3.1885 4.5575c0,0 0.4921,-0.7887 0.0952,-2.1418 -0.397,-1.3531 -0.8949,-3.4411 -0.8949,-3.4411 0,0 2.9854,3.7661 0.7997,5.5829zm3.0406 9.2828c0,0 0.4921,-0.7887 0.0951,-2.1418 -0.3969,-1.3531 -0.8948,-3.4411 -0.8948,-3.4411 0,0 2.9853,3.7661 0.7997,5.5829zm-11.4085 -3.5011c0,0 -0.8205,0.437 -1.1532,1.8073 -0.3328,1.3702 -0.9456,3.4274 -0.9456,3.4274 0,0 -0.7024,-4.7541 2.0988,-5.2347zm3.7434 0c0,0 0.8205,0.437 1.1533,1.8073 0.3327,1.3702 0.9455,3.4274 0.9455,3.4274 0,0 0.7024,-4.7541 -2.0988,-5.2347zm-5.8724 6.5327c0,0 0.8206,-0.437 1.1533,-1.8073 0.3328,-1.3703 0.9456,-3.4275 0.9456,-3.4275 0,0 0.7024,4.7542 -2.0989,5.2348zm8.0014 0c0,0 -0.8205,-0.437 -1.1533,-1.8073 -0.3328,-1.3703 -0.9456,-3.4275 -0.9456,-3.4275 0,0 -0.7023,4.7542 2.0989,5.2348zm4.1135 -9.7536c0,0 -0.4921,0.7888 -0.0951,2.1418 0.3969,1.3531 0.8948,3.4411 0.8948,3.4411 0,0 -2.9854,-3.7661 -0.7997,-5.5829zm-3.0406 -9.2828c0,0 -0.492,0.7887 -0.0951,2.1418 0.3969,1.3531 0.8948,3.4411 0.8948,3.4411 0,0 -2.9853,-3.7661 -0.7997,-5.5829zm3.1886 -4.5574c0,0 -0.4921,0.7887 -0.0952,2.1418 0.397,1.3531 0.8948,3.4411 0.8948,3.4411 0,0 -2.9853,-3.7661 -0.7996,-5.5829zm-5.4264 9.4801c0,0 -0.492,0.7886 -0.0951,2.1417 0.3969,1.3531 0.8948,3.4411 0.8948,3.4411 0,0 -2.9853,-3.7661 -0.7997,-5.5828zm9.0723 0c0,0 -0.492,0.7887 -0.0951,2.1417 0.3969,1.3531 0.8948,3.4411 0.8948,3.4411 0,0 -2.9853,-3.7661 -0.7997,-5.5828zm-20.0223 4.3601c0,0 0.4921,0.7888 0.0951,2.1418 -0.3969,1.3531 -0.8948,3.4411 -0.8948,3.4411 0,0 2.9853,-3.7661 0.7997,-5.5829zm3.0405 -9.2828c0,0 0.4921,0.7887 0.0952,2.1418 -0.397,1.3531 -0.8948,3.4411 -0.8948,3.4411 0,0 2.9853,-3.7661 0.7996,-5.5829zm-3.1885 -4.5574c0,0 0.4921,0.7887 0.0952,2.1418 -0.397,1.3531 -0.8949,3.4411 -0.8949,3.4411 0,0 2.9854,-3.7661 0.7997,-5.5829zm5.4263 9.4801c0,0 0.4921,0.7886 0.0952,2.1417 -0.397,1.3531 -0.8948,3.4411 -0.8948,3.4411 0,0 2.9853,-3.7661 0.7996,-5.5828zm-9.0723 0c0,0 0.4921,0.7887 0.0952,2.1417 -0.397,1.3531 -0.8948,3.4411 -0.8948,3.4411 0,0 2.9853,-3.7661 0.7996,-5.5828z"/>
  </g>
  <path class="fil15 str6" d="M180.857 101.124c12.0503,0 21.8227,6.3272 21.8227,14.1292 0,7.8021 -9.7724,14.1293 -21.8227,14.1293 -5.935,0 -11.3167,-1.5354 -15.2508,-4.0254l-8.0449 4.01 4.0251 -7.4806c-1.628,-1.9781 -2.552,-4.2358 -2.552,-6.6333 0,-7.802 9.7724,-14.1292 21.8226,-14.1292z"/>
  <path class="fil18" d="M164.293 116.854c0,-0.2032 0.0995,-0.4276 0.2985,-0.6731 0.2455,-0.2413 0.491,-0.4847 0.7366,-0.7303 0.0423,-0.1439 0.0783,-0.2582 0.1079,-0.3429 0.0593,-0.1651 0.1609,-0.2476 0.3048,-0.2476 0.0762,0 0.127,0.0212 0.1524,0.0635 0.0127,0.0339 0.0201,0.0995 0.0222,0.1968 0.0021,0.0974 0.0032,0.1948 0.0032,0.2921 0,0.1397 -0.1916,0.4033 -0.5747,0.7906 -0.3831,0.3874 -0.5619,0.6234 -0.5365,0.708 0.0592,0.2075 0.2328,0.3112 0.5207,0.3112 0.1312,0 0.3079,-0.0826 0.5302,-0.2477 0.2222,-0.1651 0.4477,-0.3365 0.6763,-0.5143 0.0381,0 0.0762,0.018 0.1143,0.054 0.0381,0.036 0.0571,0.0899 0.0571,0.1619 0,0.2074 -0.1651,0.436 -0.4953,0.6858 -0.3302,0.2498 -0.6413,0.3746 -0.9334,0.3746 -0.271,0 -0.4996,-0.0783 -0.6858,-0.2349 -0.199,-0.1693 -0.2985,-0.3852 -0.2985,-0.6477zm0.9589 -3.2766c0,-0.1016 0.0254,-0.1852 0.0762,-0.2508 0.0508,-0.0656 0.1291,-0.0985 0.2349,-0.0985 0.0974,0 0.1757,0.0297 0.235,0.0889 0.0592,0.0593 0.0889,0.1376 0.0889,0.235 0,0.0974 -0.0276,0.182 -0.0826,0.254 -0.055,0.072 -0.127,0.1122 -0.2159,0.1206 -0.1016,0 -0.1831,-0.0328 -0.2445,-0.0984 -0.0614,-0.0656 -0.092,-0.1492 -0.092,-0.2508zm3.9243 1.2573c0,0.5249 -0.1948,1.1314 -0.5842,1.8193 -0.3895,0.6879 -0.7176,1.0318 -0.9843,1.0318 -0.2117,0 -0.3598,-0.2582 -0.4445,-0.7747 -0.0847,-0.5164 -0.127,-1.325 -0.127,-2.4257l0 -0.8318c0.3006,-0.1439 0.599,-0.2159 0.8954,-0.2159 0.3767,0 0.6731,0.1122 0.889,0.3365 0.237,0.2456 0.3556,0.5991 0.3556,1.0605zm-0.5398 0.0571c0,-0.2921 -0.0339,-0.5058 -0.1016,-0.6413 -0.0889,-0.1778 -0.2455,-0.2667 -0.4699,-0.2667 -0.1397,0 -0.29,0.0402 -0.4508,0.1206 0,0.8001 0.0084,1.4669 0.0254,2.0003 0.0169,0.5334 0.0359,0.8001 0.0571,0.8001 0.3852,-0.5461 0.6382,-0.944 0.7588,-1.1938 0.1207,-0.2498 0.181,-0.5228 0.181,-0.8192zm3.537 0.9525c0,0.5715 -0.1079,1.0436 -0.3238,1.4161 -0.2329,0.4022 -0.5483,0.6033 -0.9462,0.6033 -0.453,0 -0.8107,-0.2181 -1.0731,-0.6541 -0.2625,-0.436 -0.3937,-0.9843 -0.3937,-1.6447 0,-0.5969 0.1068,-1.0964 0.3206,-1.4986 0.2138,-0.4021 0.5027,-0.6032 0.8668,-0.6032 0.4699,0 0.8488,0.2349 1.1367,0.7048 0.2751,0.4488 0.4127,1.0076 0.4127,1.6764zm-0.5334 -0.0063c0,-0.5207 -0.0804,-0.9504 -0.2413,-1.2891 -0.1736,-0.364 -0.4106,-0.5461 -0.7112,-0.5461 -0.199,0 -0.363,0.1524 -0.4921,0.4572 -0.1291,0.3048 -0.1937,0.6837 -0.1937,1.1367 0,0.5122 0.0783,0.9271 0.235,1.2446 0.1778,0.3598 0.4233,0.5397 0.7366,0.5397 0.1905,0 0.3492,-0.1471 0.4762,-0.4413 0.127,-0.2942 0.1905,-0.6614 0.1905,-1.1017zm-0.1968 -3.2068c0,0.0889 -0.0995,0.1948 -0.2985,0.3175 -0.0635,0.0381 -0.163,0.0911 -0.2984,0.1588l-0.5144 0c0.1651,-0.1778 0.29,-0.3112 0.3747,-0.4001 0.2667,-0.2709 0.4318,-0.4064 0.4953,-0.4064 0.1058,0 0.1756,0.0297 0.2095,0.0889 0.0212,0.0381 0.0318,0.1186 0.0318,0.2413zm3.7465 1.905l0 1.7018 0 0.2731c0,0.5715 -0.0265,0.9588 -0.0794,1.162 -0.0529,0.2033 -0.1301,0.3049 -0.2317,0.3049 -0.2075,0 -0.4107,-0.18 -0.6096,-0.5398 -0.1016,-0.1863 -0.2742,-0.5937 -0.5176,-1.2224 -0.2434,-0.6286 -0.4498,-1.089 -0.6191,-1.3811 0,0.1355 0.0042,0.4138 0.0127,0.835 0.0085,0.4212 0.0127,0.6678 0.0127,0.7398 0,0.4106 -0.0169,0.726 -0.0508,0.9461 -0.0339,0.2202 -0.0995,0.3302 -0.1968,0.3302 -0.1397,0 -0.2403,-0.1174 -0.3017,-0.3524 -0.0614,-0.2349 -0.092,-0.5577 -0.092,-0.9684l0 -1.7907c0,-0.3937 0.0201,-0.6953 0.0603,-0.9048 0.0402,-0.2096 0.1196,-0.3144 0.2381,-0.3144 0.1439,0 0.3408,0.2392 0.5906,0.7176 0.1651,0.3175 0.3862,0.8075 0.6635,1.47 0.2773,0.6625 0.4562,1.0763 0.5366,1.2414l-0.0444 -2.1145c0,-0.4995 0.0232,-0.8869 0.0698,-1.1621 0.0466,-0.2751 0.1291,-0.4127 0.2477,-0.4127 0.1164,0 0.1968,0.1249 0.2423,0.3746 0.0455,0.2498 0.0688,0.6054 0.0688,1.0668zm2.5147 0.2985c0,0.5249 -0.1948,1.1314 -0.5842,1.8193 -0.3895,0.6879 -0.7176,1.0318 -0.9843,1.0318 -0.2117,0 -0.3598,-0.2582 -0.4445,-0.7747 -0.0847,-0.5164 -0.127,-1.325 -0.127,-2.4257l0 -0.8318c0.3006,-0.1439 0.599,-0.2159 0.8954,-0.2159 0.3767,0 0.6731,0.1122 0.889,0.3365 0.237,0.2456 0.3556,0.5991 0.3556,1.0605zm-0.5398 0.0571c0,-0.2921 -0.0339,-0.5058 -0.1016,-0.6413 -0.0889,-0.1778 -0.2455,-0.2667 -0.4699,-0.2667 -0.1397,0 -0.29,0.0402 -0.4508,0.1206 0,0.8001 0.0084,1.4669 0.0254,2.0003 0.0169,0.5334 0.0359,0.8001 0.0571,0.8001 0.3852,-0.5461 0.6382,-0.944 0.7588,-1.1938 0.1207,-0.2498 0.181,-0.5228 0.181,-0.8192zm2.6353 2.2098c0,0.1609 -0.1482,0.29 -0.4445,0.3874 -0.254,0.0847 -0.5355,0.127 -0.8445,0.127 -0.1567,0 -0.2689,-0.0783 -0.3366,-0.235 -0.0508,-0.1185 -0.0762,-0.2783 -0.0762,-0.4773 -0.0042,-0.182 -0.0085,-0.3344 -0.0127,-0.4582 -0.0296,-0.8774 -0.0444,-1.5177 -0.0444,-1.9198 0,-0.4964 0.0127,-0.8964 0.0381,-1.2023l1.1239 -0.1397c0.0423,0 0.072,0 0.0889,0 0.1101,0 0.1969,0.0201 0.2604,0.0603 0.0635,0.0402 0.0952,0.1027 0.0952,0.1873 0,0.072 -0.0423,0.1376 -0.127,0.1969 -0.0847,0.0593 -0.1799,0.0995 -0.2857,0.1206l-0.5842 0.108 0 1.2509 0.5207 -0.0254c0.1651,0 0.2815,0.0297 0.3492,0.0889 0.0677,0.0593 0.1016,0.1397 0.1016,0.2413 0,0.0847 -0.0349,0.1535 -0.1048,0.2064 -0.0698,0.0529 -0.1534,0.0794 -0.2508,0.0794l-0.5778 0.0381 0.0381 1.1747c0.0846,0 0.1957,-0.0095 0.3333,-0.0285 0.1376,-0.0191 0.2657,-0.0371 0.3842,-0.054 0.1058,0 0.1916,0.0201 0.2572,0.0603 0.0656,0.0402 0.0984,0.1111 0.0984,0.2127zm5.1118 -3.7401c0,0.1609 -0.0741,0.5419 -0.2223,1.143 -0.127,0.508 -0.2646,1.0276 -0.4127,1.5589 -0.1482,0.5313 -0.2244,0.7969 -0.2286,0.7969 -0.0731,0.271 -0.145,0.4784 -0.217,0.6223 -0.0889,0.1821 -0.1842,0.2816 -0.2858,0.2985 -0.1651,0.0296 -0.3365,-0.3577 -0.5143,-1.1621l-0.4434 -2.0193c-0.0466,-0.2032 -0.0699,-0.3979 -0.0699,-0.5842 0,-0.11 0.0138,-0.1809 0.0413,-0.2127 0.0275,-0.0317 0.0688,-0.0434 0.1238,-0.0349 0.072,0.0085 0.1365,0.0508 0.1937,0.127 0.0571,0.0762 0.1005,0.1693 0.1302,0.2794l0.5715 2.3622c0.1481,-0.4868 0.3132,-1.1176 0.4953,-1.8923 0.1354,-0.5842 0.2413,-0.9694 0.3175,-1.1557 0.1058,-0.2625 0.2391,-0.3937 0.4,-0.3937 0.0804,0 0.1207,0.0889 0.1207,0.2667zm0.8127 3.7846c0,0.3471 -0.0212,0.599 -0.0624,0.7557 -0.053,0.2032 -0.1461,0.3048 -0.2784,0.3048 -0.0709,0 -0.1217,-0.0858 -0.1524,-0.2572 -0.0307,-0.1715 -0.0465,-0.4096 -0.0465,-0.7144l-0.0826 -2.8321c0,-0.1947 0.0222,-0.345 0.0667,-0.4509 0.0444,-0.1058 0.128,-0.1587 0.2508,-0.1587 0.1185,0 0.199,0.1037 0.2413,0.3111 0.0423,0.2075 0.0635,0.5631 0.0635,1.0668l0 1.9749zm2.8639 -3.7846c0,0.1609 -0.0741,0.5419 -0.2223,1.143 -0.127,0.508 -0.2646,1.0276 -0.4127,1.5589 -0.1482,0.5313 -0.2244,0.7969 -0.2286,0.7969 -0.0731,0.271 -0.145,0.4784 -0.217,0.6223 -0.0889,0.1821 -0.1842,0.2816 -0.2858,0.2985 -0.1651,0.0296 -0.3365,-0.3577 -0.5143,-1.1621l-0.4434 -2.0193c-0.0466,-0.2032 -0.0699,-0.3979 -0.0699,-0.5842 0,-0.11 0.0138,-0.1809 0.0413,-0.2127 0.0275,-0.0317 0.0688,-0.0434 0.1238,-0.0349 0.072,0.0085 0.1365,0.0508 0.1937,0.127 0.0571,0.0762 0.1005,0.1693 0.1302,0.2794l0.5715 2.3622c0.1481,-0.4868 0.3132,-1.1176 0.4953,-1.8923 0.1354,-0.5842 0.2413,-0.9694 0.3175,-1.1557 0.1058,-0.2625 0.2391,-0.3937 0.4,-0.3937 0.0804,0 0.1207,0.0889 0.1207,0.2667zm1.9811 3.7401c0,0.1609 -0.1482,0.29 -0.4445,0.3874 -0.254,0.0847 -0.5355,0.127 -0.8445,0.127 -0.1567,0 -0.2689,-0.0783 -0.3366,-0.235 -0.0508,-0.1185 -0.0762,-0.2783 -0.0762,-0.4773 -0.0042,-0.182 -0.0085,-0.3344 -0.0127,-0.4582 -0.0296,-0.8774 -0.0444,-1.5177 -0.0444,-1.9198 0,-0.4964 0.0127,-0.8964 0.0381,-1.2023l1.1239 -0.1397c0.0423,0 0.072,0 0.0889,0 0.1101,0 0.1969,0.0201 0.2604,0.0603 0.0635,0.0402 0.0952,0.1027 0.0952,0.1873 0,0.072 -0.0423,0.1376 -0.127,0.1969 -0.0847,0.0593 -0.1799,0.0995 -0.2857,0.1206l-0.5842 0.108 0 1.2509 0.5207 -0.0254c0.1651,0 0.2815,0.0297 0.3492,0.0889 0.0677,0.0593 0.1016,0.1397 0.1016,0.2413 0,0.0847 -0.0349,0.1535 -0.1048,0.2064 -0.0698,0.0529 -0.1534,0.0794 -0.2508,0.0794l-0.5778 0.0381 0.0381 1.1747c0.0846,0 0.1957,-0.0095 0.3333,-0.0285 0.1376,-0.0191 0.2657,-0.0371 0.3842,-0.054 0.1058,0 0.1916,0.0201 0.2572,0.0603 0.0656,0.0402 0.0984,0.1111 0.0984,0.2127zm2.7559 -0.6667c0,0.3514 -0.1418,0.6361 -0.4254,0.8541 -0.2837,0.218 -0.6329,0.327 -1.0478,0.327 -0.2286,0 -0.4635,-0.0614 -0.7048,-0.1842 -0.2413,-0.1227 -0.362,-0.2561 -0.362,-0.4 0,-0.0593 0.0286,-0.1154 0.0857,-0.1683 0.0572,-0.0529 0.1217,-0.0794 0.1937,-0.0794 0.0254,0 0.1503,0.0519 0.3747,0.1556 0.2243,0.1037 0.3725,0.1556 0.4445,0.1556 0.2286,0 0.4222,-0.055 0.581,-0.1651 0.1587,-0.1101 0.2381,-0.2625 0.2381,-0.4572 0,-0.2032 -0.1799,-0.3916 -0.5397,-0.5652 -0.3387,-0.1566 -0.6774,-0.3132 -1.016,-0.4699 -0.3641,-0.2116 -0.5461,-0.4572 -0.5461,-0.7366 0,-0.2963 0.1608,-0.5831 0.4826,-0.8604 0.3217,-0.2773 0.6752,-0.4159 1.0604,-0.4159 0.2709,0 0.4445,0.0042 0.5207,0.0127 0.2413,0.0254 0.362,0.1291 0.362,0.3111 0,0.1313 -0.2943,0.2202 -0.8827,0.2667 -0.5884,0.0466 -0.8826,0.2646 -0.8826,0.6541 0,0.2074 0.1778,0.3725 0.5334,0.4953 0.6011,0.2032 0.9313,0.3217 0.9906,0.3556 0.3598,0.2032 0.5397,0.508 0.5397,0.9144zm2.8639 -2.3241c0,0.2032 -0.0995,0.4276 -0.2984,0.6731 -0.2456,0.2455 -0.4911,0.4889 -0.7366,0.7302 -0.0424,0.144 -0.0784,0.2583 -0.108,0.3429 -0.0593,0.1651 -0.1609,0.2477 -0.3048,0.2477 -0.0762,0 -0.127,-0.0212 -0.1524,-0.0635 -0.0085,-0.0212 -0.0148,-0.0847 -0.019,-0.1905 -0.0043,-0.1058 -0.0064,-0.1842 -0.0064,-0.235 0,-0.0296 0,-0.0465 0,-0.0508 0,-0.0042 0,-0.0084 0,-0.0127 0,-0.1397 0.1916,-0.4032 0.5747,-0.7905 0.3831,-0.3874 0.562,-0.6234 0.5366,-0.7081 -0.0593,-0.2074 -0.2329,-0.3111 -0.5207,-0.3111 -0.1313,0 -0.3048,0.0783 -0.5207,0.2349 -0.2286,0.1778 -0.4572,0.3535 -0.6858,0.5271 -0.0381,0 -0.072,-0.0148 -0.1016,-0.0445 -0.0466,-0.0423 -0.0699,-0.0994 -0.0699,-0.1714 0,-0.2074 0.1651,-0.436 0.4953,-0.6858 0.3302,-0.2498 0.6414,-0.3747 0.9335,-0.3747 0.2709,0 0.5027,0.0815 0.6953,0.2445 0.1926,0.163 0.2889,0.3757 0.2889,0.6382zm-0.9588 3.2766c0,0.1016 -0.0254,0.1852 -0.0762,0.2508 -0.0508,0.0656 -0.1292,0.0984 -0.235,0.0984 -0.0974,0 -0.1757,-0.0296 -0.2349,-0.0889 -0.0593,-0.0592 -0.0889,-0.1375 -0.0889,-0.2349 0,-0.0974 0.0275,-0.182 0.0825,-0.254 0.055,-0.072 0.127,-0.1122 0.2159,-0.1207 0.1016,0 0.1831,0.0329 0.2445,0.0985 0.0614,0.0656 0.0921,0.1492 0.0921,0.2508z"/>
  <path class="fil0 str0" d="M114.215 143.567l13.0238 0 0 5.6497c0,1.639 -2.9159,2.9683 -6.5118,2.9683 -3.5957,0 -6.512,-1.3293 -6.512,-2.9683l0 -5.6497z"/>
  <path class="fil18" d="M290.693 116.827c0,-0.2032 0.0995,-0.4276 0.2985,-0.6731 0.2455,-0.2413 0.491,-0.4847 0.7366,-0.7303 0.0423,-0.1439 0.0783,-0.2582 0.1079,-0.3429 0.0593,-0.1651 0.1609,-0.2476 0.3048,-0.2476 0.0762,0 0.127,0.0212 0.1524,0.0635 0.0127,0.0339 0.0201,0.0995 0.0222,0.1968 0.0021,0.0974 0.0032,0.1948 0.0032,0.2921 0,0.1397 -0.1916,0.4033 -0.5747,0.7906 -0.3831,0.3874 -0.5619,0.6234 -0.5365,0.708 0.0592,0.2075 0.2328,0.3112 0.5207,0.3112 0.1312,0 0.3079,-0.0826 0.5302,-0.2477 0.2222,-0.1651 0.4477,-0.3365 0.6763,-0.5143 0.0381,0 0.0762,0.018 0.1143,0.054 0.0381,0.036 0.0571,0.0899 0.0571,0.1619 0,0.2074 -0.1651,0.436 -0.4953,0.6858 -0.3302,0.2498 -0.6413,0.3746 -0.9334,0.3746 -0.271,0 -0.4996,-0.0783 -0.6858,-0.2349 -0.199,-0.1693 -0.2985,-0.3852 -0.2985,-0.6477zm0.9589 -3.2766c0,-0.1016 0.0254,-0.1852 0.0762,-0.2508 0.0508,-0.0656 0.1291,-0.0985 0.2349,-0.0985 0.0974,0 0.1757,0.0297 0.235,0.0889 0.0592,0.0593 0.0889,0.1376 0.0889,0.235 0,0.0974 -0.0276,0.182 -0.0826,0.254 -0.055,0.072 -0.127,0.1122 -0.2159,0.1206 -0.1016,0 -0.1831,-0.0328 -0.2445,-0.0984 -0.0614,-0.0656 -0.092,-0.1492 -0.092,-0.2508zm3.9243 1.2573c0,0.5249 -0.1948,1.1314 -0.5842,1.8193 -0.3895,0.6879 -0.7176,1.0318 -0.9843,1.0318 -0.2117,0 -0.3598,-0.2582 -0.4445,-0.7747 -0.0847,-0.5164 -0.127,-1.325 -0.127,-2.4257l0 -0.8318c0.3006,-0.1439 0.599,-0.2159 0.8954,-0.2159 0.3767,0 0.6731,0.1122 0.889,0.3365 0.237,0.2456 0.3556,0.5991 0.3556,1.0605zm-0.5398 0.0571c0,-0.2921 -0.0339,-0.5058 -0.1016,-0.6413 -0.0889,-0.1778 -0.2455,-0.2667 -0.4699,-0.2667 -0.1397,0 -0.29,0.0402 -0.4508,0.1206 0,0.8001 0.0084,1.4669 0.0254,2.0003 0.0169,0.5334 0.0359,0.8001 0.0571,0.8001 0.3852,-0.5461 0.6382,-0.944 0.7588,-1.1938 0.1207,-0.2498 0.181,-0.5228 0.181,-0.8192zm2.6353 2.2098c0,0.1609 -0.1482,0.29 -0.4445,0.3874 -0.254,0.0847 -0.5355,0.127 -0.8445,0.127 -0.1567,0 -0.2689,-0.0783 -0.3366,-0.235 -0.0508,-0.1185 -0.0762,-0.2783 -0.0762,-0.4773 -0.0042,-0.182 -0.0085,-0.3344 -0.0127,-0.4582 -0.0296,-0.8774 -0.0444,-1.5177 -0.0444,-1.9198 0,-0.4964 0.0127,-0.8964 0.0381,-1.2023l1.1239 -0.1397c0.0423,0 0.072,0 0.0889,0 0.1101,0 0.1969,0.0201 0.2604,0.0603 0.0635,0.0402 0.0952,0.1027 0.0952,0.1873 0,0.072 -0.0423,0.1376 -0.127,0.1969 -0.0847,0.0593 -0.1799,0.0995 -0.2857,0.1206l-0.5842 0.108 0 1.2509 0.5207 -0.0254c0.1651,0 0.2815,0.0297 0.3492,0.0889 0.0677,0.0593 0.1016,0.1397 0.1016,0.2413 0,0.0847 -0.0349,0.1535 -0.1048,0.2064 -0.0698,0.0529 -0.1534,0.0794 -0.2508,0.0794l-0.5778 0.0381 0.0381 1.1747c0.0846,0 0.1957,-0.0095 0.3333,-0.0285 0.1376,-0.0191 0.2657,-0.0371 0.3842,-0.054 0.1058,0 0.1916,0.0201 0.2572,0.0603 0.0656,0.0402 0.0984,0.1111 0.0984,0.2127zm4.9721 -2.2669c0,0.5249 -0.1948,1.1314 -0.5842,1.8193 -0.3895,0.6879 -0.7176,1.0318 -0.9843,1.0318 -0.2117,0 -0.3598,-0.2582 -0.4445,-0.7747 -0.0847,-0.5164 -0.127,-1.325 -0.127,-2.4257l0 -0.8318c0.3006,-0.1439 0.599,-0.2159 0.8954,-0.2159 0.3767,0 0.6731,0.1122 0.889,0.3365 0.237,0.2456 0.3556,0.5991 0.3556,1.0605zm-0.5398 0.0571c0,-0.2921 -0.0339,-0.5058 -0.1016,-0.6413 -0.0889,-0.1778 -0.2455,-0.2667 -0.4699,-0.2667 -0.1397,0 -0.29,0.0402 -0.4508,0.1206 0,0.8001 0.0084,1.4669 0.0254,2.0003 0.0169,0.5334 0.0359,0.8001 0.0571,0.8001 0.3852,-0.5461 0.6382,-0.944 0.7588,-1.1938 0.1207,-0.2498 0.181,-0.5228 0.181,-0.8192zm3.537 0.9525c0,0.5715 -0.1079,1.0436 -0.3238,1.4161 -0.2329,0.4022 -0.5483,0.6033 -0.9462,0.6033 -0.453,0 -0.8107,-0.2181 -1.0731,-0.6541 -0.2625,-0.436 -0.3937,-0.9843 -0.3937,-1.6447 0,-0.5969 0.1068,-1.0964 0.3206,-1.4986 0.2138,-0.4021 0.5027,-0.6032 0.8668,-0.6032 0.4699,0 0.8488,0.2349 1.1367,0.7048 0.2751,0.4488 0.4127,1.0076 0.4127,1.6764zm-0.5334 -0.0063c0,-0.5207 -0.0804,-0.9504 -0.2413,-1.2891 -0.1736,-0.364 -0.4106,-0.5461 -0.7112,-0.5461 -0.199,0 -0.363,0.1524 -0.4921,0.4572 -0.1291,0.3048 -0.1937,0.6837 -0.1937,1.1367 0,0.5122 0.0783,0.9271 0.235,1.2446 0.1778,0.3598 0.4233,0.5397 0.7366,0.5397 0.1905,0 0.3492,-0.1471 0.4762,-0.4413 0.127,-0.2942 0.1905,-0.6614 0.1905,-1.1017zm-0.1968 -3.2068c0,0.0889 -0.0995,0.1948 -0.2985,0.3175 -0.0635,0.0381 -0.163,0.0911 -0.2984,0.1588l-0.5144 0c0.1651,-0.1778 0.29,-0.3112 0.3747,-0.4001 0.2667,-0.2709 0.4318,-0.4064 0.4953,-0.4064 0.1058,0 0.1756,0.0297 0.2095,0.0889 0.0212,0.0381 0.0318,0.1186 0.0318,0.2413zm3.7465 1.905l0 1.7018 0 0.2731c0,0.5715 -0.0265,0.9588 -0.0794,1.162 -0.0529,0.2033 -0.1301,0.3049 -0.2317,0.3049 -0.2075,0 -0.4107,-0.18 -0.6096,-0.5398 -0.1016,-0.1863 -0.2742,-0.5937 -0.5176,-1.2224 -0.2434,-0.6286 -0.4498,-1.089 -0.6191,-1.3811 0,0.1355 0.0042,0.4138 0.0127,0.835 0.0085,0.4212 0.0127,0.6678 0.0127,0.7398 0,0.4106 -0.0169,0.726 -0.0508,0.9461 -0.0339,0.2202 -0.0995,0.3302 -0.1968,0.3302 -0.1397,0 -0.2403,-0.1174 -0.3017,-0.3524 -0.0614,-0.2349 -0.092,-0.5577 -0.092,-0.9684l0 -1.7907c0,-0.3937 0.0201,-0.6953 0.0603,-0.9048 0.0402,-0.2096 0.1196,-0.3144 0.2381,-0.3144 0.1439,0 0.3408,0.2392 0.5906,0.7176 0.1651,0.3175 0.3862,0.8075 0.6635,1.47 0.2773,0.6625 0.4562,1.0763 0.5366,1.2414l-0.0444 -2.1145c0,-0.4995 0.0232,-0.8869 0.0698,-1.1621 0.0466,-0.2751 0.1291,-0.4127 0.2477,-0.4127 0.1164,0 0.1968,0.1249 0.2423,0.3746 0.0455,0.2498 0.0688,0.6054 0.0688,1.0668zm2.5147 0.2985c0,0.5249 -0.1948,1.1314 -0.5842,1.8193 -0.3895,0.6879 -0.7176,1.0318 -0.9843,1.0318 -0.2117,0 -0.3598,-0.2582 -0.4445,-0.7747 -0.0847,-0.5164 -0.127,-1.325 -0.127,-2.4257l0 -0.8318c0.3006,-0.1439 0.599,-0.2159 0.8954,-0.2159 0.3767,0 0.6731,0.1122 0.889,0.3365 0.237,0.2456 0.3556,0.5991 0.3556,1.0605zm-0.5398 0.0571c0,-0.2921 -0.0339,-0.5058 -0.1016,-0.6413 -0.0889,-0.1778 -0.2455,-0.2667 -0.4699,-0.2667 -0.1397,0 -0.29,0.0402 -0.4508,0.1206 0,0.8001 0.0084,1.4669 0.0254,2.0003 0.0169,0.5334 0.0359,0.8001 0.0571,0.8001 0.3852,-0.5461 0.6382,-0.944 0.7588,-1.1938 0.1207,-0.2498 0.181,-0.5228 0.181,-0.8192zm2.6353 2.2098c0,0.1609 -0.1482,0.29 -0.4445,0.3874 -0.254,0.0847 -0.5355,0.127 -0.8445,0.127 -0.1567,0 -0.2689,-0.0783 -0.3366,-0.235 -0.0508,-0.1185 -0.0762,-0.2783 -0.0762,-0.4773 -0.0042,-0.182 -0.0085,-0.3344 -0.0127,-0.4582 -0.0296,-0.8774 -0.0444,-1.5177 -0.0444,-1.9198 0,-0.4964 0.0127,-0.8964 0.0381,-1.2023l1.1239 -0.1397c0.0423,0 0.072,0 0.0889,0 0.1101,0 0.1969,0.0201 0.2604,0.0603 0.0635,0.0402 0.0952,0.1027 0.0952,0.1873 0,0.072 -0.0423,0.1376 -0.127,0.1969 -0.0847,0.0593 -0.1799,0.0995 -0.2857,0.1206l-0.5842 0.108 0 1.2509 0.5207 -0.0254c0.1651,0 0.2815,0.0297 0.3492,0.0889 0.0677,0.0593 0.1016,0.1397 0.1016,0.2413 0,0.0847 -0.0349,0.1535 -0.1048,0.2064 -0.0698,0.0529 -0.1534,0.0794 -0.2508,0.0794l-0.5778 0.0381 0.0381 1.1747c0.0846,0 0.1957,-0.0095 0.3333,-0.0285 0.1376,-0.0191 0.2657,-0.0371 0.3842,-0.054 0.1058,0 0.1916,0.0201 0.2572,0.0603 0.0656,0.0402 0.0984,0.1111 0.0984,0.2127zm4.6609 0c0,0.1609 -0.1482,0.29 -0.4445,0.3874 -0.254,0.0847 -0.5355,0.127 -0.8445,0.127 -0.1567,0 -0.2689,-0.0783 -0.3366,-0.235 -0.0508,-0.1185 -0.0762,-0.2783 -0.0762,-0.4773 -0.0042,-0.182 -0.0085,-0.3344 -0.0127,-0.4582 -0.0296,-0.8774 -0.0444,-1.5177 -0.0444,-1.9198 0,-0.4964 0.0127,-0.8964 0.0381,-1.2023l1.1239 -0.1397c0.0423,0 0.072,0 0.0889,0 0.1101,0 0.1969,0.0201 0.2604,0.0603 0.0635,0.0402 0.0952,0.1027 0.0952,0.1873 0,0.072 -0.0423,0.1376 -0.127,0.1969 -0.0847,0.0593 -0.1799,0.0995 -0.2857,0.1206l-0.5842 0.108 0 1.2509 0.5207 -0.0254c0.1651,0 0.2815,0.0297 0.3492,0.0889 0.0677,0.0593 0.1016,0.1397 0.1016,0.2413 0,0.0847 -0.0349,0.1535 -0.1048,0.2064 -0.0698,0.0529 -0.1534,0.0794 -0.2508,0.0794l-0.5778 0.0381 0.0381 1.1747c0.0846,0 0.1957,-0.0095 0.3333,-0.0285 0.1376,-0.0191 0.2657,-0.0371 0.3842,-0.054 0.1058,0 0.1916,0.0201 0.2572,0.0603 0.0656,0.0402 0.0984,0.1111 0.0984,0.2127zm3.0734 0.381c-0.0085,0.0551 -0.0212,0.0953 -0.0381,0.1207 -0.0508,0.0804 -0.1376,0.1206 -0.2603,0.1206 -0.3599,0 -0.7557,-0.1778 -1.1875,-0.5334 -0.4318,-0.3556 -0.6286,-0.6455 -0.5905,-0.8699 0,-0.0466 0.2349,-0.1863 0.7048,-0.4191 0.4699,-0.2328 0.7049,-0.4868 0.7049,-0.762 0,-0.2709 -0.1038,-0.5101 -0.3112,-0.7176 -0.2074,-0.2074 -0.453,-0.3111 -0.7366,-0.3111 -0.1778,0 -0.3492,0.0381 -0.5143,0.1143l0 2.4193c0,0.4742 -0.0223,0.8308 -0.0657,1.07 -0.0444,0.2392 -0.1164,0.3588 -0.2169,0.3588 -0.126,0 -0.2138,-0.1281 -0.2646,-0.3842 -0.0497,-0.2561 -0.0751,-0.6233 -0.0751,-1.1017l0 -1.7971c0,-0.5461 0.0582,-0.89 0.1746,-1.0318 0.1153,-0.1418 0.3958,-0.2128 0.8392,-0.2128 0.5112,0 0.9166,0.1016 1.2161,0.3048 0.346,0.2329 0.5196,0.5821 0.5196,1.0478 0,0.4149 -0.0868,0.7218 -0.2603,0.9207 -0.1567,0.1778 -0.4975,0.3874 -1.0224,0.6287 0.2244,0.2794 0.4741,0.4889 0.7493,0.6286 0.4233,0.2159 0.635,0.3514 0.635,0.4064zm2.14 -0.381c0,0.1609 -0.1482,0.29 -0.4445,0.3874 -0.254,0.0847 -0.5355,0.127 -0.8445,0.127 -0.1567,0 -0.2689,-0.0783 -0.3366,-0.235 -0.0508,-0.1185 -0.0762,-0.2783 -0.0762,-0.4773 -0.0042,-0.182 -0.0085,-0.3344 -0.0127,-0.4582 -0.0296,-0.8774 -0.0444,-1.5177 -0.0444,-1.9198 0,-0.4964 0.0127,-0.8964 0.0381,-1.2023l1.1239 -0.1397c0.0423,0 0.072,0 0.0889,0 0.1101,0 0.1969,0.0201 0.2604,0.0603 0.0635,0.0402 0.0952,0.1027 0.0952,0.1873 0,0.072 -0.0423,0.1376 -0.127,0.1969 -0.0847,0.0593 -0.1799,0.0995 -0.2857,0.1206l-0.5842 0.108 0 1.2509 0.5207 -0.0254c0.1651,0 0.2815,0.0297 0.3492,0.0889 0.0677,0.0593 0.1016,0.1397 0.1016,0.2413 0,0.0847 -0.0349,0.1535 -0.1048,0.2064 -0.0698,0.0529 -0.1534,0.0794 -0.2508,0.0794l-0.5778 0.0381 0.0381 1.1747c0.0846,0 0.1957,-0.0095 0.3333,-0.0285 0.1376,-0.0191 0.2657,-0.0371 0.3842,-0.054 0.1058,0 0.1916,0.0201 0.2572,0.0603 0.0656,0.0402 0.0984,0.1111 0.0984,0.2127zm2.7559 -0.6667c0,0.3514 -0.1418,0.6361 -0.4254,0.8541 -0.2837,0.218 -0.6329,0.327 -1.0478,0.327 -0.2286,0 -0.4635,-0.0614 -0.7048,-0.1842 -0.2413,-0.1227 -0.362,-0.2561 -0.362,-0.4 0,-0.0593 0.0286,-0.1154 0.0857,-0.1683 0.0572,-0.0529 0.1217,-0.0794 0.1937,-0.0794 0.0254,0 0.1503,0.0519 0.3747,0.1556 0.2243,0.1037 0.3725,0.1556 0.4445,0.1556 0.2286,0 0.4222,-0.055 0.581,-0.1651 0.1587,-0.1101 0.2381,-0.2625 0.2381,-0.4572 0,-0.2032 -0.1799,-0.3916 -0.5397,-0.5652 -0.3387,-0.1566 -0.6774,-0.3132 -1.016,-0.4699 -0.3641,-0.2116 -0.5461,-0.4572 -0.5461,-0.7366 0,-0.2963 0.1608,-0.5831 0.4826,-0.8604 0.3217,-0.2773 0.6752,-0.4159 1.0604,-0.4159 0.2709,0 0.4445,0.0042 0.5207,0.0127 0.2413,0.0254 0.362,0.1291 0.362,0.3111 0,0.1313 -0.2943,0.2202 -0.8827,0.2667 -0.5884,0.0466 -0.8826,0.2646 -0.8826,0.6541 0,0.2074 0.1778,0.3725 0.5334,0.4953 0.6011,0.2032 0.9313,0.3217 0.9906,0.3556 0.3598,0.2032 0.5397,0.508 0.5397,0.9144zm2.8639 -2.3241c0,0.2032 -0.0995,0.4276 -0.2984,0.6731 -0.2456,0.2455 -0.4911,0.4889 -0.7366,0.7302 -0.0424,0.144 -0.0784,0.2583 -0.108,0.3429 -0.0593,0.1651 -0.1609,0.2477 -0.3048,0.2477 -0.0762,0 -0.127,-0.0212 -0.1524,-0.0635 -0.0085,-0.0212 -0.0148,-0.0847 -0.019,-0.1905 -0.0043,-0.1058 -0.0064,-0.1842 -0.0064,-0.235 0,-0.0296 0,-0.0465 0,-0.0508 0,-0.0042 0,-0.0084 0,-0.0127 0,-0.1397 0.1916,-0.4032 0.5747,-0.7905 0.3831,-0.3874 0.562,-0.6234 0.5366,-0.7081 -0.0593,-0.2074 -0.2329,-0.3111 -0.5207,-0.3111 -0.1313,0 -0.3048,0.0783 -0.5207,0.2349 -0.2286,0.1778 -0.4572,0.3535 -0.6858,0.5271 -0.0381,0 -0.072,-0.0148 -0.1016,-0.0445 -0.0466,-0.0423 -0.0699,-0.0994 -0.0699,-0.1714 0,-0.2074 0.1651,-0.436 0.4953,-0.6858 0.3302,-0.2498 0.6414,-0.3747 0.9335,-0.3747 0.2709,0 0.5027,0.0815 0.6953,0.2445 0.1926,0.163 0.2889,0.3757 0.2889,0.6382zm-0.9588 3.2766c0,0.1016 -0.0254,0.1852 -0.0762,0.2508 -0.0508,0.0656 -0.1292,0.0984 -0.235,0.0984 -0.0974,0 -0.1757,-0.0296 -0.2349,-0.0889 -0.0593,-0.0592 -0.0889,-0.1375 -0.0889,-0.2349 0,-0.0974 0.0275,-0.182 0.0825,-0.254 0.055,-0.072 0.127,-0.1122 0.2159,-0.1207 0.1016,0 0.1831,0.0329 0.2445,0.0985 0.0614,0.0656 0.0921,0.1492 0.0921,0.2508z"/>
  <g id="_606795880">
   <path id="_606796984" class="fil0 str0" d="M92.2154 129.059c0.7087,-0.5381 2.1561,0.1748 3.2324,1.5921 1.0762,1.4173 1.3743,3.0031 0.6657,3.5412 -0.7087,0.5381 -2.1561,-0.1748 -3.2324,-1.5921 -1.0762,-1.4173 -1.3743,-3.0031 -0.6657,-3.5412zm54.5539 -6.9033c-0.8203,-0.3446 -2.0445,0.7064 -2.7338,2.3471 -0.6893,1.6407 -0.5831,3.2507 0.2373,3.5954 0.8204,0.3446 2.0446,-0.7064 2.7339,-2.3471 0.6893,-1.6407 0.583,-3.2507 -0.2374,-3.5954z"/>
   <path id="_606796912" class="fil0 str0" d="M115.848 96.8104c27.3575,-3.4618 27.326,14.1683 29.0819,28.0452 1.756,13.8768 -8.8449,20.4601 -22.7218,22.2161 -13.8768,1.756 -25.7835,-1.9792 -27.5395,-15.856 -1.7559,-13.8769 -6.1781,-30.9434 21.1794,-34.4053z"/>
   <path id="_606796840" class="fil3 str0" d="M118.052 130.786c0,0 2.1878,0.9872 4.1255,-0.522"/>
   <path id="_606796768" class="fil10 str4" d="M110.099 109.921c-0.4359,0.6194 -0.3125,2.8567 -5.323,3.6423 -5.0105,0.7856 -5.7607,1.8188 -7.178,7.378 -1.4173,5.5591 -1.4522,16.2314 -1.4522,16.2314 0,0 -2.3413,-6.5963 -4.5185,-10.8512 -2.1771,-4.2548 -3.7767,-16.1333 5.5165,-23.4441 8.2018,-6.4525 16.6365,-7.4939 18.5045,-7.6494 1.8478,-0.3147 10.276,-1.4071 19.8266,2.7989 10.8213,4.7655 12.231,16.668 11.1823,21.3311 -1.0487,4.663 -1.673,11.6347 -1.673,11.6347 0,0 -2.6922,-10.3273 -5.4496,-15.3581 -2.7574,-5.0309 -18.3248,-3.9993 -23.3731,-3.5121 -5.0483,0.4873 -5.4861,-1.7102 -6.0625,-2.2015z"/>
   <path id="_606796696" class="fil19" d="M91.6088 111.437c0,0 5.9398,2.3764 4.0256,4.5295 -1.9142,2.1531 -4.0256,-4.5295 -4.0256,-4.5295z"/>
   <ellipse id="_606796624" class="fil15 str4" transform="matrix(-0.413538 0.533359 0.533359 0.413538 94.6743 114.961)" rx="1.04" ry="0.3536"/>
   <path id="_606796552" class="fil11" d="M133.433 100.428c0,0 4.3902,2.6492 4.8772,6.688 0,0 -2.181,-3.3983 -4.8772,-6.688z"/>
   <path id="_606796480" class="fil11" d="M126.025 99.03c0,0 4.3902,2.6493 4.8773,6.688 0,0 -2.1811,-3.3982 -4.8773,-6.688z"/>
   <path id="_606796408" class="fil11" d="M118.425 97.9353c0,0 4.3902,2.6492 4.8773,6.688 0,0 -2.1811,-3.3982 -4.8773,-6.688z"/>
   <path id="_606796336" class="fil11" d="M101.259 102.164c0,0 -3.5919,3.6593 -3.0575,7.6921 0,0 1.2657,-3.8344 3.0575,-7.6921z"/>
   <path id="_606796264" class="fil20 str11" d="M123.924 138.588c0.1918,1.5155 -0.8818,2.9002 -2.3973,3.0919 -1.5155,0.1918 -2.9001,-0.8818 -3.0919,-2.3973l5.4892 -0.6946z"/>
   <path id="_606796192" class="fil21" d="M103.646 134.234c1.6737,-0.2118 3.2029,0.9737 3.4147,2.6475 0.2118,1.6738 -0.9739,3.2028 -2.6476,3.4146 -1.6738,0.2118 -3.2029,-0.9737 -3.4147,-2.6474 -0.2119,-1.6739 0.9738,-3.2029 2.6476,-3.4147zm33.3426 -4.2192c1.6737,-0.2118 3.2029,0.9738 3.4147,2.6475 0.2118,1.6739 -0.9739,3.2029 -2.6476,3.4147 -1.6738,0.2118 -3.2029,-0.9737 -3.4148,-2.6475 -0.2117,-1.6737 0.9739,-3.2029 2.6477,-3.4147z"/>
   <path id="_606796120" class="fil15" d="M105.197 123.933c1.6948,0.2318 2.9522,1.2789 2.8073,2.3384 -0.1449,1.0594 -1.6373,1.7305 -3.3321,1.4987 -1.6948,-0.2318 -2.9522,-1.2789 -2.8073,-2.3384 0.1449,-1.0594 1.6373,-1.7305 3.3321,-1.4987z"/>
   <g style="clip-path:url(#id9)">
    <g>
     <circle id="_590423408" class="fil10" transform="matrix(2.89562 -0.366414 0.366414 2.89562 104.935 125.851)" r="0.682"/>
    </g>
   </g>
   <path class="fil3 str4" d="M105.197 123.933c1.6948,0.2318 2.9522,1.2789 2.8073,2.3384 -0.1449,1.0594 -1.6373,1.7305 -3.3321,1.4987 -1.6948,-0.2318 -2.9522,-1.2789 -2.8073,-2.3384 0.1449,-1.0594 1.6373,-1.7305 3.3321,-1.4987z"/>
   <path id="_606796048" class="fil10" d="M100.548 123.105c0,0 4.2126,-1.2426 8.6521,-0.693 0,0 -4.0487,-4.2092 -8.6521,0.693z"/>
   <path id="_606795976" class="fil15" d="M133.034 120.41c-1.5837,0.6467 -2.5406,1.974 -2.1364,2.964 0.4043,0.99 2.0168,1.2681 3.6004,0.6215 1.5837,-0.6467 2.5406,-1.9741 2.1364,-2.964 -0.4043,-0.99 -2.0168,-1.2682 -3.6004,-0.6215z"/>
   <g style="clip-path:url(#id10)">
    <g>
     <circle id="_590429624" class="fil10" transform="matrix(-2.89562 0.366414 0.366414 2.89562 133.767 122.203)" r="0.682"/>
    </g>
   </g>
   <path class="fil3 str4" d="M133.034 120.41c-1.5837,0.6467 -2.5406,1.974 -2.1364,2.964 0.4043,0.99 2.0168,1.2681 3.6004,0.6215 1.5837,-0.6467 2.5406,-1.9741 2.1364,-2.964 -0.4043,-0.99 -2.0168,-1.2682 -3.6004,-0.6215z"/>
   <path id="_606795904" class="fil10" d="M137.33 118.451c0,0 -4.3894,-0.1541 -8.552,1.484 0,0 2.8725,-5.085 8.552,-1.484z"/>
  </g>
  <g id="_606794848">
   <path id="_606795808" class="fil22" d="M276.104 118.825c-1.6875,0.4175 -2.1045,3.7503 0.6357,3.7286 2.7401,-0.0217 2.0648,-4.3966 -0.6357,-3.7286z"/>
   <path id="_606795736" class="fil8" d="M276.124 119.732c-0.9662,0.146 -1.04,1.979 0.5625,2.1069 0.3847,0.0307 0.6411,-0.0884 0.7877,-0.2836 -0.0518,0.0018 -0.106,0.0009 -0.1634,-0.0037 -1.2743,-0.1017 -1.4885,-1.2815 -1.0371,-1.8339 -0.0489,0.002 -0.0987,0.0066 -0.1497,0.0143z"/>
   <path id="_606795664" class="fil0 str9" d="M223.864 124.776c0.8069,-0.3218 1.9832,0.7261 2.6266,2.34 0.6435,1.6139 0.511,3.1835 -0.296,3.5053 -0.8069,0.3217 -1.9831,-0.7261 -2.6266,-2.34 -0.6435,-1.6139 -0.5109,-3.1836 0.296,-3.5053zm53.1285 7.7146c-0.6821,-0.5379 -2.1078,0.1321 -3.1837,1.4963 -1.076,1.3643 -1.3953,2.9068 -0.7132,3.4448 0.6821,0.5379 2.1077,-0.1321 3.1837,-1.4963 1.0759,-1.3642 1.3953,-2.9068 0.7132,-3.4448z"/>
   <path id="_606795592" class="fil0 str0" d="M254.5 100.589c26.6426,3.8687 22.0207,20.4489 20.0583,33.9631 -1.9624,13.5143 -13.6517,16.9473 -27.166,14.9849 -13.5142,-1.9624 -23.7444,-8.5783 -21.782,-22.0925 1.9624,-13.5142 2.247,-30.7242 28.8897,-26.8555z"/>
   <path id="_606795520" class="fil3 str0" d="M247.573 134.171c0,0 1.8083,1.4517 4.0178,0.5834"/>
   <path id="_606795448" class="fil10 str12" d="M250.824 113.199c-0.5436,-0.4161 -3.3957,2.0778 -5.632,1.6284 -3.4526,-0.6938 1.2741,-4.6409 -0.9234,-4.7609 -13.0425,-0.7121 -16.9831,12.3125 -18.5281,21.3572 0,0 -0.7766,-4.8061 -1.7169,-9.3766 -0.9402,-4.5706 0.6489,-16.1638 11.2972,-20.622 9.3979,-3.9347 17.6054,-2.7176 19.4035,-2.3773 1.8206,0.1852 10.0354,1.3527 17.9261,7.7979 8.9405,7.3026 7.1666,18.869 4.9652,22.9833 -2.2013,4.1144 -4.3128,8.5011 -4.3128,8.5011 1.0996,-7.9652 1.5038,-19.1966 -7.0731,-23.6312 -2.735,-1.4142 -3.0933,3.3656 -8.1505,2.6668 -0.9904,-0.1369 2.3046,-3.6512 1.2855,-3.7256 -4.2301,-0.3083 -4.6122,4.4046 -8.6673,3.6952 -2.9426,-0.5148 1.7842,-2.8674 0.1266,-4.1363z"/>
   <path id="_606795376" class="fil21" d="M233.271 132.622c1.6299,0.2367 2.7599,1.7504 2.5232,3.3806 -0.2367,1.63 -1.7505,2.7598 -3.3805,2.5231 -1.63,-0.2367 -2.7601,-1.7504 -2.5234,-3.3804 0.2367,-1.6302 1.7506,-2.76 3.3807,-2.5233zm32.4713 4.7151c1.63,0.2367 2.76,1.7506 2.5233,3.3806 -0.2367,1.6301 -1.7506,2.7599 -3.3805,2.5232 -1.6301,-0.2367 -2.7601,-1.7504 -2.5234,-3.3805 0.2367,-1.63 1.7506,-2.76 3.3806,-2.5233z"/>
   <path id="_606795304" class="fil10" d="M269.529 127.036c0,0 -4.298,-1.3185 -8.6413,-0.8615 0,0 -0.4239,-1.786 1.2332,-2.2818 0.9926,-0.2968 4.8159,0.1674 5.9697,0.3494 1.1872,0.1873 1.4384,2.7939 1.4384,2.7939z"/>
   <path id="_606795232" class="fil23" d="M256.218 88.7632c14.5731,7.3965 25.5556,20.9265 23.5264,34.9008 -0.8622,5.9378 -2.7704,10.5379 -5.4553,13.9913 1.5716,-9.8258 3.5265,-21.0195 -21.5888,-24.6665 -25.1154,-3.6469 -26.4249,7.6405 -27.7129,17.5075 -1.5918,-4.0744 -2.1128,-9.0272 -1.2506,-14.965 2.0292,-13.9743 16.4062,-23.822 32.4812,-26.7681z"/>
   <g style="clip-path:url(#id11)">
    <g>
     <path id="_5916002881" class="fil24" d="M279.668 116.426c0.3879,2.3792 0.4302,4.802 0.0764,7.2385 -0.8622,5.9378 -2.7704,10.5379 -5.4552,13.9913 1.5715,-9.8258 3.5264,-21.0196 -21.5889,-24.6665 -25.1154,-3.647 -26.4249,7.6405 -27.7129,17.5075 -1.5918,-4.0744 -2.1128,-9.0273 -1.2506,-14.9651 0.2338,-1.6098 0.6332,-3.1642 1.1785,-4.6602l0 0 0.0576 -0.1562c0.0551,-0.1479 0.1115,-0.2953 0.1695,-0.4421 -0.0579,0.1467 -0.1144,0.2942 -0.1695,0.4421 -0.0193,0.052 -0.0386,0.1041 -0.0576,0.1562l4.1912 -4.1575 -1.1515 6.7776 10.8927 -11.0529 2.3271 6.4461 6.8044 -5.3712 5.616 7.3635 7.4783 -5.4621 4.9957 7.0846 4.0646 -5.5179 7.2992 13.6945 0.8237 -6.8253 1.4119 2.5784 -0.0006 -0.0033z"/>
     <path id="_591611328" class="fil25" d="M268.825 97.5909c4.034,3.8368 7.2239,8.2226 9.1433,12.8986l-0.0043 -0.0105 -1.5263 4.9482 -6.074 -11.7595 -4.6738 5.6804 -4.6468 -6.0298 -7.0639 4.9124 -5.3748 -6.7186 -6.17 4.4592 -2.8652 -6.7752 -9.1678 9.5462 -0.0578 -5.3634 -3.7154 3.7844c3.1699,-5.6151 8.5148,-10.2113 14.9663,-13.5095l0.8464 2.3447 6.8044 -5.3713 5.616 7.3635 7.4783 -5.4621 4.9957 7.0847 1.4897 -2.0224z"/>
     <path id="_591602448" class="fil26" d="M256.218 88.7632c1.6047,0.8144 3.1658,1.7034 4.6708,2.659l-0.0013 -0.0008 -5.6418 3.9234 -4.2837 -5.3544c1.7216,-0.491 3.4784,-0.9015 5.256,-1.2272z"/>
    </g>
   </g>
   <path class="fil3 str13" d="M256.218 88.7632c14.5731,7.3965 25.5556,20.9265 23.5264,34.9008 -0.8622,5.9378 -2.7704,10.5379 -5.4553,13.9913 1.5716,-9.8258 3.5265,-21.0195 -21.5888,-24.6665 -25.1154,-3.6469 -26.4249,7.6405 -27.7129,17.5075 -1.5918,-4.0744 -2.1128,-9.0272 -1.2506,-14.965 2.0292,-13.9743 16.4062,-23.822 32.4812,-26.7681z"/>
   <path id="_606795160" class="fil1" d="M254.069 88.1503c1.0784,1.2986 3.4826,1.3097 3.9915,-1.6085 0.5088,-2.9182 3.2934,-3.0582 2.6347,-4.0179 -0.6586,-0.9597 -2.0948,-1.3032 -3.237,-0.2144 -0.7424,0.7076 -0.7634,-0.867 -0.2383,-2.0548 0.1926,-0.436 -2.2934,0.215 -3.5255,2.4591 -1.0115,1.8424 -0.7038,4.1379 0.3746,5.4365z"/>
   <g style="clip-path:url(#id12)">
    <g>
     <path id="_5916092161" class="fil23" d="M254.897 88.7138c0.8453,0.6108 2.2854,0.2471 2.1403,-1.5773 -0.1452,-1.8243 0.9574,-2.8098 0.9573,-2.8098 0,0 -1.5408,0.0417 -2.209,1.9195 -0.2124,0.5969 -1.506,-0.9539 -0.2198,-2.7417 0,-0.0001 -1.339,0.482 -1.7305,2.0144 -0.3213,1.2581 0.2164,2.5841 1.0617,3.1949z"/>
    </g>
   </g>
   <path class="fil3 str13" d="M254.069 88.1503c1.0784,1.2986 3.4826,1.3097 3.9915,-1.6085 0.5088,-2.9182 3.2934,-3.0582 2.6347,-4.0179 -0.6586,-0.9597 -2.0948,-1.3032 -3.237,-0.2144 -0.7424,0.7076 -0.7634,-0.867 -0.2383,-2.0548 0.1926,-0.436 -2.2934,0.215 -3.5255,2.4591 -1.0115,1.8424 -0.7038,4.1379 0.3746,5.4365z"/>
   <path id="_606795088" class="fil10" d="M232.702 121.689c0,0 4.4955,-0.0417 8.5294,1.6318 0,0 0.9144,-1.5917 -0.5332,-2.5383 -0.8672,-0.5669 -4.6646,-1.2092 -5.8225,-1.3629 -1.1915,-0.1581 -2.1737,2.2694 -2.1737,2.2694z"/>
   <path id="_606795016" class="fil15" d="M265.019 127.408c-1.6929,-0.2458 -3.1908,0.4129 -3.3444,1.4711 -0.1537,1.0582 1.095,2.1157 2.7878,2.3615 1.6929,0.2459 3.1908,-0.4128 3.3444,-1.4711 0.1537,-1.0582 -1.095,-2.1157 -2.7878,-2.3615z"/>
   <g style="clip-path:url(#id13)">
    <g>
     <circle id="_590436704" class="fil10" transform="matrix(-2.68144 -1.15271 -1.15271 2.68144 264.741 129.324)" r="0.682"/>
    </g>
   </g>
   <path class="fil3 str4" d="M265.019 127.408c-1.6929,-0.2458 -3.1908,0.4129 -3.3444,1.4711 -0.1537,1.0582 1.095,2.1157 2.7878,2.3615 1.6929,0.2459 3.1908,-0.4128 3.3444,-1.4711 0.1537,-1.0582 -1.095,-2.1157 -2.7878,-2.3615z"/>
   <path id="_606794944" class="fil15" d="M236.92 123.328c1.6928,0.2458 2.9415,1.3034 2.7878,2.3616 -0.1536,1.0582 -1.6515,1.7169 -3.3444,1.4711 -1.6928,-0.2458 -2.9415,-1.3034 -2.7878,-2.3616 0.1536,-1.0582 1.6515,-1.7169 3.3444,-1.4711z"/>
   <g style="clip-path:url(#id14)">
    <g>
     <circle id="_590445488" class="fil10" transform="matrix(2.89855 -0.342448 0.342448 2.89855 236.642 125.244)" r="0.682"/>
    </g>
   </g>
   <path class="fil3 str4" d="M236.92 123.328c1.6928,0.2458 2.9415,1.3034 2.7878,2.3616 -0.1536,1.0582 -1.6515,1.7169 -3.3444,1.4711 -1.6928,-0.2458 -2.9415,-1.3034 -2.7878,-2.3616 0.1536,-1.0582 1.6515,-1.7169 3.3444,-1.4711z"/>
   <path id="_606794872" class="fil20 str11" d="M251.339 141.614c-0.2196,1.5117 -1.6237,2.5597 -3.1354,2.3402 -1.5117,-0.2195 -2.5597,-1.6236 -2.3402,-3.1353l5.4756 0.7951z"/>
  </g>
 </g>
</svg>
