<?xml version="1.0" encoding="UTF-8"?>
<!DOCTYPE svg PUBLIC "-//W3C//DTD SVG 1.1//EN" "http://www.w3.org/Graphics/SVG/1.1/DTD/svg11.dtd">
<!-- Creator: CorelDRAW -->
<svg xmlns="http://www.w3.org/2000/svg" xml:space="preserve" width="420mm" height="297mm" style="shape-rendering:geometricPrecision; text-rendering:geometricPrecision; image-rendering:optimizeQuality; fill-rule:evenodd; clip-rule:evenodd"
viewBox="0 0 420 297"
 xmlns:xlink="http://www.w3.org/1999/xlink">
 <defs>
  <style type="text/css">
   <![CDATA[
    .str12 {stroke:#8F5444;stroke-width:0.5;stroke-linecap:round;stroke-linejoin:round}
    .str10 {stroke:#1F1A17;stroke-width:0.75;stroke-linecap:round;stroke-linejoin:round}
    .str2 {stroke:#383431;stroke-width:0.75;stroke-linecap:round;stroke-linejoin:round}
    .str3 {stroke:#4C4840;stroke-width:0.75;stroke-linecap:round;stroke-linejoin:round}
    .str0 {stroke:#8F5444;stroke-width:0.75;stroke-linecap:round;stroke-linejoin:round}
    .str5 {stroke:#969594;stroke-width:0.75;stroke-linecap:round;stroke-linejoin:round}
    .str8 {stroke:#432B13;stroke-width:0.75;stroke-linecap:round;stroke-linejoin:round}
    .str13 {stroke:#213229;stroke-width:0.75;stroke-linecap:round;stroke-linejoin:round}
    .str1 {stroke:#453C35;stroke-width:0.75;stroke-linecap:round;stroke-linejoin:round}
    .str4 {stroke:#542829;stroke-width:0.75;stroke-linecap:round;stroke-linejoin:round}
    .str9 {stroke:#8A2C2F;stroke-width:0.75;stroke-linecap:round;stroke-linejoin:round}
    .str6 {stroke:#8F5444;stroke-linecap:round;stroke-linejoin:round}
    .str11 {stroke:#3D2A2A;stroke-linecap:round;stroke-linejoin:round}
    .str7 {stroke:#1F1A17;stroke-width:1.5;stroke-linecap:round;stroke-linejoin:round}
    .fil3 {fill:none}
    .fil16 {fill:#1F1A17}
    .fil5 {fill:#383431}
    .fil24 {fill:#4D4948}
    .fil7 {fill:#605D5C}
    .fil6 {fill:#716F61}
    .fil2 {fill:#957F66}
    .fil8 {fill:#969594}
    .fil17 {fill:#B76767}
    .fil1 {fill:#C0A062}
    .fil15 {fill:#C2C1C1}
    .fil11 {fill:#E7785F}
    .fil13 {fill:white}
    .fil18 {fill:#432B13}
    .fil21 {fill:#5E412F}
    .fil20 {fill:#876553}
    .fil0 {fill:#C3957D}
    .fil23 {fill:#213229}
    .fil4 {fill:#453C35}
    .fil22 {fill:#474832}
    .fil12 {fill:#542829}
    .fil9 {fill:#615649}
    .fil19 {fill:#98562C}
    .fil10 {fill:#A5292E}
    .fil25 {fill:#C6907B}
    .fil14 {fill:#1F1A17;fill-rule:nonzero}
   ]]>
  </style>
      <clipPath id="id0">
       <path d="M260.802 152.575c2.165,-1.2499 7.042,1.9943 10.3446,12.5257 1.5586,4.9702 1.0823,12.1984 -3.5607,13.3557 -6.6188,1.6498 -15.3106,-3.979 -15.3106,-3.979l3.9956 -7.2157c5.5792,3.3133 7.4065,2.0341 6.0107,-1.1399 -1.5926,-3.6223 -3.6446,-12.297 -1.4796,-13.5468z"/>
      </clipPath>
      <clipPath id="id1">
       <path d="M235.411 152.575c-2.165,-1.2499 -7.042,1.9943 -10.3446,12.5257 -1.5586,4.9702 -1.0823,12.1983 3.5607,13.3557 6.6188,1.6498 15.3106,-3.9791 15.3106,-3.9791l-3.9956 -7.2156c-5.5792,3.3133 -7.4065,2.0341 -6.0107,-1.14 1.5926,-3.6222 3.6446,-12.2969 1.4796,-13.5467z"/>
      </clipPath>
      <clipPath id="id2">
       <path d="M245.17 213.025c0.2657,-3.4711 -2.3037,-5.0804 -5.6044,-5.3331 -3.3006,-0.2527 -6.0849,0.9468 -6.3506,4.418 -0.1139,1.4873 0.0848,3.8188 6.1394,3.9695 6.0545,0.1506 5.7021,-1.5722 5.8156,-3.0544z"/>
      </clipPath>
      <clipPath id="id3">
       <path d="M251.043 213.025c-0.2657,-3.4711 2.3037,-5.0804 5.6044,-5.3331 3.3006,-0.2527 6.0849,0.9468 6.3506,4.418 0.1139,1.4873 -0.0848,3.8188 -6.1394,3.9695 -6.0545,0.1506 -5.7021,-1.5722 -5.8156,-3.0544z"/>
      </clipPath>
     <clipPath id="id4">
      <path d="M248.102 187.883c-0.0596,1.2457 -3.7696,18.4368 -3.7696,18.4368 0,0 -2.4096,1.8423 -11.4121,-0.57 -3.1711,-9.5366 -0.9073,-32.747 -0.7276,-33.3156l15.1762 -0.0347 0.6977 -0.0016 0.6977 -0.0016 15.1762 -0.0347c0.1823,0.5677 2.5523,23.7675 -0.5751,33.3185 -8.9914,2.4535 -11.4093,0.6223 -11.4093,0.6223 0,0 -3.7887,-17.174 -3.8541,-18.4194z"/>
     </clipPath>
     <clipPath id="id5">
      <path d="M135.29 151.061c2.165,-1.2499 7.042,1.9943 10.3447,12.5257 1.5585,4.9702 1.0822,12.1983 -3.5607,13.3557 -6.6189,1.6498 -15.3107,-3.9791 -15.3107,-3.9791l3.9956 -7.2156c5.5792,3.3133 7.4065,2.034 6.0108,-1.14 -1.5927,-3.6222 -3.6446,-12.2969 -1.4797,-13.5467z"/>
     </clipPath>
      <clipPath id="id6">
       <path d="M106.164 151.061c-2.165,-1.2499 -7.042,1.9943 -10.3447,12.5257 -1.5585,4.9702 -1.0822,12.1983 3.5607,13.3557 6.6189,1.6498 15.3107,-3.9791 15.3107,-3.9791l-3.9956 -7.2156c-5.5792,3.3133 -7.4065,2.034 -6.0108,-1.14 1.5927,-3.6222 3.6446,-12.2969 1.4797,-13.5467z"/>
      </clipPath>
    <clipPath id="id7">
     <path d="M248.107 88.5834c15.4848,5.2255 28.2975,17.0369 28.2975,31.1578 0,6.0001 -1.2273,10.8266 -3.3881,14.63 0.1433,-9.9497 0.4694,-21.3081 -24.9094,-21.3081 -25.3787,0 -25.0527,11.3584 -24.9093,21.3081 -2.1608,-3.8034 -3.3882,-8.6299 -3.3882,-14.63 0,-14.1209 12.8128,-25.9323 28.2975,-31.1578z"/>
    </clipPath>
    <clipPath id="id8">
     <path d="M245.892 88.2856c1.2538,1.1302 3.6347,0.7957 3.7189,-2.1654 0.0842,-2.961 2.8198,-3.4997 2.03,-4.3548 -0.7897,-0.8551 -2.2604,-0.9887 -3.2343,0.253 -0.6329,0.8069 -0.88,-0.7482 -0.531,-1.9992 0.1279,-0.4592 -2.2388,0.5423 -3.1356,2.9402 -0.7362,1.9686 -0.1019,4.1961 1.152,5.3262z"/>
    </clipPath>
    <clipPath id="id9">
     <path d="M262.37 125.562c-1.7106,0 -3.0982,0.8671 -3.0982,1.9365 0,1.0693 1.3876,1.9364 3.0982,1.9364 1.7106,0 3.0983,-0.8671 3.0983,-1.9364 0,-1.0694 -1.3877,-1.9365 -3.0983,-1.9365z"/>
    </clipPath>
    <clipPath id="id10">
     <path d="M233.976 125.562c1.7106,0 3.0982,0.8671 3.0982,1.9365 0,1.0693 -1.3876,1.9364 -3.0982,1.9364 -1.7106,0 -3.0983,-0.8671 -3.0983,-1.9364 0,-1.0694 1.3877,-1.9365 3.0983,-1.9365z"/>
    </clipPath>
    <clipPath id="id11">
     <path d="M105.965 180.983c0,0 -1.3885,11.1414 -1.5391,15.1086 -0.1507,3.9673 1.9465,10.5551 1.766,12.9132 -0.1805,2.3582 -1.022,5.3544 1.6288,5.7103 2.6507,0.356 5.9803,0.8404 7.7823,0.2897 1.802,-0.5507 2.1056,-2.5168 1.081,-4.1256 -1.0246,-1.6087 -0.7892,-13.6801 -0.3921,-15.8686 0.3971,-2.1885 2.2187,-12.9907 2.2187,-12.9907l-12.5456 -1.0369z"/>
    </clipPath>
    <clipPath id="id12">
     <path d="M135.418 180.915c0,0 1.4395,11.1349 1.6083,15.1014 0.1688,3.9666 -1.8982,10.5639 -1.7069,12.9212 0.1913,2.3573 1.0465,5.3496 -1.6026,5.7177 -2.6491,0.368 -5.9765,0.8677 -7.781,0.3253 -1.8045,-0.5425 -2.117,-2.5072 -1.0998,-4.1206 1.0172,-1.6134 0.7265,-13.6836 0.3194,-15.8703 -0.4071,-2.1867 -2.2781,-12.9804 -2.2781,-12.9804l12.5407 -1.0943z"/>
    </clipPath>
    <clipPath id="id13">
     <path d="M106.755 122.377c1.6523,0.4427 2.7683,1.6395 2.4915,2.6723 -0.2767,1.0329 -1.8416,1.5113 -3.4939,1.0686 -1.6523,-0.4427 -2.7683,-1.6395 -2.4915,-2.6723 0.2768,-1.0329 1.8416,-1.5113 3.4939,-1.0686z"/>
    </clipPath>
    <clipPath id="id14">
     <path d="M134.815 122.377c-1.6523,0.4427 -2.7682,1.6395 -2.4915,2.6723 0.2768,1.0329 1.8416,1.5113 3.4939,1.0686 1.6523,-0.4427 2.7683,-1.6395 2.4915,-2.6723 -0.2767,-1.0329 -1.8415,-1.5113 -3.4939,-1.0686z"/>
    </clipPath>
 </defs>
 <g id="Capa_x0020_1">
  <metadata id="CorelCorpID_0Corel-Layer"/>
  <g id="_606776224">
   <g>
    <path id="_606777472" class="fil0 str0" d="M256.271 167.262c-1.5776,-1.2167 -2.8463,-4.1478 -3.413,-4.1445 -0.5666,0.0032 -0.835,0.2485 -0.8304,2.7527 -1.8963,0.1434 -3.502,-3.4538 -4.7154,-2.4042 -0.7833,0.6777 1.1802,2.7466 1.8189,3.3433 -1.448,0.9514 -3.3322,-2.5438 -4.2951,-1.1153 -0.5973,0.8872 2.1948,2.6127 3.0371,3.0038 -0.687,1.4753 -2.8548,-1.2922 -3.4706,0.1215 -0.41,0.9418 2.308,1.9902 3.1078,2.2722 0.1395,1.1619 -1.9344,-0.176 -2.1276,0.7451 -0.1578,0.7519 0.3888,1.0365 2.5287,1.3808 1.1908,0.1914 2.7458,0.9233 4.364,1.2603l-0.1235 -0.0811 4.1191 -7.1346z"/>
    <g>
     <path id="_606777400" class="fil1" d="M260.802 152.575c2.165,-1.2499 7.042,1.9943 10.3446,12.5257 1.5586,4.9702 1.0823,12.1984 -3.5607,13.3557 -6.6188,1.6498 -15.3106,-3.979 -15.3106,-3.979l3.9956 -7.2157c5.5792,3.3133 7.4065,2.0341 6.0107,-1.1399 -1.5926,-3.6223 -3.6446,-12.297 -1.4796,-13.5468z"/>
     <g style="clip-path:url(#id0)">
      <g>
       <rect id="_590438288" class="fil2" transform="matrix(0.51321 -0.888905 0.888905 0.51321 251.37 175.897)" width="11.3104" height="3.158"/>
      </g>
     </g>
     <path class="fil3 str1" d="M260.802 152.575c2.165,-1.2499 7.042,1.9943 10.3446,12.5257 1.5586,4.9702 1.0823,12.1984 -3.5607,13.3557 -6.6188,1.6498 -15.3106,-3.979 -15.3106,-3.979l3.9956 -7.2157c5.5792,3.3133 7.4065,2.0341 6.0107,-1.1399 -1.5926,-3.6223 -3.6446,-12.297 -1.4796,-13.5468z"/>
     <g>
      <path id="_606777328" class="fil4" d="M263.846 155.977c0,0 -0.4921,0.7887 -0.0951,2.1417 0.3969,1.3531 0.8948,3.4411 0.8948,3.4411 0,0 -2.9853,-3.766 -0.7997,-5.5828z"/>
      <path id="_606777256" class="fil4" d="M265.269 162.699c0,0 0.4921,-0.7887 0.0951,-2.1418 -0.3969,-1.353 -0.8948,-3.441 -0.8948,-3.441 0,0 2.9853,3.766 0.7997,5.5828z"/>
      <path id="_606777184" class="fil4" d="M264.928 164.446c0,0 -0.4921,0.7887 -0.0952,2.1418 0.397,1.3531 0.8948,3.4411 0.8948,3.4411 0,0 -2.9853,-3.7661 -0.7996,-5.5829zm1.4225 6.7219c0,0 0.4921,-0.7886 0.0952,-2.1417 -0.397,-1.3531 -0.8948,-3.4411 -0.8948,-3.4411 0,0 2.9853,3.7661 0.7996,5.5828z"/>
      <path id="_606777112" class="fil4" d="M269.869 169.88c0,0 0.4921,-0.7887 0.0952,-2.1417 -0.397,-1.3531 -0.8949,-3.4411 -0.8949,-3.4411 0,0 2.9854,3.766 0.7997,5.5828zm-1.4225 -6.7219c0,0 -0.4921,0.7887 -0.0952,2.1417 0.3969,1.3531 0.8948,3.4411 0.8948,3.4411 0,0 -2.9853,-3.766 -0.7996,-5.5828z"/>
      <path id="_606777040" class="fil4" d="M269.114 175.642c0,0 -0.2097,-0.9057 -1.4471,-1.5818 -1.2375,-0.6761 -3.066,-1.8004 -3.066,-1.8004 0,0 4.7739,0.552 4.5131,3.3822zm-5.759 -3.7473c0,0 0.2097,0.9057 1.4472,1.5818 1.2375,0.6761 3.0659,1.8005 3.0659,1.8005 0,0 -4.7739,-0.5521 -4.5131,-3.3823z"/>
      <path id="_606776968" class="fil4" d="M257.853 173.363c0,0 0.2097,0.9056 1.4472,1.5817 1.2374,0.6761 3.0659,1.8005 3.0659,1.8005 0,0 -4.7739,-0.5521 -4.5131,-3.3822zm5.759 3.7472c0,0 -0.2097,-0.9056 -1.4471,-1.5817 -1.2375,-0.6762 -3.066,-1.8005 -3.066,-1.8005 0,0 4.774,0.5521 4.5131,3.3822z"/>
     </g>
    </g>
   </g>
   <g>
    <path id="_606776824" class="fil0 str0" d="M239.943 167.262c1.5776,-1.2168 2.8463,-4.1478 3.413,-4.1446 0.5666,0.0033 0.835,0.2486 0.8304,2.7528 1.8963,0.1434 3.502,-3.4539 4.7154,-2.4042 0.7833,0.6777 -1.1802,2.7466 -1.8189,3.3432 1.448,0.9515 3.3322,-2.5438 4.2951,-1.1152 0.5973,0.8871 -2.1948,2.6126 -3.0371,3.0037 0.687,1.4754 2.8548,-1.2921 3.4706,0.1216 0.41,0.9417 -2.308,1.9901 -3.1078,2.2722 -0.1395,1.1619 1.9344,-0.1761 2.1276,0.7451 0.1578,0.7519 -0.3888,1.0365 -2.5287,1.3808 -1.1908,0.1913 -2.7458,0.9232 -4.364,1.2603l0.1235 -0.0811 -4.1191 -7.1346z"/>
    <g>
     <path id="_606776752" class="fil1" d="M235.411 152.575c-2.165,-1.2499 -7.042,1.9943 -10.3446,12.5257 -1.5586,4.9702 -1.0823,12.1983 3.5607,13.3557 6.6188,1.6498 15.3106,-3.9791 15.3106,-3.9791l-3.9956 -7.2156c-5.5792,3.3133 -7.4065,2.0341 -6.0107,-1.14 1.5926,-3.6222 3.6446,-12.2969 1.4796,-13.5467z"/>
     <g style="clip-path:url(#id1)">
      <g>
       <rect id="_590421608" class="fil2" transform="matrix(-0.51321 -0.888905 -0.888905 0.51321 244.843 175.897)" width="11.3104" height="3.158"/>
      </g>
     </g>
     <path class="fil3 str1" d="M235.411 152.575c-2.165,-1.2499 -7.042,1.9943 -10.3446,12.5257 -1.5586,4.9702 -1.0823,12.1983 3.5607,13.3557 6.6188,1.6498 15.3106,-3.9791 15.3106,-3.9791l-3.9956 -7.2156c-5.5792,3.3133 -7.4065,2.0341 -6.0107,-1.14 1.5926,-3.6222 3.6446,-12.2969 1.4796,-13.5467z"/>
     <g>
      <path id="_606776680" class="fil4" d="M232.367 155.977c0,0 0.4921,0.7888 0.0951,2.1418 -0.3969,1.3531 -0.8948,3.4411 -0.8948,3.4411 0,0 2.9853,-3.766 0.7997,-5.5829z"/>
      <path id="_606776608" class="fil4" d="M230.944 162.7c0,0 -0.4921,-0.7887 -0.0951,-2.1418 0.3969,-1.3531 0.8948,-3.4411 0.8948,-3.4411 0,0 -2.9853,3.7661 -0.7997,5.5829z"/>
      <path id="_606776536" class="fil4" d="M231.285 164.447c0,0 0.4921,0.7887 0.0952,2.1418 -0.397,1.3531 -0.8948,3.441 -0.8948,3.441 0,0 2.9853,-3.766 0.7996,-5.5828zm-1.4225 6.7219c0,0 -0.4921,-0.7887 -0.0952,-2.1417 0.397,-1.3531 0.8948,-3.4411 0.8948,-3.4411 0,0 -2.9853,3.766 -0.7996,5.5828z"/>
      <path id="_606776464" class="fil4" d="M226.345 169.88c0,0 -0.4921,-0.7887 -0.0952,-2.1418 0.397,-1.3531 0.8949,-3.4411 0.8949,-3.4411 0,0 -2.9854,3.7661 -0.7997,5.5829zm1.4225 -6.722c0,0 0.4921,0.7887 0.0951,2.1418 -0.3968,1.3531 -0.8947,3.4411 -0.8947,3.4411 0,0 2.9853,-3.766 0.7996,-5.5829z"/>
      <path id="_606776392" class="fil4" d="M227.099 175.642c0,0 0.2097,-0.9057 1.4471,-1.5818 1.2375,-0.6761 3.066,-1.8005 3.066,-1.8005 0,0 -4.7739,0.5521 -4.5131,3.3823zm5.759 -3.7473c0,0 -0.2097,0.9057 -1.4472,1.5818 -1.2375,0.6761 -3.0659,1.8004 -3.0659,1.8004 0,0 4.7739,-0.552 4.5131,-3.3822z"/>
      <path id="_606776320" class="fil4" d="M238.361 173.363c0,0 -0.2097,0.9057 -1.4472,1.5818 -1.2374,0.6761 -3.0659,1.8005 -3.0659,1.8005 0,0 4.7739,-0.5521 4.5131,-3.3823zm-5.759 3.7473c0,0 0.2097,-0.9057 1.4471,-1.5818 1.2375,-0.6761 3.066,-1.8005 3.066,-1.8005 0,0 -4.774,0.5521 -4.5131,3.3823z"/>
     </g>
    </g>
   </g>
  </g>
  <g id="_606775528">
   <g>
    <g>
     <path id="_606776152" class="fil5 str2" d="M239.621 206.86c3.4273,0.2623 5.9439,3.9121 5.7278,6.7356 -0.2162,2.8235 -3.0833,3.7531 -6.5106,3.4907 -3.4274,-0.2624 -6.1195,-1.6175 -5.9033,-4.441 0.2161,-2.8235 3.2587,-6.0477 6.6861,-5.7853z"/>
     <path id="_606776080" class="fil6 str3" d="M233.864 182.366c0,0 -1.3368,10.7265 -1.4818,14.546 -0.1451,3.8195 1.874,10.162 1.7002,12.4323 -0.1738,2.2704 -0.9839,5.155 1.5681,5.4977 2.5521,0.3427 5.7577,0.8091 7.4926,0.2789 1.7349,-0.5302 2.0271,-2.4231 1.0407,-3.972 -0.9864,-1.5488 -0.7597,-13.1706 -0.3775,-15.2777 0.3823,-2.107 2.1361,-12.5069 2.1361,-12.5069l-12.0784 -0.9983z"/>
     <path id="_606776008" class="fil7" d="M245.17 213.025c0.2657,-3.4711 -2.3037,-5.0804 -5.6044,-5.3331 -3.3006,-0.2527 -6.0849,0.9468 -6.3506,4.418 -0.1139,1.4873 0.0848,3.8188 6.1394,3.9695 6.0545,0.1506 5.7021,-1.5722 5.8156,-3.0544z"/>
     <g style="clip-path:url(#id2)">
      <g>
       <path id="_5905117441" class="fil8" d="M239.389 209.622c-6.1019,-0.5771 -8.2716,8.8901 -0.1863,9.1387 7.9174,0.2435 5.5501,-8.6315 0.1863,-9.1387z"/>
       <path id="_590511672" class="fil8" d="M239.207 208.361c-1.9024,-0.0398 -2.5788,0.6132 -0.058,0.6303 2.4684,0.0168 1.7303,-0.5953 0.058,-0.6303z"/>
      </g>
     </g>
     <path class="fil3 str2" d="M245.17 213.025c0.2657,-3.4711 -2.3037,-5.0804 -5.6044,-5.3331 -3.3006,-0.2527 -6.0849,0.9468 -6.3506,4.418 -0.1139,1.4873 0.0848,3.8188 6.1394,3.9695 6.0545,0.1506 5.7021,-1.5722 5.8156,-3.0544z"/>
    </g>
    <g>
     <path id="_606775912" class="fil5 str2" d="M256.593 206.86c-3.4273,0.2623 -5.9439,3.9121 -5.7278,6.7356 0.2162,2.8235 3.0833,3.7531 6.5106,3.4907 3.4274,-0.2624 6.1195,-1.6175 5.9033,-4.441 -0.2161,-2.8235 -3.2587,-6.0477 -6.6861,-5.7853z"/>
     <path id="_606775840" class="fil6 str3" d="M262.349 182.366c0,0 1.3368,10.7265 1.4818,14.546 0.1451,3.8195 -1.874,10.162 -1.7002,12.4323 0.1738,2.2704 0.9839,5.155 -1.5681,5.4977 -2.5521,0.3427 -5.7577,0.8091 -7.4926,0.2789 -1.7349,-0.5302 -2.0271,-2.4231 -1.0407,-3.972 0.9864,-1.5488 0.7597,-13.1706 0.3775,-15.2777 -0.3823,-2.107 -2.1361,-12.5069 -2.1361,-12.5069l12.0784 -0.9983z"/>
     <path id="_606775768" class="fil7" d="M251.043 213.025c-0.2657,-3.4711 2.3037,-5.0804 5.6044,-5.3331 3.3006,-0.2527 6.0849,0.9468 6.3506,4.418 0.1139,1.4873 -0.0848,3.8188 -6.1394,3.9695 -6.0545,0.1506 -5.7021,-1.5722 -5.8156,-3.0544z"/>
     <g style="clip-path:url(#id3)">
      <g>
       <path id="_5904450321" class="fil8" d="M256.824 209.622c6.1019,-0.5771 8.2716,8.8901 0.1863,9.1387 -7.9174,0.2435 -5.5501,-8.6315 -0.1863,-9.1387z"/>
       <path id="_590417240" class="fil8" d="M257.006 208.361c1.9024,-0.0398 2.5788,0.6132 0.058,0.6303 -2.4684,0.0168 -1.7303,-0.5953 -0.058,-0.6303z"/>
      </g>
     </g>
     <path class="fil3 str2" d="M251.043 213.025c-0.2657,-3.4711 2.3037,-5.0804 5.6044,-5.3331 3.3006,-0.2527 6.0849,0.9468 6.3506,4.418 0.1139,1.4873 -0.0848,3.8188 -6.1394,3.9695 -6.0545,0.1506 -5.7021,-1.5722 -5.8156,-3.0544z"/>
    </g>
   </g>
   <g>
    <path id="_606775648" class="fil9" d="M248.102 187.883c-0.0596,1.2457 -3.7696,18.4368 -3.7696,18.4368 0,0 -2.4096,1.8423 -11.4121,-0.57 -3.1711,-9.5366 -0.9073,-32.747 -0.7276,-33.3156l15.1762 -0.0347 0.6977 -0.0016 0.6977 -0.0016 15.1762 -0.0347c0.1823,0.5677 2.5523,23.7675 -0.5751,33.3185 -8.9914,2.4535 -11.4093,0.6223 -11.4093,0.6223 0,0 -3.7887,-17.174 -3.8541,-18.4194z"/>
    <g style="clip-path:url(#id4)">
     <g>
      <path id="_5914729121" class="fil4" d="M244.423 176.213c0,0 -0.6112,4.4901 0.3632,7.8025 0.9743,3.3125 3.3203,5.6709 3.3203,5.6709l-0.024 -13.6889 -3.6595 0.2155z"/>
     </g>
    </g>
    <path class="fil3 str1" d="M248.102 187.883c-0.0596,1.2457 -3.7696,18.4368 -3.7696,18.4368 0,0 -2.4096,1.8423 -11.4121,-0.57 -3.1711,-9.5366 -0.9073,-32.747 -0.7276,-33.3156l15.1762 -0.0347 0.6977 -0.0016 0.6977 -0.0016 15.1762 -0.0347c0.1823,0.5677 2.5523,23.7675 -0.5751,33.3185 -8.9914,2.4535 -11.4093,0.6223 -11.4093,0.6223 0,0 -3.7887,-17.174 -3.8541,-18.4194z"/>
    <path id="_606775576" class="fil4" d="M238.54 178.069c0,0 -1.634,13.1741 -1.529,17.5006 0.105,4.3265 0.2578,8.748 0.2578,8.748 0,0 1.3413,-16.4067 1.2712,-26.2486zm19.0799 -0.0437c0,0 1.6942,13.1665 1.609,17.4935 -0.0851,4.3269 -0.2177,8.749 -0.2177,8.749 0,0 -1.4163,-16.4003 -1.3913,-26.2425z"/>
   </g>
  </g>
  <g id="_607931952">
   <g>
    <path id="_606775456" class="fil0 str0" d="M130.759 165.748c-1.5777,-1.2168 -2.8464,-4.1479 -3.4131,-4.1446 -0.5666,0.0033 -0.835,0.2486 -0.8304,2.7528 -1.8963,0.1434 -3.502,-3.4539 -4.7154,-2.4042 -0.7833,0.6777 1.1802,2.7466 1.819,3.3432 -1.4481,0.9515 -3.3323,-2.5438 -4.2952,-1.1152 -0.5973,0.8871 2.1948,2.6126 3.0371,3.0037 -0.687,1.4754 -2.8548,-1.2921 -3.4706,0.1216 -0.41,0.9417 2.3081,1.9901 3.1078,2.2722 0.1395,1.1619 -1.9344,-0.1761 -2.1276,0.745 -0.1578,0.752 0.3888,1.0366 2.5287,1.3808 1.1908,0.1914 2.7458,0.9233 4.364,1.2603l-0.1235 -0.081 4.1192 -7.1346z"/>
    <path id="_606775384" class="fil10" d="M135.29 151.061c2.165,-1.2499 7.042,1.9943 10.3447,12.5257 1.5585,4.9702 1.0822,12.1983 -3.5607,13.3557 -6.6189,1.6498 -15.3107,-3.9791 -15.3107,-3.9791l3.9956 -7.2156c5.5792,3.3133 7.4065,2.034 6.0108,-1.14 -1.5927,-3.6222 -3.6446,-12.2969 -1.4797,-13.5467z"/>
    <g style="clip-path:url(#id5)">
     <g>
      <rect id="_590424176" class="fil11" transform="matrix(0.51321 -0.888905 0.888905 0.51321 125.859 174.382)" width="11.3104" height="3.158"/>
     </g>
    </g>
    <path class="fil3 str4" d="M135.29 151.061c2.165,-1.2499 7.042,1.9943 10.3447,12.5257 1.5585,4.9702 1.0822,12.1983 -3.5607,13.3557 -6.6189,1.6498 -15.3107,-3.9791 -15.3107,-3.9791l3.9956 -7.2156c5.5792,3.3133 7.4065,2.034 6.0108,-1.14 -1.5927,-3.6222 -3.6446,-12.2969 -1.4797,-13.5467z"/>
    <g>
     <path id="_607933032" class="fil12" d="M138.335 154.463c0,0 -0.4921,0.7887 -0.0951,2.1418 0.3969,1.3531 0.8948,3.4411 0.8948,3.4411 0,0 -2.9853,-3.7661 -0.7997,-5.5829z"/>
     <path id="_607932960" class="fil12" d="M139.757 161.185c0,0 0.4921,-0.7887 0.0951,-2.1418 -0.3969,-1.3531 -0.8948,-3.4411 -0.8948,-3.4411 0,0 2.9853,3.7661 0.7997,5.5829z"/>
     <path id="_607932888" class="fil12" d="M139.417 162.932c0,0 -0.4921,0.7887 -0.0952,2.1418 0.397,1.353 0.8948,3.441 0.8948,3.441 0,0 -2.9853,-3.766 -0.7996,-5.5828zm1.4225 6.7219c0,0 0.4921,-0.7887 0.0952,-2.1417 -0.397,-1.3531 -0.8948,-3.4411 -0.8948,-3.4411 0,0 2.9853,3.766 0.7996,5.5828z"/>
     <path id="_607932816" class="fil12" d="M144.357 168.366c0,0 0.4921,-0.7886 0.0952,-2.1417 -0.397,-1.3531 -0.8948,-3.4411 -0.8948,-3.4411 0,0 2.9853,3.7661 0.7996,5.5828zm-1.4225 -6.7219c0,0 -0.4921,0.7887 -0.0951,2.1418 0.3969,1.3531 0.8947,3.4411 0.8947,3.4411 0,0 -2.9853,-3.7661 -0.7996,-5.5829z"/>
     <path id="_607932744" class="fil12" d="M143.603 174.128c0,0 -0.2097,-0.9057 -1.4471,-1.5818 -1.2375,-0.6761 -3.066,-1.8005 -3.066,-1.8005 0,0 4.774,0.5521 4.5131,3.3823zm-5.759 -3.7473c0,0 0.2097,0.9057 1.4472,1.5818 1.2375,0.6761 3.0659,1.8004 3.0659,1.8004 0,0 -4.7739,-0.552 -4.5131,-3.3822z"/>
     <path id="_607932672" class="fil12" d="M132.341 171.849c0,0 0.2097,0.9057 1.4472,1.5818 1.2374,0.6761 3.066,1.8005 3.066,1.8005 0,0 -4.774,-0.5521 -4.5132,-3.3823zm5.759 3.7473c0,0 -0.2097,-0.9057 -1.4471,-1.5818 -1.2375,-0.6761 -3.066,-1.8005 -3.066,-1.8005 0,0 4.774,0.5521 4.5131,3.3823z"/>
    </g>
   </g>
   <g>
    <path id="_607932552" class="fil0 str0" d="M110.695 165.748c1.5777,-1.2168 2.8464,-4.1479 3.4131,-4.1446 0.5666,0.0033 0.835,0.2486 0.8304,2.7528 1.8963,0.1434 3.502,-3.4539 4.7154,-2.4042 0.7833,0.6777 -1.1802,2.7466 -1.819,3.3432 1.4481,0.9515 3.3323,-2.5438 4.2952,-1.1152 0.5973,0.8871 -2.1948,2.6126 -3.0371,3.0037 0.687,1.4754 2.8548,-1.2921 3.4706,0.1216 0.41,0.9417 -2.3081,1.9901 -3.1078,2.2722 -0.1395,1.1619 1.9344,-0.1761 2.1276,0.745 0.1578,0.752 -0.3888,1.0366 -2.5287,1.3808 -1.1908,0.1914 -2.7458,0.9233 -4.364,1.2603l0.1235 -0.081 -4.1192 -7.1346z"/>
    <g>
     <path id="_607932480" class="fil10" d="M106.164 151.061c-2.165,-1.2499 -7.042,1.9943 -10.3447,12.5257 -1.5585,4.9702 -1.0822,12.1983 3.5607,13.3557 6.6189,1.6498 15.3107,-3.9791 15.3107,-3.9791l-3.9956 -7.2156c-5.5792,3.3133 -7.4065,2.034 -6.0108,-1.14 1.5927,-3.6222 3.6446,-12.2969 1.4797,-13.5467z"/>
     <g style="clip-path:url(#id6)">
      <g>
       <rect id="_590427704" class="fil11" transform="matrix(-0.51321 -0.888905 -0.888905 0.51321 115.595 174.382)" width="11.3104" height="3.158"/>
      </g>
     </g>
     <path class="fil3 str4" d="M106.164 151.061c-2.165,-1.2499 -7.042,1.9943 -10.3447,12.5257 -1.5585,4.9702 -1.0822,12.1983 3.5607,13.3557 6.6189,1.6498 15.3107,-3.9791 15.3107,-3.9791l-3.9956 -7.2156c-5.5792,3.3133 -7.4065,2.034 -6.0108,-1.14 1.5927,-3.6222 3.6446,-12.2969 1.4797,-13.5467z"/>
     <g>
      <path id="_607932408" class="fil12" d="M103.119 154.463c0,0 0.4921,0.7887 0.0951,2.1418 -0.3969,1.3531 -0.8948,3.4411 -0.8948,3.4411 0,0 2.9853,-3.7661 0.7997,-5.5829z"/>
      <path id="_607932336" class="fil12" d="M101.697 161.185c0,0 -0.4921,-0.7887 -0.0951,-2.1418 0.3969,-1.3531 0.8948,-3.4411 0.8948,-3.4411 0,0 -2.9853,3.7661 -0.7997,5.5829z"/>
      <path id="_607932264" class="fil12" d="M102.037 162.932c0,0 0.4921,0.7887 0.0952,2.1418 -0.397,1.353 -0.8948,3.441 -0.8948,3.441 0,0 2.9853,-3.766 0.7996,-5.5828zm-1.4225 6.7219c0,0 -0.4921,-0.7887 -0.0952,-2.1417 0.397,-1.3531 0.8948,-3.4411 0.8948,-3.4411 0,0 -2.9853,3.766 -0.7996,5.5828z"/>
      <path id="_607932192" class="fil12" d="M97.0971 168.366c0,0 -0.4921,-0.7886 -0.0952,-2.1417 0.397,-1.3531 0.8948,-3.4411 0.8948,-3.4411 0,0 -2.9853,3.7661 -0.7996,5.5828zm1.4225 -6.7219c0,0 0.4921,0.7887 0.0951,2.1418 -0.3969,1.3531 -0.8947,3.4411 -0.8947,3.4411 0,0 2.9853,-3.7661 0.7996,-5.5829z"/>
      <path id="_607932120" class="fil12" d="M97.8516 174.128c0,0 0.2097,-0.9057 1.4471,-1.5818 1.2375,-0.6761 3.066,-1.8005 3.066,-1.8005 0,0 -4.774,0.5521 -4.5131,3.3823zm5.759 -3.7473c0,0 -0.2097,0.9057 -1.4472,1.5818 -1.2375,0.6761 -3.0659,1.8004 -3.0659,1.8004 0,0 4.7739,-0.552 4.5131,-3.3822z"/>
      <path id="_607932048" class="fil12" d="M109.113 171.849c0,0 -0.2097,0.9057 -1.4472,1.5818 -1.2374,0.6761 -3.066,1.8005 -3.066,1.8005 0,0 4.774,-0.5521 4.5132,-3.3823zm-5.759 3.7473c0,0 0.2097,-0.9057 1.4471,-1.5818 1.2375,-0.6761 3.066,-1.8005 3.066,-1.8005 0,0 -4.774,0.5521 -4.5131,3.3823z"/>
     </g>
    </g>
   </g>
  </g>
  <g id="_607931784">
   <path id="_607931880" class="fil1 str1" d="M235.411 152.575c-5.4172,3.1568 -2.759,12.5736 -2.8362,15.3442 -0.0772,2.7705 -2.759,8.9045 3.0291,10.1774 4.1018,0.902 8.302,1.3532 12.5022,1.3532 4.2002,0 8.4006,-0.4512 12.5022,-1.3532 5.7881,-1.2728 3.1063,-7.4069 3.0291,-10.1774 -0.0772,-2.7706 2.581,-12.1874 -2.8361,-15.3442 -6.3296,-3.6885 -19.0608,-3.6885 -25.3903,0z"/>
   <path id="_607931808" class="fil4" d="M248.285 156.246c0,0 -0.6633,0.6194 -0.6309,1.9957 0.0324,1.3763 -0.0257,3.4712 -0.0257,3.4712 0,0 -1.8636,-4.3059 0.6566,-5.4669zm-0.357 6.6985c0,0 0.6633,-0.6195 0.6309,-1.9957 -0.0324,-1.3764 0.0257,-3.4712 0.0257,-3.4712 0,0 1.8636,4.3058 -0.6566,5.4669zm-12.8363 7.363c0,0 -0.4804,-0.77 -0.0929,-2.091 0.3876,-1.321 0.8736,-3.3595 0.8736,-3.3595 0,0 -2.9145,3.6768 -0.7807,5.4505zm8.8573 0c0,0 -0.4804,-0.77 -0.0929,-2.091 0.3875,-1.321 0.8736,-3.3595 0.8736,-3.3595 0,0 -2.9145,3.6768 -0.7807,5.4505zm-5.2977 -9.2554c0,0 -0.4804,-0.7699 -0.0929,-2.0909 0.3875,-1.3211 0.8736,-3.3596 0.8736,-3.3596 0,0 -2.9146,3.6768 -0.7807,5.4505zm3.1129 4.4495c0,0 -0.4804,-0.77 -0.0929,-2.091 0.3875,-1.321 0.8736,-3.3595 0.8736,-3.3595 0,0 -2.9145,3.6767 -0.7807,5.4505zm-2.9685 9.0628c0,0 -0.4804,-0.77 -0.0929,-2.091 0.3875,-1.321 0.8736,-3.3595 0.8736,-3.3595 0,0 -2.9145,3.6767 -0.7807,5.4505zm22.3255 -4.2569c0,0 0.4805,-0.77 0.0929,-2.091 -0.3875,-1.321 -0.8736,-3.3595 -0.8736,-3.3595 0,0 2.9146,3.6768 0.7807,5.4505zm-8.8572 0c0,0 0.4804,-0.77 0.0929,-2.091 -0.3876,-1.321 -0.8736,-3.3595 -0.8736,-3.3595 0,0 2.9145,3.6768 0.7807,5.4505zm5.2977 -9.2554c0,0 0.4804,-0.7699 0.0929,-2.0909 -0.3875,-1.3211 -0.8736,-3.3596 -0.8736,-3.3596 0,0 2.9145,3.6768 0.7807,5.4505zm-3.113 4.4495c0,0 0.4805,-0.77 0.0929,-2.091 -0.3875,-1.321 -0.8736,-3.3595 -0.8736,-3.3595 0,0 2.9146,3.6767 0.7807,5.4505zm2.9685 9.0628c0,0 0.4805,-0.77 0.0929,-2.091 -0.3875,-1.321 -0.8736,-3.3595 -0.8736,-3.3595 0,0 2.9146,3.6767 0.7807,5.4505zm-11.138 -3.4181c0,0 -0.8011,0.4266 -1.1259,1.7644 -0.3249,1.3378 -0.9232,3.3462 -0.9232,3.3462 0,0 -0.6858,-4.6414 2.0491,-5.1106zm3.6546 0c0,0 0.801,0.4266 1.126,1.7644 0.3248,1.3378 0.9231,3.3463 0.9231,3.3463 0,0 0.6857,-4.6415 -2.0491,-5.1107zm-5.7332 6.3778c0,0 0.8011,-0.4266 1.126,-1.7644 0.3249,-1.3378 0.9232,-3.3462 0.9232,-3.3462 0,0 0.6857,4.6414 -2.0492,5.1106zm7.8118 0c0,0 -0.8011,-0.4266 -1.126,-1.7644 -0.3249,-1.3378 -0.9232,-3.3462 -0.9232,-3.3462 0,0 -0.6857,4.6414 2.0492,5.1106zm4.016 -9.5223c0,0 -0.4804,0.77 -0.0929,2.091 0.3875,1.321 0.8736,3.3595 0.8736,3.3595 0,0 -2.9146,-3.6768 -0.7807,-5.4505zm-2.9685 -9.0628c0,0 -0.4804,0.77 -0.0929,2.091 0.3875,1.321 0.8736,3.3595 0.8736,3.3595 0,0 -2.9146,-3.6768 -0.7807,-5.4505zm3.1129 -4.4495c0,0 -0.4804,0.77 -0.0929,2.0911 0.3876,1.321 0.8736,3.3595 0.8736,3.3595 0,0 -2.9145,-3.6768 -0.7807,-5.4506zm-5.2977 9.2554c0,0 -0.4804,0.77 -0.0929,2.091 0.3876,1.321 0.8736,3.3595 0.8736,3.3595 0,0 -2.9145,-3.6768 -0.7807,-5.4505zm8.8573 0c0,0 -0.4804,0.77 -0.0929,2.091 0.3875,1.321 0.8736,3.3595 0.8736,3.3595 0,0 -2.9146,-3.6768 -0.7807,-5.4505zm-19.5478 4.2569c0,0 0.4804,0.77 0.0929,2.091 -0.3876,1.321 -0.8736,3.3595 -0.8736,3.3595 0,0 2.9145,-3.6768 0.7807,-5.4505zm2.9685 -9.0628c0,0 0.4804,0.77 0.0929,2.091 -0.3876,1.321 -0.8736,3.3595 -0.8736,3.3595 0,0 2.9145,-3.6768 0.7807,-5.4505zm-3.113 -4.4495c0,0 0.4804,0.77 0.0929,2.0911 -0.3875,1.321 -0.8736,3.3595 -0.8736,3.3595 0,0 2.9146,-3.6768 0.7807,-5.4506zm5.2977 9.2554c0,0 0.4804,0.77 0.0929,2.091 -0.3875,1.321 -0.8736,3.3595 -0.8736,3.3595 0,0 2.9146,-3.6768 0.7807,-5.4505zm-8.8572 0c0,0 0.4804,0.77 0.0929,2.091 -0.3876,1.321 -0.8736,3.3595 -0.8736,3.3595 0,0 2.9145,-3.6768 0.7807,-5.4505z"/>
  </g>
  <path class="fil13 str5" d="M310.343 101.031c12.0503,0 21.8227,6.3272 21.8227,14.1292 0,7.8021 -9.7724,14.1293 -21.8227,14.1293 -5.935,0 -11.3167,-1.5354 -15.2508,-4.0254l-8.0449 4.01 4.0251 -7.4806c-1.628,-1.9781 -2.552,-4.2358 -2.552,-6.6333 0,-7.802 9.7724,-14.1292 21.8226,-14.1292z"/>
  <path class="fil14" d="M309.435 113.16l0 3.4036 0 0.5461c0,1.143 -0.0529,1.9177 -0.1587,2.3241 -0.1059,0.4064 -0.2604,0.6096 -0.4636,0.6096 -0.4149,0 -0.8213,-0.3598 -1.2192,-1.0795 -0.2032,-0.3725 -0.5482,-1.1875 -1.035,-2.4448 -0.4869,-1.2573 -0.8996,-2.178 -1.2383,-2.7622 0,0.2709 0.0085,0.8276 0.0254,1.67 0.0169,0.8425 0.0254,1.3357 0.0254,1.4796 0,0.8213 -0.0339,1.452 -0.1016,1.8923 -0.0677,0.4403 -0.199,0.6604 -0.3937,0.6604 -0.2794,0 -0.4805,-0.235 -0.6032,-0.7049 -0.1228,-0.4699 -0.1842,-1.1154 -0.1842,-1.9367l0 -3.5814c0,-0.7874 0.0402,-1.3907 0.1207,-1.8098 0.0804,-0.4191 0.2391,-0.6286 0.4762,-0.6286 0.2879,0 0.6816,0.4784 1.1811,1.4351 0.3302,0.635 0.7726,1.615 1.3272,2.94 0.5545,1.3251 0.9122,2.1527 1.0731,2.4829l-0.0889 -4.2291c0,-0.9991 0.0466,-1.7738 0.1397,-2.3241 0.0931,-0.5503 0.2582,-0.8255 0.4953,-0.8255 0.2328,0 0.3937,0.2498 0.4847,0.7493 0.091,0.4995 0.1376,1.2107 0.1376,2.1336zm6.2103 2.6162c0,1.143 -0.2159,2.087 -0.6477,2.8321 -0.4657,0.8043 -1.0964,1.2065 -1.8923,1.2065 -0.9059,0 -1.6214,-0.436 -2.1463,-1.3081 -0.5249,-0.8721 -0.7874,-1.9685 -0.7874,-3.2893 0,-1.1938 0.2138,-2.1929 0.6414,-2.9972 0.4275,-0.8043 1.0054,-1.2065 1.7335,-1.2065 0.9398,0 1.6976,0.4699 2.2733,1.4097 0.5503,0.8975 0.8255,2.0151 0.8255,3.3528zm-1.0668 -0.0127c0,-1.0414 -0.1609,-1.9008 -0.4826,-2.5781 -0.3471,-0.7281 -0.8213,-1.0922 -1.4224,-1.0922 -0.3979,0 -0.726,0.3048 -0.9842,0.9144 -0.2583,0.6096 -0.3874,1.3674 -0.3874,2.2733 0,1.0245 0.1566,1.8542 0.4699,2.4892 0.3556,0.7197 0.8467,1.0795 1.4732,1.0795 0.381,0 0.6985,-0.2942 0.9525,-0.8827 0.254,-0.5884 0.381,-1.3229 0.381,-2.2034z"/>
  <path class="fil0 str0" d="M241.749 146.185l12.7151 0 0 5.5158c0,1.6001 -2.8469,2.898 -6.3575,2.898 -3.5105,0 -6.3576,-1.2979 -6.3576,-2.898l0 -5.5158z"/>
  <g id="_607930536">
   <path id="_607931496" class="fil15" d="M272.106 115.475c-1.61,0.6556 -1.5438,4.0138 1.1649,3.5986 2.7086,-0.4153 1.4116,-4.6478 -1.1649,-3.5986z"/>
   <path id="_607931424" class="fil8" d="M272.256 116.37c-0.9353,0.2833 -0.7449,2.1079 0.8594,2.0042 0.3851,-0.0249 0.6217,-0.1796 0.7387,-0.3939 -0.0509,0.0092 -0.1048,0.0162 -0.1622,0.0199 -1.2757,0.0824 -1.6572,-1.0543 -1.2899,-1.6659 -0.0481,0.009 -0.0967,0.0207 -0.146,0.0357z"/>
   <path id="_607931352" class="fil0 str6" d="M221.264 128.872c0.7523,-0.4343 2.0669,0.4336 2.9356,1.9383 0.8687,1.5047 0.9631,3.0771 0.2108,3.5115 -0.7523,0.4343 -2.0669,-0.4336 -2.9356,-1.9383 -0.8688,-1.5047 -0.9631,-3.0771 -0.2108,-3.5115zm53.6856 0c-0.7523,-0.4343 -2.0669,0.4336 -2.9356,1.9383 -0.8687,1.5047 -0.9631,3.0771 -0.2108,3.5115 0.7524,0.4343 2.0669,-0.4336 2.9357,-1.9383 0.8687,-1.5047 0.9631,-3.0771 0.2107,-3.5115z"/>
   <path id="_607931280" class="fil0 str0" d="M248.107 100.533c26.922,0 24.7306,17.0723 24.7306,30.7282 0,13.656 -11.0747,18.7332 -24.7306,18.7332 -13.656,0 -24.7307,-5.0772 -24.7307,-18.7332 0,-13.6559 -2.1914,-30.7282 24.7307,-30.7282z"/>
   <path id="_607931208" class="fil3 str0" d="M246.077 134.762c0,0 1.9981,1.1768 4.0599,0"/>
   <path id="_607931136" class="fil16 str7" d="M246.28 113.54c-0.5978,-0.3337 -3.0619,2.5442 -5.3395,2.4208 -3.5165,-0.1904 0.594,-4.7758 -1.598,-4.5787 -13.0095,1.1695 -15.0375,14.6251 -15.2668,23.798 0,0 -1.4592,-4.6446 -3.0464,-9.0326 -1.5873,-4.388 -1.6807,-16.0893 8.2165,-22.0313 8.7349,-5.2444 17.0322,-5.2193 18.8605,-5.141 1.8283,-0.0783 10.1256,-0.1034 18.8605,5.141 9.8972,5.942 9.8038,17.6433 8.2165,22.0313 -1.5873,4.388 -3.0464,9.0326 -3.0464,9.0326 -0.0564,-8.0406 -1.2704,-19.2135 -10.3955,-22.3695 -2.9099,-1.0066 -2.5776,3.7752 -7.6827,3.8103 -0.9999,0.0068 1.756,-3.9445 0.7367,-3.8716 -4.2304,0.3027 -3.9314,5.0216 -8.0463,4.9023 -2.9861,-0.0866 1.3537,-3.094 -0.4691,-4.1116z"/>
   <path id="_607931064" class="fil17" d="M231.701 135.285c1.6471,0 2.9829,1.3357 2.9829,2.9829 0,1.6471 -1.3358,2.9828 -2.9829,2.9828 -1.6471,0 -2.9829,-1.3357 -2.9829,-2.9828 0,-1.6472 1.3358,-2.9829 2.9829,-2.9829zm32.812 0c1.647,0 2.9828,1.3359 2.9828,2.9829 0,1.6472 -1.3358,2.9829 -2.9828,2.9829 -1.6472,0 -2.983,-1.3357 -2.983,-2.9829 0,-1.647 1.3358,-2.9829 2.983,-2.9829z"/>
   <path id="_607930992" class="fil16" d="M266.78 124.546c0,0 -4.4428,-0.6873 -8.6754,0.3892 0,0 -0.6761,-1.7066 0.8925,-2.4354 0.9397,-0.4363 4.79,-0.5263 5.9579,-0.512 1.2019,0.0147 1.825,2.5582 1.825,2.5582z"/>
   <path id="_607930920" class="fil18" d="M248.107 88.5834c15.4848,5.2255 28.2975,17.0369 28.2975,31.1578 0,6.0001 -1.2273,10.8266 -3.3881,14.63 0.1433,-9.9497 0.4694,-21.3081 -24.9094,-21.3081 -25.3787,0 -25.0527,11.3584 -24.9093,21.3081 -2.1608,-3.8034 -3.3882,-8.6299 -3.3882,-14.63 0,-14.1209 12.8128,-25.9323 28.2975,-31.1578z"/>
   <g style="clip-path:url(#id7)">
    <g>
     <path id="_5914794641" class="fil19" d="M275.288 112.589c0.7257,2.2988 1.1157,4.6904 1.1157,7.1525 0,6.0001 -1.2273,10.8266 -3.388,14.63 0.1432,-9.9497 0.4693,-21.3082 -24.9094,-21.3082 -25.3788,0 -25.0527,11.3585 -24.9094,21.3082 -2.1608,-3.8034 -3.3882,-8.6299 -3.3882,-14.63 0,-1.6267 0.172,-3.2224 0.4966,-4.7813l0 0.0001 0.0346 -0.1629c0.0332,-0.1543 0.0679,-0.3083 0.1042,-0.4619 -0.0362,0.1535 -0.071,0.3076 -0.1042,0.4619 -0.0117,0.0542 -0.0233,0.1085 -0.0346,0.1628l3.5503 -4.7166 -0.1656 6.8728 9.1913 -12.5035 3.2293 6.0447 5.962 -6.2932 6.6158 6.4801 6.6158 -6.4801 5.9619 6.2932 3.2295 -6.0447 9.1913 12.5035 -0.1657 -6.8728 1.7678 2.3487 -0.001 -0.0033z"/>
     <path id="_591482272" class="fil20" d="M261.851 95.5078c4.5435,3.2173 8.3306,7.0992 10.902,11.4508l-0.0058 -0.0098 -0.7994 5.1162 -7.7008 -10.7646 -3.809 6.2931 -5.4651 -5.2995 -6.2846 5.8765 -6.2846 -5.8765 -5.4651 5.2995 -3.809 -6.2931 -7.7009 10.7646 -0.828 -5.2995 -3.133 4.2791c2.3302,-6.0124 6.9591,-11.3289 12.8697,-15.52l1.1746 2.1987 5.9619 -6.2933 6.6158 6.4801 6.6158 -6.4801 5.9619 6.2933 1.1836 -2.2155z"/>
     <path id="_591484816" class="fil21" d="M248.107 88.5834c1.705,0.5754 3.3776,1.2308 5.0043,1.9602l-0.0014 -0.0006 -5.0194 4.6934 -5.0087 -4.6833c1.6332,-0.7332 3.3128,-1.3919 5.0252,-1.9697z"/>
    </g>
   </g>
   <path class="fil3 str8" d="M248.107 88.5834c15.4848,5.2255 28.2975,17.0369 28.2975,31.1578 0,6.0001 -1.2273,10.8266 -3.3881,14.63 0.1433,-9.9497 0.4694,-21.3081 -24.9094,-21.3081 -25.3787,0 -25.0527,11.3584 -24.9093,21.3081 -2.1608,-3.8034 -3.3882,-8.6299 -3.3882,-14.63 0,-14.1209 12.8128,-25.9323 28.2975,-31.1578z"/>
   <path id="_607930848" class="fil1" d="M245.892 88.2856c1.2538,1.1302 3.6347,0.7957 3.7189,-2.1654 0.0842,-2.961 2.8198,-3.4997 2.03,-4.3548 -0.7897,-0.8551 -2.2604,-0.9887 -3.2343,0.253 -0.6329,0.8069 -0.88,-0.7482 -0.531,-1.9992 0.1279,-0.4592 -2.2388,0.5423 -3.1356,2.9402 -0.7362,1.9686 -0.1019,4.1961 1.152,5.3262z"/>
   <g style="clip-path:url(#id8)">
    <g>
     <path id="_5916137761" class="fil18" d="M246.793 88.7243c0.9243,0.483 2.2972,-0.084 1.8914,-1.8685 -0.4058,-1.7846 0.5437,-2.9183 0.5436,-2.9182 0,0 -1.5189,0.2626 -1.9103,2.217 -0.1244,0.6212 -1.6274,-0.7276 -0.6115,-2.6817 0,-0.0001 -1.2559,0.6694 -1.423,2.2422 -0.1372,1.2912 0.5855,2.5262 1.5098,3.0092z"/>
    </g>
   </g>
   <path class="fil3 str8" d="M245.892 88.2856c1.2538,1.1302 3.6347,0.7957 3.7189,-2.1654 0.0842,-2.961 2.8198,-3.4997 2.03,-4.3548 -0.7897,-0.8551 -2.2604,-0.9887 -3.2343,0.253 -0.6329,0.8069 -0.88,-0.7482 -0.531,-1.9992 0.1279,-0.4592 -2.2388,0.5423 -3.1356,2.9402 -0.7362,1.9686 -0.1019,4.1961 1.152,5.3262z"/>
   <path id="_607930776" class="fil16" d="M229.566 124.546c0,0 4.4427,-0.6873 8.6753,0.3892 0,0 0.6762,-1.7066 -0.8924,-2.4354 -0.9397,-0.4363 -4.79,-0.5263 -5.958,-0.512 -1.2018,0.0147 -1.8249,2.5582 -1.8249,2.5582z"/>
   <path id="_607930704" class="fil3 str9" d="M252.889 142.887c-4.7822,2.3406 -9.5644,0 -9.5644,0"/>
   <path id="_607930632" class="fil13" d="M262.37 125.562c-1.7106,0 -3.0982,0.8671 -3.0982,1.9365 0,1.0693 1.3876,1.9364 3.0982,1.9364 1.7106,0 3.0983,-0.8671 3.0983,-1.9364 0,-1.0694 -1.3877,-1.9365 -3.0983,-1.9365z"/>
   <g style="clip-path:url(#id9)">
    <g>
     <circle id="_590436128" class="fil16" transform="matrix(-2.81926 -0.755418 -0.755418 2.81926 262.37 127.499)" r="0.682"/>
    </g>
   </g>
   <path class="fil3 str10" d="M262.37 125.562c-1.7106,0 -3.0982,0.8671 -3.0982,1.9365 0,1.0693 1.3876,1.9364 3.0982,1.9364 1.7106,0 3.0983,-0.8671 3.0983,-1.9364 0,-1.0694 -1.3877,-1.9365 -3.0983,-1.9365z"/>
   <path id="_607930560" class="fil13" d="M233.976 125.562c1.7106,0 3.0982,0.8671 3.0982,1.9365 0,1.0693 -1.3876,1.9364 -3.0982,1.9364 -1.7106,0 -3.0983,-0.8671 -3.0983,-1.9364 0,-1.0694 1.3877,-1.9365 3.0983,-1.9365z"/>
   <g style="clip-path:url(#id10)">
    <g>
     <circle id="_590440424" class="fil16" transform="matrix(2.81926 -0.755418 0.755418 2.81926 233.976 127.499)" r="0.682"/>
    </g>
   </g>
   <path class="fil3 str10" d="M233.976 125.562c1.7106,0 3.0982,0.8671 3.0982,1.9365 0,1.0693 -1.3876,1.9364 -3.0982,1.9364 -1.7106,0 -3.0983,-0.8671 -3.0983,-1.9364 0,-1.0694 1.3877,-1.9365 3.0983,-1.9365z"/>
  </g>
  <g id="_607930296">
   <path id="_607930464" class="fil12 str11" d="M111.84 206.424c3.5599,0.2725 6.1738,4.0634 5.9493,6.9961 -0.2245,2.9328 -3.2025,3.8983 -6.7624,3.6257 -3.56,-0.2725 -6.3561,-1.68 -6.1316,-4.6127 0.2245,-2.9328 3.3848,-6.2817 6.9447,-6.0091z"/>
   <path id="_607930392" class="fil0" d="M105.965 180.983c0,0 -1.3885,11.1414 -1.5391,15.1086 -0.1507,3.9673 1.9465,10.5551 1.766,12.9132 -0.1805,2.3582 -1.022,5.3544 1.6288,5.7103 2.6507,0.356 5.9803,0.8404 7.7823,0.2897 1.802,-0.5507 2.1056,-2.5168 1.081,-4.1256 -1.0246,-1.6087 -0.7892,-13.6801 -0.3921,-15.8686 0.3971,-2.1885 2.2187,-12.9907 2.2187,-12.9907l-12.5456 -1.0369z"/>
   <g style="clip-path:url(#id11)">
    <g>
     <path id="_4846116401" class="fil3 str12" d="M114.781 213.87c0,0 0.4986,-0.4987 1.3747,-0.2528m-8.399 -0.9743c0,0 -0.8797,2.0972 1.1708,2.2203m5.1001 -1.9773c0,0 -0.8797,2.097 1.1709,2.2202m-3.312 -2.0777c0,0 -0.8797,2.0971 1.171,2.2203m-3.2243 -2.3579c0,0 -0.8796,2.0971 1.171,2.22m-4.2485 -1.7345c0,0 0.1753,-0.1756 0.4836,-0.0889m1.0553 0.5902c0,0 0.3164,-0.3166 0.8725,-0.1606m1.1574 0.3671c0,0 0.3165,-0.3167 0.8725,-0.1605m1.1484 0.0878c0,0 0.3164,-0.3166 0.8724,-0.1604"/>
    </g>
   </g>
   <path class="fil3 str6" d="M105.965 180.983c0,0 -1.3885,11.1414 -1.5391,15.1086 -0.1507,3.9673 1.9465,10.5551 1.766,12.9132 -0.1805,2.3582 -1.022,5.3544 1.6288,5.7103 2.6507,0.356 5.9803,0.8404 7.7823,0.2897 1.802,-0.5507 2.1056,-2.5168 1.081,-4.1256 -1.0246,-1.6087 -0.7892,-13.6801 -0.3921,-15.8686 0.3971,-2.1885 2.2187,-12.9907 2.2187,-12.9907l-12.5456 -1.0369z"/>
   <path id="_607930320" class="fil12 str11" d="M117.442 214.324c0.1372,-0.5011 0.2282,-1.004 0.2659,-1.4965 0.276,-3.6054 -2.3928,-5.277 -5.8211,-5.5394 -3.4284,-0.2625 -6.3203,0.9834 -6.5963,4.5888 -0.0377,0.4925 -0.0243,1.0034 0.035,1.5195 0.8218,-2.5702 3.3817,-3.4683 6.3418,-3.2417 2.9602,0.2266 5.3537,1.5039 5.7747,4.1693z"/>
  </g>
  <g id="_607930056">
   <path id="_607930224" class="fil12 str11" d="M129.66 206.383c-3.5586,0.2888 -6.1551,4.0916 -5.9172,7.0233 0.2379,2.9317 3.2203,3.8835 6.779,3.5947 3.5586,-0.2888 6.3483,-1.7091 6.1104,-4.6407 -0.2379,-2.9317 -3.4135,-6.2661 -6.9722,-5.9773z"/>
   <path id="_607930152" class="fil0" d="M135.418 180.915c0,0 1.4395,11.1349 1.6083,15.1014 0.1688,3.9666 -1.8982,10.5639 -1.7069,12.9212 0.1913,2.3573 1.0465,5.3496 -1.6026,5.7177 -2.6491,0.368 -5.9765,0.8677 -7.781,0.3253 -1.8045,-0.5425 -2.117,-2.5072 -1.0998,-4.1206 1.0172,-1.6134 0.7265,-13.6836 0.3194,-15.8703 -0.4071,-2.1867 -2.2781,-12.9804 -2.2781,-12.9804l12.5407 -1.0943z"/>
   <g style="clip-path:url(#id12)">
    <g>
     <path id="_5914783601" class="fil3 str12" d="M126.759 213.845c0,0 -0.4986,-0.4987 -1.3748,-0.2527m8.399 -0.9744c0,0 0.8798,2.0972 -1.1708,2.2203m-5.1001 -1.9773c0,0 0.8797,2.0969 -1.1708,2.2202m3.3119 -2.0778c0,0 0.8799,2.0972 -1.1709,2.2205m3.2244 -2.358c0,0 0.8797,2.0971 -1.1712,2.2201m4.2485 -1.7347c0,0 -0.1753,-0.1755 -0.4835,-0.0888m-1.0553 0.5903c0,0 -0.3164,-0.3167 -0.8724,-0.1607m-1.1575 0.3671c0,0 -0.3164,-0.3167 -0.8724,-0.1606m-1.1485 0.088c0,0 -0.3162,-0.3168 -0.8724,-0.1604"/>
    </g>
   </g>
   <path class="fil3 str6" d="M135.418 180.915c0,0 1.4395,11.1349 1.6083,15.1014 0.1688,3.9666 -1.8982,10.5639 -1.7069,12.9212 0.1913,2.3573 1.0465,5.3496 -1.6026,5.7177 -2.6491,0.368 -5.9765,0.8677 -7.781,0.3253 -1.8045,-0.5425 -2.117,-2.5072 -1.0998,-4.1206 1.0172,-1.6134 0.7265,-13.6836 0.3194,-15.8703 -0.4071,-2.1867 -2.2781,-12.9804 -2.2781,-12.9804l12.5407 -1.0943z"/>
   <path id="_607930080" class="fil12 str11" d="M124.094 214.309c-0.1394,-0.5005 -0.2328,-1.003 -0.2727,-1.4953 -0.2925,-3.6041 2.3686,-5.2878 5.7957,-5.566 3.4271,-0.2781 6.3248,0.9545 6.6173,4.5586 0.0399,0.4923 0.0288,1.0033 -0.0281,1.5197 -0.8336,-2.5664 -3.3975,-3.4529 -6.3566,-3.2127 -2.9591,0.2401 -5.3468,1.5284 -5.7556,4.1957z"/>
  </g>
  <g id="_607929504">
   <path id="_607929984" class="fil22 str13" d="M104.921 173.484c-6.4115,8.0868 -6.7223,24.0029 -5.442,26.0161 1.025,1.6121 10.9915,4.875 21.2486,4.875 10.2572,0 20.2237,-3.2629 21.2487,-4.875 1.2802,-2.0132 0.9694,-17.9293 -5.4421,-26.0161l-15.8066 0 -15.8066 0z"/>
   <g>
    <path id="_607929912" class="fil23" d="M111.568 179.066c0,0 -2.9895,4.9015 -3.8975,10.0942 -0.9078,5.1925 -0.0741,9.3545 -0.0741,9.3545 0,0 1.7285,-6.7072 3.9716,-19.4487z"/>
    <path id="_607929840" class="fil23" d="M117.902 180.666c0,0 -2.2824,5.7098 -2.4872,11.073 -0.2045,5.3629 1.1614,9.1879 1.1614,9.1879 0,0 0.8088,-7.0962 1.3258,-20.2609z"/>
    <path id="_607929768" class="fil23" d="M123.553 180.666c0,0 2.2823,5.71 2.487,11.073 0.2048,5.3629 -1.1613,9.1879 -1.1613,9.1879 0,0 -0.8089,-7.0965 -1.3257,-20.2609z"/>
    <path id="_607929696" class="fil23" d="M129.887 179.066c0,0 2.9894,4.9015 3.8974,10.0941 0.908,5.1924 0.074,9.3546 0.074,9.3546 0,0 -1.7285,-6.7073 -3.9714,-19.4487z"/>
    <path id="_607929624" class="fil23" d="M135.017 177.572c0,0 3.2771,4.4586 4.4995,9.5004 1.2225,5.042 0.6477,9.3036 0.6477,9.3036 0,0 -2.1323,-6.4342 -5.1472,-18.804z"/>
    <path id="_607929552" class="fil23" d="M106.438 177.572c0,0 -3.277,4.4586 -4.4996,9.5004 -1.2224,5.042 -0.6475,9.3036 -0.6475,9.3036 0,0 2.1323,-6.4342 5.1471,-18.804z"/>
   </g>
  </g>
  <g id="_607929336">
   <path id="_607929432" class="fil10 str4" d="M107.724 150.112c-5.5487,3.2334 -2.826,12.8788 -2.905,15.7167 -0.0791,2.8378 -2.826,9.1206 3.1026,10.4245 8.4026,1.8479 17.2088,1.8479 25.6114,0 5.9286,-1.3039 3.1817,-7.5867 3.1027,-10.4245 -0.0791,-2.8379 2.6436,-12.4833 -2.905,-15.7167 -6.4833,-3.7781 -19.5235,-3.7781 -26.0067,0z"/>
   <path id="_607929360" class="fil12" d="M120.91 153.872c0,0 -0.6794,0.6345 -0.6462,2.0442 0.0332,1.4097 -0.0263,3.5554 -0.0263,3.5554 0,0 -1.9089,-4.4104 0.6725,-5.5996zm-0.3656 6.8611c0,0 0.6794,-0.6345 0.6462,-2.0442 -0.0332,-1.4097 0.0263,-3.5554 0.0263,-3.5554 0,0 1.9089,4.4104 -0.6725,5.5996zm-13.1479 7.5418c0,0 -0.4921,-0.7887 -0.0952,-2.1418 0.397,-1.353 0.8949,-3.441 0.8949,-3.441 0,0 -2.9854,3.766 -0.7997,5.5828zm9.0723 0c0,0 -0.4921,-0.7887 -0.0952,-2.1418 0.3969,-1.3531 0.8948,-3.4411 0.8948,-3.4411 0,0 -2.9853,3.7661 -0.7996,5.5829zm-5.4263 -9.4801c0,0 -0.4921,-0.7886 -0.0952,-2.1417 0.3969,-1.3531 0.8948,-3.4411 0.8948,-3.4411 0,0 -2.9853,3.766 -0.7996,5.5828zm3.1885 4.5575c0,0 -0.4921,-0.7887 -0.0952,-2.1418 0.3969,-1.3531 0.8948,-3.4411 0.8948,-3.4411 0,0 -2.9853,3.7661 -0.7996,5.5829zm-3.0406 9.2828c0,0 -0.4921,-0.7887 -0.0951,-2.1418 0.3969,-1.3531 0.8948,-3.4411 0.8948,-3.4411 0,0 -2.9853,3.7661 -0.7997,5.5829zm22.8675 -4.3602c0,0 0.4921,-0.7887 0.0952,-2.1418 -0.397,-1.353 -0.8949,-3.441 -0.8949,-3.441 0,0 2.9854,3.766 0.7997,5.5828zm-9.0723 0c0,0 0.4921,-0.7887 0.0951,-2.1418 -0.3969,-1.3531 -0.8948,-3.4411 -0.8948,-3.4411 0,0 2.9853,3.7661 0.7997,5.5829zm5.4263 -9.4801c0,0 0.4921,-0.7886 0.0952,-2.1417 -0.3969,-1.3531 -0.8948,-3.4411 -0.8948,-3.4411 0,0 2.9853,3.766 0.7996,5.5828zm-3.1885 4.5575c0,0 0.4921,-0.7887 0.0952,-2.1418 -0.397,-1.3531 -0.8949,-3.4411 -0.8949,-3.4411 0,0 2.9854,3.7661 0.7997,5.5829zm3.0406 9.2828c0,0 0.4921,-0.7887 0.0951,-2.1418 -0.3969,-1.3531 -0.8948,-3.4411 -0.8948,-3.4411 0,0 2.9853,3.7661 0.7997,5.5829zm-11.4085 -3.5011c0,0 -0.8205,0.437 -1.1532,1.8073 -0.3328,1.3702 -0.9456,3.4274 -0.9456,3.4274 0,0 -0.7024,-4.7541 2.0988,-5.2347zm3.7434 0c0,0 0.8205,0.437 1.1533,1.8073 0.3327,1.3702 0.9455,3.4274 0.9455,3.4274 0,0 0.7024,-4.7541 -2.0988,-5.2347zm-5.8724 6.5327c0,0 0.8206,-0.437 1.1533,-1.8073 0.3328,-1.3703 0.9456,-3.4275 0.9456,-3.4275 0,0 0.7024,4.7542 -2.0989,5.2348zm8.0014 0c0,0 -0.8205,-0.437 -1.1533,-1.8073 -0.3328,-1.3703 -0.9456,-3.4275 -0.9456,-3.4275 0,0 -0.7023,4.7542 2.0989,5.2348zm4.1135 -9.7536c0,0 -0.4921,0.7888 -0.0951,2.1418 0.3969,1.3531 0.8948,3.4411 0.8948,3.4411 0,0 -2.9854,-3.7661 -0.7997,-5.5829zm-3.0406 -9.2828c0,0 -0.492,0.7887 -0.0951,2.1418 0.3969,1.3531 0.8948,3.4411 0.8948,3.4411 0,0 -2.9853,-3.7661 -0.7997,-5.5829zm3.1886 -4.5574c0,0 -0.4921,0.7887 -0.0952,2.1418 0.397,1.3531 0.8948,3.4411 0.8948,3.4411 0,0 -2.9853,-3.7661 -0.7996,-5.5829zm-5.4264 9.4801c0,0 -0.492,0.7886 -0.0951,2.1417 0.3969,1.3531 0.8948,3.4411 0.8948,3.4411 0,0 -2.9853,-3.7661 -0.7997,-5.5828zm9.0723 0c0,0 -0.492,0.7887 -0.0951,2.1417 0.3969,1.3531 0.8948,3.4411 0.8948,3.4411 0,0 -2.9853,-3.7661 -0.7997,-5.5828zm-20.0223 4.3601c0,0 0.4921,0.7888 0.0951,2.1418 -0.3969,1.3531 -0.8948,3.4411 -0.8948,3.4411 0,0 2.9853,-3.7661 0.7997,-5.5829zm3.0405 -9.2828c0,0 0.4921,0.7887 0.0952,2.1418 -0.397,1.3531 -0.8948,3.4411 -0.8948,3.4411 0,0 2.9853,-3.7661 0.7996,-5.5829zm-3.1885 -4.5574c0,0 0.4921,0.7887 0.0952,2.1418 -0.397,1.3531 -0.8949,3.4411 -0.8949,3.4411 0,0 2.9854,-3.7661 0.7997,-5.5829zm5.4263 9.4801c0,0 0.4921,0.7886 0.0952,2.1417 -0.397,1.3531 -0.8948,3.4411 -0.8948,3.4411 0,0 2.9853,-3.7661 0.7996,-5.5828zm-9.0723 0c0,0 0.4921,0.7887 0.0952,2.1417 -0.397,1.3531 -0.8948,3.4411 -0.8948,3.4411 0,0 2.9853,-3.7661 0.7996,-5.5828z"/>
  </g>
  <path class="fil13 str5" d="M180.857 101.124c12.0503,0 21.8227,6.3272 21.8227,14.1292 0,7.8021 -9.7724,14.1293 -21.8227,14.1293 -5.935,0 -11.3167,-1.5354 -15.2508,-4.0254l-8.0449 4.01 4.0251 -7.4806c-1.628,-1.9781 -2.552,-4.2358 -2.552,-6.6333 0,-7.802 9.7724,-14.1292 21.8226,-14.1292z"/>
  <path class="fil14" d="M181.804 116.492c0,0.7027 -0.2836,1.2721 -0.8509,1.7081 -0.5673,0.4361 -1.2658,0.6541 -2.0955,0.6541 -0.4572,0 -0.9271,-0.1228 -1.4097,-0.3683 -0.4826,-0.2455 -0.7239,-0.5122 -0.7239,-0.8001 0,-0.1185 0.0572,-0.2307 0.1715,-0.3366 0.1143,-0.1058 0.2434,-0.1587 0.3873,-0.1587 0.0508,0 0.3006,0.1037 0.7493,0.3111 0.4487,0.2075 0.7451,0.3112 0.889,0.3112 0.4572,0 0.8446,-0.1101 1.1621,-0.3302 0.3175,-0.2201 0.4762,-0.5249 0.4762,-0.9144 0,-0.4064 -0.3598,-0.7832 -1.0795,-1.1303 -0.6773,-0.3133 -1.3547,-0.6265 -2.032,-0.9398 -0.7281,-0.4233 -1.0922,-0.9144 -1.0922,-1.4732 0,-0.5927 0.3217,-1.1663 0.9652,-1.7209 0.6435,-0.5545 1.3504,-0.8318 2.1209,-0.8318 0.5419,0 0.889,0.0085 1.0414,0.0254 0.4826,0.0508 0.7239,0.2582 0.7239,0.6223 0,0.2625 -0.5884,0.4403 -1.7653,0.5334 -1.1769,0.0931 -1.7653,0.5292 -1.7653,1.3081 0,0.4149 0.3556,0.7451 1.0668,0.9906 1.2023,0.4064 1.8627,0.6435 1.9812,0.7112 0.7197,0.4064 1.0795,1.016 1.0795,1.8288zm2.2733 1.4224c0,0.6943 -0.0423,1.198 -0.1249,1.5113 -0.1058,0.4064 -0.2921,0.6096 -0.5567,0.6096 -0.1418,0 -0.2434,-0.1714 -0.3048,-0.5143 -0.0613,-0.343 -0.0931,-0.8192 -0.0931,-1.4288l-0.1651 -5.6642c0,-0.3895 0.0445,-0.69 0.1334,-0.9017 0.0889,-0.2117 0.2561,-0.3175 0.5016,-0.3175 0.2371,0 0.3979,0.2074 0.4826,0.6223 0.0847,0.4149 0.127,1.1261 0.127,2.1336l0 3.9497z"/>
  <path class="fil0 str0" d="M114.215 143.567l13.0238 0 0 5.6497c0,1.639 -2.9159,2.9683 -6.5118,2.9683 -3.5957,0 -6.512,-1.3293 -6.512,-2.9683l0 -5.6497z"/>
  <g id="_607928496">
   <path id="_607929048" class="fil16 str10" d="M139.539 136.857c0,0 6.9866,3.8292 7.1882,8.0614 0.1967,4.1333 0.5828,13.2695 6.584,14.0238 1.8239,0.229 -4.8986,2.2102 -7.323,-0.6551 -3.6947,-4.3664 -2.3589,-7.378 -8.5318,-8.8677 -6.1727,-1.4896 -6.9193,-2.8215 -6.9193,-2.8215l9.0019 -9.7409z"/>
   <path id="_607928976" class="fil16 str10" d="M101.915 136.857c0,0 -6.9866,3.8292 -7.1881,8.0614 -0.1968,4.1333 -0.5829,13.2695 -6.5841,14.0238 -1.8238,0.229 4.8987,2.2102 7.323,-0.6551 3.6947,-4.3664 2.359,-7.378 8.5318,-8.8677 6.1728,-1.4896 6.9194,-2.8215 6.9194,-2.8215l-9.002 -9.7409z"/>
   <path id="_607928904" class="fil6 str10" d="M94.2523 150.309c-0.1713,1.0846 -0.409,2.1844 -0.7453,3.2207 1.2188,-0.0599 2.794,0.1151 4.3648,1.0002 0.6543,-1.2944 1.1665,-2.3952 2.1783,-3.2926 -1.2009,-0.9536 -3.0799,-1.496 -5.7978,-0.9283z"/>
   <path id="_607928832" class="fil24" d="M101.63 140.73c0,0 -4.2818,3.3841 -4.2565,7.7139 0,0 1.849,-3.8798 4.2565,-7.7139z"/>
   <path id="_607928760" class="fil6 str10" d="M147.202 150.309c0.1712,1.0846 0.409,2.1844 0.7452,3.2207 -1.2187,-0.0599 -2.7939,0.1151 -4.3647,1.0002 -0.6543,-1.2944 -1.1666,-2.3952 -2.1783,-3.2926 1.2008,-0.9536 3.0798,-1.496 5.7978,-0.9283z"/>
   <g>
    <path id="_607928688" class="fil24" d="M139.824 140.73c0,0 4.2818,3.3841 4.2564,7.7139 0,0 -1.849,-3.8798 -4.2564,-7.7139z"/>
    <path id="_607928616" class="fil24" d="M135.743 139.601c0,0 4.2818,3.3841 4.2565,7.7139 0,0 -1.849,-3.8798 -4.2565,-7.7139z"/>
   </g>
   <path id="_607928520" class="fil24" d="M105.712 139.601c0,0 -4.2818,3.3841 -4.2564,7.7139 0,0 1.8489,-3.8798 4.2564,-7.7139z"/>
  </g>
  <g id="_607927320">
   <path id="_607928424" class="fil0 str0" d="M93.2326 125.833c0.7706,-0.4449 2.1171,0.4441 3.0069,1.9853 0.8898,1.5412 0.9865,3.1518 0.2159,3.5967 -0.7706,0.4449 -2.1171,-0.4441 -3.0069,-1.9853 -0.8898,-1.5412 -0.9865,-3.1518 -0.2159,-3.5967zm54.989 0c-0.7706,-0.4449 -2.1171,0.4441 -3.0069,1.9853 -0.8898,1.5412 -0.9865,3.1518 -0.2159,3.5967 0.7706,0.4449 2.1171,-0.4441 3.0069,-1.9853 0.8898,-1.5412 0.9865,-3.1518 0.2159,-3.5967z"/>
   <path id="_607928352" class="fil0 str0" d="M120.727 96.8066c27.5756,0 25.331,17.4867 25.331,31.4742 0,13.9875 -11.3435,19.1879 -25.331,19.1879 -13.9875,0 -25.3311,-5.2004 -25.3311,-19.1879 0,-13.9875 -2.2446,-31.4742 25.3311,-31.4742z"/>
   <path id="_607928280" class="fil3 str0" d="M118.648 130.79c0,0 2.0466,1.2541 4.1584,0"/>
   <path id="_607928208" class="fil16 str10" d="M113.377 109.091c-0.5102,0.5597 -0.6686,2.7948 -5.7382,2.9452 -5.0695,0.1503 -5.9434,1.0812 -8.0474,6.4185 -2.104,5.3372 -3.4785,15.9207 -3.4785,15.9207 0,0 -1.4946,-6.8381 -3.1204,-11.3326 -1.6258,-4.4945 -1.7214,-16.4798 8.416,-22.5661 8.947,-5.3718 17.4457,-5.3461 19.3184,-5.2658 1.8727,-0.0803 10.3714,-0.106 19.3184,5.2658 10.1374,6.0863 10.0418,18.0716 8.416,22.5661 -1.6258,4.4945 -3.1204,11.3326 -3.1204,11.3326 0,0 -1.3745,-10.5835 -3.4785,-15.9207 -2.104,-5.3373 -17.6778,-6.2682 -22.7473,-6.4185 -5.0695,-0.1504 -5.2279,-2.3855 -5.7381,-2.9452z"/>
   <path id="_607928136" class="fil25" d="M94.8431 108.275c0,0 5.5945,3.1032 3.4251,4.999 -2.1694,1.8957 -3.4251,-4.999 -3.4251,-4.999z"/>
   <ellipse id="_607928064" class="fil13 str10" transform="matrix(-0.477224 0.477224 0.477224 0.477224 97.442 112.155)" rx="1.04" ry="0.3536"/>
   <path id="_607927992" class="fil24" d="M137.718 102.603c0,0 4.0228,3.1794 3.999,7.2473 0,0 -1.7372,-3.6451 -3.999,-7.2473z"/>
   <path id="_607927920" class="fil24" d="M130.545 100.286c0,0 4.0229,3.1794 3.999,7.2474 0,0 -1.7371,-3.6452 -3.999,-7.2474z"/>
   <path id="_607927848" class="fil24" d="M123.142 98.246c0,0 4.0228,3.1794 3.999,7.2474 0,0 -1.7372,-3.6452 -3.999,-7.2474z"/>
   <path id="_607927776" class="fil24" d="M105.581 100.286c0,0 -4.0229,3.1794 -3.999,7.2474 0,0 1.7371,-3.6452 3.999,-7.2474z"/>
   <path id="_607927704" class="fil17" d="M103.923 132.402c1.687,0 3.0552,1.368 3.0552,3.0552 0,1.6872 -1.3682,3.0552 -3.0552,3.0552 -1.6872,0 -3.0554,-1.368 -3.0554,-3.0552 0,-1.6872 1.3682,-3.0552 3.0554,-3.0552zm33.6084 0c1.6871,0 3.0553,1.3682 3.0553,3.0552 0,1.6873 -1.3682,3.0553 -3.0553,3.0553 -1.6871,0 -3.0553,-1.368 -3.0553,-3.0553 0,-1.687 1.3682,-3.0552 3.0553,-3.0552z"/>
   <path id="_607927632" class="fil13" d="M106.755 122.377c1.6523,0.4427 2.7683,1.6395 2.4915,2.6723 -0.2767,1.0329 -1.8416,1.5113 -3.4939,1.0686 -1.6523,-0.4427 -2.7683,-1.6395 -2.4915,-2.6723 0.2768,-1.0329 1.8416,-1.5113 3.4939,-1.0686z"/>
   <g style="clip-path:url(#id13)">
    <g>
     <circle id="_590422280" class="fil16" cx="106.254" cy="124.248" r="1.99056"/>
    </g>
   </g>
   <path class="fil3 str10" d="M106.755 122.377c1.6523,0.4427 2.7683,1.6395 2.4915,2.6723 -0.2767,1.0329 -1.8416,1.5113 -3.4939,1.0686 -1.6523,-0.4427 -2.7683,-1.6395 -2.4915,-2.6723 0.2768,-1.0329 1.8416,-1.5113 3.4939,-1.0686z"/>
   <path id="_607927560" class="fil16" d="M102.247 120.972c0,0 4.3353,-0.7039 8.6706,0.3986 0,0 -3.4882,-4.6841 -8.6706,-0.3986z"/>
   <path id="_607927488" class="fil13" d="M134.815 122.377c-1.6523,0.4427 -2.7682,1.6395 -2.4915,2.6723 0.2768,1.0329 1.8416,1.5113 3.4939,1.0686 1.6523,-0.4427 2.7683,-1.6395 2.4915,-2.6723 -0.2767,-1.0329 -1.8415,-1.5113 -3.4939,-1.0686z"/>
   <g style="clip-path:url(#id14)">
    <g>
     <circle id="_590429216" class="fil16" cx="135.316" cy="124.248" r="1.99056"/>
    </g>
   </g>
   <path class="fil3 str10" d="M134.815 122.377c-1.6523,0.4427 -2.7682,1.6395 -2.4915,2.6723 0.2768,1.0329 1.8416,1.5113 3.4939,1.0686 1.6523,-0.4427 2.7683,-1.6395 2.4915,-2.6723 -0.2767,-1.0329 -1.8415,-1.5113 -3.4939,-1.0686z"/>
   <path id="_607927416" class="fil16" d="M139.322 120.972c0,0 -4.3353,-0.7039 -8.6707,0.3986 0,0 3.4882,-4.6841 8.6707,-0.3986z"/>
   <path id="_607927344" class="fil3 str9" d="M125.509 139.299c-4.7822,4.2684 -9.5644,0 -9.5644,0"/>
  </g>
 </g>
</svg>
